<?xml version="1.0" encoding="UTF-8"?>
<svg id="Layer_2" data-name="Layer 2" xmlns="http://www.w3.org/2000/svg" viewBox="0 0 238.57 319.74">
  <g id="Layer_1-2" data-name="Layer 1">
    <style>
      path{
      fill:#80FFFF;
      }
    </style>
    <style>
      @import url(../css/art.css)
    </style>
    <g>
      <path d="m0,318.74c.21.17.41.33.62.5-.21.08-.41.16-.62.25,0-.25,0-.5,0-.75Z"/>
      <path d="m127.85,79.29v3.97c.98-1.12,1.69-1.92,2.11-2.4,2.97-.37,4.66.88,6.3,2.81-.65.78-1.33,1.59-1.74,2.09-1.52.35-2.66.61-4.11.95-.38-.51-.92-1.23-1.47-1.98-.01,0-.32.14-.31.22.28,1.86.59,3.71.99,6.09.96-1.22,1.64-2.08,2.31-2.94,2.34.64,4.42,1.25,6.07,3.51-2.6.66-4.28,2.71-6.85,2.64-.21-.57-.37-1-.68-1.84-.69,2.28-.29,3.97.88,5.75.48-.61.94-1.19,1.3-1.65,2.9-.15,4.13,1.96,5.8,3.43-2.05,2.75-3.34,3.11-6.36,1.89-.5.73-1,1.47-1.46,2.15h-1.72c-.14-.4-.28-.83-.49-1.45-.37.25-.69.48-1.21.84-.41-.29-.89-.62-1.38-.96.03-.22.04-.4.09-.57.15-.56.62-1.34.41-1.64-.95-1.33-.57-2.79-.71-4.21-.18-1.77-.2-3.64-.81-5.27-.67-1.78-.5-3.54-.72-5.32-.17-1.35-.85-2.64-1.16-3.98-.34-1.48-1.28-2.81-1.06-4.43.06-.44-.14-.92-.28-1.36-1.39-4.28-2.58-8.64-4.25-12.81-1.24-3.09-2.89-6.03-4.36-9.03-2.46-5.01-5.08-9.96-8.36-14.43-3.07-4.18-6.36-8.33-10.92-11.15-.72-.45-1.23-1.23-1.87-1.82-1.43-1.33-2.88-2.65-4.36-3.93.01,0,.06-.06.11-.11-.17-.2-.35-.41-.52-.61-.08.08-.16.16-.24.24.2.17.41.35.64.48.53,1.5,1.35,3.02,1.45,4.58.12,1.99,2.18,2.44,2.64,4.18.37,1.38,1.59,2.53,2.42,3.77.47-.43,1.08-.99,1.9-1.75.57,1.06.99,1.84,1.28,2.38-.45,1.72-.83,3.21-1.23,4.76.17-.02,3.46-.46,3.48-.47-.48,1.9-.95,3.8-1.39,5.73,0-.01-.06-.06-.11-.11-.2.17-.41.35-.61.52.08.08.16.16.24.24.17-.2.35-.41.48-.65.58-.03,1.21-.03,1.83-.03.44,2.9-.9,5.76-3.53,7.3.26.39.42.91.78,1.13,2.72,1.67,4.64,4.05,6.63,6.51,2.11,2.6,3.92,5.39,5.34,8.3,1.39,2.84,3.29,5.33,4.62,8.17,1.28,2.71,2.62,5.4,3.95,8.08.1.21.34.36.53.54v3c.88.87,1.76,1.74,2.65,2.62h1.78c.45,1.07.94,2.24,1.44,3.43-1.02,1.35-1.38,3.56-4,3.42-.5-.03-.95,1.54-1.65,2.09-1.1.86-2.38,1.47-3.74,2.27h-6.5c-.43.71-.84,1.4-1.3,2.15h-10.97c-.35-.56-.79-1.26-1.22-1.95-.74.5-1.58,1.07-2.47,1.67.02.04.06.3.2.37,1.55.84,1.56.83,1.88,2.7,1.96.73,4.32,1.08,5.93,2.37,1.58,1.26,4.05,1.83,4.68,4.68-2.88,0-5.58.14-8.26-.07-1.07-.08-2.08-.93-3.12-1.43-.25-.25-.5-.5-.81-.75-.07-.71-.07-1.42-.07-2.14-.72-.08-1.31-.15-1.27-.14-1.11-.83-1.8-1.35-2.27-1.71v-2.97c.83-.62,1.49-1.11,2.32-1.73-.79-.27-1.23-.42-1.51-.52v-3.96c1.02-1.39,2.23-1.07,3.49-.89.49.74.98,1.48,1.63,2.46.65-1,1.14-1.74,1.75-2.67,1.21.38,2.4.16,3.77.55,3.76,1.06,7.55,2.27,11.62,1.82,1.77-.2,3.23-.62,4.48-1.87,1.27-1.26,2.31-2.85,4.39-2.95.28-.01.62-.45.77-.77.13-.28.03-.66.03-1.15-.63-.04-1.22-.08-1.58-.1-3.22-3.21-4.84-7.66-9.47-9.68-2.29-.09-4.94-.22-7.23,1.48-1.7-.32-2.36.72-2.82,2.1-.1.32-.5.54-.6.63-2.78.37-5.35.71-7.58,1-.99-1.6-1.79-2.89-2.83-4.58-.63-2.22,1.17-4.17,2.45-6.28-.68-.27-1.1-.44-1.56-.62-.08-1.41-.16-2.83-.25-4.35-.61.15-.94.24-1.38.35v12.25c-.56.2-.99.35-1.4.5-.38,3,1,4.78,3.93,5.83.81-1.4,2.13-.84,3.6-.67.35.95.69,1.86.95,2.55,1.46-1.47,2.93-2.93,3.84-3.84,4.09,0,6.52,2.84,10,2.74v2c-3.82,1.14-7.64,2.17-11.69,2.41-.49-.84-.89-1.55-1.3-2.26-.86.8-1.73,1.6-2.28,2.11-2.35-.33-4.22-.59-5.97-.84-1.5-.82-2.91-1.6-4.32-2.37-.75,1.46-1.33,2.59-2.02,3.94v7.24c1.03,1.03,1.94,2.3,3.17,3.09,2.33,1.5,4.83,2.72,7.23,4,.31.25.56.5.81.75-.2,1.98.79,3.41,2.1,4.74,1.74,1.76,3.04,3.82,4.24,6.74-1.04-.4-1.67-.44-1.96-.78-1.34-1.55-2.59-3.18-3.99-4.93-.95,1.7-1.8,3.21-2.63,4.69-2.54-.39-4.77,2.17-6.96-.22-.44.85-.76,1.47-1.17,2.26.45.28.96.72,1.56.97,1.93.79,2.2,2.73,2.56,4.3.19.82.68,2.31-.48,3.2-1.85-.32-3.57-1.08-4.88-2.35-1.08-1.06-1.3-2.67-1.08-4.15-2.23-.53-3.06-1.96-3.2-4.14-1.23.61-2.64-.59-3.56.92-2.74,0-5.48.02-8.22-.01-.71,0-1.46-.06-2.13-.27-3.15-.99-6.01-2.55-8.51-4.73-.09-.07-.34.05-.65.1v2.84c-1.84,1.84-3.42,3.42-5.01,5.02-.65,0-1.38,0-1.34,0-1.97-.91-3.27-1.51-4.49-2.07-.9,1.8-2.24,3.39-2.42,5.11-.27,2.51-1.15,4.92-.98,7.54.11,1.6.88,2.97.87,4.54-.04,4.74.19,9.48-.07,14.21-.27,4.81,1.09,9.49.81,14.28-.14,2.5-.11,5,1.05,7.09,1.1-.42,2.2-.78,3.24-1.27,2.56-1.21,5.43-1.27,8.03-2.28,1.39-.54,2.75-.7,4.19-.72,2.15-.02,4.27-.59,6.36-.95,2.79-.49,5.6-.9,8.41-1.25,1.45-.18,2.94-.03,4.43-.03,1.7-2.73,4.39-3.66,7.16-4.5,1.1-.33,2.15-.82,3.83-1.48h3.41c.54-.64,1.25-1.49,1.82-2.17.96-.08,1.69-.14,2.42-.22.09-.01.16-.17.36-.4-.85-1.9-2.51-2.96-4.1-3.74-2.17.67-4.05,1.81-6.23,1.16-3.1-2.54-2.82-6.39-4.19-9.77.84-.84,1.64-1.65,2.44-2.44-.43-.43-.69-.69-1.22-1.22h-5.18c.58-.86.83-1.39,1.22-1.8,1.71-1.8,4.03-3.29,5.04-5.4,1.22-2.54,4.23-1.81,5.38-3.92,1.63.52,2.97-.75,4.52-.75,1.73,0,3.47,0,5.11.05.72,1.24,1.86.49,2.77.62.03,0,.1-.31.19-.58-1,0-1.93,0-2.97-.05,0-.26-.07-.65-.16-.65-2.08-.07-4.18-.31-6.22-.06-1.09.13-2.45.29-3.24,1.41-1.17.22-2.34.43-3.9.72.37-.9.64-1.56.91-2.22,2.31-.19,4.24-1.36,5.97-2.7,1.64-1.27,3.94-1.92,4.56-4.38.15-.62.94-1.14,1.53-1.59,1.13-.86,2.33-1.63,3.73-2.6.29.18.77.49,1.53.97,1.43-1.06,2.95-2.19,4.57-3.39-.36-1.64-.69-3.13-1.08-4.92,1.92-.38,3.77-.75,6.33-1.26.21-.26.9-1.12,1.48-1.85h2.49c.37-1.14.72-2.24,1.14-3.5,1.99.13,1.92-2.02,2.79-2.74,2.88-1.55,5.7-1.18,8.46-1.2,3.35-.02,6.71,0,10.23,0,.58,1.26,1.17,2.51,1.82,3.91.55-.89.96-1.56,1.41-2.3h3.69c.27.93.6,2.04.94,3.22-1.06.69-1.95,1.27-2.72,1.77-.63-.24-1.21-.46-2.2-.83.55,1.68.93,2.84,1.45,4.46.59-.82.94-1.31,1.4-1.95.3-.01.78-.04,1.54-.07.77,1.01,1.62,2.14,2.43,3.22-.31.66-.6,1.27-.97,2.07-1.16-.23-2.52.45-3.76-.67-.67,1.07-1.35,2.16-2.09,3.35,1.73.77,2.02-.89,3.23-1.29.69.59,1.49,1.29,2.12,1.83.54,2-1.09,2.5-1.87,3.69-1.1-.58-2.13-1.12-3.31-1.75-.99.71-2.07,1.48-3.22,2.3,1.62,1.85,2.78-.45,4.25.05,2.08,1.04,1.22,2.58.13,4.27h-3.22c-.33-.52-.83-1.29-1.31-2.05-.26.26-.52.53-.92.92.58,1.02,1.08,2.18-.42,3.45.97.32,1.76.85,2.48.78,2.79-.29,5.6-.69,8.19-1.83,1.06-.47,1.93-1.37,2.88-2.08.64-.48,1.26-.98,2.4-1.86,0,1.21.19,1.88-.03,2.35-1.41,3.04-1.3,6.47-2.37,9.5-.72,2.03-2.16,4.09-4.54,5.29-2.6,1.31-5.27,2.32-8.15,3.26,2.86,1.33,5.5-.54,8.08-.35.76,1.34-.42,1.63-.86,2.26-.66.96-2.17,1.4-1.81,3.01,0-.01-.06-.06-.11-.11-.2.17-.41.35-.61.52l.24.24c.17-.2.35-.41.48-.65.33-.03.85.13,1.06-.06,2.4-2.08,4.8-4.15,7.1-6.34,2.35-2.23,4.91-4.33,6.8-6.92,2.35-3.22,5.2-5.91,8.07-8.56,2.5-2.32,5.1-4.64,8.66-6.03-2.3-1.11-4.23-2.04-6.22-2.99v-2.17c.72.27,1.29.48,1.87.7,1.05-3.03,5.23-2.68,6.3-5.74.89,0,1.62,0,1.56,0,2.54-1.25,4.41-2.17,6.22-3.06.39.3.77.58,1.27.95,1.91-2.34,2-5.26,3.26-7.88,2.64,1.24,2.76,3.86,3.69,6.2,4.14-2.01,8.35-3.72,12.88-4.79,4.51-1.06,8.94-2.32,14.24-1.9-.88-1.29-1.39-2.03-2.01-2.95v-3.35c.53-.9,1.19-1.65,1.46-2.52.61-1.98,2.18-2.37,3.86-2.48,4.83-.3,7.7,1.28,10.34,5.54q.04,3.67-2.79,6.89c1.18.41,2.38.82,3.57,1.23v1.75c-.7.21-1.46.44-2.22.66-.44.13-.9.37-1.34.36-7.23-.2-13.79,2.71-20.53,4.62-1.93.55-3.81,1.6-5.83,2.14-1.57.42-2.31,1.87-2.68,3.16-1.06,3.72-3.34,6.84-4.83,10.53.72.47,1.47.96,2.24,1.46v3.99c-.68.57-1.53,1.28-2.47,2.06,2.2,2.79.23,5.04-.43,7.31.81,1.25,1.57,2.43,2.37,3.68-1.49,2.05-3.28,3.24-6.12,2.96.2,1.92-.63,3.78.64,5.63.35.51.08,1.45.08,2.2,0,2.62.07,5.24-.02,7.85-.05,1.4-.36,2.79-.55,4.09-1.77.79-3.34,1.5-4.92,2.21.04.11.09.23.13.34-2.94.39-5.89.78-9,1.19,1.91.95,3.62,1.89,5.4,2.67,1.79.79,3.59,1.72,5.48,2.05,1.86.32,3.95.29,5.46,1.24,1.93,1.2,4.27-.68,5.8,1.14.43-.23.83-.6,1.26-.63,1.11-.09,2.24-.03,3.36-.03,5.78,0,11.17-1.64,16.03-4.56,4.22-2.54,7.89-5.87,10.13-10.46,1.1-2.24,2.04-4.5,1.84-7.1-.13-1.73-.02-3.48-.02-5.47.59-.04,1.18-.08,1.73-.12,1.22,1.23,1.18,2.75,1.31,4.3.14,1.64-1.02,3.19-.66,4.52.42,1.55.59,3.04.61,4.59.02,1.62,0,3.24,0,4.86,0,1.2-.03,2.32-.69,3.46-.51.87.4,2.18-.55,3.14-.21.21-.25.66-.24,1.01.04,2.88-.62,5.62-1.43,8.38-.45,1.55-.53,3.3-.7,4.92-.75,7.09-4.68,14.88-7.98,19.91-2.9,4.44-5.96,8.79-10,12.32-3.13,2.73-6.44,5.21-10.11,7.18-1.52.82-3.06,1.92-4.69,2.14-1.68.23-3.77-.01-5.15-.88-1.42-.89-2.82-.03-4.18-.84-1.04-.62-2.59-.39-4.17-.57-.37-.45-.93-1.12-1.7-2.05.38-.3.89-.86,1.53-1.16,3.4-1.61,4.7-4.89,5.87-7.99,1.45-3.82,2.21-7.99,1.48-12.04-.56-3.15-.86-6.46-2.84-9.29-1.04-1.48-1.36-3.45-2.33-4.99-2.39-3.8-5.2-7.31-8.67-10.18-1.89-1.55-4.26-2.53-6.11-4.11-2.04-1.75-4.54-2.31-6.84-3.39-.73-.34-1.63-.36-2.28-.79-1.57-1.04-3.58-1.26-4.83-.51-1.67,1-3.31.16-4.92.82-1.48.61-3.29.44-5.08.62v-2.34c3.3.22,6.52-1.26,9.95-.81,2.19.29,4.15-1.11,6.42-.8,2.08.28,4.38.55,6.31-.05,3.29-1.01,6.56-.33,9.81-.66,1.62-.17,3.21-.58,4.91-.89-.65-.73-1.17-1.25-1.61-1.83-.1-.14.03-.46.08-.83,1.39-.62,1.73.95,2.89,1.45.55-.2,1.3-.48,1.86-.69.21-.49.41-.74.36-.91-.37-1.3.67-2.45.12-3.91-.49-1.31-.1-2.95-.1-4.45v-8.54c-2.74-.87-5.48-1.44-8.24-1.02-2.73.42-5.2-1.19-7.91-.74-1.53,3.22-.96,6.66-1.05,10.03.61.87,1.07,1.97,1.89,2.54.8.56,2.01.87,2.99.77,1.1-.12,2.13-.84,3.06-1.24q.18-2.78-2.61-3.39v-1.89h2.68c1.92,1.46,2.38,3.76,2.55,6.31-.91.58-1.8,1.15-2.78,1.78-1.14,0-2.39.02-3.63-.01-.59-.02-1.37.06-1.74-.27-1.75-1.55-3.84-1.2-5.86-1.21-3.61-.02-7.23-.12-10.83.02-4.51.18-9,.57-13.75.88-1.73,1.56-3.67,3.32-5.56,5.11,0-.01-.06-.06-.11-.11-.2.17-.41.35-.61.52l.24.24c.17-.2.35-.41.48-.65.46-.03.96-.03,1.86-.03.64.77,1.45,1.75,2.45,2.95,1.37-.39,3.26-1.88,4.8.86-1.25,1.31-2.56,2.7-4.17,4.38h6.17c.04.74.06,1.22.1,1.96-2.21.96-4.48,1.94-6.84,2.96,3.61.5,3.92.62,5.97,2.13-2.15,3.69-6.69,2.31-9.43,4.2,2,3.11,3.8,6.12,5.81,8.99,2.66,3.81,5.47,7.52,8.41,11.53,1.64-2.38,3.03-4.45,4.33-6.63,1.63-2.73,3.54-5.32,5.52-7.81,1.96-2.47,4.82-3.79,7.75-5.32h6.42c1.33.8,2.82,1.38,3.89,2.4,3.79,3.62,5.8,8.07,5.49,13.4-.05.91-.52,1.78-.71,2.69-.29,1.38-.78,2.8-.69,4.17.1,1.53-.64,2.78-.84,4.18-.13.91-.44,1.8-.74,2.68-.18.54-.72,1.06-.69,1.56.12,2.11-.74,3.95-1.59,5.71-.79,1.63-.78,3.4-1.41,5.03-.41,1.08-.4,2.33-.83,3.4-.23.57-1.02.91-1.76,1.52-1.4-3.21,1.14-5.93.14-8.76,2.12-1.52,1.94-4.02,2.92-5.98.94-1.88.76-4.11,1.61-6.07.89-2.05.89-4.32,1.54-6.46.62-2.01-.25-4.35.54-6.59-.39-1.79-.41-4.08-1.4-5.81-1.07-1.88-3.06-3.24-4.53-4.72-.95-.14-1.89-.04-2.6-.41-2.39-1.25-4.39-.06-6.34.93-3.33,1.68-5.28,4.75-7.26,7.75-2.26,3.43-4.5,6.86-6.72,10.23-.19,1.43.55,2.06,1.6,2.36,3.62-5.86,8.73-10.11,14.34-14.75.6.6,1.15,1.14,1.81,1.79-6.17,4.5-11.43,8.97-14.76,15.27,3.64,4.73,7.06,9.65,10.96,14.14,4.7,5.41,8.68,11.33,12.54,17.29,2.67,4.12,5.49,8.15,8.05,12.35,2.56,4.2,5.31,8.29,8.09,12.36,1.68,2.45,3.58,4.75,5.35,7.14.34.46.56,1.01.87,1.56,3.42.3,6.95.35,10.38.96,3.81.69,7.58,1.59,11.41,2.23.85.14,1.59.96,2.64,1.63-.13.81-.26,1.66-.43,2.74,1.16,1.19,0,3.04.42,4.39-1.53,1.53-2.92,2.92-4.62,4.63h-6.39c-1.01-1.22-2.16-2.6-3.42-4.12.31-1.99.62-3.99.98-6.32h-12.62c-1.89,1.22-4.01.68-6.05.72-1.29.03-2.65.52-3.11,1.37-.99,1.86-2.93,2.04-4.26,3.23-1.52-.78-2.96-1.51-4.62-2.37-.73.37-1.65.85-2.92,1.5-2.19.42-4.56-.27-6.78-1.5-1-.55-1.97-.83-3.07-.72-2.53.25-5.09-.45-7.65.47-.93.34-2.2-.44-3.32-.45-7.35-.05-14.7-.07-22.05,0-1.89.02-3.77.57-5.67.69-1.99.13-3.99.03-5.98.03-1.62,0-3.51.53-4.79-.13-1.73-.89-3.34-.43-4.99-.6-1.54-.16-3.17.34-4.55-.77-2.88.34-5.86-.74-8.68.71-.49.25-1.23.1-1.85.03-4.68-.53-9.24.9-13.9.78-4.72-.12-9.45-.03-14.33-.03-.3,1.53-.65,3.01-.87,4.51-.22,1.46-.41,2.94-.41,4.42,0,1.56.18,3.14.41,4.68.23,1.51.63,3,1.03,4.83,2.16,3.14,3.65,7.16,6.3,10.72-.81-.24-1.64-.73-2.44-.68-2.02.11-4.37-.1-5.95.87-1.59.97-3.25.11-4.81,1.19-1.1.76-3.14.22-4.76.13-3.51-.2-7.21.13-10.48-.89-3.81-1.19-7.77-2.03-11.39-4.1-4.12-2.35-8.46-4.35-12.39-7.01-3.47-2.36-6.59-5.1-9.2-8.56-2.01-2.66-3.78-5.47-5.58-8.23-1.53-2.36-2.2-5.3-3.13-8.03-.45-1.32-.61-2.74-.95-4.1-.08-.32-.54-.59-.54-.88.02-4.73-1.57-9.41-.51-14.34,1.48,1.05,2.91,2.02,4.3,3.04,2.1,1.54,4.63,2.6,7.01,2.81,3.86.33,7.85.75,11.74-.3.92-.25,1.96-.39,2.88-.22,1.78.32,3.34-.51,4.87-.98,1.16-.36,2.33-.96,3.51-1.43,1.13-.45,2.09-1.44,3.43-1.65.47-.07.9-.42,1.62-.77-1.19-1.23-1.87-1.9-2.51-2.61-3.67-4.11-7.34-8.22-10.21-12.97-.62-1.02-1.36-2-2.86-2.21-.04-1.95-1.24-3.39-2.33-4.94-1.47-2.09-2.56-4.43-3.92-6.58-1.41-2.22-1.66-4.8-2.82-7.08-1.08-2.13-1.9-4.37-1.48-6.74-.59-1.12-1.13-2.14-1.89-3.59,3.16.22,5.95.4,8.74.61,2.92.23,5.64-.61,8.77-1.32.44.99.99,2.22,1.41,3.17-.24,1.28-.88,2.51-.54,3.3,1.03,2.38.78,5.1,2.16,7.34-.56,1.55.97,2.1,1.53,3.1,1.29,2.34,2.6,4.71,4.16,6.87,2.32,3.21,3.93,7.04,7.59,9.15,1.36,3.37,4.76,4.7,7.12,7.07.91.92,2.1,1.55,3.16,2.3.72-1.17,1.54-2.21,3.02-2.98,3.41-1.77,6.58-3.98,9.86-6,1.59-.97,2.07-2.77,2.34-4.25.63-3.47,1.65-6.78,2.94-10.03.09-.21.13-.45.15-.68.45-5.12,1.13-10.25.72-15.4-.16-2-.66-3.97-1.04-6.13-2.19-.14-3.75,1.42-5.65,2.43,0,.52-.13,1.04.02,1.47,1.36,3.95,1.01,8.09.61,12.03-.7,6.72-1.79,13.43-4.99,19.6-.85,1.63-1.98,2.58-3.3,3.54-1.53-1.57-.14-2.93.46-3.63,2.63-3.12,3.28-6.93,4.19-10.64.85-3.47,1.74-6.93,1.57-10.6-.18-3.61-.04-7.23-.04-10.99-1.76-.78-3.13.54-4.57,1.05-2.27.8-4.57,1.68-6.62,2.93-1.68,1.02-3.55,1.24-5.28,1.67-4.17,1.04-8.38,2.42-12.82,1.48-1.83-.74-3.55-1.76-4.13-4.16.8-1.9,2.86-3.23,3.93-5.37,1.25-2.48,2.75-4.89,4.28-7.18,1.75-2.64,2.58-5.76,4.81-8.19,1.34-1.46,1.79-3.72,3.17-5.39,1.25-1.51,2.11-3.34,3.16-5.07-1.21-.14-7.21.87-8.44,1.56-2.54,1.42-5.88.83-8.01,3.4-2.17-.9-1.82-3.21-2.7-4.74-.84-1.45-.93-3.33-1.56-5.9-1.32,10.31,1.11,19.73.22,29.51-.86-.53-1.44-.89-2.07-1.27,0-2.91.04-5.77-.02-8.62-.03-1.32-.47-2.65-.34-3.93.11-1.09-.45-1.97-.4-2.99.06-1.37.01-2.74.01-4.11,0-1.25.35-2.62-.07-3.72-1.18-3.12-.17-6.36-.75-9.43-.77-4.02-.09-8.13-.82-12.02-.94-5.05-.25-10.05-.62-15.05-.1-1.28-.37-2.54-.59-4,.09-.1.33-.37.52-.57-.23-.42-.63-.83-.64-1.24-.05-3.74-.33-7.51.06-11.21.35-3.32,1.18-6.74,3.21-9.46,1.07-1.43,1.01-3.06,1.92-4.55-2.04.91-4.64-.22-6.1,2.49-1-4.05-.65-7.49,1.54-10.77-1.87-.37-3.71-.74-5.91-1.17.23-1.04.5-2.24.72-3.47,0,.01.06.06.11.11.2-.17.41-.35.61-.52-.08-.08-.16-.16-.24-.24-.17.2-.35.41-.48.65-1.23.28-2.62.28-3.73.85-1.39.71-2.73.76-3.8.65-2.11-.98-3.89-1.81-6.34-2.96h-3.25c-.27-.39-.67-.98-1.08-1.57-.26.26-.43.36-.43.44.07,1.83.12,3.67.25,5.5.04.56.48,1.12.45,1.67-.52,10.39,1.19,20.73.78,31.12-.14,3.54,1.28,6.97.74,10.54,1.12,1.91.33,4.1.82,6.03.81,3.14.11,6.4.8,9.41.86,3.69.31,7.31.63,10.94.15,1.65.58,3.28.7,4.93.13,1.74-.41,3.64.12,5.21,1.1,3.28.6,6.56.62,9.82.08,14.84,0,29.68.07,44.52,0,2.14.57,4.28.69,6.43.13,2.24-.04,4.49.07,6.73.03.72.51,1.42,1.06,2.82-1.23-.57-1.81-.84-2.63-1.23.23-2.41-.31-4.73-.63-7.09-.34-2.45-.07-4.98-.07-7.47,0-13.09.04-26.19-.03-39.28-.02-2.89-.56-5.78-.69-8.67-.12-2.86.47-5.85-.15-8.58-.87-3.8-.36-7.55-.65-11.31-.13-1.65-.53-3.28-.71-4.93-.17-1.54.3-3.13-.72-4.58-.29-.42-.04-1.22-.04-1.84,0-2.12.27-4.29-.08-6.35-.32-1.9-.27-3.9-.77-5.66-1.22-4.28-.51-8.56-.56-12.82-.03-2.82-.71-5.52-.81-8.29-.09-2.87.5-5.86-.14-8.58-1-4.3.03-8.62-.73-12.79-.85-4.62-.39-9.25-1.1-13.93-.1.45-.28.9-.28,1.36-.02,8.23-.03,16.46,0,24.69,0,2.29,1.05,4.43.79,6.8-.26,2.34-.65,4.94.09,7.05,1.03,2.92-.29,6.07,1.35,8.78-1.16,1.17.34,2.28.06,3.51-.27,1.18.14,2.52-.11,3.72-.38,1.8.86,3.24.81,4.94-.06,1.74-.42,3.62.07,5.21,1.2,3.89.63,7.8.61,11.69-.04,7.07,1.12,14.06.86,21.15-.26,7.22-.53,14.51.1,21.68.43,4.91-.08,9.86.7,14.65,1.08,6.66.21,13.29.65,19.91.17,2.51.61,5,.97,7.77-.94.05-1.61.09-2.28.12-.48-4.92-1.34-9.62-.96-14.4-1.56-8.96.04-18.05-.9-26.99-.61-5.79-.44-11.53-.57-17.29-.13-5.86.02-11.72-.06-17.58-.02-1.65-.57-3.28-.69-4.93-.13-1.74.36-3.6-.1-5.22-1.34-4.75-.46-9.54-.63-14.3-.14-3.78-1.33-7.47-.79-11.29-1.21-2.16-.28-4.6-.82-6.78-1.1-4.51,0-9.12-.8-13.53-.98-5.42-.44-10.79-.59-16.17-.16-5.36,0-10.72-.05-16.09-.02-2.06,1.1-3.91.82-6.06-.27-2.08-.51-4.36.05-6.32.73-2.55.13-5.15.74-7.55.71-2.81.97-5.72,2.06-8.48,1.1-2.79,1.43-5.88,2.36-8.75.85-2.63,1.73-5.24,2.88-7.79,1.43-3.16,2.8-6.33,4.56-9.33,1.47-2.51,2.32-5.39,4.47-7.5.36-2.85,2.95-4.22,4.32-6.42,1.53-2.45,3.75-4.47,5.73-6.62,3.26-3.56,7.39-5.86,11.67-7.93,1.45-.7,2.93-1.6,4.47-1.77,1.57-.18,3.03-.61,4.39-1.21,1.36-.61,2.82-.81,4.18-.98,1.71-.22,3.66-.82,5.27.6,5.03.22,9.5,2.24,13.82,4.53,3.75,1.98,7.35,4.23,10.53,7.1,1.15,1.04,2.41,1.97,3.65,2.92,1.14.87,1.71,2.47,3.38,2.66,1.82,3.84,6.14,5.56,7.94,9.42,6.28,6.68,9.73,15.1,13.97,23.02,2.46,4.59,3.59,9.73,5.35,14.61.31.86.04,1.94.04,3.16,1.03-1.24,1.87-2.24,2.63-3.14q3.79.9,5.6,3.03c-.38,2.36-3.65.78-3.87,3.03-1.12,0-1.99,0-3.16,0-.07,0,.16,0,.38-.02-.1-.73-.19-1.47-.29-2.2-.17.02-.33.03-.5.05.03.73.07,1.45.7,2.17Zm-40.37,100.27c-.25.25-.5.5-.72.75-.13-.12-.26-.25-.4-.37-.34.53-.69,1.06-1.14,1.76.5.03.9.06,1.43.1.04-.6.08-1.04.08-1.48.25-.25.5-.5.75-.75.25-.25.5-.5.75-.75.57-.49,1.13-.98,2.07-1.8-1.51-.51-2.54-.85-2.9-1.25-1.96-.93-3.39-1.62-4.82-2.3.89,1.82,2.33,2.49,4.16,2.35.34.46.74.89.99,1.4.25.49.34,1.06.5,1.6-.25.25-.5.5-.75.75Zm136.74-83.87s.1.1.15.15l.61-.52-.24-.24c-.17.2-.35.41-.44.68-.25.25-.5.5-.75.75-2.42,3.36-2,5.07,1.93,7.5,1.25-.16,2.66.23,3.97-.63h-3.16c-.99-1.01-1.86-1.89-2.75-2.79v-4.08c.25-.25.5-.5.67-.82Zm4.56,196.86c.25-.25.5-.5,1.61-2.56-.57.51-.85.66-.84.76.05.36.21.7.32,1.05.13-.45.26-.9-.35,0l-.75.75-.75.75c-.57.11-1.43-.37-1.04.81-2.35-.08-3.68-1.32-4.82-2.56v-3.22q1.06-1.17,1.06-1.98c-.71.66-1.66,1.56-2.87,2.69.25,1.44.56,3.17.88,4.99,1.99-.35,3.46,1.72,5.29.02.57-.11,1.43.37,1.5-.75l.75-.75ZM38.13,23.17c-.25.25-.5.5-.75.75-.25.25-.5.5-.67.82l-.15-.15c-.2.17-.41.35-.61.52.08.08.16.16.24.24.17-.2.35-.41.44-.68.25-.25.5-.5.75-.75.25-.25.5-.5.75-.75.25-.25.5-.5.75-.75.46-.08,1.07,0,1.34-.28,1.11-1.1,2.11-2.3,3.14-3.47.25-.25.5-.5.75-.75.57-.11,1.43.37,1.5-.75.25-.25.5-.5.75-.75,1.45-.25,2.91-.5,4.82-.82-.6.66-.78,1.05-1.06,1.15-4.77,1.74-7.59,6.09-11.68,8.73-1.8,2.97-4.54,5.18-6.35,8.18-1.62,2.69-3.3,5.37-4.32,8.3-.69,1.99-1.95,3.66-2.54,5.68-.58,1.98-1.04,4.06-2.12,5.83-1.11,1.83-1.6,3.82-2.25,5.8-.68,2.07-1.9,3.85-2.34,6.15-.54,2.81-1.56,5.58-2.07,8.44-.53,2.98-.71,5.98-.85,9.02-.14,3-.88,5.98-.65,9.03,0,.12.05.28,0,.37-1.55,2.26-.32,4.72-.61,7.25.68-.67,1.85.81,2.2-.78h1.14c1.54-3.84,3.7-7.33,7.22-10.21-1.31-.69-2.46-1.3-3.55-1.87-1.69,4.25-3.26,8.18-4.91,12.08h-1.61c.4-1.88.5-3.57,1.11-5.04,1.32-3.2,2.81-6.31,3.7-9.69.4-1.53,1.55-2.87,1.98-4.4.45-1.57,1.57-2.81,1.73-4.55.15-1.59,2.35-2.42,2.06-4.36,2.97-3.96,5.18-8.45,8.45-12.19.97-1.12,2.22-2,3.36-3.01-1.03-.37-2.12-.77-3.2-1.16.15-.11.3-.23.45-.34-1.03-.85-2.05-1.7-3.08-2.55.36-1.58,1.87-1.18,2.92-1.6q-2-2.2-2.94-4.97h3.02c-.6-1.17-1.06-2.06-1.52-2.97.1-2-.39-4.12,1.03-5.95.97.8,1.94,1.59,3.51,2.88-.19-1.63-.29-2.48-.4-3.4,1.04-.32-.53-2.81,1.61-2.71.29-1.43,1.51-2.14,2.37-3.13.31-.35.7-.72.83-1.15,1.09-3.69,2.81-6.72,6.18-9.05,2.69-1.86,5.3-3,8.49-3.05,1.9-4.38,5.59-4.83,9.91-4.33.83.73,1.83,1.63,3.18,2.82,5.75-.2,11.5,1.19,15.95,5.93.6-.3,1.21-.61,1.96-.99-.73-.65-1.35-1.4-2.14-1.86-3.11-1.77-6.03-3.94-9.64-4.67-1.3-1.69-3.47-1.17-5.17-1.96-1.54-.72-3.8.15-5.37-.54-2.11-.93-3.74.17-5.52.45-4.13.67-7.97,2.33-11.76,4.04-.57.26-1.03.76-1.55,1.15-.25.25-.5.5-.75.75-.57.11-1.43-.37-1.5.75-.25.25-.5.5-.75.75-.46.08-1.07,0-1.34.28-1.11,1.1-2.11,2.3-3.14,3.47-.25.25-.5.5-.75.75Zm55.26,1.57s.1-.1.15-.15c-.17-.2-.35-.41-.52-.61-.08.08-.16.16-.24.24.2.17.41.35.68.44.25.25.5.5.75.75.25.25.5.5.75.75,1.29,1.42,2.55,2.86,3.9,4.22.27.27.88.19,1.4.19-.05.05-.1.1-.15.15.17.2.35.41.52.61.08-.08.16-.16.24-.24-.2-.17-.41-.35-.68-.44-1.29-1.42-2.55-2.86-3.9-4.22-.27-.27-.88-.19-1.34-.27-.25-.25-.5-.5-.75-.75-.25-.25-.5-.5-.82-.67Zm-47.04,35.09c.25-.25.5-.5.67-.82.05.05.1.1.15.15l.61-.52-.24-.24c-.17.2-.35.41-.44.68-.25.25-.5.5-.67.82-.05-.05-.1-.1-.15-.15-.2.17-.41.35-.61.52.08.08.16.16.24.24.17-.2.35-.41.44-.68Zm63.55,62.11l-.75.75c-.25.25-.5.5-1.61,2.56.57-.51.85-.66.84-.76-.05-.36-.21-.7-.32-1.05-.13.45-.26.9.35,0l.75-.75c.25-.25.5-.5.67-.82.05.05.1.1.15.15.2-.17.41-.35.61-.52l-.24-.24c-.17.2-.35.41-.44.68Zm-26.09-56.05s-.1-.1-.15-.15c-.2.17-.41.35-.61.52l.24.24c.17-.2.35-.41.36-.75.05.05.1.1.15.15.2-.17.41-.35.61-.52-.08-.08-.16-.16-.24-.24-.17.2-.35.41-.36.75Zm20.79-29.92s.1-.1.15-.15c-.17-.2-.35-.41-.52-.61-.08.08-.16.16-.24.24.2.17.41.35.75.36-.05.05-.1.1-.15.15.17.2.35.41.52.61.08-.08.16-.16.24-.24-.2-.17-.41-.35-.75-.36Zm1.5,2.24s.1-.1.15-.15c-.17-.2-.35-.41-.52-.61-.08.08-.16.16-.24.24.2.17.41.35.68.44.25.25.5.5.82.67-.05.05-.1.1-.15.15.17.2.35.41.52.61.08-.08.16-.16.24-.24-.2-.17-.41-.35-.68-.44-.25-.25-.5-.5-.82-.67Zm2.24,2.99s.1-.1.15-.15c-.17-.2-.35-.41-.52-.61-.08.08-.16.16-.24.24.2.17.41.35.68.44.25.25.5.5.75.75.11.57-.37,1.43.75,1.5-.12,1.16.31,1.95,1.5,2.24.11.57-.37,1.43.75,1.5.11.57-.37,1.43.75,1.5.28,2.24,1.79,3.94,2.62,5.94.15.36.74.53,1.12.8.11.57-.37,1.43.75,1.5.11.57-.37,1.43.75,1.5.08.71-.03,1.52.29,2.1.9,1.63,1.29,3.42,1.97,5.12.36.9.34,2.05,1.48,2.5,0,.87-.33,1.96.06,2.57,1.09,1.67,1.41,3.46,1.5,5.36,1.59.62-.37,2.77,2.02,3.28l-.68.02.29,2.2c.17-.02.33-.03.5-.05-.03-.73-.07-1.45-.7-2.17.58-2.47-1.27-4.68-.7-7.14-1.53-.97-.89-3.08-2.29-4.09-.23-2.91-1.84-7.09-3.74-9.73-.11-.57.37-1.43-.75-1.5-.11-.57.37-1.43-.75-1.5-.28-2.24-1.79-3.94-2.62-5.94-.15-.36-.74-.53-1.12-.8-.11-.57.37-1.43-.75-1.5-.11-.57.37-1.43-.75-1.5.12-1.16-.31-1.95-1.5-2.24-.11-.57.37-1.43-.75-1.5-.25-.25-.5-.5-.82-.67Zm6.13,86.79s-.1-.1-.15-.15l-.61.52.24.24c.17-.2.35-.41.36-.75l.15.15.61-.52-.24-.24c-.17.2-.35.41-.36.75Zm-29.17-72.73l-.15.15c.17.2.35.41.52.61.08-.08.16-.16.24-.24-.2-.17-.41-.35-.68-.44-.25-.25-.5-.5-.82-.67l.15-.15c-.17-.2-.35-.41-.52-.61l-.24.24c.2.17.41.35.68.44.25.25.5.5.82.67Zm88.84,74.98l.15-.15c-.17-.2-.35-.41-.52-.61l-.24.24c.2.17.41.35.68.44.25.25.5.5,1.33.73-.22.01-.43.02-.65.03.1.49.19.97.29,1.46.16-.02.32-.04.48-.06-.04-.48-.08-.96-.7-1.41-.25-.25-.5-.5-.82-.67Zm-66.55,110.6s.1.1.15.15c.2-.17.41-.35.61-.52l-.24-.24c-.17.2-.35.41-.36.75-.05-.05-.1-.1-.15-.15-.2.17-.41.35-.61.52l.24.24c.17-.2.35-.41.36-.75Zm54.73-99.53s-.1.1-.15.15c.17.2.35.41.52.61l.24-.24c-.2-.17-.41-.35-.75-.36.05-.05.1-.1.15-.15-.17-.2-.35-.41-.52-.61-.08.08-.16.16-.24.24.2.17.41.35.75.36Zm6.73-2.99l-.15.15c.17.2.35.41.52.61l.24-.24c-.2-.17-.41-.35-.68-.44-.25-.25-.5-.5-.82-.67l.15-.15c-.17-.2-.35-.41-.52-.61l-.24.24c.2.17.41.35.68.44.25.25.5.5.82.67ZM38.13,225.95c-.25.25-.5.5-.75.75-.25.25-.5.5-.75.75-.25.25-.5.5-.75.75h-1.5c-.29-1.18-1.08-1.62-2.24-1.5-.29-1.18-1.08-1.62-2.43-1.21-.25-1.12-.57-2.12-2.3-1.5.94.61,1.62,1.05,2.49,1.21.29,1.18,1.08,1.62,2.24,1.5.29,1.18,1.08,1.62,2.24,1.5.19.25.38.5.57.75.31-.25.62-.5.93-.75.25-.25.5-.5.75-.75.25-.25.5-.5.75-.75.25-.25.5-.5.75-.75.25-.25.5-.5.46-.93,1.12-.25,2.12-.57,1.49-2.3-.61.94-1.05,1.62-1.21,2.49-.25.25-.5.5-.75.75Zm134.58-90.54l-.75.75c-.75,0-1.5,0-2.24,0-.25-.25-.5-.5-.75-.72.12-.13.25-.26.37-.4-.53-.34-1.06-.69-1.76-1.14-.03.5-.06.9-.1,1.43.6.04,1.04.08,1.48.08.25.25.5.5.75.75.75,1.03,1.49,1.03,2.24,0l.75-.75c.25-.25.5-.5-2.53-4.34.7.6,1.17,1.32,1.56,1.28,1.25-.12.76,1.01,1.21,1.42.31.29.6.6.9.9.18-.15.37-.29.55-.44-.64-1.15-1.28-2.3-1.77-3.17-.95,0-1.52,0,.84,3.59l-.75.75Zm-62.78-56.29c-.01-.22-.03-.43-.04-.65-.49.09-.97.19-1.46.28.02.16.04.32.07.48.48-.04.95-.08,1.33-.77.05.05.1.1.15.15.2-.17.41-.35.61-.52l-.24-.24c-.17.2-.35.41-.42,1.26Zm18.67,56.29c1.12-.06.64-.93.75-1.5,1.12-.06.64-.93.84-1.12.52-.99.91-1.73,1.41-2.68-.68.09-1,.13-1.41.18,0,.75,0,1.44-.09,2.12-1.12.06-.64.93-.75,1.5-1.12.06-.64.93-.75,1.5-1.12.06-.64.93-.75,1.5-1.12.06-.64.93-.75,1.5-1.12.06-.64.93-.75,1.5-1.12.06-.64.93-.67,1.56l-.15-.15c-.2.17-.41.35-.61.52l.24.24c.17-.2.35-.41.44-.68,1.12-.06.64-.93.75-1.5,1.12-.06.64-.93.75-1.5,1.12-.06.64-.93.75-1.5,1.12-.06.64-.93.75-1.5Zm-4.49-2.99c-1.12.06-.64.93-.44.97-2.15,1.7-2.59,3.66-3.11,5.57,1.6-1.31,2.28-3.14,2.81-5.05,1.12-.06.64-.93.67-1.56.05.05.1.1.15.15.2-.17.41-.35.61-.52l-.24-.24c-.17.2-.35.41-.44.68Zm80.58,86.03c-.22.01-.43.02-.65.03.1.49.19.97.29,1.46.16-.02.32-.04.48-.06-.04-.48-.08-.96-.7-1.41-.11-.57.37-1.43-1.33-1.48.22-.01.43-.02.65-.03-.1-.49-.19-.97-.29-1.46-.16.02-.32.04-.48.06.04.48.08.96.7,1.41.11.57-.37,1.43,1.33,1.48Zm-78.22-90.09c-.57.51-.85.66-.84.76.05.36.21.7.32,1.05.13-.45.26-.9-.27.07-.05-.05-.1-.1-.15-.15-.2.17-.41.35-.61.52l.24.24c.17-.2.35-.41,1.31-2.49Zm-14.44-.86c.57-.51.85-.66.84-.76-.05-.36-.21-.7-.32-1.05-.13.45-.26.9.35,0,.25-.25.5-.5.72-.75.13.12.26.25.4.37.34-.53.69-1.06,1.14-1.76-.5-.03-.9-.06-1.43-.1-.04.6-.08,1.04-.08,1.48-.25.25-.5.5-1.61,2.56ZM23.93,44.87c1.12-.06.64-.93.75-1.5,1.12-.06.64-.93.67-1.56.05.05.1.1.15.15.2-.17.41-.35.61-.52-.08-.08-.16-.16-.24-.24-.17.2-.35.41-.44.68-1.12.06-.64.93-.75,1.5-1.12.06-.64.93-.75,1.5-1.12.06-.64.93-.75,1.5-2.13,2.18-2.54,5.2-3.68,7.84-.76,1.76-2.11,3.46-1.55,5.62-1.12.06-.64.93-.84,1.61q-.69.86,0,2.11c0-.85,0-1.53.09-2.22,1.12-.06.64-.93.75-1.5.25-.19.62-.33.73-.59,1.27-3.04,1.91-6.35,3.78-9.12.82-1.21.7-2.47.72-3.77,1.12-.06.64-.93.75-1.5Zm198.88,158.63c1.12-.06.64-.93.52-1.55.18.07.37.14.55.21.89-2.17,1.89-4.31,2.64-6.53,1.04-3.09,1.97-6.18,2.39-9.48.34-2.68,1.57-5.22.67-8.04-.3-.95-.15-2.05-.25-3.79-1.34,1.31-2.16,2.1-3,2.92.38.97.9,1.71.92,2.47.08,2.88.29,5.8-.83,8.58-.26.64-.6,1.32-.6,1.97.03,2.53-.6,4.88-1.49,7.22-.54,1.41-.69,2.97-.79,4.52-1.12.06-.64.93-.75,1.5-1.12.06-.64.93-.71,1.16-3.41,3.54-5.39,7.94-8.89,11-3.46,3.03-7.13,5.84-11.37,8.13h-6.54v2.1c3.48.44,6.39-.82,9.29-2.17,3.57-1.67,6.56-4.18,9.54-6.69,2.5-2.1,3.98-5,5.7-7.71.88-1.38,2.2-2.5,2.22-4.31,1.12-.06.64-.93.75-1.5ZM95.7,56.1c-.57.11-1.43-.37-1.43.75-.77,0-1.53.03-2.3,0-.96-.05-1.93-.12-2.88-.26-.75-.11-1.47-.34-2.21-.52,2.23,1.99,4.78,1.56,7.32.79.57-.11,1.43.37,1.42-.82.05.05.1.1.15.15.2-.17.41-.35.61-.52l-.24-.24c-.17.2-.35.41-.44.68Zm-48.6,5.99c.57-.11,1.43.37,1.5-.75.25-.25.5-.5.38-1.12.12.13.25.26.37.4.44-.03.88-.06,1.48-.11-.04-.52-.06-.93-.1-1.43-.7.45-1.23.8-1.39,1.51l-.75.75c-.57.11-1.43-.37-1.5.75-.57.11-1.43-.37-1.5.75-2.54-.21-4.9,1.32-7.36.43-1.19-.41-2.38-.82-3.76-1.3.7,2.33,2.38,1.41,3.64,1.62,0,.12-.03.34,0,.35,2.76.82,4.77.51,7.47-1.1.57-.11,1.43.37,1.5-.75Zm61.93,182.18c.59-.54.87-.69.85-.8-.05-.36-.21-.7-.32-1.05-.13.45-.26.9.27-.07.05.05.1.1.15.15.2-.17.41-.35.61-.52l-.24-.24c-.17.2-.35.41-1.32,2.53Zm122.76-141.2c-.01-.22-.02-.43-.03-.65-.49.1-.97.19-1.46.29.02.16.04.32.06.48.48-.04.96-.08,1.41-.7.25-.25.5-.5,1.09-.29.63-1.5.3-2.76.42-3.89-.51-.41-.88-.72-1.58-1.28.43,1.91.74,3.28.82,4.71-.25.25-.5.5-.73,1.33Zm-177.22,12.89c-.25-.25-.5-.5-.73-.64-.29-1.87-2.1-1.3-3.14-2,.18-.7.15-1.45.51-1.8,2.72-2.6,3.89-5.71,3.24-9.56-.57-.8-1.23-1.72-1.99-2.79-.87.75-1.5,1.29-2.11,1.82-1.42.15-3.05-.56-3.95,1.18.41.41.85.85,1.53,1.53-.2,1.06-.43,2.3-.68,3.59.63.94,1.34,2.01,1.83,2.73.03,2.17-2.25,2.49-2.87,4.29,2.85-.66,5.21.32,7.61.9.25.25.5.5.75.75.29,1.18,1.08,1.62,2.2,1.44,1.14,1.46,2.21,2.91,3.96,3.59.86.34,1.71.71,2.6.93,1.62.41,3.45-.71,4.97.64.04.04.21.02.25-.03,1.14-1.2,2.59-.32,3.87-.59,1.26-.27,2.53-.52,3.8-.75,1.92-.34,2.71-.85,4.65-3.36-4.12,2.18-8.1,3.6-12.14,3.22-4.1-.38-8.15-1.7-11.9-3.61-.29-1.18-1.08-1.62-2.24-1.5Zm162.18-8.15l.15-.15-.52-.61-.24.24c.2.17.41.35.39.63.44.68.88,1.36,1.49,2.3.62-1.73-.38-2.06-1.28-2.41ZM36.57,60.67s.1-.1.15-.15c-.17-.2-.35-.41-.52-.61-.08.08-.16.16-.24.24.2.17.41.35.49.53.81,1.19,1.96.44,2.87.58.03,0,.1-.31.19-.58-1,0-1.94,0-2.94-.01Zm17.2,117.48s.1-.1.15-.15c-.17-.2-.35-.41-.52-.61-.08.08-.16.16-.24.24.2.17.41.35.68.44.29,1.18,1.08,1.62,2.64,1.45.52.51,1.21,1.19,1.94,1.91-.34-1.13-.8-2.05-2.34-1.86-.29-1.18-1.08-1.62-2.31-1.42Zm68.57-48.15c1.12-.25,2.12-.57,1.49-2.3-.61.94-1.05,1.62-1.21,2.49-1.18.29-1.62,1.08-1.42,1.98-1.51,1.01-1.96,2.34-2.14,3.81,1.33-.81,1.96-2.03,2.06-3.55,1.18-.29,1.62-1.08,1.21-2.43Zm-4.66-1.87c-1.12.25-2.12.57-1.49,2.3.61-.94,1.05-1.62.92-2.67,1.12-.25,2.12-.57,1.49-2.3-.61.94-1.05,1.62-.92,2.67Zm17.66,125.52c.25.25.5.5.75.75q1.08,2.28-.36,3.72h-2.24c-.49-.46-1.01-.96-1.5-1.42-.63.99-1.26,1.96-1.89,2.94-1.9-.16-2.55,2.09-4.3,2.24h-7.66c-1.74-.87-3.02-1.52-4.56-2.29.1.97.16,1.63.24,2.43.47-.41.73-.63.88-.76,1.21.76,3.04.92,2.6,3.33-.51.38-1.29.96-2.18,1.63h-2.28v-4.25c-1.29.76-2.46.97-3.68.32v-3.03c.16.16.33.33.49.49.63-.63,1.27-1.27,2.06-2.06.3-.12.13,1.4,1.33.82-.67-1.13-1.48-2.15-1.92-3.31-.44-1.19-.52-2.52-.8-4-1.03.55-2.39.81-2.76,1.56-.68,1.38-2.53.15-2.91,1.65h-3.02c.56,1.06.99,1.86,1.41,2.65-.8.8-1.67,1.68-2.56,2.59-.7,0-1.44,0-2.19,0-.35-.35-.7-.7-1.09-1.09v-2.25c.46-.51.96-1.07,1.61-1.8h-2.31c-.05.92-.1,1.76-.15,2.6-.16-.16-.32-.32-.48-.47-.48.87-.96,1.74-1.27,2.3-2.44-.03-3.05-1.52-3.77-3.07h-3.3c-.05-.96-.1-1.8-.15-2.56-.75-.45-1.45-.87-2.07-1.24-.11-1.06-.2-1.96-.28-2.74-5.25,3.53-10.91,6.18-15.8,10.16.37.51.52.88.79,1.05,1.58.98,3.19,1.91,4.79,2.86,1.65.99,3.36,1.01,5.15.39,1.31-.45,2.67-1.09,4.01-1.09,5.55.03,11.17-.69,16.58,1.41,3.27,1.27,6.42,2.52,9.3,4.69,2.37,1.78,4.17,4.09,6.45,5.77h16.97c.82-1.1,1.54-2.04,2.28-3.03,1.16.11,2.32.02,3.31.38,1.05.38,1.94,1.19,2.87,1.78,1.9-1.64,3.91-3.07,6.66-2.8.88.88,1.79,1.74,2.63,2.65.71.76,1.35,1.58,2.31,2.71-.55-4,1.15-6.35,4.23-7.92-1.2-3.1-.05-5.54,3.05-6.45.54-.16,1.01-.59,1.17-.68.44-1.34.76-2.34,1.09-3.33.34-.99-.44-2.28.79-3.04-8.68-9.76-9.7-28.92-4.16-36.23h2.2c-.36,1.41-.76,2.6-.96,3.83-.36,2.12-.18,12.75.81,14.98,1.88,4.21,2.74,8.93,6.12,12.44,1.2,1.25,1.82,3.03,2.98,4.33,1.46,1.65,3.16,3.13,5.4,3.23,1.82-4.6,1.64-9.51,4.32-13.59.4.36.67.6,1.51,1.34-.55-1.53-.67-2.61-1.24-3.3-3.02-3.67-5.39-7.85-8.48-11.43-3.7-4.29-6.79-9.06-10.69-13.21-1.47-1.56-2.93-3.22-4.27-4.93-1.89-2.41-3.35-5.18-5.36-7.46-3-3.4-5.29-7.23-7.6-11.08-.91-1.52-2.1-2.88-3.2-4.28-.11-.14-.44-.12-.86-.21-.66.7-1.38,1.47-2.19,2.34,2.68,2.58,4.37,5.67,5.37,8.8,1.23,3.81,1.86,7.87,1.75,12.05-.11,4.46-1.59,8.45-2.89,12.57,1.23,1.55,3.18,2.59,4.02,5.05,1.63-2.33,3.13-4.46,4.62-6.59.54-.77,1.05-1.56,1.6-2.33.11-.15.34-.21.4-.25.43.34.82.65,1.16.92-1.2,4.27-4.59,7.05-6.79,10.71,1.29.42,2.39.78,2.79.91,3.83,1.84,4.23,5.45,6.17,8.12v4.73c-.61,1.18-1.08,2.11-1.65,3.21,2.9.91,3.32,3.03,3.14,5.56h-4.02c-.55-.85-.99-1.54-1.45-2.25-.71.71-1.32,1.32-2.04,2.04.79.51,1.55,1.01,2.15,1.4v3.33c-1.6.06-3.07.31-4.32-.7-.09-1.08.04-2.11.67-3.06.05.05.1.1.15.15.2-.17.41-.35.61-.52l-.24-.24c-.17.2-.35.41-.44.68-1.29.16-2.9-.61-3.6,1.12.96.63,1.91,1.25,2.85,1.87-.14,2.64-2.24,2.63-4,3.07-.66-.63-1.26-1.19-1.94-1.83-.8.7-1.42,1.25-1.94,1.7h-2.29c-1.09-1.54-1.38-2.98-.75-3.61.26-.26.53-.53.71-.71h2.46c.37.37.62.66.9.89.26.22.56.39,1.03.7.72-.73,1.39-1.41,2.05-2.1,0,0-.16-.16-.36-.36-2.44.12-4.86-.21-6.75-2.21-.18-.19-.72-.02-1.09-.02-.25-.25-.5-.5.24-.88-1.22-.47-1.82-.69-2.55-.97.05-.04-.37.29-1.22.97,1.34,0,2.06,0,2.78.13ZM62.87,117.38s-.1.1-.15.15c.17.2.35.41.52.61l.24-.24c-.2-.17-.41-.35-.62-.53-.09-.44-.2-.95-.39-1.81-.83.66-1.37,1.08-2.3,1.81,1.27,0,1.95,0,2.7.01Zm-1.63-35.01s.1-.1.15-.15c-.17-.2-.35-.41-.52-.61l-.24.24c.2.17.41.35.68.44v1.23c1.12-.18,2.06-.33,2.71-.36.93.85,1.77,1.62,2.72,2.48.5-1.01.84-1.69,1.24-2.48-1.26,0-2.46,0-3.67-.12-.29-.25-.56-.66-.88-.71-.69-.11-1.4-.03-2.17.04Zm-9.8,103.17c-.23,0-.46.02-.68.02.1.73.19,1.47.29,2.2.17-.02.33-.03.5-.05-.03-.73-.07-1.45-1.19-2.15q.45-2.32-1.13-4.25c.38,1.42.75,2.83,2.21,4.22Zm4.57-124.12l.15-.15c-.17-.2-.35-.41-.52-.61-.08.08-.16.16-.24.24.2.17.41.35.65.34.75,2.64,2.17,3.71,4.47,3.42-1.47-1.12-2.94-2.25-4.51-3.24Zm-2.7,32c-1.13,1.59-2,2.44-2.38,3.46-.45,1.19-2.61.5-2.29,2.31,3.24-1.28,3.59-1.67,4.54-5.04q.69-.86,0-2.11c0,.85,0,1.53.13,1.37Zm42.79-34.19h-8.2c2.87,1.88,5.32,1.83,7.78-.71.01.22.03.43.04.65.49-.09.97-.19,1.46-.28-.02-.16-.04-.32-.07-.48-.48.04-.95.08-1.01.83ZM63.24,13.33c.51.57.66.85.76.84.36-.05.7-.21,1.05-.32-.45-.13-.9-.26-.1.37,1.15,1.81,2.24,3.63,1.33,5.87-.42.11-.83.22-1.45.39,1.62.99,2.48.29,3.18-.77v-3.69c-.97-.67-1.4-2.18-4.77-2.69Zm12.25,50.29c3.42-.29,4.3-3.23,5.79-5.48.44-.67.54-1.55-.49-2.19-1.71.91-1.69,2.86-2.02,4.18-.5,2-2.91,1.66-3.17,3.5-.05-.05-.1-.1-.15-.15-.2.17-.41.35-.61.52l.24.24c.17-.2.35-.41.41-.64Zm-40.41,175.88s.1-.1.15-.15c-.17-.2-.35-.41-.52-.61-.08.08-.16.16-.24.24.2.17.41.35.7.51.36,1.26,1.58,3.15,2.9,4.43,1.09-.45,2.15-.88,3.62-1.49-2.52-1.14-4.54-2.05-6.61-2.94Zm11.96-184.82s.1-.1.15-.15c-.17-.2-.35-.41-.52-.61-.08.08-.16.16-.24.24.2.17.41.35.13.43,1.29.92,2.22,1.58,3.02,2.15h4.79q1.68-2.52,1.34-3.91c-.87.78-1.88,1.67-3.09,2.74-1.78-.29-3.65-.59-5.58-.88Zm26.44,2.43c-.14-.27-.28-.54-.42-.8-2.05,2.29-4.82,2.71-7.03,3.39-2.85-.68-5.21-1.66-7.87-3.17,1.66,3.5,4.82,3.47,6.9,4.46,1.61-.22,2.97-.41,4.26-.59,1.43-1.13,2.79-2.21,3.87-3.63l.15.15c.2-.17.41-.35.61-.52l-.24-.24c-.17.2-.35.41-.23.94Zm2.3,56.72h-8.66c.36.92.64,1.63.99,2.51-.55.36-1.16.69-1.66,1.14-.33.29-.49.77-.81,1.3h4.01c-1.41-1.65-1.24-3,.2-4.25,1.2-.06,2.48-.41,3.32.99.09.86.19,1.79.29,2.79.54-.11.88-.18,1.44-.29-.25-.95-.46-1.78-.68-2.63.42-.41.86-.85,1.28-2.26,0,.23.02.46.02.68.73-.1,1.47-.19,2.2-.29-.02-.17-.03-.33-.05-.5-.73.03-1.45.07-1.9.82Zm-29.42,4.46c.53-.31,1.03-.6,1.28-.75.79.75,1.49,1.41,2.44,2.31v1.73c-.36.36-.71.71-1.09,1.09h-2.25c-.51-.47-1.06-.98-1.79-1.66v2.15c1.44,1.46,2.99,2.14,4.89,1.65.45-.99.88-1.94,1.26-2.79.44-.09.78-.16.94-.19.34-1.42.63-2.66.96-4.06-.28-.32-.68-.76-.78-.87h-5.89c0,.56,0,.94.08,1.38-.05-.05-.1-.1-.15-.15-.2.17-.41.35-.61.52.08.08.16.16.24.24.17-.2.35-.41.44-.6Zm10.63-42.71c.22-.01.43-.02.65-.03-.1-.49-.19-.97-.29-1.46-.16.02-.32.04-.48.06.04.48.08.96,1,1.5l-.54.05c.7,1.19,1.39,2.38,2.09,3.57,3.87,1.6,3.87,1.61,7.95,1.52,2.78-.06,5.12-1.42,7.45-2.71.73-.41,1.36-1.12,1.84-1.83.64-.95,1.01-2.08,1.63-3.05.61-.96.37-2.09.6-3.08.36-1.54-.39-3.34-.67-5.03-.39,1.43-.46,2.87-.44,4.31.04,3.91-1.51,6.76-5.18,8.45-1.97.91-3.87,1.73-6.11,1.49-1.35-.15-2.72-.03-4.32-.03-1.35-1.15-2.82-2.4-5.16-3.72Zm40.21,120.45c.75,0,1.51.1,2.24-.03.79-.13,1.53-.63,2.31-.69,3.82-.3,7.46-1.03,10.41-3.76.33-.3.78-.46,1.17-.69.25.22.52.46.85.75,1.84-.83,3.67-1.67,5.49-2.5-8.16.11-15.16,3.81-22.45,7.49-.01-.22-.02-.43-.03-.65-.49.1-.97.19-1.46.29.02.16.04.32.06.48.48-.04.96-.08,1.41-.7Zm20.42-40.41c.91-.57,1.62-1.36,2.38-1.42,1.38-.11,1.67-1.38,2.59-1.88,0-2.18.42-4.39-.99-6.31-1.64-.53-3.25-1.33-4.94-1.54-2.28-.28-4.42.29-6.24,1.99-2.01,1.88-2.21,4.14-1.96,6.5,2.44,3.55,6.05,2.51,9.16,2.67Zm-11.45-75.76c-1.25.31-2.44.61-3.78.94v-11.19c-3.83-.1-7.53-.3-11.17,1.04.34.36.66.7.97,1.02,1.23.51,2.54-.17,3.86.68,1.03.66,2.69.41,3.94-.33.97.78,1.51,1.62.56,2.8-.66.83-1.24,1.72-1.89,2.64,1.32,1.87,2.66,3.76,3.75,5.31,1.55-.31,2.66-.54,3.75-.76,0-.74,0-1.36-.02-2.56.01.22.03.43.04.65.49-.09.97-.19,1.46-.28-.02-.16-.04-.32-.07-.48-.48.04-.95.08-1.41.52Zm-57.64,211.27s.1-.1.15-.15c-.17-.2-.35-.41-.52-.61-.08.08-.16.16-.24.24.2.17.41.35.2.44,8.15,5.5,16.51,7.49,25.76,5.08.48-2.19.95-4.3,1.45-6.58-2.25,0-4.48-.14-6.68.06-1.18.11-2.38.43-3.56.67-1.53.31-3.08-.2-4.68.43-1.29.51-2.88.29-4.34.33-1.62.04-3.24,0-4.85,0-.87,0-1.74,0-2.68.08Zm97.42-115.91c-.08-.12-.15-.25-.23-.37-2.53.82-5.01,1.9-7.61,2.4-2.77.54-5.29,1.67-8.04,2.52v6.91c-.75.75-1.32,1.41-1.99,1.97-.57.48-1.24.85-1.96,1.33,1.29,1.7,2.43,3.19,3.65,4.79,4.33-1.42,6.64-5.06,9.57-7.6,2.75-.68,5.34-1.32,7.96-1.97-.39-.39-.74-.74-1.15-1.15-.68,0-1.51.22-2.14-.04-1.38-.57-3.12-.36-4.11-1.76-.16-.23-.02-.66-.02-1.36,1.16.32,2.13.59,3.11.86,1.12-.6,2.3-1.22,4.09-2.17h-5.72v-2.15h2.57c-.13-.17-.26-.34-.38-.52.8-.56,1.59-1.13,2.15-1.91l.15.15c.2-.17.41-.35.61-.52l-.24-.24c-.17.2-.35.41-.28.83ZM35.31,82.41c-1.39-.13-1.86-.17-2.35-.21v-7.25c4.12-.09,4.56-4.61,7.49-6.33.65.91,1.2,1.67,1.66,2.31,1.57-.79,2.91-1.46,4.52-2.27.81.98,1.65,2,2.39,2.89.55-.81,1.12-1.64,1.99-2.91-.7-.7-1.48-1.47-2.43-2.42.07-2.57,2.99-2.55,4.61-3.96-.18-.36-.33-.66-.63-1.27-3.33,3.13-7.29,4.7-11.54,5.43-2.72-.95-5.85-.46-8.42-2.35-4.04,5.93-7.55,11.86-9.63,18.79,2.44.74,4.65,1.42,6.92,2.11-.03.23-.07.57-.1.84-2.9,1.15-5.28-1.59-8.42-1,3.52,2.7,7.26,1.83,10.82,1.96.2,0,.42-.18.65-.29.04-.83.09-1.66.16-3.01.39-.18,1.08-.49,1.51-1.04.97-.41,1.98-.83,2.98-1.25-.37-.95-.65-1.65-1.01-2.57h3.11c1.55-.79,2.66-1.36,4.21-2.15-3.41-.59-6.21,1.29-9.28.5,0,1.94,0,3.64.81,5.46Zm75.87,51.57c-4.25-3.51-8.79-4.5-13.36-4.58-.86.75-1.51,1.31-2.42,2.1,2.76.14,4.92,1.34,7.35,1.83,2.67.53,5.27.41,7.94.59-.04.46-.08.93-.13,1.38-2.55.31-4.99-.16-7.68.35.94.48,1.56.8,2.64,1.36h7.35c-1.09.68-1.56.98-1.99,1.24-2.2.35-4.43.71-6.6,1.06-2.19,1.33-4.59,1.72-7.03,2.11-2.98.48-5.7-1.33-8.24-.8-1.01-.38-1.65-.62-2.59-.97-.44,1.17-1.73,1.42-2.07,2.87-.19.82-2.35.62-2,2.48h3.41c.3-.61.52-1.06.73-1.48,1.53.58,1.96,1.47,1.73,2.74-1.31.58-2.77,1.09-2.11,3.16,1.68.44,3.43.89,5.25,1.36q-2.11,2.96-5.27,4.33c-.2,1.31-.36,2.61.77,3.27,5.85-1.43,11.23-3.45,16.14-5.71.43-2.47.78-4.46,1.18-6.76.94-.81,2.12-1.82,3.61-3.1v-1.24q2.52-1.01,4.44-.28c.95-.93,1.81-1.79,2.73-2.69q-2.47-4.21-3.75-4.64ZM49.35,28.41c-.49.33-.98.66-1.56,1.05v3.07c-.48.71-1.23.98-1.37,1.75,1.15.12,2.06.22,3.46.36-1.16,1.38-1.99,2.37-2.77,3.29v3.54c.85.67,1.33,1.98,2.9,1.89-.88-1.58-.74-3.02-.49-4.47h.97c.77,4.18,2.18,6.25,6.01,9.81,3.22,3,6.9,4.17,10.59,3.65,3.8-1.49,6.71-3.33,8.93-6.11,2.24-2.81,3.29-6.09,3.47-10.13,1.02.83,1.61,1.32,1.95,1.59-.52,2.13-.95,3.86-1.44,5.85,1.25-.79,2.15-1.36,3-1.9,0-1.38-.49-2.97.1-3.79,1.39-1.96.33-3.35-.32-4.74-.71.18-1.37.35-2.02.52v-1.08c-1.85-.59-3.39-1.07-5.68-1.79-.8.17-2.46-.43-4.17.28-1.38.58-2.52,2.07-4.56,1.68.98-2.71,3.55-2.68,5.29-3.81,2.45-1.58,4.43.3,6.73,1.16v-2.12c-1.25-1.28-2.64-2.68-3.85-3.92-.78-.19-1.36-.3-1.92-.47-2.27-.68-4.62-1.7-6.92-1.05-1.17.33-2.27.67-3.45.61-3.3-.18-5.95,1.41-8.26,3.38-1.88,1.6-3.34,3.71-5.58,6.28.45-2.01.71-3.21.68-3.73,1.76-1.77,2.94-3.21,4.38-4.3,1.45-1.1,3.17-1.85,4.61-2.66-.21-.34-.49-.8-.67-1.1-3.5,1.82-7,3.3-8.02,7.39Zm10.47,57.62h-2.6l-1.99-1.99c.18-.97.38-2.06.56-3.02-1.35-.31-2.67-.62-4.03-.93-.57,3.23.63,6.45-1.1,9.57h3.45l1.97,1.97c.39,2.34-1.1,4-2.06,5.86-.15.28-.1.66-.16,1.1.42.09.76.15,1.14.23.55,1.07,1.13,2.2,1.83,3.55v5.11c2.78,2.4,5.93,4.04,9.82,4,3.35-.04,6.7,0,9.96,0,1.96-1.18,3.83-2.31,5.94-3.59-2.3-2.39-2.83-5.28-2.51-8.33.3-2.84.65-5.72,3.52-7.18-.5-.99-.97-1.91-1.29-2.54.86-2.92,3.03-4.06,5.11-4.84-.25-1.31-.57-2.33-.61-3.37-.09-2.11-.02-4.23-.05-6.34,0-.14-.28-.27-.37-.36-.42.69-.84,1.4-1.24,2.05h-3.48c-.42-.74-.83-1.44-1.33-2.33-.61,1.03-1.17,1.96-2.09,3.5,1.19-.48,1.76-.71,2.04-.82,1.02.26,1.8.47,2.62.68.35.95.71,1.92.94,2.55-.8,1.03-1.39,1.8-2.06,2.66h-2.86c-.46,1.13-.8,1.98-1.1,2.72h-3.24c-.84-.59-1.42-1-2.15-1.33.33-1.04.63-1.96,1.03-3.22-1.58.5-2.72.87-4.1,1.3,1.1.69,1.99,1.24,3.21,1.84-.05,1.66.33,3.38-.88,4.73l1.12,1.12c.78-.98,1.58-1.97,2.25-2.81h3.44c.55,1.07,1.14,2.2,1.72,3.31-.5,1.35-1.74,2.57-.22,3.85-.51.45-.95.83-1.41,1.24-1.78-1.38-3.38-2.61-4.82-3.72-.6,1.21-.98,2.85-2,3.8-1.31,1.23.31,3.46-1.9,4.09-2.37-2.32-4.77-4.78-4.82-8.11.86-1.04,1.4-1.7,1.83-2.22.81-.06,1.38-.1,1.96-.15-1.03-.43-1.46-1.16-1.79-2.04-.04-.11-.44-.07-.68-.11-.51.76-1.02,1.53-1.49,2.24h-2.68c-.71-1.15-1.52-2.44-2.4-3.8.05.05.1.1.15.15.2-.17.41-.35.61-.52l-.24-.24c-.17.2-.35.41-.44.68Zm79.25,85.68c-.02-.17-.03-.33-.05-.5-2.15.84-4.41,1.46-6.41,2.56-2.65,1.46-5.87,1.52-8.26,3.54-.15.12-.5-.04-.73.03-1.32.41-2.63.84-4.74,1.53-1.89.18-4.65.44-7.41.71-.12.01-.32-.05-.36,0-1.07,1.52-2.86.14-4.07,1.01-1.35.97-2.86.27-4.29.47-.48.07-1.2-.17-1.44.09-1.04,1.12-2.33.47-3.48.68-1.27.22-2.54.48-3.8.75-1.14.24-2.27.58-3.43.73-2.38.31-4.85.23-7.14.86-1.79.49-3.85.06-5.23.83-1.33.74-2.76.23-4.06,1.19-.96.71-2.86.14-4.12.14-2.94,1.06-7.1,8.04-9.5,13.02,2.2,1.28,5.42,1.01,6.41,4.31,1.24-.34,2.48-.68,4.35-1.19,2.99-4.4,6.3-9.27,9.58-14.09-1.06-1.3-1.56.14-2.28.17-.29.01-.6-.22-1.15-.45.54-.71.96-1.26,1.34-1.76h1.81c4.16,1.36,5.06,4.93,6.76,7.9,1.42.66,2.8,1.1,4.43,1.12,2.38.03,4.19-1.37,6.26-2.09,2.28-.79,4.43-1.93,6.66-2.86,2.34-.97,4.74-1.88,7.17-2.52,3.2-.84,6.39-1.97,9.83-1.6,1.7.18,3.45.03,5.06.03q1.71-2.44,1.96-8.27c2.03-.8,4.17-1.65,6.63-2.61,1.06-1.06,2.38-2.38,3.62-4.15.05.05.1.1.15.15.2-.17.41-.35.61-.52l-.24-.24c-.17.2-.35.41-.44,1.05Zm-20.57,71.33h5.56c.76-3.16,1.5-6.2,2.27-9.4-.62-.39-1.31-.83-2.14-1.37v-2.93c.77-.48,1.47-.91,1.72-1.06.5-1.57,1.2-2.71,1.13-3.79-.33-4.9,1.38-10.02-1.63-14.66,2.51-.26,2.68-.2,3.18,1.36.47,1.48.9,2.93.79,4.55-.15,2.48.09,4.99-.08,7.47-.16,2.37-.61,4.72-.94,7.08-.68.13-1.36.26-2.76.53,1.33.98,2.23,1.64,3.04,2.24-.72,3.15-1.4,6.09-2.11,9.16.17.17.53.53.76.76,5.43-1.76,10.38-4.05,11.85-10.26-.62-.93-1.19-1.8-1.89-2.85,1.68-1.58,2.23-3.62,3.09-5.52.39-.85.34-1.75.84-2.66,1.11-2.02,1.68-4.38,1.63-6.79-.04-1.99-.2-4.01.03-5.98.51-4.24-1.25-7.88-2.84-11.55-.73-1.69-1.56-3.37-2.94-4.36-2.69,1.53-5.1,2.9-7.71,4.38.2,2.16-.48,4.15-3.06,5.05-.17.06-.34.1-.47.14-.56-.53-1.07-1.02-1.53-1.45-3.19,1.77-6.89,2.17-8.65,5.33h-4.09c-.67-.92-1.38-1.87-2.07-2.82-.93.42-1.94,1.19-3.01,1.29-1.37.12-2.32.77-3.56,1.29,4.38,4.04,7.36,5.11,9.65,14.59,1.5,6.19-1.96,11.17-4.77,16.38,1.78,1.02,3.49,2.02,5.22,2.97,1.83,1,3.69,1.94,5.47,2.87Zm12.34,38.39c-4.14-.08-8.24-.63-12.3-1.55-2.09-.48-4.31-.36-6.39-.84-2.12-.48-4.14-1.43-6.23-2.05-1.56-.46-3.39-.38-4.74-1.15-2.76-1.57-5.88-2.04-8.73-3.3-2.94-1.3-6.09-2.14-9.14-3.18-5.05-1.72-9.83-4.06-14.29-6.95-2.5-1.62-4.71-3.67-7.07-5.5-1.49-1.16-3.01-2.28-4.57-3.45-.76,1.97-1.46,3.77-2.16,5.59h-5.39c1.17,1.04,2.08,1.85,3.18,2.82h1.07c.59.79.98,1.85,1.72,2.21,3.17,1.52,5.56,4.3,8.97,5.39,5.54,4.16,12.04,6.41,18.39,8.78,4.76,1.78,9.77,2.96,14.81,4.01,4.81,1.01,9.68,1.89,14.51,2.66,3.9.62,7.93,1.47,11.99.94,1.1-.14,2.24-.08,3.36,0,.42.03.81.42,1.21.65.57-.57,1.19-1.18,1.81-1.8v-3.27Zm-42.67-69.43c.3,3.14-.17,6.14.67,9.2.63,2.32.1,4.95.13,7.44.04,2.42-1.29,4.69-.78,7.17.04.17-.25.39-.32.6-.89,2.75-1.79,5.49-2.63,8.25-.13.42-.02.92-.02,1.45.99-1.01,1.83-1.86,2.97-3.02,0-.05.08-.64.15-1.27,2.45-1.05,4.8-2.41,7.34-3.03,1.72-.42,3.01-1.84,4.93-1.77.46.02.96-1.22,1.61-2.1h4.36c6.88-9.48,5.59-21.5-5.99-27.75-3.96,1.54-8.04,3.12-12.44,4.83Zm-24.17,60.01c-2.28-1.49-4.22-2.76-6-3.93-2.22,1.44-4.42,2.81-6.55,4.28-3.33,2.3-6.87,4.48-7.68,8.94-.26,1.4-.37,2.83-.5,3.89,2.14,2.92,4.77,3.71,7.84,3.64,3.24-.08,6.63.59,9.67-.19,3.06-.78,6.28.23,9.14-1.33,5.25-.25,10.51-.53,15.76-.73,2.11-.08,4.24.07,6.35-.05,1.28-.07,2.53-.52,3.81-.7,1.03-.15,1.98.44,3.15.09.94-.29,2.17.36,3.27.6.09-.15.18-.29.28-.44-.47-.3-.95-.6-1.1-.7-12.42-2.42-24.08-6.09-35.39-12.38-3.12,1.33-6.93,2.24-9.16,4.79-.61-.2-1.24-.4-2.06-.67,2.52-3.07,5.49-4.3,9.18-5.12Zm118.37-27.18c-2.08,4.58-2.31,8.94-3.62,12.83.33.53.58.92.78,1.25-.63,1.06-1.17,1.96-1.7,2.84-.68.08-1.27.15-1.85.22-.39.84-.77,1.67-1.24,2.67.89.15,1.57.27,1.97.34,2.77,2.8-.05,5.13-.38,7.44,2.72,3.35,4.99,6.84,8.92,8.77q3.31-2.02,6.34-1.98c.2.35.57,1,1.03,1.8,1.76-2.19,4.32-.19,5.9-1.93,2.09.15,4.23-.44,6.75.85-3.4-6.58-7.87-11.74-11.46-17.47-3.63-5.8-7.44-11.48-11.45-17.64Zm15.99-35.86c1.27-1.02,2.35-1.91,3.45-2.77,2.52-1.97,4.02-4.78,5.74-7.34,3.24-4.84,5.7-10.04,4.56-16.4-1.19.3-2.29.76-3.41.82-2.23.13-4.48.12-6.71,0-1.27-.07-2.54-.43-3.79-.73-.66-.16-1.27-.65-1.93-.71-4.72-.41-8.94-2.38-13.16-4.27-2.3-1.03-4.31-2.72-6.82-2.91-1.68.23-3.36.46-5.36.73,14.58,6.94,23.99,17.68,27.43,33.58Zm-40.64-63.85c-3.04,2.68-5.96,5.28-8.9,7.84-1.55,1.35-3.02,2.83-4.74,3.92-1.7,1.08-3.3,2.27-4.94,3.43-2.36,1.66-4.9,3.16-7.57,4.23-3.31,1.32-6.75,2.37-9.98,3.86-2.43,1.12-5.21,1.1-7.49,2.73-.75.54-2.29-.14-3.22.28-1.88.84-4.02.1-5.63.82-1.87.84-3.59.44-5.36.57-1.98.15-3.98.03-5.98.03-1.49,0-2.99-.02-4.48.01-.63.01-1.25.14-2.64.3,1.93,1,3.17,1.64,4.21,2.18.38.77.69,1.39.99,1.99-.55,1.15-1.09,2.27-1.68,3.51,1.26-.2,2.24-.5,3.22-.47,1.13.04,2.08-.69,3.06-.72,3.97-.12,7.81-1.02,11.71-1.58,1.28-.18,2.53-.61,3.8-.71,1.67-.13,3.41.2,4.91-.79,1.55-1.02,3.44-.45,5.09-1.25,2.06-1.01,4.26-1.75,6.45-2.45,2.33-.75,4.45-1.96,6.66-2.87,2.71-1.12,5-2.54,7.14-4.46,1.11-1,1.95-2.56,3.14-3.04,2.07-.85,2.96-2.82,4.71-3.93,1.73-1.1,3.4-2.53,4.59-4.18,1.37-1.9,2.96-3.53,4.56-5.2.57-.59,1.07-1.24,1.72-2-1.27-.85-1.77-2.43-3.32-2.06Zm-46.66,50.34c-.47.21-.88.48-1.32.56-1.86.34-3.79.41-5.58.96-3.03.94-6.19,1.17-9.23,2.02-1.12.31-2.27-.14-3.48.67-.95.64-2.48-.07-3.78.77-1,.65-2.47.62-3.74.82-1.88.29-3.8.39-5.65.8-1.09.25-2.65.69-3.01,1.49-.84,1.83-2.02,3.79-.84,6.03.37.7.32,1.62.42,2.16.7.89,1.3,1.66,1.72,2.2,12.23-3.96,23.62-9.23,35.52-13.86.26-.7.63-1.66.85-2.26-.79-1-1.38-1.75-1.87-2.38Zm67.31-62.33c-2.46,2.46-4.83,4.84-7.21,7.21-2.28,2.29-4.73,4.43-6.81,6.9-2.09,2.48-4.82,4.37-6.73,6.87-2,2.61-4.57,4.62-6.97,7.81,1.19-.45,1.76-.67,1.93-.74,1.1.18,1.91.47,2.68.41,2.02-.16,4.01-.58,6.03-.69,2.23-.13,4.47-.03,6.71-.03h6.47c-1.75-4.63-1.09-8.77.48-12.85q-.76-1.68-.62-5.01c.64-.37,1.34-.78,1.94-1.13.81-3.07,1.72-6.02,4-8.6-.7-.05-1.17-.09-1.91-.15Zm22.95,94.33h-8.15c-.56.69-1.16,1.44-1.76,2.21-.06.08,0,.24,0,.5,1.55.34,3.23.46,4.7,1.08,2.31.98,4.29.94,6.23-.75.19-.17.99.36,1.39.51,2.63-1.1,5.04-2.54,7.2-4.32,2.62-2.15,5.4-4.2,7.64-6.71,3.28-3.69,5.87-7.95,8.45-12.16.85-1.38,1.89-2.75,2.43-4.21,1.82-4.92,3.83-9.8,3.9-15.23.02-1.58.54-3.24.88-4.84.49-2.3,1.27-4.54,1.28-6.93,0-.62-.24-1.4.04-1.84,1.45-2.31.29-4.72.31-7.18-1.59,1.92-3.18,3.83-4.85,5.85.23,1.12.82,2.42.67,3.63-.15,1.24,1.06,2.34.17,3.53.98.81-.16,1.54-.12,2.34.05,1.08-.1,2.17-.24,3.25-.12.93-.02,2.19-.58,2.7-1.35,1.25-.37,2.78-.9,4.15-.99,2.57-1.83,5.25-2.85,7.79-1.06,2.64-2.63,5.12-3.93,7.7-1.47,2.92-3.54,5.63-5.75,8.06-3.86,4.25-8.34,7.74-13.93,9.57-.76.25-1.42.8-2.25,1.3Zm-4.56-96.77c-.26-.64-.49-1.21-.78-1.95,2.62-2.63,3.94-6.04,5.26-9.75-2.06-.14-2.44,1.87-3.95,2.25-.2-.14-.62-.27-.75-.54-2.01-4.16-3.32-8.58-4.87-13-.27,2.6-.5,5.19-1.82,7.29-2.16-.53-4.14-1.37-6.02.72,1.11.81,2.06,1.51,2.96,2.17v2.01c-.62-.27-1.03-.4-1.4-.61-1.21-.69-2.47-1.32-3.6-2.13-1.38-1-2.23-.31-3.06.66.51,1.45,3.19.92,2.95,3.08-1.76,1.02-2.48-.51-3.41-1.19-1.41.03-2.93-.37-3.34,1.83.32.32.71,1.07,1.16,1.11,3.8.27,6.07,3.39,9.21,4.88,1.01.48,2.04,1.49,1.65,3.01-.02.07.15.18.12.15,3.23,2.02,6.33.56,9.71,0ZM57.35,204.26c-1.25,2.04-2.5,3.63-3.27,5.42-1.44,3.37-3.63,6.24-5.58,9.29-.41.64-.56,1.43-.93,2.43,1.63.32,3.08,1.08,4.08.68,1.19-.47,2.3-.49,3.48-.64,1.16-.15,2.28-.5,3.43-.72,1.39-.27,2.8-.44,4.17-.78.77-.19,1.46-.68,2.2-.98,1.71-.68,3.46-1.28,5.15-2.01.69-.3,1.25-.87,1.84-1.28-.53-1-.9-1.71-1.44-2.72-.77.93-1.48,1.78-2.14,2.57-1.71-.41-2.9-1.18-3.25-1.94v-1.75c.77-1.04,1.27-1.71,1.66-2.23.98.5,1.76.9,2.59,1.33v-5.66c-3.65.96-7.23,1.97-9.58,5.7-.19.72.6,2.32-1.2,2.9-1.63-1.04-.85-2.65-1.02-4.24,1.45-1.38,2.96-2.83,4.49-4.29-.67-.34-1.29-.66-2.11-1.09h-2.59Zm137.26,83.32c-8.58-2.55-15.83-6.71-20.21-14.63-3.36,2.08-5.92,2.23-12.93.68-.78-.84-1.7-1.84-2.4-2.59-2.07-.72-2.56.94-3.54,1.68v4.51c1.44,1.58,3,2.82,5.3,2.62.44-.04.96.1,1.35.33,1.03.61,1.97.42,3.06.06,3.58-1.16,6.81-.33,9.61,2.13,1.21,1.07,2.26,2.32,3.45,3.41,2.16,1.99,5.82,2.63,8.38,1.35,1.31-.66,2.28-.7,3.62.07,1.11.64,2.52,1.51,4.31.38ZM20.11,103.09c2.72,2.06,5.09,3.53,7.69,3.03,2.8-.53,5.59-1.57,8.45-3.67h-3.84c-.51-.6-.81-.96-1.31-1.54,2.44-1.8,2.29-5.51,5.57-6.31-.26-2.1-2.08-1.5-3.04-2.23-1.12-.84-1.78-1.92-1.49-3.64-2.22.44-4.06.8-5.65,1.12-3.38,3.28-6.23,6.58-7.31,11.05-1.33.08-2.69.15-2.7,2.2h3.65Zm-5.9,164.02c0,3.08-.51,5.95.16,8.51.55,2.11.87,4.33,1.65,6.39.78,2.04,1.59,4.08,2.37,6.12.29.75.4,1.6.82,2.27,1.79,2.88,3.42,5.92,5.6,8.49,1.78,2.1,3.6,4.28,6.17,5.69,2.56,1.41,4.72,3.58,7.33,4.86,3.4,1.67,6.62,3.73,10.31,4.86,2.89.88,5.67,1.96,8.71,2.45,2.3.37,4.62.88,6.93,1.18,2.12.27,4.27-.22,6.42-.54,3.16-.48,6.22-1.2,9.37-1.88-.07-.45-.13-.79-.22-1.36-.86.32-1.56.69-2.31.84-3.84.76-7.74,1.06-11.63.72-3.27-.28-6.51-.99-9.72-1.74-.45-.1-.87-.44-1.3-.44-3.4.07-6.37-1.32-9.34-2.71-4.74-2.23-9.36-4.62-13.6-7.75-1.95-1.44-3.11-3.7-5.48-4.76-.85-.38-1.06-2.03-1.8-2.9-2.3-2.71-3.55-6-5.23-9.05-.56-1.02-1.66-1.63-1.57-3.13.06-.91-.95-1.84-1.17-2.83-.26-1.18-.15-2.43-.25-3.65-.04-.46-.19-.91-.32-1.36q-1.09-3.6-.43-7.43c.04-.21-.12-.44-.2-.74-.31-.02-.65-.05-1.28-.1Zm63.12,43.22c-.73.39-1.22.8-1.76.89-1.88.32-3.77.63-5.67.75-1.98.13-4,.16-5.97-.01-1.86-.17-3.73-.55-5.54-1.04-4.12-1.12-8.03-2.87-11.95-4.52-2.65-1.12-5.19-2.59-7.61-4.16-3.21-2.1-6.44-4.28-8.96-7.19-2.73-3.15-5.31-6.47-7.64-9.92-1.27-1.88-2.44-3.89-2.87-6.29-.32-1.77-.15-3.82-.85-5.23-.81-1.63-.14-2.65-.37-3.44-.17-.56-.34-1.11-.5-1.67-.33,3,.07,5.6.27,8.21.23,2.98,1.34,5.67,2.62,8.27,1.18,2.39,2.98,4.49,4.08,6.92,2.08,4.59,5.84,7.53,9.69,10.31,2.99,2.16,6.17,4.06,9.6,5.63,4.75,2.17,9.34,4.44,14.72,4.17.34-.02.81.02,1.01.23.95,1.01,2.23.08,3.14.56,1.01.54,1.99.71,3.08.7,3.61-.02,7.21,0,10.49,0,.9-.46,1.52-.78,2.04-1.05-.31-.62-.62-1.23-1.06-2.12Zm-36.2-24.76c0-1.29-.17-2.05.03-2.69.73-2.3.56-4.91,2.54-6.79,2.01-1.91,4.04-3.74,6.37-5.31,1.9-1.29,4.18-2.3,5.52-4.64-.96-.5-1.74-.92-2.51-1.32-3.22,1.68-6.37,3.36-9.75,4.53-3.61,1.24-7.38,1.58-11.32,1.53.16,1.17.05,2.13.43,2.81,2.27,4.15,5.26,7.78,8.69,11.88Zm87.62-122.43c-1.51-2.13-.62-4.06-.98-6.19,1.04-.24,2.13-.83,2.53-.52,1.24.96,2.56.6,3.85.66,1.49.06,2.98.01,4.77.01,1.45-2.05,3.01-4.25,4.55-6.42-.34-.36-.68-.72-1.01-1.07h-3.73c-1.3-1.27-2.82-1.73-4.58-1.42-2.06,1.81-2.92,4.78-5.65,5.93-.4-.25-.76-.47-1.12-.69-.46,1.01-.88,1.96-1.32,2.93-3.07-.63-2.62,3.15-4.51,3.65-1.05.08-1.87.14-2.66.2v5.07c-.39.28-.97.69-1.7,1.22q2.58.25,4.69-1.04c-.19-1.57-2.33-2.74-1.13-4.69,2.55.21,1.16,3.53,3.68,3.84,1.14-.39,2.55-.88,4.32-1.49Zm-53.36-91.17v-5.32c-2.41.45-4.68.88-6.9,1.3-2.86-1.67-6.3.5-8.93-1.47-3.01,2.4.65,4.91-.58,7.1.95,1.29,1.79,2.43,2.58,3.5,2.2.33,4.18.62,5.43.8,3.67-1.62,6.95-2.46,8.4-5.91Zm103.22,69.75c1.38,1.24,2.74,2.03,4.57,1.97.88-.03,1.76.55,2.67.67.97.13,2.22-.34,2.92.12,2.12,1.37,4.22.28,6.25.68,1.36-2.51,3.14-4.57,2.17-7.3-2.54-.84-5.02.17-7.64-.71-2.35-.78-5.18-.19-7.32-1.9-1.03,1.03-1.91,1.91-2.62,2.62-.37,1.43-.69,2.67-1,3.86ZM27.3,272.19c1.29,2.44,2.29,4.66,3.57,6.7,2.47,3.92,5.81,7.12,8.88,10.55,2.96,3.3,7.03,4.81,10.47,7.3.99.71,2.36.87,3.53,1.37,5.15,2.2,10.37,3.94,16.13,3.49,1.48-.12,2.77-.48,4.04-1.1v-1.73c-1.8-.69-3.34.44-4.92.44-3.38,0-6.76-.42-10.14-.67-.11,0-.21-.08-.31-.14-2.53-1.39-5.4-1.96-7.93-3.4-3.6-2.04-9.71-7.26-13.03-10.78-3.69-3.9-6.31-8.38-8.22-13.64-.66.51-1.2.94-2.07,1.61Zm114.6-22.22c3-1.3,5.26-2.81,6.89-5.11,1.41-6.5,1.17-7.48-2.62-10.05-.23.8-.34,1.59-.67,2.27-1.27,2.55-3.36,4.42-5.6,6.05-1.97,1.44-4.13,2.62-6.29,3.97,1.54.96,2.73,2.03,4.12,2.47,1.47.46,3.12.32,4.18.4Zm-35.84-96.05c-4.29,1.57-7.71,2.81-10.98,4.01,1.9,2.62,3.69,5.09,5.33,7.35h6.83c1.63-1.29,3.94-1.38,4.79-3.53-1.13-.13-2.19-.23-2.89-1.27-.58-.85-1.36-1.41-2.51-1.15-.14.03-.36-.28-.77-.62-.36-.69-.83-1.61-1.27-2.46.39-.62.7-1.1,1.47-2.33Zm5.8,122.21c-2.55-2.4-4.26-4.57-7.04-5.58-2.48-.89-4.7-2.59-7.22-3.29-2.69-.75-5.51-1.27-8.25-1.85-2.87-.61-5.23.84-7.88.44,4.74,2.3,9.7,3.82,14.56,5.59,4.94,1.81,9.94,3.59,15.83,4.68Zm-2.82-30.07c-2.68-2.51-5.24-4.91-7.75-7.26-2.54,1.53-6.08,1.45-7.94,4.24.32,2.09,1.35,3.48,3.16,4.92,2.59.19,5.57.41,8.11.6,1.82-1.03,3.21-1.82,4.41-2.5Zm88.02-128.26c5.98-2.86,12.06-5.25,18.26-7.42-.33-1.09-.67-2.18-1.09-3.57-1.69.3-3.46.45-5.13.96-3.52,1.07-7.08,1.97-10.46,3.49-1.31.59-2.08,1.44-2.92,2.38.46,1.42.84,2.63,1.34,4.17Zm1.1,96.12c6.88-2.21,10.35-7.84,14.05-13.03,3.47-4.87,4.81-11.67,4.45-18.17-.42-.36-.86-.73-1.3-1.11.12.24.24.48.36.73-.76.2-1.52.39-2.94.76,2.13,1.6,2.26,3.43,1.68,4.7-.77,1.68-.4,3.31-.7,4.9-1.5,2.51-3.01,4.98-4.47,7.49-2.75,4.72-6.37,8.57-11.12,11.2v2.51ZM43.06,91.97c-1.41.05-1.82,1.23-2.65,1.87,1.05.5,2.05.72,2.66,1.33.77.77,1.6.41,2.39.6.89.22,1.74.61,3,1.06.35-1.87,2.09-2.79,2.5-5-2.54.67-4.05,3.39-6.77,2.17v-2.01c1.84.18,3.55-.14,4.86-1.55.28-.87.55-1.74.74-2.33-.78-2.26-.42-4.48-.4-6.62.02-2.21.33-4.42.53-6.93-1.41,1.1-2.58,2.02-3.56,2.79v2.28c.56.59,1.12,1.2,1.87,2.01-.94.71-1.66,1.25-2.51,1.89-.5,1.02-1.11,2.25-1.69,3.42.37.49.65.86.9,1.19-.61,1.25-1.16,2.39-1.86,3.83Zm51.11-29.76h-5.02c-2.29-1.17-4.11-2.09-5.81-2.96-.93,1.63-1.81,3.19-2.87,5.07,1.58-.55,2.69-.93,3.42-1.18,1.01.95,1.89,1.79,2.81,2.66-.69,2.86-2.54,3.67-5.79,2.46v3.84c1.12-.4,1.99-.7,2.88-1.02,1.04.47,2.26.78,2.55,2.4.51-1.47.92-2.67,1.29-3.76,2.07-1.13,4.66-4.12,6.53-7.51Zm43.45,67.53c-.75-.61-1.42-1.36-2.25-1.8-6.23-3.28-12.49-6.51-18.75-9.75-.57-.29-5.49-1.51-6.1-1.48-.21,0-.4.22-.61.34v1.51c1,.52,2,1.08,3.05,1.56,3.77,1.72,7.26,4.1,11.27,5.23,2.12.6,3.94,2.07,6.32,1.98.67-.03,1.35.87,2.07,1.23.72.36,1.56.48,2.24.88.63.37,1.14.96,1.64,1.41.51-.51.77-.77,1.11-1.11Zm-19.7,71.63c3.48-.64,5.79-3.05,8.87-2.32.39-1.18.71-2.17,1.11-3.39-1.31-1.86-2.72-3.85-4.28-6.07-2.55,1.27-4.82,2.4-7.19,3.58,2.61,2.36,2.49,5.05,1.49,8.2Zm33.85,38.17c.08,8.7-7.04,14.54-14.89,11.95,2.32,3.92,6.05,2.64,8.43,2.84,3.92-1,5.79-3.46,7.56-5.18.61-2.21,1.1-3.98,1.56-5.64-.38-1.42-.57-2.97-1.23-4.28-.64-1.27-1.11-2.84-3.16-3.61.6,1.35,1.04,2.36,1.73,3.92Zm19.82,27.78c.85-2.14,1.61-4.04,2.41-6.05-1.41-.5-3.12-.9-4.62-1.69-1.6-.84-3-2.05-4.59-3.17-.53,2.97-1,5.59-1.49,8.3.4.43.98,1.06,1.45,1.57,2.39.36,4.61.7,6.85,1.04ZM101.86,68.24c.45-.41.71-.65.94-.85.65.62,1.28,1.22,2.02,1.92v9.24c1.74-1.12,4.06-.86,5.13-2.83-6.15-12-7.86-14.67-10.69-16.63-.99.75-1.98,1.48-3.19,2.39,1.81,1.44,3.38,2.69,4.96,3.95-.12.08-.24.16-.36.24.39.84.77,1.67,1.19,2.57Zm11.83,180.5c1.64,4.78,5.23,7.38,10.27,6.28,1.27-.83,2.79-1.56,3.97-2.66,1.12-1.05,2.77-1.9,2.96-3.97-7.35,2.16-10.53,1.94-17.2.35Zm-27.8-70.91c-3.39-1.07-5.87-2.7-8.5-4.16h-4.12c0,1.68-.14,3.29.04,4.87.18,1.61.66,3.19,1.01,4.83,2.32-.35,4.56-.69,7.04-1.07,1.96-.59,2.4-2.94,4.53-4.47Zm33.3-65.6c2.21,1.9,4.78,2.42,6.88,3.77,2.03,1.3,4.27,2.27,6.38,3.47,2.22,1.26,4.4,2.61,6.69,3.98.68-.36,1.46-.77,2.46-1.29-.81-1.13-1.48-1.96-2.69-2.48-3.91-1.66-7.79-3.39-11.62-5.23-2.27-1.09-4.41-2.44-6.55-3.64-.41.38-.77.72-1.54,1.43Zm-14.99,55.87c-2.34-1.13-5.03-1.45-7.42-2.68-1.19-.61-2.32.2-2.7,2.04,1.36.54,2.75,1.58,4.1,1.53,4.29-.14,8.79,1.16,12.82-1.39,3.47-.19,5.12-2.55,6.44-5.32-1.33-1.35-3.01-1.86-3.58-1.29.24.84.45,1.6.76,2.67-2.31-.21-2.65,2.94-5.05,2.41-1.36,1.54-3.46,1.27-5.38,2Zm49.74,111.81c-2.3-2.51-4.36-4.75-6.28-6.84-2.31.06-3.59,1.31-4.9,2.71.39,1.52-.77,3.42,1.49,4.99,2.94-.26,6.27-.55,9.7-.86Zm-15.84-141.37c-.91,2.3-1.83,4.65-2.89,7.33,5.34.24,9.75-1.64,13.59-4.95,1.08-.93,1.93-2.32,1.36-3.68-2.57.83-4.94,1.6-7.07,2.29.18.77.36,1.54.41,1.79-.8,1.05-1.32,1.75-1.74,2.31-1.53,0-3.01.33-3.51-1.75.75-.95,1.59-2.01,2.65-3.35h-2.81Zm33.93,130.78c-1.33-.02-3.06.44-4.56-.71-3,.35-5.13-1.44-7.37-2.97-.13-.09-.44.1-.76.18v2.13c1.29,1.3,2.42,2.43,3.68,3.7,7.04,1.56,11.98.14,12.46-3.96-1.15.54-2.16,1.02-3.45,1.63Zm-46.86-9.69c2.34-1.47,4.51-3.06,5.96-6-2.51,1.39-4.57,2.53-6.58,3.64-4.28.8-7.51-.96-10.21-4.03-.33-.37-.66-.77-1.06-1.03-.32-.21-.38-.99-1.15-.5.02,2.23,1.23,3.96,2.55,5.57,1.35,1.65,3.07,2.58,5.34,2.38,1.6-.14,3.22-.03,5.15-.03Zm50.54-114.16c1.48,2.01,3.61,2.57,5.9,2.65,2.24.08,4.65-.51,6.69.14,3.06.98,5.98.3,8.53-.08.47-.1.94-.21,1.39-.31-1.65-1.98-3.51-1.06-5.15-1.21-1.61-.14-3.24.07-4.85-.06-1.65-.13-3.3-.38-4.92-.75-1.57-.36-3.09-.93-4.63-1.41-.96.33-1.94.66-2.96,1.01Zm-76.2-17.79c8.65,1.12,15.2,4.16,18.39,12.85.2-1.79.09-2.74-.37-3.98-.9-2.43-2.77-3.88-4.32-5.69-2.92-3.4-6.84-4.85-11.06-6.05-.75.81-1.46,1.59-2.64,2.87Zm-11.84-6.6h2.66c-.14-.18-.27-.36-.41-.55.47-.11.93-.22,1.39-.34-.56-.56-.83-.83-1.05-1.05-.96.54-1.93,1.09-2.64,1.5-1.07-.9-1.81-1.52-2.31-1.94v-2.39c.92-1.39,2.16-1.15,3.64-.97.55.84,1.17,1.84,1.85,2.81.09.13.46.05.97.09.07-.65.15-1.31.27-2.43-.44-.23-1.06-.55-1.46-.76.36-.74.56-1.15.92-1.9-1.75-.68-3.34-1.3-4.88-1.91-1.86,1.59-1.65,4.25-3.51,5.04-.48,1.6.69,2.03,1.09,2.86.39.8.33,1.83.52,3.09.83.17,1.68.36,2.52.53.16-.63.25-.97.44-1.69Zm-46.59,127.4c1.1,1.45,1.76,2.83,2.86,3.6.97.68,2.47.55,3.65,1,1.39.52,2.51-.72,3.77-.08.24-2.03.45-3.77.71-6-.53-.73-1.39-1.92-2.24-3.11-1.08.72-1.92,1.28-2.79,1.85.84.5,1.54.91,2.23,1.32v3.55c-.7.33-1.43.66-2.37,1.1-.64-.9-1.2-1.69-2.18-3.08,0,.05,0-.78,0-1.97-1.35.68-2.45,1.23-3.63,1.82Zm65.84,1.88c-6.08,1.44-13.77.19-15.44-7.41-.64.44-1.22.84-1.74,1.2.08,4.34,3.54,7.96,7.59,8,2.35.02,4.7,0,6.9,0,.99-.66,1.84-1.23,2.69-1.79Zm53.88,35.6c4.63-.14,8.95-.27,13.27-.41.04,0,.07-.21.16-.46-.68-2.04-3.19-1.63-4.34-3.13-3.06.37-6.03.74-9.09,1.11v2.89ZM57.95,52.24c.94,2.4,2.68,3.26,3.76,4.68,2.06.3,4.04.59,5.4.79,1.74-.89,2.97-1.33,3.96-2.09,1.15-.88,2.09-2.03,3-2.94-.06-.75-.1-1.22-.14-1.77-6.34,4.69-8.59,4.55-15.98,1.33Zm-20.31,37.53c-.81-1.02-1.66-2.08-2.76-3.47-.59,1.51-1.03,2.64-1.43,3.65.59.59.94.94,1.25,1.25.5-.28.99-.56,1.52-.85.32.68.56,1.19.78,1.65h2.01c1.09-.73,1.97-1.32,2.63-1.76.31-1.64.59-3.14.82-4.34-1.19-1.19-2.3-2.3-3.18-3.18-1.11.17-2.13.33-2.55.39-1.05.78-1.72,1.27-2.28,1.68.42.53.72.9,1.2,1.5.51-.7.94-1.3,1.23-1.69h2.12c.89.74,1.55,1.29,2.07,1.72v2.35c-.39.41-.74.76-1.07,1.11h-2.37Zm97.48,190.09v-3.03c-3.17,0-6.14-.04-9.11.01-2.85.05-5.73-.23-9.16.27,6.32,1.83,12.31,1.55,18.27,2.75Zm-54.82-80.12c1.38-.33,2.72-.66,3.85-.93,1.07-1.54,1.52-3.18.89-4.79-.56-1.42-1.5-2.69-2.19-3.87-.88.71-1.55,1.24-2.06,1.66-.21,2.8.34,5.4-.49,7.93Zm102.95-66.12c1.43,1.08,3.29.6,4.71,1.16,2.9,1.15,5.77.4,8.63.58,1.29.08,2.55-1.39,2.89-2.94-.63,0-1.24-.08-1.81.02-1.02.18-2.01.57-3.03.71-1.05.14-2.14-.17-3.06.73-.23.22-.95.06-1.4-.08-1.31-.42-2.55-1.06-3.88-1.33-1.02-.2-2.25-.37-3.05,1.15Zm-90.98,33.9c-1.36.38-2.78-.33-4.24.52-1.15.67-2.69.63-3.97,1.13-1.13.44-2.13,1.2-3.19,1.82.06.18.12.35.18.53,4.63-.38,9.27-.76,14.07-1.16-.97-.97-1.75-1.75-2.85-2.85ZM56.82,58.17c0,.79-.11,1.13.02,1.27,3.81,4.44,7.62,4.8,13.66,3.63,2.19-.43,3.63-2.01,5.59-2.69.19-1.72,2.36-2.94,1.35-5.17-4.04,7.05-12.79,11.07-20.61,2.95Zm102.75,180.61c-.23,1.11-.36,1.36-.3,1.56.21.78.53,1.52.73,2.3,1.5,5.94,4.82,10.73,9.36,14.73.94.83,1.92,1.62,3.58,1.34-6.86-5-10.41-11.9-13.36-19.95ZM83.37,31.32c-1.17-2.28-2.23-4.07-3.02-5.98-.85-2.06-2.41-3.01-4.39-3.71-1.29-.46-2.72-.52-3.9-1.41-.37-.28-1.13-.04-1.68-.04-.06.53-.08.77-.14,1.28,4.06.49,7.22,2.64,9.57,5.75.42,1.44.8,2.77,1.19,4.12h2.35Zm5.67,107.58c2.39.34,4.75,1.03,7.06.9,2.38-.13,4.71-1.06,7.15-1.66-.41-.43-.74-.77-1.01-1.06-2.39-.36-4.7-.71-6.86-1.04-.56.76-.24,1.88-1.43,1.62-1.53,1.69-3.22.27-4.91-.08v1.33Zm-44.75,40.87c.48,1.38.93,2.57,1.32,3.78.36,1.1.39,2.43,1.04,3.28.74.95-.09,2.81,2.12,3.04.19-.73.69-1.57.53-2.26-.71-2.92-1.62-5.8-2.46-8.69-.02-.06-.21-.08-.34-.12-.72.32-1.46.64-2.2.97Zm-2.41-80.64v-2.34c-.51-.39-1.06-.81-1.65-1.26-1.5.7-2.85,1.33-4.19,1.95-.32.81-.65,1.62-1.02,2.55,1.84.41,3.42.77,4.83,1.08.81-.79,1.43-1.4,2.03-1.99Zm-7.24,127.12c1.14-1.63,2.84-2.51,3.62-4.18-1.11-1.34-2.38.21-2.79-.09-1.09-.81-2.14-.4-3.19-.48-1.04-.08-2.09.08-4.03.18,2.46,1.76,4.21,3.01,6.39,4.57Zm7.5-108.08c0-.16-.02-.32-.03-.48.74-.45,1.48-.91,1.94-1.19v-3.26c-.49-.44-.92-.83-1.25-1.12-2.41.88-3.9,2.19-3.92,4.66,0,.45,0,.9,0,1.39h3.25Zm11.04,133.68c.16.17.4.43.62.68-.59.91-1.17,1.8-1.79,2.75h-6.16c1.43.93,2.38,1.54,3.13,2.03h4.87c-.17-2.51,3.19-4.7.36-7.43-.37.72-.69,1.33-1.03,1.98Zm-13.12-195.75c.11.28.21.55.32.83-.98.62-1.97,1.23-3.34,2.09h7.26c.8-.67,1.45-1.22,1.99-1.68-.36-.71-.68-1.33-1.1-2.16-1.66.3-3.39.61-5.11.92Zm162.18,225.22c-2.36.16-4.87-.56-6.86.94.27.94.51,1.81.76,2.68,2.34-.28,4.69-.55,7.25-.85-.02-.53.03-1.14-.11-1.69-.08-.31-.5-.54-1.04-1.08Zm-60.41-145.72c-.82-1.6-2.17-.73-3.49-.95.04.65.06.98.07,1.23,5.04,2.24,9.31.62,14.04-2.7-1.3,0-2.01-.22-2.42.04-2,1.22-4.14,1.55-6.43,1.5-.5-.01-1.01.49-1.77.88Zm-5.81,138.31c.73,2.14,1.37,3.98,2.04,5.93.31,0,.82-.08,1.27.03.36.09.67.41.98.6.37-.37.63-.63.91-.91.51-2.56-.86-4.24-2.53-5.65h-2.67Zm-74.26-97.48c.62,1.38.13,2.67.34,3.87.23,1.31.69,2.57,1.09,3.97,2.28-.84,2.1-3.12,3.35-4.42-1.63-1.17-3.21-2.3-4.78-3.42Zm-13.21-125.61c.35,2.54.69,3.05,2.15,3.05.54-.23,1.38-.59,2.21-.94,1.3-1.98,1.26-3.9-.43-6.05-.07.83-.12,1.41-.17,2.03-.83,1.14-1.71,2.31-3.76,1.91Zm-16.89,232.62c-.63-.6-1.13-1.07-1.7-1.6-1.92,1.22-3.65,2.32-4.54,2.88.42,1.11.79,2.08,1.16,3.06,1.9-1.62,3.33-2.84,5.08-4.33Zm143.64-154.62c1.22.75,1.57,2.09,2.83,2.15,1.27-1.06,2.42-2.02,3.76-3.14-.4-.43-.8-.85-1.22-1.3-2.01-.36-3.66.29-5.37,2.29ZM34.92,235.91c2.09,1.59,4.09,1.29,6.02,1.23.49-1.58,1.64-2.87.65-4.26-2.16.98-4.25,1.92-6.67,3.02Zm6.83-129.35c-.34-.59-.72-1.24-1.11-1.92-2.11.98-4.07,1.92-4.83,4.33,2.07.67,3.7.11,5.1-.72.32-.65.58-1.16.84-1.69Zm188.9-6.77c-.93-1.41-1.61-2.43-2.27-3.42-1.01.47-1.73.81-2.52,1.18v3.16c.67.33,1.28.63,1.91.94.81-.52,1.7-1.09,2.88-1.84Zm-117.97,104.1c1.04-.53,1.73-.65,1.94-1.04.81-1.52,2.07-2.84,2.04-4.75-.02-1.74-.95-3.87-1.23-3.97-.95.34-1.56.56-2,.71.77,1.58,1.33,2.71,1.89,3.85-.82,1.61-1.58,3.1-2.64,5.19Zm-26.05-166.44c2.34,2.63,3.52,4.31,4.19,6.74.4-.12.8-.24,1.04-.32-.31-1.7-.57-3.18-.89-4.95-.39-.61-.95-1.49-1.65-2.57-.92.37-1.76.72-2.69,1.1Zm9.45,49.01c3.99,1.13,2.88-2.33,4.18-3.48-.9-1.26-1.77-2.49-2.72-3.83-.96,1.82-2.23.38-3.33.35,0,.42,0,.67,0,.92,1.27.47,2.54.93,3.36,1.23.5.92.75,1.39,1.06,1.96-.76.85-1.54,1.72-2.55,2.85Zm26.55,23.58c.87-.11,1.56,0,2.02-.28,3.35-2.01,3.34-2.04,6.63-2.04.62,0,1.25.04,1.87-.01.44-.03.87-.18,1.31-.28-3.99.07-8.06-1.42-11.83.56v2.06Zm-29.78-36.66v1.88c.79,1.1,1.36,1.9,2.02,2.82.89-.43,1.61-.79,2.24-1.1v-2.69c-1.44-.31-2.79-.59-4.27-.9Zm34.21,71.52c2.45-4.28,5.02-8.44,6.92-13.12-.68-.04-1.02-.06-1.24-.08-.49,1.26-.88,2.46-1.42,3.58-1.25,2.57-2.61,5.09-3.86,7.66-.28.58-.27,1.3-.4,1.95ZM29.48,291c1.32-1.2,2.65-2.39,4.15-3.75v-1.07c-.36-.36-.71-.71-.99-.99-1.66,1.35-3.3,2.69-4.95,4.03.61.61,1.22,1.22,1.79,1.79ZM220.09,108.61c2.69-.38,5.24-.75,7.54-1.08-.24-.29-.59-.71-.98-1.19h-7.48c.29.7.53,1.3.92,2.26Zm-151.03-11.82c.73-2.07,2.61-3.27,2.72-5.46h-3.47c-.44.48-.83.91-1.35,1.47.72,1.37,1.35,2.59,2.09,3.99Zm66.66,34.91c-.1,4.13-1.73,7.89-2.83,12.45,3.29-3.02,2.64-6.74,3.83-9.49-.37-1.11-.69-2.04-1-2.97Zm-13.17,9.51c.21.07.42.15.63.22.51-1.08.97-2.2,1.54-3.25,1.26-2.32,2.62-4.59,3.84-6.93.24-.46.03-1.14.03-2.49-2.08,3.9-3.8,7.07-5.46,10.28-.34.65-.4,1.45-.59,2.18Zm-25.01-40.98c-.34.69-.66,1.36-.98,2l1.02,1.02c1.52-.14,3.21.19,5.1-.27-1.15-2.39-3-2.83-5.14-2.75Zm-30.47,202.97c-2.58.58-2.95,1.51-2.55,6.57.66-.04,1.33-.08,1.77-.11.28-2.35.53-4.41.78-6.46Zm-7.79-1.03c-2.7.84-1.02,3.46-2.44,4.68-.17.15-.02.71.02,1.07.01.1.16.18.24.25h1.68c.55-1.72,1.06-3.33,1.58-4.98-.3-.28-.65-.61-1.08-1.02Zm-2.87-1.92c-2.85,2.26-3.4,4.54-3.33,7.2h2.05c.38-2.15.75-4.23,1.28-7.2Zm29.87-247.84c.65,1,1.02,1.57,1.3,2.01h6.7c-1.09-.76-2.02-1.41-2.88-2.01h-5.12Zm-46.87-4.86c.23.11.46.23.69.34.7-1.38.22-2.97.85-4.49.62-1.47,1.61-2.82,1.86-4.41,1.31-.32,2.31-.78,1.88-2.29-2.22.88-3.82,2.27-4.3,4.52-.44,2.08-.66,4.21-.98,6.32Zm5.04,255.93c.62-2.45,2.36-4.05,2.64-6.76-2.56,1.21-3.83,2.89-4.55,5.16.55.46,1.07.9,1.92,1.6Zm-8.87-6.36c.69.6,1.26,1.1,1.93,1.68,1.3-1.65,2.47-3.09,3.57-4.58.12-.16-.16-.63-.27-1.02-2.27.58-3.7,2.06-5.24,3.92Zm19.52-115.17c-1.15-1.02-2.15-2.69-4.61-2.87,1.84,1.91,1.22,4.66,2.84,6.39.63-1.25,1.18-2.35,1.77-3.52Zm81.62-22.59c-1.72,0-2.7.13-3.63-.03-.98-.17-1.79-1.33-3.04-.32.07,1.08.15,2.23.24,3.64,2.15-1.1,3.94-2.01,6.43-3.29ZM61.54,21.77c.22-.17.43-.34.65-.51-.77-1.25-1.55-2.5-2.24-3.61.43-1.18,1.7-1.99,1.13-3.52-1,.97-1.89,1.83-2.79,2.7.13,2.34,1.18,4.01,3.26,4.94Zm-27.61,274.44c1.71-1.53,3.3-2.95,5.07-4.53-.38-.42-.81-.9-1.2-1.34-1.9,1.52-3.75,2.86-4.73,5.01.26.26.52.52.86.86Zm8.4-213.13c1.11-.85,1.95-1.49,2.77-2.12q-1.74-1.84-5.08-.51c.73.83,1.53,1.74,2.32,2.63Zm177.37,118.86c.72-.4,1.22-.67,2.01-1.1-1.99-1.06-3.5-1.87-5.17-2.76-.51.71-.95,1.33-1.49,2.1,1.75.67,3.24,1.23,4.65,1.77ZM23.46,283.49c1.87-1.11,3.72-2.22,5.6-3.34-.25-.26-.56-.6-.79-.84-2,.57-3.93,1.12-6.01,1.71.42.87.82,1.69,1.2,2.47Zm18.22-53.58c-2.95,1.17-5.91,2.32-8.84,3.56-.35.15-.52.73-1.16,1.69,3.91-1.62,7.12-2.95,10.29-4.27-.17-.57-.24-.8-.29-.98Zm180.66-35.24c.48-.63.94-1.25,1.73-2.31-2.3.31-3.79-1.68-5.65-.54v1.73c1.33.38,2.53.72,3.91,1.12ZM29.53,227.48c-.3,2.01-.18,2.36,1.62,4.46,1.08-.36,2.16-.72,3.41-1.14-1.76-1.16-3.4-2.24-5.03-3.32Zm18.99,14.59c-4.21.74-7.08,2.15-8.92,4.2,3.66-.44,6.12-2.73,8.92-4.2Zm51.83-129.38c-.72-2.24-2.46-2.5-4.29-2.79-.44.57-.87,1.12-1.3,1.68,1.79,1.35,3.51,1.75,5.59,1.11ZM34.39,39.69c0,.8,0,1.29,0,.96.85,1.31,1.37,2.13,1.78,2.76.8-.04,1.27-.07,1.76-.09.3-1.39.58-2.67-.91-3.63h-2.63Zm16.7,266.83c.8-2.47,1.43-4.38,2.15-6.62-3.17.55-2.5,3.47-4.23,4.7.73.68,1.23,1.14,2.08,1.92Zm166.89-125.22c.54.83.92,1.41,1.31,2,1.19,0,2.45.33,3.37-.1.79-.37,2.67.03,2.3-2.1-1.09.1-2.11-.46-3.1.48-1.19,1.13-2.11-.85-3.88-.29Zm-173.66,114.41c-.75-.08-1.32-.14-1.86-.2-2.64,2.47-2.82,2.85-2.4,5.75,2.11-1.42,2.55-3.83,4.26-5.56Zm179.43-5.97c.37.9.59,1.42.83,2.01h1.65c.57-.61,1.29-1.37,2.31-2.47-1.22-.62-2.1-1.06-2.88-1.46-.86.86-1.47,1.47-1.92,1.92Zm-202.71-10.82c2.7.82,4.28-1.68,6.8-1.48-.51-.54-.83-.88-.9-.96-2.09.19-3.95.36-5.9.53v1.91Zm63.38-188.31c1.31,1.39,2.39,2.54,3.29,3.5h2.91c-2.23-1.37-4.01-2.79-4.98-5.02-.05-.11-.45-.05-.93-.1-.09.52-.19,1.06-.3,1.62Zm51.62,18.78c-1.5,2.31-4.23,1.4-5.45,3.77.68.54,1.28,1.01,1.85,1.46q3.13-2.98,3.6-5.23Zm76.9,93.2c2.38,1.42,4.01,2.39,6.26,3.72-.28-1.37-.18-2.53-.63-2.8-1.4-.87-2.88-2.01-5.63-.92ZM49.82,48.55c.3-.73.58-1.39.83-2-.35-.35-.61-.61-.85-.85h-2.39c-.97.84-1.52,1.68-.76,2.85h3.17Zm-17.19,244.87c.29-2.52,2.81-2.77,4.01-4.26-.49-.45-.82-.76-1.24-1.15-1.14,2.13-4.03,2.37-4.97,5.04.73.12,1.28.21,2.2.37Zm14.14,11.19c1.61-2.01,2.78-3.8,3.47-6.2-2.94.49-2.63,3.11-3.83,4.48-.23.26.22,1.13.36,1.72Zm51.73-210.35c.11.26.22.52.32.77.91-.1,1.84-.14,2.74-.31,1.02-.19,2.02-.5,3.14-.79-1.37-.7-2.66-1.36-4.04-2.06-.76.83-1.46,1.61-2.17,2.39Zm43.68,188.63v2.87h2.54c1-.8,1.5-1.66.79-2.87h-3.32Zm-102.63-64.29c-1.68.23-3.06.54-4.45.6-2.22.09-4.45.01-6.68.04-.48,0-.95.16-1.43.24.02.12.04.25.06.37h12.5v-1.25Zm97.62,63.12c-1.33,1.8-2.59,3.13-1.41,4.97.81-.37,1.62-.75,2.5-1.16v-2.43c-.2.18-.41.36-.61.55-.16-.64-.32-1.28-.48-1.93Zm-61.26,23.13q-2.19-2.21-4.34-.56c.36,1.75.75,3.64,1.16,5.63.64-.21.96-.32,1.39-.47-.58-1.57-1.12-3.06-1.66-4.5.42-.42.77-.77,1.04-1.04.61.24,1.18.46,2.41.93Zm-33.43-63.69c.97-2.07,2.2-3.46,1.37-5.56-.49,1.14-.92,2.15-1.35,3.18h-3.5c.38,2.04,2.56.83,3.48,2.38Zm175.36-45.8c-.35.36-.68.71-1.12,1.17,1.92.15,3.11,2.38,5.24,1.55v-1.81c-1.33-.29-2.58-.57-4.12-.91Zm-159.26,6.32c1.98,1.76,4.3,1.59,6.15,2.78.17-.56.27-.89.4-1.29-1.96-.7-3.49-2.58-6.55-1.49Zm80.48-90.58c-1.75,1.12-3.59,2.27-3.66,4.76h1.87c.33-.67.75-1.37,1.03-2.12.32-.86.51-1.76.76-2.65Zm-12.69.78q1.59.2,5.92-2.56h-3.41c-.66.99-2.74.64-2.51,2.56Zm-53.94,92.53c-.18-.02-.35-.03-.53-.05v7.94c.48.68,1.09,1.54,1.71,2.4.17-.1.34-.21.51-.31-.48-1.01-.95-2.03-1.69-3.58v-6.4Zm20.29-121.7c.06-.42.98-.44.46-1.09-.27-.03-.5-.05-.89-.09-.39.86-.79,1.76-1.2,2.67.64.25,1.07.42,1.5.59.11.67.23,1.35.31,1.86h2.84c-2.02-1.83-2.32-2.24-3.02-3.94Zm115.66,125.71c1.2,2.31,2.1,4.03,3.3,6.33.52-1.05.8-1.61,1.06-2.13-1.59-.56-1.54-3.31-4.36-4.2Zm-8.72,12.66c-1.62-1.01.21-3.45-1.99-4-.34,1.31-.68,2.66-1.04,4.09.51.39,1.06.81,1.62,1.24.52-.49.87-.82,1.41-1.33Zm10.91,62.63c3.32-.39,6.24.23,9.13-.59-2.07-.5-4.25.02-6.27-.99-.9-.45-1.91.02-2.86,1.58ZM80.86,49.71c-.64-1.33-1.29-2.68-1.95-4.05-1.45.96-1.21,2.2-1.06,3.42.75.96,1.62,1.48,3.01.64Zm41.37,76.35c-2.92,2.05-4.08,4.3-4.65,6.94,1.65-1.95,3.31-3.9,4.65-6.94Zm-61.67,182.34c.5.64.79,1.02,1.09,1.41,1.53-1.78.77-4.07,1.66-5.92-.25-.04-.49-.08-.95-.15-.59,1.53-1.2,3.1-1.81,4.66Zm35.77-54.07c-1.64-.83-2.74-1.23-3.64-1.89-.98-.71-1.73-1.74-3.13-2.08.93,1.27,1.87,2.55,2.91,3.97h3.87Zm-2.75-206.51v2.85c1.95.83,2.58-.83,3.67-1.74-1.21-.36-2.36-.71-3.67-1.11Zm-45.56,25.83c-.46-.93-.9-1.8-1.38-2.79-1.01.57-1.84,1.03-3.26,1.83,1.87.62,2.83,1.96,4.64.95Zm37.19-27.6c-1.01-1.59-2.31-1.22-3.75-.99.05.74.1,1.41.15,2.05,2.18.06,2.17,0,3.6-1.05Zm27.21,33.73c-1.07.44-2.12.87-3.54,1.46,1.66.59,2.84,1.03,4.04,1.44.22.08.46.08,1.01.17-.57-1.17-.98-1.99-1.51-3.07Zm-99.69,4.62c1.74-5.69,1.76-6.23.96-8.69-.32,2.89-.64,5.79-.96,8.69Zm210.89,104.06c-1.89.13-3.55.24-5.2.34.01.09.02.17.03.26.26.26.52.52.83.83h4.15c.05-.38.08-.61.18-1.44Zm-145.02,7.78c-.19-.08-.38-.15-.57-.23-.89,1.36-1.78,2.73-2.86,4.39h2.37c.34-1.34.7-2.75,1.06-4.16Zm84.04-50.22c.16-.42.29-.74.36-.93-1.01-.95-1.94-1.83-2.82-2.65-.23.19-.6.49-.54.45.93.98,1.84,1.93,2.99,3.14Zm49.47,57.66c.92,2.45,2.2,3.47,4.83,4.28-.74-2.3-3-2.44-4.83-4.28ZM38.62,74.25c1.79,1.35,2.73-.35,4.01-.54-.67-.68-1.27-1.29-1.94-1.96-.69.83-1.36,1.64-2.08,2.5Zm171.7,141.64c-.68-1.33-1.01-2.02-1.38-2.69-.42-.76-.89-1.49-1.33-2.24-.36,2.07-.12,3.8,2.72,4.93ZM77.57,92.88v-2.99h-1.91c-.42,1.66.06,2.63,1.91,2.99Zm-57.38,182.53c2.17-.41,4.07-.77,5.98-1.13,0-.08,0-.17,0-.25h-5.97v1.38Zm204.22-89.17c-.13-.66-.19-1-.33-1.68-.97.37-1.77.86-2.61.94-.77.08-1.59-.28-2.52-.47.14.55.22.88.31,1.21h5.15Zm-10.79,24.16c.61-.15,1.2-.3,1.91-.48-1.29-.93-2.2-1.65-3.19-2.26-.4-.24-.95-.23-1.89-.43,1.52,1.52,2.64,2.64,3.17,3.18Zm-48.01-72.74c-.77.17-2.22-.59-1.69,1.62,1.21-.58,2,.1,2.8.93.3.3.94.27,1.93.51-1.3-1.31-2.18-2.18-3.04-3.06ZM93.93,46.12c1.06-.99,1.79-1.67,2.57-2.39-.63-.53-1.07-.91-1.43-1.22-1.54.73-1.99,1.67-1.14,3.6ZM20.26,271.64c1.74-.17,3.42.22,5.04-.54-.83-.25-1.89.07-2.43-.32-.89-.64-1.61-.92-2.61-.42v1.29Zm119.48-97.69c2.63.16,3.63-.61,3.43-2.72-1.57.4-2.23,1.86-3.43,2.72Zm-70.46,3.28c.61-1.19.27-2.18-.78-2.74-.62-.33-1.57-.51-2.15.65,1.02.73,1.97,1.41,2.93,2.09Zm.86,132.47c-.33-2.15-.61-3.99-.89-5.83-.12.02-.24.04-.36.06v5.78h1.24Zm133.5-96.37c1.96,1.32,1.35,4.19,4.14,4.44-.96-1.65-1.8-3.09-2.63-4.53-.23.01-.47.03-1.51.09Zm-74.57-65.16c.29-1.81,2.28-3.05,1.54-5.49-.98,1.93-1.81,3.57-2.7,5.32.41.06.75.11,1.15.17Zm-46.59-96.72c-1.85.48-3.62-.66-4.86,1.84,1.72-.53,3.4.62,4.86-1.84Zm73.38,234.79c.46-1.69,1.79-2.62.82-4.18-.58.04-1.25.09-1.64.12.26,1.3.49,2.4.82,4.06ZM63.41,88.06c.67-.61,1.57-1.44.33-3.03-.64.58-1.26,1.14-2.15,1.94.78.46,1.3.77,1.82,1.08Zm88.24,193.91c-1.78,1.14-1.44,2.44-1.19,3.79h1.19v-3.79ZM61.55,18.45c2.42.08,3.48-.34,3.34-1.06-.4-.37-.81-.75-1.43-1.33-.64.8-1.11,1.38-1.91,2.38Zm23,90.83c-.87.38-1.53.67-2.52,1.1.35.89.71,1.79,1.24,3.13.51-1.69.86-2.84,1.27-4.23ZM39.12,36.73c.61-.61,1.49-1.49,2.15-2.15-2.22.04-2.31.14-2.15,2.15Zm44.1,91.04c-.13,2.8.08,3.03,2.43,2.7-.71-1.08-1.54-1.76-2.43-2.7Zm57.53,106.36v2.4c1.05-.12,1.9-.22,3.26-.37-1.35-.84-2.23-1.38-3.26-2.02Zm-25.64,9.26c-.58,1.08-.96,1.79-1.3,2.42.33.4.64.76.94,1.11.39-.39.73-.73,1.15-1.15,0-.39.04-.87-.02-1.33-.02-.19-.25-.36-.77-1.05Zm-2.21-121.12c-1.63.5-2.63,2.08-2.77,3.85,1.11-1.54,1.94-2.7,2.77-3.85Zm-55.6,64.67c1.91.25,2.3-.65,2.47-1.23-.43-.79-.7-1.28-1.04-1.89-.54,1.17-.91,1.98-1.43,3.12Zm-13.5-79.91c-.54.75-1.1,1.51-1.63,2.28-.09.13-.07.34-.11.59h1.91c.06-.39.09-.74.18-1.08.09-.36.98-.43.64-.81-.51-.51-.77-.77-.98-.98Zm-5.55-53.99c-.13-.66-.19-.99-.24-1.27-1.13-.41-1.97-.17-2.6.72-.08.11-.01.34-.01.55h2.86Zm83.1,90.5c-.49-1.53-.94-2.47-2.61-1.88.37,1.23.76,2.12,2.61,1.88Zm20.72-28.65c0,.95.1,1.56-.03,2.11-.14.59-.51,1.12-.78,1.68.17.09.34.19.52.28.58-.9,1.15-1.81,1.73-2.71-.41-.39-.75-.71-1.44-1.35Zm-49.12-74.44c.96-1.34,1.47-2.05,2.1-2.94h-2.37c.07.81.13,1.47.27,2.94Zm14.64,114.97c-.23.13-.46.25-.69.38.11.7.21,1.4.38,2.54.89-.73,1.4-1.16,1.98-1.64-.6-.46-1.13-.87-1.67-1.28Zm-36.65-89.74c0-.21-.02-.41-.02-.62-1.33,0-2.65,0-3.98.02-.09,0-.17.32-.31.6h4.31Zm54.79,52.87c-.21-.18-.43-.36-.64-.54-.56.42-1.13.84-1.61,1.2.42.52.71.89,1.13,1.42.42-.79.77-1.44,1.12-2.08Zm-28.62-51.93c.13.66.19.99.28,1.47.75-.06,1.42-.11,2.16-.17-.11-.58-.18-.91-.25-1.29h-2.2Zm-57.33-16.26v3.51c.53-.08.95-.14,1.6-.24-.52-1.05-.93-1.89-1.6-3.27Zm93.7,231.6c-.41,1.33-1.73,2.21-.74,3.94.41-1.33,1.73-2.21.74-3.94Zm-28.78-42.03c.7-.7,1.33-1.33,2.25-2.25-1.38.4-2.26.74-2.25,2.25ZM46.69,104.17h-2.77c.24.61.39,1,.65,1.67.76-.6,1.29-1.02,2.12-1.67Zm88.86-4.49h-2.75c.8.64,1.32,1.07,2.07,1.67.27-.67.43-1.05.68-1.67Zm-38.35-34.98c-.34-.34-.67-.67-1.08-1.08-.58.58-1.65.89-.92,2.09.68-.34,1.34-.67,2-1.01Zm-9.46,133.92c.82-.6,1.39-1.02,2.37-1.73h-2.68c.1.57.18.98.32,1.73Zm27.13-40.7c.31.75.46,1.13.58,1.42,1.22.07,1.52-.57,1.67-1.42h-2.25Zm-3.95,1.79c.82-.6,1.39-1.02,2.37-1.73h-2.68c.1.57.18.98.32,1.73Zm17,87.62c.77-.93,1.19-1.45,1.88-2.28-.83-.21-1.29-.32-1.88-.46v2.75Zm-4.73-93.57c.04.27.07.54.11.8.45.12.91.23,1.6.41-.06-1.02-.11-1.68-.14-2.18-.57.35-1.07.66-1.57.97Zm-5.68,94.28c.71-.97,1.13-1.55,1.73-2.37-.75-.14-1.16-.21-1.73-.32v2.69ZM54.32,73.7c-.82.6-1.39,1.02-2.37,1.73h2.68c-.1-.57-.18-.98-.32-1.73Zm65.09,173.42c1.35.34,1.81.46,2.5.64-.06-1.02-.11-1.68-.15-2.33-.62.44-1.09.78-2.36,1.69Zm-27.83-212.27c-.6-.8-1.02-1.37-1.72-2.31v2.68c.58-.13.99-.22,1.72-.38Zm109.73,186.38c.46-.25.94-.51,1.23-.67-.45-.89-.74-1.49-1.23-2.47v3.14Zm-162.26,7.49c1.43-.15,1.44-.14,2.06-1.46.05-.11-.22-.36-.08-.14-.62.5-1.31,1.06-1.98,1.6Zm104.24,1.34c.14-.74.22-1.16.33-1.73h-2.68c.96.71,1.54,1.13,2.35,1.73ZM78.03,80.73c-.31-.75-.46-1.13-.58-1.42-1.22-.07-1.52.57-1.67,1.42h2.25Zm3.4-1.43c-1.67-.07-1.68.55-1.1,1.54.39-.07.72-.14,1.1-.21v-1.33Zm-40.38,23.08c1.23,0,1.7.13,2.03-.03.41-.21.71-.66,1.05-1-.13-.15-.27-.31-.4-.46-.65.36-1.29.72-2.68,1.5Zm102.85,131.17c-.27-.98-.66-2.26-2-1.15.72.41,1.36.78,2,1.15Zm-76-55.25c.18,1.35.27,2.01.39,2.87.57-.57.9-.9,1.24-1.24-.34-.34-.67-.68-1.63-1.63Zm12.49-53.26c.33-.83,1.67-.97.71-2.46-.33.83-1.67.97-.71,2.46Zm10.83-24.74c-.07,1.67.55,1.68,1.54,1.1-.07-.39-.14-.72-.21-1.1h-1.33Zm41.8,21.89l-.39-.24c-.3.71-.61,1.42-1.02,2.37.73-.16,1.06-.23,1.41-.31v-1.82Zm-89.43-22.56c1.37-.2,2.02-.29,2.76-.4-.49-.56-.79-.91-1.1-1.27-.38.38-.72.72-1.66,1.66Zm26.62-13.61c-1.67-.07-1.68.55-1.1,1.54.39-.07.72-.14,1.1-.21v-1.33Zm46.94,55.22c-1.37.2-2.02.29-2.76.4.49.56.79.91,1.1,1.27l1.66-1.66Zm14.44-58.15c-.07,1.67.55,1.68,1.54,1.1-.07-.39-.14-.72-.21-1.1h-1.33Zm2.17,7.43c-1.67-.07-1.68.55-1.1,1.54.39-.07.72-.14,1.1-.21v-1.33Zm-24.61,53.97c.62-.4.96-.65,1.32-.85.25-.14.54-.23.81-.34l-.16-.44c-.66.05-1.32.1-1.97.16v1.47Zm18.56-53.1c-.22,0-.43.01-.65.02.06.92.12,1.83.19,2.75.15,0,.31-.02.46-.03v-2.73ZM37.24,47.74c0-.22,0-.43,0-.65-.92.06-1.84.13-2.76.19,0,.15.02.3.02.46h2.73Zm86.32,95.98v2.27c.54-.11.87-.18,1.59-.32-.51-.63-.85-1.04-1.59-1.94Zm-.55-27.54q-1.58.63-1.65,2.27c.6-.82,1.02-1.4,1.65-2.27Zm8.36-38.73q-.63-1.59-2.26-1.65c.82.6,1.39,1.02,2.26,1.65Zm58.53,204.19c-1.31-.8-1.6.3-2.23.88,1.31.8,1.6-.3,2.23-.88Zm-82.56-135.78c-.5.69-1.65.92-.84,2.31.5-.69,1.65-.92.84-2.31Zm-25.17-71.56c.14.2.28.4.41.59.38-.15.8-.26,1.15-.47.3-.19.51-.5.77-.76-.13-.16-.27-.31-.4-.47-.64.37-1.28.74-1.92,1.11Zm42.89,73.91v2.27c.54-.11.87-.18,1.59-.32-.51-.63-.85-1.04-1.59-1.95Zm-20.19,2.92v1.59c.54-.11.87-.18,1.36-.28-.11-.52-.19-.93-.27-1.31h-1.08Zm-45.69-68.4c-.17-.16-.33-.33-.5-.49-.33.06-.67.13-1.16.22.1.52.18.94.35,1.87.63-.77.97-1.19,1.3-1.6Zm60.43,75.06c1.17.21,1.73-.32,2.28-1.36-1.17-.21-1.73.32-2.28,1.36ZM14.39,74.06h.37v-2.99h-.37v2.99Zm121.62,167.9c-.53.25-1.04.48-1.55.72.09.12.18.24.26.36h1.29v-1.08Zm11.89,41.73c-.22.02-.44.04-.66.07.09.65.19,1.31.28,1.96.13-.01.25-.03.38-.04v-1.99Zm43.61.01l.07.66c.65-.09,1.31-.19,1.96-.28l-.04-.38h-1.99ZM51.65,72.38c.57-.31,1.05-.57,2.2-1.19h-2.2v1.19Zm64.43,43.77c.56-.58.93-.96,1.85-1.9-1.26.27-1.67.35-2.12.45.09.49.16.82.28,1.45Zm-69.2,122.84q-1.13-.24-.98,1.58c.47-.75.75-1.21.98-1.58Zm5.25-174.09c-.56.57-.93.96-1.85,1.9,1.26-.27,1.67-.35,2.12-.45-.09-.49-.16-.82-.28-1.45Zm80.73,179.33q-1.13-.24-.98,1.58c.47-.75.75-1.21.98-1.58Zm-18.82,30.9c-.85,1.99.04,1.76.99,1.59-.34-.55-.63-1.01-.99-1.59Zm15.37-152.61c.57-.31,1.05-.57,2.2-1.19h-2.2v1.19Zm-52.93-39.08c-1.99-.85-1.76.04-1.59,1,.55-.34,1.01-.63,1.59-1Zm-18.73,93.68c-.57-.56-.96-.93-1.9-1.85.27,1.26.35,1.67.45,2.12.49-.09.82-.16,1.45-.28Zm-3.24-99.88c-.57.31-1.05.57-2.2,1.19h2.2v-1.19Zm5.48,103.08h.37v-2.24h-.37v2.24Zm-13.37,66.76q-.12,2.03.66,1.84c-.09-.25-.29-.8-.66-1.84Zm24.48-64.06c-1.48-.53-1.81-.11-1.55.56.46-.16,1-.36,1.55-.56Zm66.11-58.29c-.85,1.99.04,1.76.99,1.59-.34-.55-.63-1.01-.99-1.59Zm-61.65-73.75c.65-.12.98-.18,1.45-.27-.6-.39-1.06-.7-1.45-.96v1.23Zm15.83,56.76h.37v-1.5h-.37v1.5Zm-15.76,201.15c.21-.01.43-.03.64-.04-.09-.42-.18-.83-.27-1.25-.12.02-.25.03-.37.05v1.24Zm52.77-209.38h-.37v1.5h.37v-1.5Zm17.2,8.23h-.37v1.5h.37v-1.5Zm-90.28,1.68v.37h1.5v-.37h-1.5Zm-9.72.75v.37h1.5v-.37h-1.5Zm14.08,65.8c-.21.01-.43.03-.64.04.09.42.18.83.27,1.25.12-.02.25-.03.37-.05v-1.24ZM16.26,65.08h-.37v1.5h.37v-1.5Zm27.71-3.87c-.01-.21-.03-.43-.04-.64-.42.09-.83.18-1.25.27.02.12.03.25.05.37h1.24Zm185.74,227.6h.37v-1.5h-.37v1.5Zm-21.74-5.36c.22-.03.43-.05.65-.08-.1-.41-.19-.81-.29-1.22-.12.02-.24.04-.36.06v1.24ZM62.94,113.09c.01.21.03.43.04.64.42-.09.83-.18,1.25-.27-.02-.12-.03-.25-.05-.37h-1.24Zm16.87,1.37h-.37v1.5h.37v-1.5Zm7.03,3.12c.03.22.05.43.08.65.41-.1.81-.19,1.22-.29-.02-.12-.04-.24-.06-.36h-1.24Zm16.19,149.4c0-.21-.02-.43-.03-.64l-1.26.28c.02.12.03.25.05.37h1.24Zm32.16-143.4l-.64.04c.09.42.18.83.27,1.25.12-.02.25-.03.37-.05v-1.24Zm-9.71,123.95c-.03-.22-.05-.43-.08-.65-.41.1-.81.19-1.22.29.02.12.04.24.06.36h1.24Zm-29.18-163.87c-.01-.21-.03-.43-.04-.64l-1.25.27c.02.12.03.25.05.37h1.24Zm-28.46,128.08h-.37v1.5h.37v-1.5Zm69.86,28.56l.03.64,1.26-.28-.05-.37h-1.24Zm27.41-96.78c-.03-.22-.05-.43-.08-.65-.41.1-.81.19-1.22.29.02.12.04.24.06.36h1.24Zm-25.93,94.54c.03.22.05.43.08.65.41-.1.81-.19,1.22-.29-.02-.12-.04-.24-.06-.36h-1.24ZM39.63,49.61v.25h.75v-.25h-.75Zm17.45,30.43h.25v-.75h-.25v.75Zm46.6,157.14h-.25v.75h.25v-.75Zm-55.08-57.37v.25h.75v-.25h-.75Zm64.3,63.1v-.25h-.75v.25h.75Zm19.69-97.77h.25v-.75h-.25v.75Zm-48.1,5.49v.25h.75v-.25h-.75Zm31.65-24.94h.25v-.75h-.25v.75Zm-28.91,124.21h-.25v.75h.25v-.75ZM53.58,68.82h-.25v.75h.25v-.75Zm101.43,184.82h.25v-.75h-.25v.75Zm-61.06,2.24h-.25v.75h.25v-.75Zm20.44,7.73v.25h.75v-.25h-.75ZM28.41,37.14v-.25h-.75v.25h.75Zm76.76,230.72h-.25v.75h.25v-.75Zm21.93-147.16v.25h.75v-.25h-.75Zm-78.5-.5v-.25h-.75v.25h.75Zm-9.97-33.42h-.25v.75h.25v-.75Zm100.93,29.18h-.25v.75h.25v-.75Zm-20.19,0h-.25v.75h.25v-.75Zm-53.58-.25v-.25h-.75v.25h.75Zm-8.72-.5h.25v-.75h-.25v.75Zm3.24-1.5h-.25v.75h.25v-.75Zm-3.74-1.5h-.25v.75h.25v-.75Zm2.74,0h.25v-.75h-.25v.75Zm34.64-17.96h-.25v.75h.25v-.75Zm-38.13,90.54h-.25v.75h.25v-.75Zm10.72-1.25v.25h.75v-.25h-.75Z"/>
      <path d="m220.49,300.09c.47-.85,1.02-1.85,1.52-2.76,2.97-.93,5.01.31,6.74,2.32.28,2.28-.32,4.18-1.99,5.86-.94.95-1.47,2.3-2.29,3.63-1.56-.8-1.69-2.58-2.35-3.9-.76-1.52-1.06-3.27-1.63-5.16Zm5.07-.67h-3.01c.45,1.86.86,3.51,1.36,5.56,1.11-.95,1.91-1.64,2.61-2.23v-2.37c-.39-.39-.74-.74-.96-.96Z"/>
      <path d="m223.71,90.17c-1.9-3.13-.81-5.65,1.87-8,.54.18,1.54.21,1.79.66,1.05,1.91,3.05,3.36,2.98,5.86,0,.25.42.5.54.63-.28.63-.52,1.16-.88,1.97-1.95-.17-4.11.52-6.29-1.12Zm5.13-1.57c-.86-1.1-1.73-2.22-2.52-3.22-1.72.95-1.21,2.23-1.17,3.7.77.29,1.62.6,2.34.87.56-.56.91-.91,1.35-1.35Z"/>
      <path d="m134.12,68.99c-1.71,1.3-3.04,2.31-4.62,3.52-.88.16-2.07.3-3.04-1.01v-5.38c.58-.3,1.19-.61,1.96-1.01,1.7,1.15,3.55,2.41,5.71,3.88Zm-5.34-.89v2.6c.89-.64,1.47-1.05,2.11-1.52-.77-.4-1.38-.71-2.11-1.09Z"/>
      <path d="m11.1,158.99c-.86,1.45-2.05,1.05-3.13,1.12-1.56-1.29-2.99-2.69-3.55-5.04.95-.1,1.85-.19,2.78-.28.42-.42.86-.86,1.34-1.34h2.56v5.55Zm-1.98-.61c-.2-1.37-.29-2.02-.4-2.76-.56.49-.91.79-1.27,1.1.38.38.72.72,1.66,1.66Z"/>
      <path d="m14.15,225.52v3.89c-.53.45-1.25,1.07-2.08,1.78-1.87-.52-3.31-1.89-4.57-3.43v-1.46c1.62-1.77,3.58-2.17,5.72-1.71.35.35.61.61.92.93Zm-2.25-.08c-1.02.75-1.6,1.17-2.23,1.64.81.68,1.33,1.38,2.23,2.03v-3.67Z"/>
      <path d="m97.9,24.65c-1.6-2.11-2.79-3.68-4.12-5.43,1.28-.83,2.24-1.45,2.86-1.86,1.83.3,3.32.54,4.89.79.18.18.44.45.86.86-1.34,1.68-2.7,3.38-4.49,5.63Zm1.62-4.18c-.96-.38-1.88-.75-2.7-1.07.56.7,1.12,1.4,1.68,2.09.23-.23.58-.58,1.02-1.02Z"/>
      <path d="m10.84,170.58h-2.25c-1.1-1.12-2.21-2.26-3.42-3.51.61-2.78,4-1.35,5.17-3.63.65.6,1.08.99,1.56,1.43v4.65c-.36.36-.71.71-1.05,1.06Zm-1.24-5.27c-.62,1.16-.88,1.65-.96,1.8.14.31.37.83.6,1.34l.37-.27v-2.87Z"/>
      <path d="m3.75,147.5v-1.2c.16-.13.33-.36.52-.4,1.96-.35,3.92-.66,6.07-1.02v5.24c-.23.23-.58.58-.96.97h-2.31c-1-1.08-2.09-2.26-3.32-3.59Zm4.28,1.71v-2.78c-.61.24-1,.39-1.67.65.6.76,1.02,1.29,1.67,2.13Z"/>
      <path d="m7.95,112.97c1.67,2.78,1.37,3.79-1.92,6.89-1.89-1.41-3.6-2.92-3.83-5.52q2.26-1.37,5.74-1.37Zm-1.34,1.23c-.9.52-1.54.89-2.46,1.41.93.5,1.58.85,2.46,1.31v-2.73Z"/>
      <path d="m113.72,40.51c3-2.29,4.92.53,7.77,1.6-2.23,1.1-2.97,3.12-4.76,4.43-2.15-1.4-3.36-3.21-3.01-6.02Zm3.78,1.82c-.17-.16-.33-.33-.5-.49-.33.06-.67.13-1.16.22.1.52.18.94.35,1.87.63-.77.97-1.19,1.3-1.6Z"/>
      <path d="m81.96,11.96c-3.37-.51-3.76-.82-4.23-3.42.59-.49,1.24-1.04,2.09-1.75,1.5-.28,3.31-.62,5.53-1.03-.55,2.74-2.28,4.32-3.4,6.2Zm-.96-2.26h.25v-.75h-.25v.75Z"/>
      <path d="m16.39,48.52h-3.02c-.75-1.77-1.51-3.55-2.43-5.7,2.09-.38,4.01-.07,5.06-.15,1.29.87,2.09,1.41,3.02,2.03-1.02,1.49-1.88,2.74-2.63,3.82Zm-2.56-4.6c-.12.19-.23.38-.35.57.47.68.93,1.37,1.62,2.37.53-.8.85-1.29,1.28-1.96-.75-.29-1.65-.64-2.55-.99Z"/>
      <path d="m125.31,62.9c-1.52-1.47-2.87-2.76-2.65-4.77.08-.75.61-1.45,1-2.33,2.03.7,3.77,1.31,5.59,1.94v2.01c-1.19.95-2.5,2-3.94,3.16Zm-1.13-3.26h2.26c-.11-.54-.18-.87-.32-1.59-.63.51-1.04.85-1.94,1.59Z"/>
      <path d="m6.34,97.29c-3.03-.54-3.55-3.52-5.7-4.89.44-.35.82-.65,1.37-1.08h5.16c1.63,2.21,1.54,2.83-.83,5.97Zm-1.79-3.04c1.67.07,1.68-.55,1.1-1.54-.39.07-.72.14-1.1.21v1.33Z"/>
      <path d="m9.57,71.18c1.94,2.34.4,4.02-.8,5.8h-2.73c-.77-1.47-1.57-3-2.41-4.59.35-.4.67-.75,1.07-1.21h4.87Zm-2.43,3.72c.3-.03.59-.07.89-.1v-2.34c-.54.11-.87.18-1.4.28.19.79.35,1.47.51,2.15Z"/>
      <path d="m10.86,240.19c-1.23-1.23-2.27-2.27-3.35-3.35v-1.45c.12-.13.29-.45.42-.43,1.27.15,2.27-.52,3.22-1.14,1.18-.77,2-.46,2.8.48.4,4.35-.09,5.32-3.09,5.89Zm-1.18-4.14c1.06.18.25,2.47,2.16,1.7v-2.75c-.79.38-1.46.71-2.16,1.05Z"/>
      <path d="m75.91,1.5c.53.53.79.79.87.87-.72,2.06-1.4,3.99-2.21,6.32-1.69-1.11-3.05-2.01-4.32-2.84.44-3.08,2.05-4.25,5.66-4.34Zm-3.17,3.41q1.13.24.98-1.58c-.47.75-.75,1.21-.98,1.58Z"/>
      <path d="m12.89,203.9c-.35,1.55-.68,3.03-1.05,4.68h-3.06c-.87-.88-1.8-1.81-2.77-2.8.68-2.45,3.24-2.11,5.04-3.27.55.42,1.01.76,1.84,1.39Zm-3.92,2.41h1.59c-.11-.54-.18-.87-.27-1.36-.52.11-.93.19-1.31.27v1.08Z"/>
      <path d="m105.14,30.02c-1.49-1.15-2.88-2.22-3.96-3.05-1-2.73,1.18-3,2.35-3.66,1.33-.74,2.71.28,4.05.87-.22.99-.31,2.04-.7,2.97-.4.96-1.08,1.8-1.74,2.88Zm-1.74-5q.63,1.59,2.26,1.65c-.82-.6-1.39-1.02-2.26-1.65Z"/>
      <path d="m18.74,37.33c-.35-2.24-.68-4.31-1.04-6.59,3.2-.35,4.58,1.76,6.21,3.25v1.56c-1.35,1.35-2.89,2.1-5.17,1.77Zm3.3-2.48c-.6-.8-1.02-1.37-1.72-2.31v2.68c.58-.13.99-.22,1.72-.38Z"/>
      <path d="m56.69,4.19c.59-1.3,1.25-2.74,1.91-4.19h1.87c.95,1.47,2.01,3.12,3.01,4.66-.34.7-.64,1.31-.96,1.98h-3.92c-.4-.52-.99-1.28-1.9-2.45Zm4.17,1.19c.19-.21.39-.43.58-.64-.41-.82-.82-1.64-.9-1.8-.59.14-1.23.28-2.36.54,1.37.97,2.03,1.44,2.68,1.9Z"/>
      <path d="m91.11,15.68h-3.4c-.52-.8-1.1-1.69-1.65-2.55.28-.49.55-.98,1.06-1.87,1.21-.37,2.86-.87,4.64-1.41.42.48.99,1.12,1.55,1.75-.66,1.22-1.37,2.53-2.2,4.07Zm-2.25-1.87c.95-.29,2.29-.68,1.13-2.01-.4.72-.76,1.37-1.13,2.01Z"/>
      <path d="m9.11,56.52c-.36-1.39-.67-2.61-1.05-4.1,2.71-.12,5.17-.43,7.12,2.17-.93,1.31-1.85,2.62-2.59,3.67-2.1.41-2.7-.99-3.48-1.73Zm2.48-.43c.35-.35.7-.7,1.05-1.05-.31-.43-.63-.87-.96-1.32-.55.59-.87.93-1.19,1.27.39.4.75.75,1.1,1.1Z"/>
      <path d="m111.69,37.84c-1.65-1.17-2.89-2.05-3.83-2.71-.81-2.67,1.38-2.75,2.42-3.65,1.59.32,3.2.65,5.17,1.05-1.24,1.74-2.38,3.36-3.77,5.31Zm.46-4h-1.59c.11.54.18.87.27,1.36.52-.11.93-.19,1.31-.27v-1.08Z"/>
      <path d="m8.9,123.78v3.87c-.8.37-1.52.7-2.54,1.17-1.38-1.6-2.8-3.27-4.42-5.15,2.23-.37,4.06-.73,5.91-.93.3-.03.68.65,1.05,1.04Zm-2.67,1.9h.25v-.75h-.25v.75Z"/>
      <path d="m7.97,251.37c2.1-1.95,4.42-1.42,6.8-1.46v4.29c-.8,1.27-2.05.97-3.32.86-1.13-1.19-2.28-2.42-3.48-3.69Zm4.68-.08c-.65.12-.98.18-1.45.27.6.39,1.06.7,1.45.96v-1.23Z"/>
      <path d="m11.84,177.07c-.66.66-1.18,1.18-1.7,1.71-.24.01-.55.13-.71.02-1.8-1.22-3.46-2.58-4.42-5,2.08-.42,3.97-.81,5.66-1.15.53.53.79.79,1.18,1.18v3.24Zm-3.97-2.44c.6.8,1.02,1.37,1.72,2.31v-2.68c-.58.13-.99.22-1.72.38Z"/>
      <path d="m44.89,13.04c-1.36,1.4-2.6,2.75-4.82,2.64-.25-.22-.61-.54-1.09-.96-.57-2.42,1.09-4.34,1.62-6.77,2.35,1.07,2.73,3.39,4.29,5.09Zm-3.58-.17c.28-.09.84-.28,1.25-.41-.45-.56-.74-.92-1.25-1.55v1.97Z"/>
      <path d="m5.45,216.13c2.37-1.18,4.28-2.13,6.43-3.2.58.67,1.38,1.17,1.52,1.82.38,1.77-.55,3.17-1.89,4.57-1.81-.95-3.67-1.93-6.06-3.19Zm4.56-.59c.24.53.48,1.04.72,1.55.12-.09.24-.18.36-.26v-1.29h-1.08Z"/>
      <path d="m9.6,132.42c.16,4.45-.29,5.31-2.27,5.82-1.64-1.38-3-2.53-4.36-3.67q3.38-2.12,6.63-2.14Zm-2.24,1.11c-.71.97-1.13,1.55-1.73,2.37.75.14,1.16.21,1.73.32v-2.69Z"/>
      <path d="m5.01,59.83c2.78.04,4.7,1.31,6.82,2.1v2.88c-1.39,1.54-1.42,1.5-3.08,1.76-2.4-1.38-2.6-4-3.74-6.75Zm5.66,3.29c-.77-.42-1.42-.78-2.56-1.41.18,1.25.28,1.96.44,3.1.9-.71,1.43-1.13,2.12-1.69Z"/>
      <path d="m7.85,242.44h5.28c.5.64,1.1,1.4,1.9,2.42-.23.63-.58,1.59-.93,2.53-.76.35-1.48.68-2.36,1.09-1.81-1.49-2.94-3.42-3.88-6.04Zm4.73,4.09v-2.68c-.57.11-.99.2-1.72.35.6.81,1.02,1.38,1.72,2.34Z"/>
      <path d="m3.87,86.45c-.35-1.4-.66-2.62-1.02-4.02h5.78c.23.44.54,1.05.88,1.71-.77,1.34-.72,3.34-2.59,4.14-1.66-.3-1.68-.27-3.06-1.82Zm3.95-2.48h-2.98c.64.89,1.05,1.47,1.58,2.21.5-.78.86-1.35,1.4-2.21Z"/>
      <path d="m126.49,50.96c-.48,2.86-3.6,1.49-4.02,3.56h-2.82c.49-1.69-2.11-3.23.29-5.05,2.28-.69,4.15,1.2,6.55,1.49Zm-3.99,1.27c-.03-.22-.05-.43-.08-.65-.41.1-.81.19-1.22.29.02.12.04.24.06.36h1.24Z"/>
      <path d="m4.91,194.81c2.43-.44,4.57-.83,6.91-1.26v4.47c-.67.85-1.46,1.45-2.91.63-1.6-.91-2.93-1.94-4-3.84Zm4.68.59c-.22.03-.43.05-.65.08.1.41.19.81.29,1.22.12-.02.24-.04.36-.06v-1.24Z"/>
      <path d="m23.93,21.1c2.39,1.83,4.28,3.27,6.74,5.15-1.25.64-2.13,1.09-3.01,1.54.15.25.3.49.46.74-.9-.16-2.14-.02-2.62-.56-.79-.89-1.21-2.18-1.53-3.37-.23-.89-.05-1.89-.05-3.5Zm2.24,4.57v.25h.75v-.25h-.75Z"/>
      <path d="m4.1,185.99c2-.62,3.54-1.1,4.82-1.49.52.52,1.07,1.07,1.62,1.63.19-.15.37-.29.56-.44v2.61c-.52.52-1.13,1.14-1.83,1.83-2.11-.63-3.63-2.05-5.17-4.13Zm4.57,1.59q.24-1.13-1.58-.99c.75.47,1.21.76,1.58.99Z"/>
      <path d="m50.68,5.4c.19,1.22.33,2.14.45,2.95-.43.42-.99.98-2.02,1.99,0,0-.82,0-1.74,0-.25-.25-.6-.6-.95-.95-.24-2.2-.08-4.27,2.15-5.85.78.68,1.57,1.37,2.12,1.85Zm-1.4,1.61c-.53.25-1.04.48-1.55.72.09.12.18.24.27.36h1.28v-1.08Z"/>
      <path d="m37.31,17.81q-.19,1.62-2.8,3.13c-.72-.32-1.45-.64-2.27-1.01v-5.66c.52-.03,1.1-.06,1.77-.1,1.04,1.15,2.11,2.33,3.31,3.64Zm-3.55-1.77v2.69c.56-.1.98-.17,1.73-.3-.6-.82-1.02-1.4-1.73-2.39Z"/>
      <path d="m2.19,103.3h5.07c.35.54.88,1.36,1.6,2.46-.34.61-.96,1.71-1.53,2.71-.71,0-1.21,0-1.7,0-1.45-1.4-3.05-2.68-3.45-5.18Zm4.65,1.88c-.17-.16-.33-.33-.5-.49-.33.06-.67.13-1.16.22.1.52.18.94.35,1.87.63-.77.97-1.19,1.3-1.6Z"/>
      <path d="m130.09,263.13v2.13c-.59.56-1.21,1.15-1.87,1.77h-2.37c-.24-.6-.45-1.12-.78-1.92.34-.59.82-1.44,1.47-2.58,1.18.2,2.38.4,3.54.6Z"/>
      <path d="m104.67,254.39h2.64c.54.59,1.12,1.21,1.72,1.85-.24.4-.51.87-1.03,1.76-.45.2-1.37.61-1.97.88-2.26,0-2.64-1.73-1.36-4.49Z"/>
      <path d="m130.09,263.37v-3.74c.75-.23,1.5-.46,2.36-.72.65.66,1.37,1.4,2.27,2.31-.26.6-.57,1.32-.93,2.15h-3.7Z"/>
      <path d="m120.58,262.79c.87.28,1.64.53,2.72.89.4.4.15,1.73-.97,3.37h-3.33v-2.67c.52-.52,1.13-1.13,1.58-1.58Z"/>
      <path d="m68.57,131.67c-.66,0-1.53,0-2.4,0-.41-.71-.82-1.41-1.26-2.18-.77.38-1.45.72-2.33,1.15.51.72.98,1.39,1.71,2.42.43,3.45-1.96,6.43-3,10.1-3.05-2.61-3.73-5.75-3.79-9.18-2.44,1.7-4.73,3.3-7.23,5.04-.09-.2-.3-.62-.5-1.05-.19.07-.38.13-.58.2.5-3.35,1.01-6.71,1.5-10,1.48-.51,2.67-.92,3.87-1.33-.26-.28-.5-.55-.87-.96.52-.96,1.07-1.98,1.65-3.06h1.97c.48.48,1.1,1.1,1.73,1.73v2.28c-.68.65-1.4,1.33-1.99,1.9.26,1.24.49,2.34.74,3.53.89-.57,1.81-1.16,2.64-1.69-.38-.71-.76-1.43-1.18-2.21.4-1.04.83-2.17,1.27-3.33h2.66c.41.37,1.02.92,1.7,1.54,1.03-.34,2.03-.66,3.46-1.14.41.77.88,1.65,1.34,2.53.18-.16.36-.33.53-.49v2.26c-.5.58-1.04,1.21-1.66,1.94Zm-16.85,3.36c2.12-1.24,3.53-2.57,4.63-4.67-.74-.08-1.2-.08-1.63-.2-.5-.14-.96-.4-1.07-.45-.86.62-1.56,1.12-2.12,1.52.07,1.33.12,2.39.19,3.8Zm8.38,4.05c1.93-1.11,1.5-3.4,2.82-5.2-1.06-.34-1.91-.62-2.71-.88-.47.99-.82,1.71-1.06,2.22.35,1.42.65,2.64.96,3.86Zm8.67-10.84c-1.31-.8-1.6.3-2.23.88,1.31.8,1.6-.3,2.23-.88Zm-7.26.13q1.13.24.98-1.58c-.47.75-.75,1.21-.98,1.58Zm-4.95-2.69h-.25v.75h.25v-.75Z"/>
      <path d="m74.36,124.15c1.19.87,2.35,1.71,3.39,2.46v2.88c-.29.29-.78.79-1.09,1.1,1.05.89,2.24,1.89,3.21,2.7v7.59c-1.45-.69-2.68-1.27-4.07-1.92-.48-.92-1.06-2.05-1.76-3.41v-2.73c.47-.5.96-1.02,1.71-1.81-.85-.04-1.43-.07-2.07-.1-.61-1.18-1.25-2.39-1.9-3.64.18-1.41,1.4-2.1,2.58-3.12Zm2.28,9.02c-.35.35-.7.7-.98.98.55,1.15,1.06,2.29,1.66,3.38.08.15.63.05,1.08.07v-2.67c-.53-.53-1.15-1.15-1.76-1.76Zm-1.13-4.55c.07-1.67-.55-1.68-1.54-1.1.07.39.14.72.21,1.1h1.33Z"/>
      <path d="m69.61,131.64c1.41.57,2.03,1.9,2.64,3.17.24.5.45,1.31.21,1.72-1.15,1.98-1.07,4.28-1.78,6.5-1.83-.56-2.91-2.05-3.84-3.35-.9-1.25-1.08-3.01-1.6-4.63q1.12-2.08,4.37-3.41Zm-1.28,7.61c1.98-.46,2.04-1.64,1.95-2.9-.04-.57-.08-1.13-.11-1.58h-3.05c.43,1.58.81,2.97,1.21,4.48Z"/>
      <path d="m57.57,93.14l2.54-2.54c1,0,2.08,0,3.16,0,2.47,3.79.12,6.49-3.67,8.74-1.35-1.34-1.98-3.19-2.03-6.2Zm4.46-.67c-.71.56-1.48,1.17-2.3,1.81.13.53.25,1.04.5,2.05,1.31-1.48,2.12-2.55,1.8-3.86Z"/>
      <path d="m50.56,34.99c-.32-.83-.55-1.43-.81-2.11,2.6-3.46,6.64-4.32,11.36-3.55.73.69,1.42,1.91,2.99,1.17-.53-.35-1.08-.71-1.22-.8v-3.15c.81-1.51,2.12-1.12,3.48-1.09.51.83,1.07,1.72,1.69,2.71-.84.95-1.74,1.96-2.79,3.14.35,2.48.76,5.35,1.14,8.01,1.09.32,1.8.53,3.31.97-2.85,1.31-4.93,1.86-7.37,1.52-.34-.4-.78-.94-1.55-1.86,1.36-.18,2.25-.3,3.33-.44v-3.56c-1.35.69-2.64,1.36-4.52,2.33-2.13-.19-4.88-.44-7.46-.68-.78-.82-1.37-1.45-1.98-2.08.24-.32.51-.68.25-.74,2.31-.89,4.31-1.17,6.04-2.01,1.11-.54,1.72-.46,2.87-.15,1.55.42,3.15,1.91,4.98.66-1.29-.97-6.01-2.83-7.08-2.6-2.51.54-4.69,1.73-6.66,4.31Zm7.26,1.69c-1.19-1.94-2.55-1.59-4.8-1.25,2.05.53,3.26.85,4.52.03.01.17.03.34.04.51,1-.09,2.01-.18,3.1-.27-.15-.59-.23-.91-.37-1.45-1,.44-1.89.83-2.48,2.44Z"/>
      <path d="m80.86,33.84c-.45,2.55-3.04,2.16-4.24,3.57-3.45-.31-7.36,1.09-10.01-2.68,1.86-2.27,4.88-2.17,7.36-3.25,2.2.75,4.47,1.53,6.9,2.36Zm-4.93,1.68c-1.18-.38-1.98-.72-2.81-.88-.9-.17-1.83-.16-3.26-.27,2.07,1.48,3.77,1.91,5.63.19.01.22.02.43.03.65.49-.1.97-.19,1.46-.29-.02-.16-.04-.32-.06-.48-.48.04-.96.08-1,1.08Z"/>
      <path d="m72.13,43.38c-1.02,2.01-1.84,3.63-2.64,5.19h-6.07c-1.15-1.16-2.28-2.29-3.51-3.53v-1.79c1.43,1.72,2.77-.07,3.86.25,1.31.39,2.36-.11,3.52-.11,1.46,0,2.92,0,4.84,0Z"/>
      <path d="m77.9,181.33c-1.18-.37-2.16-.67-3.09-.95v-2.64c.82-.83,1.44-2.16,3.4-1.87.44.54,1.05,1.28,1.88,2.28.35,1.32-1.14,1.93-2.19,3.18Zm-.39-3.27h-.25v.75h.25v-.75Z"/>
      <path d="m119.49,154.03c-1.76.25-3.68.89-5.5.68-1.38-.16-2.62-1.41-3.99-2.21v-3.37c.7-1,1.45-2.06,2.13-3.02,1.22-.22,2.25-.4,3.6-.64,1.57.78,4.05.75,5.35,3.41v3.31c-.49.58-1.03,1.2-1.59,1.85Zm-5.42-7.04c-1.06,1.49-1.86,2.63-2.67,3.76.64.64,1.25,1.25,1.86,1.86h4.22c.83-.7,1.55-1.32,2.39-2.04-.35-.75-.48-1.7-.94-1.92-1.44-.67-3.01-1.06-4.87-1.67Z"/>
    </g>
  </g>
</svg>
