<?xml version="1.0" encoding="UTF-8"?>
<svg id="Layer_2" data-name="Layer 2" xmlns="http://www.w3.org/2000/svg" viewBox="0 0 299.62 90.96">
  <style>
    @import url(../css/art.css)
  </style>
  <g id="Layer_1-2" data-name="Layer 1">
    <g>
      <path d="m299.62,42.77c-2.05.77-4.2.62-6.27.41-.9-.09-1.84-.49-2.79-.4-.94.09-1.85.38-2.79.46-.99.08-2-.06-2.99.04-.68.07-1.43.24-1.97.61-2.5,1.76-5.69,2.47-7.65,5.06-.53.69-1.37,1.13-1.98,1.78-.61.65-1.05,1.39-1.98,1.77-.78.32-1.41,1.01-2.1,1.54-.7.53-1.35,1.13-2.1,1.57-1.82,1.06-3.32,2.65-5.35,3.33-1.84.62-3.4,1.81-5.28,2.32-.21.06-.38.37-.58.39-1.76.19-3.52.41-5.28.49-1.83.08-3.71.28-5.47-.05-1.78-.34-3.63-.34-5.33-.96-1.29-.47-2.52-1.2-3.66-1.98-1.19-.81-2.24-1.81-3.45-2.81.25-.37.47-.68.71-1.03.43.13.86.41,1.23.34.43-.08.8-.46,1.2-.7.4-.24.86-.41,1.19-.72.29-.29.43-.73.87-1.53.27.81.4,1.19.57,1.71-.9.69-1.77,1.36-2.82,2.17.42.39.78.76,1.18,1.08.37.3.78.54,1.03.71.32-.33.7-.7,1.07-1.07.08.09.16.17.24.26.27-.8.55-1.6.81-2.37h1.16c.06.19.24.45.17.61-.34.77-.76,1.51-1.12,2.27-.2.42-.32.86-.51,1.38.84.31,1.57.58,2.15.79.8-1.48,1.51-2.81,2.31-4.29.44.33.75.57,1.05.79-.18,1.36-1.73,2.24-1.27,3.84h2.34c.25-.93.5-1.9.8-3.02.42.23.8.45,1.08.61-.14.84-.27,1.57-.41,2.4h3.54v-3.33c.4-.03.62-.05.84-.06.26,1,.52,1.96.77,2.91h3.06c-.22-.46-.31-.81-.53-1.07-.36-.43-.79-.8-1.3-1.32.34-.38.6-.67.85-.94,1.11.86,2.21,1.72,3.47,2.7.45-.7.76-1.2,1.08-1.7-.7-.83-1.26-1.48-2.01-2.36.64-.13,1-.2,1.53-.31.51.63,1.04,1.29,1.66,2.06,1.19.19,2.31-.22,3.28-1.51-.9-.71-1.74-1.38-2.62-2.07.24-.49.47-.94.74-1.49,1.18.54,1.9,1.44,2.42,2.57h1.3c.59-.48,1.09-.88,1.63-1.32-.22-.3-.31-.56-.48-.63-.85-.35-1.82-.52-2.29-1.76.32-.16.7-.34,1.13-.55.39.26,1.04.7,1.89,1.26h2.39c.22-.21.39-.39.72-.72-.64-.52-1.27-1.02-1.91-1.53,1.17-1.92,2.72.42,4.29-.41.38-.38,1.31-.79,1.07-2.02-.49-.5-1.05-1.07-1.88-1.91.77-.15,1.25-.41,1.56-.28.71.3,1.34.8,2.16,1.32.41-.24.99-.57,1.64-.94-.35-.71-.68-1.36-1.1-2.21.53-.1.95-.17,1.35-.24.52.52.99.99,1.61,1.6.28-.49.56-.98,1.01-1.75-.05-.2-.21-.91-.48-2.03.67.32,1.07.4,1.28.64.35.41.57.92.87,1.43,4.87-1.61,9.85-.48,14.97-.95,0-.96.08-2.02-.02-3.06-.09-.92-.37-1.82-.59-2.82-1.6,0-3.17-.04-4.73.01-2.1.07-4.08-.51-6.07-1.02-.93-.24-1.75-.74-2.36-1.52-.27-.35-.67-1.91-.7-2.91,1.3-.97,2.7-2.01,4.06-3.03h9.03c-.38-2.51-.75-4.91-1.1-7.24-3.56-.94-7.11-.39-10.56-.78-2.86-.32-5.74-.05-8.52-.51-2.21-.37-4.4-.59-6.54-.34-6.58.77-13.19.13-19.76.53-1.92.12-3.93.05-5.77.49-2.37.57-4.71.23-7.05.43-1.02.09-2.02.38-3.04.47-.98.08-1.98.02-3.11.02.15,1.37.28,2.68.44,3.99.16,1.34.41,2.68.47,4.02.06,1.28.66,2.44.57,3.77-.09,1.31.22,2.65.36,4.05h-1.21c-.7-1.43-.69-3.01-.73-4.62-.02-1.09-.3-2.18-.47-3.27-.17-1.09.39-2.27-.47-3.29-.16-.19,0-.64-.03-.97-.16-2-.09-4.06-.55-6-.71-2.98-1.08-5.95-.9-9.19-3.65,2.13-6.98,4.27-9.54,7.36-.61.74-1.07,1.76-1.22,2.7-.37,2.27-.8,4.61.72,6.7,1.26.53,2.34.11,3.43-.42.45-.22.97-.27,1.58-.43.05,1.78-1.88,1.39-2.11,2.56-.58,0-1.08-.06-1.56.02-.45.07-.87.29-1.36.46-.42-.2-.91-.43-1.33-.63-.21-1.29-.5-2.52-.6-3.78-.1-1.23.03-2.49-.04-3.73-.09-1.71.63-3.12,1.77-4.24,2.28-2.25,4.31-4.77,7.44-6.07,1.35-.56,2.38-1.9,3.74-3.03.19.64.6,1.27.5,1.79-.49,2.39-.55,2.38.04,5.07.02.08,0,.17,0,.25-.09,1.78,0,3.53.89,5.45,1.7,0,3.84.37,5.78-.09,2.71-.64,5.37-.22,8.05-.4,2.34-.16,4.65-.68,7.03-.54,2.4.15,4.89.4,7.22-.06,3.2-.62,6.37-.29,9.54-.39,3.16-.1,6.37-.37,9.47.07,3.94.56,7.89,0,11.77.5,2.34.3,4.67.27,6.96.45.23,1.97.21,3.94.75,5.75.46,1.54.32,3,.45,4.59h-9.44c-.99.51-1.68.86-2.57,1.31-.18.69-.41,1.58-.64,2.42,2.14,1.15,4.33,1.4,6.46,1.79,2.19.4,4.3-.76,6.44-.45.23.22.4.4.57.57.25,2.07.49,4.12.76,6.36h.88v1.99Z"/>
      <path d="m140.38,0c.76.44,1.02.52,1.9.6.47.69.96,1.4,1.49,2.18.22,1.39.46,2.87.72,4.47-.57.5-1.12.98-1.62,1.42-.05.81.21,1.6-.87,2.27-1.52-.05-3.34-.07-4.98.95-.42.26-1.28.26-1.69,0-1-.63-2.03-.38-3.15-.46-.49-.56-1.03-1.18-1.76-2.02.03-.49-.27-1.39.25-2.13-.33-.97-.67-1.97-.97-2.86.78-.77,1.36-1.36,1.97-1.96.16-.49.24-1.06.54-1.48.28-.4.77-.65,1.18-.97h3.99c.63.67,1.37.67,2,0h1Zm-2.33,2.31c-.77-.22-1.8-.5-2.66-.75-.78.26-1.43.48-2.22.74.04,1.44-2.08,1.74-1.77,3.41.96.06.96,1.03,1.42,1.5-.52.6-1.04,1.2-1.46,1.68,1.07,2.41,2.82-.13,3.96.68.09.38.15.6.2.83,1.37.12,2.54-.01,3.1-1.44,1.07-.31,2.43,1.56,3.27-.48-.2-.39-.4-.8-.64-1.28.58-.38,1.09-.7,1.76-1.13-.44-.31-.84-.59-1.1-.77-.2-1.23,1.43-2.46-.56-3.39-.83.1-1.84.22-3.3.4Z"/>
      <path d="m173.33,54.47c0-.96,0-1.95,0-2.94,0-1.03-.07-2.02-.45-3.04-.65-1.76-1.05-3.62-1.08-5.5-2.01-3.32-3.9-6.69-5.54-10.27-1.66,1.44-2.88,3.09-4.67,4.11-1.62.93-3.16,1.99-4.77,2.94-.66.39-1.4.86-2.11.87-2.1.03-4.17,1.5-6.29.14-3.31.23-5.32-2.14-7.62-3.86-1.05-.79-1.88-1.87-2.85-2.78-.45-.42-1.01-.74-1.62-1.18.51-1.19,1.55-2.08,2.57-2.8,1.89-1.34,3.8-2.72,6-3.55,1.02-.38,2.03-.78,3.18-.79,1.01,0,2.02-.37,3.04-.44,1.08-.08,2.16-.02,3.24-.02.44,0,3.42.76,3.83,1,1.67.97,3.46,1.68,5.23,2.44,1.34.58,2.16,1.78,3.42,2.41.14.07.14.42.25.78,1.38-.86,2.77-1.43,4.52-1.09,1.34.59,2.51,1.61,3.21,3.42v7.26c-.64.45-1.34.95-2.01,1.43,1.26,3.85,2.41,5.89,1.05,14.17.67.67,1.29,1.3,1.98,1.98.81-.49,1.74-1.05,2.72-1.64.26,1.61.21,1.9-.8,2.11-.52.11-.94.23-1.24.64-.13.17-.15.43-.21.62.88.8,1.54-.08,2.23-.26.71-.19,1.34-.7,2.19-1.17v1.62c-.41.05-.81.1-1.2.14-.53.53-1.06,1.06-1.63,1.63.42.33.85.66,1.41,1.1,1.25-.09,2.16-1.97,3.97-1.77.12.98-.44,1.18-1.03,1.5-.83.44-1.57,1.06-2.31,1.64-.12.1-.05.43-.09.91,1.69-.57,3.25-1.09,4.87-1.64q-.19,1.06-.92,1.79c-1.18.34-2.08.6-2.91.84-.19.94.03,1.57.95,1.93,1.06-.19,2.16-.92,3.58-.31-.21.28-.35.64-.59.74-.63.27-1.31.43-2.16.7.23.66.43,1.22.66,1.86,1.29-.95,2.48-1.54,4.03-1.54-.31,2.27-2.79,1.41-3.6,2.93.34.6.72,1.27,1.14,2.02,1.07-.54,2.06-1.05,3.26-1.66.07.6.13,1.04.19,1.52-1.2.49-2.34.95-3.69,1.5.45.55.88,1.1,1.32,1.64,1.06-.8,2.07-1.57,3.17-2.4.22.25.5.57.75.85-1.13,1-2.14,1.89-3.06,2.71-.09.95.11,1.58.8,1.78.75-.75,1.43-1.44,2-2.01.83.1,1.27.15,2.05.24-.64.73-1.04,1.21-1.47,1.67-.45.48-.92.93-1.47,1.47.71.43,1.38.83,2.26,1.35.37-.91.71-1.72,1.08-2.62h1.13c.04.23.14.47.09.68-.16.67-.39,1.32-.64,2.14h2.09c.03-.57.06-1.13.1-1.76.36-.23.75-.48,1.38-.87.05,1.04.09,1.83.12,2.68h1.92v-1.85c.4,0,.77-.08.83.01.34.6.6,1.24.88,1.83,1.01.37,2.19-.45,3.06.56q2.45-1.47,3.26-3.02c-.29-.55-.57-1.09-.82-1.57-.73-.32-1.37-.82-2-.82-1.27.02-2.59-.4-3.85.32-.31.18-.88-.05-1.33-.14-.38-.07-.76-.2-1.32-.35-2.03-1.5-2.81-3.75-2.65-6.37.11-1.76.36-3.51.47-5.27.04-.61,0-1.19-.31-1.85-.6-1.31.26-2.55.74-3.56-.16-.85-.55-1.62-.35-2.2.37-1.08.45-2.41,1.86-3.01h3.83c-.02.07-.05.15-.07.22.88.28,1.82.44,2.61.87,1.58.85,3.32,1.22,4.97,1.87,1.58.61,3.23,1.09,4.9,1.41.98.19,1.96.14,3.05-.24,1.33-.46,2.56-1.08,3.81-1.66,1.49-.69,1.89-2.23,2.42-3.6.54-1.38.49-2.44-.15-3.74-.76-1.52-1.46-3.11-2.5-4.42-1.33-1.69-3.23-2.75-5.2-3.64-.82-.37-1.85-.49-2.14-1.53.77-.65,1.44-1.31,2.2-1.86.82-.59,1.82-.96,2.55-1.63.68-.62,1.11-1.51,1.66-2.29-.11-.11-.28-.28-.54-.54-2.49-.03-4.62-1.38-6.88-2.37-2.11-.92-4.22-1.85-6.37-2.69-1.93-.75-3.92-1.38-5.88-2.06-.95-.33-1.95-.54-2.84-.96-.92-.44-1.84-.76-2.82-1.05-2.04-.61-3.99-1.61-5.91-2.58-2.4-1.22-5.03-1.93-7.38-3.28-.31-.18-.88.11-1.22-.06-.44-.21-.77-.66-1.5-1.33,1.35-.08,2.22-.13,2.83-.16,2.9,1.11,5.28,2.76,8.06,3.51.15.04.33.03.45.11,2.46,1.65,5.39,2.24,8.04,3.48,1.32.62,2.77.94,4.17,1.37,2.13.67,4.23,1.4,6.22,2.45,1.07.57,2.37.69,3.52,1.14,1.72.67,3.28,1.68,5.11,2.12,1.19.28,2.33.78,3.46,1.27.76.32,1.46.79,2.25,1.22-1.61,2.6-4.07,3.88-6.41,5.44.84,1.39,2.11,1.99,3.17,2.73,2.44,1.71,3.99,4,5.05,6.7.03.07-.01.17,0,.25.19.91,1.21,1.55.98,2.57-.29,1.28-.69,2.53-1.07,3.78-.39,1.31-1.59,1.88-2.56,2.64-.79.62-1.65,1.15-2.57,1.78.31.45.48.7.75,1.1-.34.7-.73,1.53-1.17,2.43-1.25.55-2.48,1.59-4.24,1.07-.06-.36-.14-.82-.18-1.07-.41.41-.9.89-1.1,1.1h-4.32c-.04-1.16,1.05-1.43,1.42-2.15v-1.15c-.23-.05-.44-.16-.53-.09-.72.47-1.43.98-2.01,1.39h-2.81c.18-.96.35-1.85.52-2.74-1.34,1.18-2.82,1.78-4.4,2.43-.53-2.04.42-4.18-.86-6.02h-2.14c-.23.96-1.27,1.78-.2,2.83.21.2.19.9,0,1.2-.97,1.54-.2,3.17-.57,5,1.15-.22,2.04-.39,3.01-.57v2.28c-.45.48-1.26.94-.74,2.18.23-.2.41-.37.7-.63.36.24.74.5,1.13.77-.49,1.58-.74,3.16-1.7,4.71h1.55c.83-.77,1.16-2.33,2.93-2.4.42,1.42.84,2.88,1.26,4.29.96.45,1.86.88,3,1.42.17.87.38,1.94.48,2.47-.73,2.62-3.08,2.76-4.26,4.24h-3.46c-1.11,1.28-.52,3.29-2.03,4.44h-1.28v-2.86c-.9,1.19-1.51,2-2.16,2.86h-1.69c-.28-.79-.55-1.59-.84-2.43-.78.56-1.02,1.69-2.12,1.91-.57-1.49-1.42-2.94-1.12-4.64-1.44-1.07-2,1.35-3.45.58-.1-1.24-.18-2.68-1.24-3.77-.66.53-1.31,1.06-2.08,1.69-.8-2.41.93-4.49.03-6.83-.29.24-.51.46-.77.62-.59.35-.17,1.5-1.37,1.51-.04-.38-.11-.75-.12-1.12-.04-1.6.08-3.19-.46-4.78-.43-1.25-.5-2.62-.75-4.01-1.04.63-1.48,1.67-1.87,2.75-.41.2-.82.4-1.23.6-.05-.09-.18-.23-.18-.36-.01-1.57.03-3.15-.03-4.72-.02-.43-.34-.85-.52-1.28-.79.4-1.46.74-2.31,1.17-.38-2.83.31-5.63-1.01-8.28-1.15.87-2.29,1.72-3.29,2.48-2.11.25-4.11.48-6.17.72-.13.13-.3.3-.57.57v3.6c-.33.79-.46,1.14-.62,1.49-1.49,3.26-1.56,3.17-4.87,5.93-1.4,1.16-2.97,1.66-4.57,2.25-.72.27-1.36.75-2.09.96-1.42.41-2.87.71-4.32,1.01-4.48.94-9.01.34-13.52.49-.37.01-.73-.24-1.11-.3-1-.17-1.89-.69-2.96-.73-.88-.04-1.76-.52-2.61-.87-.93-.37-1.82-.83-2.74-1.22-2.46-1.03-4.01-2.91-5.27-5.2-.97-1.77-1.96-3.49-2.44-5.46-.16-.68-.37-1.34-.61-2.16-2.97-1.51-5.71-3.5-7.61-6.5-1.79-2.81-3.29-5.69-3.16-9.14-.24-.23-.47-.47-.72-.71h-2.14c-.5-.88-1.03-1.82-1.54-2.72-.31-4.08-.33-8.07,3.75-10.59.51-.18,1.09-.39,1.83-.65.38.33.84.74,1.39,1.23.39-.59.59-1.12.97-1.44.54-.46.4-1.01.5-1.56.09-.52.37-1,.48-1.3.69-.56,1.29-.96,1.79-1.45,3.34-3.26,3.56-3.53,7.78-4.69,1.46-.4,3.1-.17,4.65-.22.69.92,1.7.27,2.49.54,1.69.82,3.35,1.63,5.01,2.44.35.17.76.28,1.01.55,1.15,1.22,2.38,2.33,4.08,2.74.14-.27.35-.68.52-1-1.16-1.75.85-3.4-.02-5.18h1.44c-.1,1.32-.27,2.56-.29,3.81-.04,3.4-.06,6.8,0,10.19.02,1.26.38,2.51.46,3.77.08,1.32.06,2.65,0,3.98-.02.51-.29,1.01-.62,2.08-.44-.98-.8-1.43-.83-1.89-.08-1.49-.03-2.98-.03-4.47,0-1.74.08-3.49-.02-5.22-.1-1.58-.39-3.15-.6-4.73-.91.04-1.23.78-1.73,1.41-1.88,2.34-4.25,4.1-7.1,5.09-1.25.43-2.6.58-3.91.81-1.88.33-3.68-.42-5.53-.51-.44-.02-1-.19-1.27-.5-.96-1.13-2.54-1.22-3.57-2.36-.87-.96-2.33-1.38-3.54-2.05-.54,1.4-.98,2.77-1.27,4.25-.31,1.56-.88,3.12-1.19,4.71-.51,2.61-.94,5.24-.69,7.91.14,1.56,2.18,5.77,3.35,7.06,2.1,2.33,4.47,4.34,7.61,5.08,2.36.55,4.78,1.46,7.2.27,1.31-.64,2.68-.44,3.67-.48.85-.44,1.38-.81,1.96-.99,2.18-.65,3.73-2.14,5.12-3.81.59-.71.95-1.6,1.47-2.52-.12-1.76,1.07-3.58.39-5.58h-6.48c-.78-.54-1.56-1.08-2.49-1.72.22-.93.44-1.82.63-2.63,1.46-.66,2.79-1.26,4.36-1.97.06.89.11,1.5.16,2.2h-2.07c-.78.49-1.37.87-2.02,1.28.49.46.91.85,1.38,1.3,1.24,0,2.57-.05,3.9.02.86.04,1.79-.37,2.57.45.2.21.81.08,1.21.02.85-.13,1.69-.38,2.54-.47.8-.08,1.61-.02,2.39-.02.03-.37.04-.53.06-.74-.33-.16-.66-.32-1.13-.54.27-.42.52-.8.76-1.18h1.77c.23.86.49,1.79.7,2.58-1.98,2.1-4.34,1.08-6.52,1.44-.24,1.54-.49,3.09-.66,4.18.34.82.46,1.18.64,1.52,1.7,3.35,2.61,3.64,6.27,5.73.72.41,1.56.72,2.37.87,1.41.27,2.84.39,4.27.55,1.51.17,3.02-.17,4.57.42.84.32,2.09.44,3.07-.27.23-.16.62-.14.93-.13,2.33.04,4.59-.32,6.83-.97.69-.2,1.49-.03,2.38-.03.5-1.48,2.89-.82,3.19-2.72,1.45-.71,1.23-2.59,2.5-3.48Zm-28.25,23.06c1.81-1.2,3.9-1.4,5.68-2.14-.83-1.11-1.68-2.24-2.71-3.62.75-.09,1.19-.14,1.62-.18.87,1.2,1.68,2.33,2.46,3.4,1.07-.55,2.14-1.1,3.22-1.65-.75-.94-2.36-.96-2.48-2.47.24-.23.48-.46.72-.7,1.03.78,2.07,1.57,2.98,2.26.59-.73,1.17-1.43,1.73-2.12-.41-.41-.76-.76-1.11-1.11-.45-.07-.9-.13-1.59-.24.34-.76.6-1.32.87-1.94.87.82,1.56,1.6,2.8,1.61v-1.36c-.43-.32-.97-.71-1.54-1.13.35-.51.61-.89.87-1.26.56.38.81.55,1.16.78v-1.88c-.28-.25-.52-.46-.83-.73-1.69.85-3.49.62-5.26.58-.68-.01-1.35-.41-2.04-.45-1.77-.1-3.52-.08-5.29-.45-2.27-.47-6.14-1.97-7.74-3.61-1.05-1.08-2.02-2.23-3.01-3.35-.91,2.66-3.17,3.99-5.38,5.41-2.74,1.75-5.76,2.4-8.95,2.47-1.9.04-3.79,0-5.68,0-.09,1.82-.01,2.05,1.12,3.44.94.32,1.32-.45,1.92-.84.31-.2.87-.04,1.3-.04v1.34c-.38.03-.77.06-1.07.08-.42.51-.81.99-1.24,1.51.38.95.76,1.48,1.48,1.98,1.14-.97,2.18-2.14,4.08-2.53-.92,1.92-2.39,2.77-3.94,3.83,1.22.77,2.34,1.47,3.38,2.12.48-.44.91-.83,1.32-1.19-.26-1.51,1.13-1.86,1.84-2.97.58,2.11-1.66,3.22-1.29,5.13,1.11.3,2.24.61,3.5.96v-3.9c.55.04,1,.08,1.62.13-.95,1.41-.65,2.8-.67,4.14.25.25.49.49.73.73,1.15,0,2.32-.06,3.47.02,1.18.08,2.36.33,3.54.48,2.87.36,5.66-.55,8.41-.54Zm3.58-38c2.94.47,5.84.13,8.31-1.76,1.13-.87,2.36-1.48,3.66-2.02,1.94-.8,2.82-2.75,4.43-4.05-2.5-1.98-5.54-2.53-7.92-4.31-1.84.06-3.6-.81-5.5-.56-1.83.24-3.68.38-5.54.57-2.64,1.49-5.26,3.05-7.31,5.35.73.95,1.21,1.92,1.99,2.51,1.29.97,2.79,1.68,4.17,2.54.28.18.42.57.54.75,1.11.34,2.14.66,3.17.98Zm-39.72-7.88c2.44,1.46,4.54,3.51,7.11,4.48,1.58.24,2.99.61,4.41.62,1.41,0,2.83-.34,4.21-.53,2.65-1.54,5.56-2.73,7.3-5.41-1.56-2.25-3.76-3.44-6.11-4.47-2.59-1.13-5.28-1.79-8.09-1.43-1.34.17-2.79.6-3.89,1.35-1.8,1.22-3.36,2.8-4.93,4.16v1.24Zm-5.98,2.76c-.94,1.14-2,2.43-2.69,3.26-.36,1.47-.84,2.41-.74,3.28.11,1,.59,1.96.36,3.2.76.46,1.55.94,2.57,1.56-.01-.04.08.24.3.88.45-1.72.74-3.16,1.21-4.52.55-1.57,1.22-3.07,1.01-4.8-.04-.31.32-.67.5-1.01-.6-.88-.66-2.33-2.52-1.86Zm65.29-1.44c.32,1.28.63,2.33,1.27,3.37.54.88,1.41,1.59,1.55,2.83.1.89.76,1.92,1.94,2.13.1-.08.22-.13.22-.19,0-2.2,0-4.41,0-6.41-.83-.83-1.58-1.58-2.49-2.49-.7.21-1.58.48-2.5.76Zm8.83,35.65c.4-.78.79-1.56,1.16-2.3-.58-.91-1.13-1.77-1.85-2.88v4.5c.19.19.43.43.68.68Zm24.3-9.29c-.25.27-.42.45-.48.51v2.56c.85-.49,1.58-.79,2.13-1.29.27-.24.21-.84.3-1.27-.72-.19-1.3-.35-1.95-.52Zm-4.79,17.03c.43-1.28,2.27-1.54,1.57-3.2-1.01-.13-1.96-.24-2.44,1.04.25.62.51,1.26.87,2.16Zm-1.81,9.56c-.83.12-1.42.21-2.11.31.54,1.06.96,1.9,1.34,2.65.48-.4.92-.76,1.44-1.19-.21-.54-.4-1.04-.67-1.76Zm-21.37-26.24c-.11,1.39-.32,2.75.69,3.96.23-.23.46-.46.69-.69.14-1.18.13-2.33-.73-3.27h-.65Zm32.37,1.25c0,.98-.14,1.53.04,1.95.16.38.68.6,1.11.93.56-.65,1.02-1.19,1.62-1.89-.99-.36-1.75-.63-2.77-1Zm-25.01,14.67c1.41-2.84,1.38-3.13-.32-4.93-.6,1.59.6,2.91.32,4.93Zm30.04-9.76c.75-.75,1.3-1.26,1.79-1.81.14-.15.13-.43.2-.7-.66-.25-1.27-.49-1.99-.77v3.28Zm4.45-2.52q.04,1.73,1.5,1.74c0-.3-.05-.61.01-.89.08-.31.27-.6.19-.44-.19-.57-.29-.86-.33-.97-.54.22-.89.36-1.38.57Zm-12.41,14.21c-.39-.49-.59-.74-.75-.93-.8.6-1.53,1.16-2.27,1.71.07.1.13.21.2.31.91-.35,1.81-.7,2.82-1.09Zm-11.34,8.07h-1.82c.31.74.56,1.34.95,2.25.34-.88.58-1.48.88-2.25Zm4.28-14.74c.09.08.18.16.27.25.45-.51.9-1.02,1.42-1.6-.37-.38-.64-.65-.95-.97-.28.88-.51,1.6-.74,2.33Zm-8.56,13c-.16-.39-.26-.77-.47-1.09-.18-.28-.47-.49-.72-.74-.08.07-.16.13-.24.2.24.76.48,1.52.73,2.32.24-.24.42-.42.7-.69Zm-3.05-4.35v-1.51c-.36.07-.58.12-1.06.21.34.42.57.69,1.06,1.29Zm13.29,6.44c-.12.31-.19.41-.17.44.24.38.49.75.74,1.12.06-.06.13-.1.17-.17.3-.58-.2-.82-.5-1.15-.05-.06-.11-.11-.24-.24Z"/>
      <path d="m48.18,35.98c-1.39.62-2.98.02-4.22.82-1.28-.67-2.67-.46-4.21-.51-1.61-1.14-3.61-2.12-5-3.65-1.92-2.11-3.29-4.68-4.18-7.44-.19-.59-.18-1.31-.53-1.76-.89-1.14-.28-2.04.26-3.05,2.22,0,4.46-.05,6.7.02.93.03,1.85.37,2.79.46.91.08,1.92-.22,2.72.07,1.15.42,2.19,1.17,3.21,1.88,1.82,1.27,3.22,2.89,4.05,4.99.54,1.36,1.82,2.34,1.95,3.93.05.68.33,1.35.51,2.02,1.92-1.17,4.11-1.65,6.16-2.47,2.01-.8,3.96-1.7,6.31-2.11-1.94-3.1-3.83-6.11-7.07-7.71-1.33-.66-2.7-1.57-4.33-1.58-.23,0-.54-.03-.67-.17-1.15-1.25-2.86-.63-4.24-1.24-.9-.4-2.13-.01-3.21-.09-.94-.07-1.85-.37-2.79-.46-1.06-.1-2.35.27-3.14-.22-.98-.59-2.07.15-3-.72-.44-.41-1.85-.41-2.38-.01-1.58,1.17-2.49-.15-3.72-.43v-1.76c-1.19-1.42-3.34-1.47-3.83-3.51-1.75.84-2.08,2.33-2.21,3.8-.14,1.56-.07,3.15,0,4.72.02.52.3,1.03.48,1.53.64,1.89.92,3.88,1.84,5.71.36.71.06,1.74.06,2.78-1.44.19-2.56-.67-3.54-1.43-1.19-.93-2.47-1.69-3.71-2.52-.46-.31-.96-.58-1.34-.96-1.95-1.93-4.02-3.76-5.33-6.25-.15-.28-.86-.32-.92-.57-.27-.98-1.42-.89-1.84-1.69-.39-.74-.99-1.38-1.61-2.22-.46.62-.73,1.19-1.18,1.53-.4.31-1.02.33-1.5.57-1.1.55-2.18,1.16-3.35,1.79-.02.27-.04.58-.07,1.01.86.55,1.83,1.04,2.65,1.72,2.05,1.69,3.08,3.93,3.38,6.55.13,1.09.54,2.12.52,3.28-.03,1.77-.4,3.42-1,5.07-.35.94-.35,2.01-.54,3.01-.06.29-.25.56-.43.93.62.22,1.27.27,1.94-.1.87-.48,1.7-.45,2.54.58-.27.08-.58.17-.88.26l.26.34h-1.85c-1.05.54-1.81.93-2.56,1.31v.99c.24.24.47.47.77.77,1.34-.33,2.63-1.29,4.4-.91-.33.56-.55.94-.71,1.21-1.47.26-2.8.49-4.17.73-.72,1-1.09,1.99-.36,3.35.49.91.36,2.15.51,3.29.44.38.88.75,1.34,1.15.77-.37,1.53-1.17,2.84-.73-.27.49-.48.87-.71,1.28-.61.03-1.17.06-1.87.09-.22.45-.45.93-.74,1.52.6.44,1.12.83,1.59,1.17.64-.25,1.49-.57,2.62-1.01-.62,1.73-2.11,1.85-3.23,2.7.56.6,1.04,1.11,1.67,1.78.78-.46,1.49-.89,2.34-1.4.62,1.87-1.83,1.42-1.8,2.72.47.46.96.96,1.47,1.47.79-.51,1.55-1.01,2.44-1.59v1.44c-.55.36-1.2.8-2.01,1.34.59.4,1.11.75,1.76,1.2.06-.08.25-.35.55-.76.59-.14,1.19-1.08,2.08-.58-.65.64-1.32,1.31-2.16,2.15.69.75,1.21,1.3,1.62,1.74.81-.81,1.5-1.5,2.22-2.21.47.44.7.65.92.86-.15,1.14-1.29,1.38-1.89,2.07.58.59,1.16,1.19,1.71,1.76h1.52c.94-.71.97-2.29,2.49-2.49.09.18.19.38.27.53-.51,1.16-2.06,1.52-2.05,2.71.76.76,1.39,1.38,1.97,1.96.51-.71.67-1.79.51-2.97.37-.29.73-.57,1.08-.84.23.21.44.31.44.42.02,1.45-.51,2.83-1.44,3.88.55,1.1,1.72,1.27,2.84,1.71.42-1.2.87-2.48,1.35-3.85.13,0,.35-.02.63-.03.52,1.38-.43,2.42-.64,3.93.44.41,1.1,1.03,1.86,1.75.72-.87.28-1.72.45-2.5.2-.19.44-.43.67-.66,1.8.87.01,2.08.29,3.1.97.83,2.1.99,3.53.71-.09-.35-.18-.68-.33-1.28.09-.18.31-.63.67-1.38.43,1.24.78,2.23,1.12,3.23h2.54c-.11-.63-.2-1.2-.32-1.91.1-.2.32-.61.69-1.34.32,1.05.56,1.86.85,2.82.62.73,1.36.75,2.28-.35v-2.41c.64.39,1.03.62,1.26.76.28,1.17.52,2.16.74,3.12-.87.78-1.85.9-2.91.86-1.25-.05-2.5-.04-3.74,0-1.54.05-3.01-.1-4.43-.77-.48-.23-1.1-.22-1.65-.22-1.15,0-2.12-.47-3.07-1.03-.33-.19-.7-.31-1.05-.47-2.62-1.22-5.21-2.46-7.41-4.43-1.83-1.64-3.89-3.03-5.84-4.52-.06-.04-.15-.04-.21-.08-.31-.21-4.76-5.51-4.94-5.92-1.05-2.47-2.58-4.71-3.41-7.3-.36-1.12-.34-2.29-.75-3.41-.3-.84-.02-1.88-.54-2.77-.15-.25-.16-.75,0-.96.76-1.03.39-2.19.47-3.29.17-2.17.28-4.34.53-6.5.09-.74.43-1.49.8-2.15,1.55-2.75,1.44-5.56.4-8.4-.53-1.44-1.17-2.83-1.66-4.03-1.76-1.62-4.03-2.35-5.17-4.46.96-1.25,2.21-1.9,3.46-2.57.62-.33,1.13-.87,1.75-1.2.77-.41.7-1.48,1.71-1.81.86-.28,1.53-1.11,2.29-1.69.69-.53,1.5-.97,2.05-1.61.44-.51,1.31-.37,1.5-1.33.1-.5,1.09-.81,1.65-1.25.81-.64,1.58-1.33,2.29-1.93,1.16.62,1.5,2.21,2.89,2.02,1.72-1.29,3.25-2.57,4.93-3.63,1.02-.64,2.24-1.07,3.43-1.32,1.07-.23,2.25.11,3.29-.52.16-.09.51-.02.68.1,1.07.78,2.58.01,3.56,1.04.69.72,1.47,1.35,2.06,2.14,1.27,1.71,1.88,3.7,1.46,5.82-.26,1.32-.76,2.67-1.66,3.78-.29.36-.6.71-1.12,1.31.67.1,1.02.18,1.38.21,1.73.14,3.42.51,5.12.87,1.11.24,2.3.15,3.45.11,2.1-.06,4.07.5,6.08.98,2.51.61,4.83,1.62,7,2.98.26.16.63.17.84.37,1.11,1.1,1.74,2.67,3.32,3.33.19.08.21.54.3.79.4,0,.88.14,1.04-.02,1.49-1.57,3.49-1.65,5.44-1.98.82-.14,1.61-.52,2.4-.82,1.07-.39,2.13-.8,3.4-1.29,0,.61.17,1.15-.03,1.36-.76.83-.94,1.77-1.02,2.85-.03.37-.69.7-1.34,1.31-.08-1.2-.38-1.97.59-2.81-.82,0-1.53-.21-2.01.04-2.32,1.19-5.43.61-7.05,3.05.21.62.4,1.2.65,1.95,1.07-1.05,2.51-.73,3.78-1.05,2.72-.67,5.56-.81,8.14-2.06,1.99.37,3.61-1.2,5.57-1.05.41.03.86-.31,1.29-.47,2.76-1.01,5.73-1.28,8.46-2.46,1.84-.79,3.82-1.23,5.78-1.75.93-.24,1.71-.04,2.5-.31.46,1.39-.87,1.4-1.19,1.45-2.71.44-5.19,1.55-7.77,2.37-2.81.89-5.74,1.39-8.57,2.23-1.11.33-2.26.45-3.36.9-1.35.55-2.87.69-4.3,1.06-.82.21-1.61.51-2.35.99-.91,0-1.91-.24-2.71.05-1.64.59-3.34.77-5.01,1.17-.88.21-1.71.62-2.55,1.08,1.75-.03,3.51.68,5.23-.26.28-.16.8-.04,1.15.11,1.25.52,2.47.53,3.71,0,.28-.12.62-.16.93-.15,2.17.07,4.24-.43,6.34-.92,1.66-.39,3.48-.05,5.22-.09,1.13-.03,2.26-.17,3.38-.25,1.05-.08,2.37.21,3.08-.32,1.03-.77,2.28.13,3.2-.86.31-.33,1.27-.05,1.96-.05.43.87.23,1.63-.26,2.44-.88,1.45-1.39,3.06-2.43,4.49-1.05,1.43-2.14,2.79-3.36,4.07-.48.51-1.1.87-1.32,1.7-.13.5-.9.87-1.43,1.22-.98.63-2.07,1.1-2.98,1.81-.94.74-2.09.54-3.1.98-.98.43-2.25.89-3.18.62-2.55-.76-5.46.09-7.76-1.73-.43-.34-.99-.52-1.36-.9-2.24-2.23-4.6-4.33-6.23-7.11-.4-.69-1.01-1.52-2.1-1.69-.3.73-.3,1.36.04,2.07,1.02,2.17,1.08,4.66,2.25,6.78-.33,1.74.93,3.16.99,4.81.06,1.67.8,3.17,1.09,4.79.24,1.35.34,2.46.04,3.86-.32,1.47-.63,3.24.29,4.78.08.13.1.31.08.46-.31,2.82,1.52,4.55,3.16,6.25,1.38-.28.28-2.42,2.02-2.4,1.37,1.38-1.39,1.89-.4,3.37.28.13.87.41,1.63.76v-1.81c.5-.48.92-.88,1.34-1.28.7.93.07,1.75-.32,2.59.26.28.48.51.75.8h2.31v-3.14c.65.35,1.03.55,1.47.79v2.81h2.97c-.19-.88-.37-1.7-.56-2.61.48-.31.91-.58,1.53-.98v2.86c.32.31.56.54.79.76h2.7c.5-1.28-1.47-2.64.42-3.89.21.39.66.83.63,1.22-.08.89.49,1.48.8,2.37.73-.24,1.45-.49,2.27-.76-.21-1.09-.41-2.13-.6-3.11.95-.56,1.27.15,1.53.54.47.7.75,1.51,1.11,2.27.89-.29,1.63-.52,2.5-.8-.37-.76-.73-1.51-1.24-2.56.26-.23.6-.54,1.08-.97.82.87,1.06,1.73,1.18,2.71h1.71c.19-.19.42-.42.67-.66.17-.76-1.1-1.34-.24-2.25,1.28-.06,1.21,1.71,2.69,1.78,0,0,.31-.17.64-.27.29-.08.61-.08,1-.12-.12-.36-.13-.63-.27-.79-.49-.54-1.18-.98-.67-1.97,1.71-.79,1.62,1.22,2.52,1.79.64-.33,1.3-.66,2.17-1.1.07.6.13,1.03.2,1.63-1.5.69-2.9,1.68-4.45,1.97-2.46.47-4.79,1.32-7.12,2.12-.88.3-1.69.39-2.55.44-1.37.77-2.83,1.18-4.37,1.55-2.94.71-5.89.58-8.79.35-3.23-.26-6.65-.28-9.46-2.39-.3-.23-.76-.28-1.01-.55-1.87-2-3.17-4.36-3.17-7.11,0-1.88-.7-3.65-.56-5.51-.71-.92-1.49-.95-2.56-.51-2.63,1.1-5.54,1.4-8.13,2.67-1.63-.14-3.05.65-4.56,1.05-.22.06-.5.06-.67.19-1.23.95-2.71,1.42-4.29,2.13,2.53,2.74,5.86,4.23,8.58,6.66,1.45-.56,2.45,1.1,3.95.99,1.41-.1,2.83-.02,4.24-.02,1.47-.91,3.11-1.25,5.19-1.58-.43.7-.56,1.26-.89,1.39-.78.33-1.63.64-2.46.64-1.04,0-1.81.45-2.89,1.07-2.1-.2-4.45-.45-6.77-1.01-1.36-.33-2.32-1.27-3.42-1.98-1.85-1.2-3.68-2.46-5.36-3.89-.76-.65-1.43-.63-2.18-.58-1.75,2.77-4.3,5.11-4.33,8.87-.34.02-.73.04-1.07.05-.68-1.32-1.21-2.7-2.04-3.87-1.09-1.54-1.86-3.18-2.48-4.96-.54-1.54-.37-3.02-.14-4.52.13-.9.65-1.75.78-2.65.11-.74.2-1.34.74-1.96.41-.47.45-1.3.57-1.98.35-2.09,1.77-3.61,2.85-5.29,2.19-3.4,4.67-6.58,7.75-9.23.89-.76,1.83-1.46,2.67-2.47-.07-.14-.06,0-.05.15.33-.06.65-.13.98-.19l-.04-.32c-.32.03-.64.05-.8.64Zm11.52-3.89c-2.22.87-4.19,1.54-6.07,2.4-2.34,1.07-4.47,2.51-6.59,3.98-.87.6-1.75,1.18-2.38,1.99-.67.86-1.66,1.28-2.35,2.19-1.86,2.45-3.61,4.96-5.25,7.55-.91,1.44-1.43,3.05-2.07,4.61-.76,1.84-.64,3.83-1.41,5.63-.12.28-.16.82,0,.96.88.74.25,1.72.47,2.38,1.13,1.82,1.55,4,3.66,4.94.23-.94.24-1.27-.46-1.53-1-.38-.94-1.16-1.33-1.99,1.6-.14,2.22,1.22,3.29,1.53.45-.7.84-1.31,1.26-1.96-.46-.61-.96-1.13-1.3-1.74-.26-.46-.35-1.05.44-1.51.74.73,1.46,1.44,1.95,1.92.62-.39,1.11-.71,1.49-.94-.1-1.26-1.55-2.04-.79-3.33,1.32.09,1.61,2.19,3.2,1.34.53-1.12-1.27-2.17-.11-3.31,1.37-.06.95,1.6,2.22,2.06.34-.16.9-.42,1.55-.72-.48-.48-.77-.77-1.13-1.13.05-.71.11-1.47.19-2.56,1.27,1.08,1.43,2.37,2.19,3.5.53-.21,1.1-.44,1.56-.62-.36-1.09-.65-1.98-.97-2.95h1.45c.29.83.56,1.63.81,2.35h1.4c-.24-.93-.45-1.75-.65-2.52.28-.35.51-.65.74-.94.26.26.41.35.48.49.14.27.23.57.33.86.35,1.09.37,1.1,2.02,1.03-.31-.92-.61-1.81-.92-2.73.33-.25.65-.47.98-.72.54,1.15,1.01,2.18,1.57,3.37.94-.39,1.68-.7,2.45-1.02-.61-1-.93-1.83-.17-3.05.66,1.12,1.19,2.01,1.79,3.01.83-.24,1.57-.45,2.43-.7-.2-.83-.33-1.44-.49-2.04-.21-.74-.59-1.46-.64-2.21-.18-2.44-1.49-4.6-1.64-7.03-1.27-1.21-1-2.96-1.27-4.42-.31-1.69-.72-3.36-1.13-5.03-.1-.43-.45-.79-.79-1.36Zm3.85.89c.47.69.85,1.4,1.37,1.98,1.73,1.95,3.55,3.83,5.27,5.79,2.14,2.42,5.09,2.99,8.03,3.49,2.42.41,4.66-.49,6.92-1.3,1.23-.44,2.56-.73,3.17-1.86.45-.83,1.18-1.32,1.63-2.06.45-.74,1.01-1.29,1.75-1.72,1.26-.73,1.3-2.37,2.32-3.25,1.14-.99,1.36-2.33,1.85-3.8-.86.22-1.6.56-2.34.57-3.35.03-6.66.88-10.02.53-.41-.04-1-.18-1.22.02-.95.9-2.06.29-3.07.46-1.09.18-2.19.43-3.29.48-4.08.21-8.2-.45-12.38.67ZM37.56,6.77c-.51-.55-1.03-1.07-1.5-1.63-.46-.55-1.68-1.36-2.31-1.67-2.31-1.13-4.5-.1-6.71.31-1.82.34-3.16,1.61-4.69,2.54-1.09.66-1.7,1.44-2.19,2.47.16.15.27.27.39.39-1.46.82-2.87,2.65-3.43,4.73-.26.97-1.04,2-.5,2.99.55,1.02.29,2.04.49,3.04.29,1.44.51,3.03,1.79,3.96,1.92,1.41,3.97,2.64,6.19,4.09-.03-.65.09-1.12-.09-1.41-.6-.96-.52-2.1-.92-3.1-.43-1.07-.85-2.11-1.08-3.3-.8-3.99-.59-5.53,1.08-8.63.18-.34.34-.79.64-.96,2.35-1.39,4.64-3.03,7.38-2.61.89.88,1.65,1.64,2.42,2.4v2.86c-.64.88-1.25,1.72-2.11,2.89,3.04-1.13,4.52-3.18,5.75-5.88-.17-1-.39-2.25-.6-3.48Zm5.05,15.66c-2.33-.31-4.89.42-7.35-.53-.36-.14-.97-.19-1.21.01-.9.76-2.03.25-2.96.59-.01.26-.07.45-.02.58.86,2.21,1.6,4.48,2.96,6.47.8,1.16,1.72,2.14,2.89,3.05,1.39,1.08,3.14,1.48,4.29,2.61,3.65.72,6.42-1.22,9.34-2.68-1.47-4.28-3.37-8.17-7.93-10.11ZM16.65,6.78c-2.61,1.77-5.04,3.67-7.04,5.96v1.28c1.75,1.99,3.47,3.93,5.28,5.99.43-1.03.77-1.92.75-2.99-.01-.92-.45-1.97.4-2.79.14-2.17,2.05-3.56,2.42-5.41-.6-.67-1.14-1.28-1.8-2.03Zm12.87,2.66c-.91.46-1.67.84-2.58,1.3,1.6,1.12,3.13,2.19,4.62,3.23.69-.4,1.3-.76,1.93-1.13v-2.2c-.38-.4-.78-.81-1.17-1.21h-2.81Z"/>
      <path d="m273.11,24.86c.03.43.05.75.08,1.18-1.28,1.12-2.7,2.19-3.9,3.47-1.5,1.6-3.16,3-5.1,3.98-1.57.79-3.31,1.23-4.98,1.81-2.54.88-5.18.34-7.44.5-1.32-.62-2.34-1.17-3.42-1.57-1.02-.38-1.58-1.67-2.9-1.42-1.79-1.95-4.47-2.05-6.82-3.24.58-.85.87-1.86,1.94-2.34.28-.13.51-.43.71-.69,1.52-1.95,3.78-2.77,5.85-3.91.81-.44,1.88.24,2.44-.75,1.79.14,3.46-.77,5.28-.53,1.14.15,2.34.13,3.48,0,1.25-.14,2.38.29,3.53.57,1.02.25,2.23.28,2.94,1.31,2.23.35,4.18,1.83,6.56,1.64.56-.05,1.13,0,1.76,0Zm-2.97,1.91c-.81-.43-1.26-.71-1.74-.9-.36-.14-.8-.07-1.16-.21-1.21-.49-2.36-1.13-3.59-1.54-1.77-.6-3.53-1.29-5.46-1.25-1.16.03-2.34.13-3.48-.02-2.06-.27-3.99.54-6.02.59-1,.02-2.11.59-2.95,1.2-1.61,1.18-3.07,2.57-4.65,3.91.5.26.85.43,1.19.61,1.77.93,3.53,1.87,5.31,2.8.61.32,1.29.53,1.87.89,1.42.9,2.91,1.52,4.62,1.46,1.44-.05,2.86-.21,4.29-.38,2.05-.24,3.63-1.34,5.41-2.05,1.13-.45,2-1.57,2.99-2.38.98-.81,1.98-1.6,3.37-2.72Z"/>
      <path d="m206.77,35.9v1.21c-.2.06-.49.05-.63.19-2.15,2.31-4.73,4.16-6.9,6.46-.97,1.03-2.37,1.66-3.57,2.48-.2.13-.39.27-.67.46h-7.26c-.6-.34-1.11-.72-1.68-.95-1.65-.67-3.3-1.18-3.84-3.27-.26-1-1.13-1.85-1.7-2.77-.25-.39-.68-.82-.65-1.2.08-.93-.28-1.7-.58-2.51-.3-.79-.65-1.56-.86-2.38-.14-.54-.11-1.14-.09-1.7.08-1.93-.19-3.79-.99-5.56-.09-.21-.01-.49-.01-.78.22-.2.47-.42.78-.68,2.08-.42,3.65.93,5.33,1.87.5.28.89.67,1.51.58.16-.02.38-.07.49,0,1.9,1.37,4.36,1.59,6.22,3.05,1.67,1.31,3.79,1.7,5.74,2.39,3.12,1.11,6.28,2.08,9.38,3.1Zm-2.13.62c-1.09-.2-1.71-.35-2.33-.43-2.02-.26-3.8-1.28-5.73-1.83-1.83-.52-3.63-1.32-5.28-2.26-1.49-.85-2.99-1.57-4.56-2.25-1.24-.54-2.6-.9-3.76-1.83-1.07-.85-2.63-1.08-4.12-1.64,0,.74-.15,1.35.03,1.84.56,1.57,1.02,3.16.91,4.83-.08,1.24.33,2.34.84,3.39.74,1.52,1.75,2.92,2.42,4.47.76,1.75,1.89,2.87,3.64,3.69,1.08.51,2.06.76,3.19.75,1.74-.02,3.48,0,5.15,0,1.69-1.34,3.4-2.55,4.93-3.95,1.56-1.43,3.1-2.91,4.68-4.79Z"/>
      <path d="m105.78,20.78h-1.52c1.41-2.73,4.03-3.84,6.2-5.28,2.08-1.39,4.39-2.77,7.14-2.57,2.69-1.27,5.38.09,8.07.04,1.93,1.1,3.88,2.22,5.84,3.31.83.46,1.93.39,2.65.79,1.08.6,1.83-.14,2.65-.08,2.93.21,5.02-1.66,7.37-2.76,1.23-.58,2.51-.96,3.73-1.2,1.62-.32,3.22-.71,4.82-1,1.43-.26,3.02-.44,4.54.36,1.3.68,2.89.52,4.31,1.01,2.01.7,3.73,1.9,5.46,3.05.79.53,1.18,1.64,1.8,2.45.36.47.81.86,1.43,1.51v1.04c-.56-.15-1.2-.13-1.51-.43-.73-.72-1.55-1.52-1.86-2.44-.29-.88-.93-.95-1.48-1.35-1.98-1.46-4.18-2.25-6.55-2.89-1.7-.46-3.32-.98-5.1-.91-2.94.11-5.72.89-8.39,2.02-1.98.84-3.87,1.9-6,2.97-1.02.11-2.34-.3-3.56.46-.29.18-.99.18-1.19-.03-.77-.82-1.74-.21-2.56-.5-1.41-.81-2.81-1.63-4.23-2.43-2.84-1.61-5.91-2.43-9.14-1.92-1.11.18-2.29.41-3.42.71-1.83.49-3.3,1.69-5.08,2.2-.14.04-.24.21-.37.31-1.4,1.22-2.81,2.44-4.08,3.55Z"/>
      <path d="m106.26,25.48c1.05-2.52-.65-2.81,10.46-8.57.3,0,.71.04,1.11,0,3.18-.35,6.07.83,9.02,1.69,1.78.51,3.09,1.77,4.63,2.67,1,.58,1.9,1.33,2.97,2.1-.22.3-.5.67-.9,1.22-1.26-.84-2.61-1.53-3.67-2.51-2.21-2.04-5.09-2.65-7.75-3.55-1.64-.55-3.7-.42-5.43-.01-1.75.41-3.38,1.47-4.97,2.4-.98.57-1.9,1.19-2.55,2.35-.55.98-1.91,1.52-2.92,2.25Z"/>
      <path d="m165.49,25.26c-.68.3-1.17.52-1.58.7-2.94-2.07-5.77-4-8.83-5.53-.66-.33-1.41-.62-2.27-.56-1.57.1-3.14.03-4.41.03-.96.44-1.68.72-2.36,1.09-.55.3-1.13.61-1.54,1.05-1.27,1.36-2.77,2.39-4.44,3.28-.1-.12-.26-.31-.51-.6.09-.28.08-.82.35-1.03,1.8-1.4,3.66-2.72,5.49-4.07,1.11-.82,2.49-.96,3.73-1.16,3.31-.53,6.51.14,9.35,1.95,1.97,1.25,3.79,2.73,5.9,3.77.35.17.59.57,1.11,1.08Z"/>
      <path d="m192.86,22.73v-1.65c.12-.06.25-.18.39-.19,3.11-.22,6.15.86,9.27.49,1.45.73,3.01.49,4.53.49,1.69,0,3.3-.72,5.01-.57.17.01.36-.29.52-.43.76.27,1.47.52,2.33.82-.27.4-.49.72-.8,1.18h-6.6c-.67,0-1.63-.27-1.94.05-.72.79-1.08-.23-1.65-.09-.63.15-1.33.09-1.99.02-1.27-.13-2.52-.45-3.79-.45-1.74,0-3.49.2-5.3.32Z"/>
      <path d="m103.37,54.54c-.89.96-1.91,1.82-3.7,1.63-.25-.37-.61-.91-1.21-1.79,0,.09,0-.41,0-.92.58-.57,1.17-1.15,1.66-1.63,1.53.39,2.81,1.07,3.25,2.72Zm-1.76.8c-.38-.49-.55-.75-.75-.97-.21-.23-.46-.44-.86-.82-.09,1.25.45,1.55,1.62,1.79Z"/>
      <path d="m174.2,44.63c.48-.47.65-.65.85-.85h2.13c.48.64,1.03,1.38,1.67,2.24-.45.33-.89.66-1.58,1.17h-2.39c-.23-.87-.47-1.76-.69-2.56Zm1.75.85v.81c.35-.06.57-.1,1.28-.22-.67-.31-1.01-.47-1.28-.59Z"/>
      <path d="m6.65,49.32v-.87c1.26-.41,2.48-.8,3.86-1.25.04.48.07.93.11,1.4-1.36.25-2.62.48-3.97.72Z"/>
      <path d="m136.74,6.91h-1.15c-.5-.77-.14-1.33.45-1.83.46-.12.75.61.7,1.83Z"/>
      <path d="m146.14,76.89c-.7-1.26-1.26-2.27-1.97-3.55.37-.15.76-.31,1.23-.5.39.7.94,1.69,1.52,2.71-.2.34-.39.67-.78,1.33Z"/>
      <path d="m132.43,73.82c.24-.23.47-.47.73-.73.21.24.43.49.74.84-.22.93.53,2.17-.65,3.05-1.03-.86-.89-2.02-.82-3.16Z"/>
      <path d="m142.88,76.54h-1.5v-3.27c1.36-.58,1.13.75,1.42,1.14.34.48.08,1.38.08,2.13Z"/>
      <path d="m137.13,73.6h1.08c.15.76.31,1.54.39,1.92-.23.49-.4.86-.5,1.06-.31,0-.45.03-.46,0-.42-.95-1.25-1.83-.52-2.98Z"/>
      <path d="m153.79,31.75v2.04c-.96.51-1.9,1.01-2.93,1.56-.62-.36-1.28-.74-1.95-1.12v-2.43c.86-.31,1.78-.84,2.72-.9.68-.05,1.4.53,2.16.85Z"/>
      <path d="m120.26,28.88c1.68.24,2.19,1.31,2.72,2.55-.53.77-1.11,1.6-1.64,2.37h-2.18c-.38-.39-.78-.81-1.21-1.27v-2.63c.74-.33,1.57-.69,2.33-1.02Z"/>
      <path d="m51.07,50.25c-.43.61-.82,1.18-1.31,1.89h-2.1v-2.64c.51-.36,1.13-.8,1.82-1.29,1.12.19,1.03,1.38,1.59,2.03Z"/>
      <path d="m73.82,34.4c.48.88.92,1.67,1.39,2.53-.93.66-1.69,1.2-2.58,1.83h-1.45c-.26-.33-.61-.78-1.13-1.44v-2.31c.18-.18.35-.35.61-.61h3.16Z"/>
      <path d="m34.56,26.34v-1.27c.39-.24.88-.55,1.37-.86-.07-.15-.13-.3-.2-.45,1.23.15,2.45.3,3.74.46v2.48c-.31.3-.73.7-1.18,1.13h-2.54c-.29-.36-.64-.81-1.18-1.49Z"/>
      <path d="m259.1,28.78c-.59.35-1.12.66-1.69,1h-3.07c-.18-.64-.34-1.22-.58-2.06.24-.98.88-1.98,2.37-2.31.38.12.88.31,1.39.45.51.14,1.02.24,1.57.37v2.56Z"/>
      <path d="m198.27,40.51c-1.2.48-2.19.87-3.32,1.32-.67-.35-1.41-.73-2.11-1.09v-2.25c.4-.4.75-.74,1.15-1.14,1,0,2.05,0,3.1,0,.93.87,1.37,1.91,1.18,3.17Z"/>
    </g>
  </g>
</svg>
