<?xml version="1.0" encoding="UTF-8"?>
<svg id="Layer_2" data-name="Layer 2" xmlns="http://www.w3.org/2000/svg" viewBox="0 0 299.52 266.61">
  <g id="Layer_1-2" data-name="Layer 1">
    <style>
      path{
      fill:#5A82C5
      }
    </style>
    <style>
      @import url(../css/art.css)
    </style>
    <g>
      <path d="m0,258.52c.51-.17,1.02-.34,1.54-.49.15-.04.33,0,.5,0,3.35-.16,6.74-.05,10.02-.59,2.46-.41,4.93,0,7.29-.47,3.2-.65,6.37-.33,9.55-.38.61-.01,1.11-.77,1.88-.11.39.33,1.29.11,1.95.04.37-.04.72-.26,1.14-.43,1.76.86,3.69.3,5.67.08-1.63-.87-3.23-1.81-4.9-2.6-.86-.41-1.67-.82-2.4-1.46-.56-.49-1.4-.66-2.02-1.1-1.43-1.01-2.78-2.12-4.2-3.15-.95-.69-2.05-1.2-2.91-1.98-.88-.8-1.42-2.01-2.35-2.73-2.58-1.98-4.23-4.77-6.46-7.05-.46-.47-.72-1.2-.88-1.86-.2-.82-1.57-.29-1.44-1.36-1.24-1.07-1.6-2.67-2.41-4-.68-1.12-.98-2.45-1.95-3.44-.35-.36-.45-.96-.63-1.47-.67-1.89-1.13-3.85-2.37-5.52-.39-.53-.65-1.32-.6-1.97.12-1.65-.35-3.22-.76-4.71-.41-1.47-.4-3.08-1.23-4.47-.29-.49-.05-1.3-.05-1.97,0-1.5-.13-3.01.04-4.49.17-1.5-.58-2.83-.54-4.29.02-.75-.2-1.58.06-2.22.3-.74-.26-1.53.12-2.02.55-.72.26-1.43.31-2.13.05-.73.45-1.45.43-2.03-.03-1.1.66-2,.57-3.04-.08-.99.36-1.86.47-2.79.11-.92.56-1.59.93-2.37.35-.74-.03-1.75.91-2.4.36-.25.43-.96.55-1.49.56-2.52,1.56-4.84,2.98-7.01.58-.88.79-2,1.17-3,.8-2.09,1.59-4.19,2.92-6.02.19-.26.56-.51.55-.76-.06-1.54,1.97-2.2,1.5-3.78.66-.66,1.25-1.25,1.97-1.96.02-.17.05-.48.09-.85,1.31-1.88,2.84-3.72,3.97-5.78,1.04-1.91,2.61-3.43,3.67-5.23,1.61-2.73,3.88-4.96,5.42-7.72.31-.56.95-.92,1.38-1.43.45-.54.83-1.15,1.25-1.73.41-.58.75-1.22,1.25-1.72,1.77-1.78,3.11-3.95,4.84-5.69,1.93-1.95,3.44-4.42,6.03-5.72.49-.25.84-.8,1.25-1.21,1.99-1.99,4.27-3.61,6.61-5.15.73-.48,1.06-1.5,2.1-1.55,1.75-2.31,4.48-3.45,6.48-5.47.79-.8,1.56-1.61,2.68-1.98.89-.3,1.47-.93,1.62-1.62,1.45-.98,2.86-1.72,4-2.75,1.79-1.61,3.95-2.73,5.69-4.29,1.69-1.52,3.78-2.55,5.18-4.43.59-.79,1.69-1.18,2.43-1.89,2.92-2.75,6.77-4.3,9.38-7.45.64-.77,1.73-.98,2.31-1.99.52-.9,1.58-1.48,2.38-2.23.79-.74,1.58-1.49,2.29-2.29,2.48-2.8,4.91-5.69,6.7-8.96,1.47-2.68,2.84-5.46,3.72-8.43.38-1.27.87-2.52.85-3.89-.03-1.77.04-3.52.41-5.3.25-1.18.24-2.5-.35-3.8-.46-1.03.27-2.42-.57-3.5.04-2.27-.97-4.21-1.89-6.2-1.28-2.77-3.18-5.08-5.54-6.9-1.43-1.1-3.25-1.77-4.98-2.39-1.97-.71-4.05-1.13-6.11-1.53-.24-.05-.6.09-.73-.03-1.5-1.41-3.36-.89-5.1-.96-1.25-.05-2.5.03-3.75-.02-3.51-.12-7-.77-10.54-.49-2.38-.93-4.86-.37-7.29-.49-1.86-.1-3.63.71-5.54.53-1.9-.18-3.91-.38-5.72.05-2.05.49-4.04.32-6.06.39-1.21.04-2.28.83-3.53.55-.64.8-1.53.44-2.3.45-2.33.04-4.67.07-7,0-1.35-.05-2.69-.32-4.04-.48-1.27-.15-2.55.25-3.82-.45-.64-.35-1.67.06-2.41-.2-2.78-1-4.96-2.74-6.21-5.42.32-1.08.57-2.06.91-3,.85-2.4,2.83-3.83,4.64-5.42.92-.81,2.18-.86,3.06-1.73.67-.66,1.54-1.11,2.12-1.52,1.36-.49,2.55-.85,3.68-1.34,1.17-.51,2.31-.98,3.63-.89,1.94.13,3.74-.41,5.5-1.18.63-.28,1.41-.21,2.12-.31.36-.05.89.19.9-.5C48.5,0,53,0,57.5,0c.22.17.42.47.65.48,1.08.05,2.17.05,3.25.02,1.61-.04,3.21-.03,4.67.81.13.08.28.17.42.18,2.01.18,4.03.44,6.04.47,1.78.03,3.48.25,5.14.9.26.1.68-.28,1.02-.27.26,0,.5.35.77.39,1.59.2,3.2.29,4.79.54.85.13,1.85.25,2.48.6.91.5,1.76.16,2.52.55,1.02.56,2.04,1.13,3.26,1.8,1.4-.57,2.57.94,4.08,1.02,2.33,1.57,5.3,1.71,7.6,3.39.87.64,1.98.95,2.81,1.63,1.3,1.06,3.21.98,4.24,2.45.95-.13.76,1.33,1.71,1.2.23.81,1.6.47,1.57,1.56,0,.06.1.16.17.17,2.39.52,3.24,2.57,4.36,4.36,1.58.65,1.71,2.54,2.97,3.47.09,1.9,1.79,2.9,2.5,4.46.09.21.36.34.52.48-.06,1.02.05,1.93.44,2.86.43,1.01.61,2.12.58,3.27-.03.92.42,1.86.42,2.79,0,.85.43,1.83-.42,2.56.82.79.3,1.51.01,2.33-.14.41.27,1.01.44,1.53-.29.54-.58,1.08-.99,1.85.27,2.45-1,4.76-1.85,7.19-.64,1.82-1.61,3.49-2.2,5.34-.28.86-.91,1.68-1.57,2.33-1.44,1.42-1.98,3.51-3.43,4.8-2.32,2.08-3.73,4.84-5.8,7.11-2.42,2.66-4.88,5.34-7.02,8.27-.89,1.22-2.07,2.3-3.69,3.46-.37.73-.73,1.95-2.18,2.6-.77.34-1.54,1.26-2.09,2.03-2.27,3.19-5.22,5.74-8.07,8.33-1.69,1.54-3.31,3.15-5.03,4.66-.91.79-1.83,1.58-2.8,2.28-.68.5-.84,1.38-1.7,1.8-.78.38-1.29,1.27-1.98,1.87-.66.58-1.44,1.01-2.06,1.62-.5.49-.73,1.35-1.29,1.66-.59.32-.88.75-1.3,1.18-1.58,1.58-3.37,2.95-5.08,4.4-.31.26-.77.48-.89.81-.49,1.3-1.8,1.7-2.65,2.6-.56.6-1.26,1-1.79,1.7-.71.93-2.01,1.43-2.69,2.38-.67.93-1.27,1.96-2.2,2.54-2.06,1.29-3.53,3.17-5.23,4.82-.97.95-1.73,2.12-2.58,3.17-.99-.31-1.5.27-1.97.84-.29.35-.39.94-.73,1.17-1.68,1.13-2.68,2.81-3.88,4.35-.58.75-1.55,1.08-1.82,2.22-.22.93-1.55,1.14-2,2.11-.42.91-.98,1.77-1.59,2.58-.35.46-1.01.69-1.34,1.16-2.26,3.28-4.46,6.61-6.6,9.97-1.22,1.91-2.25,3.91-3.41,5.84-.55.93-.55,2.06-1.45,2.92-.73.7-.76,1.95-1.38,2.91-.72,1.12-.82,2.64-1.17,3.99-.24.9-.45,1.81-.68,2.71-.22.06-.45.12-.67.18-.22.99-.61,1.99-.61,2.98,0,1.39-.3,2.66-.81,3.92-.09.21-.26.46-.22.65.27,1.02-.55,1.84-.49,2.79.02.35.33.69.45.92-.18.62-.44,1.14-.45,1.66-.05,2.08-.18,4.18.03,6.23.18,1.76.66,3.53,1.26,5.21.82,2.32,2.1,4.46,3.07,6.71,1.25,2.89,2.72,5.58,4.62,8.07.33.44.61.92.94,1.36.63.82,1.29,1.63,1.94,2.44.78.97,1.26,2.16,2.6,2.67.62.24,1.14.96,1.49,1.59.53.95,1.16,1.69,2.17,2.12.36.15.67.48.91.8,1.09,1.48,2.59,2.55,3.87,3.84,1.24,1.24,2.37,2.66,4.32,2.83,1.17,1.5,3.12,1.3,4.64,2.08,1.44.74,3,1.21,4.65,1.5,1.08.19,2.21.69,3.28,1.09,1.13.42,2.3.33,3.44.73,1.23.43,2.73-.11,4.01.59,2.96-.38,5.84.59,8.79.52,2.91-.07,5.85.16,8.74-.08,1.91-.16,3.85-.52,5.65-1.41,1.3-.64,2.73-1.06,4.12-1.52,1.64-.54,3.36-.94,4.04-2.84.05-.14.21-.3.35-.35,1.34-.41,1.89-1.61,2.63-2.62.29-.4.7-.71,1.01-1.03.63-.2,1.22-.38,1.71-.54.3-1.36.55-2.5.88-4.04.96-1.1,2.4-2.36,3.35-3.92,1.51-2.48,3.44-4.68,4.81-7.24.39-.74.55-1.61.91-2.36.4-.84.88-1.65,1.41-2.41.5-.71.18-1.85,1.22-2.24-.02-1.48.58-2.81,1.47-3.86.62-.75.65-1.44.64-2.33-.47-.32-.98-.66-1.49-1,.02-.16.04-.31.08-.56h2.58c1.52-1.95,1.49-4.57,3.27-6.26-.1-1.18.74-2.03,1.13-3.03.4-1.02.1-2.24.94-3.1-.03-2.17,1.29-3.98,1.66-6.06.17-.98.61-1.92.83-2.89.23-1,.25-2.05.53-3.03.76-2.57.2-5.21.56-7.77.18-1.26.66-2.58.36-3.78-.48-1.94-.43-3.86-.44-5.8-.01-2,0-3.99,0-5.77,1.57-2.04,3.04-3.94,4.49-5.85.23-.31.32-.82.61-.97,1.32-.69,2-1.97,2.96-3,1.28-1.36,2.68-2.41,4.63-2.73,1.02-.17,1.92-1,2.95-1.3,1.65-.48,3.37-.71,5.02-1.16,2.08-.57,4.19-.5,6.3-.47.98.02,1.75-.72,2.8-.56.82.12,1.83.42,2.54-.45,1.44.19,2.93-.38,4.35.36.4.21.96.18,1.44.13,3.38-.35,6.71.34,10.04.61,2.96.24,5.96.81,8.87,1.49,1.72.4,3.5.68,5.2,1.28.79.28,1.77.05,2.65.05.26-.58.5-1.14.77-1.74,1.25-.43,2.2-1.44,2.82-2.5.64-1.1,1.06-2.53.99-3.78-.09-1.56-.85-3.06-1.71-4.35-1.27-.2-.87,1.36-1.93,1.56-.68.13-1.2,1.08-1.79,1.67-1.48,1.51-3.34,2.19-5.35,2.79-2.92.87-5.87,1.12-8.85.91-2.04-.15-4.09-.5-6.05-1.07-.61-.18-1.21-.28-1.83-.4-.61-.12-1.2-.32-1.79-.49-.74-.22-1.47-.44-1.98-.59-1.39-1.48-1.43-2.84-.5-4.29,1.83-.56,3.16.59,4.85,1.41.85.19,2.02-.36,3.1.31.98.61,2.32-.38,3.22.67,2.11-.21,4.23.32,6.35-.35,1.42-.45,2.98-.45,4.3-.63,1.09-.81,2.06-1.52,3.01-2.24.88-.67,1.86-1.33,2.53-2.14.73-.88.88-2.22,1.98-2.81,0-1.83,1.53-3.29,1.03-4.85-1.06-2-1.93-3.79-3.44-5.14-1.65-1.48-3.51-2.57-5.61-3.36-1.69-.64-3.26-1.4-5.14-1.54-.96-.07-1.98-.93-2.46-2.15.21-1.16.42-2.33.63-3.49-2.42-.42-5.01-.35-7.2.19-.15.04-.32.04-.48.05-2.1.17-4.25.1-6.28.56-2.11.48-4.2.37-6.41.45-.37,1.14-.84,2.29-1.11,3.48-.63,2.74-1.41,4.08-2.98,6.27-1.26,1.76-2.87,3.13-4.28,4.71-1.52,1.7-3.46,2.83-5.58,3.42-1.25.35-2.25,1.04-3.88,1.57-1.91,0-4.31-.03-6.72.02-.78.01-1.63-.31-2.34.43-.17.17-.89.09-1.12-.12-.6-.56-1.28-.34-1.88-.29-1.18.1-2.17-.4-3.2-.76-1.52-.53-3.01-1.18-4.52-1.76-.22-.08-.5-.01-.76-.01-1.37-2.03-.85-4.06.06-6.06,1.18-2.59,2.51-5.12,3.63-7.73.45-1.06,1.01-1.96,1.83-2.74.28-.27.53-.6.7-.96.47-1,1.11-1.71,2.05-2.4,1.2-.88,2-2.3,2.83-3.32.75-.27,1.32-.35,1.75-.65,1.79-1.23,4.19-2.03,6.13-2.12,1.02-.05,2.16.48,3.13-.56.31.19.67.6.95.55,1.82-.28,3.5.65,5.3.55.85-.05,2.55.72,3.96,1.28,1.15.45,2.45.56,3.79.84.67.67,1.43,1.43,2.36,2.36.93-.16,2.07.4,3.07-.49.09-.08.32-.02.49-.01,3.45.15,6.83-.84,10.29-.51,2.7.25,5.33-.86,8.04-.49.4.05.8,0,1.3,0,.35.83.69,1.61,1.03,2.43-.33.89-.67,1.83-1.01,2.73,1.02.46,1.99.9,2.98,1.33.42.18.86.48,1.29.47.72-.01,1.26.14,1.73.71.23.27.66.5,1.01.52,1.07.06,1.55,1.01,2.37,1.42.9.45,1.75,1.02,2.59,1.58.49.32,2.81,3.83,3.06,4.47.25.64.59,1.26.83,1.9.22.57.36,1.17.56,1.87-.67,2.37-.58,5.12-1.99,7.59.94,1.22,2.19,2.17,2.69,3.84.48,1.64.28,3.21.4,4.81.12,1.53-.07,3.01-.87,4.38-.75,1.29-2.05,2.19-2.86,3.83,2.02-.26,3.55,1.01,5.22.94,1.83-.07,3.48.84,4.92.6,1.45.59,2.59,1.05,3.9,1.58.08-.36.23-.66.18-.91-.66-2.95-.5-4.03-.05-7.58.24-1.92.51-3.7,1.54-5.37,1.08-1.76,1.94-3.63,3.56-5.02.52-.45.78-1.18,1.29-1.66.51-.48,1.17-.8,1.88-1.27-.34-.81-.54-1.58-.95-2.22-1.59-2.46-1.54-2.47-.42-5.13.91-2.17,2.37-3.63,4.54-4.56.95-.41,1.64-.49,2.48.23,1.15-1.52.44-3.64,1.85-5.15-.93-.65-1.33-1.7-2.49-1.98-.29-.07-.52-.58-.69-.93-1.35-2.71-3.67-4.6-5.96-6.39-1.33-1.04-1.9-2.5-3.03-3.59-.12-.12-.02-.48-.02-.73.71-.71,1.42-1.41,2.16-2.15,1.65-.05,2.87-1.15,4.05-2.12,2.27-1.88,4.42-3.92,6.52-5.98,1.38-1.35,2.61-2.86,3.96-4.36-.28-.61-.51-1.1-.74-1.59-2.29.22-3.67-1.44-5.43-2.22-1.89-.83-2.8-2.59-4-4.11-.17-1.19-.38-2.45-.52-3.72-.14-1.38.31-2.65,1-3.82,1.21-2.05,2.2-4.27,4.29-5.69.61-.41,1.07-1.04,1.62-1.59-2.66-2.5-5.31-5-7.91-7.45v-1.05c-1.35-1.79-3.82-2.81-3.48-5.6,1.59-.98,2.6.9,3.78.8,2.6-.98,3.69-3.28,5.37-4.96.37-.37.65-.9.8-1.4.13-.45.03-.97.03-1.42-1.9-1.09-3.72-2.14-5.45-3.13v-2.01h3.66c2.12,1.21,4.25,2.36,5.27,4.71v3.46c-1.5,3.74-4.02,6.14-6.52,8.48.47,1.52.9,2.85,2.51,3.57.92.41,1.59,1.44,2.32,2.24.72.8.74,1.87.71,3,1.77-1.21,3.67-1.31,5.64-1.77-.25-.41-.39-.79-.65-1.03-1.18-1.05-1.5-2.33-1.54-3.88-.07-2.59-.69-5.16-.46-7.78-1.06-.89-.24-2.26-.89-3.39-.51-.87-.03-2.28-.13-3.43-.08-.84-.4-1.66-.6-2.45.56-.29.98-.5,1.44-.74.5.54,1.06,1.14,1.62,1.73.19,1.14.18,2.41.67,3.44.31.65.31,1.22.39,1.84.16,1.26.35,2.52.49,3.79.14,1.18-.29,2.42.48,3.56.19.28,0,.82.04,1.23.13,1.27-.13,2.51.4,3.82.37.91-.11,2.16-.22,3.35.72-.1,1.62-.36,2.5-.32.9.04,1.74.84,2.85.23-2.63-2.03-3.3-5.23-4.86-7.89-.37-.63-.17-1.6-.23-2.3.78-1.78,2.64-1.75,3.89-2.56.4-4.73.29-7.61-.34-9.04.41-1.15,1.38-.93,2.26-.92.41.41.82.82,1.19,1.19.31,1.8-.43,3.65.59,5.39-.17.23-.35.48-.57.77.2.47.42.96.64,1.47.12.05.28.17.41.15,1.96-.28,3.98-.4,5.37-2.12.52-2.42-.27-4.79-.43-7.29.56-.26,1.06-.48,1.67-.76.46.58.86,1.09,1.47,1.87.26,1.72.43,3.87.95,5.93.5,2.01.32,4.14,1,6.07.78,2.18.22,4.37.43,5.93-.38.78-.56,1.16-.85,1.75-.49-.73-.74-1.17-1.06-1.56-.32-.38-.7-.71-.91-.92-.24-2.16-.47-4.16-.69-6.16-.07.07-.14.14-.2.22-.18-.38-.36-.76-.63-1.35-1.83,2.23-4.51,1.77-6.59,2.94v8.74c-.36.13-.65.24-1.12.41.43.3.76.7,1.13.75,1.11.14,1.92.71,2.65,1.48.23.24.47.47.71.71q2.6,2.6,3.6,6c.13.44.29.87.47,1.38-.89,1.07-.29,2.43-.42,3.22-.72,1.6-1.26,2.8-1.98,4.38-1.66,1.56-3.36,3.81-6.09,5.04,1.36,1.53,3.28,2.16,5.02,2.68,1.7.51,3.2,1.72,5.1,1.63.24-.01.49.39.76.56.66.42,1.36.7,2.1.98.91.35,2.07.29,2.73,1.3.22.33.81.62,1.21.59,1.75-.11,2.83.94,3.85,2.03h1.37c1.14,1.33,3.36,1,4.4,2.94.08,2.85-2.32,5.07-2.88,8.02.97.14,1.23-.47,1.45-1.26,1.76-1.02,3.64-1.96,5.34-3.27.8-.62,1.55-1.71,2.87-1.47,1.35-1.28,3.14-1.64,4.8-2.29,1-.4,2.01-.79,2.97-1.17.45.22.86.43,1.44.73,0,.18-.07.51.02.8.08.29.32.53.36.6-.56,2.78-1.09,5.4-1.66,8.24,1.85.03,3.34.51,4.92.71,1.95.25,4.01.41,5.84,1.54,1.15.71,2.61.9,3.92,1.36.36.13.68.37,1.04.58v2.97c-1.05.3-2.14.8-3.27.89-1.52.12-2.95.41-4.37.94-.65.24-1.44.11-2.41.16.24.52.42.91.67,1.46,2.08-.37,3.85.6,5.54,1.53,1.39.76,2.53,1.98,3.74,3.04.75.66,1.42,1.4,2.13,2.11.16,1.41.05,2.74-1.14,3.68-1.09-.19-2.25-.18-3.21-.61-1.15-.5-2.44.18-3.33-.37-1.15-.72-2.25-.22-3.34-.41-1.17-.2-2.36-.4-3.54-.49-1.16-.08-2.33-.02-3.5-.02h-10.5c-1.17,0-2.34-.06-3.5.02-1.1.08-2.2.32-3.29.48-1.18.17-2.37.31-3.54.51-1.1.18-2.14.72-3.29.49-.88,1.11-2.18.16-3.23.66-.97.45-2.08.62-3.43.99-1.4,1.6-3,3.42-4.71,5.36.22.27.46.57.74.92h2.08c.37.45.78.95,1.25,1.52v2.38c-1.82,1.34-2.87,3.9-5.88,3.64-.36,1.4-.68,2.83-1.11,4.24-.73,2.37-1.19,4.81-2,7.16-.63,1.82-1.23,3.6-2.31,5.3-1.3,2.04-1.93,4.51-2.86,6.81,2.13,1.02,2.86,3.04,4.18,4.72,0,.8-.06,1.71.01,2.61.35,4.12-2.02,6.77-4.94,9.08-1.39,1.1-2.92,2.02-5.15,1.3-1.51-1.1-3.29-2.41-5.15-3.78-1.35,0-2.76.04-4.16-.01-1.38-.05-2.76-.18-4.14-.26-1.3-.08-2.61-.08-3.9-.25-1.3-.17-2.59-.49-4.03-.77.03-.02-.15.14-.43.38-.31-.19-.65-.58-.96-.56-4.88.22-9.64-1.45-14.65-.95,0,.37-.09.72.01,1,.73,1.89.6,3.86.45,5.78-.29,3.59-1.13,7.09-2.55,10.41-.49,1.13-1.44,2.07-1.86,3.22-.43,1.17-1.13,2.19-1.57,3.35-.19.51-.58.94-.93,1.49.62.6,1.38,1.25,2.04,1.99,1.16,1.31,1.22,2.67.2,4.07-.29.4-.69.72-1.08,1.12-1.85-.31-3.02-1.51-3.83-2.96-.86,1.61-1.68,3.26-2.62,4.84-.33.55-.59,1.08-.85,1.65-.51,1.11-.78,2.51-1.97,3.16-1.16.64-1.03,1.93-1.68,2.84-1.76,2.46-3.31,5.08-4.82,7.71-1.36,2.36-2.71,4.76-4.44,6.91-.89,1.11-1.74,2.25-2.69,3.49,1.76.16,2.86-1.32,4.4-1.24.53-1.03,1.67-.16,2.43-.81.6-.51,1.53-.65,2.43-.76.93-.12,1.79-.87,2.8-1.41.84-.26,2.01.51,2.88-.51,1.11.2,2.22-.22,3.37.31.83.38,1.94.23,2.92.17,1.55-.08,3.04.28,4.55.46,1.43.17,2.75.54,4.12.93,2.09.58,4.23,1.09,6.35,1.56,1.25.27,2.03,1.14,3.09,1.61,1.04.46,1.85,1.22,2.55,2.31,1.66,2.6,4.24,6.79,4.63,9.31.31,2,.04,4.1.01,6.15,0,.06-.16.11-.16.18-.12,1.97-.76,3.82-1.37,5.95h3.08c.75,0,1.5-.02,2.25,0,.73.02,1.67-.18,2.15.19.68.52,1.35-.94,1.79.17,2.13-.75,4.33-.27,6.49-.34,1.1-.04,2.22-.27,3.33.41.45.27,1.34-.17,2.24-.32.36.09.96.35,1.56.36,2.5.05,5-.02,7.5.04,1.44.03,2.89-.27,4.32.43.49.24,1.27-.21,1.92-.2.71,0,1.49.38,2.11.19.55-.17.91-.22,1.36.07.59.38.99-.69,1.68-.19.27.2.78-.05,1.27.12.74.26,1.64.07,2.48.07h3c.92,0,1.97-.28,2.72.07,1,.47,1.74-.47,2.63-.09.48.2,1.05.2,1.74.32-.02.02.16-.14.24-.22.95.15,1.79.34,2.65.4.91.07,1.92-.22,2.72.08.78.29,1.5.63,2.27.32.72-.29,1.43.11,2.22-.31.71-.38,1.79-.08,2.87-.08.23.3.54.69.68.87,1.28.52,1.6-.59,2.22-.85,2.21.49,4.12,1.47,6.52.59,1.97-.73,4.29-.53,6.25-.73.51.76.86,1.28,1.36,2.03.07.51.27,1.32-.76,2.08-3.83,0-7.89.02-11.96-.02-.52,0-1.03-.44-1.54-.44-.51,0-1.03.44-1.54.43-.78,0-1.6.32-2.36-.35-.29-.25-.95-.1-1.44-.11-.67-.01-1.33,0-2,0h-2.25c-.67,0-1.36-.12-1.99.03-.63.15-1.01-.5-1.69-.28-.48.16-1.12-.2-1.7-.24-.75-.05-1.5-.01-2.25-.01-.67,0-1.38-.15-1.99.04-.77.24-1.09-.9-2-.38-.52.29-1.41-.11-2.14-.15-.75-.04-1.5,0-2.25,0s-1.5.05-2.25-.02c-.45-.04-.88-.27-1.44-.45-.86.79-2.22.77-3.1.36-.92-.43-1.74-.37-2.59-.38-12-.03-23.99-.02-35.79-.02-.78-.4-1.4-.73-2.33-1.21-.25.36-.58.74-.8,1.18-1.54,2.99-4.5,3.63-7.33,4.54-1.86.6-3.89.48-5.66,1.41-.2.1-.48.06-.72.07-.67,0-1.34-.06-2,.02-.53.07-1.02.34-1.55.47-3.23.83-6.5,1.12-9.83,1.02-3.77-.12-7.5.84-11.29.49-1.71.7-3.52.5-5.29.48-.53,0-1.05-.23-1.76-.4-.72.56-1.81.73-2.74.21-.67-.37-1.27-.27-1.89-.28-2.75-.04-5.51-.15-8.25.01-4.21.26-8.35-.76-12.54-.53-1.96-.77-4.08-.16-6.03-.58-1.87-.4-3.71-.26-5.56-.46-1.47-.15-2.87-.72-4.33-1.01-1.8-.36-3.53-1.09-5.25-1.72-4.94-1.11-9.97-.61-14.97-.74-.6-.02-1.2-.25-2.03-.43-.07.06-.32.24-.48.37-.91-.15-1.77-.25-2.61-.43-4.99-1.03-10.03-.24-15.04-.5-1.03-.05-2.13.33-3.06-.47-.14-.12-.5-.08-.73,0-3.56,1.04-7.2.23-10.79.5-.45.03-.89.21-1.43.35-.12-.06-.37-.26-.66-.35-.23-.07-.5-.01-.75-.01-1.5,0-3-.05-4.5.02-1.47.07-2.8-.88-4.3-.52-.6.14-1.21.2-2.23.36-.43-.2-1.23-.7-2.26-.11-.48.27-1.3.29-1.81.08-1.12-.47-2.13-.49-3.23,0-.42.19-.99.27-1.42.14-.73-.23-1.39-.92-2.14-.06-.63-.63-1.15-.18-1.82.03-.59.19-1.35-.18-2.2-.34-.33.1-.85.36-1.37.38-1.41.06-2.83,0-4.25.03-.87.03-1.75-.21-2.58.44-.27.21-.99-.17-1.86-.35-.02.01-.34.35-.68.38-2.59.21-5.19.39-7.79.51-1.5.07-3.15-.39-4.46.11-1.95.74-3.94.11-5.91.79-1.56.54-3.45.11-5.17.11-.44-.44-.87-.84-1.26-1.27-.35-.39-.66-.82-.99-1.22,0-.33,0-.67,0-1Zm132.65-34.79q-.25-1.43.22-2.75c.52-1.52,1.04-3.03,1.61-4.71-.52-.33-1.15-.73-1.96-1.25-.98,2.17-1.93,4.26-2.94,6.52.94.67,2.01,1.43,3.56,2.37.85.39,1.92.89,2.99,1.39-.06-.16-.11-.32-.17-.47.58-.33,1.16-.65,1.73-.98-.04-1.27.56-2.29.58-3.32.03-1.28,1.66-1.85,1.16-3.28-.41-.09-.87-.16-1.32-.29-.44-.13-.87-.31-1.25-.45-.67.75-1.2,1.28-1.45,2.29-.41,1.71-1.42,3.28-2.75,4.94Zm-27.65,17.82c.94,1.54.18,3.68,1.66,4.91h10.5c-.37-1.2-.69-2.25-.94-3.07.14-.54.22-.88.32-1.26-2.13.15-4.08.11-5.96.47-2.07.4-3.6-1.39-5.49-.71v-1.97c3.81.67,7.54.78,11.23.57.24-.24.42-.42.56-.56v-3.37c-.8,0-1.49.13-2.12-.02-2.17-.53-4.34-.99-6.59-.98-.16,0-.36.02-.47-.07-1.36-1.04-2.52-.25-3.67.32v5.01c.26.26.49.49.98.73Zm34-94.32c-2.32.8-1.85.34-4.94,3.89,1.58.99,3.38,1.7,4.36,3.45-.29.26-.53.48-.82.74-1.5-1.02-2.97-2.01-4.5-3.06-1.07,1.32-2.12,2.63-3.22,3.99.19.41.26.88.53,1.08,1.19.88,2.64.93,4.08.9.23.53.4.91.7,1.61-1.69-.17-3.02-.3-4.64-.45-.03.03-.32.27-.64.55.88.57.41,1.33.62,1.9.15.39.6.67.84.93.59-.27.99-.45,1.53-.69v2.16h-2.34v2.73c.65,1.26,1.95.44,2.88.85v1.91h-3.43v3.11c.42.42.83.82,1.38,1.38h1.93c.41,1.02.08,1.63-.77,1.97-.85-.32-1.62-.61-2.42-.91-1.18.93-.44,2.27-.63,3.43-.02.12.12.28.15.34.67.32,1.28.61,1.88.89-.06.48-.1.86-.16,1.39-.84-.26-1.5-.46-2.18-.67-.59,1.45-1.16,2.86-1.72,4.25.72.26,1.38.5,2.07.75-.07.8-.13,1.4-.19,2.05-.76-.26-1.35-.46-2.02-.69-1.06,1.24-1.56,2.54-1.34,3.62.71,1.44,2.58.56,2.5,2.27-1.15.95-2.22-.64-3.19-.27-.63,1.33-1.41,2.46-1.7,3.7-.31,1.34-1.43,2.43-1.49,3.59-.07,1.5-1.24,2.29-1.54,3.71,1.1.53,2.21,1.07,3.32,1.62,1.26.62,2.74.48,3.97,1.29.46.3,1.28.05,1.94.05,2.21.98,4.46,1.78,6.75,2.47.98.29,2.04.29,3.03.54.97.25,2.05.45,2.8,1.03.91.69,2.15-.01,2.87.95,1.31-.19,2,1.17,3.23,1.28.91.09,1.89.3,2.67.75,1.3.75,2.64,1.03,3.65.98,1.61.42,2.31,1.88,3.83,1.48,1.67,1.04,3.81.85,5.41,2.01,1.08.78,2.07.54,2.71.12.93.18,1.51.29,2.13.41.07-.59.11-.98.16-1.39,1.72-1.39,2.65-3.3,3.49-5.27.9-1.19,2.03-2.15,2.62-3.67.37-.97,1.28-1.72,1.38-2.94.05-.55.59-1.11,1.02-1.55.7-.69,1.14-1.48,1.44-2.41.31-.94.82-1.82,1.18-2.75.18-.46.2-.99.31-1.57-2.15.19-3.79-.15-4.5-2.55v-1.98c.24-.48.41-.81.8-1.58-1.37.87-2.48.6-3.55.66-1.59-1.64-1.69-1.85-1.73-3.61.57-.82,1.07-1.54,1.59-2.29,1.05-.24,2.11-.47,3.05-.69,1.23,1.97,1.99,3.82.7,5.95.95-.18,1.68-.32,2.32-.44.35.34.54.67.82.8,1.16.51,2.05,1.17,2.13,2.6.02.27.69.51,1.22.87.18-1.43.56-2.53,1.52-3.34.24-.2.47-.46.61-.74.69-1.29,1.52-2.55,1.97-3.92.71-2.2,1.28-4.45,1.98-6.67.36-1.13.06-2.48.06-3.72v-2.53c-.75-1.47-1.31-2.57-1.9-3.73-1.02-.24-2.31.44-3.4-.49-.14-.12-.54-.11-.73,0-1.7.94-3.54.32-5.3.48-.82.07-1.83-.24-2.43.14-.75.47-1.42.23-2.11.37-.69.14-1.37.48-2.04.47-3.23-.06-6.14,1.25-9.17,2.05-.58.15-1.04.71-1.62.9-.66.21-1.05.46-1.35,1.17-.24.56-1.06.85-1.57,1.31-.49.44-1.16.88-1.32,1.44-.46,1.68-1.44,3.1-2.29,4.54-.59,1,.07,1.48.25,2.19-.52.96-1.04,1.92-1.51,2.79-1.84.33-3.45.08-5.2-.71.52-.62.98-1.16,1.41-1.67h1.55c.25-.25.48-.48.66-.66v-1.85c-.89-.34-1.74-.68-2.6-1.01-.21.2-.39.37-.24.22-.43-.43-.85-.85-1.27-1.28,1.35-1.57,3.05.75,4.73-.12.47-1.09.99-2.29,1.51-3.48-.87-.46-1.69-.9-2.5-1.33v-1.37h2.19c.22.22.72.72,1.16,1.16.97-.94,2.04-1.98,3.08-2.99.31-1.2-.68-1.6-1.35-2.35h-1.4c.35-.77.61-1.34.84-1.85,1.36.9,2.53,1.67,3.69,2.43.33-.33.63-.63,1.01-1.01h2.2c.23-.53.44-1.02.68-1.57-.83-.72-1.58-1.36-2.06-1.77v-1.56h1.66c.62,1.19,1.19,2.29,1.76,3.38h3.21c.3-.26.55-.48.78-.67-.22-1.21-.43-2.37-.64-3.53.53-.34.92-.59,1.41-.9.31,1.47.59,2.76.88,4.12,1.33.07,2.7.28,3.92-.82-.22-1.1-.44-2.26-.67-3.43.5-.32.89-.56,1.29-.81.28.54.49.95.84,1.63.26.79-.72,2.25.62,2.87,1.29-.22,2.33-.4,3.27-.57-.17-.84-.37-1.52-.42-2.21-.05-.78-.25-1.67.87-2.09.99,1.31.77,3,1.3,4.4h3.05c1.72-1.03-.06-2.1.18-2.85.65-.55,1.12-.95,1.6-1.36,1.23,1.14-.07,2.92.66,4.19h4.71c.5-1.3-.62-2.88.87-3.86,1.49,1.05.24,2.69.92,3.89h3.85c.38-1.16.76-2.32,1.09-3.33h1.53c-.24,1.35-.46,2.57-.62,3.52.69.18,1.07.33,1.45.36.64.05,1.29.01,1.9.01.23-1.23,1.09-2.01,1.19-3.19.06-.68.94-1.06,1.79-.69.58,1.38-.46,2.37-.91,3.56.29.27.58.55.84.8h1.9c1.15-1.46,1.15-3.6,3.2-4.71.21,1.78.27,3.25-.88,4.49q1.59.73,3.38.6c.24-1.33.14-2.85,2.12-3.49-.07.81.07,1.55-.22,2.02-.45.74-.24,1.36-.21,2.11.52,0,.93.01,1.33,0,.5-.02.9.1,1.34.43.32.24.98.16,1.45.06,2.22-.46,2.21-.47,4.59,0,.31.06.79.12.96-.04.78-.8,1.7-.28,2.56-.47,1.13,1.24,2.22,2.44,3.63,3.99.5.11,1.5.52,2.48.48,1.57-.08,3.51-2.39,3.56-3.99.04-1.08,0-2.15,0-3.02-.55-.81-1.09-1.42-1.42-2.13-.48-1.01-1.67-.51-2.27-1.21-.26-.31-.65-.5-.72-.55.21-1.34.37-2.34.53-3.35-.99-.34-1.79-.62-2.53-.87v-1.39c1.17.22,2.22.41,3.37.63.25-1.01.46-1.9.67-2.75-1.08-.53-2.12-.74-2.88-2.01.41-.14.82-.28,1.43-.49.42.2,1.3.62,2.21,1.05.3-.28.72-.67,1.11-1.04v-1.15c-1.68,0-2.68-1.32-4.34-2.02.61-.54,1-.89,1.32-1.17.46.46.81.81,1.01,1.01.95.15,1.77-.23,2.29.55.41-.41.83-.83,1.06-1.05.27-.88.48-1.54.71-2.28-1.2-.39-2.39-.74-3.54-1.17-.24-.09-.36-.48-.62-.84,1.79-.42,3.13.24,4.56.78v-1.07c-1.05-.82-2.06-1.6-3.14-2.45,1.68-1.06,2.68.39,3.94.63.86-1.79.93-3.63.65-5.46-.94.17-1.85.63-2.43.37-.8-.37-1.55-.29-2.32-.45-.75-.15-1.53-.38-2.16-.79-1.44-.93-2.86-1.86-4.48-2.47-.57-.22-1.07-.66-1.56-1.04-.89-.69-1.65-1.68-2.65-2.05-1.5-.55-2.73-1.99-4.29-1.63-3,2.19-5.78,4.28-6.82,7.83-.23,1.03-.54,2.1-.64,3.19-.11,1.15-.09,2.33,0,3.49.08,1.18.15,2.41.53,3.52.34,1,1.02,1.97,1.34,2.93.39,1.16.96,1.73,1.97,2.15.5.21.95.54,1.02.58,2.53-.19,4.12-1.28,4.65-3.48-.33-.9-.62-1.69-.87-2.4.17-.59.34-1.17.52-1.77h2.66c2.33,2.82.81,5.34-.43,7.59-1.15.62-1.83,1.45-2.52,2.22-.98,1.09-2.25,1.39-3.59,1.62-.69.11-1.37.31-2.07.48-1.06-.75-2.38-1.34-3.17-2.34-.81-1.03-1.34-2.3-2.54-3.3-.89.63-1.77,1.26-2.67,1.9.29.53.47.86.69,1.25-.66.28-.06,1.73-1.36,1.47-.59-1.29.21-2.38.36-3.46-.44-.96-1.07-1.22-2.11-.81-.46.92-.92,1.9-1.45,2.84-.13.24-.49.35-1.14.79.3-1.69.51-2.91.66-3.76-.57-.73-.92-1.18-1.24-1.59-.68.04-1.23.08-1.54.1-.55,1.47-1.01,2.7-1.44,3.85h-1.33c.22-1.48.43-2.87.66-4.35h-2.92c-.89,1.21-.52,3.64-3.33,3.38.53-1.38,1-2.57,1.49-3.84l-.53-.53h-2.18c-.71.79-1.12,1.59-1.2,2.61-.03.34-.63.63-1.08,1.05-.36-.43-.62-.74-.78-.93.18-1.1.35-2.1.55-3.26-.72-.27-1.29-.47-1.85-.68-1.18,1.41-1.5,3.23-2.54,3.76-.61-.16-1.05-.28-1.71-.46,1.56-1.33,1.6-2.7,1.39-4.08h-2.45c.09,1.53-.12,2.87-1.9,3.53v-3.86c-.1.07-.2.14-.29.2-.19-.38-.37-.75-.59-1.19-.46.34-.71.52-.83.61-.58-.17-1.09-.32-1.72-.49-.29,1.01-.55,1.91-.92,3.15-.24.2-.78.66-1.38,1.16-.32-.39-.53-.65-.55-.68.09-1.22.16-2.29.23-3.27-1.61-1.01-1.75-1-2.99.04-.25,1.11.45,2.4-.73,3.17-.45-.23-.87-.45-1.38-.71-.03-1.19,1.48-2.53-.14-3.67h-2.45c-1.7.91-.8,2.96-2.03,3.85-.51-.27-.92-.48-1.43-.74.22-.98.43-1.97.64-2.93-.66-.31-1.21-.57-1.91-.9-.61,1.29-1.17,2.47-1.76,3.71-.69-.07-1.29-.14-2.01-.22.43-1.04,1.13-1.88.45-2.74h-2.93c-.36,1.13-.72,2.23-1.08,3.34h-1.35c.11-1.03.21-1.99.31-2.88-1.8-.38-3.48.27-5.2.66-.21.05-.36.34-.48.46.9,1.5,2.37,2.77,1.79,4.81-1.06.07-1.61-.19-1.9-1.2-.34-1.17-.99-2.25-1.46-3.28-1.08,0-1.91,0-2.75,0-.29.29-.56.63-.89.87-.27.2-.62.3-1.26.6,1.87,1.17,2.87,2.71,4.06,4.16-.48.39-.84.69-1.32,1.09-.78-1.17-1.47-2.2-2.05-3.08-.69-.34-1.24-.61-1.78-.88,0-.27,0-.52-.01-1.16,0,.14.01.29.02.43.33-.06.65-.13.98-.19-.01-.11-.03-.22-.04-.32-.32.03-.64.05-.95.47Zm-24.99-92.59c-.14.14-.31.24-.37.38-1.25,2.98-2.59,5.91-3.67,8.96-.25.72-.79,1.36-1.3,1.95-.69.78-1.44,1.46-1.7,2.55-.14.58-.55,1.12-.94,1.6-1.03,1.25-2,2.58-3.2,3.65-1.19,1.05-2.23,2.22-3.29,3.37-3,3.25-6.4,6.06-9.85,8.81-1,.8-1.88,1.9-3.02,2.36-1.52.61-2.49,1.73-3.61,2.75-1.51,1.37-3.03,2.72-4.57,4.05-.22.19-.59.2-.84.37-.71.5-1.4,1.05-2.1,1.58-.57.43-1.25.78-1.69,1.31-1.06,1.28-2.76,1.61-3.86,2.76-2.13,2.21-4.72,3.83-7.16,5.64-1.54,1.14-3.06,2.31-4.53,3.53-1.13.94-2.17,1.98-3.3,3.01-.23.01-.55.03-.67.04-2.12,1.85-4.09,3.58-6.19,5.42-.19.02-.59.06-.99.11-.48.65-.81,1.62-1.44,1.86-1.26.49-2.06,1.47-2.71,2.41-1.18,1.71-2.69,3.07-4.14,4.5-1.1,1.09-1.98,2.32-2.86,3.57-.23.32-.41.91-.66.93-1.25.13-1.35,1.26-1.81,2-.83,1.33-1.43,2.8-3.03,3.42.2,1.33-.88,2.07-1.5,2.87-2.34,2.99-4.77,5.9-6.49,9.31-.07.14-.08.36-.18.41-1,.53-1.41,1.5-1.92,2.41-.57,1.02-1.4,1.92-1.87,2.97-.75,1.69-1.76,3.16-3.02,4.47.07,1.91-1.06,3.42-1.69,5.07-.84,2.22-2.37,4.12-3.04,6.49-.47,1.67-1.43,3.23-1.87,4.96-1.24.54-.78,1.84-1.19,2.75-.4.9-.83,1.85-.77,2.94.03.59-.36,1.18-.45,1.79-.09.65.2,1.5-.12,1.93-.7.95,0,2.05-.45,2.81-.58.96-.34,1.88-.45,2.82-.18,1.51.46,3.1-.47,4.55-.13.2-.04.73.14.9.52.49.35,1.08.32,1.62-.14,3.08.27,6.09,1.02,9.07.15.6.39,1.18.48,1.79.1.64-.09,1.37.13,1.95.83,2.15.86,4.6,2.37,6.51.08.1-.04.34.02.49.83,2.15,1.44,4.43,2.6,6.4,1.1,1.87,2.25,3.74,3.41,5.59.37.59.78,1.26,1.34,1.62,1.12.74,1.57,1.8,1.96,2.88,1.16.88,2.4,1.77,3.12,3,.43.74.92,1.45,1.56,1.8,1.41.78,2.3,2.06,3.48,3.04.55.46,1.13.92,1.66,1.36,1.29,1.08,2.68,1.98,4.07,2.91,2.65,1.78,5.18,3.75,8.38,4.54.58.14,1.08.59,1.61.92.31.19,2.49,1.02,2.81,1.06.55.07,1.06.08,1.63.29,1.53.56,3.17,1.16,4.75,1.11,1.62-.05,3.22,1.17,4.84.1.12-.08.41-.08.48,0,.73.87,2.06.06,2.47.56.72.87,1.6-.9,1.99.35.91.03,1.81.06,2.72.08,3.19.08,6.34-.87,9.54-.49,1.4.17,2.7-.35,3.96-.73,1.18-.35,2.14-.35,3.25.26.39-.35.8-.72,1.15-1.03,2.11-.18,4.13-.3,6.14-.53.68-.08,1.39-.31,1.96-.67.42-.26.62-.86.82-1.15,1.18-.51,2.07-1.13,2.87-1.94.78-.79,1.73-1.43,2.6-2.14.87-.71,1.72-1.45,2.63-2.11.88-.64,1.12-1.86,2.26-2.33-.19-.66-.41-1.33-.56-2.01-.17-.76-.27-1.53-.34-1.97.16-.85.26-1.43.37-2-.15-.09-.3-.17-.45-.26-.22,1.45-1.52,1.91-2.23,2.96-.76,1.11-2.29,1.3-3.32,2.26-.91.85-2.31,1.18-3.45,1.72.24.12.59.28.76.36.18,1.3.35,2.47.52,3.74-.23.15-.56.37-.89.58-.06.04-.16,0-.41-.01-.27-1.48-.54-2.99-.81-4.51-.91.33-1.71.61-2.7.97.36.88-.61,1.46-.15,2.53.27.61-.34,1.61-.57,2.44-.01.05-.13.07-.37.18-.29-.24-.64-.52-1.02-.83,1.29-.85-.03-1.73.03-2.42.24-.32.36-.47.67-.89-1.86.26-3.42.48-5.05.71-.11.11-.29.29-.64.64v4.16c-.34.02-.5.04-.66.05-1.22-1.26-.63-2.89-.86-4.39h-2.27c-.23.47-.4.82-.74,1.49v2.37c-.44.21-.82.4-1.54.75.16-1.75.28-3.15.42-4.62h-2.07c-.65,1.46-.72,3.01-1.75,4.17-.07.08-.22.1-.34.14-.23-.25-.45-.49-.65-.71.43-1.37,1.28-2.58.95-4.06h-3.31c-.28,1.37-.53,2.6-.82,4.03-.64-.22-1.21-.42-1.84-.64.88-1.18.4-2.3.58-3.53-1.2-.22-2.27-.41-3.4-.61-.44,1.43-.82,2.69-1.22,3.93-.03.1-.27.13-.7.33-.1-.29-.24-.7-.43-1.25.12-.63.32-1.71.56-3-1.01-.29-2.05-.58-3.22-.91-.21.99-.41,1.97-.64,2.95-.16.68-.5,1.17-1.3,1.04-.73-1.34.44-2.49.26-4-1.17-.49-2.43-1.02-3.7-1.55-.6,1.63-.52,3.5-2.71,4.26.2-1.62.37-3.06.55-4.56-1.11-.3-2.01-.54-2.91-.78-.11.13-.22.26-.32.39-.22-.39-.45-.78-.73-1.28-.26,1.56-.19,3.06-1.88,3.62-.85-1.42.43-2.56.19-4-1.19-.62-2.48-1.3-3.76-1.98-.66.79-1.32,1.58-1.97,2.35h-1.14c-.33-1.48.56-2.31,1.14-2.89-.61-.65-1.22-1.3-1.93-2.06-1.29,1.29-2.66,2.66-3.96,3.95-.52-.27-.91-.48-1.37-.72.87-.85,2.11-1.52,2.43-2.5.37-1.12,2.26-1.46,1.36-3.34-.79-.56-1.81-1.3-2.86-2.05-.94,1.78-2.57,2.1-4.15,2.75-.27-.4-.56-.83-.9-1.34,1.88-.38,3.19-1.17,3.69-2.83-.88-.98-1.68-1.87-2.66-2.98-.28-.09-.87-.29-1.51-.51-.51.62-.98,1.19-1.45,1.75-.34-.3-.51-.46-.69-.62-.57.63-1.15.7-1.84.15,1.16-1.07,2.19-2.02,3.22-2.97-1.08-1.67-2.01-3.26-3.56-4.19-.96.43-1.8.81-2.66,1.2-.42-.49-.72-.84-.98-1.15.99-.87,1.87-1.64,2.63-2.3-.77-.77-1.39-1.39-2.01-2.01-.94.72-2.16,1.03-3.99.51.83-.83,1.62-1.08,2.3-1.37,1.05-1.61.79-3.02-.41-4.17-1.85-.86-3.08.85-4.46.6-.35-.15-.71-.3-1.26-.54,1.12-.58,1.87-.98,2.64-1.35.74-.36,1.49-.7,2.23-1.05-.51-1.22-.92-2.21-1.45-3.5-1.01-.14-2.25-.31-3.56-.5-.16-.19-.39-.43-.55-.7-.06-.11.03-.3.08-.64h3.49c-.27-1.59-.5-2.98-.75-4.44-1.26.01-2.47-.23-3.49-1.52h3.26c.18-1.38.34-2.61.48-3.68-.55-.55-.91-.9-1.28-1.28-.75-.23-1.84.33-2.25-.84.23-.25.46-.49.73-.77.37.08.76.14,1.15.24.44.12.88.26,1.3.39.51-1.03,1.12-1.91.56-3.15-1.01-.19-2.08-.4-3.29-.63.02-.39.05-.84.08-1.44,1.18.26,2.18.48,3.13.69.29-.29.53-.52.72-.72v-2.56c-.92-.52-1.72-.98-2.46-1.4.05-.57.08-.96.13-1.66,1.15,1,2.24.88,3.15.76.47-1.19.87-2.19,1.31-3.29-1.26-.44-2.5-.87-3.2-1.12-.73-.75-1.15-1.18-1.55-1.59.02-.02.2-.2.36-.36,1.52.71,2.97,1.65,4.73,1.37.45-1.33.85-2.49,1.22-3.58-.78-.78-1.43-1.43-2.05-2.05v-1.26h1.3c.43.63.87,1.29,1.3,1.94,1.47-.88.91-2.93,2.32-3.73v-1.78c-.92-.79-1.71-1.46-2.42-2.07v-1.38c.78.53,1.47.99,2.08,1.4h2.08c.8-1.42,1.52-2.7,2.28-4.04-.62-1.52-3.15-.63-3.59-2.71,1.79-.46,3.12.24,4.29,1.23.93-1.29,1.89-2.62,2.93-4.05-1.49-.69-2.55-1.69-3.1-3.66,1.6.76,2.89,1.38,3.97,1.9.95-1.11,1.7-2,2.5-2.95-1.17-.98-2.29-1.91-3.51-2.93.03-.26.07-.64.14-1.03,0-.05.12-.09.39-.27,1.23.78,2.55,1.62,3.9,2.48.62-.7,1.37-1.54,2.21-2.48-1-1-2-1.97-2.96-2.98-.13-.14-.11-.43-.19-.77h1.2c.94.68,1.9,1.36,2.84,2.04,1.28-1.48,2.42-2.8,3.63-4.2-1.07-1.35-2.83-2.29-2.58-4.46,1.43,1.11,2.73,2.12,3.95,3.07.91-1.06,1.73-2.02,2.71-3.15-.83-.98-1.68-1.92-2.45-2.92-.17-.22-.09-.62-.2-1.48,1.61,1.22,2.8,2.13,4.14,3.15.7-1.85,3.1-1.9,3.77-3.43.17-1.53-1.59-2.36-.59-3.93.88.8,1.65,1.5,2.35,2.14.44-.23,1.23-.51,1.21-.64-.19-.98.9-.55,1.05-1.01v-1.51c-.48-.48-.96-.95-1.51-1.51.05-.53.1-1.14.18-2.12,1.01,1.17,1.77,2.04,2.51,2.89h1.06c.12-.67.7-.86,1.18-1.23.46-.35.66-1.04.98-1.57-.53-.77-1.54-1.3-2-2.33,1.48-.38,1.68-.31,3.57,1.15.49-.22,1.04-.37,1.44-.7.34-.28.47-.79.73-1.18.31-.44.66-.85,1.05-1.33-.82-.37-1.45-.66-2.13-.96-.21-.68-.44-1.39-.71-2.25h1.45c.43,1.41,1.61,1.99,2.95,2.51.84-1.38,2.75-1.92,2.79-3.77-.59-.35-1.05-.64-1.48-.89v-1.84h1.26c.62.62,1.27,1.27,1.89,1.89.73-.65,1.36-1.53,2.21-1.9,1.07-.47,1.12-1.42,1.73-2.32-1.37-.38-2.17-1.29-2.8-2.57,1.58-.55,2.49.58,3.05,1.34.53.7.92.38,1.03.4.89-.89,1.62-1.62,2.46-2.46-.73-.68-1.55-1.45-2.35-2.21.24-.24.47-.48.87-.9,1.18.58,2.42,1.19,3.44,1.7.69-.51,1.22-.89,1.82-1.33-.64-1.03-1.22-1.95-1.92-3.08.67-.05,1.12-.09,1.47-.12.4.4.7.7.99.99,2.3-.06,2.33-.08,5.16-3.31-1.13-.55-2.19-1.14-2.39-2.69,1.55.4,2.9.75,4.19,1.09,1.03-1.1,2.09-2,2.92-3-.66-1.17-1.93-1.6-2.19-2.95h1.46c.07.27.13.5.23.9.26,0,.59-.07.88.02.36.11.69.34,1.01.5,1.12-.63,2.52-1.91,3.41-3.21.16-.23.08-.63.13-1.23-.63-.51-1.39-1.11-2.31-1.85,1.89-.69,2.96,1.49,4.56.69.08-1.36,1.97-1.37,2.11-2.6-.55-.97-1.69-1.4-1.98-2.54,1.56-.91,2.44,1.14,3.82.73.93-1.17,1.88-2.35,2.84-3.55-.49-.78-1.76-1.29-.71-2.5.74.38,1.49.77,2.24,1.15.83-1.23,1.61-2.39,2.5-3.7-.71-.43-.86-1.07-.39-1.9h2.1c1.08-1.32,2.1-2.57,3.14-3.84v-.91q-1.82-.44-1.86-2.13h2.13c.44.36.87.71,1.25,1.03.6-.73,1.31-1.26,1.54-1.95.35-1.06,1.96-1.61,1.29-3.16h-2.73c-.25-.44-.46-.82-.83-1.47h4.6c1.15-1.81,1.99-3.55,2.51-5.58h-4.3c-.26-.38-.48-.7-.7-1.02.32-.34.55-.57.85-.89h4.62c.34-1.71.65-3.35,1-5.14-.88.27-1.63.49-2.54.76-.39-.67-1.33-.87-1.33-1.92,1.32-.28,2.62-.56,3.89-.83v-3.62c-1.31,1.06-2.58.71-4.14.76.4-.67.64-1.06.91-1.51,1.37.14,2.56-.16,3.38-1.33-.42-1.09-.83-2.14-1.3-3.37-1.06.46-1.98.86-2.87,1.25-.73-.46-1.07-1.03-.76-1.88,1.15-.5,2.31-1,3.48-1.51-.82-1.31-1.56-2.49-2.25-3.6-1.55-.13-2.11,1.98-3.77,1.36v-1.09c.89-.82,1.73-1.6,2.59-2.4-1.15-1.1-2.08-2.13-3.09-3.02-.84.7-1.51,1.25-2.27,1.89-.16-.44-.24-.66-.36-.98.39-.29.78-.59,1-.75v-2.39c-1.51-.39-2.06-1.85-3.21-2.55-.84.98-1.67,1.95-2.44,2.85h-1.23c.51-1.21.98-2.33,1.53-3.65-1.16-.92-2.39-1.89-3.87-3.06-.28,1.93-.92,3.44-1.97,4.73-.24-.22-.48-.44-.62-.56.43-1.46.84-2.84,1.26-4.25-.31-.31-.66-.66-.95-.95-.65-.19-1.21-.36-1.79-.53-.85.71-.93,2.26-2.78,2.43.51-.6.84-.99,1.13-1.34v-2.25c-.91-.28-1.84-.57-2.76-.85-.39.36-.81.75-.95.87-.34.93-.5,1.53-.79,2.07-.12.23-.51.32-1.14.69.2-1.6.35-2.77.53-4.13-.95-.82-2.24-1.21-3.91-1.08-.41,1.16-.81,2.31-1.23,3.5-.23-.06-.46-.11-.79-.19.27-1.44-.29-2.88.52-4.45-.59-.14-1.1-.25-1.61-.39-.52-.15-1.03-.33-1.75-.56-.28,1.14-.55,2.26-.87,3.58-.12.12-.41.41-.73.73,0,.22.04.48-.01.71-.04.2-.18.38-.26.55-.25-.04-.41-.07-.76-.13.07-.44.13-.88.22-1.32.31-1.52,1.44-3.03.11-4.46-1.29-.32-2.48-.62-3.65-.92-.35.19-.76.4-1,.52-.26,1.46-.49,2.79-.73,4.12-.01.07-.11.12-.08.09h-1.27c.19-1.64.37-3.2.55-4.82-1.47-.26-2.69-.48-4.05-.72-.27,1.61-.5,3.01-.73,4.41l-.14-.24c-.15.4-.3.81-.45,1.21-.16,0-.33,0-.49-.01-.16-.4-.31-.8-.47-1.18.55-1.29.03-2.9.23-4.27-1.63-.39-3.03-.73-4.49-1.08-.17,2.1.43,4.43-1.22,6.23-.33-.26-.59-.46-.65-.51.63-1.82.18-3.54.34-5.11-.31-.34-.53-.58-.65-.71h-4.88v4.81c-.44.24-.83.45-1.66.91.41-1.3-.25-2.28.66-3.09-1.02-.7-.04-1.91-.63-2.63h-3.85c.61,1.91.99,3.73-.3,5.42-.21-.03-.36-.06-.61-.1v-5.18c-1.46-.68-2.85-1.19-4.34-.3-.23-.12-.49-.33-.78-.4-.29-.07-.61-.02-.97-.02,0,2.19,0,4.18-.01,6.16,0,.11-.2.21-.35.36-.2-.06-.42-.14-.51-.17-.27-2-.52-3.9-.78-5.8h-3.17c-.27.29-.49.52-.7.75.92,2.06.45,4.13.41,6.27-.42-.11-.64-.17-.93-.24.28-2.08-.22-3.98-1.22-5.88-1.35.23-2.75.46-4.32.73v5.31h-1.24c-.5-1.21-1.36-2.4-.21-3.74,0,0-.09-.11-.24-.29-.88-1.42-1.94.13-2.95.11-.72-.01-.82,1.04-.83,1.21-.86.86-1.41,1.41-1.89,1.89-.04-.1-.14-.39-.29-.82-2.56.63-4.18,2.23-5.43,4.42.6.89,1.12,1.67,1.63,2.43.96.37,1.89.73,3.17,1.23,1.96-.09,4.24.88,6.63.56.4-.05.85.35,1.29.45.36.09.69-.85,1.11-.05,2.32.02,4.65.05,6.97.07.82-.81,1.85-.48,2.79-.48.98,0,1.74-.69,2.8-.55,2.52.33,4.98-.84,7.54-.48.26.04.55-.31.84-.34,1.52-.17,3.05-.47,4.17.21,6.51-1.07,12.71.34,18.9.17.52-.01,1.05.17,1.7.28.27-.6,1.18-.49,1.6-.24,1.18.68,2.38.35,3.57.44.57.04,1.35-.18,1.68.11.62.54,1.28.2,1.85.43.58.23,1.18.83,1.73.32.72-.66,1.03.44,1.67.17,1.06-.44,2.2.11,2.98.56,1.05.62,2.16.36,3.21.72,1.85.64,3.5,1.62,5.25,2.42.71.32,1.29.92,1.93,1.39,1.08.79,1.55,2.17,2.8,2.79.7,1.99,2.45,3.38,3.05,5.48.61,2.16,1.72,4.16,1.83,6.49.05,1.04.6,2.06.81,2.73-.13,1.1-.59,2.18-.25,2.57,1.01,1.15-.37,2.4.4,3.45-.99,1.15-.19,2.56-.53,3.78-.35,1.26-.55,2.5-.45,3.76Zm88.72,197.36c.99,1.09,2.09,1.78,3.65,1.45,1.68-3.52,1.6-7.31.76-10.87-.84-3.57-3.17-6.49-6.38-8.69-.46,2.17-2.03,3.49-2.96,5.22-.47-.47-.88-.88-1.29-1.29,1.66-1.69,2.35-3.05,2.35-4.69-.7-.22-1.42-.45-2.12-.67-.25.71-.33,1.29-.64,1.71-.32.44.36,1.17-.55,1.43-.39.11-.66.66-1.14,1.17-.23-.45-.42-.81-.64-1.23.62-.82,1.06-2.02.57-3.41-.69-.24-1.35-.46-1.82-.62-1.46.68-1.46,2.03-2.03,3.04-.14.25-.47.39-1.01.83v-4.24h-3.33c-.29,1.03-.57,1.99-.81,2.84h-1.36v-3.25c-1.25-.15-2.42-.3-3.89-.48-.8.42-1.96.82-3.26.85-1.61.03-3.05.64-4.33,1.67,0,.68-.06,1.34.02,1.99.09.69.49,1.37.45,2.04-.17,3.34.55,6.72-.47,10.02.35,2.38-.83,4.64-.49,6.9-.22.28-.41.45-.51.67-.78,1.61-1.39,3.28-2.68,4.65-.68.72-.95,1.84-1.45,2.87.55-.06.85-.14,1.14-.11.47.04,1.05.37,1.38.19,1.56-.84,3.21-.29,4.86-.49.36-.34.77-.71,1.13-1.05,1.27.34,2.37.63,3.45.92.38-.2.78-.41,1.19-.62v-1c.47-.22.92-.44,1.53-.73.23.73.41,1.31.62,1.96h1.56c.66-1.01,1.3-2,1.92-2.95,1.09.67,1.05,1.5.4,2.45,1.46.1,2.82.29,3.87-.68.29-1.2.39-2.42,1.83-2.82.45.91.26,1.69-.22,2.71,1.6-.28,3.04-.54,4.42-.78.26-1.26-1.16-2.21-.32-3.23,2.35-.77,1.46,1.73,2.73,2.38,1.9-.15,3.79-.66,5.01-2.15.6-2.05-1.83-1.58-1.88-3.05.15-.17.36-.41.73-.84Zm24.28-140.72q-.17,4.57.69,6.35c.82.46,1.7.53,1.99,1.54.08.27.62.42.96.61,1.16.62,2.37,1.13,3.49,1.84.89.56,2.18.57,2.97,1.21,1.59,1.29,3.65,1.62,5.12,2.89,1.23-1.01,2.73-1.62,2.83-3.31.38-.16.71-.22.94-.4,1.43-1.11,2.28-2.65,2.94-3.95,1.51-.35,2.74-.63,3.95-.93.3-.07.56-.29.86-.33,1.51-.19,3.09-.13,4.52-.57,1.29-.4,2.66-.08,3.78-.52,1.31-.52,2.57-.2,3.82-.43,1.34-.24,2.65-.55,4.05-.5,2.33.07,4.66.02,7,.02s4.84.15,7.24-.04c2.32-.19,4.5.74,6.8.56.36-.03.75.19,1.11.3.68.21,1.34.37,1.96-.07-.07-.3-.05-.54-.14-.59-.83-.41-1.68-.76-2.51-1.17-.83-.41-1.55-1.13-2.59-.99-1.06.14-1.36-1.58-2.57-1.03-.31-.51-.81-.43-1.3-.48-1.02-.12-2.13-.11-3.01-.55-.71-.35-1.36-.43-2.07-.43-4.75,0-9.5,0-14.24,0-.48,0-1.04-.07-1.44.13-2.34,1.23-4.99.74-7.4,1.52-.12-.16-.24-.32-.36-.47-1.22,1.21-2.43,2.43-3.75,3.74-.09-.14-.3-.49-.63-1.02v-2.64c.18-.21.38-.37.48-.59.82-1.74,1.35-3.6,2.48-5.22,1.53-2.18,2.76-4.54,4.37-6.7,1.44-1.94,3.19-3.88,3.66-6.44-1.36-1.82-3.64-1.63-5.44-2.48-.59-.59-1.18-1.18-1.83-1.82-1.03.18-1.93-.22-2.84-.8-1.1-.71-2.24-1.37-3.55-1.68-.45-.11-.86-.34-1.3-.48-.12-.04-.29.08-.51.15-.02.29-.04.61-.07,1.17,1.73,1.85,3.55,3.82,5.4,5.77.92.97,1.87,1.9,2.83,2.82.82.78,1.56,1.6,1.81,2.8-.54.75-1.09,1.52-1.65,2.31-2.42-.46-3.89,1.69-6.22,2.09-.47.91-1.81,1.2-2.48,2.37-.66,1.14-1.71,2.06-2.69,3.2-1.67-1.67-3.28-3.22-4.81-4.83-.87-.91-1.91-1.35-2.87-1.46-.4-.57-.65-1.25-.94-1.27-1.63-.1-2.88-1.17-4.3-1.74-1.88-.75-3.9-.99-5.71-1.9-.13-.07-.23-.2-.2-.18-.19-.66-.33-1.16-.53-1.84.52-.73.96-1.9,1.81-2.4,1.15-.68,1.64-1.61,2.09-2.71.23-.57.56-1.11.96-1.89-.41-1.3,1.06-2.78.35-4.52-1.03,1.04-1.87,2.14-2.96,3.01-1.1.87-1.99,2.01-3.03,2.96-1.07.98-2.18,1.93-3.33,2.82-1.13.86-2.33,1.62-3.42,2.37v1.25c.78.32,1.32.1,1.79-.47.51-.62,1.08-.47,1.64-.18.07,1.51-1.88,1.02-2,2.24q.71.84,1.72,1.04c.55-.53,1.12-1.09,1.9-1.85.45.44.77.77.94.92-.23,1.57-1.43,1.21-2.32,1.78.62.65,1.14,1.2,1.69,1.77,1-.64,1.85-1.18,2.69-1.72.36.29.66.53,1.05.85-.96.95-1.77,1.76-2.48,2.47.5.57,1.05,1.19,1.58,1.8.99-.43,1.91-.82,2.51-1.08.6.35.93.54,1.16.66-.3.57-.51.97-.67,1.27-.5.12-.91.22-1.73.42.86.71,1.41,1.15,2.16,1.77.51-.31,1.17-.7,1.99-1.2.3.39.62.8.89,1.14-.78.62-1.44,1.14-2.1,1.67.21.21.33.33.47.47-.33.58-.67,1.16-1.04,1.8h-2.38Zm-72.4-8.39c-1.37-.55-2.56-1.13-3.81-1.49-2.13-.62-4.24-1.27-6.56-1.12-2.65.17-5.33.04-8,.04-.47.47-.86,1.12-1.43,1.37-1.03.46-1.87,1.16-2.79,1.73-1,.62-1.45,1.6-2.19,2.37-1.21,1.25-2.33,2.65-3.18,4.16-1.01,1.8-1.55,3.86-2.69,5.62-.21.32-.36.69-.47,1.05-.18.59-.31,1.2-.5,1.95.38.36.84.81,1.25,1.21.52,0,.98-.11,1.35.02,1.81.64,3.66,1,5.59.98,2-.02,4-.03,6,0,1.38.02,2.64-.43,3.9-.86,4-1.37,5.78-2.46,8.57-5.14.34-1.38,2.36-1.53,2.34-3.18,1.42-1.62,1.43-3.74,1.99-5.66.28-.96.41-1.97.62-3.06Zm80.01-22.73c-.24,2.14-.2,3.96-.7,5.62-.37,1.23-.35,2.59-1.27,3.72-.87,1.07-1.38,2.41-2.07,3.66.74.8,1.62,1.49,2.92,1.71,1.2.2,2.48.57,3.46,1.25,2.72,1.9,5.29,4.01,7.95,6.05,1.47-1.76,3.47-2.9,5.59-3.83.94-.41,1.19-.99.91-1.81-.85-.73-1.97-1.25-2.34-2.09-.62-1.4-1.65-2.35-2.61-3.41-.53-.59-1.07-1.15-1.53-1.84-1.07-1.61-2.35-3.15-3.82-4.4-1.97-1.66-4.2-3.02-6.49-4.63Zm-106.79,178.8c2.69.28,4.43-1.15,6.42-1.39,2.24-.27,3.61-2.11,5.63-2.66.13-.3.17-.67.37-.86,1.42-1.32,2.2-3.06,3.15-4.68.96-1.64,1.19-3.55,1.5-5.33.39-2.23.09-4.59.09-7.09-1.05,1.18-1.95,2.16-2.8,3.17-.35.41-.58.92-.89,1.37-.46.65-.86,1.36-1.42,1.89-1.89,1.8-3.83,3.56-5.79,5.29-.77.68-1.59,1.34-2.48,1.84-1.14.63-2.29,1.25-3.49,1.79-1.75.79-3.22,2.2-5.31,2.27-.3.01-.59.5-.96.84.81,1.4,1.46,2.82,2.39,4.03.47.61,1.45.82,2.01,1.11.64-.65,1.16-1.16,1.58-1.58Zm13.22,2.36c2.19-.28,3.6-1.45,4.77-2.9.58-.72.91-1.62,1.44-2.39,1.8-2.59,2.89-5.4,2.73-8.6-.11-2.1-.32-4.19-.49-6.28-.01-.15-.02-.35-.11-.45-.77-.78-.19-1.69-.44-2.53.53-.28.92-.48,1.56-.82,0,1.01-.28,1.92.05,2.43,1.14,1.78.89,3.7.94,5.61.01.38.26.78.22,1.14-.11.94.5,1.8.26,2.72-.29,1.12-.6,2.24-1.01,3.32-.42,1.12-.97,2.18-1.46,3.28,1.2.62.83-1.34,1.82-.93,1.48-2.02,2.18-4.42,3.16-6.67.24-4.09-1.15-7.71-3.25-11.15h-4.75c0,1.37,0,2.68,0,3.99,0,1.28-.16,2.52-.42,3.8-.3,1.48-.93,2.8-1.31,4.2-.4,1.46-.78,2.93-1.8,3.98-1.38,1.41-2.08,3.38-4.03,4.35-1.01.5-1.92.91-3.04,1.15-1.48.31-2.86,1.11-4.43,1.76.27.22.56.46.89.73,2.82,0,5.64,0,8.46.01.12,0,.24.22.24.23Zm-19.84-7.51c1.19-.81,2.35-1.03,3.31-1.75.41-.31,1-.38,1.52-.52,1.05-.28,2.11-.44,2.99-1.23.8-.72,1.9-1.11,2.72-1.81,1.83-1.56,4.02-2.69,5.6-4.55,1.1-1.29,2.15-2.65,3.37-3.82,1.05-1,1.51-2.18,1.76-3.52.02-.13-.09-.29-.13-.42-.58-.16-1.15-.32-1.5-.41-1.54.2-2.63.99-3.63,1.84-1.81,1.54-3.68,2.91-6.03,3.52-.5.13-.97.51-1.37.87-.38.34-.79.44-1.26.59-1.42.46-2.88.72-4.3,1.08-1.69.43-3.32.95-4.89.87-.4.33-.65.54-.88.73.42,1.89.82,3.72,1.28,5.81.34.64.82,1.53,1.45,2.72Zm29.5-32.91c-.85,1.7-1.52,3.08-2.22,4.46-.7,1.37-1.42,2.73-2.13,4.08-.4.19-.8.37-1.19.56-.92-1.39,1.48-1.94.84-3.26.61-1.08,1.29-2.12,1.82-3.24.48-1.02.8-2.13,1.23-3.32-1.08-.03-1.89-1.11-3.15-.28-.56,1.36-1.11,2.88-1.82,4.33-.7,1.43-1.53,2.8-1.76,4.39-.35-.06-.51-.09-.74-.13v-2.44c.93-2.13,1.4-4.26,2.4-6.17.1-.2.03-.49,0-.74-.01-.15-.09-.29-.15-.46-.64-.23-1.29-.47-1.85-.67-.97.66-1.35,1.42-1.65,2.41-.25.83-.35,1.87-1.3,2.48-.36.22-.39.95-.56,1.42.54.31,1.02.59,1.56.9-.12,1.11.23,2.22-.43,3.28.66,1.04,1.33,2.09,1.95,3.07,2.36-.05,4.29,1.22,6.52,1.05,2.23-.17,4.48-.04,6.71-.04,1.41-3.03,2.28-6.27,4.24-9-.56-1.68-2.42-.46-3.1-1.57-.73.7-1.33,1.27-1.77,1.69-.9,3.38-2.73,5.98-4.87,8.72-.15-.55-.32-.82-.26-.99,1.32-3.28,3.36-6.22,4.36-9.76-.75-.22-1.64-.48-2.67-.78Zm85.16-145.55c1.08-.42,1.81-.67,2.51-.98.71-.3,1.4-.63,2.08-1,.68-.37,1.72-.66,1.91-1.22.32-.93.98-1.15,1.46-1.43.34-.7.68-1.23.87-1.8.19-.59.1-1.32.4-1.82.53-.87.35-1.51.04-2.42-.29-.86-.22-1.94-.81-2.65-1.79-2.16-4-3.63-6.96-3.62-2.07,0-4.13,0-5.68,0-4.48,1.67-7.26,4.49-9.12,8.3v2.75c2.12,3.22,5.23,4.44,8.36,5.61,1.75.66,3.57.12,4.92.28Zm-82.34,161.72c.64,1.17.59,2.53,1.65,3.44.16.14.27.39.31.61.35,2.02.7,4.03.99,6.06.08.55.08,1.17-.09,1.7-.94,3.01-2.24,5.84-4.57,8.06-.65.62-.92,1.57-1.89,1.94-1.11.43-.86,1.69-1.41,2.79,1.23-.26,2.28-.48,2.98-.63,3.12-2.31,5.45-4.92,7.16-7.51.5-1.15.83-1.92,1.27-2.95-.1-1.88,1.48-4.04-.03-6.16,1.1-.95.34-2.11.52-2.69-.65-1.78-1.18-3.22-1.71-4.66h-5.19Zm-34.92,6.11c1.88-.29,3.64-.42,5.32-.85,1.7-.44,3.35-1.13,4.99-1.78,1.57-.62,3.35-1.03,4.59-2.07,1.29-1.08,2.96-1.76,4.18-3.56-5.53,1.1-10.77.46-15.65.66-.97-.45-1.65-.76-2.35-1.08-.8,2.86-1.48,5.55-1.09,8.68Zm163.09-135.37c2.2-1.99,4.95-2.69,7.75-3.15-.89-1.76-2.81-.04-3.77-1.34h-4.49c-1.41,0-2.83-.06-4.24.02-1.43.08-2.86.29-4.29.49-1.33.19-2.65.44-4.1.69-.19.19-.48.48-.64.64-3.77.58-7.1,1.9-10.37,3.51.64.1,1.27.11,1.87-.03.98-.22,1.92-.63,2.91-.79.81-.13,1.66-.03,2.49-.03s1.7-.14,2.49.04c.84.19,1.51-.43,2.39-.18.66.19,1.48-.28,2.24-.34.83-.07,1.67-.08,2.49,0,.77.08,1.52.42,2.29.46,1.66.07,3.33.02,4.98.02Zm-173.64,149.29c-.08-.57-.04-.78-.13-.88-1.96-2.17-3.3-4.38-4.38-7.39-.27-.74-.46-1.51-.73-2.39-.87.69-1.69,1.12-2.21,1.78-1.58,2-3.98,2.99-5.7,4.8-1.24,1.31-2.89,2.02-4.55,2.78.19.36.3.55.32.59.96-.11,1.94-.52,2.6-.22.65.3,1.23.32,1.85.33,1.16.04,2.32-.02,3.48.02.63.02,1.26.22,1.89.22.64,0,1.41-.42,1.91-.18,1.82.85,3.66.23,5.65.53Zm11.24-24.52c1.22.52,1.81,1.01,2.34.95,2.39-.26,4.66.58,7.02.55,1.29-.01,2.43-.71,3.78-.56,1.5.17,3.07.23,4.52-.45.19-.09.39-.18.77-.35-.31-.63-.58-1.18-.81-1.65h-3.67c-.72-.47-1.52-.74-2.33-.99-2.94-.91-5.96-1.64-8.41-4.19-.59,1.98-1.46,3.63-1.61,5.86-.22.11-.66.34-1.59.83Zm4.23-7.82c1.06.74,2.05,1.38,2.97,2.1,1.13.88,2.48,1.33,3.8,1.68,1.9.49,3.88.68,5.97,1.02.23-.25.54-.59.79-.86-.5-1.44-1.4-2.09-2.62-2.67-2.1-1.01-4.44-1.72-5.99-3.68-.19-.25-.73-.22-1.48-.42-.23-.29-.68-.86-1.13-1.44-1.33,1.33-2.73,2.41-2.32,4.26Zm-6.13,7.15c-.86-1.31-2.36-.41-3.31-1.41-.86-.9-2.29-.79-3.42-1.34-1.01-.49-2.31-.37-3.39-.51-.77,1.37-1.53,2.72-2.36,4.19.64.25,1.25.61,1.9.71,1.58.24,3.19.34,4.78.54.37.05.71.29,1.07.41,1.75.53,3.52.84,5.5.39-.47-.92-.86-1.67-1.24-2.42.2-.24.36-.42.47-.55Zm-7.08,21.21c2.68-.09,5.39-.17,8.1-.27.03,0,.05-.14.08-.23-.58-1.43-1.24-2.85-.98-4.48h-10.65c.41,2.17,1.91,3.4,3.45,4.97Zm9.74-26.31c-2.88-2.05-6.21-2.58-9.16-3.69-.77,1.14-1.51,2.23-2.32,3.42,1.63.73,3.1,2.15,5.23,2.06.27-.01.54.27.83.36,1.38.42,2.77.81,4.17,1.22.44-1.19.82-2.2,1.25-3.37Zm48.43,19.99c0-3.33-.03-6.64.02-9.95.02-1.06-.13-2-1.07-2.93-1.29.62-2.65,1.27-4.02,1.92.35,1.24,1.59,1.15,2.15,1.77.63.7,1.69,1,1.95,1.86-1.61,1.61-3.13,3.12-4.58,4.57,1.21,2,3.24,2.42,4.87,3.45l.69-.69Zm111.14-153.5c-1.35.6-2.4,1.05-3.43,1.54-1.11.52-2.21,1.08-3.84,1.88-.68.58-1.84,1.47-3.21,2.18-1.26.65-2.35,1.67-3.7,2.15.08.33.11.48.17.74.95-.49,1.88-.96,2.76-1.42,2.55-.18,5.06-.35,7.57-.56.28-.02.53-.45.79-.45.52,0,1.04.15,1.71.26.06-.06.29-.29.42-.42.25-1.95.48-3.78.75-5.89Zm-154.94,124.47c-3.03-1.36-5.49-3.71-9.17-3.7-.37.95-.74,1.86-1.12,2.84,2.83,1.44,5.56,2.84,8.24,4.21.63-1.03,1.23-2.01,2.05-3.35Zm39.16,44.52c.62-.58,1.17-1.03,1.64-1.56.31-.34.43-.85.76-1.17,1.66-1.66,2.43-3.79,3.26-5.89.62-1.55,1.21-3.11,1-4.83.97-.88.16-2.09.54-3.02.42-1.02.39-2.02.47-3.05.27-3.12-.43-6.18-.53-9.28,0-.14-.15-.27-.25-.43-.21.04-.44.08-.74.14,0,1.38-.35,2.83.1,3.98.46,1.16.27,2.23.4,3.33.06.5.03.99-.48,1.3.43.33.53.76.49,1.28-.04.58.03,1.17-.02,1.75-.03.41-.38.93-.23,1.18.41.64-.25.96-.32,1.44-.41,2.84-1.11,5.62-2.42,8.22-.34.68-.49,1.46-.79,2.37-.59.46-1.78.93-1.99,1.67-.23.84-1.77,1.17-.89,2.6Zm-51.45-40.53c1.74.55,3.31.65,4.32,1.46,1.23.99,2.64,1.27,3.98,1.96.19-.39.33-.75.54-1.05.26-.38.59-.72.9-1.09-1.22-1.52-3.1-1.7-4.43-2.85-.98-.85-2.5-1.09-3.87-1.64-.87.76-1.69,1.56-1.87,2.77l.43.43Zm47.12,4.35c.21,1.37-1.53,1.76-1.88,3.03-.31,1.13-.84,2.2-1.23,3.61.81-.3,1.29-.56,1.8-.64.54-.09,1.12-.02,1.62-.02.66-1.68,1.4-3.11,2.66-4.28.67-.62,1.12-1.47,1.82-2.42-1.06-.57-1.92-1.03-2.62-1.41-.83.81-1.46,1.43-2.16,2.13Zm-37.65,32.8c-.58-.97-1.13-1.89-1.69-2.82-1.16-.88-2.59-.83-3.96-1.13-1.44-.32-2.78-.38-4.6-.38,2.85,3.17,6.31,4.02,9.8,4.78.16-.16.27-.27.45-.45Zm-4.94-47.51c.08.22.11.48.24.65.94,1.13,2.38,1.41,3.6,2.07.94.51,2.07.53,2.92,1.38.47.47,1.37.51,2.14.76.31-.95.54-1.67.77-2.38-1.84-.84-3.77-.96-5.27-2.15-1.47.08-2.83-1.2-4.42-.34Zm44.59,41c1.44,1.11,2.52,1.96,3.58,2.77,1.67-1.42,2.23-3.11,2.38-4.98-1.92.71-3.7,1.37-5.96,2.2Zm68.76-123.7h1.49c.54-1.17,1.02-2.21,1.54-3.33-.24-.24-.65-.65-1.11-1.11-.45.93-1.3.37-1.88.53-.66.63-1.26,1.2-1.82,1.74v.97c.62.42,1.21.82,1.78,1.2Zm6.6-1.15c-.24-.46-.45-.87-.65-1.25h-.78c-.76.66-1.38,1.21-1.78,1.56-.28.92-.47,1.57-.71,2.36.78.4,1.52.78,2.33,1.19.59-1.43,1.11-2.69,1.6-3.86Zm-110.51,91c.78.73,1.4,1.32,2.04,1.91,1.51-1.31.9-3.58,2.06-5.22-.42-.25-.8-.48-1.12-.67-1.07,1.43-2.05,2.73-2.99,3.98Zm35.67,23.6c1.13-1.07,2-1.89,2.92-2.75-1.02-.74-2.12-1.53-3.23-2.34-2.01,1.96.69,3.32.32,5.09Zm.47,17.18c-1.24-1.6-2.98-.47-4.86-.82,1.01,1.41.72,3.18,2.2,3.48.95-.94,1.74-1.74,2.66-2.66Zm63.81-133.54l2.96-2.96-.48-.48h-1.87c-.97.53-2.19.64-1.94,1.88.52.6.98,1.14,1.34,1.55Zm-66.74,129.42v1.84c1.53-.03,2.97.03,4.46-.04-.87-.93-1.6-1.72-2.27-2.44h-1.54c-.26.26-.5.49-.64.64Zm14.83-68.03c.02.12.05.23.07.35-.56.33-1.13.66-1.59.93.45,1.09.83,1.92,2.07,2.11.43-.61.99-1.39,1.42-1.99-.24-.59-.38-.94-.53-1.29-.07-.03-.13-.1-.2-.1-.41,0-.82,0-1.23,0Zm3.08,7.74c1.38,1.06,1.72,1.04,3.01-.11-.42-1.1-.9-2.15-2.24-2.79-.22.36-.43.71-.77,1.29v1.62Zm-14.93,55.16c.83-.19,1.55-.26,2.17-.54.38-.18.6-.69.8-.95-.52-.63-.94-1.13-1.21-1.46h-1.76v2.94Zm62.32-130.64c-1.2.8-2.3,1.54-3.41,2.28.22,1.02.91,1.22,1.85,1.03.7-.85,1.7-1.49,2.28-2.52-.3-.32-.52-.56-.73-.79Zm14.89,8.6c-1.49.99-2.44,2.02-2.82,3.66h1.97c.15-1.21,1.43-2,.85-3.66Zm-20.2-7.33c1.4-1.05,2.42-1.82,3.52-2.65-.69-.32-1.17-.54-1.65-.75-.35.17-.71.31-1.03.51-.33.21-.63.48-.84.64v2.25Zm20.35,11.08c1.69,0,2.76.07,3.81-.03.44-.04.84-.43,1.75-.92-1.67-.29-2.73-.47-3.8-.66.07.15.13.3.2.45-.48.29-.97.58-1.96,1.17Zm-53.02,69.21v-2.25c-.37-.26-.69-.48-1.05-.74-.39.45-.69.8-.96,1.11.75.7,1.38,1.29,2.01,1.88Zm75.12-100.73c-.55,1.1-.84,1.69-1.21,2.45h2.08c-.25-.69-.46-1.3-.88-2.45Zm-25.2-52.92c.52.79.95,1.43,1.58,2.38-.09-2.61-.2-3.05-.71-3.23-.24.23-.47.46-.87.85Zm-80.84,212.32c-.41.75-.66,1.23-.97,1.79h1.96c-.31-.57-.57-1.04-.99-1.79Zm-6.99-2.95v.17h.5v-.17h-.5Z"/>
      <path d="m106.5,182.45c0,.49-.05,1.07,0,1.64.19,1.91-.36,3.48-1.89,4.72-.54.44-.93,1.06-1.58,1.8-.87.23-1.8,1.38-3.2,1-.47-.42-.94-.86-1.33-1.21-.07-1.53.81-2.36,1.72-3.23h2.12c.27-.84.55-1.71.86-2.69-.85-.64-1.6-1.21-2.36-1.79h-3.58c-2.7,1.78-6.09,3.18-5.11,7.87,1.25,1.57,2.22,3.78,4.45,5.03.59.33,1.27.31,1.72.67.97.77,2.11.02,3.05.51,1.01.52,1.93.68,2.92-.11.25-.2.81-.06,1.22-.03,1.8.14,3.43-.38,4.99-1.24.33-.18.74-.23,1.29-.38,1.51-1.19,3.03-2.62,4.1-4.5,1.1-1.91,1.87-3.95,2.07-6.12.18-1.98.11-3.99.01-5.98-.06-1.17-.39-2.34-.53-3.12-.72-1.92-1.32-3.5-1.93-5.11.35-.73.72-1.49,1.14-2.34.3-.15.71-.36,1.17-.6.51.53,1.08,1.13,1.65,1.73.07,1.39.48,2.72,1.01,4.04.58,1.45,1.06,2.95,1.03,4.57-.03,1.41.1,2.84-.03,4.24-.21,2.26-.41,4.54-1.5,6.6-.18.34-.46.7-.45,1.05.02.95-.45,1.63-.95,2.37-.65.95-1.17,1.99-1.67,2.85-.79.71-1.56,1.29-2.19,2-.92,1.05-2.2,1.54-3.29,2.31-1.18.83-2.51.82-3.77,1.2-2.35.71-4.68,1.02-7.1.93-.72-.03-1.41-.02-2.06-.49-.5-.36-1.06-.63-1.78-.56-.41.04-.99-.18-1.27-.48-1.11-1.21-3.06-1.52-3.58-3.34-1.62-1.27-2.46-3.08-3.43-5.55-.08-.77.61-2.03.96-3.39.5-1.91,2.11-3.08,2.67-4.9.19-.61,1.15-1.07,1.85-1.41,1.67-.8,3.14-2.22,5.32-1.79.29-.37.59-.76.99-1.27,2.46,1.03,4.95,1.83,6.26,4.5Z"/>
      <path d="m84.14,165.89c-.7-.95-1.44-2.07-2.3-3.08-1.49-1.75-2.02-3.86-2.3-6.02-.18-1.42-.21-2.91.4-4.34,1.01-.98,1.96-2.04,3.04-2.93,1.73-1.44,3.71-2.39,6.03-2.27.76.04,1.51.37,2.48.63,1.11,1.21,2.37,2.59,3.51,3.83v4.05c-.43.85-.77,1.54-1.05,2.09-.83.66-1.57,1.25-2.44,1.94-.26-.19-.57-.42-.93-.69v-2.09c.34-.65.66-1.27,1.02-1.98-.38-.82-.77-1.65-1.2-2.57-2.77-1.38-5.18-1.09-7.39,1,0,.43.05.93,0,1.41-.31,2.48,1.41,4.24,2.24,6.31,1.22.55,2.07,1.54,2.97,2.47.93.96,2.27.96,3.37,1.53,1.35.7,2.84.49,4.28.51.92,0,1.83,0,2.76,0,.98-.83,2.3-1.29,2.85-2.67.42-1.07,1.34-2.03,1.47-3.11.18-1.42.87-2.77.61-4.28-.17-.97-.1-2-.02-2.98.21-2.44-.85-4.68-1.06-7.06-.05-.55-.53-1.15-.96-1.57-1.17-1.16-1.07-2.75-1.43-4.14-.19-.73.33-1.65.54-2.51.63-.24,1.28-.48,2.11-.8.29.71.55,1.32.78,1.94.19.5.22,1.17.57,1.49,1.25,1.15,1.39,2.75,1.98,4.18.35.86.22,1.77.52,2.53.31.78.39,1.52.45,2.31.08,1.02-.39,2.14.48,3.04.04.04.02.16,0,.24-.2,1.01-.65,1.94-.53,3.04.1.93-.18,1.86-.38,2.8-.54,2.5-1.65,4.64-2.98,6.77-.71,1.14-1.68,1.88-2.57,2.79-1.66,1.71-3.68,2.08-5.9,1.97-1.6-.08-3.26.34-4.79-.49-1.24.37-1.83-.82-2.75-1.2-1.2-.51-2.26-1.34-3.47-2.09Z"/>
      <path d="m102.71,126.8c-.3.9-.51,1.57-.73,2.25-.86.46-1.73.94-2.91,1.58.03-2.5-.84-4.43-1.4-6.45-.11-.38-.15-.79-.16-1.18-.02-.91.02-1.83-.01-2.74-.08-2.34.41-4.56.91-6.84.42-1.91.85-3.8,1.38-5.68.54-1.92,1.57-3.53,2.67-5.14.44-.64.79-1.33,1.24-2.09,1.77-1.07,3.13-2.75,4.87-4.68,1.65-.4,3.09-2.35,5.42-2.73-3.03-.28-4.62-2.57-6.42-4.11-.21-1.63.13-2.91-.52-4.17-.55-1.06.33-2.16.55-3.23.2-.92,2.2-1.4,3.36-1.01.37.12.73.25,1.17.4.49-.61.95-1.18,1.28-1.59h1.92c.52,1.04,1.71,1.79,1.72,3.12.85.56,1.7,1.1,2.53,1.69.85.6,1.66,1.23,2.41,1.8v2.22c-.48,1.6-1.66,2.52-1.47,3.97.38.14.67.24,1.09.39-.21.7-.41,1.36-.61,2.02-.13.08-.26.17-.39.25-1.43.85-2.96,1.31-4.62,1.55-1.35.2-2.79.47-4.02,1.72v2.21c-1.23.07-1.37-.82-1.61-1.48-.64.38-1.18.7-1.72,1.02.02.17,0,.31.05.4.48.71.97,1.41,1.52,2.22-.41.35-.71.61-.99.85-1.07.08-1.07-.84-1.46-1.54-.54.23-1.09.46-1.79.75.09.41.06,1.14.3,1.24,1.09.48,1.31,1.72,2.34,2.28-1.28.69-2.01-.25-3.04-.73h-1.42c-.25.69-.52,1.41-.81,2.19,1.17.51,2.21.97,3.44,1.5-.43.58-.71.95-1.02,1.37-.97-.36-1.9-.72-2.95-1.11-.24.42-.49.86-.77,1.34.69.63,1.45,1.12,2.47,1.22.77.07,1.56.25,2.26.55.37.16.57.7.91,1.14-2.32.99-4.42-.75-6.59-.11-.11.81-.32,1.62.61,2.31h3.22c.72.37,1.13.58,1.51.77v1.28h-5.26c-.26.98-.41,1.84.63,2.52,1.58-.21,3.24-.43,4.88-.65.38.48.66.84.98,1.24-1.96,1.24-4.02.79-5.82.91-.37.31-.62.53-.9.76.35.89.69,1.75,1.01,2.6,2.02-.49,3.87-1.19,6.05-.77,0,.27.03.59-.01.89-.02.17-.13.46-.24.48-1.01.2-2.03.33-3.04.53-.68.14-1.35.35-2,.53Zm12.3-41.82c-.03-1.42.19-2.75-.99-3.68-1.33.55-1.28,1.95-1.77,3.2-.72-.99-1.34-1.82-2.06-2.81-.55.21-1.12.43-1.83.71.2,1.15.38,2.15.47,2.7-.18,1.08-.29,1.77-.43,2.62.81.49,1.6.96,2.65,1.59.34.82.74,2.04,1.86,2.5,1.07-.19,2.11-.71,2.72-.4.98.5,1.84.3,2.48.39,1.28-.62.71-1.6,1.01-2.39.62-.41,1.27-.85,2.05-1.36-.28-.76-.55-1.48-.71-1.92-1.16-.69-2.09-1.24-3.05-1.81-.71.2-1.45.4-2.4.66Z"/>
      <path d="m56.06,166.84c.34-.14.69-.19.9-.39,1.14-1.02,2.38-1.7,3.94-1.97,1.52-.26,2.92-.53,4.43.15.68.31,1.63.05,2.75.05.92.87,2.16,1.74,2.97,2.9.59.84,1.54,1.93.59,3.19-.09,2.42-1.85,3.8-3.37,5.37h-1.04c-.2-.6-.42-1.24-.71-2.11.6-.99,1.33-2.18,2.13-3.5-2.32-1.87-4.81-2.83-7.95-2.24-.58.94-1.9.88-3.03,1.56-.28.42-.68,1.01-1.26,1.87.19,1.35.42,3.01.63,4.5.56.83.98,1.61,1.57,2.25.47.51,1.05.9,1.7,1.26,1.38.78,2.99.85,4.29,1.74.64.44,1.22.16,1.69-.3,2.97.95,5.91.4,8.86-.02,2.96-.42,5.41-1.9,7.85-3.94.47-1.2,1.13-2.66,1.59-4.24.31-1.06.89-2.55,2.64-2.31.9,1.87.95,1.89.25,3.95-.43,1.25-.72,2.63-1.96,3.19-.03.55-.04.87-.06,1.32-1.57,1.34-3.15,2.75-4.8,4.08-.53.42-1.2.73-1.86.92-1.74.49-3.52.82-5.31,1.12-2.12.36-4.23.59-6.3.33-2.69-.33-5.53-.18-7.97-1.86-.44-.3-.92-.6-1.34-.94-.74-.6-1.32-1.35-2.23-1.83-.68-.36-1.02-1.37-1.61-2.23-.16-.88-.43-1.96-.53-3.06-.1-1.16-.07-2.33,0-3.49.06-1.02.49-1.94.98-2.83.48-.88,1.6-1.36,1.57-2.5Z"/>
      <path d="m112,137.24c.07,1.54,1.35,2.26,2.34,2.94,2.05,1.41,4.33,2.45,6.91,2.55.96.04,1.79,1.01,2.91.15.72-.56,1.89.17,2.74-.61.26-.24.94-.04,1.54-.04.24.51.46,1,.6,1.3-1.07,1.07-2,2-3.13,3.13-.54.09-1.46.23-2.66.42-.29-.07-.92-.41-1.48-.33-2.01.31-3.75-.62-5.54-1.16-.84-.25-1.69-.69-2.57-1.01-1.59-.58-3.03-1.58-3.95-2.99-.44-.67-1.01-1.22-1.49-1.79-1.33-1.58-1.81-3.37-2.31-5.31-.37-1.46-.32-2.7.03-4.1.21-.87.42-1.65.99-2.34.55-.66,1.08-1.36,1.06-2.3.54-.07,1.11.17,1.62-.33.44-.43,1.02-.72,1.68-1.16,2.26,0,4.67-.06,7.06.03,1,.04,2.22.09,2.93.66.75.59,1.89.73,2.29,1.95.22.66,1.3,1.04,1.98,1.53-.29.85-.42,1.66-.83,2.28-.43.65-1.14,1.12-1.82,1.76-.48-1.15-.89-2.13-1.17-2.81-1.32-.56-2.28-1.09-3.3-1.38-1.06-.3-2.16.12-3.32-.43-.89-.42-2.09.42-3.24.5-.98.07-1.91.96-2.85,1.48-.14,3,.21,5.69,2.98,7.41Z"/>
      <path d="m119.68,103.55c-.39.66-.76,1.34-1.17,1.99-1.18,1.84-1.91,3.85-2.54,5.94-.48,1.6-.67,3.44-2.72,4.48-.28-.55-.58-1.15-.88-1.76-.75-1.48-.02-3.07.66-4.7.75-1.77,1.42-3.57,2.31-5.81.62-.67,1.83-1.52,2.19-3.06.1-.41.64-.73.98-1.08.41-.42.78-.88,1.25-1.22.37-.28-.01-1.1.78-1.01.68-1.17,1.6-2.11,2.92-2.48,1.22-.34,1.92-1.72,3.34-1.58,1.29-1.41,3.46-.97,4.8-2.28.1-.1.3-.16.43-.14,2.22.35,4.34-.58,6.54-.52,2.16.06,4.37-.25,6.48.1,1.61.27,3.2.34,4.8.44.51.03,1,.38,1.56.62v2.17c-.51.51-1.04,1.03-1.74,1.73-1.09-.2-2.36-.28-3.52-.67-1.6-.54-3.18-1.01-4.88-.87-.85.07-1.7.27-2.61.42-.11-.1-.29-.27-.61-.56-.95,1.32-2.52.21-3.78.98-.81.5-1.97.43-2.97.66-.37.09-.7.33-1.06.45-2.21.74-4.17,1.99-6.24,3.02-1.53.77-2.15,2.27-3.05,3.55-.29.42-.72.74-1.08,1.11-.07.03-.15.05-.22.08Z"/>
      <path d="m116.62,148.28c1.93-.35,3.28.65,4.72,1.49,1.36.79,2.42,1.87,3.5,2.98.22,1.07.77,2.21.56,3.2-.21,1.01-.4,2.01-.41,3.12-1.65,1.7-3.31,3.43-4.89,5.06h-3.96c-1.05-.68-2.3-1.49-3.8-2.46,0,0-.32,0-.63,0-.72-1.39-1.44-2.76-2.14-4.1.15-.36.38-.69.4-1.03.18-2.57.91-4.76,3.44-6.05,1.18-.6,2.2-1.51,3.19-2.21Zm-3.67,7.42c.37,2.07,1.83,3.07,3.55,4.06,1.58.91,3,.35,4.27-.19,1.1-.47,1.38-1.86,1.23-3.13-.02-.16,0-.32,0-.28-1.24-2.8-3.57-3.8-6.37-4.48-.86,1.29-1.75,2.64-2.68,4.04Z"/>
      <path d="m95.8,142.2c-.28.01-.6.03-1.12.05-.88-2.28-1.77-4.61-2.6-6.77.21-.96.39-1.79.61-2.79.6-.23,1.31-.5,2.13-.82,1.32.41,2.15,1.43,2.45,2.9.06.3.29.66.2.89-.3.74-.52,1.45-.51,2.28,0,.75-.27,1.52-.47,2.26-.18.66-.45,1.3-.69,2Zm-1.99-7.95c.95.88.67,2.45,1.14,3.64.08.31.16.62.24.93.1-2.02.92-3.99-.88-5.95-.19.53-.33.93-.5,1.39Z"/>
      <path d="m111.9,136.73c-.31-.81-.71-1.89-1.07-2.82.56-.81.96-1.38,1.44-2.07.67-.32,1.5-.72,2.55-1.23,1.48.71,3.07,1.48,4.61,2.22v1.85h-1.27c-.27-1.59-1.68-1.87-2.84-2.27-.52.15-1.03.3-1.68.49-.21.72-.47,1.61-.73,2.48,1.06,1.09,1.96,2.19,3.56,2.39.83.11.88.41.91,1.89-2.08-.21-3.7-1.4-5.49-2.93Z"/>
      <path d="m101.5,95.07v-2.5c.58-.57,1.17-1.16,1.77-1.74h2.73c.53,1.24,1.11,2.57,1.62,3.78-1.72,2.89-4.33,2.77-6.12.46Zm1-.5c1.19.55,2.31.94,2.67.72.38-.22.64-.65.98-1.01-.33-.76-.6-1.38-.93-2.15-.97.29-1.86.55-2.72.8v1.63Z"/>
      <path d="m100.75,98.93c.48.69.87,1.26,1.25,1.81-.43,1.74-1.63,2.62-3.3,2.94-1.2-.39-2.45-.91-3.19-2.21-.22-1.14.34-2.08,1.15-3.14,1.31.07,2.74-.32,4.09.6Zm-.65,2.54c-.14-.38-.17-1.01-.48-1.21-.7-.44-1.53-.68-2.46-1.06-.3.57-.57,1.11-.88,1.7.6.55,1.07.99,1.5,1.38h1.48c.27-.26.5-.49.84-.82Z"/>
      <path d="m93.01,109.64v-2.59c.43-.43.83-.85,1.23-1.25h1.52c.76.55,1.53,1.11,2.23,1.61v2.19c-.81.57-1.65,1.15-2.49,1.74-.83-.56-1.6-1.09-2.5-1.7Zm3.64-.64c-.56-1.13-1.16-1.44-2.05-1.07.04,1.43.3,1.87.9,1.87.45-.31.78-.53,1.15-.79Z"/>
      <path d="m92.26,119.78c-.59-.59-1.18-1.17-1.76-1.75.79-.52.4-1.33.51-1.94l1.94-1.94c.84.57,1.74,1.17,2.4,1.62.41,1.31-.02,2.23-.6,2.94-.59.72-1.47,1.18-2.49,1.07Zm2.38-2.37c-.87-.44-1.24-.63-1.52-.77-.16.19-.54.65-.92,1.1.19.16.48.41.33.29.73-.21,1.22-.36,2.11-.62Z"/>
      <path d="m90.39,127.14c.17-.78.38-1.76.57-2.65.62-.29,1.11-.51,1.61-.74.59.34,1.19.69,1.84,1.06v3.24c-.55.48-.94,1.46-2.21,1.17-.45-.52-.98-1.13-1.81-2.08Zm1.35-.94c-.12.14-.24.29-.36.43.28.38.56.75.8,1.07.35-.28.59-.47.95-.76-.53-.28-.96-.51-1.39-.74Z"/>
      <path d="m147.66,138.15c-.32-.32-.73-.73-1.34-1.34.7-.21,1.33-.64,1.83-.51.78.2,1.02.95.77,1.85h-1.26Z"/>
      <path d="m153.31,131.29c-.51.47-.8.74-1.2,1.12-.4-.31-.77-.6-1.26-.98.34-.45.66-.86,1.09-1.43.47.45.81.76,1.37,1.29Z"/>
      <path d="m142.69,131.22c.51-.47.8-.74,1.2-1.12.4.31.77.6,1.26.98-.34.45-.66.86-1.09,1.43-.47-.45-.81-.76-1.37-1.29Z"/>
      <path d="m152,135.35v1.26h-2.06c.2-1.24.88-1.52,2.06-1.26Z"/>
      <path d="m146.96,127.77v1.4h-1.97c.07-1.23.79-1.47,1.97-1.4Z"/>
      <path d="m145.85,135.7h-1.66c-.47-.8-.14-1.36.65-2.02.3.6.57,1.15,1,2.02Z"/>
      <path d="m148.58,127.54c.79.31,1.39.55,2.47.98-1.09.41-1.7.64-2.47.93v-1.91Z"/>
      <path d="m148,133.12v-1.26c.43-.04.87-.08,1.41-.13v1.39h-1.41Z"/>
      <path d="m148.59,196.2c.23-1.47.37-2.39.54-3.44.3-.3.71-.71,1.24-1.24.91.18,1.91.37,2.77.54,1.13,1.36.82,2.85.86,4.22-.4.53-.77,1.03-1.38,1.84-.25.1-.89.35-1.74.69-.83-.95-1.66-1.89-2.28-2.6Zm2.76.87c1.46-1.78,1.45-2.12.39-3.31-.43.22-.84.43-1.24.64v1.5c.11-.1.21-.2.32-.31.15.41.29.82.52,1.48Z"/>
      <path d="m167.45,173.18c.4,0,.81,0,1.23,0,.38,1.12,1.75,1.22,2.34,2.49.16,1.81-1.15,2.97-2.7,3.94-.61-.28-1.7-.51-1.72-.83-.08-1.12-1.59-.31-1.69-1.36.22-.98.43-1.97.66-2.98.54-.36,1.12-.75,1.89-1.26Zm1.71,3.67c-.26-.42-.54-.73-.64-1.08-.1-.39,0-.82-.04-1.23,0-.12-.17-.23-.26-.34-.41.41-.82.82-1.23,1.22v1.55c.34.26.71.54,1.09.82.41-.36.71-.63,1.07-.95Z"/>
      <path d="m167.51,183.92v-2.24c.76-.69,1.41-1.29,2.22-2.03.83.33,1.9.76,3.17,1.27.14.29.41.84.64,1.3-.16,1.64-1.35,2.44-2.25,3.41-1.64.27-2.76-.59-3.77-1.71Zm3.34-2.69c-.98-.12-1.94-.25-2.41.96.42.7.82,1.37,1.19,1.97.46,0,.85.11,1.11-.03.34-.17.57-.53.9-.86-.28-.73-.53-1.37-.78-2.04Z"/>
      <path d="m202.5,248.3v-.68c.7-.03,1.47.11,2.11-.13.62-.23,1.05,1.02,1.62.06.3.25.59.5,1,.84-.39.47-.68.82-.96,1.16-1.29-.43-2.53-.84-3.76-1.26Z"/>
      <path d="m203,240.03c-1.06.23-1.95.42-3.39.73.51-.71.64-1.01.87-1.2.84-.72,1.71-1.4,2.58-2.11,1.11.92-.15,1.61-.06,2.58Z"/>
      <path d="m205.87,243.96h-3.3c-.03-.1-.07-.2-.1-.31,1.08-.48,2.15-.97,3.4-1.52.11.2.3.53.58,1.05-.11.15-.39.52-.58.78Z"/>
      <path d="m147.24,110.29h-3.59c-.35-.54-.73-1.13-1.08-1.67-.41-2.38.1-4.39,2.32-5.81h2.75c.54.41,1.04.78,1.53,1.15.41.18.96,3.42.66,3.72-.87.86-1.08,2.39-2.59,2.61Z"/>
      <path d="m226.97,70.17c.23-1.23-1.05-2.08-.25-3.35.55-.88.58-2.08.91-3.4.4-.38,1.01-.94,1.6-1.52.72-.7,1.56-.97,2.57-1.04,1.43-.09,2.84-.38,4.27-.58,1.82,1.32,3.72,2.44,4.93,4.35,0,1.33,0,2.65,0,4.23-1.03,1.11-2.15,2.38-3.36,3.57-.29.29-.87.27-1.3.45-.28.12-.58.51-.79.46-1.11-.28-2.01.49-3.04.53-1.42.06-2.98-.84-4.04-2.22-.44-.58-1.05-1.03-1.51-1.48Zm7.83-5.82c-1.5.29-2.51.48-3.73.71-.23.23-.64.65-1.04,1.04-.32,2.29,1.01,3.28,2.64,3.64,1.24-.19,2.17-.34,2.87-.45.84-.83,1.58-1.57,2.4-2.39-1.04-.85-2.16-1.76-3.13-2.56Z"/>
      <path d="m115.6,89.05c-.59-.47-.9-.72-1.32-1.06.33-.43.57-.73.85-1.09.47.23.92.45,1.52.74-.34.45-.65.87-1.05,1.4Z"/>
    </g>
  </g>
</svg>
