<?xml version="1.0" encoding="UTF-8"?>
<svg id="Layer_2" data-name="Layer 2" xmlns="http://www.w3.org/2000/svg" viewBox="0 0 412.9 501.15">
  <g id="Layer_1-2" data-name="Layer 1">
    <style>
      path{
      fill:#5A82C5
      }
    </style>
    <style>
      @import url(../css/art.css)
    </style>
    <g>
      <path d="m244.81,268.1c.76.25,1.52.5,2.25.74-.85,2.61-3.33,4.05-3.66,7.23,2.76-1.77,4.46-3.66,5.36-6.37h1.99v3.53c3,.41,1.67-2.68,3.29-3.41.46.19,1.03.43,1.86.77.09.77.21,1.78.42,3.48,1.08-1.38,1.74-2.24,2.64-3.39.65.98,1.13,1.7,1.69,2.53h3.57c-.88-1.56-1.22-2.96.29-4.21.6.27,1.19.53,1.92.85.38,1.1.79,2.3,1.28,3.74.7-.52,1.33-.99,2-1.49-.37-1.07-.68-1.95-1.01-2.93.36-.12.75-.39.99-.29.86.33,1.68.79,2.73,1.31.75-1,1.67-2.23,2.73-3.64.57.14,1.59.08,1.83.49,1.19,1.99,3.4,3.06,4.53,5.4-.73.37-1.52.78-2.54,1.29-1.05-1.3-1.97-2.44-2.84-3.51-.86.86-1.47,1.47-2.28,2.28.79.94,1.62,1.93,2.43,2.9-.22,1.49-1.19,1.77-2.7,1.66-.42-.61-.93-1.36-1.49-2.17-1.21-.08-2.64-.43-3.37,1.4.28,1.1.59,2.31.94,3.69h-2.99v-1.67c-.75-.69-1.38-1.28-2.03-1.88h-3.53c.34,2.72.67,5.3.98,7.79-1.44.72-2.32.26-3.09-.95.43-2.64-.4-5.03-2.66-7.5-.6,2.92-.09,5.38-.44,8.1-.72.27-1.58.59-2.7,1.02v-8.06c-.75-.39-1.35-.71-2.02-1.07-.48.22-1.07.5-1.73.81-.02.03-.08.13-.15.23l-.1,5.79c.38,1.07.07,1.99-.86,2.53-.99.58-1.87.19-2.62-.81-.56-2.29-.01-4.61.88-7.54-1.98,1.44-3.44,2.5-4.6,3.35-.65,2.89-1.78,5.39-.3,7.93-.81,1.34-2.09,1.02-3.62.91.29-3.21-.66-6.48.85-10.12-.33-.13-.93-.36-1.43-.55-.34.66-.91,1.76-1.65,3.2.14,1.7-.05,3.7-1.8,5.22h-1.84v-4.01c1.71-2.55,1.8-5.91,4.31-8.19v-5.01c.61-1.02,1.41-1.74,1.39-2.43-.1-2.86,2.28-4.88,2.51-7.18-1.46-1.26-2.64-2.27-3.72-3.2v-3.55c1.36-.73,2.69-1.45,4.1-2.21,5.15-.92,9.04,2.4,13.44,4.15,1.17.6,2.53-.2,3.81.91.45.39,1.93-.43,2.93-.69,1.11-1.46,1.57-3.27.98-4.79-.73-1.87-1.87-3.75-3.69-4.89-2.16-1.36-4.1-3.09-6.98-3.11-1.24-.01-2.48-1.11-4.03-1.87v-2.32c1.83-1.48,3.21-3.93,5.81-5.05v-1.5c-1.55-1.77-3.81-3.11-3.73-6.05,2.37-.73,4.23-2.91,7.06-2.61.16.02.37-.29.54-.47,1.53-1.65,3.5-1.93,5.34-1.75.78-.61,1.44-1.51,1.91-1.42,2.03.39,3.37-1.09,4.96-1.7,1.17-.45,2.35-.97,3.5-1.47,1.82-.8,3.34-2.27,5.35-3.72,2.34,1.27,5.76.04,8.18,2.09,1.34.26,2.59.3,3.66.75,2.88,1.23,5.93,2,8.32,4.4,2.42,2.43,4.61,5.06,6.14,7.99.9,1.73,2.06,3.63,2,5.93-.06,2.08,1.7,3.89,1.43,6.12,1.68,3.11,1.57,6.49,1.48,9.82-2.17,2.74-1.39,6.72-4,9.34h-1.69c-.1-.24-.29-.47-.26-.66.22-1.52.05-3.32.82-4.51,2.12-3.29,1.17-6.84,1.41-10.29.11-1.62-.2-3.11-1.46-4.26-.2-1.65.13-3.29-.7-4.96-.64-1.3-.85-2.87-1.58-4.21-.78-1.42-1.41-2.93-2.28-4.29-.83-1.3-1.69-2.75-2.91-3.62-1.28-.91-2.45-2.33-4.31-2.2-.8-1.87-2.9-.87-4.1-1.85-1.42-1.17-3.13-1.04-4.47-1.01-1.33-.89-2.41-1.61-3.39-2.27-1.13.37-2.12.69-3.33,1.09.47.44.82,1.04,1.28,1.13,1.27.26,2.5.19,3.84.69,3.83,1.43,7.13,3.13,9.6,6.7,1.75,2.52,3.87,4.8,5.16,7.63.62,1.36,1.1,2.78,1.84,4.67-.49,2.39.94,5.12.94,8.09,0,2.96-1.42,5.7-.84,8.56l-1.54,1.54c.49,2.36-1.45,3.96-1.99,6.2.85.55,1.81.33,2.66-1.02,1.9,1.52,3.57,2.87,5.26,4.22v4.55c.83-.29,1.41-.49,2.29-.79,1.72.55,3.82,1.11,5.16,3.64v2.58c-2.36,4.32-6.29,7.01-10.91,8.87-.27.87-.54,1.75-.83,2.69h-5.5c-1.61,1.04-1.54,2.33-1.23,3.79h3.33c2.56,1.13,4.77,2.14,7,3.09,6.1,2.58,10.62,7.11,14.15,12.46,3.29,4.98,4.25,10.77,3.82,16.74-1.47,2.75-.2,6.17-2.2,8.84-.35.47-.05,1.42-.05,2.83,1.71-2.02,3.02-3.61,4.37-5.16,1.34-1.55,2.7-3.06,3.95-4.47-1.02-2.66-1.94-5.02-2.82-7.4-.16-.44-.27-.93-.24-1.39.12-2.43-.15-4.74-1.3-6.96-.41-.79-.19-1.92-.21-2.9-.03-1.61,0-3.22,0-4.8-2.37-1.94-5.67-2.34-7.43-5.3v-4.23c2.14-3.01,4.33-6.06,6.21-9.37-2.03-2.48-3.35-5.23-6.28-6.58-.62-.29-.89-1.33-1.5-2.31.37-.26.83-.58,1.45-1.01.84.43,1.83.94,2.83,1.45.78-1.88-.34-3.22-1.21-5.03v-4.36c.39-.28.99-.72,1.12-.82,1.19-3.09-1.67-4.21-1.95-6.5.28-.84.6-1.84,1.12-3.42.38-.29,1.27-.97,1.87-1.44.11-1.81-.19-2.81-1.78-3.09-.73-.13-1.39-.67-2.13-1.05,1.59-2.14,2.1-2.25,3.93-1.57,1.96.73,2.94,2.27,3.81,4.14-1.19,2.04-2.43,4.14-3.76,6.41.92,1.25,1.88,2.56,2.96,4.02v1.54c-.57.98-1,1.97-1.66,2.77-.95,1.14-.84,2.19-.14,3.33,1.18,1.94,1.58,3.9.33,6.01-.22.37-.03.98-.03,1.54.94,1.31,1.9,2.67,2.98,4.18v4.12c-2.26,3.12-4.4,6.19-6.36,9.64.98.76,1.74,1.36,2.85,2.23,2.31.4,4.34,2.02,6.52,5.56v5.51c0,1.25-.16,2.53.05,3.74.2,1.11.98,2.12,1.18,3.23.28,1.55.26,3.16.34,4.26.86,2.11,1.55,3.82,2.32,5.72-.44.85-.71,1.98-1.41,2.66-3.14,3.06-6.12,6.25-8.45,10.43v1.82c.95.85,1.56,2.34,3.35,1.87.82.88,1.67,1.79,2.74,2.94-.58.9-1.11,2.11-1.97,3.01-2.76,2.86-5.2,5.94-7.12,9.58v1.87c1.57,1.91,3.03,3.69,4.49,5.47,0,2.49,0,4.99,0,7.34,1.19,2.16,2.31,4.2,3.71,6.74q.04,2.89-2.05,6.72c.16,1.99-2.36,3.14-1.67,5.3-1.19,1.46-1.61,3.1-1.56,5,.02.94-.96,1.66-.44,2.96.7,1.73,1.26,3.21,3.43,3.35.53.03,1.03.49,1.8.88-.33.83-.66,1.69-.97,2.48h-2.84c-1.39-1.65-2.95-3.5-4.55-5.41v-4.84c1.65-4.69,3.25-9.16,5.85-13.68v-2.31c-.61-1-1.03-2.02-1.74-2.78-1.58-1.71-1.89-3.74-1.99-5.94-.07-1.41.65-2.98-.63-4.22.83-1.84-1.74-2.28-1.59-3.84-2.66-.99-2.2-3.29-2.24-5.37,0-.12,0-.25,0-.37,2.27-3.97,4.69-7.82,8.2-10.58v-1.86h-1.84c-1.11-1.33-2.17-2.59-3.38-4.04-.4.32-.86.68-1.42,1.12v2.84c-2.1,3.42-4,6.51-6.07,9.87,1.16.76,1.53,2.26,1.87,3.88-.15,1.14-.33,2.5-.49,3.73-2.93,4.14-6.2,7.9-9.66,11.51-.99,1.04-2.59,2.3-2.13,4.43,1.84,1.51,4.57,2.03,6.08,4.79-2.03,4.84-5.67,9.22-7.61,14.47v3.01c2.36,2.52,3.55,5.64,4.54,8.94.58,1.92.7,3.78.66,5.7-.03,1.79.04,3.53-.64,5.34-.74,1.96-.69,4.22-1,6.39-1.15.67-2.02.17-2.77-.81-.23-1.8.17-3.51.57-5.28.36-1.59,1.19-3.12.9-4.92-.25-1.58-.05-3.23-.05-4.66-.56-.96-1.53-1.86-1.4-2.56.38-2.01-1.08-3.18-1.87-4.51-1.44-2.43-2.74-4.56-1.32-7.55.47-.98.14-2.32,1.23-3.25.79-.67.61-1.89,1.23-2.86,1.19-1.85,1.87-4.04,3.59-5.64v-2c-1.78-.96-3.51-1.89-5-2.69-.68-3.09.52-4.96,2.25-6.87,3.01-3.32,5.75-6.88,8.77-10.56v-1.13l1.5-1.5c-.03-.76-.07-1.69-.13-2.89-2.47,1.06-2.89,3.37-4.15,4.96-1.4,1.76-2.69,3.62-3.98,5.46-1.23,1.74-2.36,3.56-3.56,5.3-1.16,1.68-2.23,3.53-3.32,5.33-1.09,1.79-2.23,3.56-3.15,5.43-.99,2-2.79,3.49-3.42,5.69-.59,2.06-2.45,3.35-3.09,5.47-.59,1.95-1.93,3.68-2.97,5.57,3.27,1.74,5.16,4.25,4.44,8.48-.84,1.4-1.85,3.1-2.87,4.8.79,1.25,1.6,2.53,2.35,3.72-.39,1.21-.71,2.21-1.16,3.64-.65.61-1.65,1.54-2.43,2.26-1.19,2.86,1.61,4.01,1.98,6.07-1.34,3.59-4.54,5.28-7.4,7.18.28,1.17.56,2.31.81,3.33-1.59,1.78-3.03,3.4-4.63,5.19-2.23-.07-4.96.58-7.18-1.43-1,1-1.97,1.97-2.94,2.94-2,0-3.99,0-5.93,0-.92-.9-1.81-1.76-2.7-2.62v-4.52c-1.84.01-2.8,1.38-4.03,2.57h-4.83c-1.33-1.1-3-2.47-4.69-3.87v-5.07c-1.03.3-1.9.76-2.75.73-.88-.04-1.75-.56-3.14-1.06-.7-.75-1.8-1.93-3.02-3.23v-5.31c-1.05.51-2.01.97-3.05,1.47-3.32-1.61-5.76-3.82-5.14-8.02-1.2-.44-2.29-.84-3.6-1.32q-2.48-4.6-1.55-9.32c1.7-1.53,3.5-3.15,5.23-4.71,4.51,2.34,4.26,6.41,4.44,10.46h4.93c.86,1.55,1.7,3.07,2.49,4.5-.34.98-.64,1.85-1.04,2.97h3.72c-.03,1.6,1.47,1.61,2.2,2.42.75.83,1.58,1.6,2.64,2.66v4.5c1.26-.84,2.1-1.41,3.34-2.24.46.47.93.97,1.65,1.72-1.28,1.11-2.24,1.94-3.75,3.25-.7,1.28-1.09,3.29.72,5.69.56.38,1.6,1.08,2.78,1.88.65-.43,1.21-.84,1.8-1.2.49-.3,1.02-.54,1.6-.85v-3.97c-.24-.22-.68-.62-1.32-1.2-.94.82-1.84,1.6-2.74,2.37h-1.81c-.03-.58-.06-1.06-.1-1.75,1.59-1.42,2.84-3.51,5.94-3.36,1.14,1.59,2.43,3.39,3.85,5.38,1.04-.95,2.11-1.94,3.33-3.06h2.43c.08.27.17.61.28,1.01.87.36,1.84.69,2.75,1.16.83.42,1.59.99,2.38,1.5.69-.84,1.39-1.69,1.85-2.25h4.81c-.75-1.81-1.42-3.46-2.17-5.28.21-.37.69-.85.73-1.37.11-1.49-.06-3,.07-4.49.12-1.41.82-2.84.65-4.18-.45-3.54,1.26-6.44,2.3-9.57,1.02-3.08,2.9-5.77,3.82-8.91.45-1.52,1.47-2.91,2.4-4.23,2.1-2.96,3.19-6.49,5.48-9.36.92-1.15,1.89-2.62,2.26-3.89.46-1.56,1.45-2.67,2.1-4.01.67-1.36,1.96-2.47,2.98-3.57,1.09-1.18.86-2.73,1.94-3.78.91-.89,1.51-2.09,2.23-3.17.78-1.17,1.44-2.44,2.32-3.52,3.3-4.04,5.6-8.74,8.83-12.85,3.02-3.83,4.39-8.62,6.09-13.18.73-1.95.67-4.12,1.94-5.95.48-.69.25-1.89.28-2.86.06-1.55-.03-3.05.71-4.58,1.63-3.34.82-6.84-.19-10.13-1.5-4.93-3.06-7.45-6.54-11.15-3.91-4.17-8.52-7.12-14-8.71-2.03-.59-4.05-1.3-6.19-1.31-5.99-.03-11.98-.07-17.97.02-1.77.03-3.54.45-5.3.72-1.64.25-3.46-.67-4.93.74-5.02-.6-9.68,2.18-14.73,1.54-1.84-.24-3.74-.06-5.61-.03-.97.01-2.3-.26-2.84.26-1.07,1.02-1.38-.99-2.16-.27-.07.06-.28-.04-.36.02-2.17,1.71-4.72,1.43-7.24,1.55-.96.05-1.89.81-3.29,1.45-1.12.2-2.77-.24-4.43.64-1.41.75-3.19-.04-4.95.66-1.62.64-3.74.4-5.61.91-4.7,1.27-9.52.61-14.43.79-3.14-2.47-7.29-3.37-10.49-5.96-1.99,0-3.48-1.25-5.12-2.1-.3-.16-.74-.28-1.03-.18-2.42.81-5.22.34-7.49,2.25-3.06-.68-5.69,2.13-8.14,1.58-1.88.61-3.06,1.11-4.29,1.37-1.94.41-3.53,1.93-5.65,1.75-1.79,1.7-4.65.82-6.39,2.65-2.02-.27-3.55,1.08-5.31,1.64-.77.24-1.47.7-2.71,1.31-1.02.22-2.65.48-4.22.95-1.26.38-2.45.8-3.82.77-.89-.02-1.79.44-2.68.7-1.45.41-2.96.7-4.33,1.29-1.38.6-2.64,1.5-4.3,2.48h-3.9c.41,3.12-.19,6.06.69,9.13.69,2.41.14,5.18.14,7.9,1.04.32,2.03.65,3.03.91,1.13.29,2.28.6,3.43.73,1.11.12,2.24.03,3.45.03,1.44.96,3,1.67,4.91,1.53,1.67-.12,3.31-.07,4.96.65,1.38.61,3.01-.38,4.61.68.95.63,2.67.02,4.03.15,1.8.17,3.66-.58,5.41.47,1.46.88,3.37-.44,4.87.94.41.37,1.45.06,2.19.06,6.11,0,12.23-.06,18.34.04,1.85.03,3.71-.1,5.26-.88,1.33-.67,2.55-.58,3.85-.65,2.65-2.06,5.65-3.76,6.95-6.88,2.24-1.38,4.56-1.09,6.79-1.42,7-1.04,14.02-.56,21.03-.69.48,0,1.06.07,1.43-.16,2.52-1.54,5.29-1.37,8.06-1.34,3.49.03,6.99.1,10.48-.02,4.52-.15,9.12,0,13.51-.87,3.58-.71,7.07-.29,10.57-.62,1.65-.16,3.29-.5,4.93-.73,1.65-.23,3.45.59,4.93-.75,5.18.56,10.28-1.24,15.4-.65,3.12.36,6.1,1.77,7.55,5.06.51,1.17,1.16,2.27,1.83,3.58.89,3.09-.56,5.9-2.21,8.51-.82,1.31-2.33,2.18-3.59,3.3-.63-.55-.99-.86-1.38-1.21.02-.17-.01-.38.08-.51,1.1-1.65,2.71-2.95,3.43-5.8.1-2.22.52-5.39-1.85-8.3-1.03-.4-2.43-.94-4.14-1.6h-4.57c.84,1.24,1.55,2.29,2.35,3.47v3.85c-1.93,2.07-4.02,4.29-6.1,6.53-1.99,2.14-3.98,4.29-5.85,6.31v4.84c.84.79,1.75,1.64,2.74,2.57h1.23c1.22,1.18,2.38,2.3,3.68,3.55.18,2.04.84,4.27.47,6.31-.59,3.23-.28,6.63-1.8,9.72-.4.81-.18,1.91-.36,2.85-.15.79-.62,1.53-.7,2.32-.15,1.54-1.13,2.88-.83,4.56.26,1.45-.04,2.99.08,4.48.13,1.54-.46,3.12.47,4.68.3.5-.45,1.64-.76,2.61h-1.65c-1.91-6.51-1.03-13.13-.22-19.15,2.09-5.85,3.33-11.26,2.82-16.99-2.11-1.66-4.29-3.31-6.4-5.05-1.88-1.55-3.01-3.49-2.44-5.93.59-1.06,1.16-2.06,1.72-3.06-.06-.03-.12-.06-.18-.09,1.09-1.43,1.9-3.36,3.34-4.16,1.82-1.02,2.91-2.6,4.34-3.89,1.33-1.19,2.39-2.68,3.5-3.95-.85-2.29-1.01-4.58-2.83-6.5-1.22.26-2.72-.46-4.27.55-1.29.84-3.09-.43-4.55.79-.54.45-1.98-.08-2.39.39-.93,1.05-1.14-.5-1.78-.26-.33.12-.9-.14-1.09.05-2.24,2.17-5.01,1.28-7.49,1.49-.55-.55-.99-.99-1.43-1.43-1.7.75-3.37,1.52-5.33,1.44-2.49-.1-4.99.06-7.48-.04-6.16-.25-12.24,1.33-18.41.77-2.79,1.18-5.75.59-8.62.79-.33,1.66-.64,3.27-1.03,5.24.42.84.99,1.97,1.52,3.04-2.04,6.62-5.88,8.76-10.01,6.69-.72-1.03-1.32-1.9-1.98-2.84v-4.36c.11.04.23.08.34.13.51-1.16.88-2.42,1.58-3.45.67-.99,1.69-1.76,2.83-2.9-1-.33-2.01-1.03-2.47-.76-1.99,1.13-4.07.56-6.1.65-2.36.1-4.73.02-7.06.02-2.42,2.42-4.8,4.8-7.49,7.49-.53,0-1.66-.35-2.14.06-2.22,1.87-4.79,1.36-7.29,1.45-.81.03-1.57.05-2.43.45-.94.44-2.33.14-3.46-.12-2.03-.46-4-.77-5.92.39-2.02-.96-4.08-1.14-6.21-.25-.43.18-1.07.41-1.36.23-2.05-1.32-4.31-.45-6.45-.71-1.89-.23-3.96-.1-5.63-.85-1.83-.82-3.57-.53-5.35-.62-1.99-.1-3.99-.02-5.99-.02-1.45-1.74-3.93.29-5.38-1.47-4.41.76-8.35-2.66-12.97-1.3v2.3c-.76.65-1.42,1.22-2.29,1.97-2.05-.15-4.51.5-6.74-.97-.55-.36-1.33-.47-2.02-.51-1.49-.07-2.99-.02-4.45-.02-.47.47-.91.91-1.51,1.51-2.39-.39-4.17.87-5.48,2.54.24,1.27.58,2.3.61,3.33.08,2.62.09,5.24,0,7.86-.06,1.76.25,3.33,1.63,4.74-.28,3.41-.54,6.93-.89,10.43-.08.79-.48,1.54-.72,2.31-1.3,4.2-.66,8.52-.72,12.79-.06,4.46-1.79,8.23-4.44,11.64-1.1,1.42-2.72,2.21-4.45,2.77-.98.32-1.89.88-3.13,1.48h-10.7c-.76,1.03-1.46,1.99-2.33,3.17-2.22-.27-4.47-.54-7.05-.84-.82-.99-1.76-2.14-2.79-3.39-.7.44-1.19.75-1.7,1.07-1.67-1.01-3.61-1.38-5.37-2.42-1.78-1.05-2.67-3.2-4.85-3.59-.94-2.74-3.88-3.86-5.13-6.47-.71-1.49-2.43-2.47-3.6-3.77-1.13-1.25-2.36-2.49-3.12-3.95-.69-1.32-2.33-2.21-2.02-4.02-1.65-1.03-1.45-3.15-2.73-4.53-1.39-1.49-2.16-3.57-3.26-5.49,0-.86,0-1.86,0-2.86-.44-.44-.88-.88-1.46-1.45v-3.13c-.12.03-.23.06-.35.09-1.14-2.9-2.25-5.81-3.46-8.67-.37-.88-.87-1.66-.74-2.7.2-1.62-.26-3.07-1.02-3.9-.73-2.95-1.09-5.56-2.04-7.92-.91-2.25-1.36-4.5-1.5-6.71-.93-1.43-1.65-2.78-1.4-4.44-1.76-2.07-1.64-4.8-2.53-7.19-.85-2.28-1.32-4.7-1.96-7.05-.09-.34-.02-.81-.22-1.02-1.63-1.69-1.24-3.81-1.28-5.82-1.3-1.17-1.55-2.65-1.52-4.28.01-.69-.21-1.4-.36-2.09-.97-4.36-1.95-8.71-3.02-13.48-.89-.81-1.16-2.29-1.1-3.92.03-.83-.16-1.56-.54-2.39-.78-1.71-1.2-3.63-.95-5.6.14-1.09-.14-2.07-.68-3.09-.48-.91.44-2.17-.55-3.15-.27-.27-.21-.9-.25-1.38-.26-3.52-.49-7.03-.78-10.55-.02-.23-.47-.42-.72-.63,0-.5,0-1,0-1.5.25-.19.5-.38.75-.57-.25-.31-.5-.62-.75-.93,0-10.98,0-21.97,0-32.95.25-.32.67-.62.72-.97.3-2.26.53-4.53.78-6.8,1.63-1.1.39-2.93,1.12-4.41.69-1.41.27-3.36.39-5.07.05-.82.06-1.57.45-2.43.65-1.47.9-3.18,1-4.81.17-2.74-.28-5.55,1.44-8.03.24-.34.12-.96.09-1.45-.09-2.06.74-3.92,1.25-5.85.59-2.25,1.43-4.48,1.66-6.77.16-1.65.9-2.89,1.43-3.92.49-1.69-.27-3.12.8-4.56.84-1.14,1.06-2.8,1.38-4.26.89-4,2.93-7.52,4.5-11.24,1.97-4.68,4.21-9.24,6.46-13.78,2.3-4.66,4.11-9.58,7.02-13.95.96-1.44,1.72-3.02,2.45-4.59.75-1.62,1.72-3.06,2.83-4.46.84-1.06,1.32-2.41,1.95-3.63.53-1.05,1.28-1.99,1.97-2.96,3.25-4.56,6.26-9.3,10.12-13.4,1.83-1.95,3.56-4,5.29-6.04.93-1.09,1.71-2.31,2.67-3.37,1.08-1.21,2.12-2.55,3.47-3.38,1.26-.78.99-2.86,2.82-2.94,1.25-1.99,3.57-3.15,4.71-4.99,2.55-4.1,6.94-6.2,9.77-9.92,1.16-1.52,2.86-2.64,4.33-3.91,1.56-1.34,3.19-2.6,4.69-3.99.86-.8,1.51-1.82,2.29-2.72.8-.93,1.48-2.31,2.48-2.62,1.56-.47,1.61-2.06,2.6-2.65,2.46-1.49,4.56-3.42,6.87-5.09,2.37-1.71,4.91-3.18,7.37-4.76,2.54-1.63,5.24-2.96,7.92-4.34,1.31-.68,2.49-1.7,3.92-2.29,1.49-.61,2.95-2.04,4.35-1.96,1.89.11,2.5-1.74,4.25-1.78,1.49-.03,3.34-.8,4.35-1.88,1.37-1.45,3.15-.81,4.62-1.66,2.07-1.2,4.43-1.91,6.71-2.73,1.31-.47,2.92-.41,3.98-1.17,1.69-1.2,3.43-1.57,4.5-1.47,5.76-1.92,10.59-3.96,15.97-4.64,1.09-1.04,2.54-1.42,4.17-1.3,1.74.13,3.36-.11,4.64-1.5,1.48,0,3.27.52,4.39-.13,1.37-.79,2.61-.39,3.88-.62,1.27-.23,2.53-.57,3.81-.73,2.74-.34,5.5-.58,8.24-.9.11-.01.18-.4.27-.61,8.24,0,16.47,0,24.71,0,.09.21.16.6.27.61,2.62.32,5.25.56,7.87.9,1.28.16,2.54.5,3.81.73,1.15.21,2.26.06,3.5.6,1.46.64,3.42.15,5.15.15,1.16,1.29,2.65,1.66,4.27,1.48,1.37-.15,2.55.43,3.82.73,4.31.99,8.56,2.14,12.66,3.78,1.07.43,2.15.83,3.81,1.47h3.05c.55.52,1.06,1.41,1.63,1.46,3.36.29,6,2.42,9.12,3.36,3.51,1.06,6.51,3.52,10.23,4.19,1.96,1.97,4.68,2.59,7.02,3.85,3.07,1.65,5.99,3.56,9.1,5.12.3.15.74.02,1.16.02,2.83,2.96,6.28,5.26,9.33,7.99,2.93,2.63,5.48,5.72,7.54,9.18,1.32,2.23,3.05,4.21,4.41,6.42,1.34,2.16,2.98,4.22,3.07,6.97.02.53.45,1.05.72,1.56,2.3,4.43,3.48,9.29,5.25,13.92.27.72.73,1.36.99,1.85,2.03-.27,3.73-.3,5.31-.76,1.52-.45,2.96-.96,4.77-.51.49-3.93-2.3-7.29-1.27-10.73-.57-.97-1.3-1.66-1.35-2.39-.32-4.4-3.51-7.85-3.99-11.97,3.15-1.85,6.14-3.61,10.46-6.15,4.2-3.81,10.58-7.53,15.23-13.06,1.2-.25,2.19-.05,2.65.98.35.78.38,1.81-.58,2.25-1.35.61-.33,2.08-1.27,2.9-.65.56-.9,1.58-1.21,2.15-3.6,4.85-7.08,9.53-10.67,14.37,2.15,1.22,3.67-.78,5.37-.37,1.34-1.56,3.23-.12,4.85-.97,1.5-.78,3.39-.86,5.13-1.14,1.63-.26,3.41.44,5.01-.63.25.25.61.61.97.97v1.66c-1.58,1.03-3.15,2.34-4.94,3.17-2.93,1.35-5.52,3.51-8.9,3.8-.93,1.57-2.58,1.56-4.1,1.59v1.11c.29.09.62.28.95.27,4.24-.12,8.4.22,12.5,1.46,1.12.34,2.43.05,4.01.05-.34,1.17-.59,2.03-.85,2.92h-4.18c-.57.57-1.01,1.01-1.59,1.59h-2.99c-.57.57-1.01,1.01-1.59,1.59h-3.52c2.15,3.73,4.05,7.3,3.05,11.86-1.51,2.8-4.49,4.73-6.31,6.9-1.54.76-2.57,1.27-4.34,2.14h-3.04c-.4.4-.66.66-.71.71.49,3.3.96,6.43,1.43,9.6.21.05.55.14,1.04.26v4.04c-1.55.86-2.59,3.26-5.02,2.54-1.58-.47-3.07-1.27-3.91-2.99.33-1.08.68-2.2,1.02-3.32.87-.64,1.83-1.35,2.73-2.01v-7.76c-1.09-1.79-2.8-.76-3.3-.93-2.02-.96-3.1-1.98-4.94-1.55.39,1.33-.48,2.7.68,3.87.14.14.15.45.15.68-.09,5.15,1.35,10.24.72,15.41-.15,1.23-.75,2.41-1.46,3.51v5.27c.34.33.7.67,1.09,1.05.24-.21.5-.43.96-.83,1.11.65,2.3,1.35,3.93,2.31,2.06.29,4.64.64,7.23,1,.63-3.09.83-5.99,1.86-8.57,1.11-2.78-.06-5.79,1.2-8.62-.07-.08-.31-.34-.46-.51.33-.65.65-1.27,1.04-2.02,11.44.65,22.89-1.24,34.4-.69.84.04,1.68,0,2.46,0,.41,1.61.13,2.53-1.4,3.03-2.08.68-4.08,1.57-6.08,2.52-1.68.8-3.66,1.39-5.54,1.97-.77.24-1.43.79-2.52,1.42h-3.42c-.31.42-.67.92-1.12,1.54h-3.62v1.49c3.19-.2,6,1.11,8.93,1.89,2.05.55,4.08,1.35,6.27,1.12,1.32,1.45,3.37.03,4.48.85,1.59,1.18,3.16.09,5.04,1.11-.07-.07.28.28.65.65v1.49c-.07.08-.15.25-.23.25-8.57.01-17.14.01-25.93.57.78.52,1.55,1.04,2.33,1.56.88.59,1.74,1.21,2.65,1.75.9.53,1.8,1.19,2.78,1.38,3.17.61,5.65,2.66,8.53,3.83,1.26.51,1.75,1.5,2.77,2.35-.99.6-1.67,1-2.48,1.49-2.9-2.12-6.43-.14-9.77-1.38-3.08-1.13-6.71-.76-10.1-1.06-.82,1.9-2.06,3.43-2.09,5.62-.01.95-1.43,1.67-1.51,3.12-.05.99-1.21,1.99-2.02,2.85-.55.58-1.31,1-2.05,1.33-2.54,1.16-5.38.76-8.01,1.44-.96-1.08-2.26-.6-3.43-.77-.91-.13-1.79-.48-2.89-.78-.39,1.33-.79,2.66-1.25,4.23,1.22,1.01,2.37,1.94,3.38,2.78-.15,3.7-3.62,3.87-5.07,5.86-3.01-1.34-6.02-2.44-5.45-6.49,1.04-1.04,2.1-2.1,3.21-3.21.53-.06,1.12-.13,1.85-.22v-5.78c-1.44-.93-3.11-2-5-3.21-2.32,5.1-4.62,10.14-7.01,15.36.75.64,1.48,1.26,2.05,1.74,2.36.73,4.56,1.4,6.77,2.08,4.53.74,8.95,1.73,12.4,4.52,1.2-.19,2.23-.35,3.42-.53.29-.29.73-.74,1.33-1.35.81,0,1.82.17,2.75-.05.87-.21,1.65-.84,2.79-1.45,1.4-.03,3.29.29,4.7-1.23,3.46-.65,6.59-2.13,9.7-3.69.99-.5,2.15-.74,3.01.19,1.2,1.31,2.89,1.49,4.39,2.09,5.35,2.15,10.85,3.86,16.13,6.24,3.53,1.59,7.33,2.64,11.22,4.37-1.12,1.11-2.06,1.79-3.43,1.77-1.12-.02-2.25-.07-3.37.03-.55.05-1.07.41-1.87.74-.28-.17-.75-.68-1.26-.74-2.88-.32-5.77-.65-8.67-.75-2.46-.08-4.9-.03-7.5-1.87.91,3.41,3.93,3.83,5.43,5.79,1.5,1.96,3.47,3.57,5.2,5.3v1.89h-3.1c-1.44-.74-2.68-1.38-4.16-2.14h-2.77c-.38-.43-.79-.9-1.27-1.44h-2.64c-1.56-.73-2.58-1.2-3.61-1.68-.16.47-.37.76-.3.89,1.14,2.02,2.93,3.72,2.97,6.26,2.18,1.38,1.21,4.23,2.78,6,.56.64.18,2.1.23,3.07-.49.47-.84.8-1.24,1.18-.76-.31-1.94-.43-2.17-.96-.93-2.19-3.36-2.37-4.77-3.88-1.41-1.5-2.79-3.04-4.67-4.04-.66-.35-1.22-1.02-1.47-1.99-.23-.9-1.24-1.52-2.78-1.07-.47.59-1.17,1.45-1.72,2.15h-1.89c-.1.33-.21.66-.33,1.06-1.28.53-2.65,1.09-4.43,1.83h-2.92c-.73-1.34-1.45-2.67-2.23-4.12-.49-4.68.79-9.65-1.09-14.44h-1.13c-.29,4.17-.22,8.21,1.23,12.15.16.44.19.96.15,1.43-.19,2.08.66,3.94,1.11,5.9.66,2.85.62,5.86,1.9,8.59-.52,1.88.61,3.51.81,5.3.22,1.95.92,3.84,1.45,5.75.09.32.43.58.45.6.35,2.15.66,4.03.99,6.06-.35,1.3-1.51,1.5-2.6,1.33-.67,2.11-1.48,3.95-1.78,5.88-.24,1.52-1.09,2.89-.88,4.55.19,1.44-.67,2.6-2.46,4.45-.65-.33-1.26-.64-1.84-.93-.54-5.38-2.37-10.6-1.73-16.19-3.82,4.35-6.88,9.17-11.86,12.48-.56,1.28,1.12,1.87,1.34,2.87.3,1.31.79,2.43,1.44,3.54.6,1.02-.44,2.57,1.42,3.44h4.67c2.28,1.25,4.23,2.12,5.7,3.81,1.66,1.91,3.16,3.68,3.54,6.44.28,2.01,1.5,3.92,1.35,5.5.95,1.17,1.53,1.95,2.18,2.67.67.74,1.4,1.42,2.18,2.19.44,1.92-.06,3.68-1.35,5.41v3.81c1.26,1,2.51,2.47,4.09,3.16,3.49,1.53,4.11,4.63,4.83,7.72.42,1.84.45,3.79.96,5.6.59,2.09,1.19,4.24,2.96,6.03-.86.43-1.58.8-2.47,1.24-2.27-2.14-3.71-4.4-3.72-7.51,0-1.27-.34-2.58-.74-3.8-.41-1.26-.69-2.47-.77-3.82-.15-2.46-2.64-3.11-4.03-4.61-2.58.33-3.02-1.95-4.13-3.5-.15-2.56-.15-5.19,1.7-7.81-1.71-2.27-3.49-4.63-5.46-7.24.56-2.66-.53-5.32-1.48-8.03-1.14-1.14-2.29-2.27-3.24-3.22-1.74-.34-3.24-.68-4.76-.92-1.5-.24-3.02-.38-4.37-.55-.21-.55-.28-.77-.38-.98-.98-1.96-2.08-3.83-2.73-5.99-.87-2.87-2.1-4.06-5.21-6.75h-7.1c-3.92-1.71-5.94-5.1-8.72-7.65-.4-2.4-3-2.59-4.29-4.32-2.91.22-5.83-.23-8.64-1.47-1,.48-1.99,1.18-3.09,1.44-1.05.25-2.22.05-3.41.05-.1.37-.2.71-.28,1.02.23.19.4.46.58.46,2,.03,4,.12,5.99,0,5.53-.35,9.88,2.06,13.74,5.69.91.85,1.62,2.1,2.69,2.55,1.17.5.32,2.44,2,2.3.15-.01.49.52.49.79-.03,2.39,2.06,3.03,3.55,3.55,2.1.73,4.46.7,6.63,1.06,2.19.62,3.4,2.27,4.01,4.22.57,1.81,2.63,2.86,2.37,5.01,1.02.85,2,1.75,3.07,2.54,1.44,1.07,2.93,2.05,4.42,3.08-.35,3.03.75,6.07-1.57,8.57v3.71c1.36,1.34,2.63,2.73,4.56,3.43,1.79.64,2.63,2.5,2.08,4.1-1.12,3.27-.36,6.54-.68,9.65,2.29.9,4.43,1.75,6.74,2.67.12,3.14-1.24,5.76-1.97,8.72.37.51.89,1.24,1.55,2.16,1.22.77,2.71,1.71,4.18,2.64.13,3.59-2.52,6.55-1.19,10.34,2.02,2.37,3.73,5.46,5.58,9.21v3.33c-.33.34-.67.7-1.1,1.13-.61-.92-1.47-1.73-1.74-2.7-.72-2.68-2.2-4.89-3.82-7.03-1.35-1.79-2.18-3.82-2.96-6.01.9-2.2,1.97-4.49,1.27-7.4-1.23-1.24-3.77-1.67-3.88-3.59-1.25-3.61.39-6.19,1.37-8.92-1.62-.69-2.98-1.31-4.38-1.85-.28-.11-.68.07-1.2.14.32.4.52.64.73.91-.65,4.5-3.32,8.06-5.66,11.79-.37.59-.65,1.23-1,1.83-1.54,2.67-.56,4.75,1.47,6.64,1.01.93,1.95,1.93,2.92,2.91.22,2.18.4,4.35-1.39,6.09v6.78c1.75,1.43,3.02,3.41,5.18,4.53.77.4,1.32,1.7,1.48,2.67.25,1.46.31,3.04,0,4.47-.4,1.9-1.24,3.71-2.41,5.49.33,3.62.4,7.3,1.1,10.85.28,1.39.59,2.76.61,3.91,1.06,1.48,1.97,2.74,3,4.18.57,3.43-1.56,6.3-2.92,10.01v4.18c1.02.77,2.25,1.69,3.53,2.66.07,1,.38,1.94-.35,3.06-.52.8-.26,2.12-.35,3.2-2.83,6.14-3.38,7.91,1.56,16.36v5.24c-.45.47-.96,1.01-1.48,1.55v1.46c-.81.81-1.6,1.6-2.45,2.45h-2.84c.12-.51.1-.9.29-1.16.76-1.07,1.75-2.01,2.33-3.16,1.59-3.17,1.56-4.21.22-7.34-.27-.64-.67-1.22-1.05-1.81-2.38-3.73-2.12-7.65-.8-11.63.69-2.09,1.43-4.15,2.06-5.97-1.44-1.44-2.75-2.74-3.74-3.73,0-2-.1-3.38.03-4.74.11-1.16.48-2.29.71-3.44.05-.24-.04-.65.07-.7,1.75-.88,1.09-2.82,1.84-4.12.12-.2.23-.4.4-.71-1.04-2.25-2.99-4.12-3.43-6.74-.04-.21-.36-.4-.35-.59.22-3.8-1.51-7.52-.69-11.28.49-2.26.32-4.72,1.7-6.77,1.06-1.58.07-3.36.56-4.78-2.32-2.72-5.16-4.6-6.76-7.57-.38-4.04.29-7.92,1.44-11.4-1.91-1.91-3.66-3.66-5.16-5.16v-5.16c2.05-3.56,4.22-7.28,6.33-11.03,1.05-1.87.99-1.91,1.06-4.04-2.94-3.12-6.06-5.91-11.02-5.63-.76-1.03-1.6-2.18-2.23-3.04.73-2.55,1.39-4.88,2.12-7.45-.67-1.06-1.42-2.25-2.39-3.79-.75-2.01,1.28-3.82,1.65-6.16-1.26-1.66-3.27-1.96-4.91-2.87-1.2,1.59.72,1.67.99,2.52.35,2.48.71,4.97,1,7.04-2.32,4.32-4.58,8.12-6.91,11.92v4.43c1.8,2,3.84,3.62,6.17,4.98,1.14.66,1.82,2.13,2.81,3.38,0,1.45.07,3.06-.02,4.67-.06,1.17.32,2.34-.61,3.52-.49.62-.52,2.27-.04,2.84,1.07,1.28.45,2.6.68,3.83,1.49,1.78,2.95,3.53,4.43,5.29.62,3.23-1.68,5.47-2.89,8.69v4.93c.9.81,2,1.8,3.16,2.84-.37,4.25-.72,8.38-1.08,12.51.77,1.13,1.5,2.21,2.36,3.48,0,1.34-.04,2.96.01,4.58.04,1.11-.15,2.11-.74,3.07-.36.58-.72,1.27-.73,1.92-.05,2.64-.74,5.12-1.48,7.63-.31,1.03-.05,2.23-.05,3.35,0,2.5.05,4.99-.02,7.49-.05,1.75.13,3.37,1.51,4.63v3.01c.44.42.89.85,1.41,1.35v2.61h-1.82c-.27-.44-.51-1.16-1.01-1.6-.76-.66-.71-1.45-.89-2.28-.14-.62-.93-1.1-1.38-1.59,0-4.46-1.15-8.77-.86-13.22.21-3.15,1.24-6.2.9-9.43-.09-.88.81-1.87,1.36-3.05.31-2.46.66-5.21,1-7.8-.9-.89-1.6-1.6-2.36-2.35-.02-.3-.07-.66-.07-1.02,0-1.37-.03-2.75,0-4.12.04-1.43.2-2.78.6-4.22.53-1.88.39-4.07-1.34-5.73-.83-.81-1.36-1.93-2.27-3.26-.67-2.39.99-4.66,2.1-6.88.75-1.51,1.18-3.02,1.64-4.22-1.85-2.79-3.54-5.34-5.3-7.99.45-2.34-.15-4.66.63-7.16.67-2.13.69-4.84-.25-6.51-2.92-2.35-5.35-4.3-7.75-6.24v-3.33l-1.57-1.57c.06-.73-.14-1.71.23-2.37,1.55-2.75,2.93-5.61,4.98-8.06,1.22-1.46,1.13-3.54,2.58-5.02-1.13-2.41-2.2-4.71-3.21-6.87-1.24-.61-2.38-1.17-4.05-2h-1.5c-1.18-1.2-2.31-2.35-3.6-3.68.35-.48.76-1.05,1.09-1.5,2.37.89,3.85,3.5,6.89,2.83.44.56.9,1.14,1.36,1.74.22-.23.37-.31.39-.41.28-1.38.54-2.76.79-4.09-1.24-1.11-2.52-2.25-3.79-3.39-.44-.67-1.44-.14-2.33-.98-.34-.32-1.31-.42-1.69-.16-1.84,1.24-3.71.48-5.63.57.07-2.51,2.84-2,3.33-3.66h5.1c1.51.81,2.79,1.69,4.19,2.21,2.49.92,3.17,3.13,3.81,5.24.26.85-.47,2-.83,3.31.64.4,1.35,1.22,1.94,1.14,1.88-.24,3.11,1.1,4.57,1.71,1.39.58,2.09,2.33,1.86,3.98-.21,1.48-.76,2.92-1.23,4.65.79,1.29,1.75,2.84,2.75,4.46-.38,2.51-2.59,4.64-2.17,7.64h2.51c1.78,2.46,5.56,1.58,6.61,4.77l1.12-1.12c-.42-.93-.77-1.77-.11-3.03.97-1.86,1.48-4.04.9-6.26-1.94-1.32-3.9-2.65-5.53-3.76-1.83-4.64.3-8.38,1.22-12.06-1.1-1.02-2.08-1.93-3.32-3.08-3.23-.49-3.23-4.65-5.69-6.35v-2.46c-1.36-1.03-2.78-2.12-4.29-3.26h-3.96c-.9-.37-1.43-.58-1.96-.81-3.49-1.57-4.39-2.28-6.26-5.89-1.72-3.31-4.02-5.81-7.76-6.81-.63-.17-1.11-.94-1.69-1.46h-2.86c-3.67-2.89-7.25-1.15-11.02.21-.6-.56-1.2-1.12-1.83-1.71h-4.4c-1.2-1.11-3.28-1.29-3.49-3.73,1.72.34,3.37-.75,4.95.67.48.43,3.24-.64,5.33-1.4,3.32-1.21,6.64-2.52,10.29-2.28.84.05,1.56.3,2.36.63,1.6.67,3.45.75,5.54,1.13,4.4,2.06,6.29,7.21,10.28,10.22q3.33.67,5.14-.06c2.34.98,4.79,2,7.5,3.14,2.39-6.07,5-12.09,8.75-17.47-.34-.29-.6-.6-.67-.56-1.8,1.03-3.77.75-5.69.71-1.74-.04-3.37.12-4.51,1.36-4.13.37-8.12.73-12,1.08-1.06-1.38-.41-2.23.56-3.1h1.67c5.81-3.16,11.71-5.3,17.1-8.84-1.78-1.99-3.65-3.53-4.75-5.49-.99-1.77-3.04-3.23-2.31-5.56-.58-.58-1.03-1.03-1.47-1.47-.17-2.68-.25-5.35.65-7.96,0,.01.06.06.11.11.2-.17.41-.35.61-.52l-.24-.24c-.17.2-.35.41-.48.65-.34.03-.71.03-1.22.03-1.79,4.61-4.19,8.97-6.91,13.13,1.44,1.48.27,3.33.74,4.85-1.26,2.37-3.58,3.2-5.69,4.34-1.21-.65-2.53-1.35-3.94-2.11v-3.48c2.98-3.51,4.01-4.47,6.93-5.56,1.17-2.13,2.63-4.05,3.3-6.22.7-2.26,3.4-3.46,3.08-6.07-.96-.41-1.8-.8-2.66-1.12-.87-.33-1.76-.58-2.8-.92-1.44,2.69-2.66,5.44-4.31,7.9-1.64,2.45-3.92,4.46-5.31,7.16h-2.58c-2.64,1.61-4.81,3.33-7.27,4.33-2.49,1.01-4.4,3.12-7.46,3.51,1.24,1.99,2.38,3.83,3.41,5.48-1.34,1.31-2.39,2.34-3.19,3.12.03,2.29-.78,3.62-2.53,5.21-.29-.82-.51-1.43-.73-2.04-.15.13-.29.27-.44.4v-3.13c-1.76-.76-1.34-2.81-2.43-4.34,1.22-1.53,2.49-3.11,3.76-4.71-.51-.51-1.13-1.13-1.75-1.75-1.25,0-2.49,0-3.62,0-1.9-1.35-4.19-1.68-6-2.98-.36-.26-.91-.24-1.29-.47-1.59-.96-1.58-.98-3.32-1.04-.85.84-1.57,1.99-3.22,1.33v-3.03q-1.32-1.44-4.58-.55c-1.58-.31-1.52-1.63-1.68-2.69-1.49-1.63-4.24-.27-5.41-2.47-2.01.03-3.34-1.55-5.09-2.18-1.82-.65-3.44-1.83-5.46-2.94,1.78-1.14.53-3.22,1.99-4.54,1.12-1.01,1.85-2.47,2.91-3.94-.37-1.15-1.67-1.8-2.54-2.79-.82-.94-1.75-1.78-2.86-2.89.6-.37,1.21-.75,1.59-.98v-4.44c.62-1.15,1.19-1.93,1.49-2.8,1.03-2.94,2.86-5.53,5.31-7.49.39-.31.55-.92,1.06-1.83-3.13,1-5.59,2.19-7.76,3.83-1.03.78-2.24,1.86-2.27,3.25-.05,2.18-1.25,3.56-2.67,4.93h-2.24c-1.48-1.37-3.05-2.72-3.5-5.13.42-.57.9-1.23,1.56-2.13.63-2.53-1.25-4.17-2.92-5.79v-3.02c2.45-2.68,5.15-5.04,7.7-7.55,2.59-2.55,5.89-4.37,8.9-6.51-1.57-1.69-3.15-3.08-5.15-3.48-2.08-.41-2.96-2.51-4.75-2.99-2.06-.56-3.38-2.09-5.33-3.24-5.14,3.88-10.31,7.88-15.58,11.72-2.74,2-5.76,3.62-8.51,5.61-3.65,2.64-7.1,5.59-10.98,7.86-3.13,1.82-5.57,4.47-8.76,6.32h-2.39v-1.84c2.57-1.8,5.09-3.55,7.59-5.34,3.67-2.61,7.39-5.15,11.03-7.81,3.41-2.49,6.78-5.11,10.36-7.4,3.28-2.1,6.38-4.49,9.56-6.76,1.83-1.31,3.82-2.46,5.43-4.01,2.37-2.29,4.66-4.72,6.59-7.37,1.63-2.22,3.41-4.31,5.08-6.49.26-.33.36-.78.76-1.68-1.54.42-2.59.71-3.9,1.07v-3.15c1.8-.12,3.85.38,5.32-1.72-1.17-.62-2.22-1.18-3.7-1.97,1.18-.7,2.1-1.24,3.22-1.9.2-.59.49-1.46.83-2.48-.19-.17-.56-.49-.84-.74-1.25.52-2.5,1.03-3.65,1.51-.58-.58-.93-.93-1.26-1.26.28-.49.55-.98,1.1-1.93,1.21-.29,2.9-.69,4.75-1.14q1.07-1.64-.51-3.52c-1.86,1.09-3.76,2.21-5.99,3.51-.08-1.27-.13-2.19-.2-3.25,2.02-1.08,3.97-2.12,6.16-3.29-.24-.95-.47-1.8-.69-2.68-.51.09-.72.07-.85.16-1.14.87-2.22,1.83-3.43,2.6-.42.27-1.15.04-1.83.04-.04-.61-.07-1.09-.12-1.9,1.34-1.09,2.81-2.3,4.63-3.78-.52-.18-1.07-.38-1.63-.57-1.68-1.18-2.6,2.55-5.06.59v-1.27c.96-.77,1.96-1.57,3.16-2.53-.55-.68-.97-1.2-1.24-1.54-1.04,1.22-2.06,2.4-2.96,3.45h-2.29c.83-1.49.67-3.08,1.86-4.24.37-.36.67-1.18.51-1.59-.27-.67-.94-1.18-1.52-1.85-1.48,2.27-1.12,5.37-4.5,6.55.36-2.6-.5-4.9,1-7.29-.75-.52-1.55-1.08-2.8-1.95.26,0-.24,0-.92,0v4.78c-.74.6-1.41,1.15-2.25,1.83-.55-.88-1.19-1.92-1.59-2.58.32-2.05.58-3.67.78-4.94-1.14-1.61-2.36-1.45-3.88-1.18.21,2.57-.44,5.21.87,8-.7.04-1.28.07-2.04.11-.54-.82-1.12-1.69-1.9-2.87.16-1.73.36-3.73.59-6.13-.71-.41-1.81-1.04-3.19-1.83-.57,2.68-.06,5.14-.35,7.42-.39.44-.72.81-1.14,1.29-.84-.41-1.66-.8-2.53-1.22,0-1.26-.12-2.51.04-3.74.13-1.02.57-2,.95-3.24h-3.79c-.25.25-.51.51-.91.91v5.11c-.51.59-.83.96-1.28,1.48-.76-.27-1.52-.53-2.06-.73-1.39-2.49.81-4.45.24-6.77h-4.21c-.25.87-.5,1.76-.78,2.77.31,1.51.67,3.21,1.07,5.11-.67.06-1.55.14-2.36.21-2.03-2.83-.61-6.05-1.29-8.92-.35-.05-.59-.08-.91-.12-.56,1.09-1.13,2.21-1.86,3.62v3.55c-.38.31-.85.68-1.5,1.2-.41-.29-.88-.63-1.26-.9-1.22-2.55.85-4.78.41-7.14-1.16-.94-1.98.22-2.96.39-.93.16-1.92.04-2.82.04.29,2,.54,3.75.77,5.38q-1.92,1.61-3.87.34v-4.67c-.18.14-.36.27-.54.41-.27-.57-.54-1.13-1.14-2.4-.48,1.19-.71,1.78-.95,2.38-.13-.12-.26-.24-.39-.36v5.8c-.48.56-.87,1.01-1.41,1.63-.55-.44-1-.8-1.4-1.12-.83-2.1.76-4.53-1.13-6.51-1.14.43-2.26.86-3.32,1.27.49,3.07.95,5.92,1.44,8.96h-2.94c-.05-.15-.25-.47-.23-.79.18-2.91-.36-5.63-2.03-8.06-.25.04-.48.08-1.01.16.32,1.95-.75,4.03.86,5.75-.44.87-.81,1.59-1.31,2.56-.83-.33-1.69-.67-2.57-1.02v-6.61h-4.92c-1.75,1.49-1.27,3.15-.21,5.06-.33.67-.73,1.49-1.14,2.32h-2.53v-5.48c-.53-.53-.8-.8-.88-.88-.54.54-1.1,1.11-1.86,1.87.33,2.01.77,4.62,1.19,7.14-.83.4-1.44.69-2.06.98-.23-.23-.49-.49-.58-.58-.69-2.92-1.32-5.64-1.93-8.23-1.72.55-3.14,1-4.48,1.44,0,1.6-.06,2.85.02,4.09.07,1.15.3,2.29.52,3.89-.14.27-.5.99-.91,1.8-.31-.08-.77-.06-.95-.28-.59-.73-1.08-1.54-1.74-2.52v-5.69c-.84.41-1.42.69-2.07,1.01v8.83c-.79.05-1.47.08-2.13.12-.22-1.82-.42-3.46-.62-5.09.07-1.25,1.35-2.58-.66-3.75-1.01.49-2.11,1.03-3.29,1.6-.71,3.41.76,6.64,1.48,9.85-1.54.83-2.87.23-3.01-.76-.34-2.35-2.37-4.28-1.63-6.86.08-.29-.14-.66-.29-1.25-.73.46-1.32.83-2.11,1.32.32,2.32.64,4.65.98,7.09h-2.91v-4.66c-.48-.47-.84-.82-1.26-1.24-1.13.8-2.28,1.61-3.45,2.44v7.89c-1.61.51-1.83-1.1-2.86-1.59v-4.87h-2.18c-.3,2.5.04,5.2-.16,7.79-.43.41-.79.75-1.29,1.23-.48-.33-.95-.65-1.52-1.04v-5.82c-.85.35-1.48.61-2.47,1.01v9.29c-1.28-1.05-2.1-1.72-3-2.46v-4.38c-.84.43-1.42.73-2.07,1.07v7.11c-.66.44-1.24.83-2.2,1.47v-6.3h-2.11c-.27.27-.62.62-1.04,1.04.23,1.84-.32,3.75.67,5.66.34.65-.53,1.92-.85,2.95-1.99-.15-1.97-1.43-2.09-2.86-.1-1.25-.64-2.47-.89-3.38-.64.64-1.46,1.46-2.78,2.78v7.17c-1.09,0-2.05,0-3.08.13-.06-1.84-.06-3.55-.06-5.95-.68.93-1.01,1.39-1.34,1.84v2.89c.39.39.74.74,1.4,1.22.24.7,0,1.42-.74,1.76-.59.27-1.31.28-1.91.4-.77-1.77.57-3.74-.89-4.84-.64.64-1.28,1.28-2.36,2.36.11.51.53,1.87.69,3.27.15,1.35.03,2.73.03,4.35-.62.03-1.2.05-1.97.09-.41-1.91-.82-3.84-1.39-6.48-.29.91-.47,1.47-.65,2.02-.36,1.2-.95,2.96.03,4.16-.26,1.65-.48,3.04-.72,4.59-.22.22-.57.57-.93.93-.35-.36-.7-.71-1.18-1.21v-7.56c-1.99,2.36-3.58,4.25-5.26,6.23.34,3.16.68,6.41,1.01,9.54-1.4,1.04-2.24.39-3.16-.63v-6.16c-1.03,1.45-1.64,2.3-2.26,3.17,0,1.73-.11,3.49.03,5.22.13,1.52.56,3.01.83,4.39-.5.5-.86.86-1.13,1.13-.65-.32-1.26-.63-2.02-1.01v-5.11c-.95.49-1.62.83-2.21,1.13.04,2.26.02,4.25.66,6.3.56,1.78-.39,3.89.95,5.69-.35.39-.66.75-1.12,1.26-.83-.48-1.69-.96-2.75-1.57v-6.52c-.15-.06-.3-.11-.45-.17-.22.42-.43.84-1.03,2-.45,3.29.38,7.39,1.52,11.46-.39,1.53-1.41,1.83-2.75,1.48-.38-2.7-.75-5.4-1.2-8.6-.86,1.3-1.43,2.17-2.08,3.14,0,2.87,0,5.85,0,8.84,0,1.8-.21,3.62,1.22,5.13.34.36.24,1.13.38,1.91h-2.9c-.47-1.8-.93-3.6-1.44-5.58.13-.23.39-.71.65-1.17-.46-.48-.8-.83-1.15-1.2-.18.1-.35.2-.52.3-.76.46-.73,1.19-.73,1.95.02,2.75,0,5.49,0,8.21.54,1.04,1.08,2.07,1.67,3.21-.48.48-.9.9-1.46,1.47-.58-.43-1.05-.77-1.62-1.19v-3.85c-.49-.49-.84-.84-1.19-1.19-1.74,2.23-1.49,4.96-1,7.3.41,1.93.46,3.8.62,5.71.05.55.37,1.08.44,1.25-.29.58-.58,1.13-1.1,2.16-1.3-2.46-2.76-4.13-2.31-6.58-.55-.05-.89-.09-1.18-.12-.14.14-.31.23-.31.32.05,1.84-.48,4,.31,5.43,1.16,2.11,1.09,4.14,1.13,6.29.03,1.46,0,2.92,0,4.34-2.22.28-1.94-1.75-3.05-2.56v-6.28c-1.87,1.73-2.55,3.82-1.86,5.87,1.19,3.51,1.21,7.22,1.9,10.82.06.33-.06.7-.11,1.13h-2.73v-7.67c-.48-.43-.85-.77-1.32-1.19-.34.39-.87.76-1.04,1.26-.74,2.06-1.37,4.16-2.14,6.54.55,1.5,1.51,3.27,1.4,5.38-.03.65.43,1.32.55,2,.13.72.26,1.49.11,2.17-.11.5-.68.91-1.05,1.36-.34-.34-.61-.61-1-1-.75-1.18.87-3.25-1.36-4.14-.23.21-.57.53-1.1,1.02.32,2.59.66,5.31,1.05,8.47.23.18.81.64,1.26.99v2.75c-.91.05-1.84.09-2.91.14v-3.3c-.49-.49-.84-.84-1.19-1.19-1.66,2.12-1.65,4.81-.97,6.92.74,2.31.76,4.82,1.99,7.04.53.95.09,2.43.09,3.65-1.25.87-2.09.24-3-.8v-6.93c-.46-.07-.8-.12-1.49-.23,0,3.05-.26,6.03.07,8.94.31,2.75,1.87,5.19,3.06,8.1-.87.42-1.76.85-2.69,1.3-.78-2.31-1.44-4.28-2.3-6.84-.53,1.2-1.08,1.88-1.1,2.58-.06,2.99-.43,6.04,1.34,8.8.34.52.05,1.45.05,2.39.43.12.85.24,1.42.4v2.62c-.15.05-.47.21-.8.24-2.22.18-1.85-1.75-2.26-2.95-.37-.02-.62-.03-1.13-.06-.07,1.05-.14,2.11-.21,3.14.9,1.58,1.77,3.1,2.9,5.08v3.2c-1.99-.67-3.05-1.74-2.85-4.56-.89,1.35-1.33,2.02-1.59,2.41,1.53,2.86,2.84,5.31,4.23,7.89-.59.63-.99,1.05-1.53,1.62-.74-1.05-1.46-2.05-2.43-3.42v3.9c.62.64,1.34,1.43,1.46,2.85.09,1,1.31,1.91,2.2,3.1-.43.34-.88.68-1.49,1.15-.33-.23-.73-.47-1.08-.75-.29-.23-.53-.52-.91-.9-.13.33-.37.63-.32.86.12.56.34,1.1.58,1.63.38.84.8,1.66,1.28,2.64.2.07.63.23,1.01.36v2.94c-1.28-.56-2.36-1.04-3.45-1.51-.37,3.05,2.92,4.75,2.86,7.68-1.59.26-1.83.23-3.49-.42-.83,1.71.3,2.88,1.11,4.09.87,1.29,1.8,2.54,2.9,4.09v2.78c-1.5-1.09-2.69-1.95-4.36-3.16,1.25,3.24,2.99,5.37,4.61,7.88-.82.37-1.66.75-2.56,1.16-.37-.77-.61-1.28-.85-1.79h-1.05c.05,3.23,1.28,5.86,3.9,8.09-.59.67-1.1,1.25-1.63,1.85-.76-.75-1.3-1.29-2.24-2.21v2.52c.82.81,1.8,1.77,2.77,2.72v2.9c-.98-.36-1.78-.65-2.63-.96-.09,1.53.72,4.93,1.29,5.77.98,1.44,2.43,2.57,3.01,4.21-1.1,1.49-1.69-.49-2.87-.07-.09.75-.2,1.64-.3,2.44,1.49,1.49,2.86,2.86,4.72,4.73-1.46.14-2.04.19-2.81.27-.34-.56-.74-1.2-1.57-2.55-.18,1.55-.24,2.12-.33,2.92,1.24.95,2.55,1.96,4.04,3.11-.53.67-1.01,1.28-1.56,1.99-.6-.45-.97-.72-1.42-1.06-.09.38-.31.77-.22,1.04.46,1.3,1,2.58,1.52,3.89.68.39,1.39.8,2.39,1.37-.91.63-1.62,1.12-2.41,1.66v1.36c.65.4,1.34.82,2.04,1.26-.05.25-.05.44-.13.59-.34.61-.75,1.18-1.04,1.82-.47,1.04-.13,1.89.95,2.68h3.23v2.77c-.83.42-1.84.92-3.2,1.61.59.4,1.26.97,1.34.9,1.04-.97,2.19-.8,3.56-.5-.2,2.02-2.29,2.51-2.89,3.95v1.78c1.47-.29,2.8-.54,4.27-.83v2.01c-.74,1.37-3.03.99-2.92,3.26,1.17.06,2.35.13,3.44.19.35.35.62.62.72.72-.73.73-1.47,1.47-2.29,2.29.47,1.22.8,2.07,1.09,2.82,1.23-.65,2.23-1.18,3.15-1.66.6.61.95.97,1.41,1.44-.97.65-1.92,1.29-2.87,1.94-.15,1.24-.64,2.49.99,3.48,1.31-.55,2.68-1.98,4.56-1.17.17,2.22.14,2.23-1.48,2.82-.73.27-1.42.66-2.31,1.08.52,1.35.94,2.41,1.33,3.43,1.79-.19,2.88-2.09,4.86-1.33v1.82c-1.16.85-2.41,1.77-3.68,2.7.71,1.06,1.34,2,2.12,3.15,1.12-1.01,2-1.81,2.85-2.58h2.41v1.84c-1.78.64-2.79,2.43-4.26,3.63.64.73,1.25,1.44,1.79,2.05.47-.12.8-.1.91-.24.86-1.15,1.67-2.33,2.48-3.47h2.09v2.49c-.86.63-1.82,1.33-2.87,2.1.05.97.09,1.89.17,3.39,1.41-1.18,2.41-2,3.59-2.99.65.27,1.39.58,2.11.88-.45,1.8-1.22,3.1-3.54,3.54,1.18.92,1.86,1.46,2.43,1.9,1.43-.78,2.53-1.38,3.58-1.95,2.02,2.2-.98,2.84-.86,4.58.54.08,1.1.16,1.39.2,1.45-1.41,2.76-2.67,4.29-4.16.43,1.59.62,2.72-.49,3.99,1.25.06,2.4.12,3.54.18.51-1.65,1.21-2.82,3.35-1.98-.19.51-.38,1.01-.61,1.65,0-.01.06.24.21.29,2.16.77,4.27,1.26,6.58.22,1.05-.47,2.42-.2,4.35-.31.1-.14.41-1.11.97-1.28,2.16-.66,2.78-2.39,3.4-4.2.49-1.42.95-2.85,1.51-4.24.99-2.46.84-5.03.7-7.56-.18-3.44-.17-6.98.94-10.12.91-2.58-.35-5.35,1.3-7.7.19-.27.03-1.06-.24-1.34-1.52-1.61-1.27-3.59-1.2-5.5.1-2.44-1.31-4.7-.78-7.18.24-1.14.38-2.3.6-3.74-.45-.06-1.09-.16-1.65-.24-3.81,3.63-7.01,7.73-11.74,9.92.6,2.14,1.13,4.05,1.68,6.02-3.52,3.36-4.77,7.29-3.13,12.29-1.42,1.29-3.02,2.73-4.64,4.2-2.43-.39-4.67-.74-7.14-1.13-.25-.25-.69-.69-1.28-1.28-1.11-.13-2.34.03-3.49-1.11-1.94-1.92-4.6-3.14-6.4-5.15-3.69-4.13-6.89-8.69-9.2-13.76-1.19-2.62-2.94-5.06-3.05-8.1-1.37-1.03-.4-2.55-.82-3.8-1.28-1.28-1.54-2.89-1.41-4.63.21-2.67-.26-5.24-1.19-7.74-.24-.65-.3-1.41-.3-2.12-.02-8.24.04-16.48-.06-24.71-.02-1.29.7-2.25.82-3.43.12-1.18-.49-2.41.48-3.56.38-.46.23-1.4.24-2.12.02-2.25-.1-4.5.04-6.74.16-2.6.56-5.16,1.34-7.67.49-1.58.15-3.23.73-4.93.8-2.33.65-4.99.88-7.51.09-.95-.12-1.85.7-2.74.56-.61.71-1.73.77-2.63.11-1.74.03-3.49.03-5.24.78-1.45,1.76-2.81,1.52-4.63-.11-.81.14-1.54.58-2.38.92-1.74.75-3.87,1.38-5.78.58-1.78.89-3.65,1.4-5.86.62-.82,1.34-2.04,1.1-3.59-.3-1.91,1.96-3.04,1.5-5,2.28-3.38,3.21-7.42,5.44-10.88.94-1.45,1.78-3.19,2.35-5,.53-1.69,2.22-2.87,2.81-4.83.51-1.7,2.62-2.73,2.89-4.78,1.83-.78,1.26-2.98,2.56-4.24.97-.94,1.21-2.69,1.84-4.05,1.57-3.42,3.41-5.99,6.01-7.8,3.31-2.31,6.49-4.8,9.8-7.09,3.69-2.55,6.48-6.02,9.76-8.99,1.01-.92,1.44-2.25,2.8-2.98,1.26-.68,2.08-2.14,3.23-3.08,4.04-3.29,8.01-6.68,12.74-9,.51-.25,1.15-.26,1.9-.42.47-.49,1.07-1.12,1.83-1.91-1.24-.26-2.36-.66-3.43.49-.77-.73-1.55-1.47-2.4-2.28-.28.11-.72.15-.91.39-.72.9-1.36,1.87-2.28,3.16-.95-1.26-1.71-2.26-2.55-3.38h-4.58c-1.14-1.3-1.74-2.58-2.01-4.22-.21-1.28-1.34-2.41-2.03-3.63-.75-1.31-1.46-2.65-2.34-4.26v-5.53c1.32-1.67,2.59-3.28,3.89-4.92.95,0,1.86.17,2.65-.05.73-.2.84.71,1.79.47,1.94-.49,3.76-1.22,5.56-2,3.11-1.36,3.09-1.41,4.95-4.17.2-.29.58-.58.59-.87.07-2.8,1.81-5.01,2.58-7.55.47-1.56.73-3.19,1.22-4.74.38-1.21.96-2.35,1.45-3.52.85.39,1.45.65,2.27,1.03,0,.71-.06,1.56,0,2.4.3,3.75.64,7.5.99,11.62,2.38-2.25,4.47-4.65,7.34-6.13,2.65-1.37,4.71-3.84,7.99-4.69v3.02c-.82.81-2.14,1.61-2.7,2.77-1.77,3.66-5.13,6.18-7.32,10.3,3.55-.87,6.23-3.06,8.97-2.43,2.56-.86,4.64-1.56,6.7-2.26.58.56,1.12,1.06,1.79,1.71,5.6-3.45,11.43-6.54,18.31-7.84-.53-1.14-1.01-2.16-1.65-3.54-.68-2.91,1.07-5.88,1.63-9.01.36-2.05,1.81-4.04,3.14-5.76,1.35-1.75,2.97-3.41,4.79-4.64,5.08-3.46,4.85-3.12,10.33-3.05.49,0,.99,0,1.12,0,1.37,1.3,2.54,2.41,3.88,3.69-.42.52-.86,1.06-1.35,1.67-1.8-.45-2.44-2.96-4.62-2.55-1.76-2.01-3.32,1.6-4.71.11-1.26.86-2.27,1.49-3.22,2.2-2.48,1.85-3.51,4.86-5.56,7.05-.56,4.14-2.73,7.98-1.05,12.52,1.51,4.05,1.22,4.49,4.04,7.32.1.06.2.18.29.18.99.01,1.98,0,2.8,0,3.98-2.31,7.67-4.79,11.67-6.65,3.07-1.43,5.94-3.16,8.84-4.84,2.94-1.7,5.58-3.97,8.62-5.44,2.68-1.29,4.95-3.1,7.46-4.58.28-.16.66-.16,1.16-.27v2.44c-2.23,1.38-4.61,2.63-6.74,4.2-3.41,2.52-7.58,3.81-10.68,6.81-.33.32-1.15.13-1.69.17-.12.47-.21.81-.31,1.19-.66.16-1.39.21-2,.51-.53.26-.96,1.18-1.37,1.14-1.83-.17-2.62,1.52-4.05,2.05-1.3.47-2.46,1.43-3.68,1.97-2.68,1.2-5.05,2.87-7.6,4.25-1,.55-2.2.74-3.55,1.17,0,.03-.08.37-.18.82-1.98.28-3.49,1.62-5.07,2.82-2.06,1.58-4.06,3.22-6.26,4.98,1.12,1.59,3.15,2.69,3.17,5.11-.28,1.38-1.25,1.81-2.78,1.54-.38-1.02-.78-2.11-1.39-3.76-1.71-1.81-4.22-3.16-7.49-2.95-2.36.15-4.74,0-7.11.04-1.8.02-3.53.04-5.34.63-1.99.66-4.18.93-6.39.96-1.53.02-3.05.97-4.84,1.59.53,1.15,1,2.15,1.63,3.51v8.74c.82.54,1.7,1.12,2.07,1.37,4.09,1.13,7.82.75,11.36,1.32,3.68.59,7.3.38,10.74.62.87.47,1.59.85,2.39,1.28.49-.2,1.18-.34,1.68-.72,1.44-1.09,2.81-2.27,4.2-3.42,2.02-1.68,3.98-3.42,6.23-4.82.6-.37.81-1.39,1.15-2.02,2.74.03,3.02.13,5.98,2.19.91-1.07,1.82-2.14,2.73-3.21.99-1.17,1.91-2.43,2.99-3.51,1.09-1.09,2.44-1.94,3.51-3.04.98-1,1.67-2.29,2.64-3.31,2.01-2.11,4.13-4.08,6.48-5.84,2.33-1.75,4.29-4.02,6.64-5.73,1.79-1.3,3.4-2.75,4.94-4.3,1.45-1.46,2.98-2.81,4.62-4.04.41-.31.52-.98.86-1.42,1.89-2.46,3.81-4.9,5.79-7.44-.3-.88-.59-1.75-.98-2.89.78-.4,1.59-.82,2.46-1.26.88.88,1.56,1.56,2.13,2.14,0,.59.16,1.09-.02,1.32-1.8,2.22-2.77,5.03-5.09,6.91-1.09.88-1.95,2.14-2.64,3.38-.72,1.28-2.69,1.15-2.91,2.84-2.3.85-3.52,2.98-5.24,4.51-1.53,1.38-2.79,3.12-4.74,3.93-1.28.53-2.42,1.58-2.92,2.46-.72,1.28-1.95,1.57-2.8,2.47-3.24,3.46-6.59,6.82-10.06,10.05-.82.76-.7,2.42-2.29,2.39-.28,1.43-1.49,2.17-2.39,3.13-.85.91-1.72,1.82-2.66,2.63-.51.44-1.18.69-1.97,1.13-.96-.95-1.81-1.8-2.84-2.82-3.64,2.81-7.18,5.63-10.8,8.32-2.55,1.9-5.22,3.64-7.86,5.42-2.82,1.92-5.6,3.92-8.52,5.66-1.04.62-1.54,1.86-2.82,2.14-.02.36-.19.82-.02,1.07,1.94,2.88,2.81,6.35,4.89,9.41,5.23-2.29,10.23-4.69,15.39-6.67,4.19-1.6,7.82-4.06,11.63-6.29,1.35-.79,1.4-2.31,2.69-2.85-.97-3.26-2.09-6.2-1.62-9.52,1.31-2.29,2.98-4.38,5.55-5.75,1.16-.62,2.19-1.75,2.89-2.88,1.02-1.65,2.44-3.06,3.79-4.18,1.28-1.06,1.78-2.81,3.68-3.48,1.59-.57,2.72-2.46,4.04-3.77,1.42-1.41,2.82-2.82,4.24-4.23,1.32-1.32,2.65-2.65,3.97-3.97,1.32-1.32,2.65-2.65,3.97-3.97,3.44-3.44,6.93-6.84,10.3-10.34,1.85-1.93,3.5-4.05,5.06-5.86.6-1.52,1.11-2.81,1.85-4.69v-3.29c-1-.56-2.12-1.19-3.1-1.74-2.57.46-3.88,2.28-5.41,3.74h-1.89c-.04-.57-.07-1.04-.11-1.72,1.87-1.86,3.53-4.13,6.38-4.92h2.96c1.09.76,1.64,2.2,3.27,2.37,1.97,4.5.58,8.43-2.07,12.2-2.13,3.04-4.82,5.55-7.42,8.15-6.52,6.54-13.09,13.03-19.57,19.61-2.15,2.18-4.54,4.08-6.67,6.28-.8.82-1.25,1.89-2.19,2.6-.89.67-1.58,1.6-2.41,2.35-1.71,1.54-3.08,3.43-5.2,4.58-.95.52-1.46,1.83-2.15,2.75v3.74c1.85-.89,3.46-1.67,5.38-2.6.39.55,1.07,1.13,1.22,1.82.48,2.29,1.3,4.48,1.88,6.69.56,2.14,1.89,4.03,1.95,6.35.04,1.5,1.22,2.68,1.57,4.22.48,2.09,1.93,3.93,2.69,5.98,1.78,4.77,4.25,9.22,6.28,13.87.81,1.85,1.28,4.15,3.36,5.34,5.41-1.81,11.18-3,16-7.06-.15-1.21.23-2.54-.66-3.97-.5-.81-.12-2.19-.09-3.31.08-2.9-.5-5.65-1.36-8.42-.42-1.37-.2-2.96-.13-4.44.08-1.76-.22-3.34-1.52-4.62,0-1.75,0-3.49,0-5.24-1.27-1.15-1.56-2.62-1.51-4.25.03-.82-.24-1.58-.51-2.39-.88-2.67-1.31-5.48-1.78-7.68.57-.94.89-1.47,1.33-2.19.7.62,1.5,1,1.51,1.39.08,2.88,1.83,5.32,1.84,8.3,0,2.1,1.23,4.2,1.68,6.37.43,2.08,1.24,4.04,1.24,6.24,0,1.77.02,3.77.81,5.25.92,1.73.48,3.34.61,4.99.13,1.67.03,3.31.72,4.96.58,1.39-.65,3.21.8,4.54.06.06,0,.24,0,.37.25,4.51.52,9.03.72,13.55.03.63-.31,1.27-.5,1.98.35.35.79.79,1.37,1.37-.41.87-.84,1.79-1.36,2.9,1.85,1.92-.98,4,0,6.32,1.04-.25,2.33-.24,3.17-.85.82-.59,1.56-.63,2.39-.59,1.63.07,3.09-.25,4.29-1.45,6.03.22,11.29-3.09,17.32-3.83,1.96,3.36,5.13,5.74,7.8,8.66v1.45c-.07.08-.15.25-.24.25-4.33.01-8.66.01-13.7.01,2.85,3.05,6.24,4.28,8.78,6.55-.38.88-.7,1.62-1.02,2.37-1.81.76-3.14-.37-4.66-1.11-1.71,1.37-3.42-1.56-4.82-.11-.74.44-1.26.75-1.88,1.12.45.65.71,1.03,1.08,1.58-1.21,1.7-.66,3.81-.78,5.83-.23.26-.47.52-.69.76.26.3.5.57.86.99-.64,1.06-1.28,2.15-1.94,3.24-1.19-.37-1.71-.86-2.02-2-.68-2.44-1.64-4.8-2.62-7.14-.5-1.2.01-2.65-1.04-3.7-.41-.41-.66-.98-1.15-1.74-2.43,1.09-4.83,2.17-7.33,3.29,1.65,2.74.62,4.78-.92,6.66-.79.96-1.7,1.83-2.64,2.65-.8.69-1.72,1.24-2.58,1.85h-3.42c-5.52-3.4-9.36-7.72-10.23-14.23-.81,3.4-1.57,6.81-2.45,10.19-.7,2.7-.7,5.57-2.11,8.12-.37.67-.04,1.7-.14,2.56-.13,1.17.28,2.32-.61,3.52-.5.66-.46,2.1.63,2.99,1.6,1.29,1.61,3.14,1.44,5.27-1.8,1.6-3.28,3.91-5.98,4.82-.6-.3-1.22-.6-1.97-.97-.67-1.91-2.55-3.67-1.33-6.64,1.09-1.33,2.54-3.11,4.12-5.03.24-1.29.21-2.97.91-4.25.54-.99.59-1.86.53-2.78-.13-1.78.4-3.28,1.52-4.78.16-2.1-.34-4.37,1.2-6.49.67-.93.31-2.6.38-3.5,1.96-4.86,3.78-9.35,5.84-14.45-.2-.13-1.36-.69-1.3-.87.65-2.01-1.15-3.09-1.68-4.61-.49-1.4-1.61-2.57-2.36-3.89-.45-.8-.58-1.8-1.12-2.52-.53-.7-.73-1.43-1.02-2.21-.86-2.26-2.11-4.36-3.16-6.55-.5-1.03-.89-2.12-1.51-3.61-1,1.46-1.71,2.55-2.47,3.59-.77,1.06-1.64,2.05-2.36,3.15-.7,1.07-1.19,2.26-1.89,3.33-.72,1.09-1.57,2.1-2.37,3.14-.87,1.14-1.97,2.17-2.57,3.43-.56,1.17-.81,2.8-1.96,3.22-1.59.57-1.14,2.5-2.07,2.81-1.52.5-1.52,1.98-2.52,2.78-.99.78-1.57,2.07-2.32,3.12.69,2.6,2.72,4.93,2.13,7.41.59,1.81.96,3.15,1.45,4.44.53,1.4,1.13,2.78,1.74,4.14.99,2.21,2.01,4.44,3.08,6.57,1.03,2.06,1.78,4.28,2.94,6.29.84,1.46,1.08,3.26,1.65,5.15-.12.24-.42.85-.79,1.61-3.9.15-5.75-3.04-8.27-5.22-.87,3.94-1.75,7.9-2.59,11.69-1.51.56-2.5.12-3-.99-.75-1.68-1.31-3.46-2.17-5.78.04.04-.4-.4-.97-.97v-2.62c-.84.2-1.75.14-2.11.56-1.15,1.34-3.22.96-4.29,2.5-.24.35-1.41.05-2.1.05-.5.5-.94.94-1.44,1.44h-3.09c-.37.51-.81,1.11-1.05,1.44h-6.7v-1.87c5.45-3.87,10.86-7.71,16.3-11.57v-11.74h-5.89c-4.07-3.01-7.08-6.26-5.74-11.96.76-.66,1.88-1.62,2.74-2.36v-1.96c-.19-.06-.45-.22-.53-.15-2.1,1.61-4.97,1.26-7.08,2.8-1.64-.6-2.33,1.24-3.51,1.41-1.27.18-2.17.72-3.26,1.23-2.2,1.04-4.46,1.94-6.46,3.35-.78.55-1.55,1.12-2.4,1.74.6,3.38-1.95,5.01-3.93,7.13h-3.96c-2.26-3.8-.99-6.56,3.57-9.62.29-.2.6-.38,1.09-.68h3.46c1.75-.22,2.51-2.03,4.28-2.46,1.32-.32,2.66-1.4,4.04-1.92,1.51-.56,3.01-1.25,4.48-1.84,2.29-.91,4.35-2.21,6.95-2.25.71-.01,1.4-.78,2.25-1.3h6.7c.55-.82,1.13-1.7,1.8-2.71.03-1.51-.31-3.32,1-4.63.67-.67.49-1.36.48-2.06,0-.88.36-1.55.69-2.34.97-2.34,1.45-4.89,2.36-7.26.92-2.37,1.53-4.85,2.49-7.21.44-1.08.45-2.32.69-3.63.32-.32.76-.76,1.28-1.28-.44-2.82,1.31-5.07,2.23-7.58.44-1.19.65-2.45,1.14-4.33-2.66,1.83-4.74,3.26-6.98,4.8h-2.09c-.14.41-.29.84-.47,1.39h-2.3c-.83.95-2.01,1.37-3.2,1.88-1.06.46-1.88,1.46-3.24,1.22-1.32,1.77-3.83,1.03-5.34,2.56-.47.48-1.78.05-2.37.49-1.2.9-2.3,1.78-3.91,1.44-.76,1.48-2.43,1.37-3.65,2.05-1.11.61-2.31,1.32-3.72.95-1.72,1.98-4.78,1.32-6.53,3.73-.15,1.18.37,2.64.66,4.16.29,1.5.06,3.16.88,4.52.87,1.45.65,3.01.71,4.08.68,1.33,1.16,2.26,1.75,3.4,3.07,1.24,4.27,4.94,7.53,6.76-.4.92-.76,1.77-1.41,3.28-.65-1.59-1.03-2.53-1.51-3.72-1.58,1.63-3.28,3.23-5.26,3.76-1.03-1.04-1.89-1.9-3.23-3.25v-2.5c.36-.36.8-.8,1.31-1.31v-3.14c-2.28-.71-.78-3.41-2.19-4.78-1.44-1.41-.39-3.4-1.37-5.07-.89-1.52-.76-3.63-1.19-6.06-.76,1.04-1.14,1.67-1.63,2.2-1.11,1.18-2.24,2.35-3.44,3.44-1.1.99-1.64,2.42-3.08,3.21-1.84,1.01-2.83,3.05-4.43,4.46-1.47,1.29-2.39,3.2-3.6,4.9.33,2.53-.44,4.91-1.21,7.29-.18.56-.3,1.19-.23,1.77.53,4.69-.89,9.25-.86,13.92.01,2.16-.83,4.35-1.43,6.49-.55,1.94-1.38,2.07-3.34.85-.65-2.25-1.5-4.34-1.81-6.5-.31-2.19-.07-4.45-.52-7.03-.17.56-.33,1.12-.5,1.67-.18-.17-.36-.33-.55-.5,0,.99.4,2.29-.08,2.91-1.16,1.51-.83,3.58-1.81,4.86-1.88,2.45-2.32,5.88-5.32,7.53-.51-.53-1.1-1.15-1.77-1.85,0-2.27-.51-4.79.14-6.96.67-2.21.36-4.33.64-6.42-.4-.4-.75-.75-1.23-1.23-2.71,1.08-4.71-1.6-7.47-1.56-2.38.04-4.78-1.05-7.61-1.75-1.49-.81-3.43-1.87-5.63-3.07.29-.81.6-1.66.85-2.35.57-.1.93-.26,1.02-.17.77.79,1.88,1.08,2.67.67,1.99-1.04,4.06-.52,6.08-.71,1.16-.11,2.46.52,3.49-.68.2-.24,1.13.1,1.7.24.67.16,1.32.4,2.38.72-.37-3.72,1.01-7.28-1.65-10.62.9-.39,1.74-.76,2.56-1.12,1.18,2.57,3.35,3.89,4.97,5.84.05.48.12,1.07.19,1.78h1.7c5.05-7.19,11.34-13.49,16.07-21.59v-2.73l-1.17-1.17c-1.02-3.13.5-5.73,1.77-8.94,4.19-4.17,4.48-6.14,12.28-4.28.45.55,1.14,1.42,1.84,2.29.73-.21,1.43-.21,1.83-.56,3.95-3.41,8.46-5.95,12.9-8.63,3.13-1.89,5.95-4.31,8.97-6.41.84-.59,2.18-.58,2.1-2.34-.52-.06-1.07-.18-1.63-.18-4.12-.02-8.23,0-12.35-.01-1.43,0-2.81.04-4.21-.69-1.35-.7-2.93-.82-4.52-.88-2.07-.09-4.12-.73-6.28-1.15-.6.95-1.87.26-3.21.63-.41.98-.9,2.15-1.49,3.54-1.61-.13-2.83.71-4.2,1.43-4.22,2.18-7.78,5.04-11.2,8.27-1.65,1.56-3.57,2.92-5.15,4.6-.98,1.04-1.72,2.3-2.68,3.37-3.38,3.8-7.7,6.42-11.77,9.36-2.88,2.08-5.96,4.02-8.39,6.55-1.41,1.47-2.93,3.37-3.05,5.8-.04.77-.4,1.58-.79,2.28-1.75,3.16-3.27,6.48-5.58,9.29-.93,1.13-1.44,2.4-2.1,3.64-1.73,3.28-3.63,6.48-5.25,9.81-1.72,3.52-3.77,7.03-4.62,10.78-.72,3.21-1.85,6.26-2.65,9.43-.65,2.59-.59,5.37-1.99,7.78-.27.47-.17,1.18-.19,1.78-.05,1.07-.19,2.04-.65,3.1-.62,1.47-1.11,3.12-.92,4.89.1.98-.44,2.03-.69,3.05-.25,1.02-.6,2.03-.72,3.06-.13,1.11.15,2.28-.06,3.36-.87,4.54-1.05,9.21-2.34,13.64-.38,1.32-.58,2.55-.61,3.84-.06,2.25.08,4.5-.05,6.74-.08,1.53-.45,3.04-.72,4.56-.27,1.52.64,3.16-.69,4.61-.37.41-.06,1.45-.06,2.19,0,6.74,0,13.48,0,20.22,0,2.52.59,4.93,1.35,7.31.07.22.16.46.15.68-.23,3.16.46,6.12,1.43,9.14,1.13,3.55,1.76,7.26,4.25,10.23.53,2.89,2.8,4.85,3.97,7.35,1.31,2.79,3.43,4.77,5.63,6.59,1.47,1.21,2.74,2.75,4.87,3.39,1.93.58,3.85,1.53,5.75,2.34,1.4.6,2.58.18,4.1.66.27-1.01.91-2.04.62-2.51-1.59-2.61,0-4.69.73-7.01.6-1.94,1.86-3.28,3.18-4.59-.67-1.39-1.27-2.64-1.93-4.03h-2.29c-.66-.66-1.19-1.19-1.79-1.79v-2.75c-1.66-2.06-2.37-4.39-3.08-6.73-1.22-4.03-1.49-8.27-2.82-12.3-.55-1.68-.75-3.87.31-5.73.11-.2.24-.42.26-.64.3-2.63.59-5.27.89-8.01.8-.92,1.69-1.93,3.05-3.49.33-.8-.87-1.49-1.68-2.36v-5.07c.5-.84.81-1.63,1.35-2.24,1.14-1.3,2.52-2.14,4.38-2.08,2.23.08,4.47.02,6.65.02,3.34-4.48,4.45-5.76,7.53-6.81,1.62.46,3.09,2.12,4.96,1.54,1.36-1.04,2.6-1.99,3.74-2.87,2.93-.4,5.45.01,7.29,2.59v2.28c-1.82,1.53-3.55,3.55-5.75,4.61-1.36.66-1.79,1.64-2.15,2.58-.39,1.02-.11,2.32.02,3.49.07.68.41,1.33.72,2.29.93-.13,2.14.53,3.02-.61,1.55.28,3.06.56,4.25.78,1.69-.96,1.02-3.24,2.91-3.58.37-1.61,2.27-1.41,2.9-3.09,2.28,2.58,5.2,4.12,4.54,7.81,2.96.97,3.36-2.74,5.62-2.76h3.81c.37-.43.78-.9,1.08-1.25.39-.13.61-.28.83-.26,1.71.13,3.32-.22,4.94-.74,1.88-.6,3.83-1,5.73-1.54.32-.09.57-.44.9-.71h2.96c1.45-2.23,4.14-2.29,6.25-2.82,2.06-.52,4.12-1.24,5.89-2.1,2-.96,3.89-1.01,5.84-1.11.49-.49.93-.93,1.49-1.49,1.54.04,3.09-.3,4.71-.85,4.17-1.42,8.22-3.34,12.72-3.66.54-.04,1.04-.47,1.61-.74,2.68,1.06,4.88,3.03,7.51,4.34,2.58,1.29,5.66,1.63,7.93,3.92,5.33,0,10.81,0,16.29,0,.84,0,1.62-.39,2.36-.56,1.47-.34,2.84-1.13,4.51-.99,3.52.29,6.68-1.04,9.99-2.94,1.14,0,2.64-.12,4.11.02,5.06.49,10-1.05,15.04-.77,2.8-1.3,5.78-.51,8.67-.78.91-.08,1.8-.45,2.69-.73,3.58-1.11,7.27-.61,10.92-.77,1.66-.07,3.33.42,4.99-.63.66-.42,2,.24,3.34.46,3.18-1.84,7.44.8,10.8-1.28.53-1.64-.5-3.35,1.29-4.44h5.23c1.75-2.25,4.21-3.57,6.86-4.74,2.56-1.13,4.47-3.15,5.56-5.84-.37-.73-.74-1.46-1.2-2.38-1.08.24-2.22.49-3.62.8-.23-.13-.72-.42-1.21-.7-1.53,1.55-2.97,3.09-4.5,4.53-1.56,1.47-3.83,1.67-5.88,2.97h-4.25c-1-1.08-2.09-2.27-3.29-3.56.29-2.25.67-2.56,4.29-3.18.09,1.19.18,2.37.28,3.83,1.86-.33,3.67-.65,5.67-1.01,1.21-1.01,2.79-1.97,3.87-3.32,1.06-1.32,1.6-3.05,2.36-4.59-.33-.67-.63-1.28-1.04-2.11-.38-.2-1-.51-2.03-1.04-1.07,1.16-2.31,2.5-3.71,4.01-.56-.49-1.08-.94-1.76-1.54.65-.82,1.22-1.55,1.95-2.47-.41-.45-.81-1.26-1.19-1.25-2.53.07-4.32-1.7-6.47-2.53-2.13-.83-4.43-1.59-6.09-3.36-1.8.01-3.12-1.23-4.3-2.2-2.29-1.89-4.68-3.94-4.61-7.4-1.21-1.45-1.09-3.33-1.64-4.95-.98-2.84-.75-5.65-.45-8.34.24-2.14.02-4.48.74-6.39.8-2.13.78-4.66,2.6-6.43.34-.33.21-1.13.38-2.21-1.03.51-1.45,1.22-2.06,1.67h-2.2l-1.13,1.13c-1.49.42-2.75.7-3.95,1.12-1.19.42-2.42.85-3.48,1.52-1.1.69-2.56.3-3.36.86-1.09.76-2.06,1.56-3.97,1.44,1.57,2.44,2.83,4.41,4.08,6.35-.6.88-1.3,1.93-2.14,3.17h2.85c2.47,1.4,4.66,2.2,6.26,3.65,1.72,1.57,2.93,3.72,4.3,5.66,1.29,1.83,2.7,3.64,2.42,6.11.51.53,1.02,1.07,1.48,1.56v12.77c-.13-.12-.25-.24-.38-.36-.24.59-.48,1.18-.73,1.78-.24.01-.49.03-.73.04-.22-.61-.44-1.22-.65-1.83l-.62.35c.2-.91.45-1.81.58-2.73.16-1.07.7-2.54.21-3.17-1.1-1.43-.52-2.86-.62-4.26-.12-1.82-.65-3.44-1.63-4.95-.25-.39-.68-.86-.61-1.22.37-1.99-1.24-3.09-2.12-4.37-1.18-1.72-2.9-3.07-4.44-4.54-.32-.3-.82-.42-1.23-.63-.83-.43-1.65-.87-2.68-1.42-1.22-.22-2.72-.57-4.23-.72-.31-.03-.7.65-1.23,1.18,2.39,1.34,5.11,1.66,7.42,3.12,2.46,1.56,3.98,4,6.09,5.44.34,1.54.72,2.8.86,4.08.14,1.23.03,2.48.03,3.82-1.52,1.34-3.06,2.7-4.31,3.8-3.73.63-6.44-.76-9.11-2.36-.48-.29-1.14-.5-1.67-.43-1.26.17-1.68-.86-2.42-1.44-1.62-.35-3.43.43-4.86-.81-1.01.33-2,.66-2.98.99.82,2.54,3.66,2.91,5.17,4.64-1.36,2.53-2.67,4.95-4.07,7.53.68.17,1.02.26,1.46.37.12-.37.2-.7.34-1,.09-.21.26-.38.38-.57h1.86v2.24c-2.06.51-3.24,1.69-3.79,3.59-.65.53-1.14,1.09-1.9,1.96.81.24,1.25.37,1.86.55,0-.98,0-1.66.05-2.5.42.15.79.15,1.03.15.95-1.3,1.86-2.52,2.76-3.74Zm34.44-92.86c1.12-.06.64-.93.75-1.5h1.24c2.07-3.57,4.18-7.2,6.27-10.81-.11-1.72-.08-3.38,1-4.84.26-.36.39-.85.46-1.3.28-1.76.22-3.65.84-5.27.73-1.91.74-3.79.64-5.71-.08-1.53-.58-3.03-.68-4.56-.08-1.21-.73-1.68-1.63-1.97-7.11,5.21-9.54,13.36-13.38,20.61-1.52,6.47-3.69,12.84-2.88,19.62.39.36.75.69,1.15,1.06,2.73-1.05,4.6-3.04,6.22-5.33Zm7.05,11.35c-.51-.57-.66-.86-.76-.84-.36.05-.7.21-1.05.32.45.13.9.26,0-.35v-2.94h2.01c.66.82,1.46,1.82,2.24,2.8h2.3c-1.51-1.39-2.63-2.42-4-3.68.8-.44,1.35-.73,1.95-1.06.18.05.84.21,1.18.47.69.6,1.24,1.09,2.11,1.86.24-.81.37-1.25.55-1.86-.98,0-1.66,0-2.35-.09v-1.16c-.5-.24-1.01-.48-1.34-.64v-1.9c2.55-.3,3.85,1.39,5.33,2.78.2.18.65.1,1.12.15v-1.83c-1.41-.95-2.89-1.94-4.37-2.93.85-1.16,1.74-1.57,2.73-1.06.94.48,1.73,1.24,2.62,1.81.76.48,1.53.57,2.25-.35-.86-2.1-3.02-1.97-4.39-2.6-.42-.93-.75-1.65-1.04-2.31.49-.49.84-.84,1.1-1.1,2.11.89,3.86,2.79,6.45,1.94v-.94c-4.2-.74-4.21-.75-6.08-3.8,2.58-1.11,5.12,1.68,7.88-.15-.61-.58-1.09-1.38-1.75-1.59-1.33-.44-2.77-.54-4.16-.83-.16-.03-.25-.37-.51-.79.4-.46.85-.98.95-1.09,2.58-1.16,4.53,1.28,6.75.07-.1-.42-.19-.76-.26-1.07-3.65-.12-5.8-1.09-5.8-2.73.44-.39.96-.84,1.36-1.19,1.73.16,3.07,1.77,4.61.44v-.98c-.93-.07-1.86-.14-2.69-.2q-1.24-1.29-1.7-2.97h4.43c-.07-.61-.12-.95-.17-1.37-.91-.04-1.75-.08-2.55-.12-.45-.47-.85-.89-.8-.84.36-1,.62-1.71.84-2.31.99.48,1.6.79,2.31,1.13.18-.49.29-.82.41-1.16-1.33-.76-2.61-1.5-4.02-2.3,1.22-.61,2.18-1.09,3.32-1.66q-2.74-.61-3.11-2.85c.76-.49,1.53-.98,2.63-1.69-1.1-.18-1.78-.29-2.59-.42v-4.38c-1.4-2.51-4.24-2.98-5.44-5.25.33-.39.52-.71.79-.93.26-.22.59-.46.91-.49,1.8-.16,3.12-1.14,4.23-2.44,1.16-1.36,2.22-2.79,3.22-4.05v-2.52c-2.72-2.16-5.65-4.48-8.47-6.71-1.06-.22-2.02.27-2.94-.53-1.36-1.18-3.19-1.45-4.74-.83-1.45.59-3.34.78-4.01,2.48v3.08c1.02,3.03,3.72,2.27,5.17,3.66v1.49c-.37.37-.72.72-1.09,1.09h-2.25c-.51-.48-1.04-.99-1.55-1.48-.66,0-1.48-.26-1.87.05-1.38,1.07-2.61.76-3.92-.02-.07-.04-.35.26-.64.47.32.71.66,1.44.91,1.99-.6,2.51-1.83,4.05-4.55,4.31-.86-.49-1.87-1.06-2.86-1.63-.54-2.38.48-4.06,2.07-5.48.51-.46,1.22-.68,1.78-1.09.26-.19.4-.56.65-.94-.59-.67-1.14-1.3-1.58-1.8-.08-1.48-.14-2.79-.22-4.32-.98,1.05-1.96,1.53-2.66,2.51-1.01,1.41-2.89,2.2-3.87,3.61-2.77,4.01-6.64,6.83-10.37,9.7-2.19,1.68-4.45,3.26-6.4,5.22-1.41,1.42-2.82,2.82-4.26,4.27-.27,2.76,3.25,3.82,2.99,6.81-.44.34-1.03.79-1.35,1.04v4.04c.88-.97,1.7-1.56,2.09-2.36,2.42-5.05,2.41-5.02,7.15-6.97,1.38-.57,2.63-1.47,3.91-2.2q6.69,0,8.57,2.62c-3.21,1.89-6.42,3.55-8.76,6.85-2.3,3.25-2.4,7.04-4.19,10.16,1.32,1.47,2.53,2.8,3.93,4.36.74-.22,1.86-.55,2.9-.85,1.28.89,2.45,1.69,3.66,2.53v2.04c-1.05,1.2-1.86,2.13-2.66,3.05-1.14-.07-2.21-.13-3.78-.23,1.2-1.49,2.07-2.58,2.92-3.63-.29-.34-.43-.51-.88-1.04-2.17,1.9-3.53,4.41-5.25,6.73,2.44,2.68,5.99,3.47,8.99,5.2.56.32,1.31.32,2.01.48.4-4.06.78-7.91,1.12-11.38.5-1.65,1.72-2.7,1.35-4.29-.33-1.42.51-2.53,1-3.71.57-1.38,1.3-2.71,2.01-4.03.72-1.33,1.56-2.61,1.66-4.18,1.78-.69,1.43-2.66,2.27-3.95,2.57-3.93,5.82-7.18,9.12-10.41,1.02-1,2.24-1.78,3.82-1.53.57,1.14,1.14,2.28,1.83,3.67.3,2.08-.51,4.52.67,6.9.44.89.45,2.49-.08,3.24-.78,1.09-.69,2.15-.54,3.15.48,3.25-.95,6.17-1.89,8.99-1.34,4.01-2.99,8.02-5.6,11.53-2.07,2.78-4.12,5.58-6.43,8.17-.56.63-1.34,1.05-2.62,2.01,1.66.13,2.57.21,3.44.28.83-2.33,2.9-3.43,4.28-5.12,1.44-1.77,2.99-3.47,4.24-5.36,1.14-1.73,2.07-3.62,2.87-5.54.84-2.01,1.41-4.14,2.1-6.22.33-1.24.11-2.73.66-3.87,1.09-2.28,1.19-4.6,1.17-7.01-.04-3.36,0-6.71,0-9.65-.67-1.29-1.14-2.22-1.6-3.11q1.96-1.71,3.87-.13v4.43c1.38,1.3,1.55,2.93,1.49,4.67-.07,1.8-.23,3.53-.67,5.33-.85,3.4-1.04,6.95-2.31,10.28-.86,2.27-1.41,4.66-2.29,6.91-1.98,5.04-5.39,9.14-8.9,13.15-.79.91-1.69,1.73-2.45,2.5.57,1.27,1.24,1.87,4.2,2.56Zm-180.1,145.31c.18-1.89.33-3.33-.64-4.6.53-2.95-.86-5.74-.76-8.66.07-2.12.02-4.23,0-6.35,0-.21-.16-.43-.3-.78-.7-.42-1.51-.89-2.53-1.5-.99.42-2.31-.44-3.62.67-.57.48-2.13-.39-3.2-.29-3.21.29-6.39.84-9.6,1.12-3.25.29-6.5-.04-9.8.63-2.59.53-4.5,1.17-5.24,3.78-.21,2.27-.68,4.51-.83,6.77-.13,1.95-.41,4.14.3,5.84.76,1.84-.44,3.96,1.16,5.5-.02,3.52,1.35,6.58,2.96,9.62.58,1.1.72,2.44,1.18,4.08.55.13,1.57.73,2.03.44,2.2-1.39,4.28-2.98,6.31-4.61.6-.49,1.02-1.3,1.32-2.05.38-.94,1.93-.3,2.02-1.75.03-.49,1.25-.88,1.87-1.37,1.41-1.12,2.79-2.29,4.19-3.42.17-.13.43-.15.75-.25.33.24.71.51,1.09.78,3.74-1.19,7.47-2.37,11.35-3.6Zm186.04-72.67c2.73-3.5,5.25-12.17,4.13-17.04-1.87-8.1-2.9-14.22-13.88-21.93h-7.49c-.91,2.26-2,4.38-1.74,6.85-1.86,2.81-1.24,6.01-1.56,9.09-.35,3.36,1.08,6.32,1.64,9.46.25,1.41,1.49,2.61,2.01,4,.55,1.46,1.5,2.21,2.88,2.89,4.54,2.27,8.96,4.78,14.01,6.67Zm64.12-55.15c-1.37-1.26-1.58-2.87-1.52-4.62.05-1.43-.13-2.78-.64-4.21-.83-2.3-1.08-4.8-1.59-7.21-.35-1.63-.41-3.44-.93-4.86-.5-1.35.03-2.84-.68-3.8-.97-1.31-.44-2.6-.62-3.88-.07-.48.13-1.2-.13-1.42-1.08-.92-.43-2.1-.63-3.13-.23-1.15-.68-2.29-.69-3.43-.01-1.36.35-2.72.54-4.06-.16-.08-.3-.21-.36-.17-2.42,1.18-5.03,3.28-6.45,5.07-.46.58-.97,1.39-1.59,1.53-1.63.37-2.42,1.69-3.34,2.75-1.75,2.04-3,4.72-2.2,7.21,1.21,3.72,2.34,7.67,5.52,10.42,1.35,1.17,2.73,2.32,4.35,3.69-.38.66-.65,1.48-1.2,2.01-1.45,1.4-3.65,1.5-5.17,2.89-.44.4-1.38.22-2.07.37-.33.07-.77.23-.9.48-.61,1.24-1.95.77-3,1.34.13.42.26.82.47,1.48.6-.42.97-.89,1.36-.91,3.22-.13,6.29-1.11,9.44-1.58,1.47-.22,2.72-.62,3.96-1.35.28-.17.65-.18,1.24-.33.38.89.74,1.74,1.07,2.5-5.36,4.91-4.56,5.92-9.08,14.2,1.56-.39,2.15-1.38,2.93-2.5,1.91-2.74,3.42-5.83,6.15-7.94.17-.13.45-.11.96-.23.26.36.6.86,1.21,1.72v12.37c.93-1.47,1.53-2.43,2.08-3.29.09-2.39-.47-4.8,1.51-6.62,0-1.5,0-2.99,0-4.49Zm29.75-39.39c1.01-.24,2.33-.94,2.73-.59,1.26,1.1,2.62.37,3.87.68,1.26.31,2.42.91,3.81.77.9-.09,1.8-.15,2.79.47,1.09.68,2.58.51,3.53-1.17-1.92-.23-3.74-.22-5.54-1.2-1.32-.72-2.95-1.39-4.46-1.76-1.29-.31-2.38-.99-3.6-1.26-2.27-.51-4.12-2.29-6.82-1.93-.33-.52-.66-1.04-.87-1.38h-6.15c-.49.49-.93.93-1.5,1.5h-3.03c-.54.56-.98,1.01-1.4,1.45-1.02,0-2.01,0-3.01,0-1.46,1.58-3.4,1.57-5.22,1.48-.54.54-.98.98-1.45,1.45-.81.04-1.65.09-2.68.14,0,.68,0,1.28,0,1.88.08,4.76,1.15,9.45.84,14.22,1.02,1.67,2.65.87,4.03,1.03,1.55-1.11,3.08-2.2,4.02-2.87,1.53-1.48,1.35-3.38,3.51-4,.59.89,1.18,1.89,1.88,2.79,1.1,1.43,2.06,3.1,3.48,4.12,1.69,1.22,3.15,2.64,4.68,4.02.33.3.96.26,2.03.52-2.24-3.59-3.33-7.03-5.42-10.03-1.06-1.53-2.77-3.42-1.47-5.77,2.84-.06,5,1.88,7.69,2.37,2.59.47,5.01,1.89,7.5,2.9.18-.26.37-.52.55-.78-4.02-2.8-7.01-6.66-10.91-9.3.06-.81.09-1.28.13-1.83h3.37c1.08.73,2.15,1.45,3.09,2.09Zm-206.33-8.95c-.12,2-.49,3.89-1.53,5.67-.98,1.67-.55,3.82-1.8,5.62-1,1.44-1.12,3.49-1.68,5.25-.59,1.87-1.22,3.72-1.84,5.58-.61,1.86-1.21,3.73-1.84,5.58-.62,1.86-1.27,3.7-2,5.81,3.83,2.74,8.36,4.38,12.19,7.17,3.48-4.68,6.8-9.16,10.36-13.96,0,.13.16-.43-.03-.59-1.49-1.29-1.26-3.63-2.97-4.76.11-2.1-1.54-3.56-1.96-5.56-.48-2.31-1.88-4.42-2.53-6.76-.68-2.45-1.77-4.77-2.24-7.28-.2-1.05-.73-1.73-2.14-1.78Zm207.9-50.89h-2.14c-3.74,0-7.48-.12-11.21.03-3.63.15-7.25.58-11.06.9-.19.19-.54.54-.66.66-.38,1.9-.84,3.51-.98,5.14-.16,1.85-.04,3.74-.04,5.61-1.22,1.15-1.48,2.6-1.55,4.23-.05,1.24-.56,2.46-.82,3.53-1.36.45-2.46.81-3.56,1.17-.29,2.75.56,5.64-.83,8.25-.85,1.6-.7,3.26-.72,4.94,0,.62.07,1.26-.02,1.87-.09.6-.33,1.19-.58,2.04,2.44-.39,4.67-.74,7.17-1.13,2.71-2.32,3.55-5.98,4.53-9.39.58-2,1.45-3.43,3.05-4.87,3.84,1.38,7.89,1.8,12.02,2.52-.03-.66-.05-1-.06-1.27-4.82-1.6-8.65-4.67-12.63-7.31-.11-1.37.24-2.19,1.47-2.74,2.01-.91,6.9-.99,9.5.01.26.1.66-.14,1.25-.28-.46-.73-.82-1.32-1.18-1.88-2.42-.27-5.02.58-6.92-1.54-2.27,0-4.57.08-5.93-2.83,7.62-1.95,14.84-4.43,21.89-7.67Zm-144.75,114.7c.16-.22.32-.43.48-.65-.88-.57-1.8-1.1-2.65-1.73-1.34-1-2.65-2.05-3.93-3.14-.22-.19-.22-.64-.32-.95.7-.36,1.32-.68,2.11-1.08,3.64.21,7.44-1.91,11.39-.26v-1.66c-1.3-1.53-2.96-3.22-5.07-2.51-1.77.6-3.54.36-5.34.78-.38.47-.77.95-1.14,1.41-2.54-.35-4.87.09-7.12,1.03-.53.22-1.14.39-1.7.37-1.52-.05-2.83.35-3.68,1.28-1.98.28-3.74.54-5.58.8-.46-.24-1.08-.56-1.7-.88q-.38-2.22-2.59-2.7c-.89.65-1.53,1.96-3.03,1.52-1.54,1.32-4.19,1.34-4.67,3.88-.3,1.62-1.27,3.05-1.05,4.83.19,1.46.04,2.97.04,4.59,1.05,1.47,2.04,3.09,3.25,4.51,1.24,1.45,2.54,2.94,4.68,3.16,2.1-.45,3.48-1.93,4.83-3.53v-6.91c3.78-1.58,7.6-3.19,11.32-4.75,1.56,1.41,2.38,2.84,3,4.63.4,1.17-.11,3.21,2.04,3.58.22-2.42-.13-4.88.21-7.27h2.86c1.32.63,2.34,1.12,3.35,1.62Zm115.67-157.55c4.35-3.89,10.44-4.21,15.22-7.79-2.15-.72-3.27.57-4.46,1.16-1.89.28-3.62,0-5.46.7-2.79,1.07-5.88,1.15-9.3.7.36-.93.5-1.75.94-2.35,3.04-4.12,6.18-8.16,9.21-12.28,1.04-1.41,1.86-2.98,2.79-4.48-6.06,4.54-11.67,9.45-18.67,12.69,0,.73-.19,1.52.03,2.16.91,2.61,2.04,5.15,2.88,7.78.35,1.09,1.19,2.1.84,3.4-.21.78.41,1.31.69,1.95,1.12,2.64.52,5.64,1.51,8.35.17.46-.29,1.11-.34,1.69-.1,1.17-.55,2.55-.11,3.48,1.4,2.97,3.15,5.79,4.87,8.85,2.27-1.86,4.22-3.47,5.78-4.75.39-1.64.66-2.78.99-4.17-.11-.15-.67-.57-.62-.89.27-1.64-.8-2.64-1.47-3.91-.84-1.57-2.29-3.15-1.27-5.39,2.39-1.36,5.25-1.34,8.1-1.73-.21-.61-.33-.93-.43-1.24-4.12-.15-8.43.86-11.71-2.64v-1.29Zm-191.4,176.49c-4.83,3.22-9.23,6.15-14.19,9.45,1.5-.07,2.45.15,3.14-.18,3.87-1.82,7.67-3.77,11.73-5.79h1.78c.67,2.3,1.31,4.5,1.99,6.82,1.4-1.66.85-3.68,1.59-5.2.87-1.79-.09-3.64.59-5.21.38-.38.64-.64.94-.94,2.65,1.9,3.15,5.72,6.41,7.37,0-.68.21-1.41-.03-1.61-1.65-1.38-1.64-3.58-2.72-5.26-1.87-2.92-2.89-6.27-4.63-9.3-1.29-2.24-1.5-5.09-2.4-7.59-.45-1.27-.81-2.48-.72-3.82.01-.21-.13-.44-.26-.82-.35-.31-.82-.71-.93-.81-.45-2.25-.82-4.09-1.23-6.1-2.11,1.11-2.91-2.52-5.05-.98.81.95,2.21,1.72,1.01,3.59-1.86-.29-3.85-.6-5.82-.91-2.24,1.57-3.36,3.9-4.23,6.22.54,2.48,1.53,4.44,3.79,5.85.73-.26,1.6-.56,2.63-.93,1.15,2.2,4.1.69,5.59,2.68.1,4.42-.37,8.96,1.01,13.44Zm-59.41-35.33c1.25-3.9,3.67-6.51,6.44-8.29,3.12-2,4.88-4.97,6.92-7.68,1.3-1.73,2.34-3.36,4.62-3.92,0-1.76-.11-3.5.03-5.22.23-2.81-.85-5.09-2.5-7.21h-4.72c-.7.7-1.27,1.37-1.94,1.92-2.23,1.85-2.19,4.61-2.78,7.07-.18.77.42,1.78.79,2.62.5,1.16,1.12,2.26,1.54,3.1-7.12,9.76-14.16,19.01-21.79,27.55v6.05c.51.42,1.35,1.11,2.08,1.72-.74,3.03-2.79,5.72-1.93,9.16.55-.15.88-.24,1.33-.35v-3.25c.56-.53,1.01-.95,1.58-1.49v-2.58c.49-.35.99-.7,1.41-1-.21-2.05-.05-3.81,1.5-5.36v-3.42c.89-.27,1.74-.53,2.4-.73,2.97,4.36,1.65,9.13,2.19,13.86,1.08-1.62,1.42-3.05,1.36-4.67-.1-2.74-.04-5.49-.02-8.23,0-.72-.04-1.5.2-2.16.91-2.49,1.54-5.01,1.28-7.49Zm-.47-74.21h-6.92c-.53.89-1.01,1.7-1.66,2.8.09,1.5-.27,3.55.42,5.13,1.5,3.41,3.51,6.61,6.29,9.44.88-.42,1.61-.77,2.38-1.13v-4.79c.57-.57,1.01-1.01,1.59-1.59v-2.36c4.98-1.63,10.19-1.98,14.97-3.99v-1.77c3.62-2.01,7.03-3.91,11.1-6.17-1.86-.14-2.88-.57-3.87.29-.55.48-4.67,1.87-5.24,1.73-.75-.18-1.46-.55-2.12-.82,1.11-1.6,2.05-2.97,3.02-4.32.91-1.26,1.56-2.64,2.93-3.64,1.22-.89,1.96-2.45,3.14-4.02-2.3.32-2.89,2.28-4.31,3.1-.35.21-.76.4-1.01.71-1.93,2.46-3.86,4.9-6.41,6.66-1.19-.65-1.11-1.65-1.1-2.65.02-3.07,0-6.15,0-9.22-2.18,3.44-3.02,7.17-3.94,10.79-.82.93-1.65,1.85-2.05,2.31-2.76,1.25-5.36,1.37-7.22,3.51Zm50.4-10.74c-.15-.06-.3-.11-.45-.17-1.49.6-3.07,1.05-4.46,1.83-1.94,1.08-3.8,2.33-5.58,3.66-.72.54-1.13,1.49-1.85,2.5-.72-.3-1.57-.65-2.58-1.07.66-.81,1.75-1.39.19-2.26-2.65,2.15-5.66,3.94-8.77,5.54-.82.42-1.9.51-2.5,1.12-.79.79-1.57,1.04-2.6,1.06-.14,0-.26.75-.39,1.13,2.19.83,3.63-.36,4.87-1.06,3.55-.32,6.81-.61,10.06-.92.23-.02.49-.07.66-.2,1.1-.92,2.11-.68,3.33-.08,1.46.71,3.03.45,4.22-.35,2.05.53,3.93,1.02,5.15,1.34,4.24-3.31,8.03-6.13,12.09-8.34v-1.9c-2.11-.7-2.28-3.4-4.24-3.9-2.02.33-3.9.64-6.04.99l-1.09,1.09Zm101.41-13.18c.5-.33,1.08-.71,1.49-.98,1.35,1.27,2.52,2.37,3.46,3.25.72,2.06-.95,2.54-1.94,3.26-1.19.65-2.39,1.3-3.5,1.91-2.54-1.41-5.04-2.6-5.6-5.69q.85-1.27-.18-1.89c-2.25,2.76-4.5,5.51-7,8.58,3.08,1.72,5.85,3.38,8.75,4.8.6.29,1.3.37,1.89.87,1.46,1.24,3.02,2.37,4.59,3.58,2.96-3.38,6.81-6.17,9.4-10.22.64-.1,1.32-.21,2.01-.32v-2c-4.39-2.66-8.9-5.58-12.04-9.59-1.08,1.02-1.97,1.86-2.82,2.67-.35,1.7-1.39,3.35-.62,5.19,1.21-.01,2.13,1.93,3.52.52v-.83c-.42-.15-.86-.3-1.39-.48v-2.61Zm-173.52,191.66c.02.15.03.3.05.45-.71,1.31-1.42,2.61-2.09,3.83-1.23.24-2.19,1.05-3.49.89-1.35-.17-2.73-.04-3.6-.04-1.09-.41-1.74-.65-2.07-.77-.9.84-1.6,1.5-2.52,2.36v3.03c.72,1.08,1.31,1.96,1.93,2.87,1.92,0,4.18.58,5.83-.16,1.64-.74,3.37.11,4.55-.7,1.58-1.08,3.1-.45,4.62-.6,1.57-.15,3.16-.03,4.88-.03-.13-1.17.02-2.14-.37-2.8-.8-1.35-.17-2.33.13-3.63.7-3.01,3.16-4.06,5.23-5.48,1.13-.77,2.1-1.38,2.51-2.92-3.54-.75-5.23,1.65-7.13,3.49h-2.55c-.47-.52-.89-.98-1.26-1.38h-3.05c-.54.54-1.07,1.07-1.6,1.6Zm28.19,37.19c0-3.56.05-7.14-.03-10.71-.03-1.02-.55-2.02-.69-3.06-.14-1.06-.39-2.06-.64-3.08-.48-1.93.09-4.08-.86-6.02-.09-.17-.03-.55.11-.68,1.25-1.14.28-2.54.66-3.67-.61-.53-1.05-.91-1.68-1.45-.56.77-1.03,1.28-1.34,1.88-1.05,2.02-1.03,4.31-1.48,6.48-.38,1.8.46,3.54.65,5.29.46,4.36.57,8.75.82,13.13,0,.11.1.21.15.31,1.12,1.16,2.36,2,4.34,1.58Zm11.77-199.32c-2.7.71-4.97,2.46-7.56,1.72-.51.48-.88.82-1.22,1.14v5.99c-.26.3-.63.54-.71.86-.12.46-.03.97-.03,1.44.57.29,1.1.52,1.59.83.58.36,1.11.79,2.15,1.54,0-2.36-.61-4.52.16-5.92.91-1.66.11-2.66-.28-3.93.93-.46,1.76-.87,2.58-1.27.45.43.8.76,1.3,1.24-.31,2.96-.63,6.04-.93,8.92.76.63,1.2,1,1.9,1.58.45-.69.78-1.2,1.28-1.97-.32-2.84.56-6.17-.71-9.39-.24-.61.24-1.51.48-2.76Zm84.95,63.91h2.23c2.12-1.4,4.07-2.69,5.7-3.77v-3.22c-3.01.72-4.87,3.19-7.58,3.88-2.68.68-4.99,2.47-7.91,2.53v1.77c.62.57,1.39,1.29,2.64,2.43.47-3.37,3.92-1.02,4.93-3.62Zm139.06-68.47c.69,3.76-2.5,6.8-2.17,10.65.91.54,1.79,1.06,3.08,1.83-.64-2.34,1.07-4.08.63-6.19,1.42-1.38.72-3.37,1.32-5.05.67-1.9,1.46-4.12.92-6.35-.05-.2-.27-.37-.29-.4h-1.99v4.02c-.48.48-.83.83-1.5,1.5Zm-182.92,65.85c3.79,2.3,8.12,2.72,11.31,5.57.69-.82,1.3-1.55,2.18-2.6-2.28-1.03-4.28-1.92-6.02-3.26-1.68-1.3-3.41-2.55-5.74-2.76-.5.89-1.01,1.79-1.72,3.05Zm88.67,241.11c-.22,2.12.03,4.09,1.75,5.56h3.18c1.15-1.15,2.21-2.21,3.45-3.45-.26-.98-.56-2.09-.83-3.11h-2.86c-.18.52-.34.95-.49,1.39h-1.6c-.48-.46-1.01-.95-1.53-1.45-.36.36-.72.72-1.07,1.07Zm-48.25-230c3.25-1.32,6.22-3.39,9.73-4.13.73-.15,1.28-1.1,1.66-1.44v-2.96c-2.46.53-4.31,1.89-6.31,2.99-1.98,1.08-4.21,1.71-6.49,2.59.48,1,.88,1.82,1.42,2.95Zm141.85-119.75c-1.23-3.15-2.87-5.98-3.34-9.51-1.23.63-2.34,1.2-3.25,1.67-.93,2.98,2.18,4.75,1.31,7.15,1.63.63,2.97,1.14,4.32,1.66.26-.26.53-.53.97-.97Zm-13.9,73.22c-2.04,2.82-3.96,5.47-5.89,8.13.63.65,1.04,1.08,1.44,1.48.56-.04,1.1.05,1.51-.14.42-.19.72-.66.71-.65.49-1.78.86-3.12,1.13-4.11,2.42-1.11,3.54-3.13,5.15-4.41-1.14-2.26-2.63-.85-4.05-.31Zm-62.01,265.31c.34,1.64.68,3.23.96,4.61,1.03.44,1.75.76,2.43,1.05,1.82-.82,2.66-2.42,3.65-3.75-1.06-1.06-1.99-2-2.87-2.88-1.17.27-2.41.56-4.17.97Zm60.59-255.5c3.14-.5,4.8-2.17,6.51-3.81,1.72-1.65,4.29-2.26,5.82-4.57h-4.66c-1.45,1.32-2.8,2.39-3.96,3.65-1.2,1.31-2.22,2.8-3.72,4.73Zm16.22-92.51c-.51,2.23-.21,4.1.99,5.5.39,1.88.71,3.48,1.01,4.91q2.49.99,4.77.47c-1.9-2.84-4.24-5.4-4.91-9.02-.47-.47-1.08-1.08-1.86-1.86Zm-6.82,59.33c.34.62.61,1.11.9,1.65,1.1-2.33,2.58-4.18,2.08-5.94,1.15-3.3,2.1-6,2.87-8.23-.46-.84-.73-1.33-1.22-2.23-.91,2.53-1.61,4.46-2.57,7.12v2.82c-.5.5-.94.94-1.13,1.13-.39,1.54-.7,2.78-.93,3.68ZM77.87,214.82c2.51.33,4.86-.36,7,.85,1.91,1.08,4.24,1.03,6.34,2.7.06-1.14.1-1.81.09-1.77-.87-1.22-1.37-1.91-1.55-2.16-4.29-.82-8.07-1.51-11.89-.78v1.16Zm246.91-46.68c1.22.08,1.99-.09,2.21-.61,1.42-3.34,3.72-6.05,6.2-8.43-.05-.72-.08-1.19-.12-1.74h-2.68c-1.85,3.56-3.71,7.14-5.61,10.78Zm-88.87,256.64c-.18-.21-.36-.41-.54-.62-.84-.07-1.67-.14-2.92-.24.56,1.51.96,2.58,1.2,3.23,1.18.83,2.03,1.42,2.8,1.96.48,0,.91.12,1.2-.03.42-.22.72-.65,1.11-1.02v-3.91c-.48-.44-.9-.84-1.15-1.07-.68.68-1.19,1.19-1.69,1.69Zm-22.6-85.54c.94-1.68,1.78-3.18,2.57-4.6-.62-.62-.98-.97-1.58-1.56-1.16.3-2.5.64-3.75.96v5.2h2.76Zm65.02,74.96c-.85.72-1.51,1.27-1.92,1.61v4.28h2.4c3.12-3.06,3.27-3.58,1.65-5.9h-2.13Zm-138.94-236.71c2.34-.29,2.85-.61,2.85-1.79-.5-.57-1.05-1.19-1.59-1.81v-2.14c-.53-.52-.97-.95-1.4-1.38v-2.44c-.57-.31-1.23-.67-2.17-1.19-.42,4.02,2.11,6.98,2.31,10.74Zm33.98,29.37c-.4-.44-.98-1.08-1.52-1.67-.46,0-1.02.16-1.18-.02-1.45-1.66-3.69-1.32-5.43-2.2-.09-.05-.35.25-.66.49.38.79.78,1.62.97,2,2.26,1.3,4.15,2.39,6.28,3.62.45-.65.94-1.35,1.55-2.22Zm51.89,210.85c.41.81.81,1.63,1.2,2.4h3.02c.37-.37.72-.72,1-1v-5.22c-.95.35-2.1.42-2.31.91-.6,1.38-2.16,1.66-2.91,2.91ZM113.79,145.96c0-1.38.05-2.71-.01-4.04-.06-1.39.28-2.83-.36-4.35-4.01,1.9-1.72,5.8-3.23,8.39h3.6Zm22.21,27.78c-2.35-.57-.65-3.04-1.5-4.49h-.9c-.4.81-.8,1.62-.96,1.94.42,1.95.72,3.41,1.05,4.86.34,1.46.66,2.95,2.33,3.55.33-.35.64-.68.93-1.01-1.33-1.28-.4-2.85-.96-4.86Zm134.05,266.58c1.24-.88,1.94-1.38,2.38-1.69v-2.67h-4.15c-.28.28-.64.64-.89.89v2.38c.85,1.44,2.05,1.05,2.67,1.08Zm-45.58-31.7c-.4-.77-.71-1.38-1.13-2.19-1.07.4-2.14.8-3.14,1.17v4.08c.52.42.97.78,1.7,1.36.94-1.62,1.75-3,2.57-4.42Zm116.5-274.58c.6-1.46,1.21-2.93,2-4.84v-3.08q1.25-1.43,1.17-3.23h-1.74c-.82,3.73-1.79,7.38-2.17,11.15h.74Zm-212.08,39.96v6.98l.96.96c.68-.63,1.37-1.26,2.17-2.01-.33-.97-.64-1.84-.91-2.73-.38-1.22-1.23-2.34-.87-3.75.02-.09-.28-.26-.43-.39l-.93.93Zm151.97,228.52c-.96.91-1.71,1.63-2.37,2.26.03,1.94-.3,3.78,1.5,5.01,2.44-1.04.76-3.73,2.29-4.72-.51-.92-.89-1.59-1.43-2.55Zm-72.22-194.11c.27.62.44,1,.58,1.33,1.87-.56,3.64-.8,5.11-1.61,1.42-.78,3.59-.56,4.15-2.85-3.82-.62-6.16,3.03-9.84,3.12Zm-32.84-3.98c.39-1.42-.49-2.2-1.57-2.15-1.41.07-1.67-1.63-2.73-1.52-1.41.15-1.88-.96-2.52-1.4h-2.79c.73.84,1.35,1.54,1.95,2.24,1.71-.54,2.78.18,3.66,1.34,1.76-.79,2.27,1.7,4.01,1.49Zm17.54,48.01c.31,1.08.56,1.95.88,3.06,1.13-1.57,3-2.34,3.54-4.53-1.93-.34-3.11.62-4.42,1.47Zm151.28-98.08c1.18-.88,1.66-1.76,1.03-2.92-.79-.35-1.52-.67-2.21-.97-1.12.72-1.64,1.57-1.18,2.81.74.34,1.47.68,2.36,1.08Zm-20.88,35.73c-.92-.53-1.58-.92-2.29-1.33-.78,1.12-2.28,1.75-2.65,3.53h2.98c.59-.66,1.21-1.36,1.97-2.2Zm-232.9,16.55c.17.91.37,1.74.48,2.59.12.91.14,1.83.21,2.74.25.08.49.15.74.23.49-1.06,1.42-1.87,1.28-3.6-.73-.56-1.13-1.86-2.71-1.96Zm264.4-103.15c-1.28-.06-2.19-.11-3.15-.16-.41.64-.78,1.21-1.37,2.13,1.28.06,2.19.11,3.15.16.41-.64.78-1.21,1.37-2.13Zm-219.11,103.64v-1.77c-1.65-.45-2.59.08-2.85,1.19.44.78.72,1.27.89,1.56.9-.45,1.49-.75,1.97-.98Zm-10.21,14.7c.06,1.26-1.94,2.16-.37,3.68.6-1.36,2.32-1.84,2.54-3.68h-2.17Zm151.1,188.18c-1.97-.19-2.14.01-2.01,2.87.75-1.13,2.04-1.46,2.01-2.87Zm16.87-210.24h2.78c-.24-.61-.39-1-.65-1.67-.76.6-1.3,1.02-2.13,1.67Zm-18.5-73.33c-.03-.22-.05-.43-.08-.65l-1.22.29c.02.12.04.24.06.36h1.24Zm56.88,76.39c-.01-.21-.03-.43-.04-.64-.42.09-.83.18-1.25.27.02.12.03.25.05.37h1.24Zm-117.9,127.44h.25v-.75h-.25v.75Zm59.14,91.36h.25v-.75h-.25v.75Z"/>
      <path d="m255.29,468.8c-.5,0-1.19-.21-1.47.03-2.32,2.06-5.59,2.41-8.05,4.46h-1.64c-3.97,1.75-7.55,3.33-11.33,4.99.47.09.85.21,1.24.24.49.04.98,0,1.41,0,1.12,1.12,2.18,2.18,3.12,3.12,1.53,5.29,4.92,9.98,3.74,16.23-.33.28-1.07.91-1.86,1.58-4.81-1.25-8.01-4.54-10.52-9.51.04,1.93-.42,3.18.5,4.66.75,1.2-.1,3.66-1.4,6.08-2.4,1.4-3.73-.85-5.31-1.81-1.45-.88-2.54-2.38-3.74-3.64-.67-.7-2.08-4.47-2.13-5.48-.1-2.08.36-3.99,1.57-5.72.59-.85,1.06-1.8,1.6-2.72-3.71-1.94-5.83-4.91-7.24-8.61-.38-1-.71-2.29-.34-2.74,1.29-1.51.29-3.11.61-4.2-1.1-1.94-2.13-3.52-2.92-5.2-.54-1.14-2.09-1.84-1.59-3.46-1.28-.85-1.47-2.06-1.51-3.52-.03-.96-1.81-1.35-1.42-2.75-1.57-2.1-1.25-4.97-3-7.29.08-1.67.11-3.62-1.3-4.91-.35-2.2-.34-4.33-1.06-6.17-.75-1.91-.42-4.07-1.44-5.76-1.22-2.02-.41-4.08-.68-6.09-.11-.82-.33-1.58-.59-2.37-.54-1.65-1.09-3.36-.98-5.25.2-3.23.16-6.49.01-9.73-.08-1.74.47-3.3.78-4.94.31-1.63-.57-3.41.71-4.97.31-.37.1-1.22.04-1.83-.44-3.94,1.15-7.4,2.42-10.98.7-1.96,2.08-3.56,2.31-5.83.17-1.66,1.77-3.1,3.37-4.03,2.11-1.23,4.27-2.35,6.54-3.58,1.61.29,2.02,2.11,3.52,3.32-.29,2.29-.6,4.78-.92,7.28,1.78,2.12,3.28,4.37,2.99,7.28-.77,1.13-1.5,2.2-2.3,3.37,1.53.86,3.04,1.71,4.54,2.55,0,2.12-.01,3.97,0,5.83.02,2.15-.33,4.03-2.76,4.82-.53.17-.9.84-1.35,1.3h-3.02c-1.27-1.3-2.58-2.64-4.02-4.12v-4.54c.55-.82,1.27-1.9,2.13-3.19-.7-.35-1.51-.75-2.98-1.48-.48-.93-1.72-2.48-2.04-4.2-.3-1.66.35-3.49.63-5.61-.83-.26-1.74-.83-2.55-.72-.73.1-1.1.96-1.35,1.91-.65,2.4-1.52,4.67-1.53,7.26,0,1.46-.35,3.13-.8,4.5-.35,1.06-.57,2.06-.57,3.11-.03,6.99.08,13.98-.09,20.97-.04,1.55.85,2.72.85,4.18,0,1.42-.49,2.96.72,4.18-.72,3.47,2.11,6.41,1.5,9.86,1.23,2.65,1.41,5.65,2.65,8.26.6,1.27-.2,2.85,1.43,4,.87.61.55,2.72,1.24,3.88.74,1.25.93,2.71,1.6,3.82,1.39,2.3,2.28,4.86,4.07,7.06h2.87c.36.43,1.03.86,1.07,1.34.12,1.66,1.83.82,2.39,1.69,1.42-1.14,2.78.37,4.26.07,1.56-.31,3.28.19,4.84-.12,5.48-1.07,11.14-1.54,16.12-4.45.4-.23.83-.43,1.21-.7,2.59-1.85,5.35-3.19,8.52-3.89,1.39-.31,2.57-1.59,3.82-2.47.66-.46,1.28-.99,2.4-1.87h1.75c1.72,1.28,2.89,2.98,2.69,5.2-3.44,4.7-7.2,8.86-12,11.96Zm-28.83,8.24c1.05-.11,2.02.03,3.11-.66,1.43-.9,3.1-1.57,4.66-2.23,3.6-1.52,7.28-2.85,10.89-4.37,1.2-.5,2.29-1.7,3.38-1.63,2.14.14,3.2-1.45,4.73-2.23,1.25-.64,2.38-1.53,3.5-2.38,2.93-2.24,5.65-4.69,7.74-8.43-1.16.28-1.95.27-2.46.63-2.47,1.78-4.87,3.57-7.97,4.26-1.3.29-2.38,1.42-3.63,2.03-1.88.91-3.6,2.13-5.5,2.97-1.99.88-4.14,1.44-6.25,2.05-2.3.66-4.7.28-7.1.84-2.84.66-5.98.45-8.92.04-1.76-.24-3.46-.83-5.49-.51-.25,1.03-1.04,2.37-.69,3.23,1.18,2.89,1.93,6.15,4.84,7.79h3.73c.44-.44.79-.79,1.41-1.41Zm.88,20.24c1.17-4.16-1.51-7.76-1.29-11.68-.44-.44-.93-.83-1.3-1.33-.29-.4-.42-.91-.71-1.59-1.98,1.15-1.97,3.26-3.19,4.49v3.44c1.5,3.04,2.85,5.96,6.49,6.67Zm8.68-14.44c-.06-.06-.68-.68-1.22-1.22-1.21.5-2.26,1.16-2.94,2.53.33,1.99.65,3.98.98,5.97.14-.14.29-.29.43-.43,2.13,2.13,4.25,4.26,6.23,6.24v-3.64c-.1.03-.21.06-.31.09-.98-2.96-1.96-5.91-3.16-9.53Zm-21.84-107.86c-.23-1.56.25-3.02-.46-4.48-2.25,1.15-4.29,2.2-6.37,3.26.06,1.1.1,2.02.13,2.58,1.22.45,2.07.76,3.15,1.16,1.12-.79,2.35-1.67,3.55-2.52Zm3.07,19c-.05.37-.08.71-.15,1.05-.07.35-.18.7-.31,1.22-.53-.58-.84-.91-1.02-1.11.24-.57.51-.98.57-1.42.06-.43-.1-.89-.16-1.31-2.07-.13-1.82,1.85-2.69,2.52v2.47c1.35,1.35,2.21,2.21,3.18,3.19.4-.58.96-1.38,1.83-2.61v-4h-1.24Zm-1.72-12.67h-3.58c.12.16.25.32.37.48-.75.43-1.51.87-2.18,1.25.5,1.6.88,2.82,1.26,4.04h3.17c.35-.35.62-.62.96-.96v-4.81Zm10.47,99.71c.9,1.26,1.72,2.42,2.58,3.63,1.29-1.99,2.47-3.83,4.11-6.37-2.71,1.11-4.66,1.91-6.69,2.74Z"/>
      <path d="m208.64,343.76h2.69c.89.67,1.64,1.23,2.88,2.16.43,1.12,1.08,2.84,1.64,4.32-1.59,2.39-3.14,4.18-5.24,5.04.03,1.75,1.76,1.93,2.69,3.01v5.7c-1.28,1.33-2.9,3-4.28,4.44h-3.48c-1.93-1.37-2.51-3.58-3.46-5.34.68-3.54,3.1-5.56,5.36-7.81-.62-.44-1.19-.84-2.15-1.52-.39-.75-1.02-1.97-1.66-3.2.92-2.63,2.46-4.85,5-6.8Zm-1.49,23.27c1.42-1.79,2.34-2.96,3.11-3.93v-3.45c-.53-.41-.99-.76-1.24-.95-1.19,1.04-2.19,1.91-3.1,2.7v3.78c.2-.18.41-.37.61-.55.17.65.33,1.29.62,2.42Zm5.47-18.54c-.8-.67-1.61-1.34-2.4-1.99-1.08,1.1-1.95,1.97-2.73,2.76v2.74c.76.31,1.5.61,2.06.84,1.18-.81,2.12-1.46,3.07-2.11v-2.24Z"/>
      <path d="m272.23,483.06c-5.39-.96-10.11-7.69-10.21-14.38.82-1.15,1.53-2.41,2.49-3.43.88-.94,2.03-1.64,3.01-2.41.73.42,1.4.8,2.31,1.33-1.21,1.42-2.12,2.81-3.96,3.35v6.45c1.42,1.94,2.97,4.05,4.69,6.38,1.16-2.39-.53-4.93,1.21-6.83-.26-.79-.64-1.55-.72-2.33-.12-1.23-.15-2.5,0-3.73.31-2.78-.73-5.09-1.95-6.91.29-.61.56-1.18.79-1.66,1.11,1.25,2,2.25,3.27,3.68-.12,1.29,1.44,3.27.86,5.5-.54,2.11.92,3.99.73,6.04-.2,2.13-.57,4.25-.88,6.49-.5.77-1.08,1.65-1.62,2.47Z"/>
      <path d="m253.73,485.12v6.58c-.33.33-.59.59-.96.96h-3.62c-3.26-1.88-6.05-4.03-7.78-7.18-.48-.92-.95-1.84-1.72-3.31v-3.36c1.66-1.53,2.98-3.52,5.48-4.04.94.3,1.94.62,3.24,1.03,3.15,1.88,3.47,5.88,5.36,9.32Zm-3.68-1.71c-1.69-1.7-1.2-4.57-3.94-5.79-.79.28-1.86.65-2.78.97v4.8c1.66,2.65,3.56,4.98,6.49,6.25.38-.41.7-.76,1-1.09-.27-.84-.63-1.58-.74-2.37-.13-.85-.03-1.73-.03-2.78Z"/>
      <path d="m255.15,468.8c1.26,0,2.01,0,2.76,0,1.06,1.06,2.12,2.12,2.88,2.88,1.21,2.67,2.26,4.98,3.45,7.59-.82,2.14,2.35,4.69-.56,7.46-2.44.58-4.77-.74-6.86-2.59-1.89-1.67-3.64-3.45-4.04-6.19-.14-.97-.9-1.85-1.53-3.04,1.31-2.06,2.63-4.12,3.9-6.11Zm.23,4.8c.21.95-.55,2.66.37,4.32.79,1.44,1.25,3.08,2.66,4.09,1.01.72,2.09,1.34,3.49,2.22.48-3.07-2.38-5-1.24-7.56-2.15-1.07-1.25-4.39-4.18-4.92-.24.4-.55.93-1.09,1.85Z"/>
      <path d="m285.22,268.38v1.87c-.57.04-1.14.08-1.96.14-.76-1.03-1.6-2.15-2.55-3.43.67-.48,1.33-.95,1.78-1.27.66.65,1.55,1.53,2.73,2.69Z"/>
      <path d="m194.24,260.67c.66.63,1.33,1.27,1.98,1.89-.38,1.63-1.37,2.02-2.86,1.72-.34-1.3-.58-2.59.88-3.6Z"/>
      <path d="m148.7,79.96c-.37-1.05-.57-1.59-.66-1.84q.78-.19.66,1.84Z"/>
      <path d="m284.73,127.51s-.19.4-.46,1c-.73.28-1.68.64-2.69,1.02v2.6c-1.58,1.03-3.16,1.41-5.12,1.08-.64.78-1.34,1.64-2.05,2.5-.91-.4-1.64-.72-2.53-1.11v-2.56c.48-.46,1.1-1.06,1.78-1.71h2.72c1.28-.9,2.43-1.73,3.58-2.54v-1.15c.78-.98,1.38-1.73,2-2.51.98,1.2,1.82,2.23,2.76,3.38Z"/>
      <path d="m267.56,127.97c-.99-.99-1.7-1.69-2.51-2.51,1.17-1.01,1.58-2.71,3.37-3.21.45.21,1.05.49,1.98.93-.42,1.41-.86,2.93-1.39,4.74.44,1.03,2.54,1.02,2.54,2.86-.71.74-1.56,1.64-2.56,2.68-.72-.25-1.48-.52-2.47-.86,0-.97-.12-1.82.04-2.62.13-.65.59-1.23,1-2.02Z"/>
      <path d="m282.23,225.07v2.22c-.62.62-1.23,1.23-1.84,1.84-1.18-.05-2.54.5-3.33-1.38v-2.79c.53-.5,1.23-1.15,1.9-1.78,1.74-.42,2.32,1.07,3.27,1.9Z"/>
      <path d="m279.99,173.74c-1.12.06-.64.93-.75,1.5h-3.58c-.37-1.75-.05-3.57-.21-5.62.63-.5,1.39-1.1,2.34-1.85h1.09c.63.63,1.24,1.24,2,2-.28,1.25-.59,2.61-.89,3.97Z"/>
    </g>
  </g>
</svg>
