<?xml version="1.0" encoding="UTF-8"?>
<svg id="Layer_2" data-name="Layer 2" xmlns="http://www.w3.org/2000/svg" viewBox="0 0 449.32 250.46">
  <g id="Layer_1-2" data-name="Layer 1">
    <style>
      path{
      fill:#5A82C5
      }
    </style>
    <style>
      @import url(../css/art.css)
    </style>
    <g>
      <path d="m112.31,80.76c-.87,0-1.98-.34-2.58.06-2.41,1.61-4.03.28-5.67-1.21-.74-.67-1.42-1.4-1.86-1.85-1.44-4.4-.86-8.28,1.53-11.92,1.84-.11,3.67-.07,5.49.91,1.58.85,3.54.86,5.36,1.7-.72-.72-1.51-1.38-2.13-2.17-.57-.73-.97-1.6-1.62-2.72v-5.2c.94-1.55,1.72-2.84,2.66-4.4.39-.19,1.12-.53,1.83-.87,4.19,1.48,7.55,4.26,11.3,7.61.15.29.64,1.28,1.14,2.3,1.46-1.6,2.71-2.97,4.1-4.49-.68-.33-1.28-.83-1.93-.9-4.89-.5-6.44-1.2-10.07-4.83v-5.46c1.87-2.15,3.94-4.53,6.2-7.14.78.29,1.86.34,2.17.86,1.51,2.57,3.63,4.42,6.08,6.01.72.47,1.25,1.21,1.86,1.82.09.92.19,1.84.28,2.74.52-.05.91.02.98-.1.84-1.46,1.39-3.15,3.15-3.86,5.56-8.76,13.38-15.5,20.6-22.77,3.18-3.2,6.48-6.32,9.96-9.18,5.45-4.47,11.19-8.58,17.59-11.64,1.14-.54,2.73-.57,3.48-1.41,1.11-1.24,2.38-.98,3.64-1.3.68-.17,1.22-.9,1.82-1.37,4.49,0,8.99,0,13.48,0,2,1.75,4.54,2.7,6.55,4.46,1.32,1.15,2.92,1.99,4.32,3.07,1.42,1.09,2.92,2.15,4.05,3.51,1.05,1.26,2.48,2.08,3.46,3.29,3.32,4.13,7.36,7.57,10.78,11.56,3.06,3.58,6.33,6.99,9.24,10.68,3.36,4.27,6.41,8.78,9.5,13.25,2.4,3.47,4.87,6.92,6.87,10.62,1.45,2.69,3.07,5.23,4.82,7.72,1.69,2.39,3.22,4.89,4.79,7.36,1.68,2.65,3.32,5.32,5.1,8.18h1.89c3.36-4.47,5.96-9.54,9.97-13.69,2.1-2.17,3.96-4.65,6.2-6.71,1.94-1.78,4.19-3.22,6.13-5,1.15-1.06,2.25-2.18,3.73-2.6,1.49-.42,2.24-2.23,4.1-1.96.37.05.87-.81,1.31-1.25,1.21-.51,2.5-.18,3.84-.64,2.63-.91,5.41.03,8.01,1.01,1.51.57,2.97,1.32,4.52,1.72,2.63.68,4.81,2.3,7.27,3.22,3.71,1.38,6.35,4.1,9.17,6.57,3.08,2.69,6,5.58,8.8,8.56,1.87,1.99,3.67,4.16,4.97,6.53.91,1.66,2.48,2.61,3.35,4.21,1.79,3.25,3.48,6.57,5.52,9.67,1.87,2.83,2.81,6.12,4.89,8.85.86,1.14,1.01,2.8,1.58,4.18.21.51.71.9,1.26,1.58.88-2,1.67-3.79,2.46-5.59-.62-1.88-2.76-1.09-3.81-2.14-.98-.99-1.83-2.11-2.84-3.29v-2.55c.7-1.79,1.2-3.08,1.74-4.46.28-.1.71-.25,1.15-.41v-1.63c1.77-1.35,3.48-2.86,5.39-4.05,1.76-1.09,3.73-1.84,6.26-3.05.39.11,1.5.41,2.56.69.31,6.25-.86,11.81-3.68,17.21,4.1-1.97,8.3-1.38,12.29-1.41,1.78,1.16,1.01,2.76,1.12,3.85-2.51,5.09-4.96,9.91-9.09,13.93h10.28c1.24.95,2.01,1.54,2.84,2.17-3.07,5.36-7.46,9.25-11.65,13.48-.92.41-2.46-.04-2.84,1.63.07,1.2,1.82,1.5,1.58,3.07-.17,1.13,1.75,1.5,1.53,3.12-.13,1,1.93,1.57,1.39,3.1,1.82,1.46,1.38,4.45,4.22,5.33-.62,1.17-1.05,1.97-1.63,3.07-.94-.52-2.24-.91-2.24-1.3,0-1.91-1.97-2.68-1.99-4.64-1.99,1.17-3.69,2.17-5.54,3.27-.95,0-2.08-.12-3.17.04-.9.13-1.75.59-3.19,1.12-.35.42-1.11,1.32-2.09,2.5h-1.3c-.31-.62-.62-1.24-.74-1.48.51-2.42.96-4.6,1.52-7.26.17-.08.86-.41,1.13-.53v-2.17c1.61-1.55,3.22-3.1,5.08-4.88h3.34c-.63-1.7-1.16-3.15-1.74-4.74-2.34,2.01-3.29,5.09-6.6,5.48-2.68.31-5.09,2.12-7.29,1.56-2.52.94-4.47,1.67-6.43,2.4-.44-.83-.75-1.43-.99-1.87.74-5.99,3.09-10.87,9.16-13.18,2.1-.34,4.34-.7,6.85-1.11.13-.13.47-.5,1-1.07-1.02-1.9-2.13-3.9-3.18-5.93-1.01-1.95-1.93-3.94-2.92-5.89-1.05-2.06-2.13-4.1-3.26-6.25h-1.94v3.22c-1.26-.64-2.27-.95-2.98-1.58-.67-.6-1.01-1.56-1.54-2.33-1.62-2.32-3.27-4.63-4.92-6.94-.07-.1-.16-.23-.26-.26-2.52-.77-3.17-2.93-3.9-5.45.84-.39,1.74-.81,2.69-1.26.75,1.7,1.02,3.45,2.03,4.35,1.13,1,1.96,2.23,2.99,3.27,1.31,1.32,2.25,3,3.53,4.79.71-.58,1.53-1.25,2.22-1.81-2.12-4.65-5-8.74-7.38-13.12-.34-.62-.79-1.17-1.2-1.75-1.76-2.51-3.41-5.11-5.32-7.5-1.96-2.46-4.19-4.71-6.27-7.07-3.08-3.49-7.07-5.91-10.53-8.95-.93-.82-2.18-1.34-3.36-1.8-4.4-1.73-8.7-3.8-13.25-5.02-4.21-1.13-8.19.26-11.88,2.51-6.1,3.71-11.05,8.73-15.98,13.77-.91.93-1.61,2.06-2.4,3.11-.71.95-1.4,1.92-2.12,2.86-1.75,2.27-3.55,4.51-5.27,6.8-.25.34-.2.91-.28,1.36-.47.02-.91.06-1.52.1.06.55.11.96.15,1.41.5-.04.82-.07,1.27-.11.04-.49.07-.94.1-1.41.54-.16,1.22-.19,1.61-.54,1.3-1.16,2.53-2.41,3.72-3.68,3.75-4.02,7.94-7.53,12.62-10.84.38.29.84.63,1.39,1.04v3.98c-1.33,1.63-1.52,3.85-2.79,5.59-.39.54-.58,1.45-1.07,2.16-.4.57-.38,1.44-.03,2.47.83-.74,1.72-1.44,2.48-2.25.81-.86,1.49-1.83,2.23-2.74.76-.93,1.51-1.87,2.28-2.8.77-.92,2.11-1.13,2.55-2.64.33-1.13,1.6-1.99,2.56-3.08h2.33c-.03.45.08.87-.08,1.11-.92,1.41-1.84,2.79-1.16,4.66.33.02.67.04,1.15.07v-1.88c.54-.18.97-.33,1.63-.55-.44-1.84,1.01-2.62,1.98-3.61,1.81.53,1.49,1.86,1.86,2.97.42,1.29.69,2.51.66,3.83-.03,1.22,0,2.43,0,3.59.49.08.72.12,1.2.2.71-2.89,1.42-5.81,2.22-9.07.14-.14.58-.58,1.16-1.16v-3.2h2.91c0,.49-.19,1.08.03,1.4,2.39,3.49,2.48,7.71,3.7,11.56,1.13,3.59.75,7.46,2.16,11.07.65,1.67-.03,3.8.83,5.64.43.93.59,1.99,1.11,3.87.27-1.06.38-1.53.5-1.99.18.14.36.27.54.41v-22.57c.57-.57,1.01-1.01,1.72-1.72v-4.99c2.91,1.03,3.58,3.48,4.32,5.58,1.48,4.18,2.4,8.54,3.09,12.94.2,1.27.87,2.42.83,3.8-.01.41,1.01.85,1.86,1.51.52-2.53.1-4.74.33-7.01h2.25c1.19,1.34,2.3,2.6,3.57,4.03-.08,1.72,1,2.82,2.84,3.49,1.67,3.6.76,7.55,1.04,11.41-1.19.88-2.06.36-2.84-.55-.36-2.75-.72-5.48-1.13-8.56-.94-.52-1.08-1.86-1.61-3.04-.42-.94-.48-2.58-2.39-2.42-.35,2.52-.92,5.08-1,7.66-.07,2.6.35,5.22.57,7.93h-2.56c-1.48-2.4-.65-5.33-1.78-7.84-.52-1.14-.74-2.42-1.31-3.57-.09-2.24-.31-4.45-1.38-6.53-.31-.6-.32-1.4-.31-2.1.01-1.1-.06-2.15-.77-3.06-1.35-1.73-.48-3.77-.81-5.65-.35-.35-.71-.7-1.07-1.07-.35.36-.69.71-1.05,1.08-.3,1.98.35,4.11-.52,6.24,1.56,3.79-.26,7.82-.32,11.84-.06,4-.33,8-.5,11.69-.76.7-1.18,1.1-1.64,1.53-2.34-1.53-2.45-3.65-2.31-5.82-1.19-1.08-1.51-2.4-1.56-3.91-.03-1.03-.4-2.06-.72-3.05-1-3.12-.54-6.59-2.24-9.54.34-3.17-1.04-6.08-1.37-9.11-.21-1.93-.98-3.6-1.09-5.88-.95.69-1.51,1.1-2.04,1.48,0,1.84,0,3.58,0,5.33-1.55,1.47-1.6,3.39-1.49,5.18-.68,1.02-1.26,1.9-1.77,2.67-2.15.15-2.32-1.78-2.61-2.71-.91-2.91-1.28-5.98-1.88-9.13-.2-.03-.54-.09-.77-.12-.86,1.85-1.63,3.65-2.53,5.39-.27.53-.79,1.02-1.32,1.29-.39.21-.97.04-1.74.04v-5.53c-.98.54-1.71.7-2.05,1.16-2.6,3.53-6.2,7.14-9.77,9.73-.6.43-1.05,1.06-1.6,1.57-.26.23-.57.46-.89.55-.35.09-.74.02-1.26.02-.42-.99-.42-1.95.08-3.01,1.03-2.19,1.87-4.46,2.69-6.74.58-1.61,1.78-2.99,2.6-4.53.3-.57.27-1.3.48-2.51-.96.5-1.53.65-1.89,1-3.73,3.68-7.42,7.39-11.14,11.08-1.11,1.1-2.16,2.24-3.63,2.96-1.16.56-2.11,1.55-3.15,2.33-.95.71-2.31,1.21-2.78,2.16-.84,1.71-2.91,2.56-3.07,4.73-.04.6-.87,1.1-1.24,1.71-.61.99-1.57,2.01-1.59,3.04-.03,1.52-1.98,1.82-1.67,3.5.2,1.12-2.03,1.54-1.42,3.11-1.33,2.2-2.66,4.39-3.94,6.5h-1.87c-.63-1.83.65-2.96,1.32-4.27.74-1.44,1.42-2.93,2.33-4.26.86-1.27,1.52-2.72,2-4.03.6-1.63,1.75-2.77,2.48-4.21.68-1.34,1.37-2.69,2.19-3.95.91-1.39,1.96-2.69,2.98-4,.89-1.15,1.83-2.25,2.98-3.67v-1.08c-2.9-2.37-4.6-5.71-6.58-8.81-4.22-6.59-8.32-13.25-12.46-19.89-.48-.77-.95-1.56-1.85-3.05v4.06c-.53.53-.79.79-1.05,1.05-.61-.26-1.51-.36-1.77-.82-1.82-3.25-4.81-5.61-6.72-8.79-.4-.67-.96-1.88-2.29-1.34.15,1.62.83,3.42.33,4.78-.94,2.57-.36,5.05-.39,7.56,0,.17.33.35.51.53-.38.67-.76,1.33-1.2,2.12-1.71-.69-2.04-2.2-2.46-3.65-.35-1.22-.75-2.42-1.3-3.57-.24-1.49.24-3.31-.99-4.41-1.46-1.31-.02-3.07-1.17-4.44-.85-1.01-1.17-2.48-1.64-3.78-.5-1.42-.65-3.02-1.41-4.26-.74-1.2-.51-2.91-2.11-4.1-.62,1.99-.27,3.69-.34,5.35-.07,1.58-.01,3.16-.01,5.06-1.65-.7-2.65-1.32-3.01-2.81-.93-3.85-3.41-7.04-4.77-10.74-.65-1.76-2.22-3.19-3.45-4.87-1.79,1.92.36,2.94.74,4.29v3.26c-.8.05-1.62.11-2.28.15-.94-1.09-1.72-2.12-2.65-2.99-.26-.25-.96-.04-1.42-.04.16,1.85.32,3.69.5,5.73.35.36.85.9,1.37,1.44v5.67c.6,1.16,1.08,2.09,1.73,3.34-1,.46-1.89.87-2.84,1.3-.9-3.02-1.92-5.62-3.43-7.94-2.24-3.46-4.69-6.78-7.09-10.23-.3.28-.64.59-.88.81.18.83.49,1.59.49,2.34.03,14.95.09,29.91-.06,44.86-.02,1.94-.16,4.25-2.03,6.02-.55-.43-1-.79-1.5-1.17-.29-3.24-.55-6.48-.9-9.71-.09-.79-.55-1.53-.71-2.31-.43-2.12-.95-4.2-.82-6.42.07-1.25-.17-2.68-.76-3.76-.81-1.52-.56-3.04-.71-4.58-.12-1.28-.46-2.54-.73-3.8-.27-1.28.58-2.69-.57-3.89-.26-.27-.15-.93-.17-1.41-.02-.5,0-1,0-1.5,0-3.12.13-6.24-.04-9.34-.16-3-.62-5.97-.96-9.07h-1.84v3.18c-.56.47-1.04.87-1.56,1.31v2.41c-.57.57-1.01,1.01-1.18,1.18-.58,1.87-1.06,3.41-1.74,5.6.86,2.25-2.48,4.22-1.65,7.07-.57.05-.81.07-1.35.12-.08-1.3-.15-2.59-.22-3.79.79-1.44,1.73-2.65,1.61-4.35-.05-.75.46-1.53.7-2.3.35-1.11.68-2.23,1.17-3.84.03-.03.47-.47,1.04-1.04v-2.72c2.22-3.02,3-6.41,5.43-9.41.79,1.88,1.75,3.36,2.02,4.96.49,2.85.55,5.76.82,8.65.23,2.52.6,5.02.72,7.54.13,2.61-.12,5.24.08,7.85.13,1.63.6,3.25.94,4.85.16.75.48,1.56.5,2.38.07,2.74-.3,5.53,1.43,8.03.39.57.06,1.63.06,2.53h1.57c-.29-1.69.52-3.38-.76-4.92-.25-.3-.04-.97-.04-1.47V27.97l.45.38c.23-.6.45-1.2.8-2.12,3.88,4.27,6.78,8.43,9.77,13.17.2-1.69.48-2.72-.43-3.89-.59-.76-.64-1.97-.84-2.99-.22-1.13-.33-2.29-.56-3.92.36-.24,1.08-.74,1.98-1.36,1.07,1.06,1.92,1.9,2.63,2.6h1.79v-4.06c-.46-.87-.95-1.79-1.45-2.75.43-.63.82-1.2,1.27-1.86,5.41,4.53,8.22,10.26,12.08,15.5.07-.9.18-1.8.21-2.7.04-.99,0-1.99,0-3.15h2.62c.97,1.74,2.04,3.65,3.37,6.04v1.64c.44.42.89.86,1.32,1.27.33,4.27,3.61,7.74,3.17,12.17.36.36.72.71,1.23,1.21.41-3.27.8-6.42,1.21-9.69h1.78c2.43,3.35,4.92,6.79,7.42,10.24h1.77c.03-.58.06-1.05.07-1.23-2.6-3.57-5.32-6.77-7.37-10.36-.97-1.7-2.53-2.76-3.46-4.52-1.22-2.3-3.34-4.14-5.17-6.1-4.38-4.68-8.92-9.23-13.16-14.04-1.17-1.33-2.58-2.29-3.75-3.58-1.34-1.48-2.76-2.89-4.23-4.23-1.33-1.22-2.67-2.48-4.2-3.41-1.97-1.19-4.14-2.06-6.65-3.29-1.98,0-4.47.12-6.95-.03-4.06-.24-7.67,1.03-11.19,2.84-2.25,1.16-4.66,2.02-6.89,3.22-3.02,1.63-5.62,3.89-8.3,6.02-5.07,4.04-9.92,8.32-14.53,12.89-1.78,1.76-3.89,3.23-5.68,5.03-2.3,2.3-4.53,4.67-6.28,7.4-.47.02-.91.06-1.52.1.06.55.11.96.15,1.41.5-.04.82-.07,1.27-.11.04-.49.07-.94.1-1.41.45-.07,1.08,0,1.34-.27,2.32-2.48,4.9-4.59,7.83-6.33.93-.55,1.6-1.54,2.54-2.06,1.01-.52,2.01-1.05,3.03-1.58.49.46,1.12,1.06,1.83,1.72-1.04,2.3-2.22,4.56-3.04,6.93-.39,1.14-2.11,1.54-1.55,3.08-.12-.12-.25-.25-.38-.37-.34.53-.69,1.06-1.14,1.76.5.03.9.06,1.43.1.04-.6.08-1.04.1-1.48,1.6.43,1.59-1.76,2.91-1.8,2.6-4.87,6.48-8.67,10.28-12.56,1.33-1.36,2.38-2.99,3.4-4.3h1.92c.07.36.24.73.16,1.03-.17.66-.31,1.46-.76,1.9-1.32,1.29-1.79,3.09-2.45,4.61-.67,1.55-2.37,2.78-2.02,4.76-1.18.87-1.58,1.97-1.57,3.49,0,1.07-1.81,1.55-1.5,3.13.09.43-.89,1.08-1.41,1.65v2.56c-2.13.59-1.34,2.35-1.54,3.8q-.74.92-.05,2.16c0-.85,0-1.53.05-2.16.49-.06.94-.06,1.54-.06v-3.74h1.4c.05-.8.09-1.62.16-2.7,1.34-.58,1.04-2.46,2.01-3.35,1.17-1.07.52-2.96,2.06-3.68-.19-1.55,1.4-2.08,1.89-3.26.48-1.17,1.09-2.31,1.79-3.37.79-1.19,1.77-2.26,2.62-3.41.85-1.15,1.65-2.34,2.39-3.4h1.76c.13.17.4.37.38.54-.39,3.67,1.12,7.6-1.48,11.22-.11,2.13.26,4.48-1.38,6.7-.71.97-.12,2.89-.12,4.35-1.3,1.18-1.57,2.66-1.51,4.29.03.83-.29,1.59-.52,2.38-.5,1.66-1.39,3.34-.99,5.23.12.55.1,1.38-.22,1.74-1.57,1.75-1.12,3.84-1.27,5.86-.13,1.77-.15,3.66-.8,5.27-1.01,2.52-.46,5.05-.69,7.57-.16,1.75-.42,3.48-.69,5.61.86-1.16,1.5-2.02,2.22-3v-4.3c.46-.46.9-.9,1.38-1.38.07-1.05-.26-2.48.3-3.15,1.73-2.07.73-5.27,3.16-6.97.41.34.85.71,1.31,1.08-.59,1.13-1.07,2.05-1.66,3.2v3.52c-.43.38-.9.8-1.44,1.28v3.86c-1.61,1.51-1.71,3.29-1.53,5.37-.4.27-.92.61-1.59,1.06.59,2.23-.94,3.79-1.61,5.73-.73.35-1.56.74-2.37,1.13-.22-.33-.45-.52-.46-.72-.02-4.73-.02-9.47-.01-14.2,0-1.07.14-2.03.67-3.09,1.09-2.2.91-4.71.82-7.13-.04-1.22-.03-2.39.75-3.43,1.46-1.97.43-4.27.82-6.4.44-.43.88-.88,1.39-1.39.25-2.24-.6-4.84,1.54-6.77,0-1.22-.02-2.46.01-3.7.02-.59-.07-1.37.26-1.74,1.78-1.97,1.03-4.36,1.22-6.14.62-1.33,1.36-2.25,1.44-3.22.17-2.15-.17-4.37,2.33-5.97-1.06-.34-1.38-.44-1.71-.54-.31,1.19-2.19,1.17-2.08,2.71.02.32-.13.7-.32.98-.81,1.17-2.17,1.99-2.6,3.34-.48,1.54-1.65,2.56-2.36,3.89-.76,1.42-1.45,2.89-2.19,4.33-.48.93-1.35,1.81-1.4,2.75-.07,1.2-.8,1.72-1.57,2.57v3.06c-.56.22-.99.39-1.54.61v3.27c-.46.1-.8.17-.96.2-1.29,2.8-2.54,5.52-3.76,8.18h-1.61c-.36-.36-.71-.71-1.23-1.23,1.55-2.45,1.82-5.26,1.66-7.27,1.16-3.4,1.86-6.11,3.01-8.61,1.1-2.42,2.08-4.89,3.21-7.27,1.17-2.48,2.59-4.84,3.66-7.65-1.12.01-1.6.73-1.82,1.2-1.28,2.7-3.86,4.44-5.14,7.15-.35.74-1.13,1.29-1.74,1.9-4.49,4.5-9,8.99-13.47,13.46h-1.89c-.04-.56-.07-1.04-.1-1.5,2.14-2.51,4.27-5,5.95-6.97,2.47-4.44,4.62-8.3,7.2-12.95-1.84,1.03-3.32.9-3.54,2.59-2.63.99-4.6,2.98-6.59,4.79-2.31,2.1-5.05,3.55-7.39,5.52-2.56,2.16-5.08,4.5-7.12,7.14-2.4,3.11-5.47,5.69-7.26,9.3-.47.95-1.53,1.62-2.33,2.4-1.72,1.69-3.03,3.68-4.37,5.67-.41.6-.93,1.13-1.46,1.64-3.23,3.14-6.29,6.4-8.76,10.2-.66,1.02-1.73,1.78-2.61,2.66-5.38,5.37-10.77,10.74-16.14,16.13-1.04,1.04-1.97,2.19-3.18,3.55v1.17c-.61.51-1.27,1.07-2.1,1.76h-2.2c-.1-.3-.29-.58-.21-.73.63-1.28,1.31-2.49,2.39-3.52,1.3-1.23,2.37-2.71,3.6-4.03.36-.39.89-.61,1.41-.95v-1.62c-1.44-.36-2.79-.7-4.1-1.03-.58-1.61-2.09-2.66-2.16-4.43-.01-.32-.43-.66-.37-.94.67-3.57-.11-7.44,2.19-10.68.12-.16.01-.48.01-.73.63-.33,1.24-.64,1.67-.86,1.58.53,3.09,1.04,4.61,1.55,3.72,1.77,6.23,4.8,7.68,9.12,2.35-3.05,5.41-4.83,6.99-7.99,0,.01.06.06.11.11.2-.17.41-.35.61-.52l-.24-.24c-.17.2-.35.41-.44.68Zm271.07,58.33l-.4-.37c-.34.53-.69,1.06-1.14,1.76.5.03.9.06,1.43.1.04-.6.08-1.04-.29-1.85.13.13.25.26.38.4.44-.03.88-.06,1.48-.11-.04-.52-.06-.93-.1-1.43-.7.45-1.23.8-1.36,1.51ZM122.57,68.8h1.31c.6-.94,1.19-1.86,2.14-3.34-1.27.45-2.2.52-2.65,1.02-.49.55-.54,1.49-.57,2.33h-1.5c0,.62,0,1.06.73,1.5-1.71,0-2.7.1-3.66-.03-.96-.13-1.9-.48-2.83-.74.91,1.82,1.74,3.48,2.59,5.18.52-.67,1.07-1.45,1.69-2.16.52-.6,1.11-1.14,1.49-2.25h1.5c0-.62,0-1.06-.23-1.5Zm-4.31-10.47c.16,2.33.74,4.46,2.69,5.98h2.23c.92-.75,1.59-1.57.92-2.82-1.42-1.06-2.84-2.13-4.2-3.15-.59,0-1.08,0-1.57-.27-.65-1.18-2.09-1.44-3.27-2.13-1.71,1.52-1.63,3.62-1.83,5.34-.17,1.41,1.01,2.98,1.39,3.97,1.15.87,1.89,1.43,2.56,1.93h3.35c-.02-.48-.04-.81-.03-.7-1.46-.88-2.64-1.6-3.5-2.12-.42-1.94-.75-3.42-1.11-5.05.88-.44,1.6-.8,2.38-.96Zm278.46,62.56c.87-.86,1.82-1.79,2.77-2.72,0,0-.36-.36-.71-.71-5.19-.35-10.19.14-14.63,3.36-.25,1.27.14,2.25,2.05,2.72.59-.7,1.23-2.15,2.03-2.24,1.39-.16,2.21-.82,3.03-1.67h2.71c.96-.64,1.71-1.13,2.75-1.82,0,1.42,0,2.38.39,3.57-.11-.13-.22-.26-.33-.39-2.38.88-4.76,1.77-6.61,2.46-1.27,1.1-2.2,1.9-3.17,2.73.45.87.86,1.68,1.23,2.41h2.28c.83-.83,1.64-1.6,2.41-2.42.83-.89,1.62-1.81,2.42-2.73.6-.68,1.18-1.38,1.37-2.55Zm-4.5-17.64v2.15c-.99.54-1.88,1.41-2.83,1.46-3.14.17-5.32,1.87-7.32,3.99-.14.15-.14.43-.13.4.73.8,1.38,1.51,2.18,2.39h3.38c4.05-4.12,5.17-3.54,9.46-13.11-.39-.29-.86-.64-.82-.6-3.14.53-5.96.09-7.94.27-1.98.77-3.26,1.27-4.84,1.89q-2.94,2.94-2.75,6.64c2.12-3.38,6.02-3.3,8.54-5.49h3.08Zm-16.18-7.64c2-4.07,5.23-5.95,8.21-8.26.64.46,1.2.87,1.63,1.17-2.03,3.95-6.86,4.69-7.83,9.27,1.14.51,2.35,1.04,3.42,1.52,1.68-.72,2.41-2.2,3.4-3.43-.46-2.38,2.08-4.07,1.5-6.48,1.31-1.27.37-3.24,1.63-4.39-.55-.55-.89-.91-1.26-1.24-.07-.06-.24,0-.5,0-3.54,2.68-8.32,4.04-10.19,8.81v3.04Zm-245.91-41.77c-2.38-1.61-4.17-3.52-5.09-6.11.43-.75.87-1.5,1.49-2.58.88,1.5,1.8,2.59,2.19,3.83.73,2.35,2.54,2.33,4.48,2.69v-1.95c-2.85-1.52-4.63-4.06-6.68-6.33q-3.16,2.61-5.22,6.91c1.45,2.12,3.04,4.1,5.58,5.13h4.69c.24.59.44,1.06.86,2.08,1.51-1.91,2.66-3.37,3.79-4.84,0-.01-.16-.17-.46-.46-.7.49-1.45,1.02-2.32,1.63h-3.31Zm-14.79,20.09c-2.22-3.68-6.33-3.94-9.57-5.78-.8,1.16-1.61,2.33-2.36,3.42v3.42c.78,1.1,1.38,1.95,2.02,2.85.3-.13.62-.26,1-.43-.45-1.84-2.27-3.26-1.42-5.53.69-.53,1.5-1.16,2.8-2.17v5.61c1.81,1.17,3.26,2.39,5.39,1.26,1.21-.65,2.5-1.05,2.15-2.64Zm256.06,56.43c2.41-1.23,4.86-2.48,7.43-3.8-3.81-.99-6.06,1.81-8.87,3.1-.31,2-3.06,3.14-2.24,5.32,1.08-.14,1.99-.22,2.88-.39,1.03-.2,2.04-.49,3.06-.74,2.37-.56,4.78-1.01,6.9-2.28.62-.37,1-1.12,1.95-2.21-1.55,0-2.48-.25-3.19.05-1.91.8-3.73,1.84-5.94,2.97-.38-.03-1.2-.1-1.97-.16v-1.85ZM92.85,84.75c-2.83,3.99-.85,6.71.94,9.35h1.82c.23-.8.32-1.51.64-2.12.31-.61.84-1.1,1.21-1.56-1.57-1.93-2.98-3.67-4.61-5.67Zm8.93,1.58c-2.53-2.55-4.85-5.16-9.39-4.72,1.78,1.41,3.34,2.32,4.44,3.61,1.08,1.28,1.7,2.95,2.48,4.37h2.47v-3.27Zm287.16,57.22c1.35-1.08,1.54-2.04.67-3.07-.82-.96-1.44-.94-2.81.04-.97.69-1.86,1.51-2.89,2.07-.54.29-1.31.14-1.82.18-.24-.67-.37-1.04-.52-1.46-1.56,1.09-1.33,2.37-1.05,3.43,3.25,1.56,5.56-1.53,8.43-1.19Zm-3.29-27.64c-1.05,0-1.77.07-2.48-.02-.68-.09-1.34-.35-2.36-.63.56,1.17.95,1.99,1.35,2.82h2.39c.34-.67.64-1.27,1.1-2.18Z"/>
      <path d="m0,240.78h2.65c.63,2.04,1.62,3.86,3.13,5.43,2.09,2.16,4.55,1.4,6.58.42,3.24-1.56,6.51-3.06,9.44-5.34,2.1-1.63,4.45-3.44,7.35-3.83,1.06-.14,2.22-.61,3.18-.36,2.48.65,4.89,1.51,6.82,3.44,1.05,1.05,2.53,1.66,3.81,2.48,3.39,2.18,4.94,1.54,8.89.98,4.42-.63,7.83-3.41,11.74-5.12,1.57-.69,3.04-1.35,5.02-1,1.77,2.23,4.8,2.8,7.37,4.22,1.33.21,2.72.43,4.58.72.14-.05.81-.57,1.42-.51,4.3.42,8.08-1.62,12.11-2.47,2.12-.45,4.21-1.42,6.07-2.45,1.87-1.03,3.64-1.04,5.75-1.12,3.23,2.01,6.79,3.85,9.87,6.31,1.32,1.06,2.73.79,3.91,1.49,1.34.79,2.45-.08,3.64-.16,2.78-.17,5.35-1.08,7.96-1.73,2.66-.66,5.32-1.71,7.65-3.13,1.21-.74,2.19-1.36,3.61-1.31.37.01.76-.5,1.21-.83.32.23.6.61.89.61,3.26.03,5.25,2.5,7.69,4.02,3.21,2,6.54,3.44,10.37,2.93,2.31-.3,4.75-.6,6.81-1.58,1.43-.68,3-.37,4.34-1.32,1.09-.77,2.54-1.05,3.83-1.56.54-.21,1.09-.41,1.58-.71,6.15-3.87,9.4-2.51,13.77,1.02,1.86,1.5,3.61,2.94,5.95,3.75,1.74.61,3.54.68,5,.24,1.06-.32,2.08-.37,3.11-.57,1.03-.2,2.03-.61,3.06-.71,2.47-.25,4.76-1.02,7.07-1.91,2.38-.91,4.94-1.55,7.47-1.78,2.76-.25,5.33,1.12,7.41,2.72,1.8,1.39,3.51,2.83,6.01,3.93h5.5c1.37-1.75,3.44-.23,5.15-1.15,1.56-.83,3.52-1.1,5.3-1.59,1.72-.48,3.2-1.34,4.8-1.99,2.5-1.01,4.42-1.59,6.58-1.21,1.23.22,2.44.74,3.55,1.34,2.73,1.47,5.57,1.96,8.6,1.39.1-.02.18-.25.27-.24,3.48.04,6.6-1.92,9.76-1.87,4.56-1.99,8.93-3.43,13.56-2.84,2.77,1.42,5.33,3.18,8.16,4.06,2.86.89,5.93,2.14,9.05.55.3-.15.7-.19,1.04-.17,3.15.15,6.08-1.13,9.12-1.42,3.11-.3,5.73-1.99,8.75-2.51.7-.12,1.52-.56,2.35-.57,1.62-.02,3.24,0,4.73,0,2.8,1.39,5.47,2.75,8.19,4.04.62.29,1.37.42,2.06.43,3.37.04,6.76.25,10.1-.04,3.73-.33,7.37-1.32,10.95-2.44,1.64-.52,3.14-1.61,4.8-1.9,1.94-.34,3.98-.08,5.97-.08,2.98,2.08,5.64,4.65,9.15,5.98,3.11,0,6.24.22,9.33-.06,2.92-.27,5.8-1.07,8.57-1.62,3.11-1.24,5.99-2.8,9.41-2.83,1.81-.02,3.21.59,4.51,1.8,1.32,1.23,2.85,2.23,4.15,3.48,1.13,1.08,2.66,1.3,3.9,1.36,2.24.12,4.66.84,6.8-.63,1.98.42,3.79-.48,5.67-.77.31-.05.57-.43,1.08-.83.08,1.03.14,1.92.22,3.06-1.7.36-3.31.69-5.19,1.09-1.14,1.23-2.94,1.12-4.77,1.23-5,.31-8.98-1.68-12.61-4.89-1.37-1.21-3.13-1.97-4.47-2.79-3.38,1.13-6.01,3.09-9.41,3.22-.32.36-.73.82-1.15,1.31-3.14.45-6.28-.16-9.41.78-3.08.92-6.21-.9-9.31-.66-2.82-2.06-5.6-4.07-8.2-5.97h-3.32c-.39.42-.81.87-1.04,1.11-1.8.53-3.35.99-4.9,1.44-1.83.35-3.77.32-5.04,1.69-3.6.34-7.17.11-10.31,1.15-2.62.87-4.63.27-6.73-.62-1.19-.51-2.69.28-3.66-1.21-.69-1.06-2.3-.76-3.41-1.76-1.16-1.05-3.2-1.13-4.98-1.68-2.16.6-4.65.94-6.81,1.98-2.24,1.07-5.03.34-6.98,2.36-2.77.15-5.64-.29-8.32,1.42-.98.62-2.68.1-4.05.1-1.62,0-3.24,0-4.87,0-1.14-1.69-3.49-1.48-4.75-2.99-1.36.31-1.88-.9-2.77-1.46-1.08-.69-6.42-1.4-7.45-.64-1.31.97-2.63.27-3.85.71-.44.44-.88.88-1.42,1.42-1.85-.14-3.75-.04-5.24,1.48-1.8,0-3.62-.16-5.31.74-2.53,1.35-5.28.52-7.82.77-1.97-.94-3.85-1.83-6.32-3h-4.51c.03.11.07.22.1.33-1.31.42-2.91.52-3.86,1.35-1.14,1-2.18,1.48-3.61,1.31-1.97,1.91-4.47,1.45-6.83,1.5q-2.48,1.49-8.53,1.49c-1.91-1.07-3.65-2-5.36-3-.71-.42-1.31-1.04-2.01-1.47-1.4-.85-2.86-1.42-4.49-1.85-1.77-.46-3.13-.07-4.76.22-1.58.29-2.83,1.09-4.25,1.53-1.31.41-2.89-.16-4.16.83-.29.22-.57.44-.96.75-1.12,0-2.36-.02-3.6,0-.6.02-1.37-.09-1.76.24-2.24,1.86-4.86,1.08-6.77,1.23-4.78-1.74-8.47-4.25-11.88-7.54-1.69.09-3.66-.21-5.32.39-2.81,1.01-5.43,2.58-8.6,4.16h-2.47c-.38.44-.78.91-1.23,1.43h-3.8c-3.11,2.55-6.56,1.19-9.91,1.66-.67-1.25-2.08-1.29-3.2-1.88-1.86-.99-3.5-2.4-5.24-3.63-2.1-1.48-3.94-2.03-6.08-2-3.83,1.94-7.06,4.08-11.15,4.63-.31.31-.75.75-1.29,1.29-2.02.08-4.32-.44-5.99,1.49h-5.32c-.38-.4-.76-1.17-1.25-1.25-3.14-.46-5.18-2.63-7.45-4.49-.93-.76-4.64-2.51-5.7-2.43-1.75.13-3.74.16-5.16,1.01-2.04,1.24-4.13,2.12-6.4,2.66-2.16.52-4.13,1.83-6.49,1.51-.12-.02-.29-.05-.37,0-1.14.89-2.34,1.57-3.88,1.5-1.49-.07-2.98-.02-3.98-.02-1.9-.85-3.39-1.48-4.85-2.17-1.05-.49-2.12-.97-3.08-1.6-2.03-1.33-4.59-1.89-6.53-.66-2.18,1.39-4.67,2.14-6.74,3.59-1.05.74-1.97.79-3.31.84-.32.44-.76,1.04-1.08,1.47h-8.65c-1.06-1.92-3.51-2.18-4.96-4.04-1.18-1.51-3.55-2.1-5.84-3.35h-4.7c-4.05,2.76-8.04,5.84-13.09,7.76-.03.09-.19.53-.38,1.07-.8.04-1.63.09-2.45.14-.46.46-.9.9-1.39,1.39h-3.81c-1.76-1.43-3.63-2.96-5.39-4.39-.24-1.36-.18-2.68-1.7-3.04v-2.24Z"/>
      <path d="m315.99,127.82c-2.04,3.09-3.77,5.36-5.1,7.83-1.06,1.96-2.41,3.75-3.61,5.58-2.57,3.91-4.86,7.98-7.33,11.94-2.38,3.81-4.47,7.88-7.96,10.97,1.64,1.16,2.42-.2,3.27-1,2.69-.53,5.47.63,7.98-.87,1.99,1.44,4.29.42,6.42.8.43.43.87.87,1.22,1.22,5.69.68,11.17,2.65,17.09,1.46-.58-.65-1.11-1.23-1.54-1.71.02-2.68,1.91-3.97,3.38-5.5h8.24c2.64,2.32,3.54,2.79,5.41,2.79-.63-2.32-1.65-4.58-1.22-7.08,2.42-.03,2.42-.04,2.92,1.66.23.77.55,1.52.79,2.17.81.59,1.59,1.12,2.32,1.71,1.5,1.21,2.89,2.58,4.49,3.65.93.62,1.94,1.24,3.29,1.11,2.52-.24,4.96.05,7.33,1.24,1,.5,2.44.34,3.64.18,2.6-.34,5.13.25,7.51.93,1.31.37,2.56.47,3.98.62.51.57,1.08,1.22,1.72,1.93v7.5c-.36.36-.63.62-.96.96h-5.3c-1.35,1.75-3.13,3.14-4.47,5.11-1.8,2.64-4.31,4.76-8.43,3.72-.51-.28-1.43-.78-2.59-1.41-4.32,4.37-9.09,8.34-14.65,11.64-1.24,2.36-.92,5.1-.93,7.9,1.98-1.98,3.8-3.8,5.95-5.94,0,.06.02-.42.06-1.14.76-.37,1.65-.8,2.54-1.23,1.32,2.57-.47,4.43-1.37,6.93.89-.25,1.51-.24,1.84-.54,2.13-1.95,4.02-4.06,4.81-6.97.33-1.21.97-2.33,1.55-3.68h2.52c.02.4.18.91.03,1.31-.72,1.94-1.31,3.98-2.38,5.73-.67,1.1-.52,2.03-.5,3.85.68-1.12,1.15-1.68,1.38-2.33.6-1.68.56-1.7,2.93-1.78.36,1.83.72,3.67,1.12,5.68.18.2.51.57.94,1.04.62-.31,1.24-.61,1.92-.95.28.21.56.42.87.65,1.52-.46,1.24-1.74,1.21-3.09,1.33-1.64,2.91-2.98,5.78-2.68.29.44.77,1.16,1.24,1.89l.41-.28v3.42h5.95c1.98-2.25,3.1-5.14,3.24-8.64h2.46c2.12-2.69,4.2-5.31,6.05-7.65,1.49-5.34,1.03-10.5,1.11-15.63.03-2.06-1.1-3.91-.82-6.05.27-2.08.06-4.23.06-6.23,3.76-6.13,8.65-10.95,14.94-14.3.01-.25.12-.65.02-.71-2.4-1.45-3.77-3.75-5.21-6.02-.19-.3-.54-.51-.76-.7v-6.96c1.2-3.98,4.04-6.01,6.34-8.45h2.29c2.86,2.88,4.6,6.48,6.46,10.87v3.64c1.14-.72,1.96-1.3,2.84-1.8,1.62-.92,3.26-1.81,5.61-3.1.55-.13,1.97.29,3.37-.57,1.14-.7,2.95.59,4.14-.81,1.26,1.13,2.54,1.12,3.74.12.66.34,1.28.66,2.15,1.11-.43,1.05-.6,2.41-1.37,3.12-2.31,2.13-3.58,4.97-5.46,7.52,2.47-1.39,5.37-1.44,7.82-2.48,2.97-1.26,5.42.63,8.31.28v6.43c-3.44,3.39-5.48,8.34-10.31,11.46h-2.03c-.95-1.12-2.1-2.47-3.36-3.96.2-1.43.28-2.87.62-4.25.62-2.48,2.96-3.3,4.87-4.33.69-.37,1.49-.59,2.12-1.18,1.12-1.04,2-.42,2.84.53-.44,1.82-1.52,2.84-3.48,3.15-.97.15-1.86.89-2.61,1.28-.69.95-1.31,1.8-1.89,2.6-.65,2.16,1.35,2.22,2.72,3.24,1.52-1.81,3.13-3.67,4.68-5.59,1.5-1.85,2.94-3.75,4.58-5.86-.27-.29-.66-.72-1.29-1.4-3.05.28-6.32.4-9.51.98-1.4.25-2.62,1.45-3.93,2.22-.6.35-1.21.7-1.81,1.05v7.49c.44.44.88.87,1.32,1.31v2.87c-2.69-1.38-4-3.99-4.67-9.3-.87.62-1.62,1.15-2.44,1.74h-5.74c-.42-.42-1.17-1.17-1.83-1.83v1.35c1.26,1.19,2.51,2.26,3.63,3.46,2.34,2.5,2.89,5.82,3.66,8.93.55,2.21-.77,4.32-1.97,6.22-.32.51-.85.9-1.2,1.25-3.44-1.86-6.83-3.65-10.05-5.81-2.45-1.64-3.43-4.15-5.08-6.24-.44-.56-.62-2.04-.24-2.39,1.28-1.2.26-2.64.97-4.16,1.03-.8,2.28-1.95,3.72-2.81.55-.33,1.51.04,2.7.12.08-.12.72-.67.71-1.21-.01-.74-.52-1.48-.8-2.17-3.1.69-5.04,3-8.75,4.81-1.55,1.55-4.11,4.1-6.86,6.85,0,.28.18.85-.03,1.21-2.38,4.2-1.43,8.56-.72,12.92,1.49,1.31.4,3.05.86,4.66,1.58,1.49,1.45,3.57,1.37,5.74,1.9,2.01,1.55,4.54,1.47,7.15-.71.06-1.3.11-2,.17-.14.65-.25,1.34-.44,2.01-.06.21-.33.36-.51.53,0,2.49,0,4.98,0,7.48.35.35.7.7,1.09,1.08,2.4-1.59,2.21-4.74,4.02-6.99.58.48,1.03.85,1.39,1.15.35,2.45.69,4.78,1.08,7.53-1.53-.38-2.73-.67-4.17-1.03-.19.38-.38.75-.67,1.33-.46.25-1.17.64-1.98,1.08-.24-.14-.62-.24-.82-.5-.67-.87-1.47-1.28-2.82-.99-.05.59-.1,1.26-.17,2.18,4.4,0,8.61.02,12.82-.03.55,0,1.08-.39,1.64-.53,1.19-.3,2.4-.61,3.22.6.9-.29,1.67-.75,2.44-.76,11.21-.05,22.41-.03,33.72-.03v2.99h-2.82c-14.1,0-28.2-.01-42.3.02-1.15,0-2.31.3-3.9.52-.29-.09-1.07-.51-1.85-.51-6.24-.05-12.48-.03-18.72-.02-.21,0-.42.19-.9.42.95.72,1.81,1.39,2.73,2.09-.44,1.24-.79,2.22-1.14,3.2-1.69,1.24-3.63,1.07-5.65.97-.63-.77-1.3-1.59-1.69-2.05-.21-2.06,2.53-2.51,1.11-4.64-.69.22-1.49.6-2.34.72-.97.13-1.98.03-3.23.03-.03.62-.06,1.2-.09,1.86-2.54,2.94-5.88,4.53-9.84,5.15.65.63,1.25,1.1,1.7,1.68,2.29,2.98,5.57,3.09,8.61,2.26,1.68-.46,3.55,0,5.12-1.19,1.28-.96,2.92-1.42,4.25-2.32,1.23-.84,2.54-.84,3.83-.67,1.17.16,2.67.13,2.89,1.88,1.66.51,2.94,1.79,4.86,1.87,3.18.13,6.19-.57,9.09-1.61,1.94-.69,3.69-1.92,5.68-3,2.87.51,4.46,3.24,7.49,4.59,3.71-.83,8.06-1.17,11.7-3.99,1.03-.8,2.59-1.04,3.95-1.24,1.56-.22,2.6.92,3.69,1.89,1.26,1.12,2.61,2.12,4.08,3.3,1.81,0,3.81-.13,5.78.03,3.08.24,5.49-1.08,7.87-3.08v3.46c-2.54.94-5.01,2.66-8.06,2.58-2.93,2.12-5.3-.93-7.92-.82-2.22-1.93-3.77-4.76-7.26-4.41-1.15.84-2.22,1.84-3.48,2.46-1.34.65-3.05.64-4.25,1.44-1.45.96-2.86.43-4.27.56-1.49.13-2.99.03-4.59.03-.86-.96-1.76-1.97-2.58-2.88h-3.24c-2.25.96-4.26,1.82-6.88,2.94-1.22.16-3.24-.57-5.01.68-.17.12-.57.12-.72,0-1.5-1.2-3.28-.55-4.68-.75-1.44-1.03-2.71-1.94-4.13-2.96-1.6-.1-3.21.21-4.89,1.2-1.54.91-3.13,2.08-5.24,1.87-.76-.07-1.61.84-2.57,1.4h-7.31c-1.47-1.48-2.95-2.99-4.21-4.26-2.59-1-4.08,1.02-5.77,1.81-1.63.76-3.69.94-4.96,2.45-1.68.1-3.29.21-4.98.63-2.29.57-4.64-.36-6.68-1.74-1.56-1.06-3.18-2.02-5.15-3.27h-2.37c-1.93,1.08-3.47,2.4-5.21,2.79-1.75.39-2.84,2.52-4.93,1.71-1.66,1.03-3.45,1.47-5.41,1.41-1.87-.06-3.74-.01-5.68-.01-1.75-1.41-3.53-2.85-5.51-4.45h-4.96c-1.66,1.46-3.53,2.61-5.83,2.98-1.14.18-2.35.39-3.35.92-2.47,1.33-4.36.4-6.14-1.24-.92-.84-1.77-1.76-2.68-2.66h-2.64c-1.77.97-3.3,1.81-5.27,2.88-1.48.22-3.49.44-5.47.85-2.96.61-4.91-1.38-7.18-2.57,0-1.72-1.68-1.27-2.48-1.94-1.27.32-2.53.63-4.23,1.05-.14.21-.56.83-.81,1.21-1.42,0-2.42,0-3.42,0-1.59,1.73-3.69,1.52-5.76,1.48-.18-.11-.37-.26-.59-.34-1.19-.45-2.9-.55-3.44-1.41-.79-1.23-2.01-1.33-2.89-2.06-2.68-2.21-5.35-1.55-7.91-.2-1.54.82-3.27,1.04-4.76,2.19-1.13.87-3.19.5-4.48,1.71-1.85.46-3.75-.13-5.69.74-1.72.78-3.76-.23-5.39-1.18-1.83-1.06-3.41-2.56-5.25-3.62-1.36-.78-2.77-1.92-4.59-.56-.98.73-2.59-.11-3.6,1.32-.61.86-2.35.4-3.01,1.64-2.33.27-4.18,2.27-6.76,1.82-.86-.15-1.81.25-3.31.5.06.04-.5-.58-.92-.49-2.14.44-3.45-1.13-4.71-2.17-1.59-1.31-3.06-2.63-5.36-2.99-1.99.1-3.45,2.49-5.93,2.11-1.02,1.05-2.46,1.31-3.65,2-1.56.89-3.14,1.09-4.8.97-1.86,2.02-4.27,1.42-6.8,1.54-2.88-1.84-5.94-3.79-9.37-5.98h-3.39c-.29.37-.67.86-1.05,1.36h-2.5c-.57.57-1.12,1.46-1.44,1.38-1.8-.45-2.37,1.52-3.82,1.74-3.03.47-5.83,2.41-10.01.94-2.33-1.66-5.5-3.91-8.73-6.2-.96,0-1.96-.07-2.93.03-.42.05-.81.45-1.19.72-2.47,1.76-5.57,2.42-7.87,4.24-2.06.34-4.06.91-6.06.92-2,.01-4.01-.54-5.59-.78-2.51-1.52-4.6-3.15-6.97-4.08-1.62-.64-3.63-.29-5.33-.38-.48.48-.78,1.03-1.2,1.16-2.38.71-4.22,2.51-6.49,3.31-1.45.51-3.21.09-5.29.09-2.6-1.73-5.45-3.8-8.46-5.58-2.9-1.72-6.06-2.99-9.45-3.36-3.96-.44-7.36,1.3-10.61,3.25-1.82,1.09-3.42,2.54-5.24,3.64-1.07.64-2.42.8-3.53,1.38-2.09,1.1-4.47,1.19-6.63,2.08-.83.34-1.98.14-3.09-.55-2.46-1.53-5.38-2.3-6.75-5.3-.44-.96-1.53-1.61-2.46-2.54v-3.37c1.44-.46,2.06.69,2.41,1.38,1.45,2.82,3.41,5.09,6.46,6.72.9,0,2.15-.04,3.4,0,3.68.15,6.94-.98,10-2.98,2.63-1.71,5.14-3.63,8.13-4.76.43-.16.72-.68,1.22-1.18,1.57-.28,3.44.3,5.09-.77.42-.27,1.45-.23,1.75.1.74.79,1.59.68,2.4.58,2.58-.31,4.54.99,6.56,2.26,1.89,1.19,3.84,2.27,5.57,3.73,2.43,2.05,5.32,2.58,8.28,2.22,2.93-.82,4.9-3.14,7.88-3.91,2.87-.73,5.17-.68,8.41,1.16,1.11.63,2.22,1.26,3.35,1.84,1.03.53,2.09.99,3.48,1.63,5.09.52,8.45-.16,17.67-5.92,1.25,0,2.5,0,3.45,0,2.4,1.15,4.21,2.66,6.11,4.12,2.3,1.78,4.97,3.84,8.3,1.86,3.6.14,6.4-1.98,9.45-3.38.43-.2.72-.68,1.05-1.02,1.25-.43,2.52-.07,3.88-.63,1.25-.51,3.19.32,4.71.88,1.07.4,2.02,1.26,2.87,2.08,1.36,1.29,2.78,2.25,4.77,2.11.38-.03.79.46,1.36.81.41-.25.9-.82,1.38-.81,4.42.09,8.18-1.76,11.95-3.74,1.82-.96,3.85-1.53,5.79-2.28q3.77,1.45,6.52,4.2c1.3.41,2.55.45,3.23,1.1,1.13,1.08,2.62,1.01,3.44.58,2.5-1.3,5.43-1.17,7.88-2.74,1.14-.73,2.46-1.78,4.16-1.72.56.02,1.15-.8,1.71-1.23,3-1.15,5.38.59,7.52,2.15,1.73,1.26,3.3,2.7,5.37,3.46,4.3.64,8.29-1.21,12.42-2.14,1.19-.27,2.21-1.32,3.56-2.17h1.92c.42-.44.84-.89,1.34-1.41h5.25c1.92,1.31,3.97,2.71,6.38,4.35,1.47-.33,3.28.39,5.25.13,2.5-.32,4.8-1.11,6.98-2.18,1.49-.73,2.92-1,4.68-.87,1.71,1.41,3.55,2.92,5.24,4.3,6.19,1.06,11.14-1.91,16.13-4.59,1.67,1.81,3.17,3.43,4.38,4.74,1.37,0,2.12-.06,2.86.01,3.33.31,6.35-.55,9.18-2.25.89-.54,1.83-.99,2.74-1.5,2.28-1.28,4.17-.72,6.15.87,2.18,1.74,4.62,3.14,6.66,4.49,2.78-.61,4.98-1.41,7.35-1.71,1.77-.23,3.43-1.3,5.13-2.02,1.8-.77,3.47-1.8,5.32-2.53,1.38-.55,2.58-.35,3.39-.52,2.61.82,3.91,2.83,5.89,3.89.91.49,1.89,1.21,2.84,1.2,1.91-.01,3.8.25,5.78-.4,2.12-.69,4.14-1.47,6.07-2.53.82-.45,1.53-1.14,2.39-1.45,1.2-.43,2.49-.61,3.84-.92.31-2.82,3.78-3,4.96-5.67-1.08-.07-1.89-.18-2.7-.18-19.47,0-38.93,0-58.4-.01-1.8,0-3.56.05-5.34-.65-.9-.36-2.48.77-3.25.34-1.26-.7-2.41-.39-3.58-.4-5.36-.07-10.74-.26-16.09.04-4.95.27-9.75-1.17-14.67-.81-1.29.09-2.72-.46-3.83.72-.12.12-.48,0-.73.02-1.56.16-3.02-1.54-4.47-.58-1.44.95-2.86.46-4.27.53-1.03.06-2.21.47-3.12-.61-.22-.25-.96-.17-1.43-.08-5.02,1-5.13.98-9.87,0-.84-.17-1.74-.02-2.62-.02-12.73,0-25.46.02-38.18-.03-1.4,0-2.87.46-4.24-.65-.53-.43-1.83-.36-2.54-.02-3.09,1.49-6.32.3-9.45.7-2.04-1.16-4.27-.7-6.43-.71-.65,0-1.31.4-2.09.65-.49-.19-1.15-.69-1.78-.64-2.65.18-5.38-.71-7.95.67-.49.26-1.23.04-1.85.04-3.62,0-7.24.06-10.86-.03-1.4-.03-2.82.35-4.25-.62-.68-.46-2.09.1-3.16.25-.58.08-1.28.55-1.68.35-2.79-1.41-6.04-.86-8.84-2.17-.41-.19-1.1-.21-1.47,0-2.06,1.21-4.29.64-6.45.69-3.37.09-6.74.02-10.11.02-2.99,0-5.99-.1-8.98.03-2.77.12-5.6.18-8.29.78-6.12,1.37-12.29.37-18.42.66-2.22.11-4.72.55-6.62-.26-2.1-.9-4.4.45-6.28-1.16-.43-.37-1.45-.05-2.2-.05-3.74,0-7.49.04-11.23-.03-.76-.01-1.52-.42-2.78-.8,1.08-.77,1.69-1.21,2.63-1.89.28-1.6.28-3.45-1.92-5.23-.14,1.58-.24,2.74-.34,3.93-.32.32-.67.67-1.03,1.03-.5,0-1,0-1.87,0-.23-.78-.36-1.73-.79-2.5-.41-.73-1.14-1.28-1.71-1.89h-3.27c-.18.52-.34.96-.49,1.39h-1.66c-.61-1.8-2.26-3.29-1.8-5.5-.57-.62-1.13-1.24-1.5-1.64-.1-2.19.99-2.66,2.54-2.56.96,1.48,1.92,2.95,2.87,4.43h3.16c.93,1.05,1.88,2.14,3.27,3.7.08-1.84.13-3.02.19-4.38.76-.33,1.51-.64,2.31-.99.77,1.26,1.43,2.34,2.55,4.19.62-5.39,1.13-9.84,1.61-14.05,3.09-1.5,6.08-2.05,8.83-3.29,1.04-.47,2.46-.08,3.69-.08,1.5-1.52,3.4-1.63,5.39-1.48,1.88-2.27,3.73-4.49,5.87-7.07-.91-.19-1.79-.62-2.08-.38-1.08.94-2.3.7-3.48.67-1.59-.04-3.12.02-4.45,1.03-.27.21-.6.43-.92.47-2.36.33-4.74.61-6.92.88-.57-.57-.92-.92-1.42-1.42-1.38.51-2.95,1.35-4.17-.44-.6.44-.95.91-1.36.96-2.63.31-5.28.65-7.92.73-1.54.05-2.78.49-4.08,1.56-2.18-.4-4.32.45-6.25,1.54-1.65.93-3.3.49-4.9.74-1.13,1.05-2.41,1.42-3.94,1.49-2.11.11-3.89,1.39-5.82,2.17-1.18.48-2.47.7-3.88,1.09-.58.39-1.35.9-1.93,1.29-3.04-.76-2.69-4.76-5.74-4.75v-2.58c.31-.08.65-.17.98-.26,2.93-.85,6.1-.52,8.92-1.97.69-.36,1.66-.24,2.5-.26,1.49-.04,2.98-.01,4.44-.01.48-.48.92-.92,1.36-1.36.67-.13,1.35-.25,2.19-.41-.4-.24-.6-.47-.8-.46-1.78.13-3.54-.22-5.35.63-1.34.63-3.08.12-4.44-.94v-5.39c.34-.34.61-.6,1.05-1.05,8.53,0,17.24-.01,25.95.03.54,0,1.06.48,1.62.57,1.63.26,3.13,1.03,4.87.97,1.23-.04,2.63.32,3.67.97.99.62,1.9.26,2.83.46,1.34-1.83-.68-3.37-.44-5.16.24-1.84.05-3.73.05-5.75-.4-.32-.88-.71-1.5-1.22,0-1.18-.04-2.4,0-3.62.07-1.7-.08-3.34-.75-4.93-.51-1.21-.91-2.42-.8-3.8.05-.64-.51-1.3-.58-1.97-.18-1.65-1-3.13-.96-4.88.04-1.45-1.8-2.52-1.42-4.24-1.71-2.63-1.07-6.38-4.37-8.64-3.92,1.28-8.47.36-13.11,1.98-.99,4.39-3.29,8.67-3.89,13.44-.46,1.55-.92,3.09-1.46,4.9-.56.34-1.36.83-2.2,1.34-.11-.09-.35-.18-.41-.33-1.28-3.83-3.81-7.15-4.57-11.2-2.06-1.6-2.15-4.44-3.95-6.23-.98-.98-.61-1.98.7-3.06,1.01,0,2.35-.06,3.69.02,1.59.09,3.13-.05,4.55-.78,2.07-1.06,4.27-.78,6.43-.7,1.77.06,3.28-.4,4.9-1.53,1.86,0,3.98.02,6.09,0,2.17-.03,4.29,0,6.46-.63,1.53-.45,3.12-1.06,4.9-.95,1.6.1,3.34-.39,4.89-.78,2.94-.74,6.06-.76,8.87-2.03.31-.14.72-.05,1.08-.09,1.8-.23,3.66.48,5.44-.43,1.61-.83,3.58.22,5.22-1,.48-.36,1.46-.02,2.2-.06,3.89-.24,7.87-.06,11.64-.88,3.07-.67,6.06-.47,9.08-.59,2.99-.11,5.99-.09,8.98.01,1.01.04,2.01.52,3.13.83v2.61c.44.1.85.34,1.11.23,1.84-.77,3.75-.85,5.69-.72,1.72.11,3.18-.68,4.71-1.29.44-.17.93-.19,1.74-.35.22.6.49,1.34.95,2.6.98-1.48,1.37-2.08,1.64-2.48,1.55-.1,2.5,1.72,4,.29.47-.45,1.92.13,3.35.29.09-.12.44-.6.97-1.33-.26-.73-.6-1.72-.93-2.63-3.49-2.2-6.94-4.38-10.42-6.58-1.99,2.91-4.18,5.25-7.25,7.04-.79-1.38-1.58-2.76-2.47-4.32.01-1.46.15-3.14-.98-4.61-.33-.43-.47-1.09-.5-1.65-.07-1.36-.02-2.73-.02-4.35.6-.03,1.44-.32,1.73-.05,1.84,1.8,4.56,1.84,6.49,3.34,1.87,1.44,4.03,2.47,6.05,3.52,2.48,1.29,4.64,3.05,7.15,4.24.26-.26.53-.53.84-.84-.02-.14.02-.37-.08-.48-1.14-1.26-1.25-2.76-1.23-4.36.05-4.11.02-8.22.02-12.5-.86-.8-1.45-1.92-3.11-2.03-1.17-.08-2.38-.9-3.4-1.62-.6-.42-.86-1.32-1.33-2.08,2.89-2.72,5.55-5.22,8.57-8.06h2.05c.06.26.28.65.18.92-.52,1.36-.74,2.72-.77,4.19-.03,1.27-.49,2.53-.69,3.81-.24,1.47.33,2.8.71,4.18.37,1.37-.4,2.86.57,4.27.41.6.19,1.66.2,2.52.02,3.47,0,6.95,0,10.5.44.08.78.15,1.35.25.29-1.99-.17-4.21,1.63-5.67.06-1.8-.26-3.66.76-5.3.96-1.55.7-3.25.74-4.78.63-1.38,1.2-2.63,1.64-3.61-1.38-2.6-4.42-3.44-4.76-6.19,2.83-3.69,6.45-6.02,10.35-8.52.57,2.41.24,4.28-1.23,5.99v2.96c-.44.4-.89.82-1.44,1.33v3.82c-.57.57-1.01,1.01-1.52,1.52-.25,2.25.6,4.85-1.52,6.75-.13,2.25.36,4.54-1.25,6.61-.56.72-.27,2.11-.34,2.88-.66,1.52-1.88,2.53-1.16,4.45,1.62-.39,3.29-.79,4.96-1.2.33-.08.65-.37.96-.36,3.76.15,7.33-.99,10.99-1.44,3.07-.37,6.32.39,9.33-.18,5.4-1.01,10.79-.5,16.18-.62,5.36-.12,10.73.09,16.09-.07,3.19-.1,6.21,1.3,9.43.84.46-.07,1.01.49,1.5.75.45-.29.85-.55,1.47-.95.56.49,1.19,1.04,1.87,1.63,2.16.14,4.54-.5,6.5,1.28.29.26.92.2,1.39.22,2.38.09,4.63.83,6.93,1.31,1.9.4,3.94.08,5.91.08.46.76.87,1.44,1.29,2.13-.49,1.39-1,2.8-1.5,4.21,4.29,1.14,5.79,1.24,7.34.5.78.25,1.54.67,2.32.71,1.87.1,3.74.04,5.61.03,1.2,0,2.33.02,3.47.69.87.51,2.16-.38,3.15.54.29.27.91.26,1.37.25,3.02-.07,5.86.97,8.76,1.35,3.19.42,6.33.97,9.49,1.51,2.68.46,5.34.83,7.99,1.56,1.5.41,3.21.07,4.8.07.48.48.92.92,1.43,1.43h4.31c2.43,2.35,5.66,2.16,8.48,3.17.88-2.68,1.27-5.25,1.17-7.93-.03-.76.5-1.53.7-2.31.29-1.13.6-2.27.73-3.43.12-1.11-.21-2.3.07-3.35.94-3.52.55-7.28,2.16-10.69.82-1.74,1-3.7.83-5.01.75-1.94,1.29-3.35,1.82-4.71.32-.07.66-.14,1.01-.21.38-1.27-.47-2.94,1.58-3.59.78.2,1.28.73,1.59,1.84.88,3.19,2.83,5.7,5.3,7.93,1.17,1.05,2.51,1.94,3.6,3.3-1.18,1.28-2.37,2.33-4.29,2.7-2.05.39-3.93,1.36-6.12,1.55-1.36.12-2.61,1.48-3.34,1.92-1.75,5.04-.7,9.89-2.66,14.25-.19.41-.03.99-.02,1.48,0,2.04.23,4.12-1.44,5.78-.25.25-.03.95-.03,1.55,1.25.69,2.55,1.41,3.76,2.08,3.51-5.27,6.82-10.23,10.3-15.44,1.39.58,2.88,1.2,4.38,1.83.6,1,.98,2.05,1.91,2.99.96.96,2.4,1.48,2.96,2.7.52,1.13,1.69,1.58,2.22,2.75.43.94,1.74,1.48,2.81,2.32v2.4c-4.4,1.04-8.66-1.33-12.66-.52-.95-.49-1.57-.81-2.21-1.14,0-.38,0-.76-.09-1.61,3.48-1.84,7.05.6,11.12.34-2.64-2.19-4.82-4-7.05-5.86-1.44,2.04-2.8,3.95-3.97,5.18Zm99.19,15.38c-.13-.13-.25-.26-.38-.4-.44.03-.88.06-1.48.11.04.52.06.93.1,1.43.7-.45,1.23-.8,1.31-1.58.05.05.1.1.15.15.2-.17.41-.35.61-.52-.08-.08-.16-.16-.24-.24-.17.2-.35.41-.07,1.05Zm-121.67,9.35c-1.18.29-1.62,1.08-1.5,2.24h-1.5v2.24c-1.18.29-1.62,1.08-1.47,2.25-.13-.12-.27-.25-.4-.37-.34.53-.69,1.06-1.14,1.76.5.03.9.06,1.43.1.04-.6.08-1.04.08-1.48,1.18-.29,1.62-1.08,1.5-2.24,1.18-.29,1.62-1.08,1.5-2.24,1.18-.29,1.62-1.08,1.47-2.25.13.12.27.25.4.37.34-.53.69-1.06,1.14-1.76-.5-.03-.9-.06-1.43-.1-.04.6-.08,1.04-.08,1.48Zm2.9-5.54c-.6.69-1.09,1.24-1.86,2.11.81.24,1.25.37,1.86.55,0-.98,0-1.66.06-2.32.48-.04.93-.07,1.54-.12-.06-.55-.1-.96-.15-1.41-.5.04-.82.07-1.27.11-.04.49-.07.94-.17,1.08Zm-239.41,36.15c-.04-.28-.09-.55-.13-.83-1.7.38-3.41.76-5.27,1.17.11.44.22.84.33,1.27,1.83-.58,3.45-1.1,4.97-2.87,1.23.31,2.47.9,4.36,0-1.91,0-3.14,0-4.26,1.25Zm230.51-17.15c-.36,0-.71,0-1.06,0-.42.64-.71,1.43-1.27,1.9-.92.76-.57,1.7-.66,2.59-.49.33-.98.66-1.56,1.05v4.3c-.89.27-1.74.53-3.08.94.24-1.65.4-2.83.59-4.12h-4.96c.05-.82.1-1.49.15-2.28h5.08c.31-.65.59-1.23,1.08-2.23-3.07.32-5.72-.51-8.11.91-.56-.59-.96-1.01-1.73-1.82.82-.37,1.4-.63,2.58-1.16,1.7-.25,4.28-.64,6.87-1.02-.15-.18-.31-.36-.46-.54.47-.09.95-.19,1.42-.28-.12-.23-.24-.46-.37-.69-3.58.34-7.17.68-10.69,1.01-.4.42-.73.77-.93.98.3,2.65.59,5.15.89,7.74,3.87,1.35,5.45,4.92,7.14,8.18.29,3.39.3,6.63-1.4,9.59-.05.09,0,.24.16.91-1.1-.73-1.83-1.22-2.55-1.69,1.67-3.02.47-6.03.98-8.95-1.86-1.15-1.9-4.04-4.53-4.34-.05-.91-.1-1.74-.17-3.05-2.71.76-5.5.6-7.68,2.47-2.6,2.22-5.08,4.57-7.64,6.83-.62.54-1.41.89-2,1.46-1.84,1.76-4.49,1.88-6.54,3.42,0,1.86-.02,3.84,0,5.83.03,1.88-.13,3.78.17,6.04,2.16-2.72,3.29-5.25,2.82-8.01.87-1.14,1.55-2.03,2.25-2.95,1.28.8,2,1.6,1.24,3.04-.43.81-.99,1.68-1.02,2.54-.07,2.19-1.84,4.22-.63,6.54,2.6-2.09,2.76-4.96,2.63-7.83.78-1.02,1.64-1.57,3.14-.78-.24,2.29-.5,4.69-.81,7.62,1.06-.75,1.63-1.15,2.27-1.61v-10c1.05-.11,1.98-.21,3.02-.32v-5.79c.62,0,1.16-.15,1.56.04.52.24.92.74,1.44,1.18-.58,3.82.12,7.52.82,11.34.24.23.59.56,1.2,1.14.32-.94.64-1.68.82-2.46.19-.79-.23-1.65.5-2.42,1.27-1.34,1.01-3.11,1.01-4.7.42-.42.77-.77,1-.99h1.87c.37,2.67.06,5.08-1.03,7.44-.65,1.41-.53,2.96.08,4.84,2.28-1.99,4.31-3.66,5.58-6.43.55-.17,1.23-.19,1.61-.54,1.09-.99,2.22-1.68,3.75-1.75.48-.02.94-.67,1.4-1.02-.28-.31-.73-.58-.74-.86-.05-2.96-.04-5.92-.02-8.87,0-.34.04-.76.24-1,1.74-2.07,1.17-4.53,1.25-6.89,1.24-1.07,2.69-3.24,2.92-4.55.05.05.1.1.15.15.2-.17.41-.35.61-.52l-.24-.24c-.17.2-.35.41-.44.68Zm16.47-25.42c2.23-1.43,2.96-4,4.41-6.01.61-.84,2.12-1.44,1.58-2.97.21-.08.51-.11.61-.26.88-1.34,1.46-3.09,2.66-3.96,1.5-1.09,1.36-3,2.7-4.03.12-.09.02-.47-.38-.66.85-.07,1.29-.1,1.75-.14v-2.82c-.78,1.32-1.2,2.03-1.36,2.9-2.66,1.37-3.44,4.3-5.29,6.32-.8.87-.66,1.72-.7,2.65h-1.04c-1.41,2.14-2.68,4.35-4.26,6.3-.73.91-.66,1.73-.41,2.85-1.12.25-2.12.57-1.5,2.3.61-.94,1.05-1.62,1.21-2.49Zm-186.82,54.96c-.13.13-.26.25-.4.38.03.44.06.88.11,1.48.53-.04.93-.06,1.43-.1-.45-.7-.8-1.23-1.3-.79-.23-1.32-.12-2.2-.51-2.7-1.37-1.79-2.85-3.46-2.88-5.9,0-.4-.46-.8-.71-1.2-.15.1-.3.2-.45.3v4.22c1.67,1.33,2,3.69,4.72,4.31Zm22.69-38.6c-1.5-.9-3.43-.95-5.87,0,2.15,0,4.08,0,5.57.29,2.73,1.93,5.85,3.07,7.55,5.62h2.64c-.63-1.37-1.83-3.27-2.58-3.47-2.43-.66-4.3-3.05-7.31-2.44Zm-50.6,20.3c.22-.01.43-.03.65-.04-.1-.49-.19-.97-.29-1.46-.16.02-.32.04-.48.07.04.48.08.95.83,1.4v2.3c.72-.07,1.34-.03,1.88-.21,1.08-.38,2.16-1.33,3.17-1.23,1.68.16,3-.88,4.55-.83,1.46.05,2.61-1.01,4.17-.85,1.47.15,3.03-.34,4.52-.7.63-.15,1.16-.67,1.9-1.13-4.91-1.38-9.13.55-13.37,1.51-2.32.52-4.55,1.25-7.53,1.17Zm209.45-38.16c-2.83,0-4.95.1-7.06-.03-2.02-.12-4.03-.73-6.03-.67-5.87.19-11.75-.6-17.62.6-2.75.56-5.7.1-8.56.1h-14.46c-.08.16-.17.32-.25.48.48.29.96.58,1.67,1.01,6.85,0,14.07.17,21.28-.04,8.63-.25,17.18,1.29,25.81.83.87-.05,1.77.45,2.74.71.66-.8,1.34-1.61,1.78-2.99,1.58.43,1.58-1.74,2.88-1.78-.02-.09-.05-.17-.09-.32-.41-.34-.85-.71-1.18-.99-1.76.61-1.7,1.85-.91,3.08Zm-151.99-9.59h2.92c.26,2.9.01,5.54-1.01,8.21-.56,1.46-.61,3.48-.06,4.94,1.1,2.9,2.78,5.58,4.24,8.4,1.75,0,3.36,0,4.96,0,1.57,0,3.14-.01,4.39-.02.43-1.67,1.1-2.95,1-4.16-.41-4.68,1.06-9.23.85-13.89-.07-1.63.29-3.29.45-4.93-.14-2.68-3.21-4.28-2.82-6.96-1.26-1.27-2.37-2.39-3.48-3.5-.31.33-.72.75-1.01,1.05,1.63,2.64,3.09,5.03,4.58,7.41.96,1.54,1.21,3.45.62,4.87-.76,1.83-.57,3.56-.6,5.34-.07,4.09-.02,8.19-.02,12.2q-1.27.95-2.9.79c-.5-7.07.38-14.05,1.39-20.49-2.47-4.07-4.71-7.76-7.13-11.74-.18.72-.43,1.12-.32,1.37,1.41,3.15,2.88,6.28,4.38,9.54v19.08c-.88.98-1.72,1.61-2.91.69v-9.71c0-.75-.27-1.66.07-2.2.41-.65.85-1.21.66-1.97-.16-.66-.52-1.28-.72-1.94-.16-.53-.21-1.08-.31-1.63-.53,5.06-1.64,9.99-1.21,15.02,0,.1-.07.22-.14.31-.07.09-.18.16-.44.38-.52-.36-1.1-.76-1.69-1.17.23-2.82-.15-5.56.66-8.36.6-2.07.12-4.45.12-6.73-2.3-1.82-3.11-4.67-4.37-7.13-.98-1.92-2.1-3.59-3.47-5.18-.44.43-.79.78-1.19,1.17,2.02,1.23,1.01,3.73,2.36,5.38,1.21,1.49,2.47,3.21,2.05,5.29h-1.92c-2.61-3.88-3.84-6.73-4.01-8.71-1.17-1.17-2.01-2.01-2.98-2.98.12.71,0,1.67.39,1.97,1.75,1.38.7,4.09,2.66,5.29-.62,1.72.93,2.61,1.51,3.86.43.93,1.98,1.21,1.57,2.65,1.32.83,1.53,2.08,1.47,3.53-.02.4.68.83,1.31,1.54,0-2.6,0-4.81.11-6.89Zm-37.42,60.47v2.92c1.09,1.94,2,3.56,3.04,5.44-.06.52-.15,1.32-.27,2.36-1.13-.56-1.96-.96-2.45-1.21-.5-1.36-.9-2.44-1.3-3.52h-1.9c-.53.66-1.22,1.52-1.91,2.38h-2.65c-.06,1.62-1.34,2.05-2.27,3.17-1.09-.66-2.07-1.25-3.05-1.84-1.27.81-2.55,1.61-4.02,2.55-.78-.99-1.45-1.85-1.8-2.29-2.23,0-2.38,1.76-3.41,2.64-1.22.17-2.46.38-3.44-1.07v-2.71c-.51-.65-.81-1.03-1.19-1.5-.74,1.1-1.4,2.09-2.04,3.03h-2.29c-.7-.97-1.25-1.73-1.92-2.65-.07-.93-.17-2.1-.27-3.37-.61.16-.94.25-1.24.33-.07.69-.12,1.28-.18,1.87-.15-.12-.3-.24-.45-.36-.52.61-1.04,1.22-1.56,1.83-.27-.34-.58-.71-.88-1.09-.3-.38-.59-.76-.97-1.25-.81,2.01-1.5,3.72-2.14,5.31-.88.38-1.62.7-2.25.97-1.64-.51-1.16-3.14-3.56-2.99v3.06c-1.03.3-1.88.55-2.44.72-.73-.96-1.31-1.57-1.68-2.28-.36-.7-.51-1.52-.76-2.33-.41.09-.75.16-1.09.23v5c3.31.25,6.56,0,9.81.7,2.62.56,5.47.23,8.21.09,4.89-.24,9.79.6,14.68-.64,1.99-.51,4.23.01,6.34-.11,2.02-.12,4.03-.48,6.05-.72,1.9-.22,3.83.38,5.72-.67.86-.48,2.39-.46,3.29-.01,2.86,1.41,5.75.2,9.28.92-2.3-2.5-5.17-3-6.55-5.31-1.37-2.3-2.72-4.61-4.52-6.48.29-4.3-2.06-8.18.04-11.87-.47-.53-.79-.9-1.11-1.27-.22.22-.38.52-.58.56-3.13.59-6.25,1.27-9.41,1.66-1.59.19-3.1.26-4.03,1.3-1.76.33-3.27.62-4.87.92-.64-.9-1.35-1.9-2.29-3.21-1.6,2.91-.61,5.68-.96,8.28-.35,2.61,1.68,5.09.51,7.62-.51.13-.85.21-1.15.28v3.27c.36.36.62.62.9.9.67-.33,1.35-.67,1.81-.9.39-2.43.75-4.67,1.13-7.02.26-.24.59-.62.99-.9.16-.12.48-.02.82-.02.83,2.69-.75,5.84,1.6,8.32,1.86-.73,2.49-2.39,3.18-4.1-.31-.95-.63-1.95-.96-2.98.63-.53,1.16-.98,1.66-1.4,2.01,1.72,1.36,3.88,1.54,5.94.55.36,1.13.75,1.98,1.3.41-2,.18-3.72.22-5.42.04-1.62.18-3.26-.04-4.85-.23-1.62-1.17-3.14-.48-4.93.4-.31.85-.67,1.39-1.1.55.6.95,1.05,1.47,1.63-.75,3.53,1.18,7.04.72,10.74-.05.4.67.9,1.01,1.33.69-.66,1.32-1.26,1.94-1.85v-2.26c.36-.36.72-.71,1.04-1.04.5.28.99.56,1.95-.04Zm-17.22-19.47c-.33,1.58,1.18,2.01,1.91,3.06,2.85.11,5.26-2.45,8.29-1.57,2.91-1.08,5.82-1.21,9.14.17.17-.27.57-.66.67-1.12.47-2.01,1.5-3.67,2.91-5.17.27-.29.2-.9.23-1.34,2.06-.46,3.31-2.18,4.39-3.49,1.33-1.61,3.16-2.22,4.6-3.48,1.57-1.36,3.54-2.27,5.34-3.39.8.18,2.1.86,2.51.51,1.15-1.01,2.36-.57,3.52-.62,2.2-.09,4.41-.03,6.62-.03-2.78-1.35-2.39-4.67-4.24-6.17-.23-1.29-.16-2.62-.72-3.58-.83-1.4-.52-3.13-1.34-4.3-1.03-1.47-1.05-3.09-1.27-4.64h-1.12c-.37,1.38-.74,2.79-1.13,4.27,1,.17,1.69.28,2.4.4-.58,2.89,2.48,4.88,1.44,7.52,1.28,1.62,2.01,3.14,1.15,5.33-1-.44-1.84-.81-2.3-1.01-1.13-4.19-1.72-8.05-3.99-11.68-2.47,4.49-4.84,8.57-7.38,12.54-2.6,4.07-6.09,7.51-8.41,11.79h-3.23c.69-1.76,1.35-3.04,2.48-4.15,2.65-2.61,4.41-5.91,6.74-8.77,1.63-2.01,3.03-4.16,4.1-6.51,1.06-2.33,3.26-4.01,3.7-6.68,2.6-2.47,2.54-6.66,5.63-8.81v-2.13l-1.51-1.51c1.02-2.45-1.27-4.28-1.56-6.64-.13-1.07-1.59-1.75-2.98-.65.24,1.4,2.11,1.97,1.72,3.86-.21,1.02,1.01,2.26,1.33,3.47.35,1.3,1.45,2.56.38,4.23-1.47.48-2.74,1.96-3.12,3.25-.6,2.08-2.07,3.4-3.02,5.12-1.01,1.83-1.95,3.67-3.11,5.45-2.37,3.63-4.73,7.25-7.21,10.81-.31.45-.32,1.12-.26.91-1.35,1.35-2.25,2.24-3.15,3.15-1.88-1.18-.19-2.61.29-3.88.31-.83,1.58-1.24,1.26-2.46h1.22c.58-1.34,1.18-2.71,1.78-4.08,2.01-.23,1.56-2.32,2.48-3.43,2.3-2.76,3.93-6.04,5.57-9.24,1.37-2.69,2.9-5.16,5.08-7.23.12-.11.13-.34.2-.53-.47-.44-.92-.87-1.48-1.39,1.03-2.41-1.94-3.95-1.45-6.42.12-.6-.7-1.39-1.01-1.93h-1.77c-.88,2.58,1.74,4.21,1.44,6.6-.07.6.9,1.33,1.37,1.95v2.65c-.86.78-1.71,1.28-2.16,2.02-1.14,1.87-2.16,3.83-3.11,5.8-.97,2.01-1.8,4.08-3.44,5.68-.15.14-.19.42-.22.65-.31,2.55-3.21,3.82-3.13,6.48-.53.18-.96.33-1.37.47v1.96h-2.31c.09-.86.01-1.51.25-2.01.73-1.57,1.59-3.14,2.46-4.57,3.16-5.16,6.01-10.48,8.87-15.73.69-.12,1.35-.23,2.36-.4-.49-.71-.92-1.05-.98-1.46-.53-3.24-2.76-5.87-3.27-9.14-.08-.49-1.04-.85-1.24-.99-.8.45-1.34.76-2.12,1.2.84.9,1.4,1.5,1.99,2.12v3.41c.37.23,1,.64,1.44.92v4.91c-2.15,3.52-4.05,6.61-5.94,9.71.7,1.75-1.7,2.12-1.65,3.87.03,1.14-1.51,2.29-2.23,3.5-.34.58-.39,1.33-.63,1.98-.07.19-.33.31-.5.46-.87-.31-1.75-.61-2.76-.97-.46.48-.86.89-1.32,1.38q2.88.7,2.94,3.47c-1.47.2-2.97.46-4.48.59-1.35.12-2.89-.3-4.03.21-2.14.96-4.41.91-6.53,1.47-2.12.56-4.32.93-6.66,1.66,1.04,1.81.23,4.23,2.1,5.7.93-.3,1.68-.67,2.47-.76,1.3-.15,2.54-.23,3.85-.63,1.06-.33,2.19-.92,3.39-.89,2.89.07,5.75.13,8.39-1.45.52-.31,1.45-.06,2.16.1.43.1.79.52,1.11.76-.75,1.14-1.33,2.02-1.86,2.83-2.42,0-4.69-.19-6.91.06-2.07.23-4.06,1.2-6.13,1.37-2.14.17-4.26.14-6.14,1.25v3.33c.69.23,1.45.48,2.21.73Zm242.06-.66c-.69-.1-1.68.01-2.32-.41-1.19-.78-2.74-.79-3.48-.27-1.47,1.02-2.91.61-4.27.51-1.62-.12-3.4-.34-4.83-.93-1.63-.67-3.16-.13-4.66-.51-1.45-.37-2.81-1.07-4.26-1.44-1.49-.38-3.02-.64-4.55-.75-1.74-.13-3.49.02-5.24-.04-2.67-.1-5.11.79-7.56,1.65-.76.27-1.58.43-2.28.82-.81.46-1.51,1.12-2.42,1.82-.49,2.48-2.17,4.91-2.24,7.75-.07,2.97-1.57,5.87-.52,8.9h1.52c1.18-1.15,2.34-2.27,3.45-3.34.48-2.63,1.33-4.12,1.89-3.7.73.24,1.46.47,1.96.64-.46,1.37-.64,2.43-1.14,3.32-2.07,3.67-5.61,5.63-9.14,7.56-.78.43-1.74.53-2.41.72v3.17c.77-.28,1.35-.5,2.12-.78.32.75.63,1.5.94,2.23-.69.77-1.24,1.39-1.99,2.23.45.75.88,1.47,1.53,2.57,1.8-1.89,3.29-3.45,4.9-5.14.61.64,1.08,1.14,1.62,1.72-.71.81-1.26,1.43-1.81,2.05.08.62.15,1.18.27,2.16.88-.67,1.85-1.05,1.91-1.53.14-1.18,1.1-1.58,1.68-2.32.09-.12.33-.11.48-.16.3.3.63.53.81.84.22.38.32.84.28.73,3.33,2.78,6.31-.04,8.86.41,1.09-.61,1.77-1.22,2.53-1.35,1.56-.27,2.44-1.74,4.09-1.98.73-.1,1.07-1.93,1.91-2.4,1.72-.96.8-2.71,1.56-4.27.79-.12,1.65-.25,2.43-.36.91,3.04-1.14,5.05-1.94,7.51,3.5,0,6.67-1.47,9.87-.68l1.32-1.32v-6.08c.56-.43,1.03-.78,1.64-1.24.53.59.93,1.04,1.32,1.47v5.89c.41.45.75.82.92,1.01,2.05.18,3.89.34,5.82.5,1.64-1.52.04-3.74.94-5.51h2.8v8.98c2.79-.35,2.4-2.71,2.83-4.12.52-1.69.12-3.66.12-5.42,1.08-.53,1.3-2.13,3.05-1.59v3.99c4.71-2.93,8.55-6.15,11.87-9.74.06-1.01.12-1.83.17-2.63.77,0,1.27,0,1.77,0,.97.97,1.94,1.94,2.9,2.89h2.79c4-2.3,5.54-6.34,8.82-9.07h4.59v-2.93c-.42-.82-.74-1.44-.98-1.88-2.2-.34-4.28-.66-6.36-.97-.09.16-.17.31-.26.47.61.37,1.22.73,1.59.96v2.85c-1.18,1-2.51,2.06-3.77,3.2-1.25,1.14-3.05.14-4.1.9-2.14,1.54-3.94.02-5.82-.24-1.15-.16-1.57-1.4-1.16-2.64.79-.79,1.69-1.51,2.35-2.4.59-.8.95-1.77,2-2.02v-1.63c-1.61-.38-3.2-.75-3.96-.93-1.31.93-2.11,1.5-2.85,2.03.39.81.69,1.42.96,1.97-.49.48-.84.84-1.17,1.16-2.15.39-3.73-.57-5.14-2.02-4.2-4.29-8.91-7.79-14.76-9.53-.33-.1-.62-.29-.8-.38-1.35.7-2.56,1.33-3.66,1.9-.28,1.86,1.04,2.5,2.03,3.42h2.86c1.31,1.13,1.62,2.24-.21,3.76Zm-94.27,17.02c-.83-.83-1.21-1.37-1.73-1.69-1.08-.67-2.59-.49-3.4-1.83-.17-.29-1.23.07-1.76-.16-1.59-.69-3.13-1.52-4.8-2.36.51-.55.84-.89,1.21-1.28h3.9c.51.51.95.95,1.53,1.52,2.17-1.37,3.1,2,5.2,1.45.69.97,1.38,1.93,1.98,2.77,3.19.88,5.59-.99,8.25-1.85,1.88-.61,3.32-1.79,4.69-3.16,1.54-1.54,2.86-3.34,4.95-4.28.57-.26.96-.91,1.7-1.65-3.03-.33-5.75.51-8.08-.91-.96.96-1.67,1.88-2.58,2.51-.83.58-1.85,1.16-2.83,1.23-2.32.18-4.65.06-7.03.06-.19-4.17,3.34-6.28,4.65-9.65-4.85.93-9.31,1.55-13.5-1.12-.16-.38-.22-.99-.54-1.2-4.68-3.02-9.78-5.23-14.67-7.54-.84.5-1.52.9-2.19,1.29,2.01,4.09,2.01,4.11.45,6.25-1.42,0-2.94.2-4.38-.04-3.13-.53-6.23-1.27-9.35-1.87-2.07-.4-4.07-1.17-6.25-1.1-.81.02-1.68.28-2.42-.55-.26-.29-1.4-.3-1.66,0-.74.83-1.61.6-2.41.55-1.97-.14-3.72.53-5.49,1.24-.54.22-1.16.24-1.59.33-1.24,1.16-2.41,2.26-3.12,2.93-.64,3.2-1.18,5.85-1.76,8.78.72,1.55,1,1.95.33,2.98-.63.98-.79,2.27-.39,2.74,1.29,1.5.3,3.11.72,4.52-.7.71-1.31,1.33-2,2.02-1.84-.99-2.36,2.06-4.18,1.41-.96,1.16-3.32.16-3.65,2.65,2.14,1.41,2.5,4.27,4.33,6.56.47-.97.72-1.63,1.09-2.22,1.3-2.08,2.31-4.5,4.07-6.09,1.3-1.18,3.15-2,4.61-3.16,1.58-1.25,3.52-1.83,5.22-2.82,1.25-.73,3.1-1.44,4.84-.86.51.17.91.7,1.31,1.03-.66.7-1.25,1.34-1.7,1.81-.77.17-1.33.29-1.89.41.02.14.04.27.05.41h6.4c1.49.69,2.42,1.41,3.39,1.49,1.58.12,2.98.36,4.39,1.22,1.25.76,2.9.52,4.31,1.33,2.09,1.19,4.38,2.05,6.63,2.95,1.93.76,3.88,1.67,5.9,1.97,2.32.34,4.78.37,7.08-.01,1.86-.3,4.59-.05,4.5-3.33,0-.34.66-.7.89-.93h2.02v3.79c.63.87,1.03,1.47,1.49,2.02.29.35.69.61,1.37,1.18v-7.51c.14.03.28.07.42.1.49-1.42.98-2.83,1.48-4.28Zm-159.1-38.85c-1.28,1.87-2.92,1.53-4.47,1.55-3.59.05-6.88,1.64-10.44,1.92-3.17.25-5.99,2.4-9.06,1.81-1.36.7-2.5,1.28-3.68,1.88.06.32.12.66.17.99,3.98-.23,7.47-2.51,11.47-2.12,1.14-1.27,2.62-1.65,4.24-1.49,1.36.14,2.57-.26,3.82-.74,1.57-.61,3.2-.95,4.92-.79.97.09,1.95.02,2.6.02.85-1.23,1.5-2.17,2.22-3.22-.55-1.11-1.06-2.14-1.71-3.44v-3.64c-.46-.36-1.04-.82-1.54-1.21v-3.89c-.12.03-.23.07-.35.1-.51-1.65-1.02-3.3-1.59-5.13-1.85-.64-3.81-1.32-5.97-2.07-3.44,3.69-4.96,8.69-8.07,12.7h-1.87c-.04-4.49-2.2-8.63-1.56-12.99-.41-.41-.68-.68-1.26-1.26-3.66.59-7.59,1.22-11.33,1.82v2.18c1.32-.33,2.42-.74,3.56-.86,1.36-.14,2.74-.03,4.11-.03.53-.51,1.07-1.01,1.6-1.52.61.03,1.19.07,1.69.09v2.67c-3.29.8-6.66.59-9.75,2.09.18.51.29.83.5,1.44.88-.65,1.63-1.2,2.2-1.62h8.23c-.53.87-.89,1.45-1.13,1.84-2.82.4-5.41.78-7.95,1.14-.94.84-1.57,1.69-.45,2.98,1.83-1.05,3.72-2.02,6.01-1.7.59.08,1.28-.47,2.03-.77.45.51.9,1.02,1.58,1.8-.71.45-1.23.77-2.02,1.27-3.75,0-5.02.4-6.51,2.35,2.76-.35,5.33-.67,7.88-.99.58,1.58.04,2.43-.97,3.14h-5.07c-.69.67-1.32,1.27-1.95,1.87.09.09.18.18.41.41,1.45-.07,3.22.3,4.57-.3,2.41-1.07,4.81-1.38,7.3-1.21,2.74-2.53,6.1-1.11,9.14-1.61,1.98-1.96,4.46-1.27,6.92-1.44v1.98c-.57.29-1.19.61-2.03,1.05-2.68-.56-5.43,1.34-8.39.75-.11-.02-.26-.02-.36.04-2.03,1.11-4.29,1.13-6.49,1.56-2.16.42-4.26,1.17-6.49,1.5-1.16.17-2.87.58-3.05,1.82.47.88.74,1.39,1.01,1.89.64-.64,1.09-1.08,1.46-1.46,1.16-.12,2.46.12,3.29-.4,2.2-1.39,4.8-.89,7.09-1.89,1.47-.64,3.25-.71,4.9-.78,1.62-.07,3.1-.24,4.2-1.43h6.39v1.33Zm190.02,13.38h13.65v-2.11c-5.28,0-10.5-.16-15.7.04-5.21.2-10.4,1.22-15.99.47.42-1.07.75-1.92,1.08-2.75,9.99,0,19.71-.02,29.43.03,1.03,0,2.05.4,3.23.65.34-.41.78-.95,1.23-1.5-1.34-1.04-2.58-1.4-4.07-1.47-4.67-.21-9.28.5-13.92.76-2.74.16-5.49-.05-8.23.05-2.65.1-5.34-.51-7.95.67-.86.39-1.99.16-2.56-.92-.11-.2-.11-.45-.2-.84.4-.32.86-1.11,1.5-1.13,12.09-.33,24.46-.55,36.84-.82.2,0,.4-.22.66-.36-.05-.32-.11-.66-.18-1.12h-3.76c-12.48,0-24.95-.02-37.43.02-1.66,0-3.38-.44-4.97.67-.46.32-1.67.22-2.08-.16-.91-.85-1.89-.54-2.8-.5-3.64.18-7.28.46-10.92.73-.48.03-.96.17-1.43.25.02.13.04.26.06.39h13.47c3.01,1.38,3.82,4.61,6.15,5.89,2.21.74,4.19,1.39,6.57,2.18.12.12.56.56.96.96,2.92.06,5.51,1.13,7.95,2.26,2.61-1.53,5.42-.18,8-.9.43-.43.87-.88,1.44-1.45Zm-136.37,20.53c4.24-5.96,8.8-10.74,12.2-16.6-2.15-1.46-4.31-2.92-6.47-4.39h-9.21c.89,6.83,2.26,13.4,3.47,20.99Zm39.48,3.2c-1.24-1.85,2.28-3.93-.85-5.73-3.46.33-7.2.68-11.2,1.06-.38.38-1,1-1.62,1.62-.12,2.35.52,4.88-1.51,6.82.3,1.14-.31,1.87-1.1,2.53-.14.11-.19.34-.28.51.36.33.7.65.9.84.62-.27,1.13-.48,1.98-.85v6.78c.7.48,1.17.8,1.97,1.34.55-1.31.99-2.35,1.42-3.38h1.55c1.54,1.9,1.73,4.85,4.32,6.15.42-.49.74-.87,1.18-1.38-1.6-.81-1.37-2.7-2.19-4.07-1.62-2.68-3.3-5.33-4.76-8.11-.34-.65-.35-1.46-.4-1.68,1.97-2.03,3.53,1.46,5.29-.41,1.94.25,3.23-1.23,5.31-2.06Zm121.81-52.36c-.01-.13-.02-.27-.03-.4-2.08,0-4.17.1-6.25-.03-2.02-.12-4.03-.65-6.05-.69-5.73-.1-11.47.01-17.2-.06-2.15-.03-4.36.48-6.45-.67-.5-.28-1.39.11-2.09.25-.57.11-1.12.42-1.68.43-2.62.05-5.26-.2-7.85.08-2.57.28-5.07-1.47-7.62-.08-.15.08-.55,0-.66-.14-.76-1.02-1.83-.56-2.76-.57-11.09-.03-22.19-.05-33.28.01-1.39,0-2.84.32-4.15.78-.59.21-.93,1.13-1.38,1.72,1.53-.99,3.03-.26,4.38-.27,26.8-.04,53.6-.03,80.4-.03,1.37,0,2.75-.08,4.11.03.66.05,1.29.47,1.98.73,1.24-1.31,2.53-.78,3.46-.07,1.25-.42,2.18-.73,3.12-1.05Zm-.2,11.71c-4.72-.38-8.84-.39-12.94-.74-9.58-.84-19.25.62-28.85-.85-2.07-.32-4.23.03-6.35-.07-1.53-.08-3.03.26-4.62-.6-.97-.53-2.58.1-3.9.25-.58.07-1.14.33-1.71.36-4.26.21-8.51-.22-12.8.66-3.29.68-6.76.31-10.16.65-3.47.34-6.89,1.28-10.43.92-.38.8-.66,1.38-1.09,2.28,1.01,0,1.71.2,2.19-.03,2.32-1.16,4.79-.58,7.19-.7.99-.05,2.25.37,2.94-.09,1.52-1.01,3.08-.47,4.6-.68,1.52-.21,3.03-.7,4.55-.71,22.06-.05,44.13-.04,66.19,0,1.15,0,2.3.35,3.63.57.25-.19.69-.53,1.56-1.2Zm-97.14-15.85c14.01,0,27.61,0,41.21,0,1.31,0,2.7-.32,3.65.82.67-.32,1.19-.77,1.72-.79,2.37-.08,5.02-.7,7.04.14,2.49,1.03,4.18-.61,6.27-.57-3.63-.29-7.12-1.33-10.81-1.17-3.25.13-6.51.32-9.83-.55-2.45-.64-5.21-.03-7.83-.15-2.65-.13-5.28-.6-7.93-.69-3.49-.12-6.99-.03-10.48-.03h-4.49c-1.62,0-3.43.45-4.82-.12-1.51-.63-2.63.75-3.93.15-.08-.04-.32.29-.65.59.25.68.53,1.43.88,2.37Zm-8.93-12.07c1.23,2.6,1.2,5.21.4,7.36-.92,2.46-1.18,4.84-1.17,7.35,0,5.6,0,11.2,0,16.8v6.36c.52.52.78.78,1.12,1.12,1.28,0,2.64,0,4,0,.22,0,.45-.11.67-.17.61-9.03.38-24.53-.3-26.33-1.35,4.2-.96,8.73-1,13.23-.02,3.36,0,6.72-.01,10.08,0,.58-.08,1.15-.17,2.29-1.2-1-2.03-1.68-2.82-2.34v-12.02c0-.75-.32-1.78.06-2.19,1.31-1.45.19-3.18.75-4.57.61-1.52.7-3.01.69-4.57-.01-1.99,0-3.97,0-5.63.55-1.07.96-1.86,1.32-2.55-.41-.78-.8-1.5-1.33-2.51.2-3.17-.56-6.73.59-9.43-.39-.93-.62-1.47-.98-2.32-2.3,3.47.06,7.13-1.83,10.05Zm102.82,31.3c-.52-.39-.62-.52-.71-.52-5.61,0-11.22,0-16.83,0h-16.83c-5.61,0-11.22-.13-16.83.04-5.51.16-11.02-.58-16.54.62-3.28.71-6.74-.15-10.17.73-3.12.8-6.47.68-9.72.97-.32.34-.65.68-1,1.04,1.39.36,2.74.71,3.9,1.01,1.32-.51,2.47-1.23,3.69-1.37,3.37-.39,6.77-.83,10.15-.74,9.51.24,18.97-1.36,28.48-.82.56.03,1.14-.33,1.71-.35,2.92-.1,5.95-.66,8.72-.06,2.15.47,3.92.42,5.78-.38,1.47,1.51,2.88.75,4.28.06.53.25,1.07.74,1.57.7,2.89-.26,5.88.8,8.68-.68.39-.21,1.08-.21,1.46,0,2.19,1.17,4.54.54,6.81.74.75.06,1.48.33,2.27.52.33-.45.67-.91,1.1-1.5Zm-85.49,51.64v-2h2.71c.08.4.15.74.19.93,1.19.6,2.33,1.17,3.8,1.91.2-.31.62-.93.91-1.37h2.43c1.48,2.81,2.14,3.61,3.99,4.61.96-.98,1.99-2.02,3.22-3.27.42.2,1.39.35,1.6.83.66,1.49,1.74,2.37,3.19,2.94,2.11-1.39,4.24-2.79,6.6-4.34-.84-.89-1.56-1.65-2-2.12-3.03.47-5.69,1.17-8.37,1.23-2.75.07-5.51-.47-8.59-.78-.27-.34-.73-.92-1.13-1.42h-3.28c-.52-2.02-3.12-.98-3.98-2.67-2.5-.24-4.52-2.84-7.47-1.42v6.05c-.58.6-1,1.04-1.43,1.48.12.17.25.35.37.52.85-.28,1.7-.57,2.54-.85.05-1.13.09-1.97.13-2.8.16.15.32.29.49.44.21-.62.41-1.23.51-1.54,2.79.46,1.38,2.81,2.28,3.85.43-.07.66-.11,1.29-.21Zm-148.85-9.61c.04-.11.08-.21.12-.32.7,2.83,1.38,5.67,2.13,8.49.09.34.55.58.94.97.87-3.2,2.17-5.99,1.93-8.93.64-.18.97-.28,1.35-.39-.1-2.22.14-4.38-.19-6.79-1.27.75-2.17,1.71-3.06,1.7-1.33-.02-2.23.75-3.33,1.09-2.09.65-4.14,1.45-6.23,2.21-.7-.62-1.28-1.14-2.07-1.85v5.12c.37.37.81.81,1.38,1.38v2.06c.63.84,1.43,1.41,1.43,1.99.01,1.55,1.2,2.52,1.61,3.84.11.35.71.54,1.39,1.01v-11.94c.22.18.45.35.67.53.18-.64.37-1.28.55-1.93.24-.02.47-.03.71-.05.22.61.44,1.21.66,1.82Zm193.45,15.02h2.46c7.35,0,14.71-.04,22.06.02,2.15.02,4.36-.48,6.45.67.5.28,1.39-.12,2.09-.24.81-.13,1.62-.29,2.43-.46.22-.05.41-.21.54-.28-.3-.62-.6-1.23-.86-1.75-1.91-1.29-2.35,1.48-4.05,1.28-.97-1.18-2.03-2.45-3.26-3.94-.94.86-1.89,1.74-2.52,2.31-2.94.57-2.38-1.77-2.92-2.73-1.49.28-2.73.51-3.74.7-.63-.98-1.07-1.67-1.55-2.44-1.55,2.34-3.37-1.03-4.84.38-.12.72-.23,1.38-.38,2.22-.92-.46-1.53-.76-2.41-1.2-.78,1.34-1.52,2.63-2.19,3.79-.79.36-1.51.69-2.12.96-.59-.86-1.08-1.58-1.63-2.38-1.21,1.04-2.23,1.92-3.57,3.07Zm-101.22-53.75c-2.17-1.77-2.51-4.2-3.27-6.34-.37-1.05-.81-2.17-1.09-3.29-.28-1.12-.36-2.61-1.12-3.21-1.16-.92-.46-2.41-1.51-3.18-.22-.16-.43-.32-.64-.47-.16.11-.32.23-.48.34.49,1.26.98,2.52,1.6,4.13.64,3.76,1.49,7.85,3.78,11.5.11.18.06.47.1.83-.48.4-1.01.85-1.77,1.48-.76-1.21-1.49-2.12-1.96-3.16-.52-1.14-.8-2.39-1.18-3.6-.36-1.1-.31-2.42-.87-3.39-.89-1.56-1.06-3.14-.97-4.56-1.17-2.15-2.19-4.08-2.26-6.13.91-.58,1.6-1.02,2.32-1.47-.58-.63-1.49-1.18-1.49-1.71.02-2-1.93-3.16-1.87-5.3.03-1.31-1.41-2.65-2.32-4.22-.96,2.39,1.05,3.85.95,5.32-.14,2.1,2.17,3.04,1.52,5.58-.72.62-1.84,1.59-2.88,2.49.04.65.06,1.13.08,1.49,1.07.41,2.05.78,2.75,1.04.49,1.54-.31,2.82.68,3.92,1.24,1.37,1,3.12,1,4.47.6,1.08,1.53,1.97,1.41,2.69-.34,2.16,1.43,3.19,2.12,4.78.22.5.76.87,1.12,1.26-.35.59-.58.97-.92,1.54,1.66.85,3.3,1.69,4.88,2.49,1.01-.51,1.8-.91,2.77-1.4-.84-.52-1.54-.95-2.21-1.36.5-.75,1.06-1.59,1.72-2.57Zm-68.54,11.13c-1.87,0-4.3-.55-6.32.12-3.4,1.14-6.89,1.4-10.33,2.12-1.15.24-2.28.64-3.43.71-1.86.12-3.74.04-5.61.01-.18,0-.35-.27-.7-.56.4-.56.8-1.12,1.1-1.54,1.76-.13,3.39-.06,4.92-.4,2.19-.49,4.35-.96,6.57-1.32,3.26-.53,6.47-1.29,9.79-1.68,1.98-.23,3.93-1.42,6.16-1.17-.21-.29-.42-.57-.64-.86.53-.06,1.06-.12,1.63-.18-.66-.62-1.02-.95-1.47-1.37-1.03.54-2.05,1.07-3.1,1.62-1.58,0-3.4-.48-4.78.1-3.23,1.34-6.72,1.02-9.97,2.1-2.8.93-5.89.49-8.73,1.49-.5.18-1.24-.31-1.89-.49-.22.22-.73.5-.71.75.13,2.12.27,4.24.58,6.34.13.86.69,1.66,1.01,2.4h1.78c.11-.7.21-1.38.32-2.07.17.15.34.29.51.44.41-.79.81-1.57.95-1.84,2.7-.38,4.85-.61,6.96-1.01,2.06-.39,4.06-1.08,6.12-1.45,2.23-.4,4.75-.07,6.68-1.01,2.16-1.04,4.39.28,6.19-.77v-2.23c-1.26.6-2.28,1.09-3.6,1.73Zm93.55,8.29c.14-1.49.32-2.47.67-3.53,1.21-3.72,4.33-5.17,7.28-6.77,3.96-.65,7.95-1.31,11.71-1.92,2.64,2.42,5.56,1.51,8.28,1.67.18.01.37-.26.41-.28v-2.17c-1.46.7-2.69,1.28-4,1.91-.2-.59-.35-1.02-.64-1.87-1.65,1.08-3.21-.54-5.17.08-1.7.54-3.7.16-5.57.1-1.91-.06-3.91.49-5.42-.67-2.54,1.13-4.82.89-7.02-.07-2.55,1.66-1.57,4.85-3.19,6.95-.56.73-.29,2.11-.35,2.78-.68,1.94-2.29,3.27-.87,5.48,1.23-.53,2.5-1.08,3.89-1.69Zm-59.13,15.61c.03,2.05.65,3.53,1.55,4.94.93,1.46,1.78,2.96,2.84,4.75.46.31,1.3.87,2.16,1.46,1.08-1.5,2.56-2.52,3.51-4.19,1.62-2.86,3.77-5.42,5.65-8.14.14-.2-.11-.66-.23-1.23-.65.33-1.15.58-1.88.95-1.21,0-2.7-.03-4.2.01-.84.02-1.82-.1-2.49.28-2.08,1.19-4.31,1.28-6.91,1.18Zm111.95-26.91c1,1,1.62,1.61,2.24,2.24h1.26c1.74,1.34,3.34,2.58,4.86,3.75,1.39,0,2.63.01,3.87,0,1.3-.02,2.6-.06,4.36-.11-1.37-1.85-2.42-3.26-3.14-4.24-.43-2.11-.76-3.71-1.08-5.23-1.64-.33-3-.73-4.39-.86-1.48-.14-2.98-.03-4.47-.03-2.49,0-4.98.06-7.46-.03-1.15-.04-2.3-.36-3.61-.57-.26.2-.7.54-1.48,1.13,2.7,1.31,4.98,2.41,7.41,3.59,1.22-2.51,3.62-1.97,5.44-2.5,1.92-.56,4.12-.12,6.05-.12.37.87.62,1.46.85,2.02-.32.32-.58.58-.96.96h-9.75Zm-101.87,3.01c-2.38,2.96-6.57,4.22-7.74,8.59.28,1.27,1.95.73,2.76,1.41,2.64,2.22,5.95,3.5,8.39,6.01.3.3.95.26,1.48.38-1-5.65-2.48-10.91-2.33-16.38h-2.56Zm141.84-26.93h-1.77c-7.61,0-15.22-.12-22.83.07-2.43.06-4.83-1.55-7.24-.07-1.54-1.32-3.07-.17-4.62-.06-1.13.08-2.3-.36-3.43-.56-.49.19-1.02.57-1.56.6-6.63.28-13.3-.55-19.91.73-1.56.3-3.22.04-4.8.04-.4.4-.75.75-1,1v1.99c.6,0,1.19.18,1.55-.03,2.38-1.42,4.97-1.58,7.63-1.47,1,.04,2,.05,2.99,0,4.64-.26,9.25.13,13.94-.58,4.76-.72,9.71-.13,14.57-.19.65,0,1.29-.47,2.17-.81.64.93,1.54,1.24,2.69.5,1.64-1.06,3.2-.23,4.06.1,6.25-1.05,11.92-.14,17.57-1.26Zm-116.71,44.86c-1.49.04-2.66-.14-3.72.73-.5.42-1.3.81-1.89.73-2.59-.38-4.98.8-7.51.85-.63.01-1.25.64-1.78.94,4.05,3.23,7.87,6.26,11.69,9.3.49-.48,1.11-1.08,1.45-1.41.32-1.23.35-2.27.84-3.01.94-1.41.98-2.89.94-4.46-.03-1.11,0-2.22,0-3.66Zm278.35-45.41c-4.61,1.92-9.69,3.15-11.86,8.36.41.38.77.72,1.15,1.08,1.31-1.2,2.67-2.41,3.98-3.66,1.39-1.32,3.45-1.38,4.89-2.73,1.01-.95,2.02-.03,2.69.77-.34.66-.66,1.27-.93,1.79-.91.41-1.78.74-2.59,1.17-.91.48-1.77,1.06-2.65,1.59-.11-.13-.21-.26-.32-.4-1.33,1.63-2.65,3.26-3.7,4.54.71,1.02,1.2,1.73,1.65,2.37,2.86-.6,4.75-2,6.47-4.06,1.05-1.26,1.05-2.88,2.19-4.01.75-.74,1.73-1.69,1.77-2.58.07-1.5,2.08-1.07,1.99-2.54-.04-.53.48-1.11.89-1.99-2.09.23-3.75-.27-5.29.6-.17-.17-.35-.34-.33-.33Zm-343.76-12.27c3.39.82,6.01-1.71,9.68-1.39-.92-.81-1.41-1.24-1.5-1.32-2.32.23-4.09.43-5.86.58-2.52.21-5.01.03-7.58.62-3.51.8-7.24.69-10.89.87-2.12.1-4.24,0-6.36.04-.15,0-.3.33-.61.69.41.5.84,1.04,1.25,1.55h3.8c.46.46.9.9,1.29,1.29,1.23.2,2.41.33,3.57.59,1.19.27,2.12,1.65,3.57.87.15-.43.3-.87.44-1.28h4.2c.28-.4.7-1.01,1.07-1.54h2.35c.48-.48.93-.92,1.56-1.56Zm-7.97,56.05c0,4.4-.02,8.38.02,12.35,0,.69.1,1.48.45,2.04.85,1.35,1.17,2.8,1,4.37h1.28c.52-.87-.12-2.03,1.04-2.69.45-.26.43-1.27.7-1.9,1.11-2.56.74-5.26.72-7.92-.02-2.18.08-4.29,1.25-6.22.46-.76.56-1.54-.43-2.3-1.69,1.26-3.28,2.89-6.04,2.27Zm29.01-36.86c-1.46,2.19-4.01.14-5.43,1.85-1.99-.51-3.73.76-5.67.8-1.89.04-4.04.02-5.57.9-1.9,1.09-3.91-.21-5.59.89v.97c.93,0,2.12.36,2.72-.08.97-.71,1.93-.6,2.8-.44,1.91.34,3.54-.63,5.29-.93.69-.12,1.48-.7,2.33-.61,3.55.35,6.78-.93,10.24-1.8.65-1.49,1.26-2.99,1.95-4.44.74-1.56,1.56-3.09,2.35-4.63.74-1.44,1.49-2.87,2.24-4.32-.5-2.73-2.12-5.13-2.36-8.01-.09-1.12-.62-2.88-2.76-3.04-.21,2.32-.53,4.55,1.27,6.33.12,1.41-.17,2.97.43,4.02,1.23,2.12.1,4.01-.79,5.28-1.6,2.28-2.61,4.66-3.47,7.26Zm193.64,62.12c-3.27.51-6.6.43-9.26-1.14-.9.78-1.54,1.34-2.15,1.87,1.26.32,2.61.66,3.99,1.01.75-1.09,2.33-1.07,2.93-.59,1.19.94,2.35.6,3.51.62,3.86.07,7.72.03,11.58.03.73-1.18,1.53-.82,2.21-.17.68-.35,1.29-.67,1.82-.95.55-1.57,1.08-3.07,1.67-4.75h-6.28c-1.68.78-3.22,1.59-4.82,2.23-1.7.69-3.46,1.22-5.2,1.82Zm118.72-40.96h-2.95v-4.43c-1.34-1.97-2.44-3.6-3.52-5.18-1.7.39-1.71.37-3.24,2.14.33,1.44.67,2.92.95,4.13,2.56,4.15,6.65,5.92,10.58,8,.44-.4.88-.79,1.35-1.21-.43-4.1-1.22-7.95-3.88-11.17-.11-.13-.33-.16-.62-.29v2.22c.35.24.95.67,1.33.95v4.86Zm-303.75,20.93c1.81.5,3.04-.59,4.47-1.05,1.34-.44,2.89-.21,4.35-.31,1.5-.11,3.07.32,4.98-.51-3.51-3.2-7.47-5.04-10.83-7.68-.3-.23-.93-.03-1.18-.03-1.43,3.11-2.64,6.09-1.79,9.59Zm299.31-49.63c-.75-1.91-1.26-3.19-1.51-3.84-1.49-1.48-2.58-2.58-3.66-3.65-1.17,1.16-2.5,2.47-3.63,3.6-.34,1.73-1.19,3.41-.79,4.7.49,1.61.41,3.27.77,4.91.55-.1.89-.16,1.21-.22.44-2.58-.47-5.22.87-7.59.34-.6.51-1.45,1.02-1.77.48-.3,1.31-.07,2.07-.07-.17,2.49-.68,4.67-1.44,6.77-.54,1.51.66,2.38.98,3.54h2.25c.63-.63,1.25-1.24,1.87-1.86v-4.52Zm-227.34-9.15c-3.28,2.95-2.77,6.62-4.78,9.3,0,3.45-.46,7.13.13,10.64.59,3.49.28,7.14,1.74,10.51.32-.3.66-.62,1.12-1.05,0-6.85,0-13.81,0-20.77,0-1.19.03-2.29.66-3.47.67-1.26.67-2.88,1.12-5.15Zm-11.98-6.21c-.85,1.98.69,2.52,1.19,3.56.44.93.49,2.05.95,2.97.52,1.05,1.3,1.97,2.21,3.32v2.85h.95c.9-1.91,1.88-3.63,2.54-5.46.66-1.84,1.4-3.63,2.54-5.24-.94-.48-1.66-.84-2.36-1.2-.93.43-1.82.43-3.89.01-1.37-.28-2.73-.53-4.12-.8Zm-27.44,49.41c-2.92,3.83-5.21,7.84-9.06,11.06,1.51.09,2.44.3,3.55-.36,1.14-.68,2.69-.89,4.06-.92,1.78-.05,3.28-.49,4.57-1.86v-3.33c-.78-1.89-1.34-3.25-1.89-4.58h-1.24ZM14.98,126.37c0,.86-.22,1.59.04,2.05,1.77,3.24,3.79,6.34,4.86,9.91.09.29.49.48.8.76.36-1.9.32-3.94,1.15-5.53.88-1.68.45-3.72,1.89-5.23.46-.48.07-1.78.07-2.98-1.48.38-2.7.83-3.96.97-1.47.16-2.98.04-4.85.04Zm122.94,72.49c.65-.11,1.49-.06,2.12-.4,1.73-.92,3.38-2,5.19-3.09v-1.49c-2.28-.14-2.99-2.61-5.03-3.57-1.89-.89-2.93-3.21-4.97-4.31q-.36,1.93,1.08,4.4c-.71,2.81,1.15,5.32,1.61,8.45Zm63.75-56.95c1.28.39,2.51,1.14,2.94.82,1.39-1.05,2.85-.64,4.24-.62,3.91.05,7.71-1.32,11.65-.83.29.04.67-.58.69-.6,1.37.25,2.61.85,3.06.48,1.06-.87,2.12-.54,3.16-.56,3.99-.06,7.97-.02,11.96-.02h3.22q-3.71-1.44-5.16-.9c-2.56-1.03-4.91-.5-7.19-.58-2.49-.09-5,.17-7.47-.07-2.37-.24-4.49.89-6.8.82-2.41-.07-4.78.22-7.18.6-2.22.35-4.5.32-7.12,1.46Zm-35.77,6.09c.35-.35.96-.67,1.01-1.06.34-2.36.66-4.74.78-7.12.13-2.72-.02-5.46.06-8.18.02-.77.44-1.52.68-2.28.92,0,1.53.02,2.13,0,.54-.03,1.09-.11,1.72-.17-2.93-3.42-4.81-7.14-6.34-11.15-.99.13-1.88.25-2.96.4,1.68,3.03,2.29,6.25,4.69,8.26v3.07c-.28.12-.99.42-1.35.57-.49,6.1.69,11.84-.42,17.66Zm-32.62,40.76c-.92.5-1.33.58-1.51.83-2.04,2.86-4.05,5.74-6.26,8.89.58.31,1.13.6,2.34,1.24.96.11,2.91-.49,4.76.6.45.26,1.46-.44,2.16-.67-.11-1.36.23-2.35-.65-3.4-.78-.94-1.05-2.33-.87-3.71.14-1.07.03-2.17.03-3.78Zm52.85-1.35c-2.47,1.64-4.17,3.09-6.13,3.99-2.37,1.09-3.3,3.31-4.87,5.17v2.77c-.19.11-.77.45-1.32.77,1.97,2.35,3.51-.3,5.25.13,2.3-4.18,4.47-8.13,7.06-12.83Zm57.81,7.78c-2.14,2.02-2.77,4.35-4.45,5.75v2.23c-.64.27-1.17.49-1.41.6-1.54-.17-2.89-.32-4.25-.47-.44.78-.76,1.36-1.09,1.94.72.15.97-.25,1.28-.31.6-.12,1.23-.03,1.85-.03,4.21,0,8.43,0,12.64-.01.54,0,1.07-.14,2.21-.31-1.19-1.23-1.98-2.04-2.73-2.82-.74.41-1.24.68-1.93,1.06-.62-.75-1.24-1.49-2.12-2.54v-5.08Zm-158.65-24.7h-10.12c-.98.76-2.01,1.56-3.04,2.37.65,1.51-2.83.92-1.19,3.14,1.38-1.89,3.64-.57,5.5-1.69,1.73-1.04,3.86-1.42,6.39-2.29,1.48.15,3.44-.11,4.93-2.24-1.27-1.28-.81-3.68-2.99-4.54-1.54.59-3.09,1.18-4.65,1.78l.05.46h5.11v3.01Zm108.19,20.83c-.89-.82-1.6-1.47-2.27-2.09h-3.12c-1.36,2.07-2.42,4.25-2.41,6.84,0,1.19.16,2.35-.67,3.48-.36.49.04,1.54.15,3.17,3.01-4.12,5.53-7.58,8.32-11.4Zm200.78,10.76c1.42-1.86,1.41-3.91,1.79-5.83-1.74-1.55-.38-3.15.1-4.59.5-1.51.43-3.39,2.07-4.19v-4.99c-.66,1.1-.95,1.58-1.4,2.34v2.11c-1.28,2.26-2.23,4.27-3.48,6.08-1.37,1.98-3.03,3.77-4.74,5.87.05.3.17.95.34,1.95,1.17-.86,2-1.47,2.73-2.01.92,1.16,1.71,2.15,2.6,3.27Zm-225.31-54.02h5.19c.81-1.13,2.28-1.79,2.73-3.61-2.16-.1-4.17-.19-6-.27v-2.31h7.07c-.71-.97-1.13-1.53-1.61-2.17h-3.87c-.39-.39-.66-.65-.93-.93.46-.56.92-1.12,1.38-1.68-.12-.16-.25-.33-.37-.49-.9.39-1.81.78-2.57,1.11,0,1.99.12,3.62-.03,5.22-.16,1.61-.6,3.2-.98,5.12Zm140.54-54.51c-.8,3.15-1.59,6.27-2.42,9.52h2.14c.25-.32.71-.9,1.06-1.35,2.17-.08,4.27.41,6.03-1.68-1.19-.95-2.43-1.66-3.28-2.69-.86-1.04-1.34-2.39-2.08-3.8h-1.45Zm-199.38,50.79c-1.17,1.08-2.23,2.07-3.15,2.92-.73-.28-1.25-.5-1.78-.69-1.53-.54-2.71.9-4.16.74-2.2-.25-4.3.26-6.4.77-.78.19-1.52.59-2.31.72-1.88.31-3.78.46-5.65.81-.49.09-.88.69-1.32,1.06.44.44.78.79,1.05,1.06.45-.23.87-.65,1.27-.64,4.11.16,7.86-2.45,12.07-1.55.17.04.38-.27.59-.33,1.33-.39,2.66-1,4.01-1.07,1.24-.06,2.52.46,3.9.76.92-1.34,1.84-2.68,2.83-4.11-.51-.24-.81-.38-.94-.44Zm44.28,34.92c-.16,2.68.17,4.92-.53,6.79-.84,2.25-.65,4.92-2.57,6.79-.25.24.08,1.07.18,1.92,3.67-1.95,4.07-5.64,5.67-8.3v-7.87c-1.02.25-1.87.46-2.75.68Zm53.22-23.74c-1.13,1.78-2.15,3.39-3.37,5.32,1.73.27,3.14.77,4.48.61,1.4-.17,2.5,1.91,3.85.49-.29-1.33-.56-2.57-.76-3.51,1.09-1.6,2.7-2.3,3.23-4-.42-.18-.73-.31-1.24-.53-.41.59-.83,1.2-1.13,1.62h-5.04Zm-166.65,13.49c-1.93-1.4-3.43-1.54-5.03-1.52-4.24.06-8.48.02-12.73.02h-8.88c.15.23.29.46.44.7-.47.11-.94.21-1.41.32.66.42,1.02.46,1.37.48,4.01.28,8.09-.64,12.05.71.78.27,1.99.39,2.56-.03,1.61-1.16,3.32-.57,4.98-.66,1.97-.11,3.95-.03,6.65-.03Zm70.61-25.18c2.6-5.08,5.02-9.78,7.25-14.14-.26-1.67-.48-3.06-.77-4.94-.2-.15-.8-.58-1.27-.91.14-1.86-.18-3.35-1.43-4.46-.34-.3-.94-.3-2.15-.64,1.58,2.43,2.5,4.34,2.07,6.44,1.7,1.88,1.69,4,1.43,6.17-.44.44-1.32.98-1.24,1.3.43,1.93-2.29,2.65-1.64,4.57-1.78.8-1.16,3.06-2.59,4.17-.78.61-.75,1.64.36,2.43Zm41.72,59.37c.08-.44.21-1.12.41-2.16,1.01-1.01,2.24-2.23,3.35-3.34v-4.87c-3.34,4.73-6.97,8.08-11.8,11.42,3.19-.25,5.59.47,8.04-1.05Zm-47.99-86.88c-2.75-.91-5.24.42-7.32-1.23-.39.28-.76.77-1.15.79-2.04.11-4.12-.19-6.05.78-5.42-.54-10.75.88-16.16.75-.85-.02-1.7,0-2.55,0,.08.14.16.28.24.41-.43.21-.85.41-1.28.62,1.4.46,2.8.85,3.8.38,2.39-1.13,4.81-.55,7.21-.64,2.98-.11,5.98-.03,8.57-.03,1.28-.61,2.2-1.36,3.17-1.43,2.09-.16,4.54-.63,6.22.23,2.16,1.11,3.21-.25,5.3-.64Zm-51.3,43.94c.78-.73,1.3-1.23,1.81-1.7,2.31-.06,4.71.39,6.8-.79,1.38-.78,2.77-.74,4.2-.69,1.74.05,3.37-.1,4.76-1.6,3.94.74,7.6-1.11,11.68-1.68-.66-.55-1.17-.98-1.51-1.27-1.47.31-2.61.73-3.76.76-1.63.04-3.1.28-4.12,1.41-1.96.14-3.89-.04-5.6.47-2.26.67-4.65.76-6.83,1.56-2.4.88-4.81,1.31-7.43,1.04v2.51Zm20.79,31.44c.42-3.83-.61-7.59.76-11.18-.41-.38-.75-.7-1.06-.99-.94.61-1.81,1.18-2.74,1.78.59,2.93-.72,5.92.84,8.61-.31.89-.61,1.75-.88,2.5.54.54.89.89,1.31,1.3.56-.64,1.12-1.27,1.77-2.02Zm30.52-54.72c1.4-1.78,2.78-3.53,4.25-5.41-2.29-2.05-1.64-4.69-1.73-6.57-.66-1.47-1.3-2.37-1.46-3.36-.2-1.3-.68-1.97-2.46-2,.88,4.23,1.79,8.24,3.12,12.05-1.01,1.4-1.99,2.75-2.94,4.06l1.22,1.22Zm-37.4,61.05c.01-1.76,1.14-2.51,1.03-4.01-.13-1.87-.49-3.84.64-5.65.27-.44.28-1.43-.03-1.78-1.43-1.6-.38-3.23-.18-5.16-.79.5-1.37.87-2.01,1.28v6.15c-.55.55-.99.99-1.38,1.38v6.24c.52.42.97.78,1.93,1.56Zm36.74-59.2c-2.59.36-4.95.84-7.32.98-2.27.13-4.27,1.46-6.45,1.46-2.44,0-4.68.72-7.05,1.13.06.39.11.72.18,1.2,1.16,0,2.32.22,3.35-.04,3.21-.83,6.43-1.35,9.73-1.74,2.4-.29,4.74-1.38,7.28-1.23.14,0,.3-.32.45-.49-.03-.23-.06-.47-.17-1.26Zm59.96-25.22c-1.22.38-2.21.69-3.11.97-.49-.5-.84-.85-1.44-1.46v-5.61l-1.43,1.42v5.3c-1.37.6-2.19-.04-3.03-1.18v-4.19c-.93.61-1.57,1.03-2.13,1.4.06.43.04.7.14.9.11.21.34.36.34.36-.2,1.23-.38,2.32-.54,3.33,1,.44,1.73.77,2.45,1.09,1.63-.74,3.2-1.24,4.08-.57,1.97,1.49,3.27-.03,4.81-.57-.04-.33-.06-.57-.13-1.18Zm11.34,40.9c1.43.36,2.77.7,4.14,1.04.33-.33.67-.68,1.07-1.1.38-2.71-1.24-5.32-.74-8.12.11-.63-.09-1.31-.18-2.34-2.49,2.87-2.06,6.59-4.25,9.11-.24.28-.03.94-.03,1.39Zm-11.87,2.34c-2.18,1.78-4.59.77-6.85.92-2.45.17-4.92.04-7.46.04.76.9,1.35,1.62,1.99,2.38,3.22-.49,6.38-.98,9.71-1.49.18.13.55.42.8.61.96-.29,1.72-.68,2.5-.72,1.99-.1,3.98-.02,5.98-.04.21,0,.42-.17.69-.29-.02-.32-.04-.65-.08-1.29-1.08.37-2.21-.46-3.09.68-1.08-1.1-2.04-.02-3.03.22-.31-.28-.58-.52-1.14-1.02Zm33.7-17.31v15.96h1.12c.34-3,.93-5.95.94-8.91.01-2.95-.55-5.91-.93-9.53-.4.89-.6,1.32-1.12,2.48ZM24.97,174.49c-3.18-.73-5.85.49-8.61.96-3.49.59-6.81,2.22-10.48,1.79-.19-.02-.4.21-.52.28.31.62.61,1.23.98,1.99,1.01-.06,2.4.27,3.12-.27,1.81-1.37,4.1-.97,5.91-2.02,1.44-.84,2.99-.72,4.43-1.11,1.63-.51,3.26-1.02,5.17-1.61Zm81.04-23.14c-3.71-1.02-6.7.89-9.83.49-1.3,1.46-3.27,0-4.48.86-1.53,1.09-3.13.14-4.61.73-.3.32-.63.66-.94,1,.39.39.75.75,1.16,1.16,3.22-.55,6.32-2.12,9.64-1.53,2.3-2.27,5.15-1.24,7.45-1.94.43-.21.85-.41,1.62-.79Zm-42.99-16.15c2.57-1.88,3.67-4.56,5.06-7.17-1.67-.65-3.23-1.27-5.06-1.99v9.15Zm106.07-15.86c1.63,2.77,3.03,5.17,4.76,8.11v2.58h2.47c1.52-2.05-1.05-2.63-1.31-4.13-.27-1.52-1.01-3.18-2.07-4.26-1.05-1.07-.03-3.52-2.7-3.49-.29.3-.7.73-1.15,1.19Zm37.09,83.41c-.95-.15-1.97-.3-2.98-.46-.07.66-2.51-.14-1.61,1.7,3.73.7,7.59-.73,11.23.89,1.06-.98,2.2-.95,2.83-.53.64-.19,1.12-.33,1.36-.41-.68-.82-1.22-1.48-1.84-2.22-2.68,1.68-5.16,1.09-7.5-.49-.53.54-.97.99-1.5,1.52Zm47.2-34.37h-3.06c-1.24,1.01-2.69,2.07-4,3.29-.91.85-1.69,1.89-1.29,3.37q5.15-1.86,8.35-6.66Zm-163.59-34.1c-2.1-2.7-1.21-6.85-4.63-8.87-.57.63-1.03,1.14-1.49,1.65,2.07,2.85,2.25,6.37,4.28,9.06.68-.68,1.2-1.2,1.84-1.84Zm238.88,65.45c.39,1.61.71,2.95,1.04,4.34h.96c.29-.83.37-1.77.87-2.29.47-.48,1.39-.52,2.48-.86v4c1.75,0,2.12-1.35,3.13-2.11-.3-1.11-.57-2.1-.83-3.08h-7.65ZM61.04,122.64c-1.26,0-2.2-.26-2.9.05-2.2.95-4.44,1.38-6.82,1.5-1.25.07-2.4.85-3.78.8-.39-.01-1.61.82-.78,2.2,4.07-1.8,8.62-1.35,13.08-2.52.26-.45.61-1.02,1.21-2.03Zm107.38,51.66c-2.54,1.53-5.48,1.36-7.5,3.7,2.46-.05,4.48-.98,6.61-1.42,2.22-.46,4.61-.1,6.82-.1v-2.18h-5.92Zm-14.18-2.02c0,.97-.01,1.84,0,2.71.03,1.38.03,1.38,2.34,1.34-.29-1.75-.25-3.61-.93-5.14-1.03-2.32-2.56-4.41-3.94-6.7-.67.07-1.33.14-2.12.22,1.66,2.71,3.17,5.18,4.64,7.58Zm-107.78,30.64c.03.11.05.23.08.34h7.3v-1.4h-2.4c-1.27-2.41-1.65-4.76-3.59-6.51v7.08c-.65.23-1.02.36-1.38.49Zm133.98-93.82c-.29,1.78.51,3.98-.68,6.09-.54.97.61,2.21,1.77,2.21.33-.31.68-.65,1.16-1.1,0-2.86,0-5.83-.02-8.8,0-.19-.25-.37-.38-.55h-.74c-.32.63-.64,1.25-1.11,2.16Zm22.55.2c-.29,3.15.46,5.95-.89,8.51.82.39,1.43.68,1.98.94.36-.32.73-.65.92-.82v-9.78c-.85.48-1.43.81-2.02,1.15Zm-52.74,87.59c-.96-.13-1.3-.23-1.64-.21-.34.02-.78.06-.99.27-2.21,2.21-4.85,3.55-7.89,4.27-.56.13-.92,1.12-1.91,2.4,2.2-.46,3.9-.31,4.77-1.09,2.23-2.01,5.51-2.57,7.66-5.65Zm48.09-78.16c.25.12.51.24.76.36.54-.44,1.07-.87,1.55-1.26v-9.04c-.36-.36-.72-.72-1.13-1.13-.44.54-.86,1.06-1.25,1.53.41.59.68.97.93,1.32-1.53,2.7-.43,5.51-.86,8.22Zm9.85-8.53c-.26,2.45.42,4.84-.72,7.45,1,.21,1.86.39,2.78.59.36-2.29-.2-4.36.82-6.31.43-.81.15-1.96-.88-2.56-.19-.11-.44-.13-.8-.23-.3.26-.66.57-1.21,1.06Zm20.24,2.85h-4.29c-.38,1.16-.7,2.14-1.04,3.18.37.43.77.87.98,1.12h2.8c.97-.76,1.66-1.29,2.46-1.91-.32-.84-.61-1.59-.91-2.39Zm-58.85,48.47c-2.7,0-5.44-.13-8.17.04-2.62.16-5.21.64-8.21,1.02.63.51,1.07.86,1.28,1.03,1.38-.22,2.53-.55,3.69-.57,3.99-.07,7.98-.02,11.98-.04.18,0,.36-.25.54-.38l-1.1-1.1Zm1.13-52.79c-.08,1.74.19,3.39-.69,5.02-.39.73-.33,1.97.75,2.59.3.17.63.27,1.01.43.35-.43.66-.81,1.1-1.34.49-2.09-.62-4.56.67-6.81-.44-.37-.88-.75-1.38-1.17-.53.46-.88.78-1.47,1.29Zm-74.39,13.89c-.43,1.2-.72,2.21.15,3.38.74.99,1.16,2.33.85,3.7,1.35.79.34,2.29,1.03,3.42.9-.05,1.8-.1,2.7-.15-1.87-3.46-2.11-7.39-4.73-10.35Zm72.07,42.92c-2.12-1.13-3.93.62-5.94.5-2.19-.14-4.39-.03-6.46-.03.39.48.73.92,1.1,1.38h11.3v-1.84Zm-66.65-38.87c.12,3.81.21,3.98,2.84,6.19,1.1-1.66-.78-2.24-1.34-3.4v-3.54l-1.53-1.53v-3.21c-.65-.31-1.23-.6-2.3-1.11.43,2.11.76,3.68,1.11,5.38l1.22,1.22Zm67.68,5.63c.74,1.13,1.12,1.71,1.56,2.37,2.04-.42,4.19.62,6.12-.72.9,1.15,2.11.5,3.33.67-.05-.64-.07-.98-.08-1.17-3.33-1.62-6.76-.94-10.92-1.14Zm5.88-15.15c.9-.65,1.56-.88,1.8-1.33,1.39-2.54,1.09-5.29,1.05-7.99-.32.22-.65.45-.97.67,0-.57,0-1.13,0-1.61-2.47,1.83-.33,4.46-1.81,6.36-.53.67-.08,2.1-.08,3.9Zm-61.05-16.3c-1.32,1.45.45,2.33.29,3.47,1.54.68.03,2.62,1.23,3.45,1.25-1.39,2.38-2.66,3.51-3.92-1.3-.78-3.18-1.9-5.02-2.99Zm72.19,5.91c-.26.11-.52.22-.77.32,0,1.82.1,3.65-.03,5.46-.13,1.83-.5,3.63-.79,5.54h2.11c.78-2.95-.69-6.1,1.03-9.04-.49-.73-1.02-1.51-1.55-2.29Zm-32.43,22.7c.3-1.51.27-2.55-.71-3.82-.85-1.1-1.56-2.54-2.03-3.94-.56-1.69-1.68-2.91-2.63-4.33-.23.23-.36.3-.39.4-.5,1.74,1.2,2.81,1.37,4.21.16,1.32,1.58,1.76,1.53,2.7-.07,1.54,1.02,2.1,1.76,3.02.39.49.67,1.06,1.11,1.77Zm-54.32,8.14c-.15-.73-.21-1.07-.33-1.66-2.44.31-4.78.72-7.14.86-1.6.1-3.09.24-4.18,1.45-1.17.08-2.28.16-3.9.28,1.17.58,1.78.88,2.41,1.19,1.24-1.4,2.99-.21,4.51-.75.38-.38.82-.82,1.38-1.38h7.25Zm-17.79-1.62h2.5c-.85-2.43-1.66-4.77-2.61-7.51-.08-.06-.53-.42-1.18-.93-.47.63-.82,1.09-.94,1.25.76,2.44,1.46,4.72,2.23,7.19Zm139.57-14.73c.37.9.77,1.87.97,2.35,1.38.26,2.28.43,2.9.55.68-.47,1.17-.81,1.73-1.2-.67-1.18-1.24-2.18-1.89-3.32-1.3.11-2.7-.42-3.71,1.62Zm102.85,81.64c-.25-.44-.53-.93-.7-1.23.2-.69.37-1.28.55-1.9h-5.06v3.86c.95-.44,1.67-.77,2.57-1.19.47.62.89,1.19,1.32,1.77.48-.48.83-.83,1.31-1.31Zm-156.75-30.96v-2.05c-3.14-.55-6,.24-8.93.94.1.43.18.76.26,1.11h8.67Zm27.1-63.14c-.11,3.03.41,6.07-.97,9.06.77.43,1.43.79,2.45,1.35,0-3.99,0-7.53-.02-11.07,0-.12-.29-.24-.44-.36-.27.27-.54.54-1.02,1.02Zm73.36,63.13v-4.8c-.9-.62-1.35-2.02-3.66-1.74,2.68,2.44.96,4.41-.04,6.54h3.7Zm-172.34-38.89v-2.82c-.33-.27-.9-.74-1.38-1.14v-3.08q-1.12-1.79-2.81-2.74c-.07.77-.13,1.44-.22,2.45.54.32,1.18.69,1.64.96v2.98c.41.2,1.08.52,1.53.73v2.65h1.25Zm119.87-22.81c-1,.65-1.58,1.02-2,1.3v6.99c.87-.56,1.45-.94,2-1.3v-6.99Zm-71.69.64v4.18c.57.39,1.05.71,1.52,1.03.5-.48.86-.82,1.27-1.21v-3.92c-.49-.43-.92-.82-1.43-1.27-.54.47-.9.78-1.37,1.19Zm96.5,84.41c.43-.32.62-.52.86-.62.41-.19.85-.31,1.1-.4.93-1.9,1.78-3.64,2.77-5.67-.95-.07-1.62-.12-1.61-.12-1.17.84-1.87,1.35-2.13,1.53-.38,1.98-.66,3.45-1,5.28Zm16.23-23.42h3.76c.86-.88,1.9-1.93,2.92-3,.08-.09,0-.34-.02-.64-.92.07-1.83.13-2.86.2v2.54c-.98-.94-1.6-1.54-2.39-2.29-.52,1.17-.92,2.07-1.41,3.19Zm-145.68,11.84c.23.23.58.59.94.93.02.02.17-.08.45-.23-.28-4.05.73-7.92,2.72-11.54-.28-.28-.54-.54-.85-.85-.57,1.11-1.14,2.21-1.59,3.09-.58,2.98-1.12,5.74-1.68,8.61Zm29.9-68.65c-.22-1.65.21-3.09-.38-4.44-1.28.43-2.35.78-3.43,1.14v1.48q1.69,1.71,3.81,1.82Zm25.95,1.05c1.67-2.92.76-5.68.74-8.6-.67.23-.99.34-1.18.41-.51,2.42.5,4.84-.69,7.07l1.12,1.12Zm-38.62-33.07v1.97c1.01.3,1.85.55,2.69.8.27-.26.53-.53.94-.94-.05-1.03-.1-2.2-.17-3.69-1.35.72-2.37,1.27-3.46,1.85Zm110,40.98h2.87v-3.32c-.72-.33-1.37-.62-1.96-.89-.36.36-.62.62-.9.9v3.31Zm-17.35-11.33c-.44-.54-.74-.91-1.04-1.28-.4.4-.75.75-1.17,1.17.13,1.57-.19,3.24.28,5.17.81-.53,1.38-.91,1.93-1.27v-3.79Zm-38.81,86.97c-.93,1.6-1.85,2.42-3.1,3.04-.36.18-.53.73-.97,1.37h3.73c.33-.32.68-.68,1.22-1.21-.27-.98-.57-2.09-.87-3.2Zm-38.46-121.2c-2.08.47-2.84,2.39-4.4,3.48.96.77,1.76,1.42,2.59,2.08.65-1.99,1.2-3.66,1.82-5.56Zm49.82,122.08c2.46-1.52,2.59-2.58.9-6.08-.35.34-.69.69-.9.9v5.18Zm84.64-6.56c-.69,1.79-1.25,3.23-1.8,4.66,2.13.91,2.78-.7,3.77-1.58-.58-.91-1.15-1.8-1.96-3.08Zm-86.5,9.18c-.55-.8-1.17-1.71-1.81-2.64-.92,1.1-1.79,2.14-3.19,3.82,2.12-.46,3.59.5,5.01-1.18Zm-31.29.26c.06-1.79-1.26-2.08-1.86-3.01q-2.11,2.1-2.55,3.94c.79-.38,1.33-.8,1.93-.9.79-.14,1.63-.03,2.48-.03Zm82.32-80.66c.68,1.29,1.58,1.81,2.97,1.15v-2.55c-.54-.36-1.11-.73-1.72-1.13-.49.99-.88,1.79-1.25,2.54Zm6.27-1.55c-.6.72-1.27,1.53-1.74,2.09.9.8,1.57,1.41,2.11,1.89.2-1.06,2.07-2.37-.36-3.98Zm-98.59-12.12c-.12.09-.24.17-.35.26v5.77h1.25v-5.02l-.43.32c-.15-.44-.31-.88-.46-1.33Zm57.94,14.36c1.35-.53,1.77-1.46,1.31-2.91h-2.65c-.42,1.46-.04,2.42,1.34,2.91Zm-162.42.1c2.22-1.69,4.56-.31,6.6-1.14v-1.35c-2.26.37-4.4.73-6.6,1.09v1.4Zm149,80.5h3.24c-.46-1.16-.81-2.06-1.14-2.89-.86.44-1.47.76-2.1,1.08v1.8Zm-31.85.16c.82-1.35,1.6-.6,2.32-.13.37-.39.68-.72.93-1-.63-.67-1.21-1.29-1.64-1.76-.86.5-1.67.94-2.45,1.43-.11.07-.11.32-.16.47.29.29.55.55.99.99Zm90.91-78.38l.8-.35c-.17-1.19.25-2.43-.52-3.93-.79.68-1.36,1.18-2,1.73.68,1,1.21,1.78,1.73,2.55Zm-38.33-3.35c-.89-.98-1.7-1.87-2.69-2.96v3c.5.38.96.72,1.45,1.09.51-.47.87-.79,1.24-1.13Zm172.25,82.38v-2.86h-1.99v2.86h1.99Zm-221.26-51.43c2.15,1.31,3.79,1.78,5.77,1.17-.08-.45-.15-.87-.2-1.17h-5.57Zm-113.33-32.38h5.33c-.12-.57-.2-.98-.3-1.49-.41.38-.67.63-1.07,1-1.26-.67-2.69-1.8-3.96.48Zm299.36,85.72c1.25-.8,2.48.37,3.11-.95.31-.66.05-1.58.05-2.49-.81.46-1.3.73-2.04,1.15-.18.36-.5,1.03-1.12,2.29Zm-116.81-83.46c-.32-1.06-.58-1.91-.85-2.82h-1.26c.15,1.28-.22,2.52.47,4,.67-.48,1.13-.81,1.64-1.18Zm-6.44-2.82v3.6h1.24v-3.6h-1.24Zm28.5,44.94q-1.81-.06-2.76.72c.23.54.47,1.13.95,2.26.88-1.46,1.39-2.3,1.81-2.99Zm111.28,7.89c-.98-1.03-1.56-1.64-2.3-2.42-.63.9-1.06,1.52-1.69,2.42h3.99Zm-167.83-51.52c-2.17-1.25-3.04.1-4.24.44.45.5.77.85,1.22,1.34.91-.54,1.79-1.06,3.03-1.79Zm15.56-.53c.92.84,1.62,1.46,2.74,2.48-.33-1.55.43-2.78-.89-3.71-.15-.1-.34-.14-.51-.22-.35.38-.68.74-1.34,1.45Zm56.02,4.53c-.59-.61-1.18-1.23-1.76-1.84-.68.54-1.12.89-1.27,1.01.63.88,1.12,1.57,1.61,2.25.49-.49.84-.83,1.42-1.42Zm-105.69,24.66c2.17.49,4.35.89,6.48,0h-6.48Zm31.24,41.16c-.54-.35-1.11-.71-1.67-1.07-1.13,1.46-.31,2.32.64,3.15.3-.6.59-1.19,1.03-2.08Zm104.09-59.1h-2.86v1.24h2.86v-1.24Zm-38.92-3.65c1.06,1.59,2.38,1.43,3.86,1.05-1.06-1.59-2.38-1.43-3.86-1.05Zm-6.39-3c1.18-.23,1.52-.29,1.79-.34v-2.83c-.15-.04-.3-.08-.46-.11-.36.9-.72,1.79-1.33,3.29Zm-78.16,11.57v-.37h-5.24v.37h5.24Zm70.29,24.65c-1.53.49-2.47.94-1.88,2.61,1.23-.37,2.12-.76,1.88-2.61Zm112.14,11.31c-.44.46-.83.87-1.37,1.44h4.3c-1.21-.6-2.01-.99-2.92-1.44Zm-166.52-48.23v2.99c.64-.75,1.07-1.25,1.7-2-.71-.41-1.23-.72-1.7-.99Zm221.85,23.02c.3-.03.6-.07.89-.1v-2.33c-.54.11-.87.18-1.41.28.19.79.35,1.47.51,2.15Zm-154.09,42.52h-.37v4.49h.37v-4.49Zm128.47,12.03q-.16,1.84,1.12,2.06v-2.06h-1.12Zm-43.11,1.61c-1.41-.08-2.02.56-2.07,1.9,2.2.58,1.15-1.55,2.07-1.9Zm-79.86-79.33c-.75-.34-1.39-.64-2.85-1.31.77,1.44,1.12,2.09,1.54,2.88.44-.52.73-.88,1.31-1.56Zm-4.69.56v-2.12h-1.25v2.12h1.25Zm24.7,2.93c0-.21.01-.42.02-.63-.58,0-1.41.24-1.68-.04-1.14-1.2-1.32.04-2.52.67h4.19Zm84.61,76.33c-.06-.92.86-2.23-1.24-2.16v2.16h1.24Zm-91-78.26h-2.76c.8.64,1.32,1.07,2.07,1.67.27-.67.43-1.05.69-1.67Zm93.7,83.63c.93.76,1.45,1.19,2.28,1.88.21-.83.32-1.29.46-1.88h-2.75Zm-99.53-82.32c.35-.35.7-.7,1.05-1.05-.31-.43-.63-.87-.96-1.32-.55.59-.87.93-1.19,1.27.4.39.75.75,1.1,1.1Zm-73.81-5.16c.9-.13,1.56-.22,2.7-.39-1.05-.64-1.62-.99-2.42-1.48-.11.71-.17,1.13-.28,1.87Zm-137.07,58.12c-.02-.21-.04-.43-.05-.64l-2.71.18c0,.15.02.31.03.46h2.74Zm261.98,26.23v-2.27c-.54.11-.87.18-1.59.32.51.63.85,1.04,1.59,1.94Zm-102.38-3.47h-1.59c.11.54.18.87.28,1.36.52-.11.94-.19,1.31-.27v-1.08Zm-151.86-36.71c0,.22.01.43.02.65.92-.06,1.83-.12,2.75-.19,0-.15-.02-.31-.03-.46h-2.74Zm222.13-11.74c.98-.27,2.26-.66,1.15-2-.41.72-.78,1.36-1.15,2Zm3.18-5.02c.57-.31,1.06-.57,2.21-1.19h-2.21v1.19Zm-228.97,29.04q1.13.24.99-1.58c-.47.75-.76,1.21-.99,1.58Zm176.95-17.7c-.25-.53-.48-1.04-.72-1.55-.12.09-.24.18-.36.26v1.29h1.08Zm56.53-17.43c-1.39-.46-1.88-.17-1.56.56.46-.17,1.01-.36,1.56-.56Zm-167.17,59.24c-.02-.22-.04-.44-.07-.66-.65.09-1.31.19-1.96.28.01.13.03.25.04.38h1.99Zm116.24-38.19c.57-.31,1.06-.57,2.21-1.19h-2.21v1.19Zm-100.28-10.16c.03.22.05.43.08.65.41-.1.81-.19,1.22-.29-.02-.12-.04-.24-.06-.36h-1.24Zm121.3-25.42c.03.22.05.43.08.65.41-.1.82-.19,1.22-.29-.02-.12-.04-.24-.06-.36h-1.24Zm-180.44,4.99c.22-.03.43-.05.65-.08-.1-.41-.19-.81-.29-1.22-.12.02-.24.04-.36.06v1.24Zm267.3,70.54c.03.22.05.43.08.65.41-.1.81-.19,1.22-.29-.02-.12-.04-.24-.06-.36h-1.24Zm7.25,4.23c-.03-.22-.05-.43-.08-.65-.41.1-.81.19-1.22.29.02.12.04.24.06.36h1.24Zm-97.08-79.76c.01.21.03.43.04.64.42-.09.83-.18,1.25-.27-.02-.12-.03-.25-.05-.37h-1.24Zm-147.89,32.77h-.25v.75h.25v-.75Zm-95.09,10.47h-.25v.75h.25v-.75Zm311.23,33.65h.25v-.75h-.25v.75Zm-43.93-50.1h-.25v.75h.25v-.75Zm4.74-12.46v.25h.75v-.25h-.75Zm-1.75,7.98h-.25v.75h.25v-.75Zm-6.24,9.72h.25v-.75h-.25v.75Z"/>
      <path d="m29.99,222.84h3.74c1.65,1.25,3.24,2.19,4.49,3.47,2.31,2.36,5.14,1.7,7.88,1.71,1.05-1.3,2.56-.37,3.73-.94,2.02-.85,4.04-1.7,6.53-2.74h4.32c2.81,1.86,5.31,3.65,7.96,5.18,1.17.67,2.72.66,3.98,1.21,1.38.6,2.48-.18,3.68-.27,1.84-.13,3.52-.64,5.17-1.19,1.63-.55,3.57-.33,4.87-1.79,2.76.14,4.74-1.82,7.14-2.64.55-.19,1.1-.45,1.67-.48,1.36-.07,2.74-.02,3.67-.02,3.88,2.2,6.78,5.16,10.98,6.23,2.1.54,4.06.55,6.06.28,1.47-.2,2.97-.66,4.3-1.32,1.73-.85,3.52-.64,4.98-.7,3.05-1.64,5.99-2.45,9.14-2.21.88.07,1.75.57,2.59.94,2.64,1.17,5.08,2.66,7.86,3.64,2.86,1.02,5.6.18,8.35.61,2.9-1.54,6.38-1.3,9.26-2.96.78-.45,1.86-.37,2.65-.81,3.47-1.89,7.06-2.07,10.67-.68,1.39.54,2.77,1.4,3.83,2.44,1.94,1.9,4.52,2.38,6.83,3.45.72.33,1.98.4,2.54-.02,1.14-.84,2.38-.37,3.47-.74,1.15-.39,2.21-.76,3.46-.73.64.01,1.27-.53,1.94-.69,1.61-.38,3.23-.69,5.1-1.08,3.01-1.75,6.7-2.39,10.82-3.31.12.05.78.64,1.37.58,1.97-.22,3.39,1.02,4.89,1.8,2.27,1.18,4.31,2.82,6.23,4.13.52.06.76.11,1,.11,2.66-.02,5.3.12,7.94-.7,2.89-.89,5.94-1.22,8.79-2.29,1.29-.49,2.64-.89,3.86-1.52,2.78-1.43,5.71-1.67,8.65-1.43,1.78,1,3.49,1.99,5.22,2.94,3.17,1.74,5.35,1.99,8.88.94,1.47-.44,2.99-.33,4.52-.78,2.56-.75,5.01-1.84,7.61-2.5.74-.19,1.47-.66,2.34-.65,1.74.02,3.49,0,5.36,0,1.04.86,2.23,1.69,3.25,2.69,2.24,2.19,4.73,3.41,8,3.34,6.02-.13,11.61-1.55,16.94-4.34,1.39-.72,2.82-1.48,4.51-1.8,2.87-.54,4.73-.45,6.69,1.48,1.63,1.61,3.5,2.74,5.69,3.46,1.8.59,3.53.56,5.29.03.22-.06.41-.37.59-.36,2.82.29,5.36-.87,8.02-1.37,1.7-.32,2.96-1.35,4.58-1.69,3.2-.68,6.34-1.25,9.84-.29.7.86,1.23,2.06,2.14,2.51,1.76.88,3.54,1.64,5.71,1.66,3.2.03,6.31-.41,9.41-.9,1.32-.21,2.6-.98,3.76-1.71,2.41-1.52,4.91-2.46,8.38-1.76,1.13.9,2.71,2.17,4.16,3.33,2.76,1.26,5.63,1.23,8.36.86,3.36-.45,6.79-.57,10.08-1.81,2.41-.91,5.05-1.62,7.99-.93,1.37.85,2.99,1.78,4.54,2.83,3.19,2.17,6.76,1.38,10.22,1.44,1.03-1.38,2.57-.3,3.73-.94,2.23-.94,4.46-1.87,6.94-2.92.07.73.12,1.31.19,2.02-.68.61-1.3,1.55-2.14,1.84-5.52,1.88-11.02,4.05-17.5,2.74-1.77-1.1-3.96-2.46-6.59-4.09h-6.49c-.41.41-.85.85-1.03,1.03-1.8.42-3.33.63-4.76,1.14-3.84,1.38-7.79.45-11.68.7-.29.02-.61-.31-.91-.49-2.13-1.23-4.25-2.47-6.84-3.97h-2.76c-2.78,1.07-4.77,3.09-7.72,3.06-.8,0-1.61.87-2.56,1.42h-10.3c-2.29-1.42-4.58-2.85-7.22-4.48-1.77,0-4.01,0-6.26,0-.44.44-.88.88-1.46,1.45h-3c-.57.57-1.01,1.01-1.49,1.49-.33.01-.69.07-1.05.04-2.44-.22-4.66.72-6.99,1.19-2.02.41-4.15.3-6.32.43-.63-2.06-2.99-1.24-4.13-2.72-1-1.29-2.55-2.16-3.8-3.17-2.76-1.07-4.71,1.32-7.16,1.48-.09.34-.17.67-.3,1.16h-2.39c-.53.57-.95,1.02-1.46,1.57h-3.07l-1.42,1.41c-3.05.3-6.04.61-9.05.89-3.61.33-6.5-1.22-8.95-3.66-1.05-1.04-2.2-1.83-3.55-2.3-2.52-.88-2.95-.82-5.69.11-.88.3-1.78.56-3.25,1.03-.05.07-.51.65-.89,1.14-1.92-.16-3.58-.08-5.02,1.01-.19.14-.37.41-.57.42-2.89.27-5.78.62-8.67.71-1.11.03-2.53-.24-3.3-.93-1.71-1.55-3.97-2.03-6-3.49-2.96.08-6.33-.6-8.87,2.24-.75,0-1.5,0-2.24,0,.03.11.07.21.1.32-1.2.39-2.39,1.05-3.61,1.11-1.53.07-2.78.51-3.98,1.5-2.03.41-4.18-.3-6.37.7-1.84.84-5.35-.7-7.73-1.92-2.17-1.11-3.78-3.22-6.4-3.54-.39-.05-.71-.66-1.14-1.09h-4.95c-3.16,1.13-5.89,3.2-9.34,2.94-.65.63-1.27,1.23-1.85,1.8.89.6,1.77,1.19,2.66,1.79,1.37-.87,2.85-1.81,4.39-2.79,1.25,1.67,2.49-.06,3.76-.07,1.5-.01,2.99,0,4.5,0,.44.44.88.88,1.42,1.43.74.04,1.57.08,2.56.13v2.87c-1.44.63-3.12,1.37-5.22,2.29h-7.65c-.43-.32-.81-.6-1.39-1.04-.41.75-.67,1.36-1.05,1.87-.37.49-.87.89-1.29,1.32h-2.58c-.52-.85-1.01-1.65-1.67-2.73v-5.19c-1.73-.67-2.74.61-4.8,1.28-1.64,0-4.13-.12-6.6.03-3.11.19-5.57-.99-7.72-3.08-.77-.75-1.38-1.67-2.78-1.52-.5.05-1.1-.87-1.72-1.41-.15,0-.4,0-.65,0-2.09.08-4.22-.09-6.25.31-1.77.35-3.41,1.36-5.13,2.03-1.29.5-2.61.92-3.91,1.4-.43.16-.84.41-1.48.74-1.85.26-3.97-.13-6.18.63-2.56.88-5.57-.17-9.18-2.03-1.91.56-2.62-2.17-4.6-1.67-.3.08-.85-.82-1.34-1.33h-5.59c-2.62.93-5,1.78-8.13,2.9h-2.84c-2.89,2.52-6.36,1.09-9.78,1.6-2.72-1.77-5.47-3.76-8.42-5.43-1.9-1.07-3.95-2.2-6.34-.95-.7.37-1.64.28-2.28.37-2.42,1.54-4.8,2.72-7.9,3.05-.26.33-.72.91-1.09,1.38-2.03-.08-3.86-.15-5.52.73-2.06,1.1-4.27.66-6.45.74-1.92-1.74-4.51-2.39-6.59-3.99-1.98-1.52-4.47-2.37-6.78-3.54-3.15,2.01-6.99,2.46-10.1,4.54h-7.58c-.6-1.97-3.01-1.1-4.08-2.65-.9-1.3-2.22-2.3-3.39-3.47-1.95.59-3.65,1.44-4.88,2.93-2.66,3.22-6.58,4.75-9.7,7.36-.87.73-2.6,0-2.91,1.71h-4.85c-1.14-.94-2.51-2.06-4.03-3.31v-2.41c.33-.05.67-.14,1.01-.16,1.47-.11,1.69,1.05,2.13,2.18,1.68-.33,3.09,1.65,5.04.47,1.46-.89,3.15-1.41,5.34-2.36,3.02-2.48,6.58-5.39,10.4-8.52Zm175.78,15.01c2.48-.18,4.7.2,7.09-.3-.28-.6-.38-.93-.57-1.2-.21-.29-.51-.53-.77-.79-2.12.07-4.37.89-5.75,2.29Z"/>
      <path d="m285.98,50.18v4.14c-.43.34-1.01.8-1.48,1.17.35,4.84-1.45,8.94-2.96,12.72-1.12.82-1.97,1.44-2.85,2.09-.57,0-1.19,0-1.81,0-.84-.62-1.69-1.23-2.75-2.02v-1.72c-1.04-1.46-2-2.81-3.08-4.31v-2.06c1.49-4.23,5.16-5.42,7.77-7.75,2.51-.1,4.19-2.67,7.15-2.25Zm-5.81,15.86c-1.05-2.38,2.05-4.38.9-7.38-2.19,1.81-4.06,3.36-4.86,6.09.36.78.77,1.69,1.18,2.58.62-.03,1.13.03,1.57-.12.31-.1.53-.49,1.21-1.17Zm3.15-12.2c-.93,0-1.53-.19-1.84.03-2.49,1.78-5.52,2.86-7.45,5.87.05.53.12,1.41.22,2.48,1.55-1.45,2.67-2.88,3.96-4.15,1.5-1.46,4.18-1.3,5.11-4.23Z"/>
      <path d="m251.45,239.01c-.76.77-1.63,1.65-2.49,2.52-.51,0-1.01,0-1.5,0-.44.44-.88.88-1.32,1.31-1.81.68-3.17-.3-4.79-1.24-1.17.87-2.47,1.84-4.02,3-.66-.55-1.47-1.23-1.96-1.64-.35-1.51-.61-2.64-.91-3.95.26-.51.62-1.23,1.03-2.02.31.09.71.1.96.3.74.6,1.25,1.59,2.9,1.11,1.18-1.89,3.58-2.62,5.96-3.43.68.92,1.46.75,2.31-.27,1.21.59,2.44,1.2,3.84,1.89v2.42Zm-4.72-1.23c-1.45.4-2.82.78-4.18,1.16.08.4.12.63.19.99,1.78.23,3.54.37,4.93-1.09-.32-.36-.65-.72-.94-1.05Z"/>
      <path d="m240.97,227.03c-1.1.55-2.53.95-3.52,1.85-1.29,1.18-3.21-.02-4.28,1.44-1.39-.25-2.78-.5-4.32-.78-.54.49-1.16,1.04-1.97,1.77-.75-.68-1.45-1.32-1.79-1.63-.75-2.29-1.37-4.15-2.07-6.27.37-.41.83-.91,1.53-1.67.6.74,1.31,1.27,1.5,1.94.26.89-.21,2,.96,2.63,1.77.45,2.02-1.74,3.63-2.16,1.82-.47,3.56-.58,5.33-.52,1.63.06,3.24.54,4.99.86v2.53Zm-6.04-1.22c-1.54.38-2.87.7-4.25,1.04v1.08c1.77.58,2.96-.88,4.49-.86-.1-.54-.14-.76-.23-1.26Z"/>
      <path d="m278.86,225.26c-1.79,1.61-3.39,3.04-5.06,4.54-1.76-.34-3.38-.66-5.3-1.04-.7.7-1.55,1.54-2.52,2.5-.76-.3-1.51-.6-2.3-.91v-2.85c-.56-.43-1.14-.87-1.9-1.45.54-.68.97-1.22,1.62-2.03,1.23.66,2.43,1.3,3.64,1.95,1.78-1.07,3.46-2.08,5.19-3.12h5.44c.34.68.75,1.49,1.21,2.41Zm-5.91,1.13h1.16c-.09-.52-.15-.85-.17-.99-.34.34-.72.72-.99.99Z"/>
      <path d="m441.76,134.22v-2.99c.75-1.91,1.25-3.19,1.99-5.06,1.22-1.12,2.93-2.7,4.65-4.27.07-.06.24,0,.64,0,.09.87.18,1.77.28,2.72-2.84.63-3.27,3.24-4.56,5.35v3.48c.71.92,1.52,1.59,2.9.95v-3.97c.42-.14.75-.25,1.43-.47.33,2.02.06,3.94.15,5.5-.78.79-1.37,1.4-2.13,2.17-2.37.16-3.74-1.82-5.36-3.38Z"/>
      <path d="m187.19,51.22c.52-.52.78-.78,1.35-1.35.08,1.53.14,2.79.19,3.72-.74,1.79-1.35,3.26-1.96,4.74-.24-.01-.49-.02-.98-.05-.04-.55-.08-1.13-.13-1.88.54-.37,1.15-.79,1.53-1.06v-4.13Z"/>
      <path d="m92.06,170.29c-.19-.33-.48-.82-.93-1.59.72-.42,1.34-.98,2.05-1.17,5.17-1.35,10.43-1.92,14.87-1.5,1.16.57,1.72.85,2.51,1.24-.76.82-1.22,1.32-1.77,1.92-.6-.35-1.09-.64-1.22-.72-5.38.63-10.44,1.23-15.5,1.83Z"/>
      <path d="m89.05,161.09c.32-.76.67-1.58,1.09-2.57,2.76,0,5.66.28,8.25-1.36.45-.28,1.19-.11,1.8-.13,1.91-.05,3.85.25,5.67-.71.47-.25,1.18-.04,1.86-.04v2.7c-.18.09-.38.28-.59.28-1.74.02-3.67-.45-5.16.15-1.41.57-3.17.03-4.28,1.36-2.82-.56-5.45,1.02-8.25.71-.1-.01-.18-.17-.4-.39Z"/>
      <path d="m133.19,153.29c-.73,0-1.45.21-1.67-.04-.76-.86-1.41-1.83-1.97-2.84-.75-1.35-.69-1.38-.57-3.68.22-.06.45-.16.67-.17.36-.02.72.02,1.15.04.82,1.88,1.65,3.77,2.46,5.66.08.19-.03.47-.08,1.01Z"/>
    </g>
  </g>
</svg>
