<?xml version="1.0" encoding="UTF-8"?>
<svg id="Layer_2" data-name="Layer 2" xmlns="http://www.w3.org/2000/svg" viewBox="0 0 439.68 273.82">
  <g id="Layer_1-2" data-name="Layer 1">
    <style>
      path{
      fill:#5A82C5
      }
    </style>
    <style>
      @import url(../css/art.css)
    </style>
    <g>
      <path d="m283.31,238.6c-.37,0-.75,0-1.12,0-1.45,2.65.97,4.68,1.31,7.3-.73.09-1.3.16-1.83.22-1.69-1.35-1.29-3.24-1.36-4.95-.89-.42-1.73-.82-2.84-1.35-.08.83-.13,1.41-.22,2.36-1.02.73-2.25,1.62-3.67,2.64-.75-.66-1.45-1.27-2.4-2.11-1.04,1.78-2.49,2.88-4.13,4.08h-2.03c-.58-.51-1.21-1.06-1.9-1.66-1.61,1.66-2.95,3.52-5.83,3.14-.51-.65-1.2-1.52-1.88-2.38-.92.92-1.62,1.62-2.38,2.38h-2.79c-.9-1.07-1.78-2.12-2.51-2.98-.54.05-.75.04-.77.08-.17.56-.3,1.13-.52,1.98-1.15.7-1.67,2.84-4.07,2.43-.72-1.42-1.5-2.94-2.38-4.68-.96,1.03-1.87,2.02-2.94,3.17h-1.96c-.93-1.41-1.89-2.86-2.97-4.49-.75.14-1.52.29-2.62.5-.52-.3-1.4-.81-2.18-1.26-.48-1.24.38-2.72-1.45-3.6h-2.72c-.59-.86-1.13-1.49-1.5-2.21-.36-.71-.55-1.52-.92-2.59-.51.5-.91.89-1.62,1.59h-6.36c.23-.57.28-1.16.57-1.32,2.3-1.22,4.59-1.53,6.25-.87.19-4.26.32-8.43-1.52-12.27-.49.65-1.03,1.38-1.57,2.1-1.3,2.36-3.29,4.81-3.77,7.87-.33.07-.67.15-1.01.22q-.66,2.69-3.25,2.75c-.4-2.4,1.94-3.6,2.48-5.62.55-2.08,1.68-4.05,2.75-5.95,1.04-1.85,2.34-3.56,3.73-5.63-.24-1.46-2.21-1.59-3.29-2.58-.93-.84-2.44-1.55-3.97-.86-.85,5.05-3.77,9.17-6.22,14.45,0-.05,0,.79,0,1.74h-2.13c-.76-2.69,2.21-4.46,2.18-7.21-2.2.21-4.5,1.03-6.33.43-1.89-.62-4.42-.28-5.64-2.5.21-.21.48-.48.86-.86,1.93.99,4.08.45,6.18.53,2.09.08,4.18.02,6.23.02.47-1.72-1.11-1.95-1.67-3.08-4.69.88-9.08-1.4-13.81-1.5-.02-.45-.04-.79-.06-1.27h10.21c1.51,2.13,4.47.64,6.24,2.14.76-.38,1.38-.69,2.09-1.05.39-.57.12-1.84-.98-4.22-.37,0-.75,0-1.12,0-.33-.49-.66-.98-.99-1.46h-3.92c-.35-.43-.74-.91-1.24-1.53-1.19,0-2.41-.03-3.62,0-1.34.05-2.57-.14-3.82-.73-2.39-1.13-5-.7-7.54-.79-1.16-.04-2.31-.28-3.73-.46-3.52,1.13-7.49.11-11.55.56-2.53,2.66-5.43,5.18-7.35,8.7-1,1.84-3,3.14-5.12,5.26.77-3.34,1.99-5.38,3.89-7.29,1.81-1.82,3.1-4.15,4.85-6.57-1.44-.09-2.59-.16-3.8-.23-1.4,1.87-1.46,4.3-3.35,5.89-1.63,1.37-2.77,3.34-4.38,5.36-.49,2.65-1.39,3.02-3.7,1.09.97-.97,2.36-1.77,2.83-2.94,1.19-2.98,3.89-4.78,5.89-7.76-1.36-.06-2.19-.1-3.12-.14-1.06,1.16-2.14,2.34-3.39,3.71v1.15c-1.22,1.48-3.51,2.74-2.94,5.49h-3.4c1.73-2.96,3.29-5.65,4.86-8.34-.29-.33-.52-.59-.82-.92,1.86-1.26,3.71-2.51,5.95-4.02,3.84.56,7.97-1.28,12.27-.77,2.68-1.16,5.59-1.08,8.28-.64,3.53.57,7.1.2,10.54.78,2.42.41,4.79.49,7.2.63.56.03,1.09.38,1.65.51,1.83.44,3.66.85,5.45,1.37,1.21.36,2.41.88,3.65,1.05,1.58.22,2.39,2.05,4.12,1.82,3.38,2.04,7.31,3.07,10.36,5.7,2.07.29,1.66,2.81,3.32,3.35-.38,1.6-.71,2.97-1.07,4.48,1.58,1.51,3.33,2.81,4.56,4.48,1.29,1.75,3.05,2.91,4.57,4.35,1.44,1.35,3.31,2.23,5.31,3.53,1.14-.07,2.71-.08,4.11.76,1.43.86,3,.71,4.56.76,1.3.04,2.54.19,3.86.56,1.43.41,3.22.39,4.99-.31,1.72-.68,3.9-.28,5.88-.25,1.74.03,3.37-.11,4.64-1.48.18.15.35.3.53.46,2.1-.42,4.2-.88,6.07-2,1.61-.96,3.45-1.76,4.64-3.12,1.06-1.21,2.54-2.05,3.31-3.34.85-1.42,2.48-1.7,3.29-3.04.79-1.32,1.78-2.53,2.5-3.87,1.28-2.07,2.75-4.06,3.77-6.25.97-2.08,1.73-4.33,2.1-6.59.42-2.52.36-5.13.39-7.7.03-2.38.5-4.9-1.62-6.99v-5.94c-.95.78-1.61,1.2-2.09,1.77-.52.63-.87,1.4-1.48,2.42v5.73c-.51.37-1.11.81-1.54,1.13v4.77l-1.36,1.35c-.44,1.04.41,2.51-1.02,3.3-.28.15-.64.65-.57.84.81,2.1-2.14,3-1.56,4.99-1.93.88-2.33,3.05-3.69,4.37-2.95,2.87-5.42,6.31-9.39,8-.3.13-.37.81-.55,1.24-2.78.5-5.45,1.29-7.84,3.17-2.4-.27-4.77,1-7.37.84-3.12-.18-6.05-1.09-9.05-1.7-1.23-.25-2.36-.96-3.58-1.26-1.13-.28-2.28-.66-3.36-.98-1.36-.41-2.73-1.21-4.04-1.96-1.61-.92-3.17-1.91-4.99-2.41-1.15-.31-1.14-.43-1.53-2.54.4-.4.82-.82,1.2-1.19.34.06.67.01.79.15,1.88,2.31,4.66,3.12,7.19,4.35.84.41,1.67.82,2.99,1.47h1.64c.54.52,1.08,1.02,1.62,1.54h4.45l1.48,1.47c2.22,0,4.57.01,6.93,0,1.91-.01,3.78.14,5.54-1.13,1.18-.85,2.86-.64,4.31-1.3,5.02-2.28,9.24-5.42,12.2-10.09,1.5-2.36,3.48-4.39,4.4-7.15.55-1.66,1.39-3.19,1.47-5.01.05-1.03.5-2.03.7-3.06.18-.9.28-1.82.52-3.48-.63-2.16-2.39-4.6-3.95-7.21-1.18-1.97-2.36-4.27-2.55-6.77-.02-.25.09-.66-.02-.72-1.6-.96-1.13-2.81-1.84-4.11-1.33-2.47-1.46-5.28-1.7-7.84-.28-3-.97-5.98-.94-9.02.03-3.12-.25-6.26.1-9.34.22-1.89.66-3.75.68-5.68.02-1.9,1.17-3.69.72-5.67,1.73-2.47,1.21-5.62,2.6-8.28.93-1.78.86-4.11,1.93-5.91,1.09-1.85,1.75-4.09,4.15-5.56.16,1.24.28,2.13.33,2.51-1.09,1.96-1.93,3.49-2.99,5.41v2.5c-.52.54-1.02,1.07-1.54,1.62v3.71c-1.28,1.16-1.57,2.64-1.49,4.26.03.6.15,1.35-.15,1.8-1.66,2.51-1.33,5.3-1.34,8.05-.01,5.11.07,10.22-.04,15.33-.05,2.44.61,4.68,1.27,6.96.29,1.03.26,2.16.39,3.34.35.35.79.79,1.36,1.36v4.63c.15.11.3.23.46.34.16-.56.33-1.12.49-1.67.19.17.37.34.56.51,0-1.86-.14-3.74.04-5.58.16-1.65-.55-3.29.61-5,.79-1.17-.6-3.16.84-4.5.12-.12.04-.48.01-.73-.52-4.55.73-9,.79-13.52.03-1.91-.46-3.83.51-5.76.85-1.69-.52-3.89.93-5.6.12-.15.04-.49.01-.73-.49-3.81.42-7.56.9-11.26.41-3.16.49-6.28.63-9.43.03-.65.47-1.29.87-2.32-.42-.19-1-.44-1.45-.65-1.05,1.15-2.26,2.77-3.75,4.04-1.75,1.49-3.49,2.98-5.14,4.58-.67.64-1.78.92-2.26,1.64-.72,1.08-2.6.88-2.66,2.56-2.31.65-3.24,3.13-5.45,4.02-1.96.79-3.12,2.81-5.11,3.76-1.37.66-2.52,1.85-3.64,2.95-1.46,1.42-3.89,1.58-4.77,3.72-2.1.56-3.14,2.93-5.42,3.18-.08.95-1.41,1.3-1.42,1.55-.09,1.24-1.38,1.1-1.91,2.09.94,1.01,1.93,2.07,3.05,3.26v3.19c-.4.27-1.12.74-1.85,1.22.09.18.18.36.27.53h-2.76c-.03.51-.05.75-.09,1.26.91.09,1.83.19,2.75.28.53.53,1.06,1.06,1.68,1.68v4.62c-1.69,2.25-4.27,2.73-7.05,2.55-.61-.61-1.14-1.14-1.76-1.75v-5.45c.82-.68,1.87-1.56,2.92-2.42-1.68-1.6-2.16-2.58-2.57-5.25-5.2,3.92-10.4,7.83-15.7,11.83-1.99,0-4.07,0-6.16,0-.27-.26-.53-.53-.93-.93v-3.24c-2.48-3.48-4.67-6.44-6.72-9.5-1.16-1.73-2.02-3.66-3.14-5.42-1.08-1.69-2.4-3.23-3.48-4.93-.93-1.46-1.35-3.4-2.56-4.49-1.93-1.74-3.02-3.95-4.43-6-1.41-2.05-2.92-4.03-4.35-6.06-.25-.36-.32-.84-.52-1.41-1.07.33-2.05.63-3.09.94-.18-.5-.34-.94-.52-1.44h-2.88c-1.46.97-2.9,1.99-4.41,2.91-3.2,1.95-6.49,3.72-9.55,5.91-.78.56-1.01,2.37-2.63,1.58-1.7,1.72-3.3.46-4.34-.6-2.56-2.62-5.66-4.76-7.52-8.06-.31-.56-1.36-.51-1.61-1.54-.1-.4-.99-1.07-1.49-1.49-3.25-2.68-4.93-6.62-7.89-9.49-1.12-1.09-.68-2.72-1.86-3.72.86-.45,1.47-.77,1.95-1.01,3.07.79,6.1,1.56,9.44,2.41.62,1.51,3.3.65,4.18,2.51,2.12-.02,3.37,1.57,4.89,2.65,1.45,1.03,2.86,2.13,4.28,3.2.56-.85,2.2-1.21,1.77-2.49-1.23-1.23-2.27-2.27-2.82-2.82-.63-4.22.48-7.01,2.56-9.77,1.5-1.99,3.38-3.88,4.43-6,1.54-3.11,4.1-5.07,6.25-7.49,2.41-2.71,6.01-3.84,8.62-6.32.44-.42,1.33-.36,1.99-.57.55-.18,1.06-.44,1.74-.72,1.16.44,2.51.95,4.13,1.57.66.65,1.4,1.97,2.45,2.31,1.29.41,1.44,1.45,2,2.21,1.25,1.69,2.38,3.45,2.37,5.77,0,1.07.76,2.15,1.24,3.39.31,2.02.65,4.27,1.03,6.75-.64.07-1.22.13-1.78.19-1.82-3.27-2.06-4.34-2.06-9.48-.44-.31-1.05-.73-1.47-1.02v-2.58c-2.14-.82-2.18-3.02-3.13-4.49-.92-.65-1.78-1.26-2.8-1.97-3.01.08-5.72,1.66-8.14,3.37-2.98,2.11-5.66,4.7-8.17,7.37-1.84,1.96-3.17,4.4-4.76,6.6-.7.97-1.5,1.87-2.24,2.82-1.68,2.16-1.62,4.68-1.51,6.39,1.1,1.14,1.77,1.83,2.49,2.57,4.34-2.56,7.04-6.81,9.48-11.25.63-1.14,1.44-1.57,2.84-1.3v2.57c-3.68,2.78-4.5,8.69-10.01,10.14-.75,2.76-4.03,3.65-5.02,6.42-.19.52-1.4.68-2.23,1.06-.83-.79-1.95-1.37-2.07-2.47-2.96-2-5.63-4.2-8.63-5.73-2.82-1.44-5.99-2.18-9.54-3.42,1.05,1.85,1.68,3.18,2.51,4.37.89,1.28,1.81,2.63,3.01,3.58,1.29,1.02,1.97,2.49,3.2,3.53,1.24,1.04,2.36,2.22,3.44,3.43.94,1.05,1.53,2.75,2.67,3.21,1.65.67,2.22,2.28,4.27,3.1h2.38c.09-.06.35-.14.47-.32,1.65-2.37,4.41-3.24,6.65-4.78,2.09-1.45,4.19-2.91,6.54-4.03,1.16-.55,2.24-1.73,2.76-3.27.4-1.19,1.42-2.18,2.11-3.19h3.73c.77.79,1.47,1.5,2.17,2.21v5.28c1.35,1.85,2.59,3.46,3.73,5.14,1.18,1.74,2.12,3.67,3.45,5.28,1.23,1.47,2.28,3.03,3.32,4.63,1.73,2.66,3.63,5.22,5.36,7.89,1.77,2.74,3.4,5.57,5.12,8.34.21.33.61.54.85.85.33.43.57.91.88,1.36,1.67,2.46,3.21,5.02,5.64,7.04,2.09-1.47,4.09-2.92,6.13-4.32,2.04-1.39,4.36-2.47,6.1-4.15,1.75-1.69,4.34-2.22,5.66-4.47h1.2c1.42-1.24,2.69-2.34,4.02-3.5-1-1.33-3.03-2.07-3.96-4.39-.22,1.13-.35,1.81-.48,2.49-.12-.12-.23-.23-.35-.35-.75.98-1.51,1.95-2.17,2.82q-6.19,0-9.31-3.71.55-2.06,3.06-2.1v2.34c1.74.84,3.08,1.49,4.33,2.09,1.14-.75,2.11-1.39,3.07-2.02,0-.5.18-1.09-.04-1.47-.46-.81-1.47-1.17-1.52-2.4-.03-.66-.9-1.31-1.42-1.93-1.46-1.77-2.9-3.55-4.4-5.28-3.45-3.97-8.15-6.51-11.8-10.26-.54,0-1.02,0-.86,0-2.42-1.69-4.25-3.29-6.36-4.36-1.83-.93-3.56-1.87-4.94-3.39-.17-.18-.02-.65-.02-1.08h2.48c2.71,2.11,5.57,3.79,8.17,5.85,2.68,2.12,5.65,3.87,8.57,5.83.66-.41,1.55-.96,2.75-1.69-1.03-.8-1.9-1.47-2.52-1.95v-4.53c.9-1.31,1.63-2.39,2.3-3.36.99-.28,1.84-.51,2.7-.75,2.31,0,2.15,2.62,3.58,3.48h1.31c.98-1.09,1.64-2.41,2.69-2.88,2.8-1.26,4.73-3.59,7.12-5.34,3.05-2.23,5.74-4.96,8.44-7.63.96-.95,2.55-1.26,2.91-2.82,2.02-.39,2.75-2.35,4.18-3.45,1.43-1.1,2.86-2.22,4.18-3.44,1.74-1.61,3.21-3.54,5.09-4.95,1.71-1.29,2.79-3.1,4.36-4.46.71-.62,1.42-1.24,2.52-2.2.13,1.18.21,1.84.28,2.44-2.14,1.84-3.75,4.01-6.14,5.42-2.08,1.23-3.04,3.9-5.54,4.71-.66,2.66-3.41,3.22-5.03,4.93-2.52,2.65-5.27,5.14-8.17,7.37-1.03.79-1.44,2-2.56,2.63-4.01,2.27-7.46,5.26-10.7,8.51-1.19,1.2-2.35,2.4-3.89,3.24-.66.36-1.9.94-1.31,2.17,1.15-.2,2.24-.39,3.07-.54,1.25,1.83,2.31,3.39,3.49,5.11.08.67.18,1.57.31,2.69.92-.46,1.54-.77,2.06-1.02.73.37,1.35.68,2.03,1.01.62,1.4,1.26,2.88,1.83,4.18-1.16,1.59-2.12,2.92-3.2,4.39.68,0,1.27,0,1.03,0,1.43,1.43,2.38,2.38,3.5,3.49-.03.11-.13.58-.26,1.03-.15.48-.34.95-.77,2.15,7.4-4.26,13.1-9.49,19.24-14.07,6.25-4.67,12.3-9.66,17.84-15.66h1.06c.67-1.99,2.2-3.46,3.79-4.34,1.71-.94,2.84-2.33,4.06-3.63,1.11-1.17,2.69-1.71,3.52-3.3.82-1.57,2.24-2.81,3.36-4.23.28-.35.45-.81.56-1.26.24-.98,2.34-5.42,3.01-6.24,0-2.62,0-5.23,0-7.85,0-3.5-1.56-6.16-4.49-8.02-1.63-1.03-3.29-2-4.94-2.99-.86.52-1.94.85-2.34.46-1.61-1.53-3.4-2.21-5.58-1.97-.79-1.17-1.6.1-2.37-.02-.91-.15-1.79-.5-2.69-.71-.36-.08-.93-.17-1.09.01-1.11,1.27-2.55.6-3.84.7-1.08.09-2.18.02-3.09.02-1,1.66-5.05,5.07-6.28,5.2-.7.07-1.44-.26-2.35-.46.66,3.02,2.13,5.49,3.93,7.93-.08.97-.17,2.02-.31,3.7-1.21-1.14-1.98-1.87-2.75-2.6.72-1.76-1.95-2.3-1.46-3.86.56-1.8-2.01-2.21-1.53-3.88-1.94-3.88-3.5-8-6.84-11-1.43-1.28-2.92-2.49-4.4-3.75.03-.57.06-1.15.09-1.74,2.96-.28,4.18,2.09,5.81,3.42,1.75,1.42,2.85,3.64,4.24,5.53,1.3-1.57,1.07-3.43,1.14-5.23,1,0,1.74-.07,2.47.01,2.25.25,3.82-.87,5.45-2.27,2.94-2.52,4.12-5.97,5.49-9.35.26-.64.25-1.56,0-2.21-.46-1.18-1.06-2.36-1.85-3.33-.56-.69-1.51-1.1-2.33-1.54-.6-.33-1.28-.52-1.75-.7-1.62.67-3.11,1.28-4.6,1.9-.72,1.07-1.45,2.14-2.26,3.35v2.2c-.8-.06-1.48-.12-2.13-.17v-4.01c2.09-1.84,3.71-4.24,6.53-5.6,1.8.19,3.92-.48,6.03,1.13,1.63-4.86,4.83-8.98,3.76-14.48-.6-.35-1.3-.77-2-1.19v-2.77c1.24.29,2.32.54,3.73.87-.66-3-1.27-5.83-1.75-8.01-1.5-3.16-2.73-5.77-3.98-8.41-.53-.03-1.12-.06-1.64-.08-.21-.61-.36-1.04-.31-.9-5.08-2.71-9.97-4.53-15.11-5.17-.5.5-.81.92-1.22,1.19-.38.24-.87.29-1.31.45-.65.24-1.33.43-1.93.76-1.82,1.01-3.42,2.51-5.7,2.55-.29,0-.57.53-1.02.99,9.48.76,17.88,4.78,23.12,15.03.37,3.33.69,6.16.98,8.76-.51.51-.78.78-1.07,1.07-.34-.33-.69-.66-1.14-1.08-.08-2.02.42-4.31-1.61-6.1v-2.99c-4.48-5.02-1.78-4.83-15.24-11.49h-12.82c-.57,1.34-2.39,1.04-3.13,1.88-1.21,1.37-3.45.74-4.23,2.57-1.96-.78-3.02,1.14-4.6,1.57-1.55.42-2.71,1.99-4.57,1.62-.07-.01-.17.17-.26.25-1.53,1.3-3.61,1.63-5.12,3.03,2.93,2.65,4.66,6.64,8.52,8.42,1.1-.94,2.24-1.92,3.56-3.04-.82-.58-1.61-1.15-2.35-1.68-.42.22-1.23.7-2.09,1.06-.25.11-.66-.14-.98-.22v-1.7c1.35-.8,1.88-2.99,4.13-2.53,1.5,1.64,3.59,2.96,3.32,5.67-1.52,1.23-2.52,3.01-5,3.91,3.09.79,5.49,2.09,7.44,3.92,2.1,1.97,3.86,4.31,5.87,6.61v2.71c.28.12.99.43,1.25.54.67,2.57-.64,4.88.91,6.88-1.6,1.9-.1,4.28-.98,6.31h-1.98c0-.67-.1-1.29.03-1.86.14-.67.62-1.28.7-1.94.31-2.79-.47-5.43-1.06-8.13-.47-2.15-1.39-3.97-2.73-5.6-.87-1.06-1.94-1.94-2.89-2.93-.92-.96-2.23-1.48-2.96-2.64-1.66.61-2-1.74-3.48-1.54-2.16-1.83-4.46-1.92-6.6-.69-.73,1.07-1.29,1.91-1.99,2.95,1.64.78,3.25,1.46,4.77,2.29,2.14,1.16,4.2,2.5,5.49,4.63,1.72,2.83,2.62,5.83.99,9.05-.1.2-.3.34-.42.48h-2.34c-.1-.34-.19-.67-.31-1.11-1.12-.58-2.34-1.21-3.59-1.86h-5.5c-1.16.94-2.27,1.84-3.53,2.86v1.39c1.5,1.26,3.1,2.62,5.11,4.31-3.17.56-3.55,3.2-5.14,4.63.1,2.26-.14,4.38.69,6.54,1.1,2.86.91,5.97.81,9.01-1.46,1.31-.06,3.31-.85,4.48-1.15,1.7-.62,3.37-.58,4.99.1,4.51-.74,9.08.73,13.64-.52.57-1.07,1.19-1.58,1.75.36.99.67,1.87.96,2.66-1.3,1.31-2.44,2.45-3.17,3.19-1.15.45-2.13.52-2.38.99-.82,1.52-2.47,1.99-3.37,3.29-1.21-.34-2.22-.62-3.27-.86.01,0,.06-.06.11-.11l-.52-.61-.24.24c.2.17.41.35.65.48.03,1.17.03,2.38.03,3.43-1.64,1.33-3.12,2.21-4.99,1.64-.77-.7-1.27-1.7-2.5-1.37,0-1.62,0-3.24,0-4.86.35-.35.71-.7,1.29-1.28,1.32.24,2.82.52,4.52.83.09-.82.2-1.75.28-2.47,1.39-1.17,2.66-2.23,4.12-3.46h2.19c1.51-1.45,1.71-4.19,4.66-3.7.13-1.12.44-2.09-.27-3.16-.36-.53-.29-1.39-.3-2.1-.03-2.49.01-4.98-.02-7.48-.03-2.41.71-4.65,1.31-6.93.18-.69.18-1.44.19-2.17.02-2.62.18-5.25-.04-7.85-.21-2.44-.82-4.85-1.34-7.76,1.02-1.62,1.27-4.3,3.63-5.7.26-1.86-1.91-1.61-2.59-2.96-.62-1.23-1.22-2.27-1.12-3.62,1.83-1.21,3.31-2.88,5.61-3.46,2.16-.55,4.09-2.03,6.75-1.27.66.35,1.6.82,2.5,1.34.74.42,1.45.9,2.58,1.61-.68-2.22-2.27-3.7-1.67-5.67-.87-.87-1.62-1.71-2.47-2.44-.71-.61-1.53-1.49-2.32-1.52-1.79-.05-3.15-.86-5.01-2.41-.08-.19-.48-1.13-.93-2.18,1.58-2.02,3.13-3.99,4.86-6.19-1.73-3-4.51-5.21-6.9-7.77-.15-1.33.17-2.29,1.73-2.65.88-.2,1.66-.83,2.85-1.46h1.94c1.88-1.05,3.22-2.13,4.75-2.56,1.43-.4,1.96-2.21,3.71-1.95,1.51.23,2.5-1.16,3.87-1.47.45-.1,1.15-.1,1.31-.38.94-1.66,3.53-.59,3.99-2.61h2.14c2.23-1.32,4.15-2.72,6.27-3.66,4.02-1.79,8.09-3.45,11.78-5.87,1.13-.74,2.7-.45,3.58-1.68h14.23c.41.23,4.37,1.49,4.77,1.49,1.2.01,2.28.23,3.46.68,4.74,1.82,9.58,3.36,14.14,5.61,2.81,1.39,5.71,2.47,8.31,4.4,3.83,2.85,7.45,5.87,10.64,9.39.7.77,1.52,1.48,2.12,2.39,1.94,2.95,4.02,5.81,5.95,8.76,1.53,2.35,1.51,5.34,3.01,7.72-.57,2.08,1.76,3.36,1.5,5.36,2.44,4.77,3.15,10.14,5.16,15.06.04.11.1.24.08.34-.56,2.72.84,5.22.8,7.92-.12,7.48,0,14.96-.07,22.43-.02,2.15.08,4.26-.57,6.47-.49,1.66-.85,3.88.57,5.65.18.23.18.83,0,1.09-1.39,2.03-.65,4.3-.69,6.44-.11,6.11.04,12.21-.07,18.32-.05,2.77-.57,5.52-.69,8.29-.13,2.86-.03,5.73-.03,8.6v2.31h1.99c.35-.35.79-.79.77-.77,1.05-.28,1.55-.55,2.05-.53,4.45.17,9-.92,13.32,1.14.93.44,2.15.28,2.63.33,1.6.62,2.67,1.02,3.74,1.45,1.86.74,3.5,1.79,5.16,2.95,3.15,2.19,4.95,5.56,7.45,8.18.86,1.5,1.95,2.92,2.5,4.52.61,1.78,2.22,2.91,2.52,4.98.23,1.6,1.66,3.04,2.78,4.91v1.77c.44.43.89.86,1.51,1.47-.13,1.75,0,3.65,1.49,5.32,0,10.05.04,20.26-.03,30.46-.01,1.77-.06,3.75-.84,5.24-.71,1.36-.57,2.58-.6,3.87-.06,2.52.14,5.05-1.32,7.32-.18.27-.24.71-.18,1.03.38,2.1-.24,4.14-.86,6.02-.63,1.92-.64,3.79-.65,5.7-.02,8.58,0,17.15,0,25.53,2.79,1.5,5.61,1.14,8.38,1.15,5.12.02,10.23.07,15.35-.03,1.77-.03,3.69.64,5.32-.7.15-.12.51-.08.73,0,4.95,1.57,10.03.36,15.04.74.12,0,.25-.01.37,0,1.04.16,2.1-.29,3.15.62.45.4,1.72.19,2.74-.28,1.49-.69,3.28-.82,4.6.25,3.42-.51,6.68-1,10.1-1.51v2.86c-.79.26-1.65.55-2.64.88-.11-.1-.37-.34-.74-.67-1.57.72-3.18,1.47-4.99.3-.44-.29-1.36-.03-1.98.19-1.54.52-3,.51-4.56-.02-.84-.29-1.97-.44-2.73-.11-1.68.72-3.19.74-4.84.01-.63-.28-1.54-.47-2.11-.22-2.22.96-4.22.65-6.55.11-2.09-.49-4.63-.83-6.51.38-1.38-.2-2.85-.89-3.61-.42-1.33.82-2.59.6-3.88.61-4.37.05-8.73.06-13.1,0-1.16-.02-2.33.31-3.52-.62-.54-.42-2.22-.7-2.81.63-1.05-.27-1.94-.67-2.85-.71-2.37-.1-4.74,0-7.11-.05-.93-.02-1.93.35-2.78-.58-.26-.28-1.31-.24-1.68.05-1.09.87-1.89.71-2.89-.15-.45-.38-1.84.1-3.18.78-.52-.24-1.13-.75-1.78-.8-4.26-.32-8.52-.7-12.79-.71-2.21,0-4.28-.6-6.43-.82-2.02-.21-4.12.53-6.09-.69-.54-.34-1.47-.05-2.21-.05-3.62,0-7.24.08-10.85-.02-2.93-.08-5.69,1.11-8.68.83-2.97-.28-5.98-.06-8.98-.06s-6.08-.48-8.96.1c-6.15,1.23-12.29.34-18.43.63-2.53.12-4.95,1.17-7.52.85-.33-.04-7.41-.07-7.56-.26-.78-1-1.84-.54-2.77-.55-3.37-.05-6.74.03-10.1-.05-1.16-.03-2.46.51-3.48-.67-.22-.25-1.01.09-1.44-.08-1.5-.6-2.59,1.71-4.42.33-.97-.73-2.85-.27-4.32-.3-1.62-.03-3.24,0-4.87,0h-4.49c-1.62,0-3.25.05-4.87-.02-1.42-.06-2.94.46-4.21-.71-.2-.19-.8-.16-1.09,0-2.56,1.38-5.06-.34-7.63-.09-2.84.28-5.73.07-8.6.07s-5.49.07-8.23-.04c-1.02-.04-2.02-.51-3.22-.84-.66.59-1.36,1.2-2.12,1.88-1.22-.56-2.27-1.04-3.25-1.5-.62.16-1.26.46-1.9.47-3.37.05-6.74.05-10.11,0-.69,0-1.36-.33-2.05-.44-.83-.13-1.88-.56-2.47-.22-2.47,1.4-5.06.37-7.58.62-.24.02-.53-.46-.67-.58-1.16.23-2.18.6-3.22.62-3.62.07-7.24.17-10.85-.02-2.47-.13-4.69,1.02-7.11.99-.27,0-.55.41-.78.59-.74-.29-1.52-.9-2.01-.73-3.85,1.35-7.8.54-11.69.65-4.03.11-7.97,1.11-12.04.85-3.98-.26-8.05-.49-11.95.09-2.91.43-5.75.49-8.77.63v-3.02c.71,0,1.54-.08,2.35.01,4.81.52,9.49-.97,14.29-.8,4.86.18,9.82.62,14.57-.11,6.3-.97,12.55-.21,18.8-.62,1.78-.12,3.53-.58,5.31-.7,1.86-.13,3.88.41,5.58-.14,2.04-.66,4.05-.48,5.68-.64,2.56-2.67,5.58-4.15,8.34-5.99,2.82-1.88,6-3.2,8.59-5.38.59-4.39,1.18-8.75,1.77-13.16h2.44c-.38.75-.63,1.25-.88,1.75v9.99h1.13c.37-2.91.73-5.76,1.05-8.33.59-1.15,1.07-2.07,1.32-2.56-.32-2.23-.57-4-.79-5.48.57-.75.94-1.22,1.43-1.86.65.52,1.11.88,1.67,1.32v7.82c2.6.77,3.39-2.06,6.05-1.99-1.46-.85-2.17-1.26-2.82-1.64-.17-1.4-.32-2.67-.53-4.48.01-.03.28-.62.61-1.34h1.69c.3.58.62,1.2,1.17,2.27v4.61c.84-.45,1.42-.77,2.28-1.24-.27-2.08-.53-4.17-.81-6.37h2.67c.05.21.2.54.21.88.06,1.79-.2,3.6,1.2,5.14.39.43.22,1.38.48,1.94-1.72.26-3.58.14-4.63,1-2.02,1.64-5.09,1.73-6.44,4.5h-2.6c.05,1.06.1,1.98.17,3.35,4.61-2.57,8.84-4.93,13.05-7.33.23-.13.25-.63.45-1.51-.05.15.08.17.2.15,1.39-.24,2.81-.77,4.17-.66,1.2.1,2.32.95,3.51,1.4,1.52.58,1.61.72,1.31,3.27-.87-.63-1.61-1.17-2.4-1.74h-4.87c-1.56,1.08-2.8,2.38-4.31,2.9-4.28,1.46-7.5,5.35-12.67,5.38.13,2.91.05,6.08-2.18,8.23-1.98,1.92-4.56,3.22-7.18,5h12.24c-.5-.85-.95-1.6-1.38-2.36-.39-.7-.76-1.41-1.12-2.09,1.14-1.07,2.05-1.92,2.52-2.37,4.66-2.04,7.86-5.6,12.68-6.99.08.13.37.61.8,1.33-.26.32-.61,1.25-1.13,1.35-2.72.54-4.8,2.31-7.16,3.51-.3.15-.49.52-.72.78,1.13,2.19,2.24,4.34,3.57,6.94.28.14,1.11.54,2.05,1,.16-.47.47-.9.36-1.08-1.21-2-2.48-3.96-3.86-6.13.42-.52.85-1.05,1.55-1.93,1.28,2.68,3.12,4.1,4.06,6.34.52,1.25,2.5,1.88,4.19,3.05.24-2.37-1.23-3.2-2.17-4.3-1.07-1.27-2.15-2.54-3.26-3.85,1.7-.96,3.01-.6,4.11.44,1.35-1.12,2.24-2.33,3.24-3.37,1.03-1.07,1.51-2.66,3.23-3.03q-.04-1.72-1.23-3.07v-2.64c.43,0,.89-.14,1.08.03.43.39.7.95,1.08,1.4.49.59,1.02,1.14,1.93,2.15.19-1.18.28-1.73.42-2.64,1-.8,2.26-1.8,4.02-3.2-.18-.02.48.05,1.46.16-1.01,1.48-1.74,2.69-2.61,3.78-.92,1.15-2.16,2.07-2.93,3.29-.79,1.25-2.56,1.46-2.96,2.8-.42,1.42-1.85,1.8-2.46,3.03-.59,1.18-2.58,1.21-2.61,2.78.57,1.13,1.13,2.26,1.78,3.57.23-.11.84-.19.99-.5.96-1.9,2.61-3.18,3.99-4.71.54-.6.87-1.39,1.35-2.05.77-1.06,1.53-2.14,2.38-3.12,2.57-2.96,5.18-5.88,7.95-9.02v-2.15c.91-.1,1.83-.19,2.75-.29.44-.44.88-.88,1.28-1.28h4.88v2.15c-2.91-.23-5.58.54-8.03,2.38v2.51c-3.16.79-3.93,3.87-5.85,5.79-1.92,1.92-3.31,4.38-5.11,6.44-1.42,1.62-3.13,2.99-4.91,4.67-.07.82.23,1.78,1.67,2.18.21-.16.54-.33.76-.58.96-1.09,1.86-2.24,2.86-3.29.94-.99,2.08-1.8,2.96-2.84.9-1.07,1.33-2.69,2.41-3.41,1.46-.97,2.07-2.3,2.89-3.66.85-1.42,2.12-2.6,2.92-4.04.75-1.35,1.56-2.08,3.17-2.51,2.31-.61,4.44-1.9,7.1-3.11.36.37.83.86,1.48,1.54-.59.63-.85,1.17-1.23,1.27-1.59.41-3.25.61-4.46,1.9-1.88-.74-2.68,1.39-4.36,1.59v2.39c-2.14,1.2-3.33,3.08-4.63,4.83-1.87,2.52-3.68,5.09-5.99,7.23-.4.37-1.01.53-1.71.89.43.63.82,1.2,1.23,1.81.33-.3.6-.54.99-.9.55.27,1.17.58,1.98.98,2.76-2.63,5.05-5.69,7.35-8.77,1.89-2.53,4.08-4.83,6.03-7.09.9.05,1.48.08,2.14.11-.31,1.14-.55,2.03-.8,2.92-.46.08-1.09,0-1.34.27-1.35,1.49-2.63,3.05-3.88,4.63-.18.23-.02.71.07,1.06-.56.03-1.02.07-1.48.11-.08.74-.14,1.32-.13,1.28-1.55,1.87-2.75,3.32-4.24,5.12,2.26.34,4,.28,6.01.11-.33-1.75-.61-3.24-.87-4.63.26-.65.51-1.29.71-2,.53.02,1.15.02,1.79.02.34.35.69.7,1.17,1.19v5.48c.71,0,1.34.13,1.87-.04.42-.14.72-.66,1.11-1.05-.18-.16-.52-.32-.52-.49-.11-3.69-.18-7.38-.25-11.08h2.99c0,2.05,0,4.13,0,6.2,0,2.1,0,4.2,0,6.36.48.07.82.11,1.43.2v-17.91h2.27c.19,1.46-.14,3.04.71,4.48.27.46-.61,1.48-.63,2.26-.09,2.86-.11,5.74.01,8.6.04.87.64,1.71.97,2.53.23,0,.39.05.48,0,.5-.31.99-.65,1.65-1.1-.21-.9-.41-1.81-.62-2.72-.08-.34-.21-.67-.28-1.01-.33-1.73.97-3.46.59-4.88-.43-1.56-.65-3.06-.54-4.59.07-1,.6-1.97.9-2.89h1.94v17.04h15.33c-.38-.75-.63-1.25-.99-1.98v-5.84c-1.22-.15-2.25-1.02-3.73-.31-1.24.6-2.77-.36-4.23.7-.81.59-2.42.11-3.75.11-.38-.53-.79-1.09-1.19-1.64.34-.3.52-.6.68-.58,3.79.27,7.52-.27,11.32-.98.26-.28.6-.63,1.09-1.15-.43-.56-.85-1.12-1.36-1.79-1.62,1.25-3.49.78-5.27.94-1.76.16-3.49.52-5.28.8-.44-.71-.8-1.29-1.25-2.02,2.17-.79,4.42.41,6.19-1.05,2,1.44,4.29.42,6.3.78.71-.63,1.33-1.19,2.14-1.91.45.88.76,1.47,1.1,2.15-.15.5-.48,1.11-.5,1.72-.06,2.37-.1,4.74,0,7.1.1,2.3.67,4.46,2.63,5.81h1.53c1.49-1.87-1.87-3.91.21-5.61-.98-3.61-1.16-7.12.24-10.7h1.81c.09.18.28.39.28.6.02,3.49-.04,6.98.04,10.47.03,1.4.36,2.79.57,4.32-.1.11-.34.37-.57.63,1.04,1.21,2.12,1.75,3.32.37-.12-1.52-.19-3-.37-4.46-.22-1.8.58-3.67-.48-5.41-.9-1.48.47-3.37-.92-4.89-.32-.35.43-1.68.68-2.53,1.82.9,2.26,2.38,2.56,4.25,4.13-4.46,9.27-5.8,14.57-7.46v2.4h-2.42c-.57.57-1.01,1.01-1.54,1.54h-2.11c-1.71,2.1-5.19,1.67-6.14,4.74-.9-.39-1.62-.7-2.79-1.2.21,1.29.34,2.14.52,3.24-.03.04-.29.42-.75,1.08.62.36,1.15.67,1.61.93.42-.74.81-1.64,2.16-2.18,3.31-1.32,6.2-3.6,9.77-4.45.52-.12.89-.84,1.29-1.24h3.39v1.72c-.86.57-1.64,1.09-2.81,1.86h-2.57c-1.73,1.03-3.24,1.93-5.11,3.05-.27,0-1.01,0-.95,0-2.35,1.09-4.02,1.87-5.85,2.72.3.98.71,1.97.87,2.99.15.97.03,1.97.03,3.23.8.34,1.66.69,2.47,1.03.55-.95.96-1.66,1.39-2.4h3.24c.91-2.17,3.64-1.9,5.1-3.67h3.85c-1.99,3.11-5.65,2.86-7.84,4.94.15,1.47,1.37,1.03,1.93.78,2.2-.98,4.45-1.56,7.08-1.33,0-1.4-.07-2.63.01-3.84.21-3.26.68-6.52.67-9.79,0-2.36-.59-4.71-.95-7.24h2.19c1.64,4.49.95,9.28,1.05,14.01.01.55-.29,1.12-.45,1.67-.48,1.61-.06,3.58,1.13,5.13.05.06.24,0,.64,0,.06-.51.19-1.06.19-1.61.02-5.23.06-10.47-.02-15.7-.02-1.61.28-3.05,1.17-4.38q2.28,1.25,1.15,3.64c.25.85.87,1.77.64,2.37-1.44,3.85-.39,7.8-.63,11.68-.06.98.4,2.07.87,2.97.28.53,1.06.79,2.07,1.48,0-1.23.26-2.09-.05-2.61-1.03-1.72-.57-3.54-.71-5.33-.15-1.83.48-3.55.66-5.31.16-1.56-.54-3.2-.8-4.52.82-1.23,1.4-2.1,1.98-2.98,2.16,1.33,2.14,1.33,1.66,2.97-.23.79-.7,1.77-.43,2.39,1,2.24.6,4.24.09,6.55-.46,2.1-.85,4.61.56,6.78.22.33.03.93.03,1.5h3.78c-.08-6.57-1.44-13.13-.59-19.99.48-.03,1.15-.08,1.78-.13.22.61.38,1.04.54,1.48h1.61c.48-.46,1.01-.96,1.54-1.47,1.88,0,3.75.03,5.62-.02.82-.02,1.58.1,2.43-.49,1.63-1.12,3.12.71,4.88.62v3.25c-1.06-.72-1.8-1.23-2.73-1.86h-6.49c-1.38,1.43-3.11,1.69-5.31,1.41-.43.69-.95,1.52-1.78,2.83v13.36c.38.38.74.73,1.09,1.09,4.74,0,9.48,0,14.24,0,.34-.34.68-.7,1.06-1.09-.21-.24-.44-.5-.79-.91.25-.53.81-1.15.8-1.76-.09-4.62,2.31-8.53,3.53-12.77.41-1.43,1.58-2.74,1.64-4.14.06-1.47.97-2.15,1.74-3.01-.55-2.14-1.3-3.98-.27-6.28.74-1.66.15-3.92.15-5.92v-7.14c.61-.59,1.23-1.19,1.92-1.85.35.44.96.86,1.02,1.36.13.95.29,2.19-.19,2.86-.71.97-.47,1.88-.48,2.81-.05,3.61-.27,7.25.06,10.84.25,2.83-1.28,4.99-1.91,7.48-.1.41-.67.71-1.2,1.24,1.01,2.64-2.02,4.62-1.39,7.43-.48.41-.95.81-1.42,1.2v4.17c2.88-6.37,4.29-12.77,8.17-18.65-.12-.8-.46-2.14-.48-3.48-.02-1.43.31-2.87.38-4.31.07-1.49.02-2.99.02-4.49s-.07-3,.02-4.49c.07-1.16.33-2.3.53-3.65-1.25-1.39-2.69-3-4.31-4.81h-.77c-2.16,1.69-4.13,3.23-6.12,4.79-.32-.51-.45-.7-.73-1.14,1.15-1.28,2.24-2.73,3.84-3.66,1.99-1.15,3.8-2.5,5.39-4.18,1.47-1.56,2.85-3.3,5.02-3.48.16-.6.25-.94.32-1.22h3.83c-.46.65-.64,1.18-1,1.37-1.45.78-3.09,1.28-3.77,3.02-.46.09-1.06.02-1.36.29-1.03.9-1.96,1.91-2.74,2.68l4.85,4.85c0,4.1.53,7.68-.14,11.01-.77,3.81-.33,7.55-.66,11.33-1.61,2.37-2.8,4.97-3.74,7.75-.88,2.61-2.39,5.02-3.17,7.65-.81,2.73-2.54,5.16-2.62,8.43.95-.37,1.76-.69,2.61-1.03.61-3.32,3-6.04,3.23-9.5,2.13-2.54,2.11-6.19,4.44-8.75.04-.72.09-1.56.15-2.7.87-.26,1.72-.51,2.87-.85,0,.96.18,1.62-.03,2.12-.92,2.11-2.3,4.09-2.85,6.28-.78,3.1-2.6,5.66-3.78,9.27v2.13c-.63.84-1.18,1.59-1.99,2.67.98.11,1.55.18,2.32.27,1.11-2.1,2.55-4.12,3.27-6.37.76-2.34,1.48-4.63,3.01-7.1v-2.72c.51-.34,1.12-.76,1.54-1.04v-4.03c.7-1.04,1.54-1.6,2.92-1.05v3c2.44,2.62,4.49,5.2,6.18,8.15,1.13,1.97,3.12,3.46,5.13,4.96-.23-.56-.52-1.09-.67-1.67-.59-2.3-2.8-3.45-3.82-5.45-1.01-1.97-2.19-3.86-3.63-6.38v-2.62c.32-.06.87-.27.97-.15.63.82,1.47.73,2.34.73,6.73-.01,13.47.03,20.2-.04,1.25-.01,2.5-.51,3.77-.78.68,5.24.52,9.78-.37,11.6,1.99,1.96-.45,3.8-.22,5.8.2,1.73-.86,3.66-.48,5.5.81,1.5,2.12,1.1,3.32,1.06.98-.73,1.46-1.6.84-2.82-.21-.41-.49-.86-.49-1.28.06-6-1.51-11.95-.57-18.11.22-.22.57-.57.92-.92.13.2.36.39.36.59.03,1.49-.02,2.99.03,4.48.05,1.54-.18,3.06.67,4.59.65,1.19-.33,2.76.69,4.22.59.84.13,2.41.13,3.65,0,1.84,0,3.68,0,5.58h1.24c.24-1.17.48-2.29.8-3.82-.12-.55-.51-1.58-.52-2.6-.06-6.35-.08-12.71,0-19.06.02-1.52.52-3.03.7-4.55.16-1.41-.33-2.93.77-4.17-.35-4.01,2.36-7.63,1.5-11.71,1.08-1.52.32-3.5,1.28-5.08.28-.46.2-1.17.21-1.77.02-1.62.11-3.25-.01-4.86-.5-6.53,1.18-13,.69-19.49-.38-5-.63-10.14-3.18-14.73-.33-.59-.28-1.37-.5-2.03-.18-.55-.48-1.05-.92-1.96-.96.95-1.75,1.74-2.72,2.7-.71-.61-1.34-1.14-1.81-1.55-6.95,0-13.77,0-20.59.02-.18,0-.35.33-.5.48-.89-.87-1.78-1.73-2.88-2.8.33-.78.7-1.62,1.12-2.59,1.58.44,2.91.8,4.37,1.21-1.09.46-2.09.89-3.1,1.32.03.17.06.34.09.51,1.06.05,2.13.01,3.18.16,1.03.15,2.04.67,3.06.67,1.02,0,2.03-.62,3.06-.66,2.86-.1,5.74-.08,8.6,0,.78.02,1.55.42,1.76.47,2.26-.29,4-.51,6.13-.78-3.49-4.39-4.61-9.85-8.64-13.94.07,0-.3,0-.68,0,.15-1.86-1.28-2.37-2.42-3.13-.66.92-1.09,1.81-1.77,2.41-3,2.65-4.42,6.46-7.01,9.41-.29.33-.04,1.13-.04,1.75h2.11c1.13-1.6,2.11-3.76,3.75-5.1,1.83-1.5,1.57-4.1,3.61-5.33h1.77c-.06,2.32-1.96,3.67-2.94,5.51-.55,1.04-1.49,1.87-2.05,2.9-.3.55-.17,1.34-.24,2.08,2.17-.07,2.23-1.46,2.33-2.45,1.46-1.82,2.74-3.43,4.2-5.25.44.93.83,1.76,1.21,2.57-1.47,1.38-2.74,2.57-4.12,3.86,1.71,1.85,3.4,1.58,5.31.48.71.36,1.52.77,2.3,1.16,0,1.21-.52,1.56-2.62,1.85-.44-.44-.88-.88-1.32-1.32-2.36,1.46-4.75-1.25-7.09.02-2.35,1.28-4.86.11-7.1.6-2.45-3.82-6.18-1.65-9.27-2.39-.28,1.4-.31,2.77-.83,3.91-.5,1.1.16,2.31-.85,3.44-.54.6-.66,2.51,1.47,3.17,1.25-.27,3.18.7,4.81-.67.5.5,1.03,1.03,1.76,1.76-.36,3.71,2.69,6.33,4.03,9.9.76.38,1.77.88,2.78,1.39l-1.11,1.11h-3.15c-.12.66-.23,1.33-.35,2.01-.49.2-.98.4-1.8.74.62.73.99,1.17,1.64,1.93.27-.77.52-1.47.56-1.58h23.91c-.49.91-.85,1.57-1.19,2.21-1.37-.04-2.42-1.81-3.79-.26-.29.33-1.21.33-1.75.16-1.94-.59-3.81-.46-5.76,0-1.72.4-3.27-.29-4.28-1.16-3.45.73-6.65,1.41-10.03,2.13-2.03,2.7-2.87,6.52-6.05,8.74-.2-.22-.45-.49-.92-1.01,1.44-2.38,2.92-4.91,4.18-7.53,1.33-2.77,2.39-5.61,4.93-7.71-.38-.9-.81-1.62-.99-2.39-.44-1.85-2.22-2.93-2.53-4.98-.14-.95-1.9-1.65-3.07-2.57-1.67.42-3.36-.28-5.26.57-1.52.69-3.61.14-5.54.14v10.3c.62.48.74-.31,1.01-.53.23-.19.36-.61.37-.94.1-1.82,1.16-2.23,2.95-1.88.28,1.79-.6,3.14-1.79,4.32-1.58,1.57-2.08,3.61-3.17,6.15-1.6,1.47-3.49,3.55-4.01,6.6-.21,1.24-.63,1.31-2.96,1.31,0-2.56,2.26-4.02,2.86-6.3-.57-.57-1.27-1.27-1.98-1.98-.59-2.33.68-4.9-.64-6.78.66-3.49-.94-6.65,0-10.1.53-.44,1.35-1.12,2.68-2.22.16,6.8,0,12.97.1,19.2.44.07.78.13,1.3.21v-17.73c.84-.65,1.71-1.32,2.41-1.86-1.37-2.36-.56-4.62-.7-6.77-.14-2.1-.03-4.21-.03-6.81-.72,1.27-1.53,1.92-1.51,3.09.05,2.37-.07,4.74.05,7.1.06,1.02.56,2.01.86,3.03-.47.4-.85.72-1.45,1.23-.71-1.24-1.42-2.49-2.09-3.66-2.19.41-4.37.82-6.92,1.3-.14-.18-.51-.63-.87-1.09.26-.26.53-.53,1.06-1.06h3.3v-2.41c-.67.3-1.13.56-1.62.71-.45.14-.94.18-1.55.29-.67-.89-2.04-1.26-2.01-2.76,5.63-.7,7.65.27,8.5,4.1h1.33c-.16-1.2-.3-2.31-.47-3.68.02-.03.27-.42.55-.85-2.46-3.17-5.9-1.76-8.99-2.23-.33-.52-.7-1.1-1.31-2.08,3.54.08,6.67-.65,9.89.77.44-1.51.58-2.84-1.16-3.97-2.98,1.09-6.15,2.26-9.42,1.49-.46.91-.78,1.53-1.09,2.16.22.84.92,2.04.58,2.58-.66,1.05-.55,2.05-.67,3.12-.1.92-.35,1.81-.63,3.16.27.3.83.9,1.34,1.45.12,3.76,2.66,6.6,3.58,10.04.08-2.14.71-4.29-.79-6.48h3.14c.41,2.24-.4,4.62.82,6.76.16.28-.27.86-.34,1.31-.11.67-.45,1.61-.15,1.98,1.05,1.26.73,2.8.4,3.88-.46,1.49-.65,2.98-.6,4.52h-2.18v-7.68c-.57-.57-1.26-.94-1.41-1.46-1.13-3.9-4.11-6.98-4.79-11.14-.16-.97-.62-2-.62-3.08-.01-2.74-.05-5.48.02-8.22.03-1.04-.46-2.21.65-3.12.25-.21.28-1.13.04-1.4-1.3-1.53-.45-3.32-.83-4.96h1.99c.34.35.69.7,1.18,1.19v3.34c4.06-.43,8.12.85,11.86-1.01-.37-.71-.68-1.33-1.04-2.03-2.54,0-5.15-.04-7.75.02-1.06.03-1.85-.22-2.15-.94.64-1.34.71-2.43.27-3.59-1.78.29-3.46,1.37-4.35,3.02h-1.27c-.04,1.06-.11,2.13-.11,3.21-.02,3.24.04,6.48-.03,9.71-.02,1.04.29,2.09-.56,3.16-.4.5.07,1.8.3,2.69.44,1.69.42,2.29-.41,3.94,1.57,2.79,3.27,5.39,3.77,8.64.2,1.26,1.38,2.43,2.28,3.51.72.88,1.01,1.62.12,2.66-2.19-.86-3.44-2.93-3.81-4.79-.36-1.81-1.33-3.09-2.24-4.31-.86-1.15-.88-2.19-.94-3.37l-1.46-1.46v-4.53c-1.11-.4-2.08-.76-3.1-1.13.26-1.92-.41-3.68.82-5.16-1.45-2.33-.35-5-1-8.23-.39,1.06-.55,1.53-.72,1.99-.14-.11-.29-.23-.43-.34,0,3.58,0,7.15.02,10.73,0,.18.33.35.51.53-.24.48-.49.96-.99,1.94-1.07.31-2.66.59-4.11,1.22-1.59.69-2.95,2.14-4.57,2.46-1.84.37-2.49,2.28-4.28,2.29v2.46c2.68-1.62,5.15-3.11,7.62-4.6h3c.54-.51,1.08-1.02,1.61-1.53.62,0,1.25,0,1.87,0,.21.1.49.14.62.3.73.93,1.72,1.8,2.06,2.87.58,1.81,2.03,3.08,2.6,4.92.54,1.75,1.36,3.46,2.71,4.87.48.51.44,1.51.7,2.52-.11.21-.36.69-.7,1.35.57.2.98.35,1.46.52.74,1.13.15,1.98-.93,2.88-4.33-.86-7.86,2.24-12.15,2.93v-2.67c2.64-.66,5.47-1.36,8.58-2.14.42-.36,1.16-.98,2.11-1.77-1.17-2.04-2.26-3.95-3.33-5.81-2.94-1.25-4.99,1.18-7.47,1.53-.92,1.56-2.86.96-4.28,2.47-.14-1.17-.22-1.83-.31-2.55,1.91-.46,3.31-2.08,5.38-1.74,1.13-2.02,3.99-.78,5.29-2.92-.3-.42-.63-.89-.92-1.31-2.71-.91-5.09.26-7.1,1.47-1.45.87-2.99,1.27-4.28,2.14-1.01-.86-.51-1.44.11-1.9.85-.62,1.77-1.15,3.09-1.99h2.81c.09-.45.16-.8.25-1.21,1.25-.85,3.27.6,4.17-1.1-.61-.74-1.19-1.45-1.8-2.18-3.44,1.61-6.88,3.22-10.72,5.02-1.23,1.66-.62,3.41.88,5.25,2.84,3.46,4.27,7.67,5.78,11.79.4,1.1.1,2.46.1,3.7,0,1.49,0,2.99,0,4.72-1.13.84-2.37,1.77-3.7,2.77.65.5,1.3,1,2.13,1.64,3.02-3.28,6.85-6.27,11.19-9.14.22-.48.59-1.31,1.01-2.23-.5-.15-.84-.26-1.38-.42-.14.49-.25.91-.41,1.48-2.11-.54-3.15,2.74-5.85,1.32,0-.21-.08-.69.02-1.11.11-.44.41-.83.6-1.19,1.81-.46,3.83-.45,5.11-1.42,2.03-1.54,3.03,1.41,4.7.08v2.12c-3.03,2.54-6.16,5.17-9.29,7.8-1.5-.58-.69,1.5-1.92,1.62-.79.07-2.18,1.27-2.09,1.75.28,1.57-1.78.68-1.67,1.96.08.97-2.04.6-1.58,2.33.17.64-1.09,1.67-1.88,2.77-.5.03-1.34.08-2.18.12-.1.21-.32.44-.29.62.25,1.62-.57,3.02-1.08,4.42-.88,2.45-2.03,2.99-5.36,3.14-.55,1.75-2.15,3.14-1.81,5.21Zm15.61-135.25h3.03c.03.49.16.88.06,1.2-.93,2.97-1.72,5.97-1.46,9.11.32,3.93-1.32,7.72-.8,11.66.05.39-.43.82-.51,1.27-.35,2.03-.56,4.06.34,5.56-.23,1.29-.52,2.19-.53,3.09-.05,4.24,0,8.48-.04,12.71-.01,1.54-.09,3.02-.61,4.59-.74,2.23-1.11,4.67-.9,7.13.17,2.1.02,4.23.05,6.35,0,.53.17,1.05.27,1.65,2.15-.61,2.55-2.39,3.46-3.72,0-1.12.07-2.25-.02-3.36-.07-.87-.78-2.06-.43-2.53.8-1.1.46-2.18.41-3.2-.2-4.17,1.37-8.22.8-12.41-.03-.24-.07-.54.04-.73,1.73-2.85,1.43-6.01,1.46-9.12.01-1.43-.07-2.82.7-4.2.82-1.47.9-3.19.82-4.9-.05-1.21-.27-2.66.28-3.59.67-1.14,0-2.27.49-3.17.61-1.13.73-2.24.71-3.46-.04-2.12-.09-4.24.02-6.35.07-1.41,0-2.76.55-4.24.49-1.3.78-2.98.86-4.49.21-4.01-.08-8.03.73-12.04.41-2.03,0-4.23.1-6.34.05-1.03.4-2.05.63-3.15-.18-.29-.62-.69-.62-1.1-.06-2.74.07-5.49-.06-8.22-.12-2.64-.47-5.28-.72-7.92-.12-1.29-.05-2.51-.63-3.85-.78-1.79-.72-3.94-.97-5.55-.56-1.28-.87-2.3-1.42-3.18-1.29-2.09-1.09-4.72-2.73-6.77-.63-.79-1.23-2.06-1.54-3.05-.38-1.21-1.49-2.15-1.55-3.06-.1-1.47-1.72-2.27-1.52-3.08.46-1.78-1.31-1.64-1.72-2.68-1.41-3.6-4.08-6.5-5.99-9.85-1.01-1.77-2.8-3.1-4.39-4.8v-1.19c-1.51-1.48-3.02-2.96-4.51-4.43.32-.42.6-.78.83-1.08-.17-.36-.22-.63-.37-.77-.35-.31-.78-.54-1.14-.85-1.08-.92-2.57-.41-3.68-1.04-2.09-1.18-4.33-1.2-6.62-1.22-2.16-.01-4.36.37-6.45-.68-.53-.27-1.36.06-2.55.15.62.69.83,1.15,1.17,1.28,1.3.48,2.67.77,3.96,1.29,2.06.82,3.96,1.93,5.79,3.2,3.63,2.5,7.48,4.69,10.55,7.91.99,1.03,1.64,2.4,2.69,3.34,1.84,1.64,2.96,3.71,4.05,5.82.48.92.9,1.87,1.41,2.93.1,1.41-.29,3.3.45,4.5,1.19,1.93.61,4.56,2.64,6.03-.32,1.53.8,2.58,1.77,2.92,1.98.69,2.55,2.36,3.45,3.83.54.88.92,1.87,1.5,3.09-.42,1.8.5,3.6,1.6,5.36-.31.44-.57.83-.84,1.21,1.5,3.17.66,6.53.68,9.79.02,3.38.74,6.86-.66,10.1.96,1.77,2.04,3.44,2.79,5.25,1.4,3.36.86,6.95.91,10.46,0,.1-.11.2-.16.3-.94,1.98-1.88,3.96-2.83,5.93-.95,1.98-1.92,3.95-2.99,5.5-1.13,1.82-2.27,2.89-3.45,3.92-.61.53-1.01,1.67-.99,2.52.1,4.78-.37,9.52-.73,14.28-.27,3.51-1.35,6.96-.83,10.53.03.21-.03.5-.16.67-1.12,1.52-.16,3.57-1.33,5.06.57,4.43-1.02,8.72-.79,13.15.2,3.85.14,7.73,0,11.59-.08,2.26-.06,4.71-.92,6.71-.77,1.77-.24,3.37-.53,5.02-.3,1.76-.52,3.53-.74,5.3-.02.15.28.34.47.56.31-.09.64-.19.97-.28v-2.25c1.55-1.88,3.07-3.72,4.51-5.47.11-6.33-.49-12.57,1.51-18.6-.54-5.79.89-11.49.79-17.27-.04-2.39-.52-4.82.62-7.21.36-.76-.31-2.01-.41-2.57.21-1.44.45-2.46.48-3.5.1-3.52-.44-7.13.81-10.52.84-2.26.67-4.52.7-6.81.02-1.37,0-2.74-.11-3.98Zm27.82-48.38c-1.16-3.13-2.09-5.61-2.99-8.1-.51-1.41-.94-2.85-1.51-4.23-1.45-3.51-2.35-7.23-4.41-10.52-.95-1.51-2.15-2.82-3.04-4.34-3.28-5.59-8.36-9.42-13.15-13.53-.6-.51-1.61-.55-2.43-.81.78,1.24,2,1.81,2.77,2.75,1.18,1.43,1.9,3.24,3.08,4.67,1.14,1.36,1.08,3.51,2.95,4.34-.66,1.66,1.03,2.43,1.64,3.4.76,1.21,1.23,2.51,1.89,3.73.87,1.63,2.11,3.23,2.37,4.97.63,4.16,3.27,7.39,4.6,11.7-.61,1.64.61,3.48.99,5.45.09.44.48.86.47,1.29-.03,3.13,2.14,5.85,1.63,9.05,1.27,1.11.38,2.57.64,3.85.26,1.27.71,2.53.72,3.8.07,8.1.06,16.19,0,24.29,0,1.02-.41,2.05-.62,2.99.22.55.55,1.07.62,1.63.22,1.57-.37,3.04-.65,4.56-.35,1.93.4,4.15-.25,5.9-.79,2.13-.63,3.89.16,5.8.09.21.12.58,0,.73-1.38,1.62-.62,3.54-.7,5.31-.15,3.27.37,6.62-.82,9.76-.86,2.25-.69,4.52-.7,6.81-.02,3.61,0,7.23,0,10.84,0,.22.16.43.26.7h1.67c.51-.51.95-.95,1.52-1.52h3.08c.35-.88.89-1.63.9-2.38.04-3.9.99-7.71.86-11.65-.24-6.84-.14-13.7-.03-20.55.04-2.77.43-5.53.75-8.28.04-.39.56-.72.7-.89-.3-1.05-.94-2.09-.66-2.55,1.02-1.62.64-3.31.65-4.97.04-9.09.02-18.19.02-27.28,0-2.87.3-5.79-1.38-8.41-.23-.36-.13-.96-.11-1.44.07-1.52-.36-2.82-1.5-3.87v-3Zm-43.06-49.11c-.11.14-.21.28-.32.41,1.23,1.52,2.56,2.97,3.66,4.58,1.1,1.61,2.3,3.1,3.72,4.44.6.57,1.05,1.3,1.56,1.96,2.81,3.62,4.8,7.76,7.36,11.55,1.46,2.17,2.72,4.63,3.73,7.03,1.16,2.75,2.36,5.5,3.55,8.24,1.62,3.75,2.82,7.51,2.59,11.63,1.36,1.26,1.67,2.87,1.5,4.61-.51,5.29.79,10.49.79,15.76,0,.64.48,1.28.75,1.95-.25.28-.67.53-.71.82-.32,2.75-.64,5.5-.81,8.26-.13,2.11-.06,4.23-.01,6.35.02,1.11-.04,2.18-.77,3.04-.78.92-.69,1.98-.75,3.06-.24,4.13.69,8.33-.74,12.39.53,3.69-1.1,7.24-.72,10.9.19,1.87-.29,3.64-.89,5.26-.4,1.06-.64,2.02-.63,3.09.01,1.56.1,3.14-.76,4.55-.94,1.54-.85,3.25-.73,4.92.29,3.93-1.34,7.71-.78,11.65.03.23.02.51-.08.71-1.44,2.8-.4,5.68-.59,9.19,1.32-1.1,2.14-1.78,2.92-2.43v-8.31c1.67-1.07.35-2.92,1.16-4.4.74-1.35.28-3.36.33-5.07.02-.75-.2-1.57.04-2.23,1.28-3.58,1.2-7.41,2.16-11.05.75-2.84.9-5.84,1.67-8.67.2-.75.59-1.49.63-2.34.18-3.26-.29-6.52.65-9.8.71-2.5.58-5.25.85-7.88.05-.45.29-.88.38-1.33.31-1.48,1.03-2.82,1.19-4.39.15-1.56,1.48-2.81,1.51-4.62.03-1.42.71-2.94,1.46-4.21.72-1.23,1.89-2.19,2.92-3.35-.2-.4-.68-.9-.7-1.42-.1-3.03.03-6.03-.71-9.05-.62-2.55-.57-5.25-.83-7.89-.02-.23-.03-.49-.13-.69-1.51-3.15-1.76-6.57-2.09-9.96-.07-.77-.6-1.37-.69-1.94-.44-2.72-1.64-5.06-3-7.38-.4-.68-.65-1.49-.81-2.27-.54-2.62-1.27-5.27-2.5-7.55-1.42-2.64-2.5-5.55-4.62-7.83-.78-.84-1.56-1.88-1.82-2.96-.48-1.97-1.7-3.37-2.98-4.75-1.78-1.92-3.71-3.69-5.52-5.58-.55-.58-.8-1.46-1.37-2.02-.57-.56-1.32-.96-2.05-1.33-.82-.42-2.01-.49-2.48-1.12-.96-1.3-2.26-.66-2.68-.79-1.35-.82-2.09-1.28-2.84-1.73Zm-7.99,34.28v2.51c-.49.37-.99.74-1.32.99v3.57c.42.26,1.06.65,1.37.84v9.28c-.92.81-1.44,1.59-1.52,2.87-.06.9-1.01,2.32-1.77,2.48-1.32.27-1.15,1.86-2.52,2.03-.87.11-1.61,1.16-2.21,1.62,1.23,1.23,2.42,2.42,3.64,3.64,3.2-1.95,7.2-.83,10.91-1.24.34-.34.6-.6.87-.87.77-8.08,1.81-16.16.04-24.38h2.1c.31.31.66.66,1.14,1.14v24.97c1.3-.06,2.47-.12,3.62-.17v-5.87c0-1.99-.12-4,.03-5.98.13-1.79-.56-3.61.48-5.4,1.08-1.87-1.06-3.63-.51-5.56.09-.33.18-.66.23-.84,2.43-.78,2.53,1.39,3.51,2.6,0,1.48.01,3.1,0,4.71-.02,1.55-.36,3.05-.61,4.57-.67,4.06-.7,8.22-1,12.55,2.37,1.03,4.13,3,6.72,4.02.36-2.91-.32-5.63.85-8.16.18-.39.16-1.17-.1-1.4-1.05-.93-.57-2.09-.59-3.13-.07-3.24-.02-6.48-.03-9.72,0-.23-.09-.46-.13-.69-.44-.44-.88-.88-1.45-1.45v-2.41c-2.03-1.67-4-3.28-5.9-4.84v-2.83c-.37-.24-1-.65-1.24-.8-1.3-4.69-2.47-8.95-3.65-13.21-.43,2.15-.19,4.3-1.05,6.38-1,2.45-1.31,5.25-2.61,7.5-1.78,3.09-2.78,6.21-2.69,9.75.05,1.92.2,3.83-.69,5.69-.49,1.03-.66,2.25-.76,3.41-.13,1.36-.03,2.74-.03,4.11,0,.87.01,1.74-.01,2.62,0,.22-.14.44-.21.66-.26.26-.53.53-.79.79-.67-.37-1.34-.73-2.18-1.19,2.06-2.11.29-4.85,1.5-7.28,1.1-2.21-.28-4.95.81-7.51,1.02-2.39-.94-4.92-.6-7.49.96-.96,1.93-1.93,2.74-2.74.62-2.2.92-4.34,1.81-6.2.9-1.88.86-3.87,1.36-5.79.54-2.04.57-4.21.84-6.41-.48-.1-.82-.17-1.2-.25-1.18-2.89-3.12-5.17-6.28-7.04.85,2.49,1.84,4.45,2.13,6.51.34,2.44-.2,5.01.15,7.45.49,3.51-1.97,6.43-1.57,9.86.01.09-.11.2-.17.3-.35.35-.71.7-1.45,1.45Zm15.41,70.23c-1.15,1.15-1.9,1.82-2.55,2.58-.56.66-1.49,1.49-1.41,2.15.33,2.74-.82,5.27-.83,7.93,0,2.37.07,4.74-.02,7.1-.08,2.03.32,4.05-.64,6.09-.68,1.44-.68,3.24-.8,4.89-.12,1.61-.06,3.24-.02,4.86.04,1.42-.73,2.79-.06,4.27.19.41-.22,1.11-.39,1.66-.62,1.93-1.24,3.81-1.1,5.92.15,2.15.41,4.41-.73,6.4-.84,1.47-.71,3.01-.72,4.57-.01,4.48,0,8.95,0,13.52-.97.71-1.93,1.41-3.19,2.34,1.15,2.4,2.39,4.97,3.63,7.55h1.33c.62-.84,1.32-1.53,1.68-2.37.37-.84.23-1.9.61-2.74.69-1.54.71-3.08.06-4.53-.39-.87-.51-1.47-.04-2.33.32-.59.42-1.38.39-2.07-.15-3.92,1.34-7.72.77-11.66-.03-.24-.11-.61.01-.73,1.39-1.35.47-3.05.73-4.57.26-1.52.62-3.03.73-4.55.31-4.38.19-8.82.89-13.13.45-2.79.57-5.53.63-8.31,0-.36,0-.74.12-1.07.92-2.6,1.42-5.26,1.39-8.03-.05-3.61-.06-7.23.02-10.84.03-1.15.41-2.3.56-3.06-.38-.68-.69-1.22-1.04-1.84Zm24.9,44.34c.34-.73,1.02-1.5.95-2.2-.4-4.07.76-8,.85-12.03.1-4.43-1-9.02,1.42-13.23.22-.37,0-.98.03-1.48.36-7.12-.7-14.27.69-21.38.53-2.7-.01-5.5.68-8.31.65-2.62-.18-5.55.53-7.12-.36-1.18-.53-1.74-.71-2.32-.62,1.97-1.1,3.51-1.58,5.05-.15-.03-.3-.07-.46-.1v4.02c-.53.45-1,.85-1.45,1.24,0,1.32.33,2.67-.06,3.77-1.02,2.86-1.46,5.76-1.39,8.77.04,1.74.28,3.54-.05,5.22-.61,3.02-1.78,5.94-1.44,9.11-1.54,1.06-.15,2.85-1.02,4.06-.97,1.35-.27,2.87-.47,4.29-.07.48.1,1.04-.08,1.47-1.17,2.81-1.52,5.74-1.43,8.76.03,1.1,0,2.21,0,3.17-.58.57-1.02,1.02-1.5,1.5,0,1.7.04,3.44-.01,5.18-.05,1.61.4,3.28-.55,4.73.35.35.61.61.88.87,2.65-2.48,3.32-2.81,6.17-3.05Zm37.69-1.3c0,.92.02,1.55,0,2.17-.04,1.39-.05,1.39-2.28,1.34v-5.73h-2.15v5.59c-.18-.13-.35-.26-.53-.4-.22.61-.44,1.22-.66,1.82-.24-.01-.49-.03-.73-.04-.24-.59-.48-1.18-.72-1.77-.2.11-.4.22-.6.32.24-1.76.49-3.51.77-5.55-.41-.22-1.07-.57-2.02-1.07v6.67c-.17-.13-.34-.26-.52-.39-.22.6-.45,1.21-.87,2.35-.65-1.26-.94-1.81-1.22-2.36-.62-1.75-.17-3.94-.69-6.19-.61.21-.93.32-1.25.44,0,2.57,0,5.05-.02,7.54,0,.14-.35.27-.73.56-.48-.4-1.02-.84-1.48-1.23-.12-2.51.51-5.01-1.19-7.18-.29.06-.63.12-.97.19.23,1.23.94,2.59.55,3.43-.82,1.74-.44,3.54-.74,5.32h-1.41v-8.83h-2.7c-1.34,3.04,1.13,5.92.2,9.19-.79-.5-1.37-.87-1.93-1.22-.08-2.41-.12-4.73-1.94-6.55-.42.42-.68.68-1.13,1.13.18,2.28-.58,4.85.85,6.71,1.51.84,2.63,1.45,3.56,1.97.41,2.66-.48,5.12.78,7.47.36.67.39,2.01-.05,2.51-1,1.14-.55,2.34-.62,3.5-.09,1.49-.03,2.99,0,4.48,0,.2.21.41.35.66.32-.05.66-.1,1.1-.16.16-2.07-.25-4.13.75-6.08.76-1.5.9-3.19.8-4.9-.17-2.73.44-5.51-.86-8.25h2.35v18.55h1.53v-18.94c1.21.42,2.06.71,3.07,1.06v6.78c1.61-.41,3.13-.48,4.27-1.17,1.65-1,2.92.13,4.27.42.44-1.01.81-1.84,1.29-2.94-2.95-.3-5.71.19-8.37-.58,1.09-.27,2.19-.21,3.28-.29,1.11-.08,2.32-.65,3.27-.34,1.12.36,2.04.39,3.14.11-.07-.45-.13-.79-.22-1.37-3.14,0-6.22,0-9.3-.01-.09,0-.19-.15-.12-.1v-2.05c2.4.19,4.73-.44,6.63.64.97-.3,1.74-.54,2.42-.75.67.63,1.18,1.12,1.66,1.58,1.53-1.93,3.03-3.81,4.87-6.14-.1-.28-.39-1.13-.67-1.96h-3.07Zm-23.87,107.43c1.51.75,2.04,2.56,3.55,3.6,1.6,1.1,2.8,2.79,4.02,4.06,4.07.12,7.82.01,11.61.68,3.66.64,7.51-.4,11.56.81.24-1.94.1-3.96.8-5.63.82-1.96.46-3.7.41-5.86-.95.47-1.56.77-2.17,1.07-1.26-1.16-2.79-.71-4.21-.76-1.62-.05-3.24-.02-4.86,0-1.45.01-2.9.06-4.38.09.98,1.37,1.81,2.53,2.7,3.79h9.99v2.95c-2.44-.44-4.86.53-7.19-.7-1.02.69-2.09,1.41-3.21,2.16-.79-.52-1.5-1.26-2.35-1.52-2.28-.69-4.12-2.05-5.49-3.85-2.36-3.09-4.44-6.37-6.69-9.55-.11-.16-.65-.02-1.08-.02v2.53c2.66,3.31,5.31,6.6,7.99,9.93v1.62h-1.45c-3.68-2.1-5.42-5.77-7.94-9.33-.58,1.42-1.01,2.49-1.6,3.93Zm-99.94-136.56c-.84.59-1.68,1.18-2.7,1.9-.26.73-.61,1.71-.88,2.46,3.4,3.76,6.61,7.3,9.82,10.85-.15,1.37.25,2.37,1.83,2.68.42-.81.83-1.62,1.34-2.61-1.02-.82-2.02-1.62-3.25-2.61-.26-1.02-.6-2.37-.91-3.57-1.7-1.12-4.12-1.11-4.93-3.16-.7-1.78-1.71-3.78-.33-5.94Zm-61.28,132.6c-1.82,1.04-3.33,1.87-4.8,2.75-3.56,2.13-7.1,4.29-10.77,6.51,0,0,0,.24,0,.7,1.62.38,3.31.06,4.54.17,2.89-1.84,5.1-4,7.67-4.68,1.38-1.29,2.46-2.29,3.54-3.3-.05-.59-.1-1.17-.18-2.16Zm194.44-7.06h-6.2c-1.99,0-3.99.05-5.98-.02-1.82-.06-3.69-.6-5.42-.29-1.8.33-3.4-1.22-5.16-.16v.91c7.11,1.61,14.23.89,21.24,1.07.44-.44.79-.79,1.52-1.52Zm-18.3,5.71c3.15.97,5.8-.57,8.56-.44,2.83.13,5.66.51,8.55.78v-1.28c-.17-.14-.26-.27-.35-.28-3-.21-6.06.52-9.01-.72-.63-.26-1.75-.33-2.15.05-1.22,1.14-2.56.44-3.46.61-1.41-.55-2.23-1.81-4.08-1.06.85,1.02,1.52,1.83,1.94,2.33Zm-78.31-186.59h-3.07c-.37,1.14-.69,2.13-1.01,3.09.41.69.81,1.37,1.18,1.99h3c-.21-.23-.42-.46-.63-.69.95-.39,1.9-.77,2.78-1.13-.91-1.32-1.5-2.18-2.25-3.26Zm23.51,151.33c-2.72,1.47-3.28,3.93-4.29,6.08,0,0,.15.08.17.18.26,1.25.51,2.5.76,3.75.25.03.48.06.89.11,1.51-2.57,1.1-5.8,2.56-8.43.15-.26-.02-.7-.08-1.69Zm-54.9,17.37c-.75,4.51-.62,5.08,1.67,7.79.33-.69.63-1.31.93-1.93.25-.51.53-1.01.74-1.54.22-.57.37-1.17.56-1.8-1.31-.85-2.56-1.66-3.89-2.51Zm85.08-82.41v3.21c1.19.37,2.25.7,3.39,1.05.23-2.04.42-3.72.61-5.46-.35-.27-.71-.55-1.07-.82-.99.68-1.85,1.28-2.93,2.02Zm-73.53,86.67c-1.32-1.17-2.6-2.13-4.75-1.6.43,2.07.83,3.96,1.26,6.04,2.43-.87,2.22-3.18,3.49-4.44Zm26.38-.37c1.57.28,2.42-1.01,2.62-1.72.51-1.8,1.73-3.65.72-5.51-1.19,1.08-2.37,2.16-3.34,3.04v4.2Zm-49.17-5.19q1.91-2.5,1.6-5.78c-.73-.91-1.42-1.76-2.48-3.08-.48,3.46-.42,6.21.88,8.86Zm26.85,4.57c-.44.46-.84.88-1.17,1.23.37.77.59,1.3.89,1.79.31.5.7.96,1.04,1.4h1.53c.7-1.08,1.38-2.14,2.05-3.19-.45-.47-.79-.82-1.18-1.23h-3.16Zm46.25-30.47c-1.68-2.77-.35-5.69-1.05-8.42h-1.33c0,1.39.18,2.75-.04,4.06-.38,2.29-.14,3.89,1.2,5.57.35-.35.7-.7,1.21-1.21Zm-66.37,30.88c.41-2.18.7-3.78,1-5.39-.56-.58-1.16-1.2-1.62-1.68h-1.6c.17,1.96.33,3.81.5,5.7.45.36.9.72,1.71,1.37Zm68.5-65.92c.84.98,1.73,1.72,3.06.64-1.3-1.91-.68-4.03-.83-6.06-.02-.32-.18-.63-.3-1-.7.7-1.32,1.32-1.94,1.93,0,1.5,0,2.99,0,4.48Zm-28.93,63.73l-.48-.82c-1.22,1.19-3.02.52-4.1,1.97v3.56c.68,0,1.47.2,1.63-.03,1.06-1.51,1.98-3.11,2.94-4.68Zm-7.81,1.85h-3.36c-1.4.87-1.18,2.09-1.01,3.11.09.54.91.96,1.22,1.26,1.21-1.05,2.22-1.92,3.14-2.72v-1.65Zm18.44-3.87c.37-1.4.75-2.73,1.07-4.07.31-1.32,1.35-2.57.59-3.88-.9.85-1.84,1.73-2.76,2.59v4.32c.4.38.74.7,1.1,1.03Zm46.81,30.44c1.94.3,3.52.55,5.26.82-.34-2.4-2.91-2.62-3.65-4.75-.75.68-1.26,1.14-1.62,1.46v2.46Zm-19.47-97.95c.13.04.26.09.39.13.25-1.01.38-2.07.79-3,.46-1.05.09-1.67-.4-2.6-.45-.85-.09-2.11-.09-3.71-1.33,1.39-2.27,2.39-3.27,3.43,1.01.68,1.77,1.18,2.58,1.73v4.02Zm-14.09,51.24c-.37-2.43-.75-5.02-1.2-7.97-1.21,2.36-1.89,4.34-.62,6.6.32.57.08,1.45.15,2.18.02.16.27.3.41.44l1.26-1.25Zm-113.43,46.08c-.96-1.29-1.57-1.99-2.05-2.78-.46-.76-.79-1.6-1.17-2.38-.7.06-1.27.11-1.91.17,0,2.35,1.74,3.5,2.5,5h2.63Zm54.52-141.2c-.89.55-1.78,1.09-2.58,1.58v1.86c.84.37,1.57.69,2.3,1.01q1.3-1.33,1.06-3.67c-.26-.26-.53-.53-.78-.78Zm-6.84-7.5c-.66,1.4-1.61,2.71-.83,4.38h1.57c.67-.99,1.24-1.83,1.73-2.57-.34-.66-.66-1.26-.95-1.81h-1.52Zm11.01,49.17c2.76-.05,3.52-.83,3.41-3.45-1.34-.29-2.6-.32-3.41.86v2.59Zm53.57,13.14c2.41-.73,3.96-1.56,4.95-3.52-.75-.52-1.38-.95-1.99-1.37-.98,1.62-1.83,3.02-2.96,4.89Zm-50.44-46.99c-1.88-.96-2.84.31-3.97.75-.11,1.43.18,2.4,1.97,2.66.61-1.04,1.28-2.19,2-3.41Zm.18,7.18c-.69.63-1.33,1.21-1.93,1.76q.24,1.52,1.65,2.82c.41-.38.83-.78,1.25-1.18.21-1.23.37-2.43-.97-3.4Zm-57.23-18.04h1.78c-.16-.16-.32-.32-.49-.49.63-.63,1.27-1.27,1.81-1.81-2.18-1.34-2.89-.95-3.11,2.3Zm15.96-12.01c-.68.81-1.36,1.6-2.12,2.5q2.3.56,3.26-1.35c-.35-.35-.71-.7-1.14-1.14Zm39.41,47.36c1.39-1.04,1.81-1.91,1.12-3.21-.6.04-1.27.09-2.27.16.43,1.14.75,1.97,1.16,3.05Zm-47.17-39.73c.66-.13.99-.19,1.47-.28-.06-.76-.11-1.42-.17-2.17-.58.11-.91.18-1.29.25v2.2Zm13.22-8.41v-2.27c-.54.11-.87.18-1.59.32.51.63.85,1.04,1.59,1.94ZM297.65,12.09l.07.65c.41-.1.82-.19,1.22-.29-.02-.12-.04-.24-.06-.36h-1.24Zm16.97,251.3c-.22.03-.43.05-.65.08.1.41.19.81.29,1.22.12-.02.24-.04.36-.06v-1.24Zm14.35-98.6v.25h.75v-.25h-.75ZM276.07,14.21h.25v-.75h-.25v.75Zm18.22,184.75h-.25v.75h.25v-.75Z"/>
      <path d="m10.79,28.42h2.12c2.1,1.89,3.93,3.54,5.8,5.23h1.61v-3.33c.57-.36,1.09-.69,1.27-.81.5-1.89.89-3.35,1.27-4.8h2.59c1.1,2.39,2.26,4.88,3.45,7.46.68-.94,1.26-1.76,2.08-2.89v-2.25h2.7c1.31,2.68,4.06,4.94,3.21,8.67,2.66-.89,2.96-3.85,4.96-4.99,2.07-1.17,4.07-2.35,5.9-4.67-3.58.77-6.47-.45-9.18-1.81-1.51-.76-2.78-2.31-3.12-4.48.44-2.21,1.91-3.78,4.79-4.88,1.18-.2,3.22.65,4.9-.64.81.24,1.58.63,2.36.68,1.87.1,3.75.17,5.61,0,3.43-.32,6.29.9,8.89,2.96,1.3,1.03,2.59,2.08,4.18,3.36,0,.83-.17,1.95.05,2.99.21.99.92,1.87,1.21,2.85.23.79.23,1.68.23,2.52.02,3.07,0,6.15,0,9.31,1.91-.04,2.33-1.69,3.48-2.28.62,0,1.25,0,2.01,0,1.41,1.08,2.9,2.23,4.65,3.57-.97,1.8-1.85,3.43-2.73,5.07-.9.33-1.87.69-2.89,1.07.19.41.24.62.35.75,1.03,1.17,1.99,2.51,3.04,3.52,1.1,1.06,1.62,2.41,2.61,3.4,2.91,2.89,4.93,6.44,7.18,9.78,2.06,3.05,4.74,5.84,5.51,9.66,2.04,1.98,2.16,4.85,3.22,7.27.88,2,1.09,4.3,1.64,6.65h3.93c2.76-.97,5.04-1.77,7.32-2.57-.03-.1-.06-.2-.08-.3,1.36,0,2.75.16,4.08-.05,1.11-.18,2.13-.9,3.24-1.16,1.05-.25,2.17-.16,3.26-.29,3.62-.42,7.13-1.2,10.88-2.99,1.12,0,2.94.47,4.29-.13,1.42-.63,3.02-.25,4.36-1.29.84-.65,2.43.49,3.46-.62,3.49.08,6.77-1.28,10.16-1.56,2.17-.18,4.23-1.03,6.41-.88,1.35-1.55,3.62-.02,4.99-1.5,2.77-.25,5.54-.45,8.29-.76,1.9-.21,3.77.43,5.74-.62,1.48-.79,3.44,0,5.3-.72,2.17-.83,4.74-.59,7.12-.9,1.16-.15,2.29-.5,3.44-.72,1.15-.22,2.37.39,3.5-.68.46-.44,1.68-.07,2.55-.07,2.16-.01,4.1-.91,6.3-1.55.41.43.89.93,1.29,1.35-.22.46-.29.83-.42.85-3.14.56-6.19,1.47-9.43,1.78-2.63.25-5.22,1.35-8,1.38-.95,0-1.89.8-3.22,1.41-1.21-.16-2.97.5-4.66-.89-.31.29-.7.91-.98.86-3.34-.5-6.51.91-9.8.78-2.79-.11-5.43.36-8.06,1.33-1.1.41-2.44.15-3.67.18-1.55.04-3.09-.09-4.57.71-1.37.74-2.94,1.04-4.53.78-1.74-.29-3.36.25-4.92.79-2.77.96-5.76.69-8.55,1.96-1.81.83-4.03.87-6.07,1.57-2.01.68-4.43.15-6.73.15-.4.45-.81.91-1.29,1.45h-3.11c-2.33,2.26-5.14,1.39-7.58,1.59-.57.57-1.01,1.01-1.58,1.58h-6.99c2.84,1.31,2.57,3.97,4.37,5.4v3.77c-.94,1.27-2,2.71-3.07,4.16-3.28.31-5.04-1.64-6.53-4.03-.07-1.44.25-2.78.54-4.19.29-1.37.62-2.47,2.03-3.63-2.1-.19-2.83.98-3.31,2.12-.26.63-.73,1.5-.7,1.9.18,2.81-1.48,4.5-3.5,6.35-1.38.23-3,.7-4.62.7-1.64,0-3.28-.48-4.83-.74-1.68-1.68-3.35-3.34-5.15-5.15,0-2.69,1.41-4.92,3.46-6.82,1.41.29,1.95,1.08,1.82,2.29-.86.78-1.67,1.51-2.22,2.01v2.79c1.31,2.23,3.85,2.45,5.77,3.35,1.05-.25,1.97-.41,2.86-.68.77-.23,1.51-.57,2.09-.79,3.04-3.82,1.67-8.21,1.97-12.37-1.32-2.21-1.37-4.84-2.53-7.19-1.03-2.09-2.38-4.06-3.2-6.14-1.33-3.37-3.56-6.06-5.52-8.91-2.5-3.63-4.92-7.37-8.1-10.51-.48-.47-.61-1.3-1.1-1.76-.57-.53-1.35-.83-2.13-1.28-.9,1.08-1.61,1.94-2.34,2.82-1.36-.31-2.5-.58-3.56-.82-.96,1-1.98,2.06-2.72,2.83h-3.67c-.99,1.51-2.29,2.8-3.87,3.74-1.01-.33-2-.65-3.1-1.01-.68-.98-1.42-2.06-2.15-3.11.63-1.21,1.3-2.52,2.01-3.88-2.23-1.03-3.04,1.41-4.62,1.96-1.61.55-3.6.56-4.72,2.49-5.46-.75-11.05-.89-16.34-3.01-1.58-.63-3.45-.13-5.1-1.3-1.25-.88-3.12-.54-4.59-1.58-.85-.6-2.37-.27-3.4-.35-1.33-.51-2.48-1.15-3.7-1.38-1.23-.23-1.58-1.65-3.11-1.68-1.21-.03-2.27-1.45-3.71-1.8-.49-.12-.72-1.33-1.09-2.08,4.94-1.9,9.67-1.27,14.27-.2.7-2.09-1.65-2.33-1.34-3.99.22-1.18-.34-2.54-.69-3.78-.15-.53-.81-.91-1.01-1.45-.26-.7-.29-1.47-.44-2.28Zm19.82,20.94c1.36,0,2.73-.03,4.1.01.96.03,1.95.04,2.88.26,1.83.45,4.95-.11,6.62-1.11,1.79-1.08,3.49-2.5,5.83-2.16.61-.56,1.21-1.12,1.66-1.54,1.22,1.22,2.26,2.26,3.02,3.02h2.67c.65-.72,1.61-1.78,2.56-2.83.89,1.06,1.99.52,2.94.48,1.11-2.01,2.18-3.94,3.33-6.03-1.3-4.37-1.81-9.01-1.51-13.68-.71-.36-1.33-.68-2.17-1.11-.97,0-2.25-.19-3.44.06-1.1.23-2.06,1.24-3.14,1.36-1.25.14-2.19.77-3.26,1.2-1.2.47-2.63.5-3.34,1.85-1.55-.66-1.78,1.04-2.63,1.58-1.81,1.15-3.87,2.3-4.99,4-1.18,1.79-2.8,3.03-4.09,4.62-1.35,1.67-2.75,3.29-4.1,4.88-1.42-.1-2.71.04-3.84-.32-2.4-.76-4.78-1.58-7.31-1.25-3.58.47-6.99-.94-10.53-.77-.24.01-.6.09-.72-.04-1.51-1.51-3.2-.35-4.9-.25.86.57,1.73,1.14,2.7,1.78,1.42.04,2.98-.16,4.41.74,1.79,1.12,4.23.43,5.89,2.06.27.27.93.25,1.39.18,1.7-.24,2.91.79,4.26,1.52,2.03-.04,4.13-.25,5.72,1.49Zm28.57-27.37c-.03-.15-.07-.29-.1-.44h4.15c-2.78-2.15-5.6-3.83-9.45-5.09-3.5-.78-7.67.66-11.92.81-1.17.04-2.3.99-3.28,1.44v2.32c.8.82,1.3,1.34,1.87,1.93,4.3,1.12,8.81,2.35,13.54,1.55.15-.43.31-.86.32-.9,1.82-.6,3.35-1.11,4.87-1.62Zm-35.33,6.45c-.49,3.11-.88,5.52-1.22,7.7,1.58,1.58,2.9,2.9,4.34,4.34h2.96c.66.62,1.18,1.1,1.95,1.83,1.37-1.79,2.57-3.35,3.82-4.99-.5-1.07-1-1.98-1.34-2.95-.35-.98-.5-2.02-.83-3.01-.09-.27-.47-.44-.72-.66-1.9,1.65-2,3.81-1.8,6,.06.66.53,1.27.69,1.93.07.29-.14.66-.22.98h-1.73c-1.24-2.37-2.45-4.82-3.33-7.45-.4-1.19-1.47-2.16-2.58-3.73Zm-.39,11.61c-2.65-2.08-5.31-4.16-7.96-6.25-.29.28-.64.62-1.02,1,1.34,1.91,2.69,3.81,3.72,5.27,1.79.42,3.02.71,4.24,1,.35-.35.7-.7,1.02-1.02Zm79.29,56.93v-4.92h-2.75c-.57.96-1.15,1.95-1.79,3.03.92,1.28,1.79,2.5,2.66,3.72.78-.76,1.4-1.36,1.88-1.83Zm-28.19-55.76c-.96-.4-1.8-.74-1.96-.81-1.01,1.01-1.65,1.64-2.34,2.33.53.22,1.26.52,2.12.88.72-.8,1.35-1.49,2.18-2.4Zm-20.54,12.62v-4.09c-.87.56-1.44.92-2.09,1.33.06.96.11,1.87.17,2.76h1.92Zm13.8-6.04c-.17-.96-.28-1.6-.47-2.69-1.05.92-1.75,1.52-2.42,2.15-.08.07.02.33.03.54h2.85Zm-5.93.92q-2.79.13-2.99,2.43c1.05-.85,1.88-1.52,2.99-2.43Z"/>
      <path d="m199.45,180.66c0-.78,0-1.53,0-2.28-.44-.44-.88-.88-1.43-1.43-.04-.73-.08-1.57-.11-2.36-.49-.49-.93-.93-1.41-1.41v-3.1c-.53-.37-1.14-.8-1.54-1.08v-4.09c-.45-.45-.89-.89-1.1-1.1-.55-1.81-1.02-3.36-1.49-4.9-.12.03-.24.07-.36.1v-2.98c-.52-.54-1.02-1.07-1.54-1.61v-4.49c-2.1-1.66-1.2-4.22-1.75-6.9-1.24,1.08-2.13,1.86-3.16,2.76h-4.68c-.41-.71-.82-1.42-1.18-2.04-1.65.34-2,2.1-3.19,2.92-1.13.78-2.45,1.29-4.39,2.28-1.48.29-3.09-.94-4.73-2.53-1.74,1.16-3.27,2.95-5.84,2.32-1.1-1.12-2.31-2.37-3.66-3.74-.53,3.44-3.15,4.42-5.98,5.7-1.41-1.95-2.7-3.74-4.13-5.72-.83.73-1.73,1.52-2.7,2.37h-2.75c-3.55-.73-3.96-3.17-4.64-5.49-4.71,5.06-6.32,5.22-10.06,1.25-.43-1.41.67-2.01,1.44-2.84v-2.15c1.03-1.12,2.04-2.19,3.01-3.3.13-.15.09-.45.16-.81h3.99c.54.81,1.14,1.69,1.99,2.94v4c1.24-1.62,2.21-2.89,3.12-4.07h5.4c.46.59,1.05,1.35,1.99,2.56,0-.05,0,.54,0,1.24.51-.11,1.01-.08,1.14-.28.94-1.51,2.34-2.51,3.85-3.6,1.38.55,2.03,1.76,2.75,3.04.66,1.18,1.66,2.17,2.83,3.64.6-2.07.94-3.7,2.74-4.39,1.39-.53,2.37-2.25,4.45-1.21,1.34.6.6,2.23.93,3.67,2.95-1.07,4-4.63,7.29-4.68.97.58,2.1,1.03,2.93,1.81.79.74,1.27,1.81,2.19,3.19.21-2.78,1.19-4.48,3.23-5.99.83.47,1.8,1.02,2.84,1.61v-3.34c-1.79-1.65-1.41-3.86-1.33-6.4.67.29,1.39.37,1.57.73.8,1.53,1.92,2.85,2.19,4.72.27,1.91,1.16,3.72,1.94,5.52.15,3.06.7,6.03,2.23,8.81.74,1.34.26,2.95.87,4.49,1.11,2.78,1.64,5.84,2.52,8.7.84,2.76,1.6,5.56,2.46,8.31.87,2.76,1.75,5.51,2.62,8.26,1.91,1.23,1.32,3.65,2.54,5.35,1.03,1.44,1.81,3.2,2.75,4.81.98,1.69,1.71,3.52,2.61,5.4.14.04.48.13.96.25,0,.55,0,1.13,0,1.12,1.28,1.54,2.51,2.53,3.06,3.82.72,1.71,2.23,2.71,3.12,4.24.9,1.54,2.26,2.8,3.37,4.23.5.64.75,1.59,1.38,2,.58.38.91.68,1.34,1.27.98,1.33,2.49,2.27,3.76,3.4.79.7,1.54,1.46,2.71,2.57-1.32.25-2.08.39-3.12.59-1.25-1.73-3.38-2.5-4.6-4.53-1.17-1.95-3.03-3.47-4.55-5.18-2.96-3.34-5.43-7.03-7.97-10.63-1.63-2.31-3.34-4.71-4.45-7.47-.94-2.33-2.45-4.44-3.37-6.83-.16-.42-.69-.7-1.03-1.04Zm-54.42-39.93c-.55-.27-1.17-.58-2.03-1-.53.74-1.1,1.53-1.94,2.7v1.58c.13-.13.26-.26.39-.38.56.8,1.13,1.59,1.69,2.38,1.15-.75,2.13-1.39,2.96-1.93.62-1.47,1.94-2.94-.22-4.11-.19.18-.45.41-.85.77Zm31.1-.73c-1.29,1.02-2.01,1.6-2.78,2.21h-2.08c-.92,1.05-2.38,1.72-1.57,3.53h4.79c.51-.51,1.12-1.12,1.64-1.64v-4.1Zm-24.34,7.24c.29.03.87.09,1.61.17.62-.63,1.29-1.31,1.83-1.87v-3.11c-.77-.37-1.49-.72-2.27-1.09-.73.73-1.48,1.47-2.28,2.27.34,1.11.68,2.22,1.11,3.64Zm-20.39-3.02c1.87-1.26,3.21-2.17,4.27-2.89v-3.66h-1.37c-1.02,1.03-1.95,1.97-2.9,2.93v3.62Zm50.9-.24c1.47-.54,2.55-.94,3.21-1.18.83-1.18,1.42-2.03,2.19-3.12-.63-.51-1.23-1-1.92-1.57-1.27.65-2.39,1.23-3.48,1.79v4.07Zm-16.54-2.31c-1.56-1.01-2.51.57-3.54.75-.36,1.19-.65,2.16-.94,3.11.71.35,1.32.65,1.95.96.81-.52,1.7-1.09,2.52-1.62v-3.2Z"/>
      <path d="m60.19,114.81c.62-.62.97-.97,1.32-1.32.06-.1.17-.2.17-.3-.11-2.07.02-4.19-.41-6.19-.43-1.96-1.31-3.81-1.08-5.9.08-.75-.34-1.33-.6-1.99-.41-1.05-1.19-2.07-.93-3.38.1-.5-.17-1.2-.51-1.62-1.16-1.46-.9-3.17-.95-4.73-.53-.53-.97-.97-1.49-1.49-.05-1.56.21-3.27-.95-4.73-.34-.42-.43-1.07-.53-1.63-.09-.48.18-1.13-.05-1.47-2.21-3.27-1.29-7.35-2.82-10.8-.41-.93-.16-2.15-.23-3.36h-3.73c-.72-.79-1.21-1.33-1.95-2.14q-.13-1.6,1.36-5.12c.73-.34,1.44-.73,2.2-1.01.32-.12.95-.15,1.07.03.6.9,1.71.38,2.29.82,1.26.97,2.31,2.21,3.62,3.52-.61.72-1.15,1.34-1.75,2.04-.42,3.57.91,7.1.87,10.79-.02,2.17,1.5,4.33,2.07,6.55.77,3.05,2.03,5.93,2.39,9.14.27,2.47,1.33,4.9,2.33,7.23.86,2.01,1.5,3.99,1.31,6.19-.09,1.1.18,2.07.7,3.08.47.92-.14,2.03.48,3.17.58,1.07.3,2.61.39,3.83-.56.56-1,1-1.5,1.5v2.57h5.06c.59-.78,1.3-1.72,2.16-2.86,2.05-.23,4.65.62,6.56-1.51h3.77c.41-.44.84-.89,1.32-1.41h4.42c2.51-2.39,5.7-1.38,8.76-1.62v-3.97c1.49-1.82,2.86-3.49,4.07-4.97,2.28-.06,3.14,1.13,3.64,2.76,1.8.28,1.57,2.6,3.76,3.06,1.2,0,3.34.59,4.79-.15,1.74-.9,3.7.5,5.21-1.1.41-.44,1.68-.16,2.54-.06,4.93.55,9.74-1.11,14.66-.76,2.55-1.23,5.33-.29,7.91-.82,3.64-.75,7.42-.03,10.89-.83,4.07-.94,8.02-.16,12.08-.64.59,2.41-1.84,1.97-2.54,3.02-.12.17-.71.04-1.09.02-6.78-.34-13.48,1.31-20.27.74-1.35-.11-2.56.25-3.82.72-1.56.58-3.18.95-4.92.81-1.74-.14-3.49-.07-5.24-.02-1.54.04-3.06-.18-4.59.66-1.19.65-2.94-.59-4.17.77-.12.13-.48.07-.72.04-4.55-.46-9.01.68-13.24.83-1.47.91-2.76,1.71-4.26,2.63-.26,1.86-1.03,3.7-3.3,4.59-.86.34-1.63.93-2.64,1.52-.92-.64-2.06-1.42-3.23-2.23v-4.23c-2.55,1.19-5.05,2.09-7.72,2.09-1.04,0-1.85.33-2.68.79-2.72,1.51-5.66,2.23-8.75,2.34-.45.45-.89.89-1.33,1.33-1.63.28-3.29-.16-4.96.7-.78.4-2.21-.46-3.5-.79-.48-.48-1.1-1.1-1.72-1.72,0-1,0-1.99,0-2.99Zm37.9-8.38c.37,1.33.67,2.44.91,3.29,1.5-.3,2.61-.52,3.81-.75.02-.45.05-.93.09-1.61-.68-.64-1.44-1.37-2.25-2.14-.83.39-1.45.69-2.56,1.22Zm-4.14,10.01c2.27,1.24,2.69-1.85,4.4-1.39.15-1.64-.25-2.63-1.31-2.82-1.14,1.15-2.08,2.1-3.16,3.19.01.17.04.64.07,1.03Zm-44.87-52.24c.24.11.48.21.72.32.52-.9,1.04-1.8,1.75-3.02-1.01-.08-1.67-.13-2.47-.19v2.89Z"/>
      <path d="m140.03,265.21c-1.21.56-2.05.95-2.8,1.29-.36-.39-.65-.56-.66-.73-.09-2.06-1.13-3.85-2.05-5.5-1.56-2.79-2.22-5.83-3.24-8.77-.78-2.25-.26-4.73-1.44-6.89-.21-.38-.22-1.1,0-1.46,1.21-1.93.42-4.06.74-6.06.46-2.87,1.01-5.65,2.5-8.33.93-1.68,1.91-3.42,2.77-5.19,1.98-4.08,4.52-7.72,8.32-10.5,1.55-1.13,2.29-3.36,3.48-5.22.73.36,1.56.76,2.37,1.17v2.34c-4.31,1.58-4.86,6.07-7.06,9.38-.49-.52-.91-.98-1.32-1.42-2.52.54-1.57,3.64-3.85,4.72.59.27,1.02.46,1.67.76,2.31-.74,5.07-.81,7.95.4.73-1.02,1.47-2.06,2.24-3.15,1.29.32,2.47,1.31,1.77,2.23-1.18,1.54-.33,3.25-1.07,4.83-.67,1.44-.26,3.38-.33,5.09-.01.36.09.82-.09,1.08-1.39,2.09-1.52,4.45-1.37,7.3-1.02-.51-1.69-.84-2.23-1.11-.47-4.39,1.08-8.16,2.25-12.24-.11-.26-.27-.69-.45-1.12-.17-.43-.35-.85-.58-1.41-3.57,2.13-7.16-.78-10.9.06v1.94h8.25c.58.57,1.01.99,1.59,1.55-.4.51-.75.97-1.16,1.51h-6.84c-.82-.43-1.53-.81-2.45-1.3-.45.64-.98,1.42-1.68,2.42.36.42.99,1.13,1.7,1.95h8.45q.11,1.81-.84,3.01c-1.69,0-3.72.56-5.09-.15-1.44-.74-3.22.04-4.54-1.93-.36.84-.62,1.42-1.22,2.82v7.91c1.74,1.38,2.89,3.56,5.19,4.41.74,2.39,3.13,3.38,4.4,5.2v2.65c-.46-.04-.94.06-1.11-.12-1.98-2.16-3.89-4.37-5.86-6.53-.37-.41-.93-.64-1.65-1.12-.56,2.15,1.26,3.17,1.7,4.64.46,1.53.84,3.34,2.12,4.75,1.04,1.14,1.46,2.85,2.4,4.84Z"/>
      <path d="m340.11,240.51v3.11c-2.2.29-4.33.92-6.38.73-1.88-.18-3.67-1.25-5.59-1.95.49-5.84,2.15-11.25,1.51-16.75.97-.65,1.85-1.24,3.2-2.15,2.47.27,5.47.6,8.73.96.04.84.09,1.76.16,2.99-1.2-.31-2.16-.69-3.14-.79-1.23-.13-2.49-.03-3.74-.03h-3.65c.25,1.56-.72,3.2,1.2,4.5,2.87-1.52,6.02-.38,9.21-.86v2.2h-8.41c-.71.74-1.3,1.37-1.9,2,.12.1.28.36.45.37,3.73.02,7.45.02,11.31.02v-9.13c.68-1.24.98-1.79,1.4-2.54.8.72,1.31,1.18,1.91,1.72-1.49,3.21-.21,6.7-1.07,9.77-.92,3.29-.08,6.55-.82,10.05-.69-.34-1.27-.62-2.09-1.02.33-2.11.65-4.18.94-6.08-.55-.56-.89-.92-1.23-1.26-.28.26-.55.51-.81.75-2.93-1.48-6.03-.35-8.9-.83q-1.16,1.6-1.14,4.97c.35.35.71.7.88.88,2.94.99,5.22-.82,7.98-1.61Z"/>
      <path d="m50.33,87.01c.72.72,1.07,1.07,1.52,1.52v4.33c-1.29,2.62-3.14,4.32-6.19,5.01-1.26-1.32-3.91-1.88-4.18-4.68-.25-2.68,1.82-4.04,3.35-5.69.64,0,1.27-.08,1.88.02.49.08.94.37,1.89.78-.97-1.77-1.72-3.14-.42-4.59.25-.27.21-1.06,0-1.44-.79-1.45-1.24-2.79-.02-4.29.23-.29-.17-1.11-.3-1.68-.11-.45-.23-.9-.4-1.32-.48-1.18.73-2.19.16-3.55-.48-1.13-.1-2.63-.1-4.3,1.07.28,1.92.5,2.81.73v19.14Zm-1.32,6c0-1.92-.84-2.65-2.74-2.49-.54.55-1.2,1.24-1.82,1.89.51,2.59.54,2.62,1.81,2.59,1.29-.93,2.08-1.5,2.76-1.98Z"/>
      <path d="m358.09,223.85v3.47c3.6-.15,7.1.61,10.82-.56.65,1.14,2.96.01,3.62,2.23-.6.4-1.22.8-1.89,1.24-.77-.4-1.56-.8-2.91-1.5-2.42.27-5.41.6-7.8.86-.99,1.01-1.66,1.71-2.51,2.58.3.31.77.8,1.25,1.3,2.78-.63,5.23-2.24,8.19-1.51.79.94,2.53,1.59,1.59,3.48-1.53.78-2.21-.46-2.88-1.08-2.44.48-4.72.93-7.28,1.43v7.31c-1.01.34-1.87.63-2.95.99v-19.47c.55-.76,1.37-1.39,2.76-.78Z"/>
      <path d="m175.49,227.38v2.64c-1.22.68-2.4.43-3.55-.22-1.01,1.16-2.33.44-3.49.54-1.33.12-2.68.03-3.96.03-.35,1.81-.79,3.41-.94,5.04-.16,1.71-.04,3.44-.04,5.3h-1.95c-.04-.06-.29-.26-.28-.44.38-4.16-1.04-8.52,1.44-12.98v-3.23c.8-.41,1.6-.82,2.37-1.21.55.34,1.04.64,1.66,1.02,1.19-.61,2.31-1.19,3.19-1.65.92-1.82-.32-2.51-1.16-3.41v-3.08c-.5-.4-1.08-.86-1.4-1.12v-2.38c.62.26,1.01.44,1.41.6.42.18.85.35,1.2.5.35,2.62.7,5.21,1.08,8.04.95.48,1.98,1.02,3.02,1.51.97.46,1.57,1.1,1.39,2.25-1.14-.18-2.46.5-3.42-.72-.14-.18-.73-.11-1.07-.01-1.64.49-3.26,1.03-4.78,1.52-.37-.32-.63-.53-1.12-.95-.4.98-.75,1.82-1.06,2.58.56.54.91.89,1.23,1.2,1-.51,1.99-1.02,2.94-1.5.4.37.66.62,1.09,1.03,1.81-1.63,4.06-.67,6.18-.9Z"/>
      <path d="m142.06,264.24c1.8-.34,3.54-1.31,4.63-3.21,3.28-1.26,4.78-4.72,7.7-6.03.39-3.04.74-5.78,1.11-8.72.79-.55.45-2.61,2.52-2.44.8,2.77-.32,5.27-1.08,7.99.17.17.5.52.83.86,1.1-.86,2.19-1.72,3.53-2.77v-7.07c.95.49,1.62.83,2.2,1.13v9.49c-3.01-.58-5.07,1.98-7.87,2.36-.2.03-.45.3-.52.51-.86,2.82-3.78,3.57-5.59,5.44-1.78,1.84-4.08,3.18-6.4,4.92-.41-.93-.7-1.61-1.07-2.47Z"/>
      <path d="m239.13,184c.72,0,1.24-.11,1.67.03.43.15.77.55,1.33.98v7.59l2.77,2.77c1.09,2.1-.83,3.17-1.54,4.91-1.28.32-2.85.71-4.48,1.12-.87-1.05-1.66-2-2.67-3.23v-3.54c.93-.59,1.82-1.16,2.91-1.85v-8.79Zm.07,14.09h2.75c.29-.72.53-1.31.81-1.99h-3.56v1.99Z"/>
      <path d="m116.99,132.86c.96-.96,1.75-1.75,2.54-2.54,2.33-.7,4.42.25,6.47.85.8,1.17,1.53,2.23,2.29,3.34-1.24,4.75-1.28,5.77-7.61,8.42-1.42-1.14-3.92-1.38-3.6-4.18-2.12-1.9.57-3.81-.1-5.88Zm2.48,2.89v3.9c.68.3,1.2.54,2.01.91,1.44-1.22,3.08-2.59,4.5-3.79.53-2.05-.94-2.66-1.68-3.49h-2.96c-.79,1.04-1.36,1.79-1.87,2.47Z"/>
      <path d="m100.96,116.81c1.02.52,2.05,1.04,3.03,1.54.52.78,1.04,1.56,1.78,2.66v3.07c-1.43,1.46-2.99,3.04-4.42,4.49h-2.54c-1.25-1.52-2.38-2.87-3.7-4.47.59-.97,1.18-1.95,1.77-2.93-1.09-1.8,1.43-1.05,1.64-2.27.14-.84,1.64-1.44,2.45-2.08Zm-2.72,7.16c.89,2.1,2.3,1.83,3.8,1.48.87-1.25,1.93-2.4,1.42-4.24-2.36-.25-3.76,1.16-5.22,2.76Z"/>
      <path d="m372.04,222.04c-.59,1.07-.9,1.65-1.19,2.17-3.67-1.26-7.35-.13-11.32-.77-.41-1.38-1.22-2.9-1.28-4.46-.18-4.59-.06-9.19-.06-13.84.63-.39,1.21-.74,1.98-1.21.95,5.93-.77,11.77,1.16,17.61,1.26-.24,2.39-.45,3.88-.73,1.75.76,3.92,1.65,6.83,1.23Z"/>
      <path d="m236.05,177.26c1.9-2.61,3.4-5.4,6.56-6.61q3.92,3.43,3.98,6.28c-1.35,1.26-2.24,2.96-4.33,3.99h-3.67c-.77-1.1-1.58-2.27-2.55-3.65Zm3.27.6c.38.34.73.66,1.17,1.04,1.05-.6,2.06-1.18,3.16-1.81-.05-.98-.09-1.91-.13-2.69h-2.44c-.64,1.26-1.16,2.28-1.76,3.46Z"/>
      <path d="m366.54,191.54h7.24v1.93c-.24.24-.59.59-.97.97h-2.39c-.34-.46-.78-1.05-1.11-1.51-2.58.16-4.86.16-7.21-1.01v-3.67c-2.84-2.25-2.84-5.88-4.6-8.61-.36-.55.04-1.58.12-2.84.93.71,1.76,1.01,1.98,1.57,1.38,3.4,3.45,6.55,3.99,10.57.71.62,1.63,1.43,2.96,2.61Z"/>
      <path d="m110.27,136.21c-1.55-1.15-2.98-2.22-4.26-3.17-.77-3.43,1.05-5.49,3.17-7.3,1.9-.47,3.28.48,4.76,1.5.36,1.56.72,3.15.99,4.31-1.69,1.69-3.08,3.08-4.65,4.65Zm-1.25-3.06c2.44-.23,2.44-.24,2.85-2.57-.84-.63-1.21-1.99-2.85-1.94v4.52Z"/>
      <path d="m309.61,241.87c-.43-.2-.86-.39-2.04-.94h-5.63c-.96-.98-2.91-.8-2.92-2.72,2.25-1.17,4.25.36,6.35.37,2.06,0,4.09.02,6.22,1.02v4.16h-4.24c-1.37.71-2.3,1.18-3.34,1.72-1.35-.62-2.71-1.24-4.15-1.9v-1.23h9.55c.07-.16.13-.31.2-.47Z"/>
      <path d="m353.56,245.09l-1.01,1.01c-.37-.45-.95-.85-1.06-1.34-.17-.84-.05-1.73-.05-2.61,0-5.11-.04-10.22.03-15.33.02-1.5.36-2.99,1.21-4.8.11.47.21.94.32,1.41.19-.14.38-.29.57-.43v22.09Z"/>
      <path d="m314.26,225.2h2.62v20.12c-2.25.06-2.53-1.9-2.76-3.08-.28-1.43-.38-3.02.34-4.62.56-1.24.19-2.88.3-4.34.07-.9.25-1.78.49-3.39-.04-.16-.3-1.04-.5-1.94-.18-.82-.31-1.66-.5-2.75Z"/>
      <path d="m330.92,208.58h-2.12c1.82-4.72,3.91-9.02,6.88-13.19v-2.04c1.38-1.06,2.25-2.78,4.42-3.66,0,.95.28,1.84-.05,2.23-2.11,2.55-3.32,5.54-4.82,8.43-1.43,2.75-2.8,5.56-4.32,8.22Z"/>
      <path d="m352.37,219.96c-1.23.38-2,.62-3,.93v-16.81c.92.22,1.78.42,2.82.67,0,2.87.03,5.46,0,8.04-.04,2.27-1.86,4.52.19,7.17Z"/>
      <path d="m321.41,209.42v1.76c-1.45.73-3.25,1.08-3.97,2.16-.64.95-1.58,1.21-2.22,1.96-.65.75-1.37,1.44-2.1,2.11-.87.8-1.47,1.96-3.01,1.81-.42-.04-.96.67-1.37,1.1-1.11,1.15-2.19,2.34-3.07,3.28h-2.01v-1.98c1.93.15,2.29-3.03,5.04-2.38,1.83-1.93,3.51-4.42,5.84-5.94,2.08-1.36,3.64-3.8,6.87-3.88Z"/>
      <path d="m299.61,223.34c-1.16-2.03-.18-2.93.78-3.64,3.62-2.67,6.84-5.78,10.22-8.72,1.45-1.26,3.03-2.38,4.87-3.81.49.04,1.4.13,2.83.25-.97,1.11-1.54,2.36-2.22,2.42-1.68.17-2.54,1.25-3.61,2.2-.98.87-2.38,1.41-3.04,2.44-.79,1.24-2.84,1.01-2.94,2.81-1.78.75-3.18,2.02-4.52,3.35-.77.76-1.44,1.62-2.37,2.68Z"/>
      <path d="m152.28,224.76c.53-.53.79-.79,1.19-1.19.37.61.96,1.16,1.01,1.76.13,1.73.05,3.49.05,5.23v10.31c-.88.31-1.74.62-2.68.95-.94-3.08.27-5.75.4-8.47.14-2.86.03-5.73.03-8.6Z"/>
      <path d="m354.24,210.61c-1.14-1.5-.31-3.5-.56-5.14.5-.55.77-1.06,1.18-1.24.41-.18.97-.04,1.54-.04,1.22,5.51-.89,10.86-.44,16.38h-2.33c.29-3.14-.41-6.29.61-9.96Z"/>
      <path d="m336.96,207.1h-2.62c.09-.27.1-.49.21-.61,1.36-1.37,1.68-3.3,2.63-4.9.88-1.48,1.56-3.08,2.26-4.66.7-1.58,1.19-3.23,2.21-4.7.94-1.35,1.71-2.61,3.58-2.15-.25.96-.22,2.28-.75,2.57-.98.53-1.33.95-1.37,2.09-.02.85-1.61,1.16-1.42,2.37.2,1.25-1.22,1.45-1.5,2.37-.27.89-.41,1.83-.78,2.67-.37.85-1.01,1.57-1.43,2.4-.41.82-.7,1.7-1.04,2.55Z"/>
      <path d="m347.7,222.96h2.3c-.17,1.03-.77,2.23-.4,2.82.82,1.28.03,1.97-.36,2.94-.26.64-.05,1.47-.05,2.22,0,3.97,0,7.94,0,11.92,0,.58-.07,1.16-.1,1.73h-.99c-1.63-2.71-1.55-6.05-.39-9.27-.23-.26-.48-.53-.66-.74,1.27-1.79.5-3.8.63-5.69.13-1.95.03-3.91.03-5.92Z"/>
      <path d="m364.79,218.95c-.45.4-.81.71-1.33,1.18-.5-.41-.94-.79-1.56-1.3.34-1.75-.68-3.72.75-5.48.18-.22.18-.84,0-1.08-1.45-1.89-.34-4.05-.83-6.22.44-.33.91-.7,1.58-1.2.36.25.83.58,1.4.97v13.13Z"/>
      <path d="m187.56,248.45h2.02c.06.36.2.75.12.81-1.03.71-2.08,1.9-3.16,1.93-1.55.05-1.88,2.14-3.48,1.62-2.71,1.56-5.44,3.09-8.12,4.72-.36.22-.45.91-1,2.13-.72-1.02-1.12-1.59-1.68-2.38.6-.64,1.06-1.58,1.74-1.78,3.42-1,5.77-3.91,9.16-4.96,1.42-.44,2.71-1.27,4.4-2.08Z"/>
      <path d="m213.25,216.3c.48.38.87.68,1.43,1.13-3.38,4.01-4.78,9.04-7.69,13.6-.06.55-.15,1.46-.29,2.87-1.19-1-1.99-1.68-2.79-2.36,1.13-1.29,3.85-6.38,4.56-7.89,1.24-2.64,2.21-5.5,4.78-7.35Z"/>
      <path d="m158.9,240.69c-.55.4-1.01.74-1.44,1.05-.34-.29-.67-.44-.67-.59-.03-5.8-.02-11.59-.02-17.44h2.13v16.98Z"/>
      <path d="m314.27,225.88c-.41.82-.77,1.54-1.17,2.33-1.23-.82-2.29-1.52-3.43-2.27-4.62,1.48-9.69,1.09-15.01,1.99-.06-.09-.39-.58-.73-1.09,1.19-1.29,2.95-1.62,4.71-1.68,3.22-.11,6.45.02,9.67-.06,1.27-.03,2.53-.38,3.9-.6.17.37.41.88.64,1.38h1.42Z"/>
      <path d="m312.14,231.77c.47,1.04.85,1.87,1.32,2.9-1.4.2-2.57.59-3.55-.53-.8,1.13-2,.61-3.04.73-1.1.13-2.46.75-3.23.32-1.31-.73-1.96.11-2.95.36-1.16.29-2.44.07-3.55.07-.46-.48-.8-.84-1.19-1.25.14-.32.25-.65.42-.95.52-.92,1.49-1.06,2.27-.76,4.57,1.76,8.89.08,13.5-.88Z"/>
      <path d="m361.27,177.65c.38-.44.71-.81,1.1-1.25,2.74,1.5,3.16,4.9,5.52,6.42-.09,2.89,3.11,4.07,3.09,6.76-1.38.96-2.46.36-3.03-.79-1.33-2.7-2.82-5.3-4.52-7.77-.77-1.12-1.47-2.29-2.16-3.36Z"/>
      <path d="m139.19,243.96c2.54,3.88,4.95,7.56,7.59,11.58-1.01.14-1.56.22-2.38.34-2.33-3.14-4.74-6.33-7.07-9.57-.43-.61-.55-1.44-.88-2.36h2.74Z"/>
      <path d="m152.26,253.23v1.75c-.58.03-1.16.07-2.15.12-2.53-3.43-5.19-7.03-8.15-11.06,1.48-.11,2.39-.17,3.19-.23,1.97,3.6,4.47,6.57,7.11,9.42Z"/>
      <path d="m192.15,236.3v-6.29c.88.57,1.45.94,2.08,1.35-.1,2.1-.11,4.15,1.8,5.63.31-.19.67-.41,1.24-.76,1.72,1.64,4.7,1.55,6.28,4.36-1.21.13-2.11.23-2.91.32-.55-.55-.99-.99-1.43-1.42-2.97.12-4.73-2.31-7.06-3.18Z"/>
      <path d="m357.49,192.2c-2.58-.09-3.95-1.65-4.42-3.49-.3-1.18-1.09-1.84-1.43-2.77-.37-1-.68-1.9-1.33-2.82-.84-1.17-1.19-2.69-1.56-3.57.31-.7.57-1.28.75-1.68.61.21.94.22,1.03.37,2.59,4.43,4.29,9.28,6.96,13.95Z"/>
      <path d="m306.07,262.1c-2.9-.37-4.89-.63-6.87-.89v-3.58c1.07.77,1.81,1.3,2.66,1.9h9.04c.04.91.09,1.83.13,2.72-1.39.41-2.61.76-4.15,1.22-.34-.58-.71-1.22-.8-1.38Z"/>
      <path d="m368.09,219.28c-.32-2.94-.61-5.78-.93-8.62-.12-1.04.14-2.04-.57-3.15-.43-.67.39-2.16.65-3.25h2.03c.15,3.98.29,7.9.46,11.81,0,.19.29.37.54.66-.63.8-.46,2.22-2.17,2.54Z"/>
      <path d="m206.19,211.67v1.41c-1.42.03-2.86.03-4.29.1-1.16.05-2.22-.39-3.49-.12-1.31.28-2.81.39-4.29-.25-1.16-.5-2.6-.36-4.24-.55-.24-.39-.64-1.03-1.16-1.88,3.72-.63,6.92.21,10.14,1.04.92.24,1.91.22,2.87.24,1.49.04,2.97,0,4.46,0Z"/>
      <path d="m312.07,231.12c-2.86,0-5.73.12-8.58-.03-2.73-.15-5.44-.57-8.35-.9.53-.61.91-1.04,1.26-1.44,2.23.45,4.26,1.78,6.29.13,3.11,0,6.22-.03,9.32.04.38,0,.74.59,1.45,1.19-.6.08-1.13.15-1.65.21.09.27.18.53.27.8Z"/>
      <path d="m272.36,261.12l1.48-1.48h2.64c0,.44.14.93-.02,1.08-1.73,1.6-3.96,2.31-6.04,3.28-1.65.77-3.48,1.17-5.1,1.99-1.29.65-2.04.18-2.82-.69.28-1.81,2.11-.99,3.07-1.76.84-.66,2.4-.47,3.16-1.17,1.09-.99,2.09-1.62,3.63-1.25Z"/>
      <path d="m352.91,177.13c1.67,1.51,2.64,2.39,3.62,3.27.14,1.09.37,2.04,1.22,2.91.67.68,1.12,1.88,1.1,2.83-.02,1.37.89,1.93,1.44,2.58v3.53c-1.74-2.7-3.23-4.64-4.3-6.79-.88-1.75-1.58-3.58-2.65-5.25-.36-.56-.22-1.43-.43-3.08Z"/>
      <path d="m175.49,225.13c2.4-.58,4.5-1.88,6.46-3.21,2.04-1.38,4.47-1.97,6.27-3.77.54.47.89.78,1.28,1.12-.02.17.03.38-.06.51-1.59,2.35-4.45,2.48-6.72,3.54-1.59.74-3.02,1.67-4.54,2.49-.91.5-1.8,1.04-2.7,1.57v-2.24Z"/>
      <path d="m313.03,254.43c-4.4,3.21-8.86,1.73-13.17,2.18v-2.31c2.24,0,4.45.05,6.66-.02,1.17-.04,2.37.36,3.51-.64.38-.33,1.68.41,3,.79Z"/>
      <path d="m189.87,221.69c1.04,1.73.53,2.59-.42,3.34-1.68-.55-8.6,3.33-11.04,6.28-.44-.39-.87-.78-1.17-1.05.84-.82,1.67-1.65,2.8-2.76,1.96.53,2.5-2.36,4.52-2.93,1.84-.51,3.81-1.01,5.3-2.88Z"/>
      <path d="m369.76,240.84c-.85,2.23-2.32,2.81-3.78,2.94-2.29.2-4.62.05-6.87.05-.29-1.37-.53-2.33,1.3-2.3,1.49.02,2.99-.54,4.5-.67,1.44-.12,2.9-.03,4.85-.03Z"/>
      <path d="m296.85,241.83c-.33.36-.66.72-1.01,1.1-.17-.06-.43-.07-.5-.19-.88-1.61-2.54-2.77-2.4-5,.06-.85-1.06-1.74-1.53-2.67-.34-.67-.51-1.44-.82-2.36h2.28c1,1.73,2.31,3.33,2.49,5.61.09,1.18.95,2.31,1.49,3.52Z"/>
      <path d="m175.83,208.49c1.3.32,2.04.5,2.77.68l2.13,4.71c.41,1.42.82,2.84,1.08,3.77-.31.6-.6,1.15-.88,1.7-2.51-1.17-1.49-3.72-2.6-5.33-1.02-1.47-1.52-3.29-2.49-5.53Z"/>
      <path d="m332.79,185.79c3.24-1.84,6.64-2.05,10.14-1.7.72,1.19.2,2.06-.8,2.85-1.26-1.64-2.49.01-3.75.05-1.49.04-2.98.01-4.57.01-.27-.32-.59-.7-1.01-1.2Z"/>
      <path d="m173.8,232c.41.47.72.83,1.19,1.37-.45.5-.84.93-1.28,1.42h-6.92c-.39-.41-.73-.77-1.21-1.27.32-.47.65-.95,1.04-1.52h7.18Z"/>
      <path d="m189.19,227.36c.42.03,1.24.08,2.34.16-.9,1.77-1.64,3.09-3.86,2.82-.61.74-1.32,1.58-1.99,2.39-2.06-.92-2.69,2.41-4.74,1.2-.76-1.03.29-1.56.87-1.95,2.22-1.49,4.52-2.85,7.39-4.62Z"/>
      <path d="m334.33,210.29c1.31-.08,1.79-.11,2.33-.15,2.31,1.63,3.72,4.21,6.01,5.93.73.56.98,1.76,1.77,3.3-1.12-.39-1.7-.43-2.05-.74-1.03-.9-2.02-1.86-2.91-2.9-.8-.94-2.35-1.12-2.62-2.58-1.6-.12-1.26-1.67-2.52-2.87Z"/>
      <path d="m293.6,243.58c-.28.3-.6.67-1.06,1.17-1.11-.69-2.07-1.28-2.56-2.73-.66-1.93-1.79-3.71-2.89-5.88.2-.25.63-.78,1.06-1.33,1.92.15,2.19,1.86,2.54,3.03.33,1.14.84,2.13,1.38,3.14.48.89,1.03,1.75,1.53,2.6Z"/>
      <path d="m243.53,262.17v3.13c-3.19.37-6.28.73-9.37,1.09-.46-.78-.8-1.36-1.4-2.37,2.27,0,4.14.22,5.93-.07,1.55-.25,3-1.08,4.84-1.79Z"/>
      <path d="m341.1,208.27c1.91,1.31,3.67,2.14,3.66,4.55,1.28,1.31,2.61,2.69,4.3,4.43-1.07.25-1.59.38-2.19.52-2.6-1.83-4.18-4.46-5.74-7.1-.29-.5-.04-1.31-.04-2.39Z"/>
      <path d="m338.58,218.65v2.38c-1.44-1.2-2.64-2.09-3.7-3.11-1.14-1.1-2.15-2.33-3.52-3.85v-2.35c.44.03.91-.08,1.08.1.65.69,1.32,1.41,1.74,2.24.4.8,1.45.64,1.79,1.81.32,1.14,1.79,1.96,2.61,2.79Z"/>
      <path d="m299.15,199.69v-2.85c1.7-.34,3.54-.72,5.85-1.18.5-.41,1.15-1.73,2.73-1.05.27.53.59,1.15.92,1.79-.5.26-1.1.57-1.77.92-.26-.17-.63-.41-1.18-.76-1.03.74-2.01,1.63-3.14,2.2-.99.49-2.17.62-3.4.95Z"/>
      <path d="m177.99,220.48c-.78.1-1.24.15-1.61.2-3.2-1.06-2.49-4.77-4.48-6.35v-2.73c.51.12.99.09,1.14.3.62.84,1.17,1.74,1.68,2.65,1.02,1.81,2,3.64,3.26,5.93Z"/>
      <path d="m209.8,241.45c.32-1.35.84-1.92,1.97-2.16.87-.18,1.63-.85,2.66-1.43h5.13c.04.67.08,1.34.15,2.43-1.26-.34-2.21-.61-3.22-.88-2.02.79-3.77,2.68-6.69,2.04Z"/>
      <path d="m180.5,208.85h2.87c1.12,2.1,2.46,4.35,2.63,7.19h-2.11c-.45-2.49-2.24-4.54-3.39-7.19Z"/>
      <path d="m283.28,238.25c1.19.56,1.91.9,2.78,1.3-.18,2.32,3.01,3.52,2.38,6.47-.51.02-1.1.05-1.67.07-1.41-1.71-3.35-5.92-3.49-7.84Z"/>
      <path d="m189.37,239.59c-.67-1.03-1.25-1.91-1.93-2.95.35-1.42-.76-3.26,1.17-4.74.35.35,1.01.7,1.05,1.1.11,1.34.13,2.47,1.26,3.61.99,1,.13,2.19-1.55,2.98Z"/>
      <path d="m191.86,239.51c.99-.07,1.9-.13,2.79-.19.22.55.39.97.61,1.52h3.8c1.03.9,1.63,1.74.7,3.13-1.79-1.26-3.99-1.51-6-2.33-1-.41-1.67-.79-1.89-2.13Z"/>
      <path d="m197.86,230.27v5.25c-.69-.29-1.28-.54-2.06-.86-.34-1.71-.7-3.55-1.03-5.23.56-.56.91-.91,1.33-1.33.54.66,1.07,1.33,1.75,2.17Z"/>
      <path d="m325.91,214.25c2.76,1.23,4.09,3.7,6.03,5.22v1.6c-.2.04-.43.17-.54.11-3.75-2.34-4.96-3.84-5.49-6.93Z"/>
      <path d="m206.76,237.76c-1.29.06-1.77.08-2.18.1-1.29-1.56-2.54-3.08-3.8-4.6,1.42-1.63,2.43.18,3.59.15.71,1.29,1.41,2.58,2.39,4.35Z"/>
      <path d="m362.55,201.07h-12.42c-.1-.12-.2-.24-.3-.36.46-.12.92-.24,1.38-.35,3.58-1.35,7.38.7,11.34.71Z"/>
      <path d="m192.82,254.79c-.6-.6-1.47-1.47-2.34-2.33.03-1.17-.42-2.49,1.27-3.38.85,1.48,1.72,3,2.75,4.8-.61.33-1.15.62-1.69.92Z"/>
      <path d="m373.08,200.4v1.64c-3.01-.37-5.91-.72-8.81-1.07,2.91-.77,5.84-.36,8.81-.56Z"/>
      <path d="m302.52,264.98c-.56-.69-.99-1.21-1.54-1.88.5-.27.81-.59,1.04-.54.98.22,1.93.55,3.25.95-1.01.54-1.72.92-2.75,1.47Z"/>
      <path d="m236.4,15.72h13.35c.83.56,1.46,1.3,2.21,1.44,3.02.55,4.99,2.66,7,4.61,1.95,1.89,3.15,4.35,3.99,6.93.51,1.57,0,3.24.75,4.93.63,1.44.13,3.38.13,5.2-1.32-.25-2.47-.73-3.55-.6-.97.11-1.81,1.13-2.79,1.32-1.51.29-2.91.8-4.31,1.38-.11.04-.19.19-.29.2-.25.03-.5,0-.75,0h-4.14c-2.87-1.71-5.56-3.15-8.07-4.84-2.68-1.8-3.8-4.81-5.31-7.83,0-2.42.1-5.16-.03-7.9-.09-1.81.48-3.27,1.8-4.85Zm24.44,14.28c-.62-1.16-1.17-1.94-1.48-2.8-.98-2.79-2.36-4.62-5-6.37-2.88-1.91-5.85-2.87-8.88-2.88-1.49,0-2.99.05-4.47-.03-.54-.03-1.05-.38-1.53-.56-.58.3-1.2.61-1.59.81-1.36,4.12-1.36,8.13.04,12.38,1.02,1.11,2.22,2.55,3.57,3.84,1.31,1.25,2.77,2.35,4.44,3.75h11.54c.78-.84,1.57-1.72,3.02-1.58.38.04.83-.77,1.34-1.28-.4-.53-.68-.9-1-1.32v-3.95Z"/>
      <path d="m224.86,97.23c.67,1.29,1.15,2.21,1.73,3.34-.48.37-.96.74-1.66,1.27-.72-.6-1.53-1.29-2.15-1.81-.41-1.74.2-3.26-.76-4.84-.73-1.2.45-3.14-.85-4.48.34-3.41-.81-6.58-1.42-9.85-.41-2.17.08-4.48-.12-6.7-.19-2.07-.77-4.11-1.27-6.58.13-.04.77-.23,1.41-.42-.14-.27-.28-.53-.42-.8.85.32,1.7.63,2.65.98-.66,5.64,1.11,10.91.73,16.32-.11,1.61,1.05,3.18.69,4.92,1.45,1.32.04,3.34.85,4.47,1.13,1.58.23,3.13.59,4.19Z"/>
      <path d="m230.51,67.23c.89.65,2.39.24,2.68,1.97.05.3.5.53.76.8,1.07,1.12,2.44,2,2.44,3.87,0,.43.83.86,1.25,1.26v1.8c.64,1.23,1.05,2.06,1.5,2.88.4.72.84,1.42,1.45,2.45v2.36c1.7,2.48,2.87,4.99,3.2,7.93.37.37.81.81,1.29,1.29v3.08c.42.31.91.68,1.54,1.15,0,.74-.1,1.47.03,2.16.11.54.5,1.03.96,1.91-.42.44-.89.93-1.22,1.27-.7-.26-1.05-.28-1.11-.42-.69-1.72-1.52-3.4-1.65-5.29-.11-1.59-1.47-2.54-1.91-4.08-.79-2.76-2.01-5.4-2.6-8.25-.14-.67-.37-1.36-.75-1.92-1.77-2.63-2.57-5.66-3.77-8.52-.58-1.38-1.67-2.55-2.52-3.81-.72-1.06-1.43-2.12-2.15-3.17.2-.23.39-.47.59-.7Z"/>
      <path d="m215.92,71.67c0,4.67,0,8.77,0,12.87,0,2.63-.22,5.29,1.32,7.66.12.18.17.44.17.67,0,4.18,0,8.37,0,13.01-1.03-.63-1.61-.99-2.11-1.3-.06-.37-.11-.6-.13-.84-.14-2.18.06-4.45-.5-6.52-.53-1.97.53-4.17-1-5.91-.29-6.7-.58-13.4-.89-20.52,1.3.37,2.16.6,3.14.88Z"/>
      <path d="m233.14,91.62c.44.44.88.88,1.45,1.44v2.99c1.64,1.65,1.71,3.5,1.46,5.64-1.56.17-2.02-1.21-2.91-1.85v-2.99c-.45-.45-.89-.89-1.33-1.32-.05-.1-.17-.21-.16-.3.56-2.97-1.8-5.37-1.58-8.34.08-1.16-.7-2.39-1.25-3.53-.19-1.97-.04-3.93-1.37-5.81-.66-.94-.3-2.59-.34-3.23-.67-2.49-2.51-3.83-2.13-6.15h2.08c1.64,2.44,2.49,5.34,3.04,8.3.18.94.43,1.79.72,2.69.5,1.55,1.14,3.13.85,4.89-.24,1.5.38,2.79,1.47,3.85,0,1.24,0,2.49,0,3.73Z"/>
      <path d="m238.44,69.24v-1.79h1.87c.37.57.68,1.42,1.29,1.91,2.08,1.68,1.74,1.91,3.63,4.77,1.77,2.67,1.9,6.06,4.23,8.37-.7,2.25,2.07,3.44,1.7,5.68-.2,1.21,2.02,1.56,1.45,3.11,1.5,1.56,1.55,3.89,2.94,5.61-.34.39-.71.83-1.25,1.45-1.18-1.12-2.68-1.64-2.44-3.5-2-2.38-2.61-5.4-3.7-8.18-1.1-2.78-3.31-5.18-3.04-8.46-2.03-2.03-2.32-5.22-4.72-7.02-.69-.52-1.25-1.22-1.96-1.93Z"/>
      <path d="m253.47,74.58c1.01,1.94,1.39,3.67,2.46,4.47,1.4,1.04.76,2.76,1.99,3.75,1.02.82,1.41,2.08,1.49,3.48.04.72.61,1.61,1.21,2.06,1.25.94.97,2.13.93,3.59-.56.03-1.13.07-1.85.11-.61-1.31-1.6-2.62-1.75-4.01-.16-1.54-2.18-2.04-1.69-3.87.13-.5-.96-1.26-1.39-1.97-1.94-3.18-3.61-6.54-6-9.44-.68-.83-1.31-1.7-1.97-2.53-1.05-1.31-2.19-2.55-3.11-3.94-.3-.46-.05-1.29-.05-2.27,4.83,2.64,6.51,7.56,9.73,10.58Z"/>
      <path d="m245.9,24.5c-1.03.61-1.83,1.08-2.64,1.56-.92-.92-3.16-.79-2.53-3.39.48-.43,1.19-1.07,1.94-1.73,2.02,0,2.84.84,3.23,3.56Z"/>
    </g>
  </g>
</svg>
