<?xml version="1.0" encoding="UTF-8"?>
<svg id="Layer_2" data-name="Layer 2" xmlns="http://www.w3.org/2000/svg" viewBox="0 0 447.89 250.39">
  <g id="Layer_1-2" data-name="Layer 1">
    <style>
      path{
      fill:#80FFFF;
      }
    </style>
    <style>
      @import url(../css/art.css)
    </style>
    <g>
      <path d="m196.26,111.27c.36,1.25-.71,1.72-1.34,2.48-.96,2.18,1.21,3.67,1.42,5.92-.7.75-1.52,1.63-2.58,2.76.33.61.7,1.33,1.1,2.02.41.71.84,1.4,1.29,2.14-.88,1.85-1.73,3.79-1.35,5.95-.5.5-.94.94-1.51,1.51v5.31c-.66.28-1.19.51-2,.84-1.51-1.24-3.34-2.51-4.89-4.08-1.75-1.76-1.67-2.89-.68-5.11.27-.6.25-1.04,1.06-1.11.39-.03,1.05-.6,1.05-.93,0-2.45,2.13-3.58,3.16-5.38-.58-.75-1.16-1.51-2.2-2.86.08-2,2.03-3.64,3.73-5.37,0-.18.05-.34,0-.43-.42-.59-.86-1.16-1.42-1.92v-4.57c1.39-.92,2.76-1.82,3.9-2.57.83-1.7,1.6-3.25,2.51-5.1-3.11-1.32-6.77-2.58-9.04-6.2-2.55,3.88-4.97,7.57-7.43,11.31-1.34.34-2.37-.03-3.58-.96-2.31-1.78-4.93-3.16-7.78-4.93-1.87.03-3.08,3.09-6.25,1.99-.23-.3-.83-1.06-1.61-2.05v-1.82c.64-.51,1.4-1.27,2.3-1.79,2.53-1.46,3.83-3.89,5.06-6.33.34-.67.05-1.65.05-3.38-2.44,5-6.8,6.5-10.55,9.23-1.15-1.47-2.22-2.83-3.3-4.2-2.92,1.73-5.26,3.97-8.66,4.81-.39-.36-1.12-.69-1.2-1.15-.51-2.65-2.12-5.04-1.74-7.92.11-.85-.47-1.77-.69-2.68-.22-.91.42-2-.54-2.77.06-3.48-.99-6.78-1.67-10.14-.28-1.38-.09-2.78-.73-4.19-1.58-3.48-.55-7.25-.81-10.88,1.58-1.7,1.44-4.1,2.46-6.1,1.46-2.85,3.3-5.37,5.02-8,.25-.39.39-.86.69-1.2,2.98-3.33,6.03-6.65,9.51-9.43,3.69-2.94,7.73-5.44,11.53-8.24,3.49-2.57,7.41-4.36,11.21-6.38,2.17-1.16,4.78-1.07,6.8-2.57,1.53.52,1.82-1.46,3.12-1.53,1.03-.05,2.05-.38,3.21-.61.23.16.6.44,1.18.86,1.51-1.72,3.53-1.8,5.6-1.73,1.07.04,2.03-.11,3.1-.65,1.94-.98,4.2-.95,6.39-.84,3.34.17,6.79-.59,9.91,1.42.53.34,1.46.13,2.2.07,2.56-.21,4.93.54,7.34,1.25,1.26.37,2.66.26,3.89.61,2.5.88,5,1.75,7.5,2.64,2.39.86,4.73,1.89,7.17,2.56,1.91.53,3.87.96,5.54,1.98,1.02.62,1.79,1.38,3.11,1.61.89.16,1.42,1.72,2.8,1.32.42,1.8,2.41,1.39,3.45,2.44,1.04,1.04,2.56,1.59,3.82,2.44,1.96,1.33,3.87,2.72,5.79,4.09,1.52,1.09,2.86,2.38,4.54,3.32,1.66.93,2.91,2.55,4.51,3.61,4.39,2.9,7.48,7.14,11.3,10.63.68.62,1.08,1.53,1.61,2.31s1.02,1.59,1.59,2.33c2.63,3.4,5.4,6.71,7.89,10.21,1.36,1.91,2.75,3.81,4.06,5.75,1.71,2.53,3.28,5.15,4.96,7.71,1.52,2.32,2.66,4.89,4.03,7.28,1.4,2.45,2.32,5.05,3.36,7.6,1.18,2.9,2.23,5.88,2.53,9.05.04.45.32.87.42,1.31.34,1.48,1.26,2.8,1.08,4.43-.16,1.44.93,2.62.82,4.18-.11,1.47.53,2.99.86,4.61l1.23,1.23c.05.83.09,1.67.15,2.7.69-.04,1.53.17,1.82-.14,1.74-1.9,4.13-2.75,6.31-3.82,1.28-.63,2.21-1.68,3.51-2.19.96-.38,2.07-.7,2.75-1.41.6-.62,1.01-1.3,1.85-1.77.94-.52,1.62-1.52,2.42-2.32.71-.7,1.49-1.35,2.1-2.13.63-.82,1.08-1.79,1.62-2.69,1.4-2.29,3.14-4.44,4.14-6.89,1.09-2.67,2.82-5.08,3.34-7.96.26-1.43,1.2-1.7,2.45-1.61,2.69,3.5,3.36,8.03,5.79,12.16-.05.62-1.09,1.38-.48,2.83.86,2.03,1.35,4.26,1.27,6.6-.17,4.89,1.24,9.72.71,14.64-.34,3.16-.95,6.26-1.77,9.35-.98,3.72-2.82,7.07-3.95,10.91.15.6.37,1.44.56,2.19q-4.03,2.93-4.58,5.05c3.76,2.35,6.16,6.17,9.2,8.79.81,2.2,1.53,4.13,2.26,6.11.98-.34,1.74-.79,2.51-.84,6.13-.35,12.27-.61,18.32-.9,1.46-1.46,2.95-2.95,4.3-4.3h3.77c1.92-1.92,3.67-3.66,5.01-5.01,2.13-.43,3.68-1.13,5.11-.94,1.51.21,2.98.81,4.34.63,1.23.88,2.34,1.59,3.36,2.4,3.01,2.4,4.65,5.64,5.46,9.32.34,1.56,1.3,1.88,2.78,1.72.55-2.89,3.28-4.01,5.1-5.94h2.37c.61.91,1.26,1.89,1.94,2.91h6.03c1.22.88,2.45,1.78,3.37,2.45.5,1.82-.59,2.42-1.33,3.21,1.49,1.19,2.99,2.38,4.43,3.53v3.85c1.68,1.15,2.98,2.5,3.07,4.62-1.39.68-2.63,1.18-4.16,1.17-2.02,0-4.03.46-6.05.68-1.82.2-3.58-.55-5.31-.62-2.49-.1-4.97-.3-7.59.46-3.2.93-6.66-.3-9.93-1.06-1.97-.46-3.83-1.23-5.94-1.06-2.11.17-4.24.04-6.35.04-.45.45-.89.89-1.53,1.53-2.55-.3-5.32.49-8.06-.71-.74-.32-1.86.19-2.79.34-.58.09-1.17.38-1.73.31-1.52-.2-2.79.42-4.09,1.01-1.93.88-2.3.78-4.11-1.15.95-.68,1.86-1.34,2.58-1.86,2.09-.34,4.13-.3,5.8-1.05,1.93-.87,3.82-.46,6.01-.72-.3-1.91-.4-3.9-.97-5.74-.59-1.92-1.53-3.73-1.18-5.74-.44-.44-.79-.79-1.16-1.16-5.1,0-10.21-.03-15.32.02-1.16.01-2.33-.32-3.51.63-.56.45-1.96-.14-3.21-.28.4,2.11,1.04,4.33,1.88,6.63.81,2.24.93,4.79,2.15,7.16h4.12c.35.88.7,1.73,1.22,3.04h-8.16c-2.62,0-5.24.01-7.86,0-2.66-.01-5.28-.13-7.95-.64-2.53-.48-5.23-.19-7.84-.08-2.52.11-5.14-.57-7.69.64-1.1-1-2.76-1.02-4.01-.58-2.9,1.03-5.81.46-8.7.67-1.42.1-2.96-.48-4.19.73-.06.06-.24.02-.37,0-1.37-.19-2.94-.89-4.06-.45-1.5.59-2.88.29-4.31.4-.34.03-.73-.52-.95-.69-.99.29-1.76.67-2.55.71-2.12.09-4.24.1-6.36.02-5.66-.22-11.23,1.16-16.92.85-1.9-.11-3.86.78-6.19,1.3-.03-.02-.41-.28-.83-.57-1.07.22-2.2.59-3.35.63-1.11.04-2.06.34-3.07.75-1.2.48-2.15-1.37-3.69-.43-.93.57-2.34.44-3.53.45-6.36.04-12.73,0-19.09.04-1.04,0-2.25-.49-3.11.63-.1.13-.47.13-.7.08-1.03-.22-2.35-1-2.99-.62-.95.58-1.81.56-2.76.64-1.17.1-2.31-.17-3.5.64-.69.47-2.2.14-3.14-.28-1.4-.63-2.51-.46-3.67.39-.64-.25-1.27-.62-1.93-.72-.85-.13-1.74,0-2.62-.04-4.89-.24-9.83-.12-14.64-.89-2.68-.42-5.3-.41-7.95-.63-.91-.08-1.79-.67-2.69-.67s-1.79.62-2.69.64c-.77.01-1.55-.68-2.31-.65-1.9.07-3.88-.53-5.71.65-.53.34-1.46.05-2.21.05h-5.67c-1.22-1.94-2.27-4.06-3.73-5.84-1.52-1.85-2.66-3.85-3.33-6.12h-3.85c.08-3.33.09-6.55-1.44-9.52-.25-.49-.07-1.23-.03-1.85.14-2.3-.43-4.44-1.08-6.65-.57-1.95-.41-4.11-.59-6.43-1.62-.28-3.34-1.58-5.24-.93-2.35.81-4.78,1.1-7.5,1.74.36.47.58.93.95,1.17.27.17.95-.12,1.07.06.96,1.41,2.4,1.38,3.86,1.63.85.14,1.6.95,2.45,1.49v1.81c-1.15.53-2.26,1.09-3.65,1.09-1.69,0-3.24.61-3.89,2.61,2.86,1.1,5.51-.43,8.29-.52v2.18c-2.79,2.04-6.49,2.95-9,5.95,2.61.65,4.69-.49,6.84-.97,1.37-.3,1.33-.45,2.89.66-1.37,2.01-2.73,4.02-4.3,6.32v4.94c1.09,1.92,2.34,3.53,4.88,4.56,2.59,1.05,4.43-.97,6.55-.35,1.27-1.56,2.43-3.13,4.84-2.98v2.52c-1.15.73-2.31,1.5-3.52,2.2-1.1.64-2.26,1.19-3.96,2.07-1.41-.14-3.41-.33-5.72-.56-.53.87-1.97,1.42-2.47,2.99-.38,1.19-1.37,2.18-2.22,3.44.4,1.67,1.49,3.54.07,5.52-.74,1.02-1,2.43-1.84,3.32-1.05,1.11-2.48,1.86-4.4,3.22h-3.2c1.38,2,2.59,3.69,2.61,5.67.01,1.88-.52,3.77-.86,5.94-1.34,1.66-3.04,3.27-5.64,3.42-.11.4-.19.74-.32,1.21h-2.62c-.09-.27-.24-.7-.43-1.25h-2.55c-.37.37-.81.81-1.25,1.25-.59-.27-1.19-.55-1.99-.92-.52-1.45-.69-3.45-1.77-4.61-1.29-1.39-.91-3.61-2.91-4.47,1.9-3.92,3.71-7.68,8.35-7.9,1.4,1.39,2.52,2.51,3.82,3.81-.85.33-1.7.67-2.64,1.04-.25-.7-.4-1.14-.58-1.67h-2.51c-1.03,1.03-2.09,2.08-3.21,3.2v2.46c1.11.85,2.42,1.86,3.83,2.94-.33.66-.63,1.27-.98,1.97.33.37.64.72,1.06,1.19.76-.38,1.53-.77,2.39-1.2.66.34,1.45.75,2.3,1.18.68-.41,1.49-1.34,2.24-1.3,2.81.15,2.58-2.33,3.61-3.73,1.06-1.44.29-2.72-.31-3.98-.45-.95-1.06-1.82-1.62-2.75h-2.38c-2.93-2.53-3.46-6.54-6.2-9.25,1.31-2.17,2.32-4,3.51-5.71.7-1.01,1.84-1.7,2.91-2.26.45-.24,1.3.27,2.14.48.14-.15.47-.51.96-1.06-1.19-.86-2.41-1.73-3.53-2.54-2.08.64-3.57,2.61-6.08.94-1.12-.75-3.16-.13-5.06-.13-.66.99-2.05,1.15-3.08,1.78-1.34.82-2.74-.11-3.85.69-1.31.95-2.4.71-3.64-.18-.33-.24-1.13.13-1.71.26-.57.12-1.14.44-1.69.41-1.36-.09-2.55.44-3.82.73-4.62,1.06-9.12,2.83-14.04,2.33-2.35-.24-4.74-.04-7.26-.04-.67-.87-1.4-1.8-2.38-3.07-.43.17-1.25.33-1.85.78-.61.46-1.4.54-1.88.87-2.63,1.8-5.55,1.4-8.42,1.41-5.61.03-11.22,0-16.3,0-1.76.97-3.07,1.73-4.41,2.43-1.23.64-2.49,1.2-4.34,2.08-2.06-.14-4.55-1.11-6.89-2.48-2.07-1.22-4.11-2.36-6.65-2.04-.74.09-1.5-.01-2.24.02-5.39.24-10.85.04-16.14.89-4.06.65-8.05.44-12.07.56-1.9.05-3.51.42-4.92,1.75-.45.43-1.28.47-1.84.66-.51-.51-.86-.86-1.34-1.34.31-.67.64-1.39,1.06-2.31,1.12-.75,2.59-1.22,4.19-.96,3.09.5,5.99-.92,9.05-.79,2.99.13,6.08.48,8.96-.09,3.17-.63,6.36-.18,9.42-.77,1.77-.34,3.53-.48,5.25-.64.32-.32.58-.58.89-.89-.02-.14.01-.37-.08-.48-2.49-2.79-3.31-6.17-3.45-9.79,1.16-1.5.62-3.26.88-4.84,1.52-3.82,3.37-7.42,7.31-10.11.05,0,.64-.05,1.23-.1.32-.62.64-1.24.77-1.5-.18-1.03-.45-1.82-.43-2.61.05-1.82.07-3.66-.81-5.28-.81-1.49-.73-3.02-.7-4.57.06-3.01-.61-5.86-1.34-8.78-.5-2.01-.69-4.37.32-6.48.05-.11.24-.17.25-.27.29-2.75.56-5.5.87-8.59-3.06.48-4.92-1.49-6.97-3.31-.48.81-.8,1.39-1.17,1.95-.38.58-.8,1.14-1.48,2.12-.98.26-2.44.64-3.89,1.02-.02.23-.05.47-.1.91,1.9.41,3.82.82,5.63,1.2,1.1,1.31,2.17,2.58,3.3,3.91.77,3.96-1.83,7.06-2.96,10.37-1.58,1.01-3.07,1.96-5.18,3.3h5.12c1.98,1.28,3.3,2.73,4.58,4.36v2.99c-.93.84-1.94,1.76-2.95,2.68.28,2.81-1.77,4.16-3.27,5.77-1.51.5-2.31-.49-3.2-1.56-1.36.31-2.74.63-4.35,1-1.57-1.86-2.73-3.93-2.77-6.53-.44-.44-.88-.88-1.36-1.36v-2.32c1.08-1,2.27-2.09,3.73-3.45h1.71c-.45-.84-.77-1.42-1.1-2.03h-3.56c-2.24-1.03-2.51-3.28-3.77-5.07v-5.87c1.02-1.27,1.99-2.85,3.32-4.01,1.27-1.11,3.13-.89,4.84-1.06-1.64-.96-2.63-2.59-4.72-2.89-1.27-.18-2.38-1.48-3.47-2.22v-5.68c1.88-2.14,3.89-4.43,5.99-6.83,2.21.61,3.21-2.67,5.5-1.34,1.15.56,2.3,1.12,3.42,1.66.06.29.14.63.22,1h1.97c2.19-1.39,4.16-2.65,6.48-4.12.55,1.17.97,2.06,1.61,3.43-3.29-.31-4.81,1.65-6.43,3.33-.61,4.16,2.51,5.14,5.5,6.47,1.71-1.85,2.48-4.12,2.68-6.61.28-3.51.21-7.08.88-10.51.32-1.66.57-3.28.63-4.95.01-.35.01-.81.22-1.02,1.69-1.65.68-4.53,2.77-5.97-.54-2.4,2.11-4.07,1.5-6.48,2.01-2.6,1.94-6.69,5.73-8.03.85-2.3,2.94-3.55,4.52-5.22,2.24-2.37,2.3-2.31,6.34-3.65.43-.14.73-.63,1.15-.85,1.64-.85,3.11-1.95,5.1-2.21,1.79-.23,3.5-1.15,5.58-1.89.32-.61.21-1.47-.73-2.17-.96-.72-1.8-.46-2.5.24-.65-.25-1.29-.49-2.03-.77-2.45,2.06-4.85,4.08-7.43,6.25-.36-.23-.84-.53-1.41-.89-1.62.8-3.15,2.07-5.05,1.52-.31,1.78-.58,3.28-.75,4.24-2.28,2.08-4.15,3.78-6.24,5.7-1.23-.53-2.61-1.12-3.96-1.7q-2.21.73-5.04.01c-1.45-2.83-2.23-5.77-.71-8.77.79-1.56,1.93-2.97,3.05-4.33.3-.36,1.1-.31,1.58-.42,1.62-1.3,3.21-2.57,4.76-3.81.8.4,1.41.7,2.09,1.04,1.05-2.79,2.08-5.46,5.03-6.55,1.3-.48,2.71-.67,4.04-1.1.77-.25,1.46-.73,2.74-1.39h3.4c.61.76,1.41,1.75,2.37,2.94,2.97.21,2.67-3.94,5.87-4.53.53.32,1.51.91,2.27,1.37,1.07-1.07,2.11-2.11,2.83-2.82h3.59c2.03,1.14,2.86,3.15,3.55,5.55,1.37-1.37,2.27-2.57,3.44-3.37,1.49-1.02,2.95-2.31,5.14-.86,1.19.79,2.94.72,4.72,1.1.65.91,1.48,2.07,2.39,3.35v3.46c-.96,4.22-4.32,4.54-7.07,5.97,4.14,3.12,9.39,3.34,13,6.76-.02,1.02.5,2.17-.67,3.03.33.35.66.69.92.97.72-.6,1.43-1.19,2.24-1.86-.28-.83-.54-1.6-.86-2.54.46-.93,1.02-2.07,1.64-3.33-2.04-.31-3.9-.6-5.59-.86-.73-1.08-1.32-1.95-2.07-3.06v-5.11c3.16-2.47,5.27-6.5,9.28-7.89,3.75,1.43,4.98,4.73,7.12,7.38v2.77c-1.49,1.46-3,2.94-5.04,4.95,1.94-.38,3.21-.63,4.65-.91.45.62.89,1.22,1.4,1.93,1.06-.37,1.92-.68,2.84-1,1.51.79,3,1.61,4.32,2.9,1.13,1.09,1.71,2.13,1.57,3.56-.33,3.24-4.83,8.49-7.95,9.2-1.49.34-3.04.38-5.13.62-.21-.18-.85-.7-1.49-1.24h-2.36c-.7,2.86-1.37,5.59-1.94,7.9,1.04,1.59,1.81,2.76,2.73,4.17-1.94,1.61-3.75,3.12-5.86,4.87.75.49,1.37.9,1.9,1.25-.3,2.36-1.34,4.27-2.01,6.2-.72,2.1-1.24,3.99-.89,6.89,1.08-1.95,2.02-3.18,2.47-4.58.47-1.45,1.46-2.09,2.67-2.56,1.19-.46,2.43-.78,3.84-1.23,1.89,2.2,3.78,4.38,5.84,6.78-.22.86-.72,1.99-.71,3.11,0,.99.58,1.98.98,3.22-1.56,1.28-3.03,2.49-4.67,3.84v3.66c-1.1,1.1-2.07,2.07-3.14,3.13,2.3,1.86,3.65,4.15,2.82,7.41-1.96,1.76-1.12,5.05-3.53,7.16-.94.19-1.9-.11-2.31-1.65-.23-.88-.78-1.68-1.44-3.03v-6.21c.92-.85,1.92-1.78,3.11-2.89-1.06-.5-1.92-.92-2.89-1.38-.29-.58-.66-1.3-1.05-2.08.28-.49.57-.99,1.01-1.73-1.38-.79-2.63-1.58-4.21-1.19-.63-.94-1.22-1.82-1.96-2.91v-2.09c.36-.12.78-.25,1.47-.48,0-.38,0-.84-.04-1.34,0,.01.06.06.11.11l.61-.52-.24-.24c-.17.2-.35.41-.48.64-1.07.03-2.17.03-3.44.03-.39-.47-.86-1.03-1.25-1.49h-2.37c-1.99,1.59-2.49,4.73-6.05,5.12-.82-.52-2.07-1.33-3.32-2.13v-1.15c-.49-.22-1-.45-1-.45-.61-1.24-1.03-2.07-1.5-3.03-.59.62-.9.96-1.19,1.26,1.14,1.28,1.31,3.55,3.69,3.38,0,.62,0,1.24,0,1.79-1.15,1.18-2.27,2.32-3.37,3.45h-9.74c-.84-.87-1.7-1.75-2.6-2.67-.09-1.11.09-2.21-.96-3.29-.79-.81-1.02-2.28-1.26-3.51-.19-.97-.66-1.49-1.39-1.75-1.04-2.11-2.17-4.1-3.44-6.37,1.48-.74,2.8-1.39,4.02-2-.4-.79-.71-1.39-1.01-2-1.64,1.45-3.3,2.9-5.16,4.55,1.44,1.93,2.87,3.89,4.37,5.8.14.18.71.02,1.23.02-.67,2.19.77,3.84,1.47,5.69.44,1.17,1.12,2.26,1.22,3.7.86.7,1.72,1.4,2.38,1.94.11,1.39-.33,2.6,1.09,3.49h2.45c.27-.29.69-.74,1.16-1.26h4.02c.41.41.85.85,1.37,1.37,2.01.36,3.1-1.38,4.52-2.28,1.51-.96,2.78-2.3,4.24-3.36.43-.32,1.14-.27,1.7-.38.4.42.74.78,1.14,1.2v3.87c-.42.33-1.01.78-1.78,1.39.64.17,1.04.43,1.3.32,1.71-.69,3.39-1.46,5.12-2.22.82.57,1.69,1.16,2.92,2.01-.1,1-.23,2.35-.37,3.87.32.05,1.01.16,1.9.3-.26,1.3.42,2.66-.86,4.06.56.34,1.16.72,1.81,1.11-.46,1.01-.8,1.73-1.2,2.59-1.05.55-2.29,1.19-3.54,1.83.32.57.53.95.75,1.34-1.04.81-2.1,1.64-3.16,2.46.19.2.38.4.57.6h-4.53c-.2-1.64-2.16-1.55-2.88-2.88h-4.95c-1.08-.59-2-1.09-3.18-1.73-.53.49-1.14,1.05-1.81,1.66-1.83-.2-3.81.43-5.63-.73-.43-.28-1.48-.27-1.78.04-1.16,1.22-2.61.33-4.03.81.58,1.19,1.24,2.34,1.71,3.55.63,1.64,1.32,3.24,1.23,5.11-.14,2.98-.04,5.98-.04,8.97,0,2.04.23,4.12-1.43,5.78-.25.25-.03.95-.03,1.54-.42.15-.85.3-1.39.48-.05.28-.11.62-.24,1.33,1.55,0,3.16.39,4.42-.1,1.55-.6,3.05-.53,4.59-.68,1.4-.13,2.79-.49,3.95-.7,1.67-1.3,3.2-2.49,4.83-3.76,1.35,0,2.85.12,4.32-.03,2.9-.28,5.22,1.17,7.64,2.36.32.16.57.64.85.63,3.27-.08,5.51,2.39,8.36,3.32.65.21,1.32.37,2.17.61v-1.79c2.83-3.79,8.34-3.38,10.98-.63,2.17-1.53,3.61-3.68,5.2-5.78,1.57-2.08,3.76-3.7,4.28-6.22-1.79-1.06-3.45-1.9-4.94-2.97-.96-.68-1.61-1.69-2.21-2.79-.8-1.47-.13-2.89-.42-4.01.65-1.27,1.18-2.3,1.66-3.24.8-.55,1.58-1.08,2.72-1.85h3.71v-4.33c-.52-.78-1.18-1.76-2.03-3.04v-2.66c.9-1.24,1.87-2.58,2.81-3.88-1.02-1.66-2.31-1.29-3.97-.05-.44-.88-.89-1.78-1.7-3.4.22-1.34-1.69-3.12-2.68-5.46.55-.97.91-2.19,1.72-2.93,1.55-1.41,3.07-2.85,5.07-3.79,1.26-.59,2.41-.13,3.64-.51.72-.66,1.31-1.76,3.17-1.27,1.56,1.75,3.4,3.82,5.24,5.89v4.28c-2.11,1.78-4.35,3.66-6.6,5.55.6.83,1.12,1.56,1.9,2.64-1.22.12-2.03.19-3.05.29-.67.77-1.47,1.7-2.56,2.96v2.8c.93,1.2,1.53,1.96,2.13,2.73q-.95,1.74.39,3.36c.87-.24,1.74-.62,2.64-.68.91-.06,2.02-.47,2.66.95,1.95-2.29,3.77-4.41,5.74-6.72-1.42-1.62-2.83-3.24-4.09-4.69-.89-.07-1.47-.11-2.08-.16,0-1.75,1.41-2.07,1.98-3.03,3.93,2,4.84,6.06,7.15,9.03h5.16q3.24,2.86,4.55,5.82c-1.03,1.59-1.18,4.09-4.16,4.06-.45,0-.91.97-1.37,1.5,2.25,2.15,3.07-1.73,5.33-.61.22.33.71,1.05,1.2,1.77.09-.09.18-.17.26-.26.05.1.15.22.13.31-.52,2.71,1.01,5.24.74,7.91-.18,1.79.43,3.26,1.51,4.77,0,1.47-.12,3.1.04,4.7.14,1.39.58,2.75.96,4.43.34.02.92.06,1.35.09.82-1,1.48-2,2.33-2.77,1.33-1.21,2.24-2.96,4.17-3.46.58-2.03,2.43-3,3.72-4.43,1.25-1.39,2.59-2.7,3.97-3.96.87-.79,1.99-1.33,2.82-2.16.75-.73,1.17-1.79,1.9-2.55.8-.83,2.38-1.35,2.56-2.22.27-1.26,2.39-.61,1.82-2.2,2.41-.89,3.48-3.44,5.57-4.62,2.01-1.14,3.79-2.47,5.43-4.07.65-.63,1.57-.99,2.57-1.59-4.72-2.59-7.44-6.52-9.1-11.3-.47-1.56.36-3.31-.65-4.93-.91-1.46.21-3.23-.88-4.89-.68-1.04-.13-2.89-.13-4.43-.51-.34-1-.68-1.46-1.09-.06-.94-.16-1.95-.33-3.48-1.22,1.08-2,1.78-2.74,2.44.06.72.1,1.29.16,2.03,1.12-.41,1.98-.72,2.88-.91Zm-106.99.82s-.1-.1-.15-.15c-.2.17-.41.35-.61.52.08.08.16.16.24.24.17-.2.35-.41.37-.75.05.05.1.1.15.15.2-.17.41-.35.61-.52-.08-.08-.16-.16-.24-.24-.17.2-.35.41-.37.75Zm5.08-5.37s.1.1.15.15l.61-.52-.24-.24c-.17.2-.35.41-.44.68-.25.25-.5.5-.75.19-.54.97-.78,1.58-1.17,2.07-.46.58-1.05,1.05-1.55,1.6-.09.1-.05.34-.08.63.54,0,1.02.03,1.5,0,.45-.03.89-.12,1.3-.18v-3.55c.25-.25.5-.5.67-.82Zm-3.67-10.4c.25.25.5.5.75.75v1.5h1.5c-.25,1.6,1.16,2.1,1.92,2.99.65,0,1.24,0,1.97-.09-.32,1.05-.61,1.99-.95,3.1,1.6-.37,2.85-.65,4-.92,1.35,1.45,3.17,2.34,2.95,4.43,1.2-.61,2.34-1.2,3.99-2.04h-3.59c.72-.85,1.18-1.4,1.52-1.8-2.67-.93-5.18-1.81-8.06-2.67-.68-1.7-2.26-2.29-3.74-2.99-.5-.5-1-1-1.5-1.5-.25-.25-.5-.5-1.33-.73.22-.01.43-.03.65-.04-.1-.49-.19-.97-.29-1.46-.16.02-.32.04-.48.07.04.48.08.95.7,1.41Zm13.85,35.52c-.12-.13-.25-.26-.37-.4-.44.03-.88.06-1.48.11.04.52.06.93.1,1.43.7-.45,1.23-.8,1.37-2.09.01.22.02.43.03.65.49-.1.98-.19,1.46-.29-.02-.16-.04-.32-.06-.48-.48.04-.96.08-1.04,1.08Zm30.26,37.05c.51-.04.96-.07,1.42-.11v-2.52c-.61,1.12-1,1.85-2.22,4.41.57-.51.85-.66.84-.76-.05-.36-.21-.7-.32-1.05-.13.45-.26.9.29.03Zm-76.28-18.29c-.01-.17-.03-.34-.04-.51-1.01.09-2.01.18-3.11.27.15.58.23.91.37,1.45,1-.44,1.89-.83,2.63-1.68.79.3,1.47.55,2.15.8-.63-.82-1.17-1.52-1.85-2.4-.11.57-.18.91-.16,2.06Zm16.44-9.41c-1.64-.11-2.34,1.04-3,2.35-1.28-.57-1.62.79-2.44,1.14-.83.35-1.82.31-2.8.45.04.45.07.78.11,1.2h2.35c1-.66,1.87-1.25,2.77-1.84v-1.06c1.64.11,2.34-1.04,2.92-2.31.05.05.1.1.15.15.2-.17.41-.35.61-.52-.08-.08-.16-.16-.24-.24-.17.2-.35.41-.44.68Zm92.85-44.23c-1.37.12-2.18.68-2.28,2.37.93-.46,1.61-.79,2.28-1.12,0-.4,0-.77,0-1.14.25-.25.5-.5.75-.75h1.6c3.3,2.38,6.08,5.15,9.91,6.13,3.78-4.58,5.95-9.77,8.58-14.69.64-1.19.62-2.73.86-4.11.04-.2-.14-.43-.23-.69-.57-.06-1.16-.13-1.72-.19-1.09-1.09-2.36-2.01-3.14-3.24-.79-1.23-1.09-2.77-1.53-3.99.8-4.04,1.87-7.8,6.09-10.05,1.8.24,3.94.52,6.31.84.47-.71,1.05-1.58,1.83-2.75-.26-1.73-.75-3.71-.79-5.7-.03-1.5-.47-2.77-1.06-4.07-1.06-2.32-2.48-4.37-4.45-5.86-1.07-.35-2.06-.67-3.05-.99-1.33,1.37-3.04.47-5.07.93-.75,1.24-1.82,2.79-2.63,4.46-.53,1.08-.72,2.37.53,3.27.27.2.63.28,1.09.47.53-.84,1.03-1.61,1.54-2.41h2.19c.81-.75,1.41-1.84,2.81-1.45,4.95,4.48,5.03,4.7,3.33,8.69-1.14.58-2.17,1.11-3.44,1.75-1.33,0-2.95-.03-4.56,0-2.38.06-4.1-.93-5.29-2.99-.38-.65-1-1.16-1.98-2.25-.08,2.45-1.32,3.9-1.04,5.79.09.61-.43,1.3-.6,1.96-.58,2.24-.76,4.61-2.32,6.52-.18.22-.02.72-.02.84-3.93,4.99-8.77,8.2-14.77,9.81-3.04.82-5.58.75-7.91-1.55-1.38-1.36-2.86-2.6-4.28-3.56,0-2.37.08-4.36-.02-6.35-.09-1.95,1.28-3.68.77-5.67,1.24-1.37.46-3.33,1.79-4.91,2.18-2.58,4-5.4,7.13-7.01.44-.23.58-1.05,1-1.88-3.54,1.37-6.12,3.82-9.61,3.88-3.82,2.97-4.31,7.07-4.06,11.43,1.43,1.08.6,2.88,1.36,4.31.67,1.26.14,3.15.14,4.69.42.42.77.77,1.5,1.12-.73,5.02,2.02,9.67,1.45,14.82.76.38,1.49.73,2.25,1.11,1.83-1.76,4.32-2.47,5.44-4.91-.51-.46-.95-.86-1.54-1.39-.38.21-.86.47-1.22.68-.67-.35-1.28-.67-2.15-1.12.38-.85.75-1.69,1.04-2.33h3.5c1.13,1.41,3.31,1.78,3.23,3.75-.37.69-.63,1.19-.72,1.35,1.32,1.33,2.43,2.44,3.54,3.55.07-.07.23-.28.43-.42,3.25-2.29,6.3-4.7,7.41-8.83.27-1.02,1.45-1.19,2.55-.92,1.06,2.48,2.25,4.96,1.8,7.21-1.44,2.64-2.61,4.78-3.79,6.92-.25.25-.5.5-.75.63Zm-113.81,97.32c1.28.06,2.58.16,3-1.14.87-.51,1.58-.93,2.29-1.35-.05-.17-.1-.33-.15-.5-.72.06-1.44.12-2.13.18v1.31h-3c0,.6,0,1.05,0,2.05,0-.11,0-.22,0-.34h-2.94c0,.11,0,.22,0,.34.98,0,1.96,0,2.93-.55Zm-2.41-47.88l-.65.04c.1.49.19.97.29,1.46l.48-.07c-.04-.48-.08-.95-1.08-1.41.21-.03.42-.06.62-.09-.41-1.2-.81-2.39-1.22-3.59-.15.04-.29.07-.44.11v2.53c.33.33.68.68,1.99,1.01Zm36.71-26.75c.32.31,1.01.99,1.36,1.34q-.24-1.07-1.96-1.44c0-.99.02-1.98,0-2.97-.02-1.01-.09-2.02-.14-3.03-.61,2.01-.72,3.98.74,6.1Zm-11.96-18.09h1.55c-.65-1.75,2.85-2.24,1.22-4.45-.92,1.49-1.82,2.94-3.49,6.26.57-.51.85-.66.84-.76-.05-.36-.21-.7-.32-1.05-.13.45-.26.9.21,0Zm6.25,16.91v2.37c1.32.43,2.21.07,2.79-1.04-.83-.39-1.66-.79-2.92-.31v-3.45c-.47-.4-1.03-.87-1.36-1.16-.17-.87-.29-1.45-.44-2.21-.54.57-.86.91-1.08,1.14.87,1.71,1.69,3.32,3.01,4.66Zm127.16,62.35c.06-1.28.16-2.57-1.26-2.43-.57-3.41-2.01-5.75-3.5-8.11-1.08.83-1.64,1.68-1.25,2.43,2.15,1.51,2.64,3.73,4.52,5.11-.06,1.28-.16,2.57,1.44,2.2.32,4.21,1.09,5.24,3.27,4.79-.95-1.4-1.86-2.72-3.21-4Zm-73.21-.73c.22-.01.43-.02.65-.03-.1-.49-.19-.97-.29-1.46-.16.02-.32.04-.48.06.04.48.08.96.52.67.48,2.08.8,3.44,1.08,4.66-.61.74-1.25,1.19-1.78,2h2.86c.37-.8.7-1.52,1.06-2.29-.93-1.26-1.86-2.53-3.61-3.6Zm-31.61,5.1h2.72c1.06-.92,1.58-1.8.61-2.9-.3-.34-.69-.59-1-.84-.91.86-1.66,1.58-2.33,2.21v1.74h-2.85v3.99c1.18-.5,2.08-.88,2.85-1.21v-3Zm-62.9,3.86c.06-1.28.16-2.57-1.5-2.99v-9.27c2.09-2.14,2.31-5.54,4.95-7.12.93-.07,1.74-.13,2.66-.19-.14-.61-.21-.95-.37-1.66-1.73.69-3.31,1.32-4.78,1.9-.1,1.62-1.83,2.19-1.87,3.93-.02,1.15-1.42,2.32-1.35,3.86.07,1.61.4,3.36-.09,4.81-.5,1.5.24,2.51.85,3.73-.06,1.28-.16,2.57,1.1,2.67,1.75,4.03,5.02,5.17,8.38,6.44.14-.53.22-.86.33-1.31-2.81-.58-5.1-1.88-6.72-4.28-.27-.39-1.02-.46-1.6-.54Zm46.42-82.26h2.63c.34-.35.69-.7,1.02-1.04v-2.6h-2.61c-.34.33-.7.68-1.04,1.02,0,.88,0,1.75,0,2.75h-2.85c-.4.55-.73,1.02-1.01,1.41.72,1.28,1.64,1.86,2.81,1.35,1.23-.54,1.09-1.77,1.05-2.88Zm-31.39-4.58c-3.03.55-4.08,3.35-6.03,4.9v2.33c.16-.15.31-.3.47-.45.18.55.36,1.1.54,1.65.15-.11.3-.22.44-.33v-3.41c.9-.55,1.95-.96,2.66-1.69.78-.81,1.26-1.92,1.57-2.91h2.16c-.12-.12-.24-.24-.36-.36.54-.22,1.08-.43,1.81-.72-1.76-.88-2.57-.18-3.25.99Zm54.21-20.85c-.51-.87-.93-1.57-1.35-2.28l-.5.15c.06.72.12,1.43.18,2.13.61,0,.96,0,1.74-.03-.18.01-.37.03-.55.04v2.07c-.79.14-1.47.27-2.01.36,1.81,1.22,3.6,2.43,5.67,3.81v-3.37h-1.78c-.49-1.07-.91-1.99-1.4-2.89Zm-10.21,89.73c1.82.78,2.72,1.7,4.12,1.48.16-.02.28-.28.41-.41-.36-.37-.7-.73-1.03-1.07h-2.63c-2.79-1.65-3.07-1.69-5.56-.75-.37-.29-.72-.58-1.01-.81-1.91.72-3.36,1.66-3.78,3.84,1.71-.09,2.2-1.61,3.35-2.28h6.14Zm-51.67-47.06c.59-.05,1.06-.1,1.84-.17-.39-.85-.67-1.44-1.09-2.36,1.16-1.49,2.44-3.13,3.92-5.03h-2.88c-.18-.66-.29-1.05-.57-2.07-.46,3.64-.83,6.6-1.18,8.8-.56,1.68-.89,2.69-1.27,3.82.53-.07.86-.12,1.27-.17,0-1,0-1.93-.03-2.82Zm184.31,13.14c.65-.81,1.48-1.38,1.42-1.86-.17-1.55.54-2.49,1.53-3.52.7-.72,1.04-1.78,1.54-2.69-1.23-1.46-1.25-1.44-2.91-2.18-.18,2.02.25,4.22-1.58,5.63,0,1.42,0,2.78-.88,6,.59-.54.87-.69.85-.8-.05-.36-.21-.7-.32-1.05-.13.45-.26.9.35.47Zm-143.41-50.46c1.84-.52,4.4-2.47,5.27-3.93,3.96.49,8.09-.67,12.33.93-.04-.68-.06-1.1-.08-1.49-4.17-.44-8.24.61-12.23-1.03-1.2,2.27-4.16,2.79-4.88,6.01,0-.23-.02-.46-.02-.68-.74.1-1.47.19-2.21.29.02.17.03.33.05.5.73-.03,1.46-.07,1.77-.59Zm158.05,95.18c1.15.57,1.86.92,2.61,1.29v2.56c.46.42.8.78,1.2,1.04.16.1.46-.01.86-.04v-7.04c-.33-.42-.63-.79-.88-1.1-1.27,1.1-2.45,2.13-3.56,3.37-2.37,1.19-3.87,3.07-5.44,5.25,2-.22,3.67-.41,5.44-.6,0-1.42,0-2.86-.23-4.73Zm83.38-38.38s.1-.1.15-.15c-.17-.2-.35-.41-.52-.61l-.24.24c.2.17.41.35.41.5,2.34,2.04,4.56,3.98,6.74,5.88h1.51c.17-.46.21-1,.51-1.28.34-.33.9-.43,1.46-.68-1.03-2.19-3.17-1.77-4.59-2.64-1.59-.98-3.41-1.59-5.44-1.25Zm-262.27-20.97c-1.64,1.38-3.23,2.73-4.94,4.17-.65,2.21,1.45,2.33,2.63,3.11,1.21-.54,2.33-1.05,3.18-1.42-.33-2.25-.61-4.09-1.47-5.9v-5.08c-2.43-.6-3.65-3.26-6.29-3.19-1.14-1.14-2.28-2.28-3.44-3.41-.1-.1-.34-.05-.56-.07v1.51c.86.65,1.49,1.15,2.14,1.61.57.41,1.18,1.11,1.76,1.1,1.69-.04,1.74,1.37,2.11,1.91,1.21.49,2.06.83,3.3,1.32-.92.66-1.5,1.08-2.02,1.45v2.69c-.55.19-.98.34-1.22.42v1.96c1.79.15,1.86-1.32,2.48-2.22.62,0,1.24,0,2.34.04Zm16.08,67.26c-8.64,0-16.45,0-24.25.02-.18,0-.36.26-.59.44.08.31.16.64.26,1.03,5.65,0,11.21-.06,16.78.03,2.42.04,4.75-.16,6.55-1.41,1.43-.13,2.44-.21,3.43-.3-.02-.49-.03-.73-.04-.96-1.34-1.02-2.15-.1-2.13,1.15Zm137.6-28.42c1.05-2.1-2.05-2.92-1.48-4.91.01-.05-.37-.28-.58-.3-.21-.02-.44.11-.76.2-.58,2.07,1.85,3.13,1.8,5.02.25,0,.49,0,1.07.1,1.76,5.16,5.54,9.45,6.95,14.76h1.93v-5.58c-1.32-1.07-2.54-1.85-3.49-2.89-.93-1.02-1.41-2.48-2.39-3.41-.97-.92-1.59-2.1-3.03-2.98Zm40.38,8.65c.96.48,1.68.84,2.38,1.19,0,3.88.07,7.59-.03,11.29-.04,1.49.35,2.79.96,4.07.07.14.41.16.85.31.36-.62.73-1.29,1.14-2-.17-.18-.62-.44-.63-.7-.04-5.54-.03-11.09-.03-16.63.34-.86,2.24-.93,1.24-2.32-1.92,1.57-3.85,3.13-5.74,5.11-.25,0-.59-.11-.73.02-1.34,1.14-2.64,2.32-3.9,3.45q1.63,3.04,1.63,6.3v5.72c.69.48,1.16.81,1.59,1.12,1.4-1.32,1.43-2.82,1.42-4.38-.04-4.07-.01-8.15-.15-12.55Zm52.42-20.61c.38,0,.65.07.87-.01,2.33-.9,2.46-3.8,4.46-4.76v-1.73c-2.29-.35-4.35-1.71-6.88-.52-2.06.97-4.4,1.33-6.87,2.04.67,1.82,1.26,3.43,1.79,4.87h2.53c1.6-.92,2.14-2.73,4.11-2.94,0,1.13,0,2.09.13,3.05h-1.5c0,.62,0,1.06-.05,1.35-.97.39-1.93.77-2.95,1.17,0,3,0,5.97,0,8.94,0,.6,0,1.22.18,1.79.7,2.38,1.34,4.77,1.32,7.28-.02,2.36.14,4.73-.04,7.08-.17,2.25.43,4.22,1.56,6.08.22.36.73.54,1.47,1.05v-16.84c0-1.37.1-2.74-.03-4.1-.12-1.28-.34-2.57-.75-3.78-.65-1.96-.62-4.19-2.35-5.54.61-1.17,2.05-1.57,1.63-2.98h1.5c0-.62,0-1.06-.13-1.5Zm-44.05-11.96c-.85,1.02-1.71,2.05-2.37,2.85-2.94.34-4.48,2.6-6.69,3.63-2.1.97-4.06,2.24-6.15,3.23-2.24,1.06-3.68,3.38-6.25,3.88-1.49,2.17-4.18,2.69-6.06,4.42-1.68,1.56-4.34,2.17-5.77,3.87-1.51,1.81-3.66,2.89-4.96,4.91.07.55.15,1.11.3,2.17,3.68-1.81,6.44-4.23,9.27-6.49.51-.02.99-.05,1.04-.05,1.84-1.43,3.39-2.58,4.87-3.8,1.91-1.58,4.38-2.19,6.34-3.66.57-.43.98-1.29,1.58-1.42,1.32-.3,2.4-.84,3.43-1.7.88-.73,1.89-1.43,3.68-1.06-1.14.91-2.05,1.76-3.36,2.22-.65.22-1.32.58-1.79,1.05-1.95,1.95-4.51,3.01-6.7,4.63-5.2,3.84-10.97,6.93-15.19,12.11h-1.72v5.33c1.95-1.68,3.48-3.67,5.48-4.57,3.15-1.42,5.88-3.35,8.61-5.35,2.54-1.87,5.31-3.34,8.07-4.85,2.17-1.18,3.91-3.13,6.06-4.36,2.21-1.26,3.94-3.4,6.66-3.75,2.68-2.53,6.21-3.7,9.22-5.71,3.01-2.02,6.17-3.82,9.12-5.93,2.59-1.84,5.22-3.6,7.9-5.3.39-.25.93-.4,1.17-.75,1.68-2.49,4.33-3.87,6.55-5.73.9-.75,1.97-1.3,2.71-1.78v-3.15c-.62.26-1.04.39-1.4.61-4.06,2.54-8.04,5.21-12.18,7.6-3.34,1.94-6.59,4.01-9.71,6.26-1.19.86-2.54,1.2-3.69,1.97-1.18.8-2.22,1.82-3.42,2.59-.66.43-2.15.54-2.16.82-.03,1.4-1.31,1.57-1.93,1.71-1.95.44-3.29,1.73-4.88,2.7-1.07.65-2.27,1.09-3.92,1.34,2.58-3.17,6.27-4.74,9.68-6.73,2.21-1.29,4.4-2.61,6.59-3.91.33-2.06,2.41-2.11,3.67-2.71,3.75-1.77,6.06-3.18,7.94-5.89,2.05-.38,3.64-1.53,5.16-2.88,1.25-1.11,2.45-2.66,3.94-3.06,2.74-.74,4.57-2.49,6.23-4.13-.31-.52-.62-1.04-.92-1.55-3.59,2.35-6.84,4.66-10.26,6.68-3.7,2.18-7.32,4.52-10.97,6.77-3.17,1.95-6.67,3.5-9.5,6.09-.67.61-2.04,1.26-3.7.87.6-.6.94-1.19,1.44-1.4,3.8-1.56,6.8-4.41,10.48-6.25,3.29-1.64,6.08-4.34,9.56-5.84.3-.13.31-.84.62-1.07,2.84-2.15,5.7-4.27,8.6-6.32.33-.23.97-.03.73-.03,1.24-.88,2.04-1.44,3.07-2.17-.61-.98-1.07-1.73-1.57-2.53-1.06.55-1.93.91-2.69,1.41-4.87,3.22-9.79,6.36-14.87,9.24-.3.17-.69.27-.9.52-1.7,2.1-4.74,2.41-6.28,4.71-3,1.15-5.31,3.4-8.01,5.04-1.18.71-2.42,1.32-3.63,1.97-1.07.49-1.97,1.29-2.97,1.95-2.34,1.55-4.73,3.03-7.09,4.53-2.07,1.32-4.2,2.55-6.2,3.98-3.93,2.8-8.43,4.77-11.96,8.16-.24.24-.57.42-.9.53-2.28.78-3.7,2.6-5.29,4.2.06.65.12,1.23.2,2.05,3.01-1.97,5.75-3.76,8.5-5.54,3.54-2.29,7.04-4.63,10.63-6.85,3.26-2.01,6.63-3.85,9.91-5.84,2.22-1.34,4.36-2.81,6.94-4.47h2.05Zm16.05,8.97c1.54-1.39,2.71-2.64,4.31-3.59,3.72-2.22,7.16-4.93,10.96-7,2.38-1.3,2.99-3.39,3.84-5.51.12-.3-.19-.78-.41-1.58-3.63,3.33-8.01,4.82-11.27,7.96-2.67.73-4.69,2.64-6.86,4.14-2.23,1.56-4.71,2.58-6.96,4.06-1.94,1.28-4.21,2.1-5.98,3.55-2.57,2.12-5.43,3.8-8.29,5.35-3.83,2.08-7.2,4.8-10.91,7.03-2.83,1.71-5.77,3.32-8.09,5.77-4.27,1.34-6.87,5.03-10.39,7.41-.96.65-1.88,1.33-2.87,2.04.6,1.83,1.57,3.48,1.57,5.13,0,2.32,1.25,3.87,2.18,6.16,1.36-1.36,2.22-2.78,3.47-3.32,1.71-.74,2.72-2.09,3.83-3.31,1.27-1.41,3.12-1.69,4.46-2.85,1.55-1.34,3-2.89,4.75-3.9,2.17-1.25,3.78-3.18,5.97-4.36.62-.33,1.16-.81,1.75-1.2,2.65-1.75,4.48-4.6,7.73-5.57.74-.22,1.41-1.08,1.82-1.81.28-.49.38-.81.96-1.2,2.66-1.82,5.12-3.91,7.7-5.85,1.7-1.28,3.3-2.95,5.23-3.58,2.13-.7,3.29-2.5,5.27-3.39,3.48-1.56,6.76-3.53,10.56-4.32,1.3-.27,2.73-.73,3.23-1.92.5-1.19,1.59-2.53.31-4.27-.98.39-2.25.57-3.08,1.26-4.17,3.49-9.15,5.69-13.64,8.66-.17.11-.49.01-1.16.01Zm-22.82-61.15c-2.66-3.62-5.1-6.86-7.45-10.17-2.17-3.07-4.35-6.12-6.4-9.27-1.61-2.47-3.1-4.88-4.17-7.64-.62-1.6-1.84-3.13-3.16-4.25-1.58-1.33-3.45-2.53-5.39-3.14-2.14-.67-4.5-.71-6.77-.79-1.13-.04-2.27.59-3.43.67-3.68.27-7.06,1.49-10.34,3.04-1.05.49-1.96,1.27-2.99,1.81-1.62.85-2.94,1.88-3.81,3.59-.74,1.46-1.92,2.7-2.78,3.87v3.43c1.36-1.67,2.28-2.81,3.19-3.93,2.18.64,2.99,2.38,4.05,3.64v3.48c-1.69,2.34-2.89,4.8-5.69,5.68q-1.28-.58-3.27-.29c.38,2.12-.64,4.4.72,6.28-.24.86-.61,1.64-.64,2.42-.08,2.36-.05,4.73-.01,7.1,0,.58.09,1.21.33,1.72,1.01,2.11,1.29,4.32,1.16,6.62-.04.62-.17,1.3.02,1.86.85,2.47,1.41,4.98,1.5,7.61.02.53.52,1.02.7,1.56.41,1.23.95,2.4.8,3.8-.16,1.47-.04,2.97-.04,4.4,1.39,1.34,1.6,2.96,1.51,4.69-.05.87-.28,1.86.04,2.59,1.19,2.78,1.64,5.66,1.45,8.24,1.76.92,3.16,1.66,4.32,2.26v3.4h-1.9c-.18-.55-.33-.98-.46-1.36h-2.7c-.89.36-1.43.57-1.95.81-.52.24-1.07.47-1.54.8-6.27,4.3-12.33,8.85-17.47,14.49-.12.14-.02.48-.02.87.67.12,1.35.25,1.7.31,1.99,2.6,3.81,4.99,5.65,7.39,4.15-2.17,8.07-4.71,11.89-7.44,3.92-2.8,8.06-5.32,12.52-8.24h1.58c.42.73.83,1.44,1.25,2.16h2.3c1.1-.76,1.95-1.36,2.75-1.92v-4.6c-.93-.68-1.89-1.38-3.04-2.23.16-.47.41-1.12.59-1.78.31-1.12.81-2.15,1.12-3.29.71-2.65,1.68-5.19,1.4-8.01-.02-.18.33-.37.38-.58.38-1.59,1.41-3.45.92-4.71-.54-1.37-.49-2.59-.54-3.87-.1-2.36.18-4.75-.09-7.09-.29-2.5.91-4.75.8-7.17-.12-2.55-.08-5.12.8-7.52.84-2.28.52-4.92,2.17-6.96.23-.28.03-.91.03-.92,2.3-3.13,5.04-4.66,8.04-5.1.96.76,1.72,1.37,2.4,1.91v3.01c-.67.33-1.28.64-2.02,1.01-.38-.59-.82-1.28-1.35-2.11h-2.28c-1.09,1.09-2.15,2.15-2.9,2.9-.51,2.2-.93,4.03-1.37,5.85-.14.56-.4,1.09-.51,1.65-.3,1.63.22,3.25-.63,4.98-.67,1.36.08,3.29-.83,4.88-.3.53-.05,1.37-.05,2.55,1.8-1.23,3.64-1.89,4.33-3.16.55-1.01,1.82-1.12,2.09-2.44.16-.76,1.61-1.25,2.47-1.88.96-.7,1.94-1.37,2.86-2.12,2.79-2.26,5.53-4.58,8.34-6.8,1.86-1.47,3.67-3.13,5.78-4.11,1.08-.51,1.09-2,2.5-2,.44,0,1-.75,1.29-1.27.27-.49.25-1.14.26-1.19Zm177.38,95.02c-1.46-.63-2.96.46-4.06-.94-.19-.24-1.01-.17-1.44,0-1.18.45-2.31,1.03-3.39,1.52-2.45-1.12-2.61-3.67-3.61-5.56-.6-1.14-1.28-1.97-2.19-2.7-.72-.58-1.57-1.01-2.22-1.41h-2.53c-.84.93-1.75,1.93-2.86,3.16-.8-.4-1.61-.81-2.4-1.21.43-2.45-.35-4.46-.97-6.52-.58-1.92-1.84-3.5-2.58-5.28-1.01-2.43-3.9-1.79-5-3.69h-4.67c-1.95,1.95-3.61,3.6-5.43,5.42,1.54,2.42,3.1,5.1,3.81,8.21.7,3.1,1.92,6.1,1.37,9.53,3.03,0,5.76.1,8.47-.03,1.9-.09,3.47.53,4.71,1.39,8.72,0,17.17,0,25.62-.01.08,0,.16-.17.38-.43-.36-.53-.76-1.1-.99-1.44Zm-157.27-81.67c-1.18,1.39-2.18,2.58-2.76,3.27-1.24.47-1.94.64-2.52.99-.81.48-1.53,1.12-2.31,1.67-2.4,1.7-4.97,3.25-7.2,5.06-2.52,2.04-6.01,2.59-7.92,5.41-2.95,0-4.55,2.65-7.13,3.58-2.68.96-5.02,2.97-7.41,4.67-2.25,1.61-5.17,2.35-6.99,5.43,1.12-.33,1.94-.42,2.6-.78,3.57-1.95,6.9-4.31,10.58-6.08,1.77-.85,3.36-2.17,5.19-2.81,1.7-.6,3.24-1.2,4.65-2.4,1.39-1.19,3.34-1.57,4.87-2.67,1.21-.87,2.58-1.5,4.63-2.67.93-1.64,3.56-2.5,5.87-3.61.93-.45.45-2.71,2.25-1.62,1.81-1.23,3.63-2.46,4.88-4.39h1.76v2.95c-2.94.84-5.53,2.61-8.12,4.41-.25.18-.73.02-.74.02-3.08,2.11-5.81,4.21-8.77,5.94-4.8,2.81-9.79,5.29-14.61,8.07-2.52,1.46-5.12,2.75-7.56,4.39-2.97,1.98-6.29,3.43-9.48,5.12-.24,2.23-2.92,3.73-2.13,6.44.52-.08.86-.13,1.15-.18.18-.53.33-.97.37-1.08.92-.34,1.59-.55,2.22-.84,1.58-.73,2.57-2.56,4.6-2.44.84-1.35,2.49-1.26,3.64-2.05,2.89-1.99,5.75-3.98,8.94-5.51,1.23-.59,2.47-1.27,3.7-1.92,1.14-.61,2.02-1.99,3.17-2.23,1.4-.29,2.33-1.62,3.42-1.62,1.62,0,1.73-1.55,2.93-1.95,2.28-.78,4.23-2.23,5.7-4.15.56,0,1.18.2,1.53-.03,1.78-1.16,3.44-2.5,5.24-3.65,1.87-1.19,4.06-1.83,5.69-3.44.57-.56,1.33-.97,2.06-1.32.72-.35,1.52-.55,2.2-.79.27-.57.51-1.1.76-1.63-.81-1-1.7-2.1-2.52-3.1-1.33-.8-2.62-1.59-4.03-2.44h-2.4Zm11.72,6.71c-1.65,1.14-3.17,2.64-4.99,3.32-1.69.64-3.05,1.68-4.59,2.48-.61.32-1.27.56-1.87.9-2.8,1.63-5.59,3.28-8.39,4.93.22,1.47-1.39,1.5-1.9,1.67-2.96.94-4.87,3.69-7.94,4.34-1.56,1.85-4.37,1.91-5.75,4.01-3.75,1.62-7.02,4.08-10.6,6-5.48,2.93-10.67,6.34-15.43,9.81.16.93.46,1.72.39,2.48-.07.84-.47,1.65-.99,3.28,3.08-1.89,5.47-3.29,7.79-4.78,2.37-1.53,4.61-3.28,7.03-4.71,2.43-1.43,4.78-2.94,7.1-4.54,2.27-1.56,5.13-2.32,7.26-4.03,2.33-1.87,4.82-3.47,7.36-4.92,2.45-1.4,4.78-2.96,7.05-4.59,2.29-1.64,4.9-2.71,7.18-4.36,2.27-1.65,4.7-3.07,7.07-4.58,2.31-1.47,4.63-2.92,7.27-4.59-1.22-.84-2.15-1.48-3.07-2.11Zm1.23,41.09c-.17,1.75-.31,3.19.65,4.45.78,1.02.78,2.2.76,3.42-.04,3.86-.08,7.71,0,11.57.09,3.76-.22,7.51.61,11.29.47,2.16.23,4.5,1.18,6.55h9.43c0-.95.28-1.93-.05-2.63-1.11-2.34-.62-4.78-.68-7.18-.08-3.23-.02-6.47-.02-9.7,0-.75.21-1.57-.03-2.23-1.2-3.28-1.66-6.67-1.42-10.24-1.08-.98-2.08-1.89-3.09-2.81v-3.95c-.64-.27-1.31-.54-2.06-.86.24,1.74.5,3.12.59,4.5.05.77.35,1.31.71,1.96.61,1.11.98,2.37.85,3.76-.15,1.72-.55,3.74.14,5.13.82,1.64.29,3.12.56,4.63.27,1.51.65,3.02.72,4.54.12,2.73.03,5.47.03,8.21v3.92c-2.26.19-1.98-1.82-3-2.58,0-4.08.05-8.18-.01-12.29-.05-3.27.34-6.54-.69-9.78-.74-2.33-.84-4.87-1.73-7.13-.38-.96-.43-1.82-.57-2.75-.03-.21-.24-.39-.52-.83-.8.33-1.65.69-2.37.98ZM164.03,59.68c-.74.35-1.14.62-1.58.73-2.33.57-4,2.08-5.54,3.79-.42.46-.89.87-1.32,1.33-1.48,1.58-2.41,3.41-2.79,5.58-.19,1.11-.79,2.15-1.45,3.84v3.07c.6.57,1.22,1.17,1.93,1.84,1.38,0,2.89.14,4.36-.04,1.71-.21,8.24-3.94,9.77-5.16.58-.47.08-2,1.53-1.53.61-.99.34-2.41,1.58-3.1.16-.09.31-.42.28-.61-.23-1.4.67-2.47,1.02-3.69.33-1.13.04-2.56.64-3.45.83-1.22.57-2.21.44-3.59-3.24.36-6.24.7-8.86.99Zm134.28,124.33c-.39-4.33-1.25-8.02-1.01-11.83.21-3.34-.16-6.73.1-10.06.27-3.33-.85-6.48-.86-9.77,0-1.23-.63-2.45-.97-3.67h-1.74c-.86.95-1.47,1.61-2.04,2.23.06.21.26.64.3,1.09.23,3.01-.57,6.1.76,9.02-.22,4.65,1.29,9.2.77,13.87-.15,1.35-.02,2.73-.02,3.8.61,1.16,1.09,2.08,1.74,3.33-.97.47-1.86.89-2.74,1.31-.67-1.72-1.2-3.11-1.95-5.03-.56-6.23.79-13.13-.77-19.96-.5-2.18-.66-4.44-1.01-6.95-.79.48-1.37.83-2.01,1.22,0,.66-.22,1.38.04,1.85.99,1.83.7,3.77.7,5.68.02,7.81,0,15.63,0,23.51,3.47,2.47,6.87-.65,10.7.36Zm-86.67-48.84c-.15-1.34-.32-2.47-.39-3.6-.1-1.71.3-3.6-.29-5.11-.86-2.18-1.34-4.29-1.22-6.59.03-.5.21-1.15-.03-1.47-1.94-2.54-1.34-5.5-1.44-7.51-.7-1.82-1.52-2.92-1.44-3.96.22-3.07-.84-5.95-.96-9.04h-1.58c-.97,1.22-1.86,2.33-2.66,3.34-.3,2.1-.68,4.09-.84,6.11-.14,1.86-.05,3.73-.03,5.59.02,1.79.06,3.52.64,5.32.53,1.63.52,3.54.68,5.27.21,2.36,1.19,4.4,2.12,6.26.96,1.92,2.58,3.87,4.96,4.69.53.18.92.77,1.4,1.14.13.1.34.11.48.15.21-.21.39-.39.6-.6Zm-57.08,29.9c-3.05.22-5.69-.21-8-1.3-.7.59-1.34,1.14-1.97,1.66.85,1.27,1.63,2.42,2.4,3.57-.58,1.41-.83,2.93-1.7,3.9-1.52,1.69-3.43,3.04-5.19,4.55.83,1.15,1.66,2.3,2.72,3.78,1.2-1.21,2.23-2.26,3.33-3.36,1.55-.28,3.26-.59,4.86-.88.41.92.67,1.51.93,2.11-1.54,1.95-3.73.46-5.22.96-1.06,1.32-1.94,2.42-2.83,3.53v2.93c1.65,1.51,3.29,3,4.85,4.43,1.74.6,3.48,1.2,5.43,1.88.69-1.26,1.21-2.77,2.21-3.84,1.12-1.2,1.07-2.29.74-3.57-1.09-.37-2.08-.7-2.93-.99-.73.97-1.33,1.77-2.14,2.85-.71-.94-1.18-1.56-1.71-2.27,1.37-1.15,2.55-2.14,3.93-3.29,0-.72.5-1.86-.61-2.69,1.25-.83.31-2.27.91-3.3.51-.88.94-1.81,1.59-3.06h-7.41c-.55-.6-.87-.96-1.27-1.39,1.27-3.14,4.53-3.94,7.1-6.19Zm80.04-10.65c2.53-1.7,4.96-3.4,7.45-5,3.93-2.53,7.85-5.09,11.88-7.46,3.41-2.01,6.39-4.74,10.18-6.13.32-.12.5-.56.81-.77,4.91-3.21,9.83-6.38,14.73-9.6,1.09-.71,2.07-1.59,3.17-2.29.97-.61,2.01-1.17,3.08-1.58,1.17-.44,1.71-1.55,2.76-2.18,3.12-1.87,6.1-3.99,9.05-6.1,1.55-1.11,3.73-1.23,4.73-3.08.14-.27.05-.66.07-1.11h-2.41c-1.35,1-2.54,2.02-3.87,2.82-2.39,1.44-4.85,2.78-7.21,4.26-1.69,1.06-3.33,2.2-5.01,3.28-4.02,2.59-8.11,5.06-12.23,7.51-3.72,2.21-7.14,4.88-10.94,7-2.12,1.19-4.35,2.41-6.2,3.96-2.75,2.3-6.35,3.38-8.69,6.21-3.01.67-4.58,3.68-7.47,4.55-.59,1.91-2.27,2.03-3.83,2.32-.36.84-.71,1.67-1.03,2.42.4.4.67.67.95.95Zm-130.15-54.5c3.38-1.74,8.25-.58,11.16-4.47-1.98-4.58-5.49-7.17-9.91-8.77h-9.43c-1.51,1.19-2.9,2.28-4.17,3.28q.75,2.9,6.07,8.21c2.19.61,3.98,1.1,6.28,1.74Zm230.79,28.57c2.02-.74,3.14-1.47,4.66-1.63,1.29-.13,2.49-1.23,3.73-1.91-3.69-1.06-7.18-2.56-10.25-4.85-2.19,1.45-4.22,2.79-6.19,4.1,1.2,2.84,1.09,5.41.48,8.03-.66,2.82-.82,5.62.72,8.16h5.4c.83-1.91,3.49-1.06,4.35-2.93,1.92.19,3.53-.42,4.86-1.87-1.09-1.46-2.83-1.44-4.35-1.87-1.92-.55-3.61-1.54-5.27-2.57-.95-.59-1.12-1.51-.55-2.66h2.41Zm-135.85-49.63c-2.63,2.26-5.12,4.4-7.69,6.6.84,2.94-2.55,4.71-2.13,7.65,2.79,1.68,5.18,4.03,8.53,4.7.78-1.66,1.56-3.33,2.34-4.99l.43.14v-5.48c.48-.34.83-.72,1.27-.86.51-.18,1.09-.16,2.14-.28-.84-1.5-1.45-2.59-2.06-3.67.77-.57,1.54-1.07,2.22-1.68.15-.14-.04-.65-.11-1.38-1.03.64-1.83,1.13-2.62,1.62-.38-.42-.7-.78-1.15-1.28,1.36-1.82,2.69-3.61,4.12-5.52-.83-.83-1.48-1.94-2.41-2.3-1.28-.48-1.61-1.58-2.26-2.44-.58-.76-.84-1.76-1.64-3.53-.41,1.21-.62,1.82-.93,2.75.4.92,1.42,2.45,2.23,4.08,1.14,2.28-1.22,3.86-.28,5.86Zm-49.65-4.49c.12-1.43.03-2.83.41-4.08.47-1.52,1.24-2.99,2.09-4.35.8-1.29,1.85-2.44,2.84-3.62.85-1.02,2-2.18,2.99-2.5,2.04-.65,3.34-2.18,5.25-3.2h10.72c.57-.45.96-.76,1.18-.93-.33-2.79-.64-5.39-.94-7.86h-3.63c.38.93.67,1.64.99,2.44-.41.44-.81.88-1.32,1.44-1.32-1.06-2.41-1.04-3.94-.37-2.19.96-4.61,1.43-6.9,2.29-4.06,1.52-5.38,2.65-8.23,6.33-1.37,1.77-1.25,4.08-2.73,5.26,0,3.52,0,6.73.01,9.95,0,.05.17.11.25.16.35-.35.7-.7.96-.96Zm129.84,22.24c-.15-.16-.3-.32-.45-.48-8.63,5.96-17.26,11.91-26.35,18.18.16,0-.33,0-.88,0-2.11,2.79-5.53,4.52-6.86,8.18.53,0,.86.11,1.01-.02,2.64-2.17,5.41-4.09,8.68-5.25.97-.34,1.82-1.04,2.7-1.6,3.54-2.28,7.02-4.67,10.64-6.82,2.07-1.23,4.18-2.34,5.65-4.26h1.39c.5-.55.86-1.11,1.36-1.48,1.42-1.04,2.8-2.27,4.39-2.91.98-.39.46-1.49,1.15-1.55,1-.08,1.35-.36.97-1.33-1.13-.22-2.26-.45-3.4-.67Zm50.65,77.88c-.11.11-.22.23-.32.34,1.99,0,3.98-.01,5.96,0,1.79.02,3.53.04,5.32.66,1.71.6,3.65.54,5.54.77.4-4.6-1.19-8.56-2.41-12.83-1.04.22-2.11.17-2.82.65-4.2,2.81-8.33,5.75-12.46,8.66-.15.11-.15.42-.34,1,.41.19.97.46,1.54.73Zm-64.58-84.77c.27-.1-.08-.02-.38.14-5.01,2.78-9.24,6.64-13.78,10.06-2.03,1.53-3.76,3.47-5.82,4.96-3.74,2.73-7.26,5.68-10.56,9.13.11.79.24,1.67.37,2.5.45,0,.63.05.69,0,4.22-4.51,9.75-7.44,14.17-11.71.31-.3,1.01-.25,1.22-.57.29-.44.26-.86.94-1.24,2.64-1.52,5.22-3.19,7.63-5.06,2.48-1.93,4.73-4.15,7.07-6.27.15-.13.14-.43.31-.99-.4-.2-.96-.49-1.86-.94Zm54.76,75.62c.24-1.03.5-2.17.8-3.49-.85-1.86-.85-1.87-.28-5.88,1.56.57,2.39,1.75,3.07,3.2.6-.82,1.04-2.04,1.7-2.17,1.46-.3.77-1.94,1.94-2.41.85-.34,1.49-1.29,2.12-2.06.31-.37.39-.93.77-1.89-4.34,1.67-8.22,2.76-12.12,3.54-.32.32-.58.58-.92.92.52,2.79-.25,5.64.68,8.61.91,2.92.74,6.21.87,9.34.12,2.97.03,5.96.03,8.93.12-.11.24-.22.36-.33.26.58.51,1.16.74,1.67,1.18-.62,1.95-1.03,2.44-1.29-.21-1.44-.5-2.59-.52-3.74-.06-3.6-.02-7.21-.03-10.81,0-.22-.11-.45-.17-.67-.44-.44-.88-.88-1.48-1.47ZM22.55,143.47c.82,1.21,1.35,1.99,1.87,2.76,1.65.24,3.41.49,5.38.77.42-.25,1.09-.66,1.72-1.04.02-.57.05-1.05.07-1.49,1.02-.46,1.96-.89,3.02-1.38v-3.18c.55-.5,1-.92,1.28-1.18v-3.46c-.9-.53-1.71-1.01-2.43-1.43h-3.9c-1.36,1.19-1.49,3.3-3.56,3.62-.3-.53-.61-1.07-1.13-1.98-.87,1.07-1.54,1.89-2.31,2.84v5.15Zm97.73,27.76c1.36,1.8,1.09,3.61,1.1,5.38,0,.75-.25,1.61.04,2.22,1.22,2.54,1.54,5.2,1.5,7.97,0,.49.61.98.94,1.46h4.44c.75-.65,1.48-1.29,1.81-1.57-.55-4.09-1.05-7.74-1.6-11.81-.77-1.01-1.85-2.44-2.76-3.65h-5.48Zm12.89-97.17c-.82-.82-1.61-1.6-2.51-2.51h-4.56c-.5-.54-.93-.99-1.53-1.64-2.3.91-4.79,1.56-6.41,4.11.91.91,1.75,1.75,2.59,2.59-.35,1.34-.66,2.54-.92,3.55,2.23,2.4,4.8,1.94,7.39,1.9.7-.96,1.4-1.91,2.14-2.92,1.18.08,2.19-.19,2.54-1.74.25-1.1.8-2.14,1.27-3.35Zm6.18,123.94c-.03,1.41.04,3.07,2.02,3.98.49.23.66,1.17.97,1.78.26.51.52,1.03.81,1.61h2.92c.26-.33.71-.92.74-.96,1.93-.57,3.25-.96,4.52-1.33v-1.9c2.61.14,1.92-2.37,2.95-3.76-.77-.55-1.63-1.02-2.3-1.67-.71-.69-1.23-1.55-1.94-2.47-1.1.44-2.05.84-3.02,1.18-.65.23-1.69.75-1.94.5-1.61-1.58-2.82-.15-3.84.23-.61.9-1.06,1.58-1.89,2.8ZM54.73,65.18c-2.17,2.4-3.48,4.92-6.21,5.45-.7,1.72-1.3,3.21-1.94,4.77.28.86.5,1.89.94,2.81.23.47.85.74,1.21,1.02,1.2-.53,1.57-2.02,3-1.65,1.21.33,1.71,2.35,2.9,1.69,1.76-1.98,3.19-3.59,4.35-4.91.42-1.71.75-3.07,1.14-4.67-1.69-1.42-3.41-2.86-5.39-4.52Zm281.02,85.2c-4.24,4.05-7.95,7.67-10.99,12.32,2.97.55,5.39-.45,7.9-1.02,2.64-.6,5.36-.85,7.87-1.22,1.05-.81,1.39-1.73.75-2.65-1.7-2.41-3.52-4.75-5.52-7.42ZM62.33,60.44c-.99.77-1.75,1.36-2.26,1.75v3.71c1.49,1.48,2.8,2.77,4.21,4.17.32-.43.76-1,1.18-1.55h3.38c.44-2.78,3.62-2.75,4.6-4.83v-3.15c-1.3-1.01-2.69-2.08-3.71-2.87-3.07.44-4.94,2.86-7.4,2.77Zm133.93,18.07q.97-5.7-3.5-9.83c-1.89-.17-3.66-.05-5.37,1.72-.46,1.48-1.04,3.35-1.57,5.08.62,1.24,1.18,2.37,1.54,3.09,1.08.81,1.83,1.38,2.7,2.03h3.43c.82-.62,1.57-1.18,2.78-2.1Zm-.4,106.78c.57-1.92,1.22-3.56,1.52-5.27.4-2.19,2.36-3.9,1.8-6.56.51-.38,1.1-.82,1.69-1.26-.18-.49-.31-.81-.55-1.46-1.14.95-2.13,1.77-3.21,2.67h-2.09c-.2.49-.27,1.03-.57,1.32-2.8,2.74-5.23,5.96-8.71,7.86-1.29.7-1.39,1.7-2.39,2.7h12.5ZM30.93,116.54c-1.43.59-2.81,1.16-4.19,1.73-1.32,1.31-2.71,2.7-4,3.99v4.7h2.4c.61.57,1.21,1.13,1.55,1.44,2.05.29,2.47-.86,2.87-2.16h2.88c1.25-1.85,2.34-3.45,3.35-4.94-.86-2.41-2.7-3.82-4.85-4.76Zm111.09,28.42c.81.81,1.47,1.36,2,2.02,1.35,1.68,1.9,3.47.6,5.49-.62.96-1.06,2.04-1.65,3.2,1.35,1.02,2.66,2.02,3.91,2.97-.2,1.4.18,2.31,1.46,2.75,2.23-1.12,4.48-2.24,6.76-3.38-3.08-1.92-7.31-2.07-8.91-6.05.34-.35.69-.7,1.04-1.05,2.5,0,4.99,0,7.48-.02.13,0,.26-.36.53-.77-.64-.7-1.32-1.45-2-2.19-1.1,1.12-1.98.99-2.98.07-.91-.83-1.83-1.6-2.67-2.53-.84-.92-2.46-1.14-3.73-1.67-.17-.07-.34-.16-.52-.24-.35.38-.68.73-1.31,1.4Zm138.89,12.2c-.16,1.88,1.06,3.03.77,4.6-.24,1.31-.35,2.75.45,3.75-.28.57-.43.88-.56,1.14.34.58.63,1.08.93,1.6-1.73,1.33-.52,2.61-.12,3.57-.33.82-.72,1.35-.73,1.88-.06,3.48-.03,6.97-.02,10.45,0,.09.16.18.57.64.34.13,1.09.42,1.82.69.59-.53,1.04-.93,1.61-1.44-.38-.52-.88-.89-.88-1.26-.04-4.07-.03-8.14.03-12.22,0-.54.7-1.24.52-1.59-.82-1.6-1.05-3.08.03-4.65.17-.25.17-.92-.01-1.07-1.23-.98-.62-2.3-.69-3.46-.1-1.7-.02-3.41-.02-5.28-1.97.31-2.55,1.88-3.71,2.63Zm-137.96-42.16c-.79.46-1.7,1.46-2.58,1.43-2.94-.09-4.6,1.68-6.19,3.47v2.19c.8.49,1.5.92,2.12,1.3.05.99.1,1.82.14,2.59,1.35.3,2.6.57,4.14.91.91-.92,2.64-1.87,3.02-3.21.55-1.92,2.55-1.69,3.25-3.07v-2.24c-1.32-1.03-1.75-3.07-3.9-3.38Zm-59.7-57.49c-.72-.11-1.74-.27-3.17-.49-2.2.49-2.51,3.06-3.63,4.99.4.75.77,1.46,1.2,2.27,1.21-.31,2.44-.63,3.44-.89,1.67.63,1.13,3.02,3.27,3.04.7-.95,1.26-2.48,2.28-2.9,2.26-.93,3.05-2.83,4.25-4.77-1.16-1.48-2.3-2.93-3.48-4.43-1.46,1.12-2.69,2.06-4.15,3.18Zm122,12.92v-6.66c1.3-2.03,2.64-4.07,3.92-6.16.35-.58.51-1.28.8-2.04-1.64-1.22-3.16-2.35-4.61-3.43-.36.16-.62.21-.76.37-2.53,2.62-2.11,6.32-3.41,9.39-.22.53-.42,1.13-.39,1.68.04.54.42,1.06.59,1.61.41,1.33.78,2.66,1.29,4.44.52.16,1.38.43,2.58.81Zm27.77,114.93c-1.31-1.81-2.89-3.41-3.72-5.33-.73-1.71-1.6-3.31-2.42-4.97-.82-1.66-1.72-3.27-2.67-4.86-.89-1.48-1.66-3.04-2.49-4.56-1.28-2.33-2.55-4.67-3.87-6.97-.13-.23-.62-.25-.93-.36-.41.42-.76.78-1.1,1.13.46.64.94,1.29,1.4,1.96,1.92,2.77,2.85,6.04,4.47,8.97,1.72,3.12,2.87,6.54,4.76,9.59,1.53,2.47,3,4.97,4.46,7.4h4.15v-2h-2.04Zm-35.69-14.85c.76-.9,1.44-1.7,2.41-2.84-1.4-.59-2.44-1.02-3.53-1.48.31-.86.62-1.73.88-2.48-.95-1.52-1.81-2.89-2.82-4.51-.62-.28-1.56-.71-2.61-1.18v-1.82h-1.95c.03,2.02-2.92,2.38-2.4,4.76,3.24,2.99,5.14,7.51,10.02,9.54Zm165.59-7.12c-2.54.66-5.01,1.3-8.05,2.09-.07.09-.53.66-.94,1.16h-2.99c-.71.66-1.34,1.26-1.8,1.68v2.5c.82,1.05,1.64,1.31,2.69.83,1.04-.47,2.12-1.23,3.18-1.24,3.6-.02,6.78-2.2,10.47-1.55,0-.69.13-1.13-.02-1.4-.69-1.21-1.47-2.38-2.54-4.07ZM119.85,56.85c-1.65-.48-2.2.48-3.03.94-.86.48-.18,1.99-1.76,2.01-.72,0-1.5,1.21-2.1,1.99-.56.72-.93,1.59-1.28,2.2.4,1.19.73,2.17,1.02,3.05h6.48c1.78-1.64,3.18-2.95,4.71-4.36-1.48-2.13-2.88-4.15-4.05-5.82ZM26.6,157.84c.19.05.38.11.57.16v3.27c1.25-.23,2.44-.77,3.48-.57,1.24.24,2.37,1.06,3.85.39v-3.48c.99-.36,1.96-.71,2.94-1.06v-2.87c-1.06-.79-1.9-1.41-2.66-1.97h-2.94c-.51.51-.95.94-1.51,1.51h-2.26c-1.31.87-2.03,1.35-2.93,1.95.58,1.06,1.02,1.86,1.46,2.67Zm332.49,18.51c6.11-.06,6.78-.23,8.62-2.15-.33-1-.65-1.98-.98-2.98-1.77-.5-3.23.15-4.75,1.41-3.89-1-7.33,2.22-11.25,1.42-.45,1.27-.8,2.24-1.13,3.15.53.61.92,1.07,1.04,1.21,1.54-.24,2.69-.56,3.84-.56,1.74,0,3.35-.14,4.62-1.5Zm-79.84,8.94c.54-4.87-.34-9.49.78-14.12.94-3.88-1.12-7.56-1.78-11.92-1.22,1.22-2.02,2.03-3.06,3.07.86.38,1.35.6,2.07.92,0,7.2,0,14.51.01,21.81,0,.08.17.16.25.24h1.73ZM98.58,55.17c-1.85,1.83-3.88,3.48-3.4,6.09.77,1.15,1.36,2.02,1.79,2.67,1.43.36,2.67.67,4.29,1.08,1.12-.76,2.46-1.67,3.64-2.46v-4.75c-.37-.37-.72-.72-1.19-1.19h-3.88c-.45-.52-.84-.97-1.24-1.43Zm302.6,125.43c1.3-3.87-1.64-7.02-1.24-11.14-.37-.22-1.02-.61-1.46-.87-.08-.84-.13-1.42-.2-2.1h-2.73c-.12-1.05-.22-1.97-.39-3.48-.99.96-1.6,1.56-2.4,2.33,1.1.9,1.96,1.6,2.64,2.16.07,1.96-.07,3.58.69,5.23.62,1.34.83,2.9.93,4.48.09,1.5,1.11,2.94,1.77,4.54.96-.47,1.78-.87,2.37-1.16Zm-238.68-37.81c-1.09-1.08-2.04-2.02-3.22-3.2-.8.22-1.92.53-2.64.73-1.11-.33-1.88-.56-2.6-.78-1.26,1.67-2.4,3.19-3.5,4.65.44.82.82,1.52,1.21,2.24h3.65c.67.59,1.28,1.14,2.08,1.85.98-1.22,1.79-2.22,2.72-3.38q1.95-.29,2.3-2.12Zm178.31.62c2.59.32,7.42,2.87,10.45,5.03,1.28.92,2.28,1.14,3.45.83.39-.66.78-1.13.94-1.66.16-.55.08-1.16.09-1.41-2.03-.75-3.73-1.49-5.5-1.99-1.9-.53-3.97-.48-5.66-1.65v-2.64c.26-.86,2.11-.94,1.02-2.58-1.66.88-3.36,1.77-5.05,2.67l.32.17c-.63.64-1.27,1.27-1.74,1.74.17.15.63.56,1.67,1.49Zm-65.11,41.79c-1.27-1.65-1.64-3.26-1.6-5.13.11-5.19.04-10.37.04-16.3-.78,1.13-1.27,1.61-1.48,2.19-1.02,2.8-1.06,5.8-1.43,8.7-.4,3.17-.09,6.42-.09,9.53.37.37.64.64,1.01,1.01h3.55Zm-83.96-14.62c-2.49-2.88-4.89-5.67-7.31-8.44-.05-.06-.24,0-.54,0-.63.68-1.34,1.46-2.16,2.35,2.62,3.55,5.1,6.93,7.51,10.21h2.49v-4.1Zm158.78-36.34c2.67,2.29,6.61,1.07,9.41,3.55.71-2.49,2.15-4.45,1.7-7.07-1.57,0-3.36-.53-4.42.12-1.68,1.03-2.87.18-4.22-.23-.89.45-1.7.85-2.47,1.23v2.39Zm-18.08,13.24c-2.23-1.4-4.85-2.21-6.8-4.38-2.79,3.16-5.38,6.11-8.4,9.53,3.12-1.11,5.67-2.01,9.23-3.27h5.97v-1.87Zm-144.87,29.77c-2.83-3.77-5.44-7.23-8.11-10.79-1.11,1.23-1.99,2.21-2.88,3.21,3.53,2.55,4.72,6.52,7.2,9.59h2.61c.36-.6.71-1.2,1.19-2.02Zm173.04-74.19c-.33.33-.56.65-.86.85-1.96,1.24-3.97,2.4-5.9,3.69-2.03,1.35-4.57,1.79-6.32,3.66-.22.23-.9.03-1.31.03-.14.55-.18.91-.33,1.22-.13.27-.38.48-.56.71.86.95,1.68,1.58,2.89.74.95-.67,2.05-1.92,2.9-1.79,1.82.28,2.16-1.78,3.86-1.78,1.16,0,2.3-1.46,3.5-2.18.68-.4,1.48-.62,2.09-.87.62-.87,1.21-1.69,1.8-2.52-.52-.52-1.04-1.04-1.76-1.76Zm-9.88,25.42h7.61c1.25-1.68,2.55-.14,3.74.08,1.01-1.7,1.57-3.34.85-5.5-3.56.67-7.12,1.33-10.9,2.04-.67.77-2.13,1.44-1.31,3.38Zm-137.11,32.72c-.31.11-.63.23-.94.34.18.73.16,1.62.58,2.18,1.83,2.44,3.02,5.18,4.25,7.95,1.25,2.83,2.3,5.8,4.18,8.34,1.25,1.68,2.18,3.59,3.44,5.27.51.68,1,1.81,2.43,1.42-.57-.97-1.15-1.89-1.67-2.84-.55-1.01-1.03-2.06-1.6-3.07-.57-1.01-1.28-1.95-1.81-2.98-.52-1.02-.62-2.44-1.4-3.1-1.22-1.03-.57-2.29-1-3.36-.09-.21-.38-.33-.51-.54-.55-.89-1.18-1.75-1.58-2.7-1.07-2.58-3.08-4.5-4.37-6.92Zm-115.6-20.77c.12-2.9,2.14-5.64-.17-8.07h-5.29c-.42,1.32-.92,2.39-1.09,3.52-.18,1.19-.04,2.42-.04,3.48.53.49.88.81,1.21,1.11,1.16-.4,2.23-.77,3.43-1.18v-1.95c.59.16,1,.27,1.41.38-.3.99-.54,1.8-.81,2.71h1.36Zm252.33,41.7c.57.07,1.03.18,1.48.18,5.61.01,11.21.01,16.82,0,.19,0,.38-.25.55-.38v-2.23c-.36-.36-.71-.71-1.11-1.11-1.44,0-3.36-.57-4.31.14-1.25.93-2.54.32-3.76,1-1.15.64-2.95,0-4.3.42-1.75.56-3.89.08-5.37,1.98Zm8.39-24.85c-3.93,1.56-7.72,3.12-11.29,5.02q.26,1.68,1.51,2.82c1.34-.91,3.33-.58,4.1-2.28h3.11c-.03-.12-.07-.24-.1-.36,1.64-.5,3.27-1.01,4.89-1.5v-1.48c-.62-.62-1.23-1.23-2.23-2.23Zm.69-64.12c-1.43.4-1.91.93-2.27,2.01-.49,1.5-1.24,2.96-2.14,4.32-.63.94-2.04,1.56-1.53,3.08-1.16.9-1.39,2.68-2.85,3.11v1.88c3.23-2.12,5.54-5.34,9.39-6.2.32-.72.64-1.46.95-2.17-.46-.84-.91-1.65-1.56-2.83v-3.19Zm3.69,22.36c-2.61.94-4.81,1.64-6.94,2.52-2.23.93-4.38,2.03-6.67,3.11.6.6.95.95,1.3,1.3,1.44.09,2.89.29,4.15-.7.9-.71,1.95-.8,3.05-.76,1.37.05,2.73.01,4.08.01.37-.37.72-.72,1.02-1.02v-4.47Zm-6.47-.46c2.45.11,4.66-1.38,6.41-3.24v-2.03c-.9,0-1.8-.28-2.35.04-3.91,2.26-8.22,3.79-11.86,6.5-.37.27-.46.91-.79,1.63,3.43.24,5.65-1.6,8.6-2.91Zm-29.19,53.61c.4.39.63.75.74.72,1.04-.35,2.28-.53,3.04-1.22,1.09-.98,2.28-1.67,3.55-2.31,1.14-.58,2.25-1.27,2.21-3.25-1.37.65-2.38,1.14-3.71,1.77-3.11-.4-6.07,1.08-8.87,2.27v4.35c.57.39,1.05.71,1.57,1.06.53-1.22.98-2.25,1.47-3.39Zm17.06-9.88c1.84,1.5,1.83,1.44,3.33.4,1.32-.92,2.86-1.45,4.28-2.19,1.21-.63,2.63-.86,3.74-2.13-1.37-.91-2.72-1.81-4.24-2.82-2.49,1.59-4.81,3.07-7.12,4.54v2.21Zm-7.74-39.77c1.88.93,3.35,1.9,5.26,2.35,1.76.41,3.51,1.25,5.99,2.21-.68-1.19-.96-1.66-1.22-2.13-.28-.5-.77-1.01-.77-1.51,0-2.26-1.26-3.7-2.9-5.03-2.15,1.39-4.2,2.71-6.36,4.12Zm-126.84,44.35c-.33,1.75-.18,2.73.67,3.86,1.88,2.5,3.12,5.41,4.56,8.19.16.31.58.68.51.88-.68,1.9,1.21,2.76,1.69,4.2.31.93,1.76,1.42,1.34,2.8,1.58,1.21,1.69,3.82,4.37,4.42,0-.58.18-1.15-.03-1.38-3.01-3.37-4.5-7.6-6.59-11.5-2.03-3.79-3.55-7.86-6.53-11.47Zm127.58-33.83c1.07,2.1,3.41,1.3,4.49,2.27,1.38,1.25,3.56.78,4.47,3.07,1.76-3.1.73-5.88,1.06-9.14-3.24,2.38-6.5,3.15-10.01,3.81Zm-120.57,26.08c2.41-.63,4.25-1.44,5.99-2.08,1.78-.66,2.71.18,3.86.69.85.37,1.73,1.22,2.06,2.07.48,1.21,1.31,1.64,2.42,1.92v-6.77c-1.46.35-2.7.64-3.82.9-1.36-.71-2.67-1.39-3.98-2.07-1.75,1.98-4.67,2.55-6.53,5.35Zm-147.8-51.11c1.41-1.4,2.81-2.79,4.3-4.27v-1.46c-2.02-.4-3.19-2.77-5.59-2.44-.59,1.49-1.19,2.98-1.89,4.76,1.51.57-.15,4.18,3.18,3.41Zm104.74,70.67c1.79,2.94,3.55,5.83,5.49,9,1.04-.51,1.93-.95,3.07-1.51-2.28-3.45-4.3-6.58-6.42-9.65-.4-.58-1.21-.88-2.14-1.52v3.68Zm19.98-128.54c.19.43.25.83.48,1.03,1.95,1.65,3.28,3.65,3.93,6.15.25.98-.07,2.42,1.77,2.74.61-2.04,1.37-4.07,2.57-6.25-1.84-1.16-3.47-2.27-5.17-3.22-.78-.44-1.72-.63-2.61-.84-.25-.06-.59.22-.97.38Zm163.9,96.75c.4-1.1.78-2.17,1.2-3.34-1.67-.47-3.39-.51-4.47-1.36-1.4-1.1-3.29.46-4.36-1.21-.9,1.02-2.54,1.66-1.67,3.65,1.75.34,3.58.69,5.98,1.16.08.12.5.72.77,1.1h2.54Zm-139.81,43.37c-3.41-6.7-5.97-13.53-10.33-19.46-.33.16-.64.3-1.26.59,1.68,1.3,1.92,3.25,2.89,4.85.68,1.12,1.46,2.37,1.92,3.65,1.31,3.68,3.1,7.1,4.88,10.47.69-.03,1.17-.05,1.89-.09Zm123.11-7.47c-.67-.67-1.02-1.02-1.36-1.35h-2.18c-.92.65-1.58,1.12-2.37,1.68-.61-.97-1.1-1.74-1.5-2.38h-4.22c.25,1.79-.14,3.48.32,5.29,3.14-.69,6.15-1.1,8.64-3.24h2.68Zm-204.48-24h3.32c.82-1.18,1.57-2.24,2.42-3.46-.02-3.99-.3-4.47-3.96-6.74-.67.23-1.2.43-1.74.61-1.63.54-2.18,1.25-2.23,2.98,1.19-.77,2.34-1.52,3.28-2.12.99.98,1.94,1.92,3.02,2.98v2.93c-1.61.32-3.1.63-4.38.88-1.17-.77-1.73-1.87-3.03-2.05.87,1.63,2.21,2.84,3.31,3.99Zm-75.63-16.43c-1.5-3.51-.81-6.89-1.04-10.38h2.89v-2.8c-.55-.18-.94-.31-2.13-.71,1.14-.59,1.76-.91,2.52-1.31-1.36-.91-2.33-1.56-3.08-2.06-.2-.86-.33-1.43-.46-2-.09.05-.18.09-.48.25.29,2.39-.54,4.95.62,6.97-1.03,4.19-.54,8.08-.39,11.96,0,.07.18.13.28.2.24-.02.48-.04,1.27-.11Zm31.21-77.01c-.35.22-.72.35-.72.47.03,2.03-.87,3.09-2.95,3.43-.96.15-1.83.95-2.72,1.48-.12.07-.14.33.09-.27.28.88.43,1.35.53,1.65,1.04-.55,1.86-.99,2.95-1.57,2.68,0,5.63,0,8.59-.01.06,0,.13-.16.19-.25-.35-.35-.7-.7-1.05-1.05-.59-.03-1.17-.06-1.74-.08-1.13-1.35-2.16-2.59-3.17-3.79Zm149.22,60.76c-1.24-1.66-2.36-3.16-3.11-4.17-1.05.96-2.03,1.85-2.95,2.68,1.11,1.95,2.28,3.99,3.71,6.5.94-2,1.64-3.51,2.35-5.01Zm-40.66,42.64c.79,1.45,1.42,2.62,2.44,4.49.38-1.48.56-2.2.81-3.2,3.04-2.74,6.25-5.63,9.46-8.53-4.57,1.83-8.24,5.08-12.71,7.24Zm141.11-11.37c3.09.48,4.7-2.27,7.67-3.27-2.03-1.1-3.64-1.97-5.36-2.91-1.24,1.51-2.37,2.89-3.38,4.12.36.69.63,1.2,1.07,2.06ZM77.15,88.09c-.81,0-1.31,0-1.8,0-1.1,2.25-3.99,2.87-4.99,5.62,1.67,1.04,3.39,2.12,5.15,3.21.9-.69,1.39-1.56.92-2.37-1.15-.59-2.11-.86-2.71-1.48-.35-.36-.14-1.27-.21-2.2,1.42.27,2.5.48,3.65.7v-3.49Zm9.57,53.1c2.64-3.41,1.42-7.34,1.79-11.1-.84-.4-1.42-.67-2.31-1.1,0,1.01.04,1.61,0,2.2-.18,2.39.43,4.82-.69,7.17-.47.98-.02,2.15,1.21,2.82Zm144.15,25.44c.78-5.1-3.01-7.49-5.64-10.35h-2.15c2.7,3.59,5.24,6.97,7.79,10.35Zm-37.72-40.98c-2.16,1.56-2.2,3.3-2.13,5.16-1.07.33-1.94.6-2.91.89v2.56c.73.59,1.54,1.25,2.67,2.18.51-2.15.9-3.83,1.36-5.74.24-.24.67-.67,1-1v-4.06Zm-68.63-6.67c-1.41-1.61-1.04-3.38-.02-5.05-1.39-.89-2.25-.32-3.14.76v4.71c-.99.91-1.99,1.81-3.32,3.02,3.07.08,4.69-1.64,6.48-3.44Zm133.07,56.06c-1.35.69-2.23,1.14-3.18,1.62,1.28,3.5,1.83,6.8,1.92,10.29.63-.19.96-.29,1.25-.38v-11.53Zm181.25-5.05c-1.64-2.06-3.79-.71-5.34-1.14-.83.43-1.44.75-2.06,1.07,0,2.44.45,3.42,1.72,3.42.52-.47,1.13-1.02,1.73-1.57h2.16c.6-.6,1.12-1.12,1.78-1.78Zm-387.74-28.96c1.28-1.27,2.41-2.4,3.64-3.62,0-2.66-.02-5.51,0-8.37.02-2.4-.29-4.84.72-7.16.1-.22-.2-.61-.33-.97-.44.12-.77.22-1.02.29-.46,1.34.51,2.86-.55,3.66.16.95.34,1.73.39,2.51.02.34-.46.78-.36,1.04.85,2.15.55,4.42.28,6.53-.21,1.63-.35,3.9-2.77,4.32v1.77Zm213.81-43.98c1.42,1.11,2.61,2.05,3.75,2.95h2.31c.08-.38.15-.72.21-1.05.82-.35,1.73-.62,2.48-1.12.32-.21.29-.92.53-1.8-1.83.81-3.18,1.42-4.18,1.86-2.21-.35-1.51-2.25-2.51-3.42-.95.95-1.76,1.75-2.59,2.58Zm-189.83,68.69c.21,0,.42,0,.63,0,0-4.79.11-9.59-.07-14.38-.05-1.41-.91-2.8-1.44-4.29-1.43,1.03-2.58,1.86-3.72,2.68l.27.48c.7-.27,1.4-.55,2.32-.9.55.67,1.17,1.41,2.02,2.44v13.97Zm135.78-94.1c.62-.61,1.23-1.23,1.94-1.93-.08-1.06-.17-2.2-.27-3.57-1.81.75-2.63,1.85-3.18,3.37h-2.64c.07.82.12,1.49.18,2.14,1.49,0,2.73,0,3.98,0Zm-3,114.55c1.37-2.37-2.09-3.38-1.12-5.44-1.35-1.97-2.71-3.95-4.06-5.92-.23,1.14-.78,2.11.04,3.16.77.98,1.2,2.22,1.87,3.28,1.02,1.63,2.12,3.21,3.26,4.92Zm-132.09-10.16c2.3-.34,4.44-1.03,6.53-.89,3.78.26,3.76.46,7.32-1.15-5.3.41-10.06-.69-14.72,1.1.33.35.57.61.87.94Zm66.17-12.41c.88-1.03,2.56-1.67,1.75-3.54-1.45-.82-2.35.58-3.26.78-1.24,1.88-2.36,3.59-3.57,5.43.62.18.95.28,1.33.39.52-1.05,1.02-2.05,1.53-3.06h2.23Zm57.5,21.76c1.57-.25,3.05.26,4.58-.53-.69-.98-1.6-1.71-1.68-2.52-.13-1.31-.62-1.99-1.8-2.32-1.29,1.51-1.54,3.2-1.1,5.36Zm40.7-68.94c1.02,1.43,1.9,2.67,2.83,3.98.94-1.19,2.42-1.83,1.98-3.43-.91-.95-1.77-1.84-2.62-2.73-.65.64-1.26,1.26-2.18,2.18Zm-123.27,3.13c.79-.77,1.54-1.5,2.26-2.21.38-2.21-1.65-2.15-2.81-3.12-.63,1.07-1.21,2.05-1.76,2.99.83.84,1.56,1.58,2.3,2.33Zm-47.12-6.16c-1.48-1.86-2.83-3.57-4.14-5.21-1.05.1-1.85.17-2.61.25v1.73c1.51.76,3.02,1.52,4.35,2.19.18.52.3.84.37,1.04h2.03Zm364.76,63.66c1.37-.27,2.5-.68,3.64-.68,1.21,0,2.41.37,3.95.64-.67-1.74-2.41-1.78-2.81-2.85h-3.2c-.48.97-2.04,1.2-1.59,2.9Zm-181.54-70.3q-1.82.26-3.3,2.08c.42,1.07.84,2.12,1.31,3.31,1.15-.75,2.04-1.34,2.55-1.67-.21-1.41-.37-2.43-.56-3.73Zm-170.82-15.03c.41-4.18,1.3-8,5.53-10-.35-.35-.7-.7-1.05-1.05-4.07,3.57-5.81,4.88-4.47,11.05Zm-11.53,43.49c.87-1.15,1.33-1.77,1.8-2.39.81.41,1.43.71,1.64.82.76-.41,1.26-.68,2.41-1.29h-6.63c-.12.48-.21.81-.31,1.21-.65.1-1.34.21-1.96.3v2.3c1.27-.39,2.33-.73,3.05-.95Zm69.82,36.52q-1.87.39-2.99,2.33,3.5-1.19,5.86-3.6c-.32-.74-.68-1.58-1.06-2.46-1.11.12-1.97.22-3.03.34.51.5.73.84,1.04,1.01.39.22.85.33,1.3.48-.31.53-.59,1.01-1.1,1.89Zm206.01,7.61c-2.22.83-4.35,1.63-6.48,2.42.02.13.05.25.07.38h6.55c.36-.43.72-.88,1.13-1.38-.47-.52-.79-.88-1.28-1.43Zm-99.21-68.37c-.86.49-1.72.98-2.61,1.49.77,1.3,1.36,2.28,1.94,3.27.79-.43,1.46-.79,2.08-1.13v-2.22c-.63-.63-1.24-1.24-1.41-1.41Zm-158.72-30.85c.66.63,1.3,1.24,2.1,1.99.04-.73.07-1.32.1-1.85,1.91-1.17,3.79-2.31,5.66-3.48.1-.06.07-.33.11-.58h-1.97c-2.33,1.52-4.2,2.75-6,3.92Zm-6.17,60.25c.61-2.63-2.1-5.3.22-7.66-.54-.54-.89-.89-1.01-1.01-.53.3-1.07.6-1.52.86,1.52,2.72,1.02,5.23.04,7.8h2.27Zm174.92-36.46c.98.76,1.74,1.35,2.56,1.98h1.51c-.27-2.77-1.16-4.34-2.71-4.34-.37.64-.81,1.41-1.36,2.36Zm-152.01,72.48c-1.5.96-1.17,2.26-.86,3.91,1.27-.43,2.42-.83,3.38-1.16v-2.76h-2.52Zm-30.3-51.2c0-1.84,0-3.57,0-5.31-.61-.86-1.22-1.73-1.84-2.59-.17.1-.34.2-.51.3.52,1.11,1.04,2.22,1.77,3.77,0,1.75,0,3.96.01,6.17,0,.05.16.1.07.04,1.05-.37,1.96-.69,2.88-1.01v-.63c-.71-.22-1.4-.43-2.37-.73Zm-7.8,44.47c2.31-.71,4.5,1.47,7.08.44-.06-1.18-.12-2.33-.17-3.48-.14,0-.27,0-.41,0-.12.68-.23,1.37-.35,2.08h-5.66c-.19-.56-.32-.93-.43-1.24-.51.4-.9.7-1.28.99.42.42.77.77,1.22,1.22Zm16.13-68.28c.6-.88.93-1.38,1.28-1.9v-2.25h-3.6v1.56c.65.73,1.28,1.43,2.32,2.59Zm28.15.21c-.52.28-.91.58-1.35.69-.43.11-.9.02-1.6.02,2.31,2.85-.37,5.51.4,8.71.54-.85.84-1.32,1.27-2v-4.14c.88-.83,1.99-1.56,1.27-3.28Zm-12.94,74c-1.11,1.54.59,2.49.76,3.72,1.26.22,2.37-.12,2.58-1.34.13-.77-.49-1.66-.73-2.39h-2.61Zm163.4-74.89c.93,1.05,1.56,1.77,2.14,2.43.76-.1,1.32-.17,1.8-.24.47-2.44-1.69-2.97-2.65-4.58-.48.88-.86,1.58-1.3,2.38Zm-198.68-.51h-2.71c.36,1.19.66,2.16.96,3.15-.29.45-.59.93-1.07,1.69.75.12,1.2.15,1.62.27.51.15,1,.39,1.57.62v-1.95c-.58-.2-.99-.34-1.37-.48.35-1.14.65-2.11,1.01-3.3Zm16.73,5.22c.78-.37,1.61-.77,2.46-1.17.22-1.37-.06-2.45-1.64-2.67-1.35-.19-1.78.42-1.99,2.67.35.35.71.7,1.18,1.17Zm-23.05,37.9c.53-1.05,2.03-1.4,1.25-3.24-1.29,1.35-2.39,2.5-3.52,3.67,1.2.9.93,2.89,2.8,2.62.85-1.13,0-1.98-.53-3.06Zm42.4,41.22c-2.32.43-2.94.91-2.56,2.25.18.66.96,1.16,1.58,1.85.92-1.06,1.61-1.85,2.41-2.78-.61-.56-1.04-.96-1.43-1.32Zm-15.23-82.92v3.48c1.38.67,2.15-.07,2.76-.8v-2.68h-2.76Zm16.23,80.91c.88,1.06,1.69,1.77,2.93,1.1.33-.76.65-1.5,1.11-2.57-.91-.42-1.8-.83-2.69-1.24-.52,1.05-.88,1.77-1.35,2.71Zm224.82-.34h2.24c-.39-2.06-.76-3.96-1.13-5.93-.43.1-.76.18-1.11.26v5.67ZM80.26,110.19c1.26-.51,2.1-.84,2.98-1.2-.08-1.17-.13-2.07-.18-2.83h-2.8v4.02Zm15.73,73.93c1.2-.57,2.02-.96,2.96-1.41-.06-.86-.13-1.76-.18-2.51h-2.78v3.92Zm22.75-49.6c-.39,1.05-.84,1.98-1.07,2.95-.29,1.23.1,1.56,2.04,2.06.58-1.61-.44-3.44.97-5.02h-1.94Zm-30.92-36.59v3.47c2.24-.08,2.87-.46,2.87-1.71,0-1.27-.59-1.65-2.87-1.77Zm-24.86,19.97c-1.25.61-1.91,1.59-1.4,2.65.52,1.08,1.58,1.86,2.92.83-.01-1.29.37-2.72-1.52-3.48Zm-2.32,34.77c.09.12.17.24.26.36h5.7c-.11-.15-.22-.3-.33-.45.44-.15.88-.3,1.32-.46-.09-.12-.17-.24-.26-.36h-5.7c.11.15.22.3.33.45-.44.15-.88.3-1.32.46Zm34.69-39.17c-.24,1.89,1.44,2.97,1.61,4.57.86-.09,1.44-.14,2.31-.23-1.05-1.9-1.93-3.47-3.92-4.34Zm-29.56,61.93c2.09.19,3.96.6,5.42-.6.84.35,1.43.59,2.38.98-.15-.9-.22-1.32-.33-1.94-1.93.27-3.68.51-5.58.77-.08-.07-.33-.29-.59-.51-.38.38-.73.73-1.31,1.3Zm187.88-71.21c.74,2.49,1.57,4.05,3.33,4.93.33-.26.51-.4.91-.71-1.38-1.15-1.47-3.37-4.24-4.22Zm-137.42,84.12c1.29-.19,2.55.25,3.51-.27-.33-1.89-.61-3.45-.88-5.01-.11,0-.23,0-.34,0-.08,1.26-.16,2.52-.25,3.88h-2.03v1.4Zm314.38-21.61h-3.65v1.83c.66.32,1.31.63,2.04.99.55-.96,1.04-1.82,1.6-2.82Zm-381.57-2.7c.49-1.49.85-2.58.96-2.92-.3-2.1-.5-3.47-.77-5.38-.52.77-.83,1.23-.96,1.43.24,2.17.47,4.17.77,6.86Zm48.11,27.21c.11-.18.22-.35.32-.53-1.74-.5-3.48-.99-5.15-1.47v1.99h4.83Zm3.5-81.18c-1.6-1.84-2.44-2.17-3.45-1.17.35.74.76,1.58,1.11,2.33.9-.45,1.51-.75,2.34-1.16Zm20.78-.69c-1.57.87-2.71,1.5-3.38,1.86.27.72.5,1.32.82,2.19,1.12-1.11,1.82-1.78,2.46-2.49.13-.14.04-.47.09-1.56Zm-15.72,3.9c1.24.29,2.17,1.66,3.57.76-.34-.67-.68-1.33-.93-1.82-.97-.25-1.79-.45-2.64-.67v1.73Zm98.44-18.19c-3.18-.12-3.44.18-2.99,2.86,1.35-.41,2.07-1.39,2.99-2.86Zm-97.04,78.7c1.83.39,3.08,2.48,5.91,1.33-1.29-.47-2.07-.67-2.78-1.03-.76-.38-1.44-.9-2.11-1.33l-1.03,1.03Zm-29.42-66.43c-.55.24-.93.41-1.31.58.66,1.72,1.32,3.17,2.98,4.14v-2.05c-.38-.14-.81-.3-1.25-.45-.13-.68-.26-1.36-.42-2.22Zm-30.24,45.81h.37v-8.23h-.37v8.23Zm70.12,23.48c-.56.28-1.12.57-1.55.78.37.97.68,1.6.86,2.26.16.58.18,1.21.35,2.5.48-2.08.79-3.43,1.09-4.78-.35-.35-.71-.7-.76-.76Zm-3.68,11.79h-4.42v1.44c1.54-.38,3.3.74,4.42-1.44Zm90.17-100.4c-.72.89-1.37,1.71-2.38,2.96,1.28.06,1.96.09,2.5.11.38-.82.66-1.41.94-2.01-.26-.26-.53-.53-1.06-1.06Zm-96.04-9.17c-2.17-.36-4.11-.66-6.87-.18,2.44.48,4.02.79,5.39,1.06.52-.31,1-.59,1.48-.88Zm-6.22,35.93v-1.98c-.12.09-2.87,2.2-2.87,2.2.08.21.16.42.33.85.9-.38,1.8-.76,2.54-1.07Zm15.37,13.56h2.55v-2.94c-1.96.22-1.38,1.9-2.55,2.94Zm-4.79-5.98h3.99c-1.38-.89-2.45-1.58-3.86-2.5-.06,1.06-.09,1.73-.13,2.5Zm20.76,52.75l-.34-.3v4.95c.14-.17.28-.34.42-.51.16.55.31,1.09.47,1.64.14-.12.29-.24.43-.36l-.97-5.42Zm2.81,10.11c-.61-1.23-1.02-2.05-1.45-2.91-1.05.89-1.57,1.73-.85,2.91h2.3Zm-88.06-56.63c-1.08,1.85.03,3.94-1.32,5.78h1.32v-5.78Zm85.27,41.57c-.67.67-1.26,1.12-1.65,1.7-.25.37-.21.93-.33,1.6,1.96-.38,2.43-1.36,1.98-3.3ZM55.68,105.84c-.31,1.86.58,2.91,1.94,4.13v-2.19c-.52-.52-1.13-1.13-1.94-1.94Zm51.51,84.32c-1.75-1.12-3.08.14-4.54.75,1.75,1.12,3.08-.14,4.54-.75Zm-45.57-19.19c.38-1.67.95-3.36,0-4.97v4.97Zm2-38.63c-.39,1.66-.95,3.35,0,4.97v-4.97Zm7.11,7.35c-1.47,0-2.54-.01-3.62.02-.09,0-.17.31-.26.48,1.11.33,2.19.66,3.34,1.01.12-.34.23-.66.53-1.51Zm-6.73,8.29c.57-.53.91-.86,1.26-1.19-.7-.47-1.09-1.82-2.42-.63.35.55.71,1.11,1.16,1.82Zm16.84-55.42c-.17,0-.33,0-.5,0-.04.69-.02,1.38-.14,2.05-.1.55-.38,1.07-.66,1.83.69-.16,1.02-.23,1.47-.33-.06-1.24-.11-2.4-.16-3.56Zm111.07,26.26c.06.92-.86,2.23,1.24,2.16v-2.16h-1.24Zm-104.82-27.9c.18.05.35.1.53.15.3-.65.6-1.3,1-2.16h-1.52v2.02Zm47.97,84.44v2.76c.64-.8,1.07-1.32,1.67-2.07-.67-.27-1.05-.43-1.67-.68Zm97.12,5.31c.66-.35,1.15-.61,1.55-.83-.51-.59-.82-.94-1.38-1.59-.07.98-.11,1.63-.17,2.42Zm-178.73-32.01v1.59c.54-.11.87-.18,1.36-.27-.11-.52-.19-.93-.27-1.31h-1.09Zm-7.06-11.85c-.21.02-.43.04-.64.05.06.9.12,1.8.18,2.71.15,0,.31-.02.46-.03v-2.73Zm42.18-42.87c.22-.01.45-.02.67-.04-.09-.66-.19-1.32-.28-1.98-.13.01-.26.02-.39.04v1.99Zm47.91,56.34c.02.22.04.44.07.66l1.96-.28c-.01-.13-.03-.25-.04-.38h-1.99Zm-72.18,23.45v-1.22c-.52.09-.85.15-1.91.33,1,.46,1.51.7,1.91.89Zm14.3-34.18c-.02-.22-.04-.44-.07-.66-.65.09-1.31.19-1.96.28.01.13.03.25.04.38h1.99Zm36.25,37.46c-.13-.39-.3-.96-.48-1.52-.11.08-.22.16-.33.24v1.29h.81Zm-63.96-12.54c-.22.02-.44.04-.66.07.09.65.19,1.31.28,1.96.13-.01.25-.03.38-.04v-1.99Zm51.49-20.52q.24-1.13-1.58-.99c.75.47,1.21.75,1.58.99Zm-3.56-63.47c-.03-.22-.05-.43-.08-.65-.41.1-.81.19-1.22.29.02.12.04.24.06.36h1.24Zm16.4-1.37h-.37v1.5h.37v-1.5Zm-17.78-3.55v.37h1.5v-.37h-1.5Zm-28.58,89.66c-.22.03-.43.05-.65.08.1.41.19.81.29,1.22.12-.02.24-.04.36-.06v-1.24Zm37.45-24.92c-.03-.22-.05-.43-.08-.65-.41.1-.81.19-1.22.29.02.12.04.24.06.36h1.24Zm-46.55,3.12h-.25v.75h.25v-.75Zm4.74-4.99v.25h.75v-.25h-.75Zm8.74-1.74h-.25v.75h.25v-.75Zm-8.49-5.23h.25v-.75h-.25v.75Z"/>
      <path d="m243.29,200.3c2.01.33,3.89.64,6.21,1.02.99,1.24,2.27,2.85,3.61,4.54v7.23c-1.51,1.51-3,2.99-4.38,4.37v2.76c-.76,1.38-1.31,2.38-1.96,3.55.8.27,1.23.41,1.78.6v4.47c-.52.43-1.37,1.13-2.44,2.02,1.36,1.42,2.62,2.74,3.99,4.17v3.06c-3.55,1.27-7.18,1.16-10.82,1.04-.35-.35-.71-.71-1.2-1.2.62-1.28,1.17-2.68,1.96-3.93.76-1.2,1.78-2.23,2.7-3.35-.32-1.32.55-2.79-.65-3.73.36-1.03.7-2,1.15-3.3-.46-.56-1.11-1.35-2.09-2.55.18-.83.48-2.19.74-3.37-1.04-.97-2.02-1.87-2.86-2.65-.14,2.44.18,5.81-3.76,7.13v3.81c-1.34.84-2.52,1.57-3.95,2.47.85,1.52,1.73,3.1,2.48,4.43-1.36,1.36-2.49,2.49-4,4-.26.03-1.19.13-2.65.3,1.82,2.32,3.36,4.29,5.17,6.59-.21.5-.58,1.35-.91,2.13-2.64,0-5-.07-7.36.02-1.81.07-3.27-.53-4.61-1.95.56-2.8,3.32-3.49,5.25-5.51.01-.13.08-.72.15-1.38.71-.11,1.39-.21,2.17-.33-.1-.48-.05-.91-.25-1.12-.68-.71-1.45-1.35-2.15-1.97,1.52-2.49,3.17-4.15,5.68-5.61-.57-.99-1.14-1.99-1.86-3.24.24-.72.56-1.71.81-2.46-1.06-2.08-2-3.93-2.87-5.64.28-.91.51-1.65.84-2.71.92-.83,2.1-1.91,3.43-3.12,1.07-.25,2.46-.57,4.11-.95.95.94,2.02,2.02,3.14,3.13.77-1.6-.22-2.73-.35-3.96-.13-1.22.24-2.59.72-3.77.43-1.07,1.15-2.09,1.99-2.89.92-.88,2.11-1.47,3.06-2.11Zm-.23,3.7c-2.32,2.43-2.72,3.09-2.6,4.98.16,2.62,1.27,4.76,3.52,6.23,2.68.16,5.08-.38,6.17-3.15,1.41-3.55.89-5.34-2.02-8.07h-5.07Zm-6.07,12.31c-.93-1.36-1.64-2.38-2.5-3.62-1.52.7-2.97,1.37-4.37,2.02-.35.79-.68,1.52-1.04,2.33.96,1.22,1.89,2.41,2.59,3.31h2.64c.88-1.33,1.72-2.59,2.68-4.04Zm7.36,17.04c-.42.89-2.02,1.11-1.53,2.66h4.5c-1.08-.97-1.97-1.77-2.96-2.66Zm-18.72,7.38c-.35.55-.71,1.12-1.25,1.98h3.33v-.93c-.57-.29-1.17-.59-2.08-1.05Zm3.72-9.18c-.36.8-.66,1.45-1.31,2.9,1.45-.79,2.09-1.14,2.84-1.55-.5-.44-.85-.75-1.53-1.36Zm14.32-12.53c.75,1.02,1.18,1.6,1.89,2.56v-2.56h-1.89Zm1.26,7.6v.37h1.5v-.37h-1.5Zm-13.35-1.8c.22-.03.43-.05.65-.08-.1-.41-.19-.81-.29-1.22-.12.02-.24.04-.36.06v1.24Z"/>
      <path d="m178.86,220.39c-2.12-.36-4.49,1.6-7.05.67-2.23-.81-4.51-1.62-5.94-3.69-1.4-2.01-2.71-4.09-4.05-6.12,0-1.31.07-2.55-.01-3.78-.17-2.56.99-4.61,2.6-6.39,1.86-2.06,3.55-4.26,6.18-5.6,1.57-.8,3.02-1.28,4.74-1.22,1.37.05,2.74.01,3.8.01.92.6,1.57,1.33,2.32,1.44,2.4.37,3.36,2.14,4.34,3.96,2.04,3.81,3.53,7.75,2.87,12.48-1.92,2.16-4.02,4.53-6.13,6.89-.09-.14-.18-.27-.27-.41-.92.47-1.84.95-3.39,1.74Zm5.42-15.92v-3.27c-1.54-.73-2.14-2.83-4.06-3.25-.21.21-.32.28-.37.38-.05.1-.1.3-.05.34,1.82,1.43,2.59,3.66,4.48,4.95v6.36c-1.51,1.64-2.85,3.09-4.19,4.54-.06-.11-.12-.22-.18-.33-1.26.57-2.51,1.13-3.72,1.68h-4.41c-1.9-1.59-3.75-3.14-5.45-4.57v-5.17c2.55-4.03,5.35-7.39,10.39-7.51v-1.28c-6.24-.75-8.93,3.72-11.9,8.01v5.58c2.2,2.78,3.48,6.36,7.3,7.05,3.19,1.06,6.03-.33,8.72-1.41,2.08-.84,3.8-2.71,4.91-5.08v-6.41c-.39-.39-.74-.74-1.46-.62Zm-3.13,5.22v-5.21c-.81-1.14-1.39-1.98-2.1-2.99-.8.71-1.49,1.34-1.73,1.55-1.96-.28-3.34-.48-4.53-.66-1.29,1.29-2.35,2.34-3.4,3.4v4.86c1.08.76,2.15,1.52,3.56,2.51,1.7-.28,3.7-.6,5.63-.91.91-.91,1.8-1.78,2.57-2.55Z"/>
      <path d="m112.78,230.17c.37,0,.79.11,1.11-.02,2.12-.89,4.22-1.83,6.73-2.92h5.63c.72.81,1.54,1.73,2.66,2.99v3.61h2.89c.37.53.8,1.14,1.24,1.76.49-.26,1.01-.37,1.07-.59.34-1.39,2.05-1.68,2.4-3.05.04-.17.75-.08.95-.3,1.72-1.87,3.95-1.43,6.11-1.48.86,1.69,1.69,3.34,2.42,4.76-.31,1.57-.58,2.96-.82,4.22-.52,1.49-.75,3.1-1.59,4.25-.84,1.15-1.27,2.87-3.22,3.01-1.93-1.59-4.06-3.33-6.43-5.29-.45,1.02-.67,2.04-1.26,2.77-.68.84-.89,2.21-2.29,2.36.18,1.56-1.63,1.08-2.09,2.05-.42.89-2.4.33-1.79,1.95-1.59.5-2.42-.33-3.04-1.23-1.53-2.2-1.41-4.75-1.29-7.27.69-1.03,1.39-2.07,2.09-3.11-1.5-.75-2.87-.08-4.03.63-1.31.8-2.35.86-3.61.02-.95-.64-1.99-1.25-3.07-1.56-2.35-.67-2.86-2.58-3.63-4.88,1.12-.64,2.32-1.32,3.51-2.01-.22-.22-.43-.44-.65-.66Zm28.09,13.12c1.17-3.13,2.13-5.68,2.8-7.45-.97-.97-1.59-1.59-2.19-2.18-.01.01-.27.27-.79.79v4.87c-2.28-.61-2.83-2.27-3.1-3.97-.51.09-.74.14-1.1.2v4.3c1.34,1.05,2.64,2.08,4.38,3.45Zm-15.02-1.22c-1.93.86-1.51,2.3-1.3,3.9.81.29,1.57.56,2.47.89,1.69-2.04,3.29-3.98,4.7-5.68v-4.29c-1.66-.04-2.03,1.32-2.91,1.99v3c-.5.43-.93.81-1.31,1.13-.72-.41-1.22-.69-1.65-.93Zm-12.77-7.68c1.5.5,2.51.07,3.66-.43,2.78-1.22,5.66-2.25,8.77-2.32.13,0,.25-.37.52-.79-.5-.51-1.03-1.06-1.59-1.63-2.76,1.03-5.27,2.17-8.11,1.64-.59,1.75-3.04,1.35-3.26,3.54Zm13.27.05c-3.4-1.59-5.42,1.07-8.15,1.22.27.64.41.95.63,1.47,2.16-1.56,5.05-.64,7.53-2.69Z"/>
      <path d="m27.05,172.01c1,1.39,1.91,2.65,2.93,4.07-.02.83.01,1.75-.54,2.86-1.78,3.58-3.84,6.77-7.42,8.83-.82.47-1.36,1.42-2.12,2.24-5.38-1.53-4.79-6-4.96-10.49-1.14.9-1.86,1.49-2.6,2.04-2.2,1.61-4.98,1.8-7.35,3-.61.31-1.21.63-2.2,1.14-.51-.97-.97-1.87-1.44-2.76-.17.17-.34.33-.51.5.25-.89.47-1.79.76-2.67.72-2.2,1.53-4.37,1.93-6.68.13-.74.68-1.6,1.3-2.03,1.79-1.24,3.42-2.63,5.65-3.33,2.11-.66,3.96-.84,5.71.24.92.57,2.06,1.32,1.94,2.91-.05.69.64,1.44,1.1,2.37.6-.36,1.18-.71,1.76-1.05-.46-.89-.88-1.68-1.34-2.58.73-1.03,1.56-2.18,2.31-3.24h2.49c.84.86,1.71,1.75,2.6,2.67v1.98Zm-22.44,7.79c.26.16.53.32.79.48.73-.76,1.49-1.48,2.17-2.28.37-.43.51-1.12.95-1.43.93-.67,2.08-1.04,2.94-1.77.81-.69,1.32-1.62,2.62-1.67.4-.02.77-1.01,1.36-1.87h-4.26c-3.73,1.99-6.24,4.53-6.56,8.54Zm14.52,5.89c1.33-3.62,1.6-6.99,3.9-10.34-2.69.59-3.46,2.46-4.82,3.4-.35,1.93-.67,3.75-.98,5.46.72.56,1.18.91,1.9,1.48Zm5.95-10.03c-.86,2.61-1.19,5.37-2.74,7.86.59.16.92.26,1.2.33,1.15-1.7,2.26-3.33,3.4-5.02v-3.18h-1.86Zm-15.7,4.44c2.32-.2,3.19-2.98,5.49-3.24.35-.04.68-.65.93-1.05.1-.15-.03-.45-.08-.88-2.47,1.15-4.59,2.7-6.62,4.39-.06.05.14.4.28.78Zm13.18-8.45h2.34c-.11-.54-.18-.87-.27-1.34-.77.07-1.43.12-2.07.18v1.16Z"/>
      <path d="m45.47,80.78c1.04.74,2.01,1.33,2.87,2.06.94.81,1.77,1.74,2.66,2.62,0,1.49,0,2.98,0,4.11-1.78,2.93-2.72,6.03-5.26,8.3-.27-.16-.66-.4-1.25-.76-.3.31-.69.72-1.06,1.12.56,1.41,1.19,2.66,1.55,3.98.22.81.04,1.73.04,2.63-1.37,1.18-1.97,2.98-3.68,4.05-1.43.9-2.3,2.69-3.54,4.24-1.38-.63-2.53-1.16-3.64-1.67-.94.46-1.97.95-3.19,1.54-1.3-.84-2.57-1.66-3.67-2.37-.37-1.91-.91-3.51-.93-5.13-.02-1.63.48-3.27.77-5.05.78-.83,1.41-2.04,3.08-1.98.42.02.95-.93,1.3-1.5.29-.48.3-1.15.63-1.59.27-.37.82-.52,1.17-.73-.79-1.57-1.36-2.69-2.05-4.07,1.33-2.28,2.67-4.58,4-6.85.52-.06.87-.1,1.21-.13.24-.02.48-.04.78-.06.49-2.09,2.23-2.87,3.97-3.68,1.48.32,2.97.64,4.24.92Zm-17.07,25.1c.76,1.38,1.51,2.8,2.33,4.18.15.26.56.37.94.6.67-.6,1.28-1.15,2.01-1.81,1.12.28,2.25.55,3.38.83.56-.28,1.17-.59,1.82-.92,1.02-1.48.46-4.08,3.08-4.55.05-2.98-.54-4.88-1.84-6.23-1.36.24-2.59.47-3.38.61-1.09-.77-1.75-1.24-2.4-1.7-1.59,1.48-1.96,3.87-4.16,4.19-.61,1.65-1.16,3.16-1.77,4.8Zm20.33-17.32c.31-2.41-1.51-3.32-2.76-4.23-1.34-.97-3.19-1.24-4.55-1.73-1.7,1.18-2.7,2.29-2.51,4.03-2.87-.37-3.36,1.88-4.3,3.4-.37.6-.06,1.62-.06,2.57h3.4c.56.56,1,1,1.63,1.62,1.11-.27,2.36-.58,3.58-.88.59.55,1.19,1.12,2.1,1.97.42-.8.71-1.35,1.28-2.42v-2.57c.64-.51,1.51-1.2,2.21-1.76Z"/>
      <path d="m196.39,246.05c-1.04,1.04-1.92,1.92-2.8,2.8h-3.1c-.53-.84-1.1-1.74-1.71-2.7,0-1.41.07-2.91-.02-4.39-.08-1.29.38-2.58-.63-3.88-.45-.57.15-1.96.3-3.14-.5-2.71-2.31-5.24-2.7-8.3-.14-1.08-1.15-2.04-1.38-3.14-.25-1.19-.06-2.48-.06-3.72,1.04-1.69,2.36-3.12,4.2-4.29h2.36c.59.93,1.16,1.82,1.79,2.8h3.14l3.44,3.43v2.99c.57.57,1.01,1.01,1.5,1.5v3.63c-.61.85-1.22,1.7-1.95,2.71-.35.04-.94.11-1.24.14-1.07,1.64-2.02,3.11-2.89,4.44h-2.51c-.38.38-.74.74-1.21,1.21.38.78.6,2.15,1.21,2.34,2.93.92,2.9,3.77,4.28,5.57Zm-5.8-14.34c.27.01.53.02.8.04.93-2.12,2.63-4.01,1.84-6.24-1.1-.82-1.85-1.38-2.83-2.12-.61.07-1.51.17-2.5.28.96,2.86,1.82,5.45,2.69,8.04Zm4.66-.74c1.09-.5,1.82-.83,2.38-1.09v-3.39h-1.11c-.39,1.38-.77,2.69-1.27,4.48Zm-4.61-10.91c0-.24,0-.48,0-.73-.6-.23-1.2-.46-1.95-.75-.13.08-.79.46-1.7.99.63.68,1.15,1.25,1.11,1.2,1.04-.29,1.79-.5,2.54-.71Zm3.97.45c-1.04,2.04.02,2.46.93,2.91.13.07.4-.15.95-.37-.54-.72-1.02-1.37-1.88-2.53Zm-1.23,24.31c-.17-.16-.33-.33-.5-.49-.33.06-.67.13-1.16.22.1.52.18.93.35,1.87.63-.77.97-1.19,1.31-1.6Zm-1.47-10.79c.01.21.03.43.04.64.42-.09.83-.18,1.25-.27-.02-.12-.03-.25-.05-.37h-1.24Z"/>
      <path d="m193.27,201.89c1.99-4.11,4.99-6.46,9.19-7.49,3.39,1.66,7.83,2.36,9.33,7.06.67,2.8.25,5.69-1.4,8.11-.96,1.42-2.59,2.59-4.18,3.31-1.45.67-3.45,1.17-4.83.68-1.57-.56-3.76-.11-4.74-2.07-2.27,0-1.68-2.83-3.38-3.27v-6.33Zm2.86,4.85c1.61,1.62,2.74,2.75,3.9,3.91h4.92c3.36-2.86,3.41-2.92,4.86-6.4-.97-2.31-2.01-4.68-4.28-6.2h-5.19c-.98,1.51-3.4,1.53-3.66,3.68-.22,1.8-.39,3.6-.55,5.01Z"/>
      <path d="m117.38,214.45c-3.82-2.79-6.6-5.97-6.53-9.92,1.39-4.46,4.13-6.72,7.14-8.55,2.83-1.26,5.24.51,7.48,1.49,2.46,1.07,3.98,3.78,4.84,6.42.63,1.95-.82,3.65-1.75,5.18-2.02,3.29-6.42,6.15-11.18,5.38Zm-1.97-11.98c-.48.04-.95.09-1.43.13v4.84c.78.78,1.44,1.55,2.2,2.18,1.67,1.37,3.29,2.88,5.69,1.16.49-.35,1.45-.05,2.31-.05,1.06-1.41,2.13-2.85,3.14-4.2v-3.87c-1.54-1.34-3.08-2.69-4.44-3.87-5.18-.05-6.63.71-7.47,3.68Z"/>
      <path d="m106.36,227.92h-6.1c-2.21-1.35-3.84-3.24-5.02-5.89-.41-4.66.09-9.33,4.94-12.7h4.01c.25.34.69.94,1.19,1.62.56-.33.95-.56,1.26-.74.76.22,1.51.43,2.74.79.79,1.03,1.88,2.44,3.02,3.92v6.97c-1.89,1.89-3.98,3.97-6.04,6.03Zm-7.4-13.81c.09.04.19.08.28.13-.6,1.23-1.57,2.43-1.71,3.71-.15,1.45.45,2.99.7,4.42,1.85,1.81,3.44,3.98,6.42,3.19,1.65-1.31,3.25-2.59,4.63-3.69v-6.74c-.83-.89-1.32-1.41-1.66-1.78-1.14-.59-2.16-1.12-3.61-1.87h-2.48c-.85.87-1.71,1.75-2.58,2.64Z"/>
      <path d="m13.19,166.67c-4.86-1.67-5.21-5.54-6.2-9.01.24-1,.5-2.13.87-3.68.31-.25.97-.81,1.9-1.58,1.08,0,2.61-.23,4.02.07,1.3.28,2.48,1.13,3.99,1.32,1.13,1.38,2.27,2.76,3.29,4.01v4.64c-2.32,2.62-4.67,5.12-7.87,4.24Zm4.71-8.65c-.52-.58-1.15-1.3-1.5-1.7h-6.69c2.19,2.64,5,3.66,8.2,4.28v-2.58Zm-6.54,4.99c1.24-.16,2.06-.27,3.07-.4-1.33-.84-2.36-1.49-4.08-2.58.47,1.38.7,2.04,1.01,2.98Z"/>
      <path d="m222.53,214.14c-.9.52-1.79,1.04-3.06,1.77h-3.46c-.49-1.68-3.79-1.15-3.21-4.29,5.56-3.21,10.73-7.26,14.32-12.85h2.6c.42.45.98.95,1.42,1.55,1.53,2.1,1.44,4.06-.23,6.1-1.22,1.49-2.35,3.08-3.73,4.41-1.37,1.32-3.01,2.36-4.54,3.52-.03-.07-.07-.14-.1-.2Zm-5.16-.5c3.34-.28,5.22-2.82,7.52-4.5,1.77-1.29,2.99-3.34,4.45-5.03-.18-.66-.31-1.18-.55-2.08-4.09,3.46-7.05,7.6-11.42,9.73v1.89Z"/>
      <path d="m132.84,86.11c.59-1.02.99-1.73,1.41-2.44h2.74c1.23,1.58,2.68,3.43,4.22,5.41-1.52,2.23-2.87,4.27-4.27,6.27-1.14,1.64-3.06,2.2-4.7,3.08-.62.33-1.75-.3-3.16-.61-.14.3-.45.99-.67,1.46-2.73-.94-5.41-.83-6.96-3.48v-4.98c1.46-1.69,2.33-3.97,4.75-4.99,2.24-.95,4.32-.91,6.64.28Zm5,2.48c-.65-.7-1.3-1.41-1.77-1.92h-3.95c-.18.51-.33.94-.56,1.58-3.51-2.28-5.16.62-6.94,2.23-.43,1.43-.76,2.55-1.03,3.48.81.94,1.49,1.74,1.87,2.18,2.85-.29,5.22-.53,7.41-.75.98-.86,1.91-1.67,2.8-2.45v-1.75c1.39-.07,2.28-.71,2.18-2.59Z"/>
      <path d="m138.37,112.5c-2.12.33-3.88.6-6.05.94-.57-.7-1.66-1.18-2.06-2.73-.33-1.29-1.66-2.31-2.78-3.75v-2.64c.67-1.01,1.07-2.3,1.88-2.67,1.06-.48,1.39-2.26,2.97-1.68.79-1.06,1.78-1.42,3.15-1.5,1.06-.06,2.08-.91,2.87-1.29,1.71,1.71,3.36,3.36,5.44,5.44.11.47.42,1.72.81,3.33-.82,3.08-3.7,4.72-6.23,6.54Zm-.6-1.99c.57-.89,1.09-2,1.89-2.83.76-.78,1.83-1.27,2.56-1.75-.63-1.5-1.13-2.66-1.69-4.01-.42-.53-1.03-1.28-1.41-1.76-1.77-.45-2.33.69-3.14,1.38h-2.92c-.93.9-1.82,1.76-2.55,2.47v3.49c2.33-.21,1.79,2.43,3.3,3h3.95Z"/>
      <path d="m201.14,1.43c1.95-.61,2.42.93,3.17,2.51.99-1.22,1.83-2.28,2.68-3.32h2.16c.83,1.04,1.62,2.02,2.78,3.48.44-1.62.74-2.73,1.1-4.07h2.38c.6,1.6,2.16,3.09,1.81,5.25-.9,1.24-1.79,2.46-2.92,4-1.02-1.34-1.85-2.42-2.65-3.46-2.06.05-1.73,1.73-2.16,2.93h-2.47c-.47-1.52-1.38-2.52-3.07-3.14-.11,1.13-.2,2.06-.3,3.1h-2.57c-.33-1.64-2.78-2.57-1.8-4.5.72-1.08,1.32-1.96,1.87-2.79Zm6.55,2.16v1.59c.54-.11.87-.18,1.36-.27-.11-.52-.19-.93-.27-1.31h-1.09Zm7.16.12c-.22.03-.43.05-.65.08.1.41.19.81.29,1.22.12-.02.24-.04.36-.06v-1.24Z"/>
      <path d="m142.15,37.71c.47.68.93,1.35,1.6,2.33v3.49c-.92,1.25-1.98,2.69-3.04,4.12h-4.64c-1.35-1-2.78-2.07-3.96-2.94-.4-2.81-.75-5.3-1.1-7.76.71-.67,1.34-1.27,2.16-2.05,2.88.65,6.12.59,8.98,2.81Zm-7.72,4.71c.66-.84.72-2.32,2.31-2.18.33.34.68.69,1.15,1.18v3.16h2.89v-4.36c-.78-2.06-2.22-1.28-3.72-1.61-.24-.33-.67-.92-1.11-1.53-.98.49-1.79.89-2.45,1.22v3.2c.4.4.66.66.93.93Z"/>
      <path d="m171.13,18.42c-.4-.63-.88-1.39-1.67-2.64v3.72c-1.38.68-2.61,1.29-4.05,1.99-1.84-.3-2.28-2.41-3.91-3.53.69-1.54,1.31-2.89,1.97-4.36.57-.3,1.29-.67,2.26-1.17.52.49,1.12,1.05,1.72,1.61,1.18-1.51,2.37-3.02,3.48-4.45h2.43c.88,1.86,2.24,3.27,4.35,4.17-.62,1.13-1.23,2.24-1.79,3.27h-2.57c-.14.4-.28.83-.46,1.38h-1.77Zm-.2-5.72v2.81c.62.32,1.19.61,1.94,1,.47-1.93-.36-2.99-1.94-3.8Zm-5.92,2.17v3.77c.54-.11.88-.18,1.22-.25-.1-1.05.59-2.17-1.22-3.53Z"/>
      <path d="m223.27,6.47v1.92c-.8.42-1.59.83-2.33,1.22-.69-.35-1.3-.67-2.09-1.07V3.16c1.2-.55,1.92-1.62,2.23-3.16h2.7c.36,1.48.78,3.16,1.23,5.02,1.32-.54,1.15-2.85,3.41-2.55,1,.74,2.42,1.79,3.77,2.78v3.29c-.36.12-.79.25-1.22.39-.17.42-.34.85-.54,1.33h-2.95c-.78-.58-1.62-1.2-2.68-1.98-.03-.27-.1-.86-.17-1.55-.33-.07-.67-.13-1.34-.27Zm5.2-1.55c-.27.12-.53.24-.8.37.24,1.06-.49,2.28.79,3.17.15.11.33.17.47.24.31-.61.61-1.21.93-1.84-.43-.59-.91-1.26-1.4-1.94Zm-5.17-1.29q-2.43.74-1.9,2.71c.53-.76,1.11-1.6,1.9-2.71Z"/>
      <path d="m190.72,8.75c-1.26,1.26-2.05,2.05-2.96,2.95h-1.46c-.53-.56-1-1.05-1.75-1.84-.15.87-.32,1.25-.23,1.54.1.31.45.54.54.64-.29,1.67-1.51,2.27-3.05,2.85-1.14-.8-2.38-1.69-3.75-2.66.32-1.63.62-3.13.89-4.5.78-.41,1.4-.73,1.97-1.03.86.46,1.78.95,2.63,1.4.22-.06.42-.07.44-.12.14-.57.26-1.15.28-1.25.97-.92,1.68-1.58,2.51-2.36,1.88.7,1.99,3.18,3.95,4.38Zm-4.72-.24q1.13.24.99-1.58c-.47.75-.76,1.21-.99,1.58Zm-4.65,3.4c.65-.12.98-.18,1.45-.27-.6-.39-1.06-.7-1.45-.96v1.23Z"/>
      <path d="m256.59,15.55c-.58.86-1.04,1.5-1.46,2.17-.34.54-.62,1.12-1.37,2.49-.55-1.48-.91-2.45-1.28-3.42-.29.24-.57.47-.86.71v-3.15c-.73-.35-1.33-.63-2.09-.99-.39,1.25.55,3.13-1.84,3.7-.57-.53-1.34-1.25-2.04-1.89.03-.65.05-1.13.08-1.7.39-.08.73-.15,1.33-.27.04-.45.1-1.03.18-1.84.53-.54,1.2-1.22,1.99-2.02.82.33,1.56.63,2.48,1v3.54c.87-.82,1.28-1.21,2.02-1.91h2.95c1.24.92,1.09,2.11.85,3.49-.43.04-.89.08-1.12.04-.28-.48-.39-.99-.57-1.86-.84.66-1.37,1.08-2.31,1.81,1.27,0,1.95,0,3.06.09Z"/>
      <path d="m146.77,28.39c1.07.84,2.38,1.88,3.49,2.76.7,1.6.09,2.74-.38,3.96-.42,1.07-1.33,1.24-2.16,1.64-3.22,1.58-4.78-.95-6.76-2.75v-3.06c.6-.8,1.16-1.55,1.92-2.56h3.9Zm-2.79,2.57v3.1c.75.31,1.33.56,1.86.78.83-.86,2.62-.6,2.48-2.68-1.3-.36-2.7-.75-4.34-1.2Z"/>
      <path d="m299.5,46.9c.2,2.09,2.62,3.81,2.31,6.44-.35.35-.7.7-1.14,1.14-2.14-.27-3.24-2.19-4.72-3.42-1.53-1.27-2.64-3.05-4.09-4.79.93-1.02,1.82-2,2.73-2.99h1.56c.93,1,1.93,2.08,3.35,3.62Zm-3.1,1.49v-2.27c-.54.11-.87.18-1.59.32.51.63.85,1.04,1.59,1.94Z"/>
      <path d="m162.93,23.83c-.06.14-.29.67-.63,1.43-1.17.3-2.51.65-3.71.96-.92-1.1-1.62-1.94-2.81-3.36-.33-1.43.31-3.44,1.47-5.26.29-.45,1.25-.48,1.77-.66,1.22.85,1.34,2.46,2.8,2.74-.43,1.51.98,2.34,1.11,4.16Zm-4.05.27c.66-.66,1-1,1.46-1.46-.05-.56-.12-1.22-.19-1.96-.59.13-.92.21-1.27.29v3.13Z"/>
      <path d="m151.77,30.51c-1.38-2.17-2.56-4.01-3.88-6.07,1.05-.72,1.86-1.27,3.15-2.15h2.17c.87.87,1.75,1.75,2.37,2.37.33,1.43.59,2.57.93,4.03-1.07,1.42-2.78,1.96-4.75,1.83Zm-.48-4.2c.87.65,1.23,2,2.94,1.96.04-.69.08-1.35.1-1.62-1-.94-1.72-1.63-2.8-2.64-.11,1.05-.17,1.61-.24,2.29Z"/>
      <path d="m237.82,9.91c-.6.66-1.1,1.2-1.73,1.9.18-.04.05.04-.04,0-.63-.28-1.25-.58-2.06-.96-.26-.49-.65-1.19-1.03-1.91.99-1.95.64-4.47,3.12-6.07h1.67c.69,1.03,1.39,2.07,2.11,3.16-.69,1.32-1.33,2.52-2.04,3.87Zm-2.44-2.51c.31.57.57,1.05,1.19,2.2v-2.2h-1.19Z"/>
      <path d="m275.13,31.24h-2.14c-.63-.63-1.24-1.24-1.86-1.85-.32-2.9,1.89-4.45,3.27-6.34h2.31c.66,1.01,1.3,1.98,1.95,2.98-1.12,1.65-2.23,3.28-3.54,5.22Zm-.87-5.15v2.11h1.24v-2.11h-1.24Z"/>
      <path d="m263.86,16.33h2.29c2.97,3.33-.07,5.57-1.35,8.17h-2.26c-.38-.73-.79-1.52-1.34-2.6.82-1.72,1.7-3.57,2.66-5.57Z"/>
      <path d="m283.96,30.45c-.83,1.56-1.59,2.98-2.36,4.44h-1.94c-2.77-3.64-2.55-4.83,1.69-8.87,1.3.8,1.4.97,2.61,4.43Zm-2.47,1.49c-.06-.92.86-2.23-1.24-2.16v2.16h1.24Z"/>
      <path d="m195.67,11.07h-2.17c-.28-.46-.73-1.19-1.17-1.92-.13.11-.27.22-.4.33-.36-1.57-.73-3.15-1.13-4.9,1.48-.44,2.8-.83,4.09-1.22.96,1.08,1.77,1.99,2.81,3.15v2.78c-.52.46-1.24,1.09-2.03,1.77Zm-.9-5.32c-1.55.86-1.79,1.79-1.24,3.09.63-.03,1.29-.07,2.3-.13-.41-1.15-.71-1.98-1.07-2.97Z"/>
      <path d="m132.43,232.73c-.69-.87-1.22-1.55-1.99-2.53v-1.96c1.19-1.01,2.3-1.96,3.75-3.19.35.14,1.17.49,1.98.82.33.75.65,1.49,1.01,2.34-.53,2.32-2.3,3.43-4.75,4.52Z"/>
      <path d="m267.02,28.27c-.48-.93-.8-1.54-1.15-2.22,1.24-2.28,2.25-4.81,4.85-5.86.56.27,1.09.51,1.78.84v2.6c-.44.11-.78.2-1.1.29-.27.77-.47,1.56-.82,2.28-.36.73-.87,1.38-1.33,2.08h-2.22Z"/>
      <path d="m244.19,12.6c.33,1.54-1.18,1.98-1.83,2.91-.9-.56-1.79-1.11-2.64-1.63v-4.74c.56-.5,1.21-1.07,1.93-1.71h1.89c.79.78,1.31,1.29,2.07,2.04v3.01c-.49.04-.95.09-1.42.06.06-1.34-.5-2.14-2.11-2.25v2.18c.72,0,1.41,0,2.11.13Z"/>
      <path d="m283.05,34.97c1.35-1.34,2.45-2.44,3.84-3.81.52.2,1.36.53,2.15.83v3.02c-1.06,1.22-1.84,2.13-2.56,2.96-2.58.48-2.43-1.85-3.43-2.99Z"/>
      <path d="m262.03,17.39c-.79,1.11-1.62,2.27-2.42,3.39h-1.82c-.06-1.29-.12-2.6-.17-3.68.67-1.33,1.24-2.46,1.94-3.88.72.18,1.57.4,2.46.62v3.54Z"/>
      <path d="m291.64,43.18h-2.25c-.53-.53-1.2-1.21-1.87-1.89.36-.83.67-1.56,1.03-2.39.98-.35,2.05-.73,3.18-1.14.68,1.07,1.24,1.95,1.76,2.77-.59.84-1.18,1.69-1.86,2.65Z"/>
      <path d="m140.67,217.14c-.94-.7-1.56-1.15-2.44-1.81.81-.73,1.44-1.28,2.44-2.18v3.99Z"/>
      <path d="m143.85,135.75v-1.89c.64-.06,1.3-.12,2.12-.19v2.09h-2.12Z"/>
      <path d="m282.34,151.02c-1.46,1.25-2.27,2.4-3.34,2.77-1.67.57-2.29,2.22-3.65,2.93-1.36.71-2.62,1.5-3.89,2.36-2.54,1.71-5.06,3.44-7.53,5.26-4.94,3.63-10.32,6.65-15.03,10.62-2.94,2.48-6.03,4.78-9.29,7.34-.37-.29-.98-.76-1.52-1.18.2-.5.23-.78.38-.92,1.06-.97,2.18-1.85,3.32-2.73,5.52-4.25,11.41-7.94,17.1-11.92,2.61-1.82,5.45-3.3,7.93-5.35,2.49-2.06,5.26-3.78,7.58-6.2,2.9.22,4.12-3.61,7.95-2.98Z"/>
      <path d="m281.62,150.9c1.49-2.63,3.98-3.76,6.74-4.49-1.8,2.17-3.81,4.02-6.74,4.49Z"/>
      <path d="m158.75,75.9c-.51.27-1.39.74-2.26,1.21.16.17.32.33.48.5h-2.22c-.38-.68-.76-1.38-1.26-2.27.21-.28.53-.61.74-1.01.16-.29.19-.66.27-.98.74-.33,1.46-.66,2.3-1.04.84.91,2.28,1.4,1.95,3.58Z"/>
      <path d="m110.78,94.86c-.75.31-1.48.61-2.34.96-.5-.94-.91-1.71-1.31-2.45.38-.77.72-1.48,1.09-2.22h2.57v3.71Z"/>
      <path d="m27.17,139.07q2.54.12,2.9,2.75c-.94.04-1.85.08-2.9.13v-2.88Z"/>
      <path d="m124.5,75.8c1.18.47,2.08.83,3.1,1.23-.57.57-.92.91-1.26,1.26h-1.83v-2.5Z"/>
      <path d="m146.49,200.07c.44-1.12.77-1.95,1.11-2.8.83.4,1.42.67,2.13,1.01v1.78h-3.24Z"/>
      <path d="m58.7,71.41c-1.48,1.03-2.1,1.46-3.03,2.11v-3.16c1.31-.83,1.39.74,3.03,1.05Z"/>
      <path d="m68.67,65.55h-2.57c-.04-.55-.09-1.21-.15-2.05,1.52-.28,1.92.65,2.72,2.05Z"/>
      <path d="m28.54,124.67h-2.7c-.71-1.21-.22-2.06.7-2.8.67.33,1.34.67,2,1v1.81Z"/>
      <path d="m138.43,121.05h2.3v2.14c-1.51.18-1.92-.69-2.3-2.14Z"/>
      <path d="m87.13,60.38c-.49.58-.98,1.15-1.69,2-.7-.85-1.18-1.44-2.02-2.46,1.46-.11,2.42-.19,3.38-.26.11.24.22.48.34.73Z"/>
      <path d="m116.96,64.04v-1.24h2.86v1.24h-2.86Z"/>
      <path d="m31.42,154.97v4.04c-1.32.34-1.87-.39-2.1-1.37-.31-1.32.59-1.88,2.1-2.67Z"/>
      <path d="m98.6,59.28c.51-.38,1.04-.79,1.53-1.16,1.62.36,1.97,1.36,1.77,2.74-1.48.84-2.36.16-3.3-1.58Z"/>
      <path d="m154.9,143.41c1.11-.72,1.68-1.09,2.46-1.59.44.36.96.78,1.48,1.2-.83,1.05-1.75,1.61-3.94.39Z"/>
      <path d="m67.67,126.23h1.16c.06.64.11,1.31.18,2.06-.46.09-.8.16-1.34.27v-2.33Z"/>
      <path d="m245.49,212.18h-2.06c-.41-1.01-.83-2.08-1.37-3.41.65-.95,1.41-2.08,2.16-3.19h2.69c.41.49,1.03,1.24,1.76,2.1v1.5c-.96.9-1.85,1.74-3.18,3Zm-.06-3.7h-.25v.75h.25v-.75Z"/>
      <path d="m37.81,105.93h-3.16c-.04-.56-.09-1.22-.13-1.91,1.69-.59,2.58.02,3.3,1.91Z"/>
      <path d="m41.68,91.99c-.71-.26-1.57-.35-2.09-.82-.45-.4-.51-1.23-.91-2.31,1.11.14,2.02,0,2.52.38.56.43.75,1.33,1.1,2.03-.21.24-.42.48-.63.72Z"/>
      <path d="m203.86,208.48h-3.69c-.8-1.16-1.71-2.49-2.64-3.85,1.08-2.26,1.7-4.56,3.97-6.04,1.78,1.08,3.56,2.16,5.22,3.17v4.15c-.82.73-1.73,1.55-2.86,2.57Zm-.23-3.61v-2.19h-2.86c.07,2.7.49,3.56,1.97,3.56.2-.31.53-.81.89-1.37Z"/>
      <path d="m115.52,202.47c1.06-.7,2.22-1.48,3.47-2.32,1.78.77,3.56,1.54,5.31,2.3v4.1c-.87.58-1.65,1.09-2.76,1.83h-4.38c-.48-.47-1-1-1.65-1.65v-4.27Zm5.69,3.71c.36-.58.72-1.15,1.24-1.99h-3.94v1.99h2.69Z"/>
      <path d="m104.4,223.56c-2.78-.53-3.94-2.65-5.69-4.53.87-1.29,1.78-2.63,2.77-4.08,1.68.34,3.18.64,4.54.91,1.88,3.24,1.42,4.81-1.62,7.69Zm-.75-5.88c-.81.77-1.27,1.2-1.77,1.67.62.52,1.06.9,1.77,1.51.43-.71.75-1.22.84-1.38-.2-.42-.47-.99-.84-1.8Z"/>
      <path d="m129,90.39h1.99v2.05c-.52.04-1.19.1-1.99.17v-2.22Z"/>
      <path d="m135.54,104.36c.59.48,1.17.96,2.03,1.66-.84.72-1.42,1.2-2.46,2.08-.12-1.49-.19-2.44-.26-3.39.23-.12.46-.23.7-.35Z"/>
    </g>
  </g>
</svg>
