<?xml version="1.0" encoding="UTF-8"?>

<svg id="Layer_2" data-name="Layer 2" xmlns="http://www.w3.org/2000/svg" viewBox="0 0 280.59 318.13">
  <defs>
    <style>
      @import url(../css/art.css)
    </style>
  </defs>
  <g id="Layer_1-2" data-name="Layer 1">
    <g id="Layer_1-2" data-name="Layer 1-2">
      <g>
        <path class="cls-1" d="m143.59,39.66c-.28-1.99-1.61-3.57-2.1-5.47-.08-.32-.08-.67-.12-1.13h1.9c.41,1.12.87,2.36,1.49,4.03.15-1.67.02-2.94-.4-3.81,1.18-.9,2.03-.26,2.77.57.32,3.28.47,6.54,1.01,9.74.3,1.78,1.07,3.55,1.96,5.13.88,1.57,1.05,3.13.92,5.15-1.6-.29-3.16-.58-5.03-.93,0,2.04-.76,3.68-1.6,5.35-.98,1.94-2.39,3.66-2.71,5.99-.16,1.14-1.36,2.14-2.17,3.32-2.56-.68-4.93-1.31-7.81-2.08-.35-.41-1.06-1.26-1.51-1.8-4.64-.63-8.31-2.81-12.98-4.25-.23-.29-.93-1.15-1.68-2.08-.58.31-.99.53-1.46.79-.36-.18-.85-.41-1.63-.8-.13,1.11-.24,2.01-.35,2.9-.68.4-1.39.81-2.23,1.3,3.14,1.75,4.45,4.74,6.23,7.39-.94.62-1.7,1.13-2.51,1.66.53.52.97.95,1.51,1.47-.22.34-.44.68-.72,1.11.28.57.59,1.18.9,1.8-.3.35-.54.62-.83.97.97.89,1.97,1.79,2.98,2.71,0,1.33-.04,2.56.03,3.78.01.21.47.4.7.39.22,2.88-.88,5.18-2.07,7.37.8.91,1.57,1.8,2.72,3.12-1.29.11-1.96.16-1.97.16-1.27-.98-2.06-1.59-2.76-2.13-.61,1.84-1.15,3.48-1.79,5.44.2.67,1.4,1.56.17,2.87-.78.82-1.21,1.97-1.88,3.09.27.69.56,1.44.9,2.3-.81.82-1.65,1.67-2.37,2.38.08.78.13,1.25.19,1.87,1.7-.57,3.23-1,4.71-1.59,5.24-2.07,8.88-3.33,12.57-2.97,1.37.13,2.73.38,4.68.66-2.66-1.94-.14-3.6-.37-5.19-2.02-2.02-3.94-3.94-5.78-5.78h-3.7c2.88,2.34,5.38,4.36,8.01,6.49-.1.41-.24,1.03-.43,1.83-3.61-2.65-6.91-5.08-10.19-7.49.43-.92.77-1.65,1.17-2.51h3.15c.36-1.23.68-2.32,1.13-3.83-.48-.25-1.1-.59-1.55-.83.68-.96,1.15-1.62,1.62-2.29-.52-.49-.88-.83-1.41-1.32h-2.94c-.57-.57-1.01-1.01-1.84-1.65.47-1.25,2.04-.74,2.41-.46,1.5,1.1,3.1.42,4.71.72.53,1.03,1.11,2.15,1.78,3.46-.49.26-1.14.61-1.79.96l1.76,1.76c-.39.76-.8,1.55-1.17,2.26,2.03,2.03,4.12,4.12,6.23,6.23.4-.8.9-1.79,1.36-2.7.4-.08.74-.15,1.09-.22v-2.98c-2.04.29-3.95.56-6.37.91.68-1.07,1.05-1.65,1.46-2.31h5.24c-.48-.84-.71-1.47-1.13-1.92-1.1-1.18-1.11-1.17-1.41-3.11-1.4-.41-2.93-.86-4.43-1.3v-.79c1.6-.39,3.19-.77,4.81-1.16.36.42.68.79,1.05,1.23-.15.18-.36.44-.67.81.64.44,1.29.89,2.15,1.49v1.75c.68.98,1.27,1.84,2.02,2.93h1.94c1.15.73,2.04,1.3,3.09,1.97-.35,1.07-.67,2.06-1.04,3.2-1.11.38-2.31.79-3.54,1.22-.45,1.76.24,2.79,2.35,2.81-.31,1.41-.57,2.54-.92,4.15,1.73,1.44,3.74,3.11,5.86,4.88.4-.26.79-.52,1.29-.85.85.26,1.83.57,2.96.91.4-.74.87-1.32,1.04-1.97,1.14-4.54,3.34-8.85,3.01-13.72,1.44-2.92.59-6.03.7-9.04.05-1.51-.42-3.04-.7-4.55-.26-1.39.03-2.75-.54-4.26-.7-1.85-.13-4.17-.22-6.28-.05-1.03-.35-2.06-.63-3.59.15-.06.74-.3,1.34-.54l-.36-.39h3.03c.49.46,1.02.97,1.29,1.23,2.79.41,5.27.77,7.21,1.05,6.55,2.41,10.69,7.11,15.04,11.56-.36.36-.63.63-.93.93-.15-.04-.37-.04-.48-.15-3.29-3.23-6.49-6.53-10.43-9.08-1.72-1.11-3.52-1.24-5.28-1.74-1.36-.39-2.92-.08-4.49-.08.29.71.63,1.19.66,1.69.11,1.55.1,3.04.68,4.59.48,1.26.2,2.75.73,4.19.52,1.43.23,3.21.08,4.82-.14,1.52.7,3.18-.67,4.6-.31.32.02,1.21-.06,1.82-.55,4.09-.7,8.26-2.24,12.16-.55,1.39-1.16,2.76-1.72,4.15-.26.64-.47,1.31-.71,1.99,2.67.43,5.65.04,8.96-1.17,2.4-6.31,5.24-12.61,5.56-20,.9-.67,2.05-1.51,3.19-2.35h3.12c.38.46.81,1,1.6,1.97-1.65.15-2.8.25-4.08.36-1.48,1.77-2.12,3.96-2.48,6.34-.33,2.19-.99,4.32-1.53,6.61,1.63.54,3.25,1.08,4.78,1.59.75-.76,1.59-1.61,2.53-2.57-.32-.16-.97-.49-1.24-.63v-3.61c.69-.68,1.41-1.38,2.12-2.08-.1-2.49,1.37-4.18,2.83-5.96.45-.55.26-1.62.38-2.54.98-1.22,3.35-1.36,3.15-3.81-.04-.48.98-1.05,1.56-1.63h2.3c.72.81,1.54,1.73,2.57,2.88v1.29c5.58,1.6,10.16,5.28,15.84,7.74,1.15,0,2.77.02,4.39,0,2.79-.05,5.53.63,8.27.93,2.91.33,5.5,2.35,8.24,4.53-.22-2.88.53-5.55-.82-8.03-.88-1.62-.58-3.43-1.18-5.12-.53-1.5-1.08-3.07-1.14-4.81-.06-1.93-.69-3.92-1.44-5.72-1.31-3.12-1.78-6.47-2.83-9.66-.87-2.62-1.79-5.3-2.29-8.02-.49-2.66-1.4-5.17-2.05-7.75-.63-2.48-.85-5.1-1.77-7.51-1.42-3.73-1.71-7.73-2.97-11.49-1.29-3.84-1.61-7.98-3.56-11.62.06-2.65-1.42-4.92-1.81-7.51-.32-2.15-.65-4.28-.58-6.44.03-.78.46-1.54.71-2.31h1.5c.98,2.97,2.18,5.81,3.58,8.62,1.19,2.39,2.9,4.29,4.39,6.39.92,1.3,2.17,2.43,3.42,3.44,1.08.86,1.34,2.35,2.8,2.99.84.36,1.16,1.77,1.91,2.48,1.58,1.5,3.21,2.96,4.97,4.23,4.1,2.98,8.11,6.16,12.49,8.67,5.8,3.33,9.52,8.79,14.41,13.04.79,2.05,2.45,3.58,3.02,5.87.68,2.76,2.22,5.29,3.32,7.96,2.13,5.18,1.94,10.62,1.72,16.06-1.32,1.23-.09,2.99-.76,4.16-.75,1.31-.18,2.78-.76,3.8-.83,1.44-.49,2.82-.66,4.23-.43,3.67,1.23,6.98,1.8,10.48.19,1.17.43,2.33.69,3.68,2.02.89,4.23,1.86,6.72,2.96.94,1.57,1.93,3.43,3.36,5.08.89,1.03,1.65,2.75.23,4.56-1.49,1.9-.65,4.45-.87,6.68-1,1-1.97,1.97-3,3,.68,2.96-1.01,5-3.11,6.83,1.37,1.73.72,3.63.95,5.4.21,1.64.62,3.25.97,5.02,1.26,1.28,3.54,1.45,4.55,3.77.77,1.79,2.77,2.93,3.93,4.71,1.09,1.68,1.88,3.48,2.8,5.22.32.6.39,1.36.43,2.06.07,1.24-.32,2.63.12,3.7.39.97-.21,2.03.59,2.89.25.27.26,1.21.02,1.41-1.19,1.01-.72,2.32-.68,3.47.28,7.4-.94,10.77-3.13,18.18-.54,1.81-.74,3.82-2.05,5.53-1.15,1.5-1.5,3.59-2.35,5.35-.9,1.88-2.05,3.63-2.95,5.51-1.09,2.28-1.96,4.68-3.07,6.95-1.06,2.18-2.36,4.19-3.04,6.61-.51,1.83-1.46,3.69-2.36,5.35-1.7,3.13-2.38,6.51-3.55,9.77-.85,2.37-.79,4.86-1.41,7.26-.55,2.17.92,4.07,1.52,6.31h-4.57c-.2-.46-.71-1.11-.7-1.74.06-2.55-.41-4.95-1.39-7.3-.22-.53-.15-1.2-.14-1.81.03-2.29-.43-4.44-1.42-6.52-.33-.7,0-1.64-.81-2.3-.81-.64,1.53-1.24.14-2.04.07-2.54-1.08-4.89-.99-7.48.08-2.1-.33-4.29-.97-6.3-.24-.74.45-1.44-.35-2.27-.59-.61-.3-2.06-.43-3.14-.12-.94-.25-1.88-.42-2.82-.23-1.27-.58-2.53-.72-3.81-.15-1.3.25-2.68-.77-3.8.65-4.05-2.02-7.68-1.5-11.72-1.35-1.83,0-4.32-1.5-6.11.54-3.56-1.53-6.71-1.63-10.22-.05-1.71-.28-3.61-.74-5.27-.43-1.54-.11-3.36-1.37-4.65.54-3.8-2.03-7.18-1.5-10.98-1.27-3.19-.85-6.71-2.15-9.96-.77-1.93-.45-4.27-.88-6.38-.48-2.3-.48-4.67-1.3-6.93-.54-1.5-.54-3.19-.75-4.58-5.29-1.46-10.32-1.1-15.32-1.08-.38,0-.77.5-1.12.74-.71-.28-1.37-.77-2-.74-4.31.23-7.72-1.94-10.94-4.29-2.54-1.86-4.76-4.17-7.28-5.97-.73-.34-1.44-.72-2.19-1-1.97-.74-4.12-1-6.13-1.35-2.36-.4-4.02-1.38-5.27-2.75-1.73.17-3.23.32-4.66.46-.63-.86-1.03-1.8-1.75-2.3s-1.74-.6-2.64-.8c-.88-.19-1.79-.27-3.04-.45-.36.82-.98,1.95-1.37,3.15-.93,2.87-2.61,4.69-5.82,4.8-.52.02-1.03.52-1.4.72-.12.26-.23.4-.2.43.16.19.34.36.71.73-.3,1.21-1.17,2.4-.18,4.07.71,1.2.07,3.16.16,4.78.08,1.53.33,3.05.53,4.82-.34.04-.91.11-1.74.2-2.23-2.53-4.54-5.14-7.25-8.21-.27,1.04-.36,1.55-.54,2.01-.2.54-.49,1.04-.74,1.56,1.31,3.3,4.7,4.65,6.79,7.22.98,1.21,2.01,2.37,3.1,3.64-.51.39-.9.68-1.4,1.07-.91-.91-1.93-1.94-2.95-2.96s-1.78-2.41-2.95-2.8c-1.65-.55-1.29-2.6-3.2-2.86-1.65,1.73-1.7,4.17-1.61,6.62-1.23,2.02-1.87,4.22-2.6,6.44-1.63,4.96-4.14,9.55-7.04,13.91-1.03,1.54-2.05,3.08-3.2,4.81h1.93c1.61,4.8,1.67,9.42-.21,14.12,3.12.86,5.88-.12,8.54-2,1.31-.93,2.89-1.46,4.28-2.27,1.23-.71,2.38-1.56,3.48-2.29v-4.71c.4-.46.79-.91,1.31-1.51.62.47,1.08.83,1.53,1.17-1.05,1.96-.33,4.03-.6,6,1.64,2.21,3.62,4.23,4.81,6.64,1.4,2.84,2.05,6,2.02,9.28-.02,2.1-.64,3.76-2.16,5.1-.36.32-.88.47-1.55.81,3.06,3.02,3.64,6.58,5.13,9.7.64,1.35.87,2.9,1.55,4.22,2.17,4.23,3.46,8.79,5.29,13.15.58,1.37,1.62,2.55,2.58,4.02.59.03,1.43.08,2.27.13.1.21.27.41.3.62.16,1.51-1.45,2.78-.5,4.46.68,1.19,1.14,2.52,1.6,3.82.92,2.61,1.82,5.24,2.62,7.89.39,1.28.87,2.46,1.89,3.33,3.19,2.71,4.64,6.08,4.13,10.27-.07.61,0,1.25,0,2.05-.8,1.11-1.69,2.34-2.52,3.49-.86-.1-1.43-.17-2.33-.28.96-1.47,1.73-2.63,2.61-3.98,0-.8,0-1.79,0-2.77.04-2.88-1.01-5.12-3.52-6.74-.96-.62-1.47-1.63-1.84-2.96-1.12-4-2.84-7.8-3.75-11.92-.49-2.2-1.84-4.42-4.17-5.86-8.97-.48-15.52,4.23-21.11,11.03-.44,1.33.25,2.71,1.06,3.8.86,1.16,1.5,2.36,2.06,3.66,1.08,2.52,2.9,4.57,4.53,6.72.71.94.69,1.64.1,2.68-2.96-1.51-4.01-4.49-5.71-6.84-1.7-2.34-2.97-5-4.44-7.55-6.15,3.75-12.3,7.06-19.44,6.75-1.02-.6-1.82-1.08-2.85-1.69v-2.09c1.22.35,2.7.39,3.61,1.12,1.54,1.23,2.45-.35,3.67-.42,3.68-.21,8.3-1.79,11.1-3.79,1.66-1.19,3.27-2.51,4.66-4,.42-.46.54-1,1.31-1.3.62-.24.81-1.39,1.37-1.96,5.17-5.34,11.45-8.22,18.93-8.36.33,0,.66-.17.91-.23-.36-.7-.67-1.31-1-1.96-.25.22-.49.62-.76.64-.98.09-1.98.12-2.97.05-3.87-.27-7.19,1.44-10.11,3.48-4.06,2.83-8.11,5.82-11.31,9.69-2.37,2.86-5.73,4.15-8.96,5.43-2.44.97-5.03,2.3-8.3,1.35-.15-.47-.4-1.23-.82-2.1,4.93,1.03,8.95-1.28,13.1-3.04,1.89-1.38,3.93-2.76,5.51-4.56,1.4-1.6,2.76-3.11,4.42-4.5,2.03-1.71,4.19-3.27,6.41-4.51,2.14-1.2,4.4-2.43,7.03-2.88,2.91-.49,2.84-.83,5.4.11.26.09.64-.17,1.21-.34-.48-.72-.87-1.3-1.24-1.86-4.45-.22-8.37,1.11-12.31,2.89-4.18,1.9-7.55,4.81-11.04,7.6-2.95,2.36-5.85,4.8-9.36,6.29-2.07.87-4.24,1.99-6.61.56-.86,1.32-1.69,2.59-2.52,4.23-1.01.4-1.44,1.19-1.32,2.35-.75.74-1.51,1.46-2.23,2.22-.23.24-.34.61-.52.9-1.14,1.83-3.42,2.34-4.57,4.38-.95,1.68-2.73,2.98-4.53,4.13-1.77,1.13-3.57,2.24-5.36,3.35-4.22,2.62-8.29,5.44-10.06,10.43-.77,2.17-2.59,3.88-2.73,6.37-.02.47-1,.88-1.66,1.41-1.25-2.36-2.37-4.5-3.63-6.88-.86-.09-1.88-.2-2.88-.3.02-.5.04-.74.06-1.25.91-.04,1.85-.08,3.03-.14-.98-3.29-2.12-6.26-4.26-9.13-.83.31-1.67.89-2.52.9-1.78.03-3.58.39-5.33-.64-.96-.56-2.25-.57-3.39-.8-1.26-.26-2.52-.59-3.8-.72-1.22-.12-2.46-.03-3.83-.03v1.95c.05.04.25.28.43.28,2.77-.07,5.47.12,8.01,1.44.49.26,1.23,0,1.83.09,1.16.16,2.29-.26,3.52.61.67.48,2.34.61,3.46-.37.38-.33,1.13-.22,1.97-.35.04.8.06,1.48.1,2.34-2.93,0-5.66.16-8.36-.06-1.62-.13-3.3-.48-4.85-.91-1.82-.5-3.37-.85-5.11.13-.56.32-1.45.05-2.24.05-2.52-2.77.05-6.62-1.87-9.54,1.15-3.36.87-7.01,2.7-10.55h6.54c-.43-.86-.6-1.39-.92-1.79-1.41-1.76-2.76-3.54-4-5.44-1.56-2.39-3.5-4.53-5.23-6.82-2.78-3.69-6.03-7-8.28-11.14-1.27-2.33-3.34-4.21-5.08-6.26,0,0,.06-.06.11-.11l-.52-.61c-.08.08-.16.16-.24.24.2.17.41.35.65.48.03,1.58.03,3.2.03,4.97-1.75.82-3.32-.31-4.51-1.08-1.87-1.21-4.22-1.83-5.55-3.85-.14-.22-.9-.12-.95-.29-.66-2.14-2.84-3-3.93-4.74-.85-1.37-1.49-2.87-2.27-4.29-.8-1.45-.98-3.14-1.34-4.66-.64-2.65-.16-5.48,1.5-7.97-.41-.98-.81-1.93-1.21-2.88-2.66.98-5.19,1.47-7.73.06-.3-.16-.8-.19-.91-.42-1.21-2.7-3.74-4.19-5.63-6.25-1.04-1.13-2.78-1.74-3.55-2.99-1.78-2.9-4.49-4.85-6.71-7.29-.53-.59-1.33-.94-1.98-1.38v-2.04c1.28.34,2.48.44,3.46.95,2.37,1.24,4.31.76,6.08-1.08.44-3.3-.28-6.33-1.8-8.62.35-.66.63-1.21.87-1.65.45.18.72.21.87.35,2.18,2.09,3.92,4.53,5.57,7.04.13.2.35.35.52.53,3.7,3.95,7.4,7.91,11.23,12.01-.19,3.47.95,6.78,2.3,10.2,1.61-1.59,1.62-3.29,1.38-5.05-.44-.44-.88-.88-1.37-1.37v-2.24c.86-.86,1.48-2.25,3.21-1.92,2.84-2.15,3.72-5.15,4.38-8.59.54-2.81.39-5.54.62-8.26-.28-.15-.5-.38-.68-.35-4.26.69-7.45-1.82-10.82-3.68-3.08-1.7-5.6-4.28-8.81-5.81-2.74-1.31-5.47-1.43-8.33-.46-1.53.52-3.14.78-4.91,1.2v-2.2c3.57-1.69,7.03-3.81,10.51-5.93,2.84-1.72,5.79-3.38,8.93-4.58,1.2-.46,2.56-.78,3.71-.88,3.38-.28,6.69-1.26,10.15-.93,2.84.27,5.73.05,8.67.05,2.19-1.52,4.43-3.07,6.73-4.67-.65-.63-1.1-1.06-1.62-1.57v-3.85c.8-2.18,4.12-1.49,5.07-3.82-1.33-.59-2.65-1.46-4.08-1.75-3.41-.68-6.05-2.55-8.47-4.85-1.8-1.72-4.04-2.35-6.38-2.66-3.05-.41-5.82.54-8.63,1.71-3.32,1.39-6.74,2.65-10.45,2.79-1.15.04-2.28.57-3.43.69-1.23.13-2.5.12-3.73,0-1.77-.16-3.54-.47-5.3-.73-1.64-.24-3.4-.21-4.89-.82-1.6-.65-2.95-1.92-4.4-2.92v-1.5c3.68-.55,7.19,1.44,11.05.6.09-.55.21-1.23.34-2.04h3.48c1.97-1.59,3.99-3.25,6.04-4.88.83-.66,1.67-1.34,2.6-1.84,2.45-1.29,4.95-2.47,7.42-3.72,1.28-.65,2.7-.7,4.04-1.09,2.28-.66,4.51-1.4,6.95-1.27,1.99.1,3.99.1,5.97,0,1.95-.09,3.81.58,5.64.93,2.95.56,6.05.59,8.87,1.95,1.04.5,2.44.46,3.37-1-.7-.95-1.37-2.02-2.2-2.95-3.17-3.53-5.75-7.42-7.75-12.12,1.67-.74,3.22-1.43,4.92-2.18-.43-.88-.82-1.71-1.3-2.7-.95.45-1.87.88-2.97,1.4.02,0-.23.02-.31-.09-2.74-3.72-5.48-7.43-8.19-11.18-1.53-2.11-2.99-4.26-4.64-6.62,1.67-1.65,4.34-1.47,6.54-2.76.42.66.9,1.42,1.38,2.17h1.09c.11.57-.37,1.43.75,1.5.25.25.5.5.78.71,0,0-.06.06-.11.11l.52.61.24-.24c-.2-.17-.41-.35-.65-.48-.28-.21-.53-.46-.78-.71-.11-.57.37-1.43-.75-1.5.37-1.25-.7-1.72-1.27-2.4.53-1.5,1.05-2.97,1.55-4.37-1.45-1.65-3.17-2.75-3.25-5.05h6.46c.99-1.83,1.97-3.63,3.02-5.55,2.79,1.25,3.37,4.49,5.73,5.95,1.23.35,2.46.71,3.86,1.11,1-1.63,1.96-3.2,3.09-5.05,4.6,3.41,5.33,8.88,8.29,13.14,1.73-.39,3.71-.66,5.47-1.57.91-.47,1.61-1.34,2.63-2.23-2.15-1.36-4-2.54-6.45-4.09,2.89-.55,5.06-.96,7.41-1.4-.17-.58-.69-.91-1.28-1.23-.6-.33-1.16-.75-1.94-1.27.57-.69,1.01-1.23,1.2-1.46,3.29.24,6.28.46,9.55.7.3-.92.55-1.68.76-2.47,0,0,.06.06.11.11.2-.17.41-.35.61-.52-.08-.08-.16-.16-.24-.24-.17.2-.35.41-.48.65-1.16-.24-1.94.71-2.87,1.14-1.09.51-2.1.65-3.04,0-.87-.6-2.53-.54-2.2-2.46h1.99c.11.41.2.75.32,1.21h3.01c3.11-3,6.55-6.33,10-9.66.26-.25.53-.51.84-.68,2.03-1.11,4.08-2.19,6.11-3.29,3.42-1.86,3.33-1.66,6.42.25.25-.23.47-.53.77-.67.3-.14.67-.12,1.06-.55-.86-.11-1.71-.21-2.95-.37-.28-.75-.65-1.72-1.04-2.76-.5-.05-1.09-.12-1.8-.2v-5.01c.75-.57,1.68-1.3,2.6-2-.96-.72-2.15-1.12-3.59-1.16-1.23-.03-2.45-.55-3.63-1.1,1.89-.17,3.65-.7,5.61.27,1.49.74,3.28.08,4.75-.87-.39-1.06-1.2-1.28-2.25-1.26-2.11.06-4.21.02-6.15.02-.5-.45-.87-.78-1.47-1.32h9.82c.23.29.68.87,1.15,1.46.49-.17.88-.21,1.14-.42,2.35-1.88,5.24-1.61,7.68-1.05,1.95.45,3.81.45,5.71.54,2.12.1,4.02.35,4.82,2.75.14.42.61.88,1.04,1.04,2.33.9,2.94,3.16,4.07,5.06-.3.7-.62,1.44-1,2.33-.5.04-1.09.08-1.71.12.19.83.38,1.68.57,2.48-.45.43-.81.77-1.27,1.21-2.36,0-4.85-.11-7.33.03-2.4.14-4.63-1.53-7.57-.4.69.26,1.14.42,1.58.59,4.22,1.61,8.88,1.17,13.5,1.31,1.01.03,2.01.52,3.29.88.29,1.53.59,3.13.85,4.54-1.03,1.03-1.83,1.83-2.78,2.78-.94,0-2.05.09-3.14-.02-4.93-.49-9.75.77-14.65.8-2.18,0-3.54,1.35-4.29,3.58-.66,1.97-1.38,3.91-2.03,5.74.24,1.79.48,3.54.75,5.52-1.04.41-1.9.75-2.63,1.04-.57-.57-.92-.92-1.38-1.38.68-.46,1.33-.91,1.93-1.31-.16-1.24-.34-2.59-.52-3.98-.67-.32-1.4-.67-2.18-1.04-.9.83-2.35.79-2.95,2.27-.76,1.86-1.96,3.56-1.38,5.57.51.83.84,1.61,1.39,2.2.42.45,1.1.65,1.98,1.13-1.22,1.18-2.06,1.17-3.19-.06-2.39,3.66-4.73,7.25-7.15,10.95,2.09-.4,2.26-.38,4.26-3.35,1.02-1.5,1.57-3.32,2.44-5.22.32.14.82.35,1.4.6.23-.15.6-.4,1.14-.77.64.58,1.25,1.14,1.89,1.72h2.33c.84,2.03,2.36,3.36,4.53,3.96,1.34.37,2.82.57,3.92,1.31,1.37.93,2.81.46,4.3.8,1.15.88,2.38,1.83,3.59,2.76,1.04.13,2.22.04,3.17.46,1.18.54,2.04.64,2.98-.73v-2.84c.94-1.02,2.18-1.69,1.42-3.37h-3.86c-.47-.95-.88-1.77-1.43-2.89.88-.11,1.53-.2,2.1-.27.55.55.99.99,1.45,1.45h3.3c.51-.83,1-1.63,1.81-2.95-.25-.12-.67-.35-1.1-.52-.96-.36-1.94-.68-3.12-1.09.69-1.27.86-2.44,2.33-3.14.14.92.24,1.6.35,2.39,1.55.35,3.14.71,4.89,1.1.66-2.46-.65-4.27-1.26-6.22-.62-1.98-1.13-4-1.67-5.95h-1.34v.12Zm-76.31,53.87c-.25.25-.5.5-.74.96-2.06-.07-4.16-.05-6-1.02-1.03-.54-2.01-.61-3.07-.72-.78-.09-1.52-.59-2.31-.69-.98-.13-2.01.12-2.97-.06-4.59-.82-9.64-.99-13.5-.31,2.01.38,3.84.83,5.7,1.05,1.53.18,3.03.29,4.56.65,1.5.35,2.96.52,4.31,1.38.45.29,1.16.22,1.75.24.87.04,1.89-.29,2.58.06,3.11,1.54,6.01.53,8.94-.8.25-.25.5-.5.67-.82l.15.15c.2-.17.41-.35.61-.52l-.24-.24c-.17.2-.35.41-.44.68h0Zm68.07,11.23l-.75.75-.75.75h-1.08c.12,1.37.23,2.56.34,3.74-1.23.91-2.46,1.81-3.75,2.77v1.95c-.93,1-1.78,1.9-2.73,2.92h-1.71v1.62c-.15-.14-.31-.28-.46-.42-.77,1.11-1.54,2.22-2.25,3.24h-2.11c-.69,1.57-1.29,2.94-1.95,4.45-1.8-.28-3.48.46-5.12-.78v2.47c-.75.75-1.36,1.37-1.98,1.99h-3.32c-.28-.39-.7-.97-1.18-1.64-.34,1.09-.61,1.97-.9,2.92.99.68.43,1.86.49,2.74-.67.74-1.25,1.38-2.01,2.23-.83-.37-1.67-.75-2.41-1.08v-2.87c-.67-.54-1.54-1.24-2.18-1.76-.09-.9-.15-1.48-.23-2.26-1.68,1.81-3.61,1.81-5.06,1.73-5.65,2.62-11,4.37-16.13,3.73-2.1-.09-1.14-2.73-3.13-2.15-.81,2.14.43,3.94.78,5.71,4.17.98,7.87-.69,11.65-1.66,2.47-.63,5.1-.61,7.46-1.84.6-.32,1.57.06,2.48.13-.33,1.3-.83,1.86-1.98,2.09-3.2.65-6.41,1.24-9.54,2.2-1.6.49-3.2.92-4.92.78-1.46-.12-2.95-.03-4.43-.03-.67,2.25.31,4.08.88,6.01,2.32-.14,4.52.06,6.61,1.23.66.37,1.93.49,2.41.1.81-.65,1.61-.41,2.39-.64,1.21-.35,2.38-.86,3.52-1.41,1.86-.9,3.68-1.89,5.57-2.87-.18-.89-.41-2.03-.64-3.16.94-.75,1.87-1.5,3-2.4.63.26,1.38.57,2.18.91.05,1.09.09,2.03.12,2.85,1.3.5,2.31-1.84,3.57.7.81-1.13,1.46-2.03,2.15-2.98.79.28,1.44.51,2.4.84.51-.62,1.2-1.47,2-2.45,1.23.41,2.31.76,3.26,1.08v2.54c-.65.67-1.25,1.3-1.94,2.02-.97-.16-1.99-.32-3.5-.57-.1.15-.51.77-.94,1.42-1.19-.28-2.17-.51-3.12-.73-.42.92-.84,1.86-1.13,2.48-.67.32-1.04.5-1.38.66.32,1,.39,1.9.85,2.52.8,1.07.28,2.66,1.51,3.5.14.1.34.12.51.17.17-.48.32-.91.42-1.21h1.86c.06.36.21.63.13.81-2.05,4.74-5.98,8.31-8.06,13.07,2.51,2.29,5.75,3.3,8.93,4.45,2.95,1.06,5.67-.77,8.58-.54,2.35-2.63,4.96-5.01,7.17-7.84,3.65-4.65,6.55-9.76,8.66-15.13,1.77-4.51,3.99-8.82,5.6-13.39,1.07-3.03,2.82-5.81,4.13-8.76.52-1.16.67-2.47,1.03-3.88-2.79-2.61-5.58-5.22-8.37-7.82-.07-.06-.24,0-.74,0,.31.57.53.99.85,1.59-.76,1.19-1.57,2.46-2.37,3.71.3.54.59,1.04.93,1.65-.9.9-1.74,1.74-2.4,2.4,0,.98,0,1.6,0,1.42-1.32,1.38-2.25,2.34-3.37,3.52-.46-.24-1.18-.61-1.75-.9v-2.75c1.72-.05,1.42-1.67,2.09-2.5.1-.12-.4-.73-.67-1.21.87-.98,1.77-1.99,2.81-3.17.25-1.27.57-2.89.9-4.51.56-.46,1.12-.93,1.46-1.21-.3-1.08-.51-1.8-.71-2.53l.75-.75c.25-.25.5-.5.67-.82.05.05.1.1.15.15l.61-.52-.24-.24c-.17.2-.35.41-.44.68h-.03Zm-15.04,130.86s.1.1.15.15c.2-.17.41-.35.61-.52-.08-.08-.16-.16-.24-.24-.17.2-.35.41-.36.75l-.15-.15-.61.52.24.24c.17-.2.35-.41.36-.75Zm1.57-2.18l.75-.75c1.12-.06.64-.93.75-1.5,1.18-.29,1.62-1.08,1.5-2.24,1.12-.06.64-.93.75-1.5.29-.17.65-.28.87-.52,2.72-2.88,4.09-6.55,5.83-10,.2-.39.03-.96.03-1.45,1.12-.06.64-.93.67-1.56l.15.15c.2-.17.41-.35.61-.52l-.24-.24c-.17.2-.35.41-.44.68-1.12.06-.64.93-.75,1.5-.12,0-.32-.05-.35,0-2.13,3.74-4.26,7.49-6.36,11.24-.1.19-.01.48-.01.72-1.12.06-.64.93-.75,1.5-1.18.29-1.62,1.08-1.5,2.24-1.12.06-.64.93-.75,1.5-.25.25-.5.5-.67.82-.05-.05-.1-.1-.15-.15-.2.17-.41.35-.61.52l.24.24c.17-.2.35-.41.44-.68h0Zm-24.01-166.18l.15.15.61-.52-.24-.24c-.17.2-.35.41-.36.75l-.15-.15c-.2.17-.41.35-.61.52l.24.24c.17-.2.35-.41.36-.75Zm136.15-31.28s.1-.1.15-.15c-.17-.2-.35-.41-.52-.61-.08.08-.16.16-.24.24.2.17.41.35.68.44l.75.75c.06,1.12.93.64,1.5.75l.75.75.75.75c.06,1.12.93.64,1.55.61-.08.11-.17.21-.25.32,2.09,2.09,4.14,4.23,6.28,6.27,4.4,4.17,6.73,9.58,8.79,15.06,1.18,3.15,1.87,6.49,2.49,9.86.43,2.31.95,4.72.4,6.78-.52,1.96-.36,3.82-.58,5.72-.23,1.89-.59,3.78-.72,5.68-.35,5.11.43,10.12,1.52,15.08.33,1.52.86,2.97.72,4.56-.03.33.06.74.25,1.01.78,1.14.74,2.14-.02,3.35-.4.63-.21,1.63-.29,2.39.95.71,2.3.98,4.03.83-.64-4.51-1.27-9-1.85-13.06-1.06-2.85-2.02-5.32-2.86-7.83-.18-.52.02-1.2.15-1.79.12-.56.49-1.08.54-1.64.14-1.46.02-2.96.28-4.39.24-1.35.91-2.62,1.21-3.97.31-1.38-.49-2.96.77-4.17-.03-3.23.54-6.61-.22-9.66-1.14-4.55-3.12-8.91-4.91-13.28-1.94-4.76-5.34-8.47-8.97-11.99-.79-.77-2.15-.69-2.49-2.3-.18-.87-1.73-1.48-2.71-2.14-.47-.31-1.05-.46-1.64-.54-.06-1.12-.93-.64-1.5-.75l-.75-.75-.75-.75c-.06-1.12-.93-.64-1.5-.75-.25-.25-.5-.5-.82-.67h.03Zm-139.81,12.63l.75-.75.75-.75c.25-.25.5-.5.75-.35,1.75-1.86,3.31-3.44,4.66-5.34,2.3-3.24,5.02-6.2,7.46-9.31,2.09-2.68,4.8-4.32,7.49-6.7-.74,0-1.26-.13-1.67.02-3.52,1.35-6.27,3.86-8.9,6.4-1.37,1.32-1.87,3.5-3.1,5.01-2.17,2.67-3.19,6.15-5.92,8.42-.18.15-.02.72-.02,1.09l-.75.75-.75.75c-.25.25-.5.5-.67.82l-.15-.15c-.2.17-.41.35-.61.52.08.08.16.16.24.24.17-.2.35-.41.44-.68h0Zm-3.74,120.48l-.75.75c-.48.35-1.28.63-1.37,1.07-.4,1.85-.65,3.73-.84,5.62-.05.53.26,1.11.46,1.66.83,2.33,3.84,3.64,6.7,4.35.7.18,1.75-.25,2.16.13,1.7,1.54,3.16.33,4.6-.26,1.27-.53,2.41-1.38,3.62-2.06,1.5-.84,3.2-1.39,4.12-3.01.74-.28,1.89.69,2.01-.75h1.8c1.16-.84,2.13-1.54,3.1-2.25,2.1-1.54,4.36-2.91,6.26-4.66,1.95-1.8,3.9-3.78,5.21-6.05.94-1.62,2.42-2.63,3.35-4.19,1.69-2.81,3.57-5.52,5.48-8.19,2.93-4.08,4.78-8.72,7.11-13.12-.19-1.88.89-3.35,1.57-4.95.68-1.6.79-3.36,1.42-5.01.69-1.83.68-3.93.95-5.75-.57-.54-.91-.87-1.29-1.23-1.3,4.51-3.22,8.69-5.27,12.82-.36.72-.77,1.43-1.02,2.19-1.33,3.93-3.06,7.71-4.62,11.53-2.79,6.78-7.39,12.54-12.07,18.13-1.29,1.54-2.81,2.92-4.58,4.11-2.67,1.79-4.87,4.29-7.15,6.6-.74.28-1.89-.69-2.24.75-1.14.18-2.25.19-3.44.58-1.71.57-3.4,1.54-5.24,1.63-2.79.13-5.6.04-8.11.04-1.32-1.3-2.37-2.34-3.61-3.56.3-1.96.62-4.07.95-6.17.25-.25.5-.5.67-.82.05.05.1.1.15.15.2-.17.41-.35.61-.52-.08-.08-.16-.16-.24-.24-.17.2-.35.41-.44.68h-.02Zm65.08,14.96c.25-.25.5-.5.67-.82l.15.15c.2-.17.41-.35.61-.52l-.24-.24c-.17.2-.35.41-.44.68l-.75.75c-.25.25-.5.5-.62.79-1.54-.46-1.94.95-2.22,1.11-2.66.44-4.64.78-6.63,1.08-.31.05-.66-.15-1.1-.25v-1.74c-.73-.32-1.33-.57-1.92-.83-.89,1.46.59,2.36.75,3.19,1.97,1.94,3.85.63,5.77.49,2.38-.18,4-1.17,5.22-3.07l.75-.75v-.02Zm-74.12-115.9l.15-.15-.52-.61-.24.24c.2.17.41.35.68.44.11.57-.37,1.43.46,1.68.44.68.88,1.36,1.5,2.3.63-1.73-.38-2.06-1.21-2.49-.11-.57.37-1.43-.82-1.42h0Zm-26.04-9.13l-.15.15c.17.2.35.41.52.61l.24-.24c-.2-.17-.41-.35-1.26-.42.22,0,.43-.02.65-.03-.1-.49-.19-.97-.29-1.46l-.48.06c.04.48.08.96.77,1.34h0Zm44.06-20.88c1.12-.06.64-.93.75-1.5.39-.26.97-.44,1.13-.8,1.25-2.81,3.4-4.88,5.52-6.99.59-.59,1.06-1.29,1.5-2l.15.15c.2-.17.41-.35.61-.52-.08-.08-.16-.16-.24-.24-.17.2-.35.41-.44.68-.37,0-.9-.16-1.09.03-1.62,1.54-3.5,2.94-4.67,4.78-.96,1.5-2.59,2.83-2.46,4.92-1.12.06-.64.93-.67,1.56-.05-.05-.1-.1-.15-.15-.2.17-.41.35-.61.52.08.08.16.16.24.24.17-.2.35-.41.44-.68h-.01Zm-1.5,2.24c-1.12.06-.64.93-.75,1.5l-.75.75c-1.18.29-1.62,1.08-1.42,2.31-.05-.05-.1-.1-.15-.15-.2.17-.41.35-.61.52.08.08.16.16.24.24.17-.2.35-.41.44-.68,1.18-.29,1.62-1.08,1.5-2.24l.75-.75c1.12-.06.64-.93.67-1.56.05.05.1.1.15.15.2-.17.41-.35.61-.52l-.24-.24c-.17.2-.35.41-.44.68h0Zm-8.25,8.39c.01.22.02.43.03.65.49-.1.97-.19,1.46-.29l-.06-.48c-.48.04-.96.08-1.34.77-.05-.05-.1-.1-.15-.15-.2.17-.41.35-.61.52l.24.24c.17-.2.35-.41.42-1.26h.01Zm32.91-18.71c.01.22.03.43.04.65.49-.09.97-.19,1.46-.28l-.07-.48c-.48.04-.95.08-1.41.7-.57.11-1.43-.37-1.5.75-4.04.26-6.96,2.6-9.65,5.31-.05-.05-.1-.1-.15-.15-.2.17-.41.35-.61.52.08.08.16.16.24.24.17-.2.35-.41.44-.68,1.47-.25,2.84-1.1,4.18-1.36,2.58-.51,4.21-1.85,5.55-3.88.57-.11,1.43.37,1.48-1.33h0Zm-13.44,174.16c-.74.28-1.89-.69-2.24.75h-10.8c-.74,0-1.62.26-2.21-.04-3.31-1.71-6.99-2.31-10.45-3.54-2.25-.8-4.65-1.2-6.98-1.78,1.28,1.77,2.67,3.21,4.32,4.23,2.34,1.44,4.86,3.12,7.54,3.25,6.23.32,12.56.68,18.58-2.13.74-.28,1.89.69,2.22-1.33.01.22.02.43.03.65.49-.1.97-.19,1.46-.29-.02-.16-.04-.32-.06-.48-.48.04-.96.08-1.41.7h0Zm9.72,20.96c1.18-.29,1.62-1.08,1.5-2.24.12,0,.34.04.36,0,2.11-4.4,4.53-8.62,7.09-12.77,2.75-4.47,5.52-8.89,9.29-12.6,1.22-1.2,2.3-2.53,3.45-3.8.25-.25.5-.5.75-1.13.74-.74,1.68-1.67,2.49-2.48-1.21-.55-2.88-1.31-5.18-2.36h-2.74c-1,.56-1.76,1.28-2.63,1.43-2.87.5-4.99,2.1-6.9,4.14-1.28,1.36-2.71,2.59-3.94,3.99-2.02,2.29-4.4,4-7.24,4.83.38.74.69,1.35,1.13,2.2,1.46-1.28,2.88-2.53,4.32-3.77,1.65-1.42,3.31-2.83,4.98-4.23,1.71-1.44,3.56-2.6,5.68-3.42,1.92-.75,3.57-2.14,5.62-2.66.88-.22,1.75-.53,2.73-.83.44.44,1.06,1.05,1.67,1.67v1.87l-.75.75c-.79-.11-1.35.17-1.92.76-2.4,2.49-4.83,4.97-7.34,7.34-1.75,1.66-3.01,3.67-4.13,5.72-2.14,3.92-4.12,7.93-5.97,11.99-.45.99-1.22,2.09-.83,3.36-1.18.29-1.62,1.08-1.5,2.24-1.18.29-1.62,1.08-1.67,2.05-1.29,1.29-2.78,2.45-3.84,3.91-2.66,3.67-5.86,6.69-9.44,9.46-4.37,3.38-8.95,6.32-13.94,8.66-.84.39-1.57,1.01-2.32,1.58-.15.11-.13.43-.28.97.38.22.91.52,1.22.7,2.2-.46,4.48-.94,7.39-1.55,9.24-5.31,15.8-13.98,21.4-23.53,1.18-.29,1.62-1.08,1.5-2.24h0Zm-43.32-148.99l-.15.15c.17.2.35.41.52.61l.24-.24c-.2-.17-.41-.35-.97-.25.15-.09.29-.17.44-.26-.42-1.01-.85-2.03-1.25-2.99-.49.12-.71.17-1.15.28.69,1.04,1.33,2,2.32,2.7Zm-6.42,2.7c.13-.12.26-.25.4-.37-.03-.44-.06-.88-.11-1.48-.52.04-.93.06-1.43.1.45.7.8,1.23,1.19,1.58.97,1.66,1.94,3.32,3.23,5.52.28-3.07-1.54-4.27-3.28-5.34h0Zm84.83,109.44c-1.19,1.89-4-.19-5.14,2.36,2.29.28,3.96-.44,5.13-2.26l.15.15c.2-.17.41-.35.61-.52l-.24-.24c-.17.2-.35.41-.51.51h0ZM116.45,30.42c1.64-.45,3.62.02,4.65-1.68-.43-.4-.76-.72-1.15-1.09-1.18.94-2.34,1.85-3.21,3.1-.05-.05-.1-.1-.15-.15l-.61.52.24.24c.17-.2.35-.41.23-.94Zm-25.82,116.84c3.15.49,5.03-.54,6.26-2.96-1.9.9-3.79,1.79-5.59,3.17-.05-.05-.1-.1-.15-.15-.2.17-.41.35-.61.52l.24.24c.17-.2.35-.41-.15-.82Zm17.47,63.06c-4.63,2.91-9.21,3.93-13.85,4.85,3.27.77,6.19-.95,9.31-1.17,1.15-1.3,3.39-1.11,4.04-3.06.05.05.1.1.15.15l.61-.52c-.08-.08-.16-.16-.24-.24-.17.2-.35.41-.03,0h0Zm43.63-101.77c-1.47,4.1-3.34,7.39-4.09,11.2.82-.34,1.48-.79,1.9-1.41.31-.45.34-1.1.45-1.67.49-2.51,2.17-4.72,1.83-7.44,1.79-1.07,1.47-2.83,1.33-4.54,2.12-2.82,3.26-6.13,3.78-9.4.75-4.67.51-9.48.93-14.21.2-2.25-.98-4.25-.77-6.41.27-2.82-.91-5.38-.91-8.21-.61.13-.95.21-1.36.3v4.52c0,1.62-.1,3.24.03,4.85.11,1.4.68,2.78.68,4.17.03,6.91.52,13.87-1.45,20.64-.36,1.23-.62,2.5-.76,3.79-1.19,1.26-1.55,2.81-1.58,3.8v.02Zm114.52,42.59l.75.75c.79,1.66,1.63,3.31,2.36,5,.54,1.27,1.24,2.58,1.32,3.91.18,3.02,1.3,5.94.86,9.03-.07.46.48,1.02.68,1.4-.27.78-.67,1.42-.7,2.09-.12,2.53-.42,5.05-.62,7.55-.33,4.32-1.83,8.24-2.94,12.29-.76,2.77-2.02,5.4-2.82,8.16-.65,2.22-1.97,4.27-2.76,8.55.59-.54.87-.69.85-.8-.05-.36-.21-.7-.32-1.05-.13.45-.26.9.35,0,.39-.26.98-.44,1.12-.8.48-1.2.58-2.58,1.87-3.32-.35-1.97,1.65-2.99,1.92-4.81.24-1.66,1.13-3.23,1.83-4.8,1.25-2.79,2.49-5.57,2.25-8.75-.05-.7.02-1.47.28-2.11,1.48-3.56,1.1-7.43,1.87-11.12.4-1.9.17-3.96.04-5.94-.13-2.01-.33-4.04-.75-6.01-.77-3.64-2.77-6.49-5.97-8.45-.18-.11-.49,0-.74,0l-.75-.75c-.34-2.56-1.72-4.92-1.5-7.59-1.36-.86.05-2.86-1.98-3.63.16.02.32.03.49.05v-2.3c0-.87.15-1.78-.05-2.6-.16-.66-.73-1.22-1.12-1.82-.15.05-.29.11-.44.16.37,2.17.74,4.34,1.6,6.5v8.74c.95.79,1.97,1.64,2.99,2.49h.03ZM131.94,30.05c-.51-.57-.66-.85-.76-.84-.36.05-.7.21-1.05.32.45.13.9.26.61-.35-2.76-1.69-4.53-4.13-7.75-3.71-.37.37-.72.73-1.09,1.09,1.65.84,3.29,1.67,5.15,2.62.84,0,1.96,0,4.89.86h0Zm-19.09,8.54c-3.72,1.15-5.6,3.74-8.18,5.13.03.75.06,1.32.09,1.88,1.94.23,3.68-.37,4.19-1.73.73-1.97,2.08-3.35,3.18-5.43.02.12.03.25.05.37h4.96c1.02-.9,1.58-1.74.72-2.77-1.93.81-3.83,1.6-5.01,2.54h0Zm-21.05,21.3c.43,0,.72.09.92,0,3.6-1.77,7.41-3.22,9.97-6.58.72-.94,1.5-1.94,2.24-2.73.82-.87,2.07-1.57,2.97-2.52.32-.34.4-.92.71-1.69-2.91,1.11-4.38,3.27-6.19,4.99-1.89,1.8-3.7,3.69-5.52,5.5-2.29.02-3.78,1.24-4.83,3.11l-.15-.15c-.2.17-.41.35-.61.52l.24.24c.17-.2.35-.41.26-.68h0Zm-12.6,174.42s.1-.1.15-.15c-.17-.2-.35-.41-.52-.61-.08.08-.16.16-.24.24.2.17.41.35,1.26.37-.25.03-.49.07-.74.1.2,1.22.41,2.44.61,3.64-.26.26-.53.53-.79.79-1.67-1.32-3.48-1.93-5.57-1.22-.03.3-.05.54-.07.71,1.49.94,2.86,2.41,4.43,2.65,2,.32,3.12,2.05,5.33,2.55-.27-3.58-2.72-6.06-3.84-9.07h-.01Zm-8.16-141.52c-.12.13-.25.26-.37.4.53.34,1.06.69,1.76,1.14.03-.5.06-.9.1-1.43-.6-.04-1.04-.08-2.06.09l.85-.35c-2.42-4.77-5.85-8.88-8.75-13.29-.85.55-1.48.96-2.39,1.55,3.56,4.17,6.93,8.13,10.88,11.89h-.02Zm-49.25,42.27c2.92-1.03,5.85-2.05,8.77-3.08-.03-.17-.07-.33-.1-.5,4.72-.24,9.43-.47,14.24-.71.24-.25.56-.6.94-1-5.19-1.14-10.2.63-15.27.48-.18,0-.35.36-.56.42-2.88.86-5.6,2.07-8.13,4.63-.01-.22-.02-.43-.03-.65-.49.1-.97.19-1.46.29.02.16.04.32.07.48.48-.04.95-.08,1.53-.36h0Zm40.21-64.61l.15-.15c-.17-.2-.35-.41-.52-.61-.08.08-.16.16-.24.24.2.17.41.35.32.25.5,1.01.86,1.73,1.22,2.46,2.42-1.41,4.85-2.46,6.82-4.33-1.54-2.69-2.97-5.17-4.31-7.51h-2c.36,1.65.69,3.12,1,4.52-.62.65-1.12,1.18-1.54,1.62.64,1.35,2,2.43,1.02,4.33-.64-.31-1.25-.61-1.93-.81h0Zm-2.5,39.57h2.19c-.15-.15-.31-.31-.46-.46.63-.64,1.26-1.28,1.75-1.77h-2.55c-5.05-2.86-9.9-5.14-16.1-5.15,3.65,2.49,6.45,5.13,10.11,6.49.12-.45.2-.79.38-1.46,1.89.35,3.81.7,5.85,1.07-.36.39-.59.65-.82,1.86,0-.22-.02-.43-.03-.65-.49.1-.97.19-1.46.29.02.16.04.32.07.48.48-.04.95-.08,1.08-.7h-.01Zm35.04,79.34c-2.33-1.93-5.27-2.32-7.26-4.33-2-2.01-3.34-4.43-5.03-7.43.11,1.85-.08,2.91.93,4.21,1.19,1.54,2.34,3.11,3.82,4.32,2.08,1.7,4.33,3.24,6.91,2.96,2.23,1.61,4.45,2.55,6.25,2.46,4.99-.27,10,.66,14.98-.67,2.17-.58,4.52-.41,6.74-.85,2-.4,3.93-1.16,6.28-1.88-4.25-1.07-7.9.52-11.64.43-1.1,1.09-2.5.61-3.78.77-1.4.17-2.77.54-4.16.71-1.76.22-3.52-.18-5.33.64-.98.44-2.52.38-3.89-.26-1.56-.72-3.38-.87-4.81-1.09h0Zm-37.77,18.02s.1-.1.15-.15c-.17-.2-.35-.41-.52-.61-.08.08-.16.16-.24.24.2.17.41.35.18.31,5.38,6.55,10.49,12.79,15.65,19.07,1.48-2.02,1.54-3.99,1.14-6.12-.77-.49-1.57-.99-2.35-1.5-.79-.52-1.51-1.14-2.34-1.57-3.63-1.87-4.6-2.88-7.16-6.24-1.12-1.47-2.18-3.33-4.5-3.43h-.01Zm29.98-150.87c2.57-.37,5.61-.03,7.09-3.21.44-.94,1.95-1.32,2.75-2.17,1.67-1.75,3.12-3.7,4.78-5.45,2.58-2.7,4.03-6.32,7.08-8.63.29-1.75,1.79-2.63,2.96-3.57,1.09-.87,1.35-2.3,2.75-3.02,1.37-.7,2.31-2.21,3.49-3.31.32-.29.92-.28,1.23-.57.24-.23,1.01-.38.44-1.14-2.67.29-4.19,2.57-6.06,4-4.14,3.17-6.99,7.6-10.06,11.79-2.93,3.99-5.93,7.92-10.22,10.65-.94.6-1.53,1.76-2.28,2.66-1.28.64-2.61,1.3-3.86,2.43-.05-.05-.1-.1-.15-.15l-.61.52.24.24c.17-.2.35-.41.43-1.07Zm-.23,123.88c-.27-2.53-.53-5.04-.81-7.72-2.02.65-2.04,2.34-2.92,3.61.67.23,1.1.38,1.53.52.59,1.34.92,2.86,2.44,3.47,0,.33-.06.61.02.83.12.32.3.63.52.9,2.06,2.62,5.05,3.77,7.95,5.13,1.86.88,3.66,1.59,5.75,1.46,2.64-.16,5.26.15,7.93-.66,2.46-.75,5.16-.73,7.88-1.07-.31-.25-.49-.51-.65-.5-4.34.2-8.56-.22-12.54-2.2-.44-.22-1.16.07-1.74.18-.68.13-1.35.45-2.03.49-4.94.24-9.17-1.65-13.3-4.44h-.03ZM18.67,103.26c3.31.52,6.48-.88,9.77-.75,2.13-1.42,4.61-.19,6.76-.83,2.28-.67,4.52-.62,6.8-.67.99-.02,1.99.04,2.99,0,4.73-.22,9,1.42,13.2,3.27,1.47.65,2.87,1.45,4.12,2.09,3.05-.85,4.55-3.19,6.45-5.01.19-.18.02-.72.02-1.09.25-.25.5-.5.75-.46.9-1.3,1.66-2.4,2.4-3.48-1.05-.7-1.93-1.29-2.9-1.95-1.72,2.27-4.14,3.24-7.15,2.91-1.35-.15-2.73-.01-4.1-.03-1.43-.02-2.78-.06-4.2-.68-2.32-1-4.79-2.04-7.26-2.21-3.87-.27-7.7-1.42-11.62-.84-.68.1-1.33.4-2.01.53-3.55.67-6.24,3.02-9.18,4.83-.79.49-2.42.41-2.3,2.3,2.64-1.67,5.69-1.79,8.48-3.03,2.7-1.2,5.85-1.61,9-1.78,3.97-.22,7.47,1.4,11.22,1.94,2.31.33,4.64.85,6.96,1.1,2.82.31,5.7.07,8.28.07,1.53-.79,2.65-2.08,4.36-1.2v1.2l-.75.75c-1.45-.11-2.73.64-4.12.89-3.89.7-8.09,1.01-11.25-.31-.82-.34-1.53-.6-2.36-.58-2.28.06-4.36-.66-6.5-1.37-4.54-1.5-9.1-1.36-13.52.61-3.73,1.67-7.99,2.8-11.41,3.02-.33.02-.64.47-.88.79-.05-.05-.1-.1-.15-.15-.2.17-.41.35-.61.52.08.08.16.16.24.24.17-.2.35-.41.44-.68l.03.04Zm117.81,90.54c-.75,0-1.28-.16-1.47.02-2.59,2.52-5.49,4.82-7.61,7.7-3.79,5.15-6.93,10.77-9.77,16.49-2.25,4.54-5.31,8.38-8.56,12.13-1.79,2.07-3.92,3.83-5.77,5.85-4.66,5.08-10.44,8.5-16.61,11.33-.52.24-1.15.22-1.72.37-.17.05-.28.28-.39.4.35.37.69.74,1.17,1.25.93-.31,2.07-.43,2.88-1.01,4.48-3.2,9.65-5.32,13.89-8.89,2.12-1.79,4.52-3.34,6.27-5.43.99-1.18,2.01-2.37,3-3.57.99-1.2,1.84-2.53,2.93-3.63,2.44-2.48,4.33-5.5,5.36-8.61,1.41-4.24,4.43-7.62,5.53-11.92,2.02-2.2,3.11-5.1,5.43-7.11,1.79-1.54,3.37-3.32,4.96-5.44l.15.15c.2-.17.41-.35.61-.52l-.24-.24c-.17.2-.35.41-.07.68h.03Zm-23.55,12.37l-.07-.6c-1.45.42-3.05.59-4.33,1.31-2.35,1.33-4.94,1.66-7.46,1.81-4.6.26-9.22.15-13.83.03-1.37-.03-2.93-.27-4.05-.98-3.31-2.11-6.44-4.5-9.63-6.77.05-.05.1-.1.16-.16-1.28-.51-2.57-1.01-4.2-1.66h-5.15v1.12c2.21.57,4.21,1.24,6.01,2.84,1.89,1.69,4.14,3.26,6.5,4.05,3.46,1.15,6.4,3.21,9.99,4.6,1.55-.13,3.34-.06,4.79,1.58,2.18-.28,4.43-.56,6.69-.85.79-1.52,2.4-.53,3.62-1.22,3.5-1.97,7.28-3.44,10.93-6.08.01.22.02.43.03.65.49-.1.97-.19,1.46-.29-.02-.16-.04-.32-.06-.48-.48.04-.96.08-1.4,1.1h0Zm24.64-5.98c-.66.66-1.23,1.11-1.65,1.67-3.79,5.07-7.16,10.44-10.2,15.96-2.41,4.38-4.84,8.74-7.6,12.89-2.55,3.84-5.12,7.71-8.15,11.17-2.81,3.21-6.06,6.11-9.47,8.67-1.54,1.16-3.27,2.92-5.71,2.36-1.63,1.46-4.23.07-5.6,1.84.55,1.46,1.06,2.84,1.65,4.41,2.13-1.16,4.11-2.11,5.95-3.29,1.02-.66,1.8-1.7,2.67-2.59,1.93-1.97,4.26-3.41,6.58-4.86.6-.37,1.24-.73,1.73-1.23,1.78-1.82,3.46-3.73,5.12-5.68,2.65-3.1,5.18-6.2,7.38-9.67,3.12-4.92,6.13-9.9,8.82-15.05,1.86-3.56,4-6.85,6.29-10.12,1.18-1.67,2.43-3.76,2.15-6.21l.15.15c.2-.17.41-.35.61-.52l-.24-.24c-.17.2-.35.41-.47.34h0Zm-102.61-5.66c-.22,0-.43.03-.65.04.09.49.19.97.28,1.46.16-.02.32-.04.48-.07-.04-.48-.08-.95-.7-1.41,0-1.37-.02-2.73.02-4.09,0-.14.35-.26.75-.54.48.4,1,.84,1.47,1.23,0,.87-.18,1.67.03,2.35.81,2.63,1.73,5.23,2.66,7.83.1.28.53.43,1.15.9-.39-2.39-1.9-3.98-1.54-5.87.36-1.94-1.66-3.58-.53-5.52,2-.25,1.63,1.85,2.72,2.56,0,1.07-.1,2.19.03,3.28.12,1.03.63,2.02.68,3.05.09,1.69.85,3.05,2.13,3.93.91.63,1.41,1.63,2.46,2.03-.05.05-.1.1-.15.15.17.2.35.41.52.61.08-.08.16-.16.24-.24-.2-.17-.41-.35-.68-.44,0-.87.34-1.97-.06-2.57-1.79-2.72-1.6-6.09-3.01-8.83-1.37-2.66-.46-4.51,1.06-6.48h3.44c.8,1.15,1.61,2.31,2.51,3.6-.23,2.19-.47,4.41-.74,6.96.47-.46.98-.73,1.03-1.06.23-1.65,1.22-2.99,1.76-4.5,1.16-3.27,1.25-6.45-.72-9.53-1.24-1.93-1.98-4.07-1.48-6.28-.66-1.03-1.23-1.91-1.65-2.56-.97.27-1.73.49-3.15.89-.21-.54-.47-1.24-.73-1.93-.69.69-1.13,1.13-1.5,1.5h-2.62c-.45-.75-.87-1.44-1.23-2.04-1.36-.39-2.37.1-2.59,1.36-.81,4.65-4.09,8.26-5.13,12.61.47,1.64,1.06,3.17,1.32,4.75.2,1.2.48,2.21,2.12,2.86h0Zm82.85,17.77c-1.13.56-1.97.78-2.56,1.3-3.29,2.91-6.88,5.26-11.1,6.57-.86,1.33-2.78-.21-3.56,1.32-2.53.5-5.04,1.13-7.59,1.48-4.53.63-8.98-.79-13.5-.74-.32,0-.64-.26-.97-.33-.9-.19-1.81-.35-2.8-.53-.62,2.85-1.19,5.46-1.65,7.57.82.97,1.36,1.6,1.89,2.23.32-.32.68-.68,1.06-1.06-.02-1.8-.23-3.72,1.6-5.01,2.37,2.95,2.46,6.59,3.84,9.73,1.42,3.25,2.72,6.56,4.07,9.84,5.72-2.54,7.06-3.41,8.97-5.86-2.2-.72-4.31,1.75-6.61.19.15-.35.25-.7.44-.97.21-.3.52-.54.63-.65,3.16-.38,6.15-.73,9.14-1.09-.25-.22-.5-.44-.74-.66.64-.08,1.29-.15,1.93-.23-2.25-.27-4.01-.67-5.57-2.73,2.72.24,5.12-.49,6.66.45.85-.28,1.4-.47,1.95-.66l-.34-.59h-4.14v-1.86c2.2.21,4.29.4,6.39.6-.08-.19-.15-.38-.23-.57.43-.2.86-.4,1.45-.67-.83-.52-1.38-.77-1.81-1.15-.33-.29-.52-.75-1.05-1.57h6.24c-1.36-.88-2.12-1.37-2.91-1.88.03-.58.06-1.16.1-1.98,1.57.56,2.83,1.52,4.31.69-.69-.82-2.68-.7-1.97-2.63,1.23-.08,2.41-.15,3.91-.24-.46-.81-.74-1.3-1.17-2.06.99-.37,1.95-.73,3.28-1.22.67-1.38,1.47-3.04,1.96-4.88.05.05.1.1.15.15.2-.17.41-.35.61-.52l-.24-.24c-.17.2-.35.41-.04.46h-.03Zm-43.73-71.67c-.18-.66-.49-1.8-.81-2.93-.06-.22-.17-.43-.26-.64-.92-.1-1.84-.19-2.74-.29.03-.5.04-.74.06-1.14.65-.11,1.34-.22,2.11-.35v-2.9c-1.02-1.04-1.86-1.9-2.63-2.69-.86.44-1.78.92-2.98,1.54-1.21-1.28-2.37-2.53-3.5-3.73-1.43-.4-2.87-.81-3.74-1.05-.73-1.08-1.12-1.66-1.51-2.23-3.61,2.31-7.14,4.56-10.81,6.91-.29,1.23-.25,2.84-1,3.88-.99,1.37-.49,2.96-1.3,4.36-.65,1.11-.09,2.69-.74,4.16-.85,1.94.52,3.86,1.66,5.77-.96.78-1.82,1.48-2.53,2.05.22,6.31-.99,12.02-4.01,17.67,1.1.05,1.92.09,3.09.15.51.64,1.19,1.5,1.74,2.2,1.29-.85,2.33-1.53,3.38-2.22,1.05.79,1.91,1.72,2.97,2.15,1.15.47,2.49.48,3.9.72.82-1.27,1.68-2.62,2.5-3.89-.62-.73-2.17-.3-1.32-2.07,1.07.15,2.24.32,3.41.49-.26-1.07-.52-2.14-.88-3.64,1.57.4,2.64.68,4.09,1.05-.23-.72-.35-1.13-.49-1.53-.15-.4-.33-.79-.7-1.65,1.38.24,2.3.39,3.41.58-.23-.91-.44-1.75-.66-2.64.45-.32.92-.66,1.33-.95.54.37.87.59.66.44.75-.27,1.2-.42,2.53-.9-1.23-.76-1.8-1.11-2.67-1.65h2.97c.39-.66.74-1.24.96-1.6-.69-.67-1.17-1.14-2.2-2.13h4.37v-1.35c-.74-.11-1.43-.21-2.16-.32.03-.47.06-.81.1-1.4h3.98c-1.15-.74-1.9-1.23-2.67-1.73.46-.46.82-.82,1.3-1.3h1.57c.3-.73.55-1.33.92-2.23-1.59.3-2.99.57-4.43.84-.19-3.03,2.94-1.55,3.76-3.8h-.03Zm24.32-17.91c.77.8,1.75,1.83,2.68,2.8,1-.22,2.13-.46,3.01-.65.89.74,1.53,1.26,2.32,1.92.36-.76.6-1.25.62-1.29,1.49-.81,2.59-1.41,3.71-2.02.58.27,1.19.56,1.99.93.14-.91.25-1.6.39-2.49,1.54-.86,3.15-1.76,4.97-2.78.36-.72.89-1.74,1.36-2.68,1.17-.57,2.2-1.08,3.21-1.58v-2.47c1.45-.83,2.97-1.7,4.5-2.58-.34-.49-.59-.86-.81-1.18.3-.8.57-1.48.96-2.51-1.34.38-2.21.83-3.09.83-4.25.01-7.84,2.05-11.58,3.51-.75,1.58-1.44,3.03-2.05,4.32.4,1.11.71,1.99,1.08,3.05-.93.73-1.79,1.41-2.41,1.89.34.99.57,1.64.79,2.3-.21-.15-.43-.3-.64-.45-.5.98-.99,1.97-1.43,2.84-1.2-1.24-2.11-2.18-3-3.09.2-.39.52-1,.8-1.55.4-.09.73-.16.93-.21v-5.19c-1.18,1.48-1.87,2.34-2.51,3.15-.85-.33-1.55-.6-2.43-.95l2.41,2.41c-1.07,1.49-1.9,2.65-2.66,3.71h-3.5c-.5-.92-.99-1.82-1.32-2.43.41-2.28,1.28-4.04,3.36-4.64v-1.65c-2.4-.32-4.65-.61-6.97-.92-.63-.74-1.28-1.45-1.87-2.22-2.51-3.27-3.82-7.19-5.04-10.98-.81-2.5-2.11-4.12-3.55-5.53-1.6-.24-2.13.43-2.67,1.36-.85,1.5-1.04,2.94-.14,4.35l-1.1,1.1c-.65-1.16-1.27-2.26-1.94-3.47,1.12-1.61.78-3.89,3.11-4.9h3.18c1.53,1.53,2.93,2.93,4.37,4.38.03.37-.04.91.15,1.32.92,1.99,2.35,3.86,2.76,5.94.61,3.03,2.15,5.2,3.73,6.58,2.99,1.41,5.25,1.86,7.34-.39h2.21c-.21-1.1-.41-2.11-.64-3.31.87-.7,1.73-1.4,2.52-2.02-.37-2.19.15-3.94,1.29-5.4-1.55-1.96.25-3.11.74-4.58-1.38-1.25-.29-2.96-.66-4.28.84-.58,1.55-1.07,2.39-1.65-.7-.29-1.29-.34-1.52-.66-1.21-1.71-2.53-3.33-3.14-5.43-.35-1.19-1.06-2.4-1.94-3.28-1.98-1.97-4.09-3.83-6.29-5.55-1.07-.84-2.44-1.28-3.68-1.91-.95.42-1.81,1.35-2.94.46-.02-.24.02-.51-.07-.71-.09-.19-.32-.31-.55-.52-5.15,2.23-9.7,5.37-13.49,9.2-.96,3.35-1.57,6.48-.21,9.68.23.55.04,1.53-.33,2.05-1.1,1.56-1.2,3.31-1.12,4.76-2.69,3.62-5.16,6.95-7.4,9.97.33,1.23.56,2.1.84,3.13-1.93,1-3.67,1.91-4.93,2.56-.82,1.13-1.34,1.85-1.76,2.42.46,1.06.85,2.03,1.29,2.96.3.63.56,1.64,1.02,1.75,1.74.44,1.5,2.16,2.37,3.22,2.16-.4,3.81.66,5.13,2.12,1.69-1.17,3.23-.69,4.76-.12l.82-.82c-.52-.72-1.04-1.44-1.53-2.11,1.33-1.84,2.67,1.11,3.91-.26.11-1.54-2.89-2.18-.96-4.28.73.55,1.44,1.15,2.23,1.64.2.12.63-.16.86-.22-.55-.8-1.06-1.54-2.02-2.94,1.92.4,3.08.65,4.24.89.09-.16.17-.31.26-.47-.87-.63-1.74-1.26-2.09-1.51.35-.87.59-1.46.88-2.17,1.02.86,1.63,1.38,2.22,1.88.38-.35.74-.69,1.11-1.03-1.43-.76-1.65-1-2.33-2.79,2.24.91,4.81.12,6.14,2.41-3.49,3.82-6.78,7.42-9.9,10.84.1.88.15,1.34.26,2.27,2.35-1.13,4.69-1.18,6.97-1.73,2.39-.57,4.99-.22,7.07-1.95-.8-1.59-1.39-3.28-2.42-4.63-.73-.96-.46-1.85-.55-2.78-.02-.16.27-.35.39-.51h1.44c1.15,2.56,2.29,5.09,3.36,7.46h2.7l.03.06ZM210.84,21.03s.1-.1.15-.15c-.17-.2-.35-.41-.52-.61l-.24.24c.2.17.41.35.68.44.25,1.27.4,2.57.77,3.8.77,2.56,1.25,5.18,2.07,7.73,1.17,3.68,2.42,7.39,2.59,11.28.53,1.16.95,2.35,1.3,3.56,1.08,3.8,1.44,7.8,3.01,11.46,1.38,3.22.94,6.97,2.96,9.99.11.17-.04.5.02.74.74,2.81,1.52,5.61,2.23,8.42.54,2.15,1.04,4.31,1.49,6.48.19.92-.14,1.83.64,2.76.6.71.36,1.98.71,3.03.53,1.61,1.36,3.36.94,5.25-.18.79-.03,1.66-.03,2.06,5,2.96,9.33,6.13,14.21,7.98v2.33c-2.66-.16-4.36-2.21-6.55-3.24-2.27-1.07-4.14-2.92-6.73-3.7.59,5.6,1.6,10.91,1.29,16.07.94,1.62,2.23,1.26,3.22,1.21.69-.81,1.26-2.06,1.88-2.09,1.64-.07,2.29-1.18,3.16-2.11-.17-1.84.4-3.35,1.72-4.59.67-.13,1.36-.26,2.02-.38v-1.26c1.18-1.49,2.2-3.17,4.28-3.56.81.5,1.61,1,2.48,1.55v3.35h3.24c-.39-1.48-.85-2.69-.99-3.94-.16-1.48-.02-2.99-.06-4.48,0-.18-.4-.33-.47-.54-.14-.45-.41-1.09-.22-1.36,1.11-1.56.8-3.31.65-4.95-.15-1.76.71-3.28.78-4.93.11-2.49-.03-4.99.04-7.48.09-3.14-.62-6.13-1.51-9.1-.37-1.24-.7-2.46-.85-3.79-.19-1.67-.91-3.38-1.8-4.82-.68-1.1-1.31-2.18-1.88-3.35-2.22-4.54-4.86-8.88-8.15-12.68-4.56-5.28-9.79-9.94-15.51-13.95-3.79-2.66-6.54-6.34-9.94-9.36-.35-1.71-1.71-2.53-3.08-3.31Zm-84.35,177.79c-.7.29-1.38.38-1.74.76-4.89,5.1-10.41,9.45-15.99,13.75-1.91,1.47-3.77,2.61-6.26,3.04-1.38.24-2.9.22-4.17.7-2.98,1.13-6,1.48-9.13,1.42-1.49-.03-2.99-.05-4.48,0-2.07.09-3.87-.72-5.8-1.34-3.83-1.23-6.42-4.09-9.21-6.54-2.64-2.32-5.35-4.28-8.56-5.61-1.27-.53-2.49-1.18-4.36-2.08-.15-.13-.9-.75-1.45-1.21-.13-1.56.27-2.32,1.62-2.72,2.86-.85,5.66-1.72,8.74-1.5,2.73.19,5.48-.07,8.22.07,2.22.12,4.35.98,6.5,1.34,4.41.74,8.33,3.35,12.94,3.13.3,0,.61.37.93.42,1.98.31,3.9,1.55,5.89.97,1.03-.3,2-.59,3.08-.69,1.16-.11,2.28-.57,3.43-.7,4.48-.52,8.68-1.84,12.32-4.53,2.04-1.51,3.91-3.26,5.14-5.74-1.76,1.17-3.92.02-5.6,1.27-4.29-.36-8.46,1.27-12.77.78-1.6-.18-3.24-.03-4.86-.03-.62,0-1.37.22-1.84-.05-2.06-1.16-4.6-.94-6.55-2.23-1.95-1.29-4.31-1.79-6.05-3.51-1.06-1.05-2.48-1.73-3.74-2.59-1.63,2-1.75,4.41-1.09,6.31.61,1.74.36,3.26.66,5.1-.97-.07-1.65-.11-2.6-.18.46-.93.76-1.54,1.05-2.13-.26-.54-.66-1.04-.73-1.59-.15-1.18.11-2.34-.7-3.48-.34-.48.25-1.58.29-2.4.1-2.24,2.25-4.36.38-6.71.27-1.29.04-2.56.38-3.93.7-2.79,2.47-4.6,4.52-6.57h1.99c2.01-3.07,4.78-5,6.67-7.22,1.11-.31,1.87-.53,2.68-.76.64.33,1.43.73,2.39,1.23,2.01-2.94,4-5.87,6-8.8.48-1.81-.92-3.06-1.42-4.6-.53-1.63-.44-3.51-2.27-4.75-1.09.77-2.13,1.52-3.18,2.26-1.16.82-2.21,1.95-3.5,2.37-2.82.92-5.64.45-8.49-.44-3-.94-6.07-1.86-9.21-1.74-2.31,5.47-5.89,9.88-9.64,14.13-2.39,2.7-5.11,5.11-7.62,7.71-.82.85-1.43,1.89-2.13,2.85-.11.15-.17.34-.27.55.73.7,1.45,1.38,1.99,1.91v3.2c-.89,1.44-2.1.99-3.18,1.07-.52-.5-1.06-1-1.41-1.34h-1.89c-.63,2.73.82,4.68,1.92,6.77,1.28,2.43,1.16,4.88.43,7.58-.85,3.13-2.48,5.96-3.23,9.33,1.14.8,2.26,1.73,3.5,2.42,2.33,1.29,4.47,2.75,6.26,4.76,1.4,1.58,2.98,3.01,4.47,4.51,3.06,3.05,7,4.6,10.8,6.4,1.63.77,3.27.6,4.94.74,1.65.14,3.28.68,4.92.68,3.64,0,7.28.29,10.92-.63,2.93-.74,5.93-1.24,8.66-2.57,4.15-2.02,7.78-4.84,11.41-7.65,1.23-.95,2.9-1.69,3.56-2.95,1.5-2.85,3.89-5.04,5.3-7.92.05.05.1.1.15.15.2-.17.41-.35.61-.52-.08-.08-.16-.16-.24-.24-.17.2-.35.41-.33.47l.03.04Zm120.86-73.7c1.84,1.83,3.49,3.5,5.13,5.12h3.14c.35.58.71,1.16,1.06,1.74-2.14,1.44-3.85-.5-5.68-.3-.91-.83-1.79-1.64-2.72-2.48-.81.72-1.42,1.28-1.82,1.64h-2.51c-.95-1.13-1.87-2.23-3.03-3.62h-2.27c-.53-1.06-1.25-2.06-1.5-3.15-.26-1.14-.06-2.39-.06-3.48h-3.96c.33,3.88.13,7.76,1.12,11.3.93,3.3.9,6.74,2.05,9.97.47,1.31.59,2.76.77,4.16.3,2.26.19,4.62.83,6.77,1.13,3.75,1.28,7.67,2.27,11.4.47,1.8-.03,3.9.8,5.24,1.76,2.83,1.26,5.98,1.93,8.91.69,3.08,1.03,6.3,1.68,9.43.19.91.61,1.78.71,2.69.13,1.11.03,2.24.03,3.36,0,.37-.15.92.04,1.09,1.27,1.12.41,2.58.73,3.83.32,1.26.76,2.44.78,3.81.03,1.89,1.1,3.7.69,5.67,1.22,1.22.34,2.87.82,4.15.53,1.41.91,2.79.63,4.19-.32,1.58.93,2.73.79,4.19-.21,2.2.16,4.32.76,6.42.22.78.78,1.58.69,2.3-.26,2.01.75,3.66,1.07,5.83.76-2.15.9-4.09,1.4-5.83.53-1.86.81-3.84,1.56-5.68.74-1.81.74-3.92,1.44-5.76.7-1.83,1.33-3.71,1.95-5.54,2.13-6.22,4.08-12.5,6.45-18.64,2.03-5.25,3.25-10.73,4.02-16.25.56-4.03.15-8.21.08-12.32-.02-.9-.55-1.77-.69-2.68-.14-.97.18-2.08-.18-2.92-1.6-3.71-2.77-7.76-6.76-9.86-.53-.28-.92-.82-1.18-1.06-.31-3.4-.59-6.53-.87-9.67-.01-.12-.03-.24-.07-.35-1.24-3.51-2.05-7.14-3.03-10.72-.91-3.31-2.78-6.31-6.24-6.78-2.1,1.05-3.76,1.87-6,2.99-.29.67-.84,1.94-1.35,3.13,2.66,2.13,3.36,1.81,4.52-2.23h-.02Zm-16.96-6.44c-1.12-6.6-1.04-12.8-2.51-19.12-2.03-1.54-4.29-3.3-6.61-4.99-.64-.47-1.45-1.01-2.18-.99-2.81.06-5.54-.35-8.3-.74-2.07-.29-4.21-.06-5.97-.06-5.23-3.98-10.65-6.79-16.6-8.16-.75.39-1.37.7-1.98,1.02.31,2.33-1.62,2.92-3.08,3.95v2.77c-.52.47-1.34,1.21-2.27,2.06.26.74.58,1.6,1.08,3-.88.88-1.88,1.88-2.72,2.72,1.32.19,1.27,1.65,1.68,2.68.14.54-1.09.47-.34,1.2,2.12.06,1.52-2.02,2.23-3,.33.02.57.03.81.05.16,1.23-.02,2.66-.4,3.67-.06.17.14.43.24.71h.91c.39-1.05.75-2.02,1.05-2.81,2.57.69,1.17,2.35,1.57,3.83.66-1.09,1.31-2.18,2.11-3.5.61.54,1.1.98,1.47,1.3-.49.96-.89,1.74-1.36,2.66h1.98c.16-.42.33-.85.55-1.44.63.06,1.29.12,2.15.2-.34.84-.57,1.4-1.1,2.69,1.36-.98,2.1-1.51,2.18-1.56.75.22,1.39.4,2.12.62-.58.75-.86,1.11-1.14,1.47.35.35.7.71,1.1,1.1.24-.52.48-1.02.64-1.37h1.92c-.28,1.21-.54,2.29-.86,3.66,1.17-.7,1.98-1.18,3.55-2.11-.6,1.55-.88,2.26-1.23,3.16.59.41,1.22.85,1.78,1.24.63-.91,1.12-1.63,1.66-2.42.55.64.93,1.08,1.25,1.45-.42.72-.7,1.22-1.08,1.88.73.5,1.36.94,2.23,1.54.16-1.05.27-1.74.38-2.49h2.08v3.59h1.26c.21-.8.4-1.53.71-2.73.92,1.24,1.52,2.04,1.97,2.66h2.15c-.37-.44-.58-.69-.92-1.09.65-.38,1.3-.74,2.1-1.21.16,1.03.26,1.71.36,2.34h2.67c.14-.78.25-1.46.38-2.2.48.08.82.14,1.13.19.14.78.27,1.46.38,2.1h1.67c.31-.55.61-1.09,1.04-1.87.78,1.08,1.33,1.85,2.08,2.89.17-1.09.27-1.78.43-2.79,1.17.74,2.12,1.33,3.57,2.25h.03Zm-72.29,69.99c-2.73,1.7-4.98,3.98-8.21,4.31-2.9-1.46-5.27-.64-7.07,2.32-2.36,3.89-3.78,8.2-5.07,12.46-.7,2.31-1.15,4.79-2.14,6.97-1,2.19-1.47,4.69-3.21,6.54-.12.13.16.64.32,1.23,6.36-4.63,12.19-9.69,19.06-13.72,3.56-.09,7.23-2.35,11.25-1.29v.93c-1.43.35-2.89.98-4.36,1.01-2.93.05-5.57.9-8.01,2.37-2.31,1.39-4.58,2.87-6.73,4.49-2.78,2.1-5.28,4.59-8.18,6.49-1.25.82-2.46,2.67-4.49,1.52-.77.92-1.45,1.74-2.45,2.95h4.48c.93-.51,1.69-.85,2.37-1.31,1.76-1.19,3.53-2.37,5.21-3.66,2.66-2.06,5.11-4.4,7.88-6.28,3.45-2.34,6.97-4.73,11.36-5.01,1.76-1.46,4.02-.26,5.94-.97-.11-2.27-1.06-4.06-2.11-6.22-.63.58-.93,1.11-1.31,1.17-2.13.32-4.27.52-6.41.79-1.52.19-2.92,1.13-4.56.78-.23-.05-.54.5-.86.57-3.86.79-7.23,2.51-10.28,4.99-.48.39-1.42.21-2.84.37.91-1.14,1.25-1.83,1.81-2.2,1.93-1.3,3.8-2.9,5.95-3.64,3.95-1.35,8.03-2.47,12.18-3.04,2.08-.28,4.19-.21,6.09-1.21-1.77-4.31-3.51-8.58-5.62-13.72h.01Zm-43.02-17.71c-6.59-.24-11.88-3.27-16.87-6.89-3.28,2.87-6.26,5.97-7.75,10.55.7,1.02,1.56,2.27,2.39,3.49,2.7-.17,5.19.18,7.71-.71,2.49-.88,5.11-1.61,7.65-2.14,3.01-.62,4.33-3.26,6.87-4.31h0Zm149.12-48.69c-2.19-2.75-3.53-3.46-7.35-4.04-1.38-1.77-3.58-2.9-4.45-5.31-1.93.64-2.4-.88-2.95-2.01h-2.58c-.05.98-.1,1.82-.15,2.79-.97.89-1.97,1.8-2.88,2.63v3.84c.13-.12.26-.24.38-.36.24.59.48,1.18.73,1.8,1.58-1.02,2.75-1.78,4.09-2.65,1.53-.12,2.91.56,4.31,1.64,2.56,1.97,5.38,3.45,8.62,2.8.76-.39,1.38-.71,2.22-1.14h.01Zm-183.52,123.35c-4.51-2.61-9.03-5.22-13.47-7.79-1.69,1.39-1.42,3.12-1.42,4.77v4.89c2.75.35,5.25.31,7.47,1.07,1.43.49,3.05.07,4.13.77,1.72,1.12,3.24.3,5.75.66-1.57-1.39-2.44-2.17-3.28-2.91.35-.63.57-1.01.83-1.47h-.01Zm-22.4-43.84c2.55.4,4.66,1.79,6.72,3.28,2.2,1.58,4.99,2.73,6.49,4.81,2.95,4.08,7.2,5.4,11.54,6.3,3.06.64,6.37.12,9.56.12-.53-.87-1.21-1.16-1.87-1.5-2.07-1.07-4.48-.96-6.59-2.1-2-1.07-4.17-1.91-6.29-2.78-2.55-1.04-4.99-2.51-7.19-4.19-1.91-1.46-3.88-2.49-6.18-3.13-1.87-.52-3.66-1.35-5.5-2-.15-.05-.41.18-.62.28-.02.24-.05.48-.09.91h.02Zm74.02-28.9h-10.49c-3.13,1.96-6.07,3.8-8.98,5.62.44,1.37,1.69,2.52.13,3.71,0,0,.12.17.39.55,6.6-1.94,13.52-3.32,19.04-7.89-.03-.78-.06-1.26-.09-1.99Zm-103.42,4.4c-4.24-6.13-9.36-10.76-13.63-16.48-1.77.35-3.68.74-6.29,1.26,5.32,5.32,10.28,10.28,15.22,15.23h4.7Zm79.83-100.81c-.43.39-.94.92-1.53,1.36-.61.46-1.28.83-1.97,1.26,1.49,2.06,1.35,4.39,2.74,6.28,1.46,2,3.47,2.65,5.17,3.42.75-.57,1.42-1.06,2.08-1.56l-.75-.75c.52-.58,1.04-1.16,1.77-1.97-1.98-1.29-.68-3.15-1.14-4.79-1.31-2.47-4.12-2.32-6.37-3.26h0Zm26.37,80.73c-3.52,4.38-6.95,8.64-10.55,13.13,3.22.79,6.31-.43,9.19,1.2,2.57-4.7,3.18-9.32,1.36-14.33Zm-27.65-88.57c-2.34,2.33-1.58,5.2-2.65,8.14,1.1-.76,1.84-1.27,2.92-2.01.88.22,2.12.53,2.5.62,1.04-.43,1.63-.67,2.04-.83-.36-1.78-.65-3.24-.93-4.63,1.01-.67,1.75-1.16,2.85-1.89-2.33-1.45-3.1-4.01-5.74-5.23-1.21,1.38-2.46,2.8-3.66,4.17.81.5,1.5.93,2.68,1.66h0Zm-49,9.02c2.6.82,4.94-.35,7.04-1.45,6.41-3.34,12.04-7.74,16.82-13.08-.05-.65-.09-1.12-.13-1.66-4.12,2.56-7.26,6.1-11.5,8.4-4.14,2.24-7.92,5.21-12.36,6.99.04.27.08.5.12.8h0Zm37.29-14.77c-2.54-.27-5.16.45-8.36,2.42,1.1.38,1.71.59,2.32.81,1.52.6,3.31.24,4.91-.97.74-.56,1.53-1.31,2.37-1.43.95-.13,1.98.36,2.91.57,4.16-3.64,5.97-8.87,9.29-13.04.12-.15.04-.49.01-.73-.04-.34-.11-.68-.18-1.07-2.35,1.44-3.3,3.75-4.29,6-1.22,2.74-3.2,4.67-5.87,5.95-.94.45-1.88.9-3.11,1.49Zm39.28,110.85c-.97,2.45-2.35,4.27-4.93,5.17-2.8.98-5.52,2.2-8.23,3.42-.96.43-2.5-.1-2.8,1.54,2.31,1.04,4.41-.54,6.65-.53,2.28,0,4.24-1,6.19-2.08,1.88-1.03,3.87-1.85,5.57-2.65.72-2.58-2.33-2.88-2.45-4.88h0Zm15.93,1.32v-5.01c-.46-.12-.83-.16-1.13-.31-.4-.2-.76-.5-.86-.57-2.51,1.43-4.73,2.7-7.22,4.12.7,1.49,1.34,2.84,1.93,4.08h4.07c1.13-.81,2.29-1.64,3.22-2.32h0ZM68.24,57.35c-.76,3.84,1.34,6.34,2.97,8.96.21.34,1.11.25,1.76.37,1.08-2.17,4.32-2.22,4.66-5.09-.7-1.28-2.1-.69-3.18-1.05-1.06-.36-1.86-1.42-2.89-1.97-.98-.52-2.09-.78-3.32-1.21h0Zm-25.76,84.83v-3.66c-7.04-1.81-13.9-.64-20.95.13.53.53.88.88,1.36,1.36,1.5-1.22,3.37-.96,5.11-.75.53.07,1.16.7,1.93.65,1.68-.1,3.28.34,4.91.64,1.75.32,3.39.7,5.02,1.41.72.31,1.64.15,2.61.21h0Zm3.87-87.31c3.49,4.99,6.84,9.78,10.3,14.73.35-.05.93-.13,1.51-.25.07-.01.11-.19.19-.35-2.28-5.5-5.62-10.38-9.17-14.9-.94.25-1.8.49-2.82.77h0Zm20.88-1.93c-2.97-4.16-4.38-8.98-7.66-12.42-1.76.9-1.19,2.2-1.18,2.71,2.73,4.9,5.17,9.26,7.65,13.71.45-.42.79-.74,1.19-1.12v-2.88Zm80.03,129.63c1.56-.73,2.75-1.04,3.61-1.75.88-.73,1.36-1.93,2.17-2.78.79-.84,1.62-1.84,1.38-2.85-.26-1.1,1.37-2.1,0-3.08h-.94c-.08.91-.17,1.84-.25,2.7l-3.98,3.99c-1.43.27-2.86.87-4.18.69-1.29-.17-2.48-1.14-3.65-1.73-.08-.39-.15-.73-.25-1.22-.51.11-.91.2-1.46.31,1.49,2.1,2.85,4.01,4.07,5.73h3.48,0ZM56.69,44.36c-.96-.27-1.81-.51-2.72-.76-.32.37-.7.81-1.07,1.24,1.16,1.38,2.39,2.46,3.12,3.8,1.44,2.64,3,5.23,4.39,7.88.93,1.78,2.19,2.05,4.26,2.97-1.6-3.08-2.85-5.49-4.12-7.89-1.29-2.45-2.61-4.88-3.87-7.23h.01Zm-15.77,103.53c.39-1.25.95-2.15.85-2.96-.1-.72-.96-1.07-1.88-1.35-3.84-1.15-7.75-1.78-11.72-2.19-.63-.06-1.23-.35-1.33-.38-.68.3-1.11.49-1.4.62,1.04.75,1.88,1.37,2.84,2.06h2.8c-.04.11-.08.23-.12.34,3.09,1.2,6.19,2.4,9.96,3.86h0Zm-12.53,21.06c-3.53-3.87-7-7.64-10.43-11.45-.37-.41-.46-1.08-.83-1.49-.25-.28-.76-.31-1.35-.52v2.86c4.75,4.36,8.1,10.11,12.95,14.56.02-.72-.24-1.29-.32-1.88-.09-.73-.02-1.48-.02-2.07h0Zm15.87-35.54c-3.41-.59-6.37-1.41-9.71-.37-3.01.93-6.2,1.3-9.59,2.94,2.22.37,3.83.31,5.09-.59.63.4,1.02.66,1.14.73,4.21-1.59,8.11-.35,11.88.07.42-.98.74-1.71,1.2-2.78h-.01Zm25.22-77.34c2.09-.04,3.34.76,4.52,1.82.33.29.95.26,1.73.45-2.21-3.89-4.4-7.31-6.13-10.95-1.03-2.16-2.56-2.32-4.63-2.58,1.07,2.03,1.91,3.82,2.94,5.39,1.2,1.81,1.79,3.56,1.56,5.88h0ZM141.82,12.78c-5.15-.38-9.95.36-14.67,1.93,1.58.25,3.58-.36,4.64.39,1.73,1.21,3.51.2,5.24.97,1.64.73,3.78.35,5.68.46.12-2.3.09-2.29-.89-3.75Zm-60.2,118.97c4.29-.13,8.02-1.72,11.89-3.31-.07-.69-.14-1.35-.22-2.16-4.03,1.12-7.84,1.89-11.67,1.75v3.72Zm64.62-15.02c.44-.92.83-1.74,1.2-2.51-2.72-2.72-5.34-5.33-8.07-8.06-.42,1.1-.82,2.16-1.3,3.42,2.78,2.43,5.47,4.78,8.17,7.15Zm-68.58-63.87c-1.8-3.72-3.56-7.35-5.41-11.17-1.48,2.17-1.34,2.22-.67,4.16,1.21,3.48,3.85,6.27,4.75,9.89.06.22.75.29,1.33.5,0,0,0-3.38,0-3.38Zm18.26,19.2c2.13,1.62,4.2,3.2,6.34,4.83.46-1.75.97-3.68,1.72-6.52-.54-.27-1.56-.76-2.33-1.14.35-1.09.58-1.78.8-2.47-1.26.93-2.6,1.63-3.19,3.27.57.16,1.11.16,1.38.43.33.34,1.1.52.79,1.54-1.3-.27-2.53-.53-3.8-.8-.52.27-1.13.58-1.71.87h0Zm61.67,48.57c-1.07-3.36-.18-6.6-.65-9.76-1.45-.32-2.73-.36-3.3.5-.44,1.77-.75,3.01-1.08,4.35,2.17.95,2.47,3.93,5.03,4.91Zm-22.35-102.98c-5.98-2.06-11.69-1.55-17.15,1.54.15.42.23.64.47,1.3,3.58-2.63,7.98-1.04,11.85-2.53,1.69,1.91,3.19-.37,4.83-.31ZM29.01,104.19c-1.38.13-2.56-.29-3.95.36-1.74.81-3.92.72-5.92.95-1.65.18-3.33-.31-4.94.69-.51.31-1.56-.24-2.36-.41-2.18-.46-4.35-.4-6.52.23,1.89.23,3.74.49,5.59.9,2.01.45,4.22-.09,6.3.16,1.67.2,2.98-.96,4.53-.79,2.72.29,5.06-.77,7.28-2.08h-.01Zm234.45,4.4c-.94,2.57,1.28,4.78.43,7.5,3.13-.54,4.43-2.17,4.69-5.18-1.63-.74-3.34-1.52-5.13-2.33h.01ZM130.76,11.22c-1.21,0-2.43.14-3.62-.03-3.2-.44-5.87,1.48-8.89,1.86-.73.09-1.43.76-2.03,1.28-.26.22-.23.77-.48,1.72,1.61-.76,2.72-1.28,3.91-1.83,3.91.41,7.28-2.01,11.12-3h0Zm139.86,103.52c-2.21,1.35-4.35,2.67-6.63,4.06,1.13.8,2.27,1.61,3.35,2.37,1.48-1.14,2.88-2.22,4.18-3.23-.09-1.29.33-2.48-.89-3.21h0Zm-205.98-36.67c2.85,4.65,5.26,8.58,7.7,12.56.36-.16.66-.3,1.15-.52-.33-.56-.61-1.04-.85-1.44.27-.42.52-.8.87-1.34-1.54-1.2-3.25-2.04-4-3.88-.34-.85-1.18-1.52-1.43-2.37-.42-1.46-1.4-2.08-3.45-3.01h0Zm197.5,47.6c1.89,1.04,3.5,1.86,5.34,1.44l2.41-2.41v-2.57c-2.52,1.15-4.94,2.26-7.75,3.55h0Zm5.09,4.05c-2.47-.81-4.68-1.53-7.21-2.35.45,1.31.81,2.38,1.11,3.28,1.76.57,3.36,1.09,5.24,1.7.27-.83.55-1.68.86-2.62h0Zm-118.96,54.83c2.88.65,4.13-.98,5.64-1.99.35-.24,2.82-3.35,3.15-3.97,1.05-1.91,1.39-3.52,1.03-4.81-2.15,4.24-4.09,8.72-9.81,10.77h0ZM62.27,63.95c-.29-.48-.51-.88-.75-1.26-1.06-1.66-2.47-3.2-3.12-5.01-.87-2.42-2.59-4.35-3.46-6.74-.16-.43-1.03-.59-1.77-.97,2.73,5.04,5.28,9.74,7.85,14.49.44-.18.75-.31,1.25-.51ZM138.75,9.61c-2.43-1.78-4.64-1.36-6.77-1.38-3.2-.02-3.2,0-6.42,1.38h13.19Zm-59.8,51.53c1.25-1.12,1.85-1.66,2.54-2.27,2.86,1.64,5.56,1.05,8.39-.22-1.2-.35-2.2-.58-3.21.14-.78.56-1.47.11-2.3-.08-2.29-.52-3.69-1.66-4.16-3.96-.36,1.83-.72,3.67-1.26,6.38h0Zm31.61,118.22c-1.95,1.06-3.48,1.86-4.98,2.75-.17.1-.08.64-.13,1.24.95,0,2.01-.32,2.57.07.92.65,1.63.99,2.54.39v-4.45h0Zm23.25-150.82c-.98-1.7-1.82-3.13-2.59-4.46h-4.68c2.81,1.52,4.35,3.81,7.26,4.46h0Zm-50.86,37.03c.69,2.11,1.84,3.79,3.87,4.75.13.06.39-.18.92-.45-1.18-1.87-2.34-3.7-3.55-5.62-.57.61-.9.96-1.24,1.32Zm47.9,120.37c3.37.55,6.2-.85,9.1-2.3-.17-.44-.29-.76-.49-1.31-2.65,1.9-5.92,2-8.61,3.61ZM90.57,52.19c-.16-.21-.33-.43-.49-.64-2.55,1.19-5.1,2.37-8.05,3.74h3.78c1.54-1,3.15-2.05,4.76-3.1Zm47.05-26.62h-3.13c1.7,2.09,3.45,3.36,6.26,2.61-1.03-.86-1.87-1.56-3.13-2.61h0ZM45.19,191.53c.56.74.89,2.34,2.59,2.95v-3.39c-.45-.43-.87-.83-1.68-1.6-.36.82-.62,1.4-.9,2.04h0Zm49.69,68.4c-.13-.16-.26-.31-.39-.47-1.15.67-2.29,1.35-3.47,2.04.55,1.06.95,1.82,1.48,2.84.87-1.61,1.63-3.01,2.38-4.41Zm-18.61-187.53c1.11,1.1,2.01,1.99,2.91,2.88.17-.18.49-.52.67-.72-.88-1.21-1.69-2.36-2.55-3.46-.09-.12-.46-.02-.94-.02-.04.59-.08,1.16-.1,1.31h.01Zm28.38,54.88c-1.58-.29-2.58.1-2.92,1.34-.28,1,.14,1.84,1.42,2.26.47-1.13.94-2.27,1.5-3.61h0Zm135.27-2.16c.87-.5,1.71-.98,3.09-1.77-.95-.35-1.34-.46-1.69-.63-.36-.18-.68-.42-.53-.33-.74.74-1.3,1.29-1.85,1.83.17.15.52.48.98.9h0Zm-182.05-8.52c-.34,1.46-1.85,2.49-.59,3.94,2.31-1.55,2.31-1.57.59-3.94Zm-19.65,52.89c-.2-.19-.39-.37-.59-.56-1.09.64-2.18,1.28-3.95,2.31h3.63c.33-.63.62-1.19.91-1.76h0Zm27.8-43.69c-.07,1.84.36,2.94,1.05,2.76.87-.76,1.42-1.6.67-2.76h-1.73.01Zm7.79-45.77c1.1-2.11-1.59-2.82-1.51-4.84-.74.49-1.08.71-1.51.99,1.1,1.4,2.04,2.61,3.02,3.85Zm64.04-61.09c-.85,1.33-2.75-.06-4.18,1.01,5.4.48,6.62.44,6.83-.19-.85-.27-1.72-.54-2.65-.83h0ZM62.68,124.98v-3.47c-.87,1.36-2.22,1.66-2.11,3.36.67.04,1.33.07,2.11.12h0Zm124.84-41.93v-2.11h-2.09c.07.81.13,1.47.19,2.11h1.9Zm-69.92,39.3c-2.14-.23-2.31,0-2.17,2.54h.96c.19-.48.34-.9.53-1.31.19-.4.43-.78.68-1.23Zm-22.38,6.03c2.06-1.07,2.67-2.33,1.82-3.76-.53,1.1-.98,2.03-1.82,3.76Zm14.57-28.35c.67-.61,1.57-1.44.33-3.03-.64.58-1.26,1.14-2.15,1.94.78.46,1.3.77,1.82,1.08h0Zm-.78-8.05c.21,1.09.32,1.72.55,2.92.96-1.05,1.53-1.67,2.48-2.71-1.27-.09-1.94-.14-3.03-.22h0Zm27.4.97c.69.93,1.11,1.51,1.57,2.13.67-.81,1.45-1.28,1.93-2.34-1.26.08-2.16.13-3.49.21h0Zm19.9,75.78c-.89-.65-1.35-1.97-3.07-1.83.69,1.16,1.25,2.09,1.83,3.07l1.24-1.24Zm-84.71-41.36c.4,1.34.8,2.23,2.29,2.03v-2.24c-.81.07-1.47.13-2.29.21Zm30.94-11.92c1.53-.49,2.47-.94,1.88-2.61-1.22.37-2.12.76-1.88,2.61Zm24.93-2.84c-1.78.63-2.66,1.02-2.57,2.56,1.62.21,2.01-.68,2.57-2.56Zm-50.37,17.3c.27.27.62.62,1.05,1.05.44-.52.87-1.03,1.44-1.71-.61-.53-1.04-.9-1.48-1.29-.35.68-.68,1.3-1.01,1.95Zm106.78-44.82c-1.53.49-2.47.94-1.88,2.61,1.22-.37,2.12-.76,1.88-2.61Zm-40.36-59.52h-2.89c.66,1.42,1.61,1.64,2.89,1.19v-1.19Zm-33.08,100.21c-.75.66-1.39,1.22-2.04,1.78l1.1,1.1c1.05-.65,1.54-1.52.94-2.88Zm-58.49,50.06c.49-.66,1.77-1.05.64-2.42-.59.42-1.18.84-1.79,1.27.47.47.8.8,1.15,1.15Zm68.58-56.35c.16.16.33.32.49.48.61-.58,1.22-1.15,2.09-1.98-.77-.31-1.15-.47-1.55-.63-.38.79-.71,1.46-1.03,2.13Zm118.87.11c.92-.06,2.23.86,2.16-1.24h-2.16v1.24Zm-62.86-22.37c1.27.18,2.29.16,2.91-1.39-1.27-.18-2.29-.16-2.91,1.39Zm69.74,12.28c1.18-.58,1.98-.97,3.18-1.57h-3.48c.1.53.17.87.3,1.57Zm-115.23-1.77c-.99.44-1.72.77-2.49,1.11.08.39.15.72.22,1.11,1.47.15,1.9-.7,2.26-2.22h.01Zm111.65,6.11c.61-.37,1.17-.92,1.68-1.65-.76.07-1.42.13-2.3.21.28.65.44,1.03.62,1.44h0Zm-93.81-3.73h-2.68c.95.71,1.53,1.13,2.33,1.73.15-.74.23-1.15.35-1.73h0Zm-49.37,11.52c.77-.93,1.19-1.45,1.88-2.28-.83-.21-1.29-.32-1.88-.46v2.75h0Zm81.58-31.48c-.95.29-2.29.68-1.13,2.01.4-.72.76-1.37,1.13-2.01Zm-48.85,13.44c.98-.27,2.26-.66,1.15-2-.41.72-.78,1.36-1.15,2Zm44.13,0c.98-.27,2.26-.66,1.15-2-.41.72-.78,1.36-1.15,2Zm-68.5-1.03v2.27c.54-.11.87-.18,1.59-.32-.51-.63-.85-1.04-1.59-1.94h0Zm4.93,36.95c.95-.29,2.29-.68,1.13-2.01-.4.72-.76,1.37-1.13,2.01Zm-56.39,37.27c.85-1.99-.04-1.76-.99-1.59.34.55.63,1.01.99,1.59Zm31.92-131.22c-.12-.65-.18-.98-.27-1.45-.39.6-.7,1.06-.96,1.45,0,0,1.23,0,1.23,0Zm44.58,70.96c-.56.58-.93.96-1.85,1.9,1.26-.27,1.67-.35,2.12-.45-.09-.49-.16-.82-.28-1.45h.01Zm-25.4-7.77c-1.35-.08-1.97.14-1.84.66.25-.09.8-.29,1.84-.66Zm-59.87,62.39c-.57.58-.93.96-1.85,1.9,1.26-.27,1.67-.35,2.12-.45-.09-.49-.16-.82-.28-1.45h0Zm55.61-28.8c.39-.13.96-.3,1.52-.48-.08-.11-.16-.22-.24-.32h-1.29v.81h.01Zm-61.87,28.4c-.08,1.35.14,1.97.66,1.84-.09-.25-.29-.8-.66-1.84ZM90.95,42.48c.08-1.35-.14-1.97-.66-1.84.09.25.29.8.66,1.84Zm46.02,58.66c.03.22.05.43.08.65.41-.1.81-.19,1.22-.29-.02-.12-.04-.24-.06-.36h-1.24Zm122.67,24.69c.02.22.05.43.07.65.41-.1.82-.19,1.22-.29-.02-.12-.04-.24-.06-.36h-1.24,0ZM85.24,63.04v.37h1.5v-.37h-1.5Zm21.07,49.81c.21-.01.43-.03.64-.04-.09-.42-.18-.83-.27-1.25-.12.02-.25.03-.37.05v1.24Zm-6.86,26.58v.25h.75v-.25h-.75Zm162.82,70.83h-.25v.75h.25v-.75Zm-131.65-88.29h-.25v.75h.25v-.75Zm-34.16-61.85v.25h.75v-.25h-.75Zm11.22,61.36v.25h.75v-.25h-.75Zm1-3.99h.25v-.75h-.25v.75Zm1-5.99h-.25v.75h.25v-.75Zm122.18-76.82v.25h.75v-.25h-.75Zm-95.25,72.33h-.25v.75h.25v-.75Zm-22.19-75.32v.25h.75v-.25h-.75Zm-53.36,36.41h-.25v.75h.25v-.75ZM3.71,105.25v-.25h-.75v.25h.75Zm76.05-35.67h-.25v.75h.25v-.75Zm14.21.75h-.25v.75h.25v-.75Zm12.97,43.65v.25h.75v-.25h-.75Z"/>
        <path class="cls-1" d="m219.14,279.09c.25,0,.5-.01.75,0,6.71.46,12.95-1.1,18.68-4.53,2.31-1.38,4.87-1.78,7.33-2.1,4.59-.6,9.26-.84,13.88-.76,3,.05,5.99.85,9.04.71.35-.02.72.62,1.16,1.03-1.59,2.1-3.88,1.32-5.65.91-1.04-.24-2.09-.43-3.13-.47-2.24-.08-4.51-.23-6.72.01-6.18.67-12.31,1.22-18.03,4.33-3.75,2.04-8.03,3.3-12.53,3.14-1.91-.07-3.83-.29-5.71.64-.67.33-1.78-.24-3.23-.49.11-.07-.28.18-.74.47-.89-.2-1.92-.67-2.91-.6-3.55.26-6.73-1.25-10.09-1.88-2.87-.54-5.72-1.19-8.55-1.92-3.52-.92-7.18-1.02-10.71-2.07-1.9-.57-4.27-.55-6.47.36-1.7.7-3.71.65-5.57,1-2.42.46-4.83.95-7.23,1.52-.42.1-.72.65-.87.79.19,1.01.34,1.86.52,2.81-.62,0-1.09.14-1.28-.02-1.01-.91-1.94-1.9-2.75-2.7-2.84.97-5.56,1.93-8.3,2.83-2.11.69-4.36.73-6.51,1.43-2.09.68-4.41.57-6.46,1.58-4.43-.58-8.74,1.09-13.15.7-1.39-.12-2.7-.95-4.18-.7-1.62.28-2.99-.61-4.43-1.06-1.3-.4-2.45-1.29-3.68-1.94-3.09-1.62-6.08-3.39-8.43-6.57.02-.33.07-1.01.17-2.42,3.79,5.05,8.93,7.04,13.84,9.68,3.32-.11,6.72,1.09,10.3.86,3.64-.23,7.26-.74,10.89-.99,3.29-.23,6.61-1.42,9.88-2.24,3.18-.79,6.38-1.97,9.63-3.23-1.41-3.39-.7-6.96-.88-10.18,1.73-3.15,2.37-6.64,5.19-9.15.54.48.98.86,1.44,1.27-.1.19-.19.36-.28.53-.87,1.64-1.9,3.21-2.56,4.92-.7,1.84-1.11,3.79-1.52,5.72-.42,1.96.53,3.74.98,5.95,2.56-.34,5.18-.49,7.7-1.07,2.3-.53,4.52-1.28,6.91-1.37,1.03-.04,2.03-.59,3.06-.69,2.9-.27,5.66.55,8.44,1.24,1.28.32,2.66.22,4,.31-.24-3.84-2.34-7.04-2.75-10.74-.41-3.67-1.9-7.17-2.26-11.01,2.36-.14,2.84,1.81,2.94,2.8.27,2.74,1.48,5.21,1.72,7.96.19,2.14,1.25,4.2,1.73,6.36.38,1.7.89,3.37,1.42,5.33,4.75.84,9.48,2.63,14.61,2.78-1.61-.67-3.33-1.11-3.72-3.29,1.74-.73,2.93.26,4.29,1.2,1.73.28,3.77-.57,5.44.72.83-.24,1.59-.61,2.38-.66,1.61-.1,3.25-.14,4.86,0,3.2.27,5.64-1.28,8.15-2.94,2.34-1.55,4.12-3.69,5.66-5.87,1.63-2.3,3.41-4.96,1.49-8.11-.17-.27,0-.74-.03-1.11-.03-.22-.18-.42-.28-.63-5.3-4.09-12.45-2.31-14.61,2.53-.32,2.76.05,5.24,3.92,6.34h3.18c.74-.82,1.58-1.73,2.57-2.83-.05-.31-.08-.91-.25-1.47-.14-.47-.44-.9-.59-1.19-1.61.88-2.72,1.48-4.22,2.3-.1-1.17-.16-1.84-.23-2.58,1.11-.64,2.12-1.22,3.07-1.77,2.47.39,3.98,1.64,4.48,4.25-.66,2.54-2.47,4.31-5.18,5.55h-3.78c-1.37-1.18-2.92-2.52-4.36-3.77-.46-2.45-2.08-4.67-.24-7.03,1.17-1.1,2.35-2.21,3.61-3.4,1.62.07,3.21-1.09,5.11-.81,1.7.25,3.47.05,5.05.05,1.41.9,2.69,1.71,4.21,2.67,1.4,3.48.97,7.25.04,10.77-1.56,1.96-2.76,4.01-4.46,5.49-3.58,3.1-7.34,6.08-12.55,5.79-.59-.03-1.2.24-1.8.37.03.12.06.24.09.64-1.24-.42-2.47-.42-3.68.28,1.23,0,2.45,0,3.68-.56h.05Zm-9.47,0h.25v-.75h-.25v.75Z"/>
        <path class="cls-1" d="m33.98,299.3c2.77,0,5.62-.08,8.47.03,1.52.06,3.03.54,4.55.69,1.54.16,3.17-.34,4.56.76.08.06.24,0,.37,0,3.51.25,7.07.23,10.52.82,3.46.59,7.03.73,10.35,2.04.43.17.96.07,1.44.13,2.14.24,4.35.25,6.4.82,1.91.53,4.01.24,5.78,1.39.35.23.98.08,1.47.02,1.6-.19,3.05.31,4.56.71,1.47.4,3.19-.5,4.55.78.07.06.24.03.37,0,3.45-.57,6.74.75,10.16.84,3.51.09,7.13.2,10.5.86,3.59.7,7.17.85,10.55.37,4.05-.57,8.13.07,12.03-.7,3.68-.72,7.29-.46,10.93-.61,1.68-.07,3.14-1.02,4.93-.83,1.62.17,3.38.53,4.95-.63.4-.3,1.23-.14,1.83-.03,1.87.37,3.52-.79,5.3-.73,1.85.06,3.41-.77,5.1-1.26,1.57-.45,3.23-.68,4.83-.94,2.91-.46,5.69-1.36,8.54-2.01.46-.1.91-.31,1.36-.3,2.9.07,5.52-1.05,8.23-1.82.33-.09.62-.4.94-.42,3.38-.28,6.78-.48,10.16-.78,2.15-.19,4.28-.58,6.42-.71,2.11-.12,4.24.02,6.35-.06.53-.02,1.04-.46,1.73-.8.3.23.67.51.9.68,1.5-.21,2.89-.54,4.29-.57,4.24-.07,8.48,0,12.71-.04,2.65-.02,5.17.54,7.67,1.36.33.11.71.11,1.06.14,2.64.25,5.3.38,7.91.79,2.17.34,4.29,1.01,6.51,1.55-1.18,2.22-3.1,1.12-4.63,1.41-1.35-1.54-3.64.04-4.99-1.5-2.71.55-5.23-.81-7.92-.8-2.89,0-5.77-.54-8.67-.66-2.99-.13-5.98.01-8.97-.04-3.29-.06-6.45,1.08-9.79.81-3.22-.26-6.48-.12-9.72-.02-1.27.04-2.53.53-3.81.7-1.44.19-2.91.15-4.33.4-1.24.23-2.41.84-3.65,1.07-.96.18-2-.06-2.98.07-.79.1-1.53.51-2.31.71-3.84.96-7.7,1.9-11.56,2.72-2.97.63-5.94,1.5-9,1.91-1.63.22-3.28.46-4.94.65-1.65.19-3.39.4-4.89.85-2.69.81-5.38.13-7.94.68-3.52.75-7.13.11-10.52.8-4.79.98-9.54.44-14.3.59-4.86.15-9.72.11-14.58,0-1.64-.04-3.18-.89-4.93-.76-1.65.13-3.39.42-4.95-.67-.34-.23-.98.02-1.47-.04-1.64-.23-3.29.35-4.98-.64-1.23-.71-3.1.39-4.53-.8-.37-.31-1.21-.04-1.83-.05-1.8-.03-3.53-.23-5.32-.64-3.58-.83-7.19-1.74-10.95-1.64-1.01.02-2.03-.49-3.06-.7-3.74-.77-7.49-1.49-11.34-1.54-1.4-.02-2.67-.92-4.18-.75-1.29.15-2.55-.29-3.83-.58-2.13-.49-4.46-.05-6.7-.16-2.03-.1-4.13.58-6.08-.68-.44-.29-1.5-.31-1.79,0-1.17,1.26-2.58.43-3.09.56-1-.47-1.57-.74-2.38-1.12.72-.77,1.12-1.2,1.62-1.73v.05Z"/>
        <path class="cls-1" d="m207.21,293.6c-.38.41-.71.75-1.03,1.09-3.46-.53-6.67-2.21-10.25-2.13-5.67-2.25-11.61-1.34-17.46-1.46-1.39-.03-2.79.44-4.18.71-1.29.25-2.66-.5-3.93.47-1.16.89-2.98-.47-4.06,1.02-4.8-.01-9.18,2.58-14.03,2.24-2.84,1.21-6.11.53-8.88,2.03-.3.16-.7.25-1.03.2-3.2-.48-6.23.91-9.42.81-1.26-.04-2.53.52-3.8.68-1.18.14-2.35-.09-3.47.71-.49.35-1.45.06-2.2.06-7.1,0-14.21.05-21.31-.04-1.52-.02-3.04.49-4.63-.59-1.18-.81-3.16.62-4.5-.85-.11-.12-.48,0-.73-.02-3.14-.25-6.29-.38-9.41-.8-1.58-.21-3.08-.97-4.62-1.44-2.13-.65-4.35-.93-6.51-1.38-2.31-.48-4.42-1.49-6.69-1.96-1.72-.36-3.42-.75-5.13-1.17-.67-.16-1.29-.54-1.96-.66-2.78-.5-5.48-1.41-8.32-1.6-1.15-.08-2.29-.47-3.43-.72-1.03-.22-2.26.52-3.12-.6-2.67.08-5.36-.03-8,.29-2.44.29-4.76,1.52-7.71.86.41-.55.61-1.11.97-1.26,1.72-.72,3.48-1.24,5.32-1.65,1.79-.39,3.53-.66,5.33-.61,1.42.03,2.8-.16,4.22.66,1.17.67,2.71-.03,4.23.6,1.38.57,3.2.82,4.84.92,2.04.13,3.97.8,6.03.96,1.85.14,3.79.97,5.68,1.54,5,1.49,10.02,3.04,15.08,4.12,3.67.78,7.44,1.56,11.3,1.85,3.13.23,6.4-.02,9.4.69,4.06.97,8.05.43,12.06.59,3.98.16,8.03.43,11.95-.09,3.03-.41,6.15-.05,9.02-.75,3.55-.86,7.26-.74,10.72-2.06.98-.37,2.23.04,3.34-.09,1.03-.12,2.06-.42,3.06-.73,3.38-1.03,7.07-.47,10.36-2.07,1.25-.61,2.72-.18,4.16-.79,1.8-.76,3.99-.58,5.99-.89.91-.14,1.78-.53,2.69-.72,1.38-.29,2.77-.6,4.18-.73,1.36-.12,2.74-.03,4.11-.03,1.12,0,2.26.1,3.36-.02,4.41-.49,8.64.56,12.83,1.59,2.69.66,5.45,1.17,8.06,2.19.54.21.99.65,1.53,1.02h-.01Z"/>
        <path class="cls-1" d="m267.87,280.93c-.46.38-.83.69-1.41,1.17-1.99-.15-4.19-.1-6.5-.63-4.19-.97-8.24.53-12.08,2.22-2.64,1.16-5.17,2.57-7.71,3.94-2.82,1.51-5.91,2-8.96,2.76-2.52.63-5.02.55-7.55.71-6.19.39-12.02-1.09-17.75-3.17-4.27-1.55-8.44-3.44-13.08-3.59-3.06-1.84-6.67-1.14-9.93-2.15-1.49-.46-3.26-.25-4.93.57-1.33.65-3.07-.3-4.63.55-.77.42-1.91.14-2.86.3-.91.16-1.78.57-2.69.71-3.94.59-7.8,1.42-11.59,2.69-2.54.85-5.27,1.09-7.83,1.86-2.87.86-5.88.18-8.64.83-3.42.81-6.8.34-10.18.67-1.85.18-3.65.81-5.49,1.15-1.06.2-2.43.65-3.17.2-.95-.59-1.86-.41-2.73-.7-.66-.22-1.15-.98-2.22-1.95,1.38-.12,2.06-.2,2.74-.23,7.37-.26,14.78-.11,22.09-.9,4.34-.47,8.71-1.49,13.02-2.66,3.57-.97,7.08-2.76,10.98-2.43,2.55-1.8,5.6-.98,8.32-1.61,4.66-1.09,9.3-.59,13.91-.52,2.99.05,5.95,1.18,8.95,1.75,4.92.93,9.35,3.5,14.35,4.18.86.12,1.64.85,2.62,1.38,2.04.25,4.28.64,6.54.78,2.23.14,4.48-.03,6.72.04,4.24.15,8.01-1.52,11.91-2.82,3.01-1,5.61-2.72,8.39-4.11,4.29-2.14,8.73-3.32,13.4-2.71,2.61.34,5.28.92,7.99,1.73h0Z"/>
        <path class="cls-1" d="m9.28,243.18h4.55c.78.85,1.61,1.77,2.55,2.8,1.15,2.83.8,5.52-1.87,7.69-1.97.32-3.96.64-5.67.92-1.63-1.34-3.29-1.88-4.42-3.27-1.15-1.42-2-3.02-2.12-4.71-.12-1.73.46-3.52.73-5.27.97-1.11,1.88-2.34,2.97-3.37,2.37-2.26,5.58-2.78,8.53-3.73,4.41-1.41,9.02-.93,13.5-.66,2.82.17,5.64,1.31,8.33,2.35,1.25.48,2.52,1.05,3.73,1.91,2.41,1.74,5.27,2.85,7.91,4.29,3.91,2.12,7.68,4.45,11.22,7.12,1.22.92,2,2.54,2.67,3.99.34.74.02,1.79,0,2.91-.66-.29-1.2-.36-1.25-.57-1.25-4.65-4.96-7.3-8.73-9.23-4.85-2.48-9.42-5.43-14.27-7.89-1.53-.78-3.05-1.09-4.62-1.51-3.54-.95-7.04-2.02-10.76-1.99-5.55.04-10.45,2.23-15.26,4.65-.77.39-1.25,1.42-1.77,2.22-.51.77-.9,1.62-1.48,2.69-.38,2.01.34,3.87,1.96,5.59,1.88,1.99,4.13,2.31,6.7,2,1.7-1.07,2.82-2.66,3.35-4.77-.66-.48-1.46-1.05-2.6-1.87-1.39.07-3.48-.42-5.5.98-.54-1.87,1.03-2.26,1.63-3.24v-.03Z"/>
        <path class="cls-1" d="m92.38,274.1c-1.08-.39-1.79-.43-1.99-.76-1.74-3.02-4.95-4.2-7.63-5.9-2.58-1.63-5.53-2.71-8.65-3.46-3.69-.89-7.3-.51-10.92-.51-2.03,0-4.1.8-6.09,1.43-3.94,1.24-6.8,3.84-8.8,7.4-.5.89-.73,1.92-1.14,3.05.74,1.99,1.03,4.58,4.15,5.03,3.77.19,6.35-.96,7.76-3.45-.6-1.24-1.2-2.48-1.83-3.77h-2.36c-.28.33-.68.77-1.06,1.23-.3.37-.58.77-1.34,1.76-.09-1.7-.13-2.62-.17-3.39,1.38-1.46,2.88-2.05,5-1.86.99,1.17,2.14,2.53,3.03,3.58.83,3.62-.96,5.69-3.21,7.6-.95.23-2.22-.55-2.89.78-2.88-.9-5.99-1.17-7.63-3.96-.37-.95-.91-1.79-.99-2.67-.24-2.69.52-5.21,2.26-7.25,2.83-3.3,6.58-5.3,10.57-6.88.21-.08.43-.2.66-.22,3.26-.26,6.51-.7,9.77-.69,2.21.01,4.51.41,6.61,1.12,2.82.96,5.55,2.25,8.18,3.66,2.98,1.59,5.65,3.68,7.84,6.31.27.32.38.78.87,1.81h0Z"/>
        <path class="cls-1" d="m10.44,277.67c.75,1.07,1.21,1.74,1.89,2.72,4.41,1.95,7.72,1.46,10.82-2.4.43-1.7-.97-2.38-1.58-3.06-1.43-.39-2.54-.69-3.94-1.07.62-.68.93-1.01,1.44-1.56.42.22.87.53,1.36.69.45.14.96.12,1.69.19.64.79,1.41,1.76,2.48,3.09v3.13c-3.33,3.54-4.94,4.21-9.9,4.17-1.72-1.07-3.86-1.46-4.78-3.2-.79-1.5-1.07-3.28-1.63-5.13.15-.39.57-1.02.63-1.68.54-6.68,4.03-9.91,9.74-12.36,2.9-1.24,3.28-1.18,7.57,0,4.22,1.16,8.36,2.64,12.35,4.46,1.57.72,3.08,1.6,4.79,2.5-.04.61-.08,1.29-.14,2.41-.92-.67-1.5-1.03-2.02-1.48-1.64-1.39-3.42-2.36-5.6-2.75-2.38-.43-4.57-1.62-6.84-2.43-1.7-.61-3.69.23-5.07-1.26-1.77.25-3.71.12-5.26.83-3.34,1.53-6.06,3.79-7.29,7.57-.74,2.28-.64,4.53-.7,6.64v-.02Z"/>
        <path class="cls-1" d="m275.94,309.82c-.76,4.71-3.78,6.54-7.42,8.18.03,0-.35-.04-.71,0-4.15.54-8.1-.68-12.05-1.58-1.85-.42-3.74-1.42-5.21-2.64-3.28-2.73-6.88-4.87-10.64-6.79-2.34-1.2-6.2-1.32-9.05-.37-.54.18-1.16.13-1.68.18-.72-1.35-.24-2.23.82-3.02,2.15,0,4.38.03,6.61,0,2.08-.03,3.9.84,5.58,1.82,2.43,1.41,4.69,3.11,7.01,4.7,1.82,1.26,3.66,2.45,5.63,3.5,1.9,1.02,4,1.32,5.95,1.8,2.57.63,5.42.16,7.91.16,2.14-1.27,4.25-2.27,5.02-4.19.16-2.79-2.01-3.35-3.51-4.89-.49,1.06-.93,2.03-1.48,3.23-.58-.41-1.21-.85-1.89-1.33,1.08-1.84,1.43-4.13,4.4-4.07,1.57,1.77,3.24,3.66,4.7,5.32h.01Z"/>
        <path class="cls-1" d="m187.26,293.54c1.68,1.21,3.97.19,5.79.52.86.44,1.48.76,2.1,1.08-.85,1.4-2.17,1.49-3.47.99-3.12-1.2-6.33-.25-9.48-.57-1.56,1.31-3.61.74-5.39,1.39-1.73.63-3.69.81-5.62.98-2.35.21-4.71,1.18-6.9,2.17-1.84.83-3.81.97-5.66,1.66-1.86.69-3.87.94-5.79,1.4-1.8.43-3.65.2-5.29.72-1.68.54-3.29.52-4.95.67-1.03.09-2.03.51-3.06.71-1.03.2-2.02.16-3.12.59-1.5.6-3.42.15-5.18.15-.86-1.03-2.6-1.68-1.47-3.97.41.74.74,1.36.95,1.74,2.55,0,4.96.65,6.68-.17,1.96-.93,4.2.36,5.84-1.3.18-.19.72,0,1.09-.03,5.19-.37,10.23-1.4,15.27-2.77,2.59-.7,5.03-1.74,7.59-2.45,2.45-.69,4.93-1.56,7.35-1.99,2.91-.52,5.88-1.41,8.96-1.06,1.12.12,2.3-.28,3.73-.47h.03Z"/>
        <path class="cls-1" d="m62.87,286.35c-.32-.44-.65-.91-.96-1.35.31-.33.49-.66.61-.64,1.76.26,3.52-.36,5.36.61,1.48.78,3.44-.03,5.29.73,1.66.68,3.74.42,5.64.71,1.87.28,3.75.73,5.63,1.02,1.66.25,3.38.68,5.05,1.25,1.35.46,3.02.4,4.5.9,1.42.48,2.83,1.26,4.27,1.34,2.05.12,4.14.25,5.97.99,1.78.72,3.65.5,5.46,1.27,1.58.68,3.68.05,5.54.17,1.18.08,2.27.49,3.52.04.62-.22,1.52.32,2.53,1.16-.47.1-.94.21-1.41.31.15.23.29.47.44.7-3.08,0-6.26.49-9.22-.12-4.22-.87-8.63-1.01-12.65-2.78-3.07.44-5.61-2-8.68-1.59-3.76-1.73-7.93-1.82-11.88-2.84-2.47-.64-5.15-1.12-7.88-.98-2.23.11-4.5-.53-7.13-.89h0Z"/>
        <path class="cls-1" d="m70.66,282.84c-4.41-2.82-4.86-3.67-4.86-9.45,1.2-1.02,2.56-2.17,3.85-3.27,1.66,0,3.17.18,4.62-.03,4.22-.62,7.97,1.09,11.75,2.36,2.74.92,4.74,3,5.22,6.2-.29.32-.62.68-.97,1.06-.17-.07-.41-.09-.51-.22-.29-.37-.75-.78-.74-1.17.01-1.63-1.07-2.35-2.29-2.95-2.92-1.45-5.88-2.88-9.22-2.96-1.17-.03-2.09-1.71-3.31-.54-1,.96-2.21.1-3.15.55-1.37.65-2.61,1.57-3.75,2.28v2.55c1.07,1.07,2.12,2.13,3.27,3.27h3.47c.29-.75.63-1.6.9-2.27-1.05-.8-1.84-1.4-3.25-2.49,1.67-.24,2.55-.37,3.61-.52.64,1.15,1.26,2.26,2,3.61-.92,1.4-1.82,2.77-2.64,4.01h-4.01v-.02Z"/>
        <path class="cls-1" d="m259.97,288c-2.17-1.53-3.86-1.72-5.58-.4-.09.92-.18,1.83-.33,3.25-1.2-1.01-2.01-1.69-2.91-2.45.36-.79.7-1.52,1.09-2.37,2.28-1.68,5.06-.67,7.6-1.02l1.92,1.92v2.28c-2.02,1.79-3.61,4.11-6.46,5.03-1.8.58-3.47,1.37-5.43,1.32-3.36-.08-6.72-.07-10.08,0-.91.02-1.81.38-3.03.66-.38-.56-.93-1.37-1.44-2.13-.27.21-.1-.03.07-.04.74-.04,1.5-.09,2.24,0,4.92.55,9.73-.89,14.63-.86,1.46,0,3.05-1.06,4.37-1.94,1.19-.8,2.1-2.01,3.34-3.26h0Z"/>
        <path class="cls-1" d="m157.06,136.83c.46-.89.77-1.51,1.09-2.14h1.48c.13.17.4.37.38.54-.22,2.26-.07,4.66-.83,6.73-.92,2.52-.46,5.13-1.27,7.65-.55,1.71-1.25,3.29-2.22,4.66-1.75,2.48-3.92,4.65-4.74,7.74-.25.96-1.37,1.35-2.49,1.08-1.4-1.39.09-2.56.6-3.46,1.22-2.14,3.07-3.93,4.34-6.05,1.42-2.37,2.64-4.75,3.06-7.71.45-3.15.43-6.25.59-9.05h.01Z"/>
        <path class="cls-1" d="m46.25,257.88c-.35.34-.7.66-1.08,1.03-.33-1.65-.65-3.25-.95-4.75-3.04-2.11-6.05-3.66-9.84-3.56-3.53.09-6.96,0-9.69,2.87.18,1.39,1.4,2.33,3.66,2.8-1.05.22-1.52.32-2,.41-1.2.43-2.25.32-3.15-.35v-3.7c3.96-4.24,7.4-4.92,13.83-3.59,1.88.39,3.58,1.01,5.26,1.74,3.04,1.32,4.6,3.65,3.95,7.11h0Z"/>
        <path class="cls-1" d="m159.31,247.42c1.97.67,2.89,1.9,3.72,3.2.71,1.12,1.11,2.32.46,3.86-.41-.16-.82-.27-1.19-.47-.21-.11-.51-.35-.5-.51.14-2.27-2.57-3.3-2.48-6.09h-.01Z"/>
        <path class="cls-1" d="m112.62,277.49c.41.34.82.67,1.6,1.3-.93.18-1.35.25-1.87.35-.09-.49-.16-.83-.22-1.16.16-.17.33-.33.49-.5h0Z"/>
        <path class="cls-1" d="m153.5,149.59h-.81v-1.29c.11-.08.22-.16.32-.24.18.56.36,1.13.48,1.52h0Z"/>
        <path class="cls-1" d="m150.43,68.24c-.37,3.45-.71,6.69-1.09,10.17-1.36.89-2.05,3.07-4.39,3.32.38,1.05.69,1.91,1.11,3.09-2,1.67-4.01,3.34-6.03,5.02-.58-.07-1.15-.14-1.94-.24,1.2-2.9,4.17-3.81,5.49-6.26-1.7-1.05-2.51-2.76-2.77-4.79-1.51,1.58-2.74,2.86-3.5,3.66-1.1-.52-1.67-.78-2.04-.96,1.71-1.65,3.2-3.08,4.69-4.52,1.66-.85,2.16,1.21,3.47,1.97.12.73.23,1.42.38,2.28,1.17-1.24,2.18-2.31,3.36-3.56,1.3-2.46.82-5.39.92-8.31-.48-.17-.92-.29-1.34-.48-.21-.1-.36-.34-.48-.46-.52.28-1.02.56-1.75.96-.46,1.81-.3,4.19-2.38,5.96-.69-.6-1.3-1.14-2.17-1.89-2.83.31-5.9.65-9.04,1v-1.39c1.67-.33,3.27-.78,4.89-.93,1.72-.16,3.46-.04,5.15-.04,1.17-1.55,1.8-3.18,1.89-4.9.97-.33,1.94-.66,3.1-1.06,1.27.67,2.7,1.43,4.47,2.37h0Z"/>
        <path class="cls-1" d="m124.71,41.71c1.23-.32,1.88-.49,2.53-.66,1.31-.92,3.19-.38,5.11-1.26,1.03-.47,2.82-.71,4.15.52.4.37,1.42.06,2.24.06,1.29,1.68,3.34,2.75,4.4,5.27-1.4,0-2.48-.1-3.54.03-.9.11-1.76.55-2.67.7-2.34.4-4.35-.82-6.41-1.54-1.71-.6-3.24-1.72-5.81-3.13h0Zm11.06,3.17c.32-.32.67-.67,1.02-1.01-.92-.64-1.85-1.28-2.87-1.99-.94.05-1.99.11-3.05.17-.03.17-.06.34-.1.51,1.66.77,3.32,1.54,5,2.32Z"/>
        <path class="cls-1" d="m143.89,39.94c-.51.78-.88,1.36-1.25,1.93-3.06-1.51-5.35-4.28-8.98-4.47-3.28-.18-6.13,1.28-9.48,1.91-.13-.16-.55-.69-1.27-1.59,1.9-.54,3.41-1.01,4.94-1.38,3.58-.87,7.16-.67,10.65.37,1.35.4,1.87,2.18,3.44,2.45.55.09,1.06.42,1.94.78h0Z"/>
        <path class="cls-1" d="m120.52,73.69c.77.49,1.46.92,2.62,1.65-2.51.15-4.31,1.82-6.79.45.88-.71,1.64-1.31,2.38-1.9-.39-1.14-.77-2.25-1.15-3.36,1.65-1.38-1.28-2.56-.18-3.92-.69-1.15-1.13-2.34-.43-3.93.66.37,1.23.69,1.73.97.63,3.49,1.23,6.84,1.81,10.03h.01Z"/>
        <path class="cls-1" d="m116.07,55.31c-.86-1.16-1.34-1.81-1.88-2.53.55-.23.82-.44.95-.37.91.45,1.97.87.93,2.91h0Z"/>
        <path class="cls-1" d="m248.41,125.79v-2.25c1.48-.27,1.85.67,2.36,1.93-.93.13-1.69.24-2.36.33h0Z"/>
        <path class="cls-1" d="m116.08,135.99c.4-1.91,1.75-3.18,3.24-3.43,1.96-.33,1.51-2.36,2.86-2.96,1.16.04,2.31.64,3.45,1.8-.43,2.45-.92,2.93-3.44,3.29-.41.89-.83,1.83-1.29,2.84-.88.33-1.84.7-3,1.14-.7-1.04-1.33-1.97-1.82-2.69h0Zm3.51-.73c-.39.13-.96.3-1.52.48.08.11.16.22.24.32h1.29v-.81h-.01Zm3.3-2.79h.25v-.75h-.25v.75Z"/>
        <path class="cls-1" d="m97.06,138.34c-3.01,3-7.09,3.66-11.04,4.52-1.48.32-2.87,1.25-4.53.82-1.58-.41-3.29-.45-4.46-1.87.24-.26.49-.52.81-.87,3.41.86,6.86.75,10.23-.5,2.04-.76,4.06-1.59,6.1-2.35,1.54-.57,1.55-.53,2.87.24h.02Z"/>
        <path class="cls-1" d="m127.58,125.02c.36.53.91,1.33,1.46,2.13.98,1.91-1.08,2.07-2.29,2.92-1.07-.43-1.85-1.3-2.46-2.49.78-.99.75-2.96,3.29-2.56Zm-1.19,2.43v.25h.75v-.25h-.75Z"/>
        <path class="cls-1" d="m73.45,138.43c-.45,2.03-1.39,2.58-3.3,2,.39-.75.74-1.42,1.05-2h2.25Z"/>
      </g>
    </g>
  </g>
</svg>
