<?xml version="1.0" encoding="UTF-8"?>
<svg id="Layer_2" data-name="Layer 2" xmlns="http://www.w3.org/2000/svg" viewBox="0 0 299.4 232.17">
  <defs>
    <style>
      @import url(../css/art.css)
    </style>
  </defs>
  <g id="Layer_1-2" data-name="Layer 1">
    <g id="Layer_1-2" data-name="Layer 1-2">
      <g>
        <path class="cls-1" d="m83.03,106.82h1.18c1.46.97,1.78,2.54,1.86,4.2-.71.71-1.36,1.35-2.01,2,.8.44,1.59.88,2.4,1.33v1.97c-.89.89-1.64,1.65-2.54,2.55-.85-.6-1.8-1.28-2.84-2.02-.62.59-1.33,1.25-2.2,2.08-.16-.43-.31-.81-.47-1.26.62-.5,1.19-.96,1.55-1.25-.27-.89-.44-1.47-.6-1.98-1.28-.88-1.56,1.02-2.63.85-.38-.66.42-.7.62-1.03.25-.41.68-.72,1.1-1.14v-2.6c-.07.08-.15.17-.22.25-.15-.4-.31-.8-.57-1.48-.68.92-1.07,1.44-1.54,2.09v-1.89c.28-.3.66-.71,1.01-1.08-.36-1.45-.96-2.49-2.12-3.18-.62.75-1.17,1.43-1.72,2.1-.11-.08-.23-.15-.34-.23.35-.74.71-1.49,1.08-2.27-.4-.61-.83-1.26-1.33-2.01-.63.83-1.28,1.67-1.93,2.51-.1-.04-.2-.09-.3-.13.34-.98.68-1.97,1.08-3.11-.42-.36-.92-.78-1.49-1.26-.1.05-.41.08-.51.24-.59.92-1.13,1.87-1.76,2.91-.73-1.38.37-2.15.83-3.43-.35-.09-.86-.22-1.37-.35-1.2-.24-.31,1.72-1.69,2.12v-2.92h-1.86c-.29.96-.58,1.92-1.03,3.39-.1-1.24-.16-2-.22-2.76-.98-.82-1.52.64-2.56.2.45,1.36.81,2.41,1.19,3.57-1.53-.35-.65-2.3-2.49-2.52-.14.15-.44.5-.67.76.25,1.05.45,1.85.64,2.65-.08.02-.16.04-.23.07-.33-.48-.67-.97-1.03-1.5-.44.48-.83.9-1.16,1.26-.79,1.35.69,2.01,1.02,3.39-.78-.51-1.31-.85-1.93-1.26-.19.92-.35,1.67-.53,2.56.54.58,1.25,1.35,2.02,2.19-1.11.91-1.35-.21-2.01-.57-.29.67-.57,1.32-.9,2.1.79.65,1.5,1.23,2.19,1.8-.04.15-.09.3-.18.62-.55-.2-1.08-.4-1.68-.62-.25,1.26-.34,2.36.9,3.59.13.06.76.35,1.62.75-.4.14-.72.25-1.26.44.08.03-.31-.11-.75-.27-.44,1.43.17,2.42.94,3.44.44.06.9.13,1.39.2-.02.31-.03.53-.04.84-.6.03-1.16.06-1.74.09.13.56.26,1.12.42,1.84.56.4,1.26.89,2.17,1.54-.52.34-.86.57-1.26.84v1.03c.46.33,1,.73,1.79,1.31-.55.23-.86.36-1.36.56.2.85.41,1.74.66,2.8h2.34v.94h-1.64c-.91,1,.24,1.68.23,2.53,0,1.2,1.33.83,2.2,1.39-.44.34-.76.59-1.3,1.01.17.55.4,1.27.65,2.06h1.59c.32.32.56.56.95.94-.76.33-1.45.63-2.24.97.38.69.76,1.36,1.13,2.03.53.08.99.15,2.04.31-.83.22-1.09.29-1.46.39v1.81c.37.24.89.58,1.4.91-.37.95-.33,1.97.12,3.08.43.07.89.14,1.46.22-.42.45-.75.8-1.16,1.23.25.52.52,1.07.77,1.6.34-.19.67-.38,1.21-.68.05.67.08,1.12.11,1.53-.41.15-.7.25-1.15.41.26.76.51,1.48.8,2.34.61-.15,1.16-.29,1.79-.45,0,.23.1.56-.02.66-.4.37-.87.66-1.5,1.12.14.41.33.98.57,1.71.36-.28.52-.4.84-.65.2.24.44.5.81.93h-1.51c-.3,1.19-.04,2.31-.18,3.33.35.33.59.56.9.86.31-.17.63-.34.96-.52.22.23.44.46.82.86-.76.28-1.41.52-2.11.78v2.21h1.25c.1.29.17.51.3.91-.51.08-.95.16-1.5.25v1.68c.41.26.92.59,1.85,1.18h-2.4v2.43c.46.07.92.13,1.35.2.04.23.07.38.12.73-.66.1-1.33.2-2.01.31-.04,1.47,1.14,1.34,2.51,1.49-.67.49-.95.86-1.19.83-.53-.05-1.03-.3-1.72-.53-.05.49-.1.93-.14,1.35.23.1.37.21.52.21h10.25c.92,0,1.84-.07,2.75.02.87.09,1.72-.22,2.64.26.73.38,1.76.17,2.65.21,1.62.09,3.2-.02,4.74-.75-.32-.28-.62-.56-1.02-.91.36-.42.7-.81,1.1-1.27-.18-.28-.35-.54-.59-.9.26-.07.53-.15.91-.25.13-1.07.27-2.16-.61-3.15.47-.17.76-.27,1.12-.39v-1.57c-.29-.36-.67-.85-1.05-1.34.49-.39.87-.68,1.36-1.08-1.08-.4-1.93-.71-2.75-1.02.01-.29.02-.45.04-.79.61-.03,1.23-.06,1.91-.09v-1.94h-1.89v-.94h1.83c-.32-1.42-.61-2.72-.89-3.97-1.25-.28-2.45.24-3.45-.58-.15-.12-.49-.06-.73,0-2.87.56-3.7.09-4.87-2.93.5-.77,1.04-1.62,1.6-2.49-.79-1.19-1.57-2.36-2.35-3.53-.25.26-.54.55-.87.9h-1.9c-1.7-.65-2.69-1.69-3.01-3.52.37-.41.8-.87,1.25-1.37h2.04c.98-.99,1.94-2.14,3.47-2.08.5-.68.97-1.32,1.47-1.99h2.81v-2.17c.27-.26.44-.44.8-.79h2.19c-.62-1.06-1.16-1.98-1.78-3.03-.27.13-.6.3-.97.48-.47-.39-.3-.97.91-2.53-.25-.26-.51-.55-.75-.79-.41.16-.79.3-1.3.5,0-.46-.1-.77.02-.9.52-.6,1.33-1.07.69-2.27-.55.33-1.1.65-1.64.97-.49-1.27.28-1.74,1.38-2.07-.04-.61-.08-1.22-.14-2.11-.73.52-1.22.87-1.79,1.29v-1.33c.22-.22.52-.52.87-.86v-2.86c-.5.42-.89.74-1.32,1.09-.19-.07-.41-.14-.89-.31.65-.77,1.21-1.42,1.88-2.2-.24-.62-.51-1.32-.75-1.94-.37.38-.68.7-1.05,1.09-.59-1.02-.12-1.5.35-2.13.38-.52.38-1.32.6-2.16.38.24.83.37.98.66.64,1.23,1.57,2.47,1.68,3.76.18,2.15.94,4.17,1.12,6.31.17,1.93,1.14,3.7,1.46,5.62,1.07.89,0,2.38.97,3.36.34.34.36,1,.5,1.44-.19.45-.36.84-.6,1.4.47,0,.81.09.9-.02.4-.48.66-1.09,1.09-1.53,3.16-3.22,6.42-6.33,10.51-8.39.75-.38,1.47-.8,2.26-1.11,1.44-.98,2.88-1.97,4.45-3.04-.15-.78-.29-1.53-.49-2.6.21-.37.6-1.04.98-1.68.8,0,1.57-.33,2.27.6.41-.92,1.09-1.74,1.09-2.56,0-2.2,1.02-4.09,1.57-6.11.35-1.26,2.83-4.05,4.23-4.94h1.62c.48.63,1,1.31,1.62,2.14,3.3-3.08,7.23-5.16,11.56-7.11,1.87.04,4.36-.68,5.46,2.56.13,2.09-.78,4.01-2.21,6.02-1.6,2.24-3.51,4.27-4.87,6.69-1.03.25-1.19,1.35-1.9,1.93-.83.68-1.52,1.54-2.32,2.26-.71.64-1.55,1.14-2.25,1.78-1.25,1.16-2.37,2.46-3.86,3.35-.68.4-1.28.93-1.92,1.4-.49.6.13,1.42-.5,2.05-.55.54-.88,1.3-1.27,1.9-.87-.14-1.78-.67-2.72-1.59-.5.71-.97,1.4-1.45,2.08-.88,1.22-1.78,2.42-2.65,3.65-2.23,3.17-4.6,6.21-7.38,8.95-1.97,1.95-3.47,4.37-5.26,6.51-1.88,2.24-3.87,4.48-6.51,6.04.36.32.67.59.64.56,3.27,8.53,2.07,16.63-.35,24.66-.94,3.1-2.39,6.02-4.14,8.84,1.56.21,3.21.41,4.86.65.38.05.78.14,1.12.31,1.74.87,3.69.67,5.52,1.13,1.74.44,3.58.5,5.34,1,.68.19,1.52-.21,2.45-.37.22.31.52.75.92,1.31,2.8.76,5.75,1.66,8.51,3.09,1.02.53,2.19.76,3.21,1.29,2.27,1.18,4.54,2.37,6.69,3.74,3.06,1.95,5.99,4.09,8.41,6.83.41.47.85.99,1.04,1.56.25.77.99,1.01,1.38,1.63.98,1.53,1.37,3.28,1.9,4.95.25.8.48,1.62.76,2.44.25.74.3,1.55.44,2.31.19.23.4.48.62.74.1-.18.25-.32.25-.45,0-1.83-.05-3.66.03-5.49.06-1.27.35-2.52.45-3.79.03-.34-.25-.71-.39-1.1.1-.11.26-.29.49-.54-.2-.39-.4-.8-.6-1.21.19-.29.36-.55.44-.68-.15-.8-.4-1.49-.4-2.17-.02-10.23-.02-20.45-.02-30.68.82-2.89.43-5.84.48-8.77.02-.97.73-1.74.56-2.79-.13-.82-.13-1.68.38-2.57.39-.7.08-1.79.08-2.7,0-1.58-.03-3.16,0-4.74.02-.62-.28-1.3.36-1.86.18-.15.24-.72.1-.91-1.06-1.47-.26-2.9.03-4.34.03-.15.09-.3.15-.53h5.93c-.7-1.22-1.3-2.25-1.96-3.39-.91-3.27-.69-6.8-.6-10.3.07-2.9,1.15-5.49,3.1-7.69.58-.65,1.05-1.4,1.6-2.08,2.25-2.71,5.26-4.32,8.49-5.42,1.89-.64,3.7-1.64,5.75-1.83.55-.05,1.09-.25,1.64-.25,5.42-.02,10.84-.13,16.25.05,1.77.06,3.62.2,5.37.86.63.24,1.44.04,2.1.04-.45-1.78-.89-3.48-1.32-5.18.16-.17.32-.35.46-.51-3.75-3.93-6.53-8.42-8.04-13.72-2.8,1.88-5.52,3.69-8.22,5.53-2.64,1.8-5.46,3.26-8.24,4.82-2.85,1.6-5.59,3.44-8.24,5.06-.28,1.08-.52,1.98-.77,2.96h-2.83c-.29.38-.59.77-.84,1.1-.29-.04-.52,0-.59-.1-1.17-1.41-2.32-2.83-3.59-4.39-.38.16-.93.39-1.52.63-.04.37-.09.77-.14,1.19-.28.11-.57.22-.88.34-.04.38-.08.77-.1.89-.96.57-1.76,1.05-2.76,1.64.57.2.86.3,1.27.44-.02.25-.05.54-.08.99-.57-.27-.98-.46-1.69-.79-.11.29-.25.7-.46,1.26.21.17.76.62,1.65,1.35h-2.35v1.85c.3.12.59.24.9.37v.77c-.44.02-.83.05-1.26.07-.45.96-.23,1.84.52,2.7-.48.16-.76.26-1.05.35-.73,1.17.6,1.66,1.05,2.59-.41.18-.66.29-1.14.5-.02.43-.05,1.05-.08,1.63.4.15.69.25,1.21.44-.38.37-.65.64-.92.91l-.09-.09c-.06.06-.14.11-.17.18-.03.07-.03.16,0,.24.39,2.5-.86,4.94-.39,7.64.36-.62.86-1.06.84-1.5-.04-1.32.39-2.48.82-3.67.41-1.16.79-2.35,1.06-3.55.32-1.47.51-2.97.81-4.76.99-.85,2.19-1.91,3.43-2.93,1.5-1.23,2-2.84,1.94-4.69,0-.41,0-.83,0-1.2-.46-1.17-2.35-.4-2.58-2.16.81-.06,1.58-.12,2.27-.17,3.51,2.71,2.66,6.06.46,9.1-.48.67-1.06,1.45-1.77,1.73-2.14.84-2.36,2.79-2.86,4.55-1.01,3.58-1.56,7.28-2.9,10.78-.36.94-.43,1.99-.62,2.99-.18.95-.5,1.81-1.5,2.45-.29-.24-.59-.48-1-.81,0-5.82-.02-11.71.02-17.6,0-.76.32-1.52.47-2.29.14-.69-.31-1.49.43-2.08.13-.1.05-.46.08-.7.17-1.76.33-3.52.5-5.28.09-.92.57-1.62,1.21-2.25,1.77-1.76,3.54-3.52,5.3-5.27v-4.01c.42-.42.83-.83,1.24-1.24h1.7c.71-.92,1.58-1.89,2.24-2.99.47-.77,1.48-.75,1.86-1.68.28-.7,1.02-1.14,1.8-1.5.71-.33,1.18-1.15,1.8-1.7,1.65-1.46,2.93-3.3,4.89-4.46.7-.41,1.04-1.39,1.63-2.03.9-.98,1.87-1.89,2.8-2.81-1.3-1.37-3.23-.39-4.89-1.1-.71.88-1.2,2.36-2.76,2.78h-2.12c-.29-.35-.66-.79-1.19-1.43,0-.37-.25-1.2.05-1.65.6-.85.51-1.73.42-2.57-.31-2.88.76-5.66.53-8.52.38-.41.76-.81,1.26-1.35-.56-.32-.93-.53-1.31-.74.43-.78.84-1.51,1.34-2.41-.54-.16-.83-.25-1.18-.35-.13-.49.4-.58.59-.86.19-.27.46-.48.86-.88-.41-.24-.82-.47-1.24-.72.51-.54.84-.89,1.15-1.22v-1.02c-.34-.17-.68-.34-1.14-.56.24-.38.45-.7.62-.97-.16-.64-.48-1.25-.43-1.84.12-1.62-.6-2.78-1.74-3.78-.46-.41-.94-.8-1.56-1.32-.12.52-.29.87-.21.94,1.36,1.18.61,3.05,1.46,4.4.12.19-.14.59-.19.89-.11.71-.46,1.52-.24,2.11.68,1.83.68,3.54,0,5.36-.22.58.03,1.33-.06,1.98-.07.53-.28,1.04-.49,1.54-.15.36-.42.67-.67,1.05-1.43-1.11-.65-2.56-.75-3.84,1.24-1.8.88-3.86.93-5.9-.53-.27-1.07-.54-1.58-.8-.17.13-.36.19-.41.32-.49,1.13-.82,2.31-1.36,3.43-.45.92-.82,2.05-.67,3.22.13,1.07.07,2.16.02,3.24-.14,2.76-.31,5.52-.51,8.27-.03.35-.33.68-.49.99.32,1.44,1.89.68,2.51,1.64.32-.24.56-.43.9-.68.51.25,1.06.52,1.78.87-.24.57-.47,1.14-.74,1.81-1.39-.28-2.67-.38-3.82-.83-1.07-.42-2.32-.93-2.13-2.54.02-.16-.31-.35-.4-.44.15-.85.37-1.61.41-2.38.2-3.34.13-6.71.58-10.01.36-2.59.65-5.27,1.97-7.65.12-.21.35-.36.61-.63h2.21c.22-.79.74-1.62.56-2.25-.29-1.03-.36-2.11-.88-3.13-.72-1.41-1.07-3-1.61-4.63.47-.04.78-.06,1.14-.09,1.05.83,2.05,1.77,3.19,2.49,1.16.74,1.97,1.73,2.85,2.76.93,1.08.87,2.55,1.91,3.54-.39,2.17,1.03,4.33.4,6.46-.6,2.04-.26,4.02-.45,5.99,1.3.55,2.24,1.36,2.64,2.49,2.05-.13,3.8-1.38,5.9-1.28,2.09.1,4.02-.87,6.05-1.02.62-.65,1.24-1.3,1.64-1.73,1.19-.3,2.05-.44,2.84-.76.38-.15.67-.61.93-.98.96-1.34,1.85-2.74,2.86-4.05.93-1.2,1.67-2.53,2.92-3.53.81-.64,1.19-1.81,1.82-2.7.69-.98,1.45-1.92,2.38-3.14.03-.11,0-.71.29-.98,1.1-1.08,1.75-2.45,2.63-3.66,1.71-2.37,3.34-4.8,5.11-7.12,2.03-2.65,4.1-5.26,5.98-8.01,1.18-1.71,2.63-3.14,4.12-4.51,1.84-1.69,3.58-3.23,7-4.19.37-.1.71-.31,1.04-.5.21-.12.39-.29.59-.45.79-.27,1.7.25,2.56-.47.32-.27,1.3.25,2.03.42.26-.66-.54-.68-.65-1.07-.13-.45-.18-.93-.37-1.34-.69-1.52-1.93-2.59-3.23-3.55-2.42-1.8-4.87-3.56-7.31-5.33-.44.57-.95,1.22-1.56,2.02-.61-.26-1.17-.5-1.77-.75.52-.81.94-1.47,1.51-2.36v-3.38c-.35-.35-.7-.7-1.27-1.27-1.05.12-2.29.27-3.46.41-.82,2.14-1.13,4.03-.23,6,.22.48.19,1.09.26,1.64.26,2.33,1.93,3.48,3.76,4.5v1.8c-1.81,1.54-3.65,3.11-5.5,4.69l-.5.5c-.91-.12-1.32.38-1.59,1.29.31.09.58.17.83.25.28-.57.52-1.05.75-1.54.16-.17.33-.33.5-.5.14.06.28.12.58.24-.39.82-.77,1.64-1.23,2.62,1.09-.09,1.53-.83,2.12-1.44.22.15.39.27.7.48-.44.54-.83,1.03-1.32,1.64.28.31.55.6.92,1,.35-.53.67-1.01,1.02-1.54.27.34.56.7.9,1.13-.49.24-.82.41-1.28.64.18.34.35.67.54,1.04-.18.17-.42.4-.78.75-1.66-1.29-3.35-2.61-5.21-4.05.1,0-.07-.02-.23,0-.23.04-.5.06-.66.2-2.95,2.37-5.89,4.75-8.99,7.26-.29-.13-.77-.34-1.36-.6-.88-1.64-1.8-3.42-2.78-5.17-.19-.35-.52-.74-.88-.87-2.02-.7-2.38-3-4.01-4.07-.18-.12-.16-.52-.27-.91-1.12.58-2.08,1.07-3.19,1.64h-1.89c-.06-.19-.18-.4-.18-.62-.02-.87.74-4.45,1.15-5.26.58-1.15.52-2.44.77-3.66.22-1.07.29-2.18.54-3.28.45-2,1.13-3.97,1.03-6.07,1.01-1,0-2.46,1.12-3.61-1.35.08-1.68,1.09-2.59,1.63-.47-.39-1.01-.85-1.52-1.27,1.88-3.14,4.3-5.69,7.22-7.78.95.13.8-1.12,1.7-1.27.79-.13,1.49-.79,2.21-1.25.66-.42,1.25-1.03,1.96-1.3,1.3-.5,2.66-.84,4.01-1.18,2.9-.73,5.82-1.27,8.83-1.01,1.03.09,2.04-.09,3.07.46.8.43,1.83-.19,2.82.48.77.53,2.11-.37,2.99.57,1.08-.21,2.09.53,3.03.42,1.22-.15,1.54,1.01,2.58,1.17,1.56.23,3.07.98,4.54,1.66,1.4.65,2.72,1.49,4.07,2.24.06.04.18,0,.23.03,1.25,1.03,2.2,2.35,3.64,3.24.93.57,1.3,1.97,2.11,2.8,1.64,1.67,2.3,3.89,3.47,5.81,1.06,1.75,1.53,3.73,1.94,5.67.46,2.15.79,4.37,1.17,6.54.51,2.88.22,5.7.37,8.54.09,1.66-.04,3.33.03,4.99.13,3.03-.89,5.99-.51,9.02-.85,2.3-.72,4.78-1.42,7.14-.39,1.32-.26,2.84-.53,4.27-.23,1.24-.65,2.44-.64,3.77,0,1.14-.22,2.39-.48,3.52-.55,2.35-.95,4.67-.96,7.09,0,.93-.63,1.77-.5,2.79.11.86.19,1.78-.47,2.54-.04.05-.02.16,0,.24.38,2.46-.72,4.84-.48,7.27.27,2.8-.75,5.49-.52,8.28-.77,1.53-.18,3.24-.56,4.77-.51,2.03-.34,4.03-.45,6.04-.05.94-.64,1.78-.51,2.79.11.86-.19,1.7-.39,2.55-.32,1.42-.06,2.97-.1,4.47,0,.45-.2.89-.33,1.39.31.63.68,1.38,1.16,2.36.43-.39.93-.66,1.16-1.08,1.05-1.97,1.97-4.01,3.04-5.97.89-1.63,1.6-3.34,2.54-4.94.93-1.59,1.66-3.3,2.5-4.95,1.39-2.75,2.4-5.66,3.59-8.49,1.28-3.05,2.74-6.04,3.58-9.23.31-1.17,1.57-1.88,1.31-3.21,1.59-2.94,2.44-6.15,3.46-9.29.55-1.68,1.28-3.33,1.74-5,.56-2.01,1.45-3.94,1.77-6.02.04-.3.11-.64.28-.88,1.5-2.11,1.87-4.72,3.17-6.93.69-1.17,1.26-2.44,1.67-3.8.38-1.29,1.48-2.33,2.07-3.62,1.35-2.94,2.63-5.9,3.84-8.89.49-1.2,1.14-2.35,1.61-3.58.33-.86.64-1.73.98-2.65-.57-.41-1.15-.68-1.52-1.13-.33-.39-.44-.97-.6-1.49-.21-.68.26-1.2.48-1.79.52-1.43.96-2.89,1.5-4.57-1.56-.58-3.14-1.16-4.83-1.79-.95-.2-2.14-.21-3.09-.7-1.3-.68-2.77-.29-4.06-1.1-1.14-.72-2.58-.99-3.88-1.47-.21-.08-.42-.38-.59-.35-1.56.3-2.71-.7-3.97-1.2v-1.93c.54.23.94.41,1.22.53.76-.14,1.45-.37,2.14-.39,1.83-.05,3.67.02,5.5-.03.78-.02,1.54.15,2.35-.38.49-.32,1.49.12,2.52.25.21-.06.74-.35,1.25-.33,1.85.09,3.69-.22,5.57.39,1.27.42,2.79.08,4.29.08v-1.16c.8-.79,1.5-1.49,2.31-2.29h2.54c.93-2.76,1.38-5.77,4.81-6.59,1,1.69,1.32,3.39.95,5.08-.72.95-1.39,1.82-2.07,2.71,2.18,1.16,3.02,2.72,3.06,5.61,2.6.75,4.54,2.65,6.74,4.14,2.25,1.52,4.05,3.61,6.4,5.03.63.38.98,1.2,1.75,1.7,1.49.96,2.72,2.3,4.02,3.45v2.21c-1.83.38-2.64-1.02-3.5-1.74-3.02-.76-5.9-1.11-8.37-2.82-.87-.6-1.92-1.14-2.94-1.29-1.27-.18-2.41-.6-3.59-1.03-1.23-.45-2.54-.67-4.02-1.05.51,3.24-1.65,5.26-3.19,7.54-.48-.05-.83-.02-1.12-.12-.28-.1-.5-.34-.7-.49-1.76,1.03-2.23,2.86-2.87,4.36-.51,1.2-1.12,2.36-1.61,3.57-1.19,2.93-2.55,5.77-4.02,8.56-1.48,2.8-2.74,5.69-4.18,8.5-.35.68-.62,1.41-.88,2.13-.33.9-.59,1.88-1.35,2.71-.78.86-.98,2.23-1.43,3.37-1.2,3.01-2.62,5.9-3.93,8.86-1.15,2.6-2.2,5.24-3.24,7.89-.74,1.87-1.61,3.68-1.97,5.67-1.2.84-1.28,2.33-1.79,3.5-.49,1.12-1.12,2.19-1.57,3.34-.7,1.78-1.18,3.65-2.1,5.37-.9,1.68-1.71,3.45-2.11,5.36-.09.43-.48.79-.68,1.21-1.36,2.84-2.95,5.61-4,8.57-1.04,2.9-2.82,5.5-3.29,8.63-.16,1.04-1.55,1.61-1.46,2.88-1.14,1.43-.65,3.35-1.5,4.87.12,3.08-1.26,5.76-2.29,8.53-.27.72-.48,1.46-.79,2.44,1.05,0,2.03-.04,2.99,0,.78.05,1.6-.26,2.34.41.28.25,1,.2,1.44.05,2.81-.93,5.7-.26,8.55-.48.53-.04,1.05-.17,1.64-.27.14.28.39.76.79,1.54-.34.08-.78.18-1.23.28-8.14.08-16.61,1.27-25.13.98-4.74-.16-9.5.06-14.25-.05-5.36-.13-10.68.9-16.04.52-2.72.9-5.57.09-8.28.57-2.78.49-5.6,0-8.29.51-3.21.61-6.4.03-9.55.46-3.52.49-7.07.12-10.53.56-2.2.28-4.37.23-6.58.42-.61.72-.7,1.52-.28,2.4-.17.43-.42.85-.48,1.29-.08.65-.06,1.33-.02,1.99.36,5.6-.82,11.16-.51,16.76-1.05,4.39-.43,8.84-.47,13.26-.1,12.47-.03,24.93-.03,37.61.67,0,1.33.11,1.94-.02,1.51-.31,2.83.61,4.3.54,1.5-.07,3.09-.34,4.48.05,2.61.73,5.22.2,7.81.44,10.75,1,21.53.36,32.29.47,10.83.11,21.66.02,32.5.04.77,0,1.54.21,2.52.35-.02,0,.17-.13.27-.22,1.07.12,2.08.33,3.08.33,9.42.03,18.83.04,28.25,0,1.51,0,3.02-.38,4.54-.46,1.58-.08,3.17-.02,4.75-.02.63.79.63,1.65,0,2.57-3.77,0-7.66,0-11.55.02-.18,0-.36.29-.58.47-.36-.2-.7-.38-1.08-.59-.32.18-.65.37-1.04.59-.2-.13-.4-.25-.6-.38-1.99.47-4,.62-6.06-.18-.14.12-.33.27-.39.31-1.2-.11-2.29-.3-3.38-.3-21.66-.02-43.33-.02-64.99,0-2.2,0-4.31-.73-6.55-.55s-4.5.04-6.75.04-4.57.35-6.73-.08c-2.95-.59-5.88-.22-8.81-.43-1.02-.07-2.03-.33-3.04-.48-1.02-.15-2.14.36-3.05-.5-.04-.04-.16,0-.24,0-2.04.1-4.03-.23-6.05-.45-3.16-.34-6.42-.05-9.52-.64-2.72-.52-5.38-.21-8.06-.39-2.35-.16-4.65-.69-7.04-.54-2.41.15-4.83-.04-7.25.07-.87.04-1.44-1.01-2.48-.36-.62.38-1.56.31-2.35.32-9.08.02-18.16.05-27.25-.02-1.48,0-2.86.38-4.29.53-1.35.14-2.78-.4-4.05.49-.11.08-.33,0-.49,0-2.68.16-5.4.11-8.03.57-1.95.34-3.91.13-5.79.49-2.77.53-5.56.68-8.33,1.05-2.29.3-4.59,0-6.8.44-3.61.74-7.24.04-10.79.51-2.36.31-4.77.05-7.03.53-2.22.47-4.39.15-6.56.43-1.51.19-2.84-.52-4.29-.57-.36,0-.7-.53-1.35-1.05.52-.46.86-.76,1.21-1.06.62.23,1.05.39,1.78.66,1.24,0,2.84-.13,4.4.04,1.2.13,2.17-.53,3.3-.57,1.02-.04,2.14.44,3.06-.46.13-.12.49-.04.73,0,3.12.36,6.15-.82,9.59-.44-.52-.63-.85-1.02-1.17-1.4.5-.73,1.68-1.54,3.53-2.44-.2-.58-.41-1.16-.66-1.89,1.07-.98,2.13-1.94,3.13-2.85h2.3c.23-.61.27-1.36.63-1.57,1.16-.67,2.45-1.1,3.86-.86,1.3,1.29,2.59,2.59,3.97,3.96,2.18-.21,4.31.51,6.79.77.39-.55.98-1.38,1.65-2.32-1.02-1.1-2.31-1.98-2.19-3.62-1-.99-1.45-2.22-1.55-3.82-1.03,0-2.11-.13-3.14.04-1.05.17-1.83-.59-2.8-.53-.98.06-1.88-.14-2.8-.49-2.3-.89-4.53-1.97-6.96-2.51-1.9-1.81-4.56-2.38-6.59-4.02-1.64-1.32-3.62-2.19-5.27-3.5-2.24-1.78-4.34-3.8-5.81-6.26-.57-.95-1.53-1.57-1.9-2.7-.3-.93-.84-1.81-1.48-2.64-.63-.81-.88-1.95-1.18-2.98-.4-1.42-.91-2.87-.97-4.32-.14-3.4-.44-6.88.08-10.21.43-2.76,1.08-5.57,2.28-8.26,1.29-2.91,2.92-5.61,4.34-8.43.84-1.67,2-3.19,3.16-4.68,1.2-1.53,2.74-2.82,3.82-4.42,1.34-1.98,3.5-3.33,4.29-5.7,1.72-1.39,2.51-3.45,3.66-5.23.86-1.33,1.34-2.94,1.81-4.48.8-2.62,1.41-5.34.95-8.05-.31-1.82-.43-3.71-1.17-5.49-.58-1.41-.75-2.99-1.46-4.38-2.03-3.95-5.04-7.03-8.67-9.52-1.42-.98-2.7-2.14-4.25-2.98-.8-.43-1.53-1.08-2.36-1.55-.89-.49-1.72-1.11-2.52-1.75-.81-.65-1.58-1.36-2.39-2.01-.66-.53-1.47-1.21-1.83-2.14-.08-.2-.61-.19-.76-.4-1.2-1.74-2.37-3.5-3.51-5.28-.54-.85-.91-1.82-1.53-2.6-1.34-1.7-1.67-3.81-2.45-5.73-1.07-2.66-1.77-5.43-1.55-8.35.02-.21-.31-.44-.48-.66v-1c.17-.13.48-.27.48-.39-.09-3.25,1.06-6.1,2.46-8.98.9-1.85,2.21-3.28,3.73-4.38,1.48-1.07,3.03-2.16,4.75-2.95,1.3-.6,2.65-.85,3.99-1.24.9-.26,1.98-.13,2.76-.56,2.25-1.23,4.81-1.72,7.01-2.98,1.36-.78,2.9-1.6,3.74-2.83,1.02-1.49,1.84-3.31,1.59-5.31-.02-.16,0-.33,0-.45-.75-1.62-2.69-1.27-3.77-2.36-.9,0-1.81,0-2.73,0-2.81.05-5.44-.89-8.12-1.52-1.3-.31-2.08-1.41-2.99-2.35.77-1.67,2.4-1.44,3.66-1.9,1.31-.48,2.64-.99,4-1.17,1.47-.2,3.01-.18,4.49,0,1.38.17,2.72.66,4.27,1.07,1.42,1.25,3.07,2.58,4.57,4.06,1.21,1.19,2.31,2.51,3.35,3.85.46.6.83,1.31.78,2.17-.02.35.24.71.39,1.11-.94.79-.13,1.97-.4,2.75-1.64,3.04-3.94,5.1-6.6,7.01-2.19,1.56-4.47,3.04-6.55,4.77-1.58,1.31-3.52,1.92-5.42,2.6-.88.31-1.9.25-2.74.62-1.76.78-3.49,1.66-5.14,2.65-.62.37-.89,1.45-1.51,1.68-1.04.38-1.12,1.3-1.5,2-.36.66-.3,1.53-.56,2.26-.58,1.63-.78,3.2-.02,4.85.22.48.03,1.14.03,1.59,1.05,1.51,1.51,3.18,2.44,4.64,1.87,2.94,3.59,5.95,6.06,8.46.66.67,1.07,1.89,1.82,2.13,1.25.39,1.18,1.64,2.03,2.24.81.56,1.47,1.35,2.13,2.1.47.53.87,1.12,1.24,1.73.35.59,1.44.37,1.43,1.37,0,.21.42.55.7.62,1.61.4,2.55,1.66,3.61,2.74,1.54,1.59,3.2,3.11,4.5,4.88,2.24,3.07,3.9,6.49,5.54,9.92,1.51,3.15,2.44,6.38,2.55,9.94.14,4.5-1.16,8.5-3.02,12.5-1.58,3.4-3.7,6.45-5.54,9.68-2.19,1.83-3.37,4.45-5.04,6.67-1.92,2.56-3.73,5.24-5.43,7.96-.52.83-.46,2.08-1.09,2.76-.77.83.08,2.04-.94,2.63-.14,2.05-1.6,3.76-1.5,5.86-.75.64-.48,1.5-.49,2.29-.03,1.58.07,3.16-.03,4.74-.11,1.74.41,3.3,1.26,4.72,1.41,2.37,2.61,4.89,4.72,6.8.6.54,1.05,1.23,1.74,1.74.61.45.87,1.35,1.46,1.85,1.53,1.27,3.13,2.45,4.74,3.61,1.65,1.19,3.47,2.06,5.46,2.49.92.2,1.39,1.53,2.58,1.01,1.69.97,3.53.43,5.29.45.86,0,1.73-.52,2.61-.8.19.12.45.28.68.42.22-.15.44-.22.46-.33.46-2.27,1.91-5.24,3.2-6.67.64-.71,1.23-1.47,1.76-2.26.48-.7,1.53-.75,1.78-1.72.06-.23.47-.4.74-.56.6-.36,1.38-.56,1.78-1.07.56-.71,1.06-1.59,1.21-2.47.31-1.74,1.88-2.89,2.03-4.68-.16-.17-.43-.33-.46-.52-.07-.49-.02-.99-.02-1.55.19-.07.41-.16.92-.36.42-1.97.77-4.19,1.37-6.33.65-2.29-.47-4.73.65-6.9-.15-.62-.47-1.24-.41-1.82.3-3.1-.93-5.92-1.54-8.86-.17-.82-.62-1.6-.76-2.42-.35-2.08-1.49-3.9-1.96-5.93-.46-1.96-1.37-3.77-2.02-5.64-.7-2.03-1.36-4.12-1.75-6.27-.15-.84-.28-1.73-.67-2.46-.85-1.56-.91-3.31-1.25-4.96-.48-2.37-1.15-4.69-1.73-7.03-.07-.3-.32-.57-.32-.86,0-2.03-.85-3.97-.54-6.03.05-.32-.28-.7-.28-.71.12-1.5.18-2.69.32-3.86.14-1.16.36-2.3.57-3.57h-2.38c-1.88-1.23-4.05-2.12-5.45-3.69-1.61-1.81-3.51-3.59-3.83-6.38-.19-1.68-1.12-3.35-.88-5.08.36-2.61.34-5.35,2.33-7.52.6-.65.97-1.6,1.38-2.41.64-1.25,1.6-1.88,2.76-2.39,2.24,1.02,2.38,4.09,4.73,5.11.89-1.74-1.24-1.29-1.41-2.42-.13-.89-1.22-1.62-1.83-2.46-.6-.82-1.12-1.69-1.84-2.76-1.44.19-3.08.41-4.59.61-1.67-.86-2.91-1.87-3.76-3.43-.36-.66-.5-1.39-.27-1.85.9-1.79,1.05-3.91,2.54-5.63-.57-.44-1.15-.88-1.66-1.28-.2-1.76-.38-3.36-.55-4.86.48-.72.83-1.34,1.28-1.87,2.3-2.69,4.04-3.63,8.53-1.69.14.06.31.05.57.09,2.61-3.12,6.3-4.43,9.99-5.54,1.74.4,2.63,1.72,3.75,2.75-.04,1.74.38,3.56-.96,5.05.52.18,1.02.37,1.54.53.3.09.68.27.91.16,2.32-1.08,4.46-.23,6.69.39,1.08.3,2.3.15,3.45.12,1.46-.04,2.86.1,4.11.97.15.1.44-.02.72-.04-.19-.89-.37-1.71-.57-2.61.49-.39.94-.74,1.51-1.19.64.47,1.43,1.05,2.25,1.65-.27.83-.49,1.5-.76,2.31.41.44.82.89,1.48,1.6-.53.23-.92.41-1.31.58.07.08.15.16.22.24-.75,0-1.5.06-2.24-.01-3.33-.31-5.93,1.29-8.44,3.16-.44.33-.95.56-1.38.89-3.05,2.39-5,5.58-6.11,9.18-.53,1.71-.24,3.68,1.1,5.24.2-.18.38-.34.45-.4,2.62.62,3.42,3.24,5.18,4.47.22.95.4,1.71.61,2.59-.38.91-.82,1.98-1.23,2.98,1.17,1.06,2.39,2.19,3.62,3.31h.96c.03-.14.11-.31.06-.36-.86-.99-1.01-2.15-.78-3.35-.74-.26-1.39-.49-2.02-.71v-2.31c.58-.97,1.44-.74,2.42-.68v3.08c.39-.3.55-.42.74-.57.57.33,1.16.67,1.9,1.11-.16,1.41-.32,2.83-.5,4.49.65,1.61,2.1,2.64,4.04,3.03.61,1.48.77,3.2,2.46,3.84,1.13-.89-.37-1.61-.07-2.4.66.12,1.28.23,2.18.39-.37-.8-.58-1.27-.86-1.88.58-.11,1.04-.19,1.54-.28-.16-.39-.31-.76-.52-1.3h1.49c.07-.7.14-1.32.2-1.92.32-.12.6-.22,1.01-.37-.23-.52-.44-.99-.64-1.42,1.38-.71,2.66-1.4,3.98-2.03.41-.19.94-.39,1.34-.28,4.47,1.2,7.07.06,10.45-1.61.7-.34,1.06-1.35,1.68-2.18v-2.44c-.57.33-.95.55-1.25.72.15.66.27,1.23.4,1.79-.11.05-.22.11-.33.16-.4-.53-.8-1.07-1.28-1.72-.38,1.18-.38,1.23.14,2.31-.74-.25-1.29-.43-1.88-.62-.11.32-.21.61-.4,1.16-.27-.51-.48-.91-.83-1.56-.37.78-.52,1.09-.74,1.55-.47-.3-.92-.58-1.21-.76-1.32-.45-2.52-.78-3.64-1.29-.3-.13-.34-.82-.53-1.36.93-.31,1.73-.58,2.7-.91-.19-.5-.38-1.03-.69-1.87.81.51,1.34.84,2.41,1.51-.37-.96-.51-1.35-.67-1.76l.61-.6c.35.19.68.36,1.4.75-.22-.78-.34-1.17-.49-1.69.51-.06,1.12-.12,1.81-.2-.17-.4-.33-.77-.59-1.37h2.32c-.28-.72-.47-1.19-.69-1.75.33-.16.66-.32.99-.48-.34-1.09-.3-2.07.11-2.95-.55-.77-1.14-1.6-1.79-2.5-1.55.31-3.01.59-4.71.93-.14-.2-.46-.65-1.01-1.42,0,.02,0-.47,0-1.15,1.05-.85,1.78-2.14,2.7-3.69-.86,0-1.43-.07-1.97.02-.93.15-1.94-.03-2.49-.58-.73-.73-1.54-.31-2.28-.6-1.21-.47-2.55-.6-4.25-.96.59.7.92,1.09,1.35,1.6-.29.35-.59.71-.85,1.02-.25,0-.45.06-.58,0-1.29-.67-2.5-.49-3.85-.04-2.03.68-3.85,1.66-5.52,2.97-.25.2-.49.41-.77.57-2.15,1.2-3.06,3.32-4.06,5.38-.34.7-.68,1.39-1.01,2.08-.54-.25-.94-.43-1.42-.64v-1.45c1.44-1.65,1.71-4.11,3.49-5.7,1.67-1.49,3.61-2.51,5.46-3.71,2-1.3,4.11-1.87,6.44-2.24-.46-.13-1.04-.13-1.36-.42-.37-.32-.53-.9-.93-1.64.86-.06,1.5-.31,1.92-.1,1.31.65,2.76.55,4.11.95,1.34.4,2.78.53,4.07,1.05,1.76.71,3.54.32,5.42.51.5.29,1.11.64,1.75,1.02v1.63c-.54.76-1.19,1.66-1.94,2.71,2.25-.31,3.6,1.36,5.07,2.53.8.63,1.08,2.01,1.41,3.11.31,1.03-.69,4.24-1.42,5.13-.65.81-1.26,1.66-1.96,2.43-.66.73-1.41,1.39-2.34,2.29,1.71.07,2.38-1.16,3.41-1.75,1.17-.67,2.03-1.48,2.59-2.66h1.51c.17.34.44.67.51,1.03.33,1.84.31,3.65-.04,5.52-.47,2.49-2.2,3.8-4.14,4.88-1.71.95-3.52,1.7-5.61,1.56-2.07-.14-4.16-.03-6.23-.03-.74.96-1.47,1.91-2.21,2.85.05.03.11.05.16.08-.62,1.23-1.25,2.46-2.12,4.17-.77,1.09-1.87,2.65-3.08,4.35,0,.19,0,.6.03,1.04l-.07-.07c-.14.12-.27.23-.41.35l.16.16c.12-.14.23-.27.3-.45l.02-.09Zm-20.5-12.97c.17.17.33.33.38.57.6.64,1.19,1.27,1.73,1.85-.25.41-.4.66-.54.89.99,1.24,2.24.46,3.39.71-.23-1.26-.43-2.31-.64-3.45-1.22,0-2.52,0-3.82-.07l-.5-.5-.5-.5c-.17-.17-.33-.33-.55-.45.03-.03.07-.06.1-.1-.12-.14-.23-.27-.35-.41l-.16.16c.14.12.27.23.45.3l.5.5.5.5h0Zm38.5,118.25c.17-.17.33-.33.15-.2,1.6-1.33,2.85-3.04,3.84-5.12.08-.16-.09-.43-.18-.8-.36.19-.74.26-.86.47-.9,1.68-1.75,3.38-2.45,5.15-.17.17-.33.33-.45.54-.03-.03-.07-.06-.1-.1l-.41.35c.05.05.11.1.16.16.12-.14.23-.27.3-.45Zm-28.5-111.76c-.17-.17-.33-.33-.46-.5-.29-.53-.56-1.05-.87-1.62-.32.18-.51.29-.73.41.24.83.65,1.33,1.56,1.21l.5.5c.17.17.33.33.49.56.49.65.98,1.35,1.52,2.01.18.22.51.32,1.06.65-.69-1.43-.48-3.23-2.57-2.71l-.5-.5h0Zm-17.45-1.96s-.07-.06-.1-.1c-.14.12-.27.23-.41.35l.16.16c.12-.14.23-.27.24-.5.03.03.07.06.1.1.14-.12.27-.23.41-.35-.05-.05-.11-.1-.16-.16-.12.14-.23.27-.24.5Zm236.99-64.96s-.07.06-.1.1l.35.41s.11-.1.16-.16c-.14-.12-.27-.23-1.67-.87.34.38.44.57.51.56.24-.03.47-.14.7-.22-.3-.09-.6-.17.05.18Zm-220.53,30.87c0-.14-.01-.29-.02-.43-.33.06-.65.13-.98.19.01.11.03.21.04.32.32-.03.64-.05.89-.51.03.03.07.06.1.1.14-.12.27-.23.41-.35l-.16-.16c-.12.14-.23.27-.28.84Zm8.25,46.87c.31-1.14.52-1.88.72-2.63-.45-.22-.9-.44-1.64-.8.32,1.2.57,2.14,1.16,3-.23,1.46.84,2.35,1.22,3.67.3-.62.5-1.01.67-1.36-.58-.71-1.17-1.43-2.13-1.89h0Zm-39.22-35.82l-.1.1c.12.14.23.27.35.41.05-.05.11-.1.16-.16-.14-.12-.27-.23-.36-.3-.22-.6-.43-1.17-.7-1.9.74-.31,1.43-.6,2.22-.94-.42-.75-.83-1.47-1.35-2.39-.69,1.84-1.68,3.37-1.11,5.23.35,0,.6,0,.89-.05Zm227-49.39s-.07.06-.1.1c.12.14.23.27.35.41.05-.05.11-.1.16-.16-.14-.12-.27-.23-.53-.3.54-1.64,1.07-3.26,1.6-4.88-.76.09-1.32.34-1.49.76-.51,1.19-1.16,2.38-1.02,3.75.01.13.16.25.25.38.16,0,.33,0,.78-.05h0ZM70.02,182.79c2.12-.05,1.12,1.97,1.89,2.7-.14.2-.25.34-.39.54h2.66c-1.26-.99-.2-2.32-.79-3.24-1.15,0-2.26,0-3.39.46h-1.34v2.81h1.35c-.31-.68-.31-1.77,0-3.27h0Zm-11.5-99.35c-.09,1.17.86,1.52,1.68,2.06.72-.74,1.38-1.37,1.98-2.06.21-.24.25-.62.43-1.13-1.55.43-2.81.78-4.47,1.09.44-1.83,2.1-1.77,3.56-2.28-1.25-1.02-2.33-1.9-3.4-2.76-.33.33-.5.5-.87.87.22,1.29.46,2.73,1.08,4.22h0Zm-15.83-24.43c-1.71.48-3.09,2.57-3.14,4.61.6.84.98,1.37,1.59,2.23.39-.55.65-.93.69-.97-.15-1.66-.28-2.98-.43-4.59.48-.47.99-.98,1.6-1.73,0,.07-.02.14-.02.21.53.16,1.07.3,1.6.48.67.23,1.32.33,2-.07-.1-.31-.17-.52-.2-.62-1.19,0-2.28,0-3.7.46h.01Zm13.38,157.51s-.07.06-.1.1c.12.14.23.27.35.41l.16-.16c-.14-.12-.27-.23-.62.13.62-2.34-.8-3.67-1.46-5.21-.64-1.49-1.7-2.8-2.82-4.55v3.13c1.35,2.1,2.7,4.2,4.48,6.16h0Zm1.74-154.7c.34.38.44.57.51.56.24-.03.47-.14.7-.22-.3-.09-.6-.17-.43.22.73.45,1.17.73,1.61,1.01.53.33,1.1.62,1.55,1.04.18.17.11.61.2,1.25-1.94-1.05-3.56-1.93-5.17-2.8-.27.27-.5.5-.73.72.8,1.72,3.55,1.41,4.05,3.99-1.26-.81-2.2-1.45-3.19-2.01-.53-.3-1.13-.49-1.72-.66-.19-.06-.44.08-.62.12v1.21c1.62,1.07,3.18,2.09,4.7,3.09.74-.89,1.42-1.79,2.18-2.61.76-.82,1.62-1.53,2.57-2.18.83-.56,2.04-.84,2.4-2h-2.84c-.09.37-.15.6-.23.93-1.28-1.33-2.85-1.03-5.56-1.64l.02-.02Zm120.79-43.75c.36-.5.66-1.01,1.06-1.45,2.96-3.28,6.91-4.51,11.09-5.07,1.28-.17,2.45-.61,3.94-.74-4.68-1.78-9.11-1.75-13.61-.11-.45.45-.98.98-1.53,1.53.15,1.99-1.52,3.68-1.6,6.97.38-.34.57-.44.56-.51-.03-.24-.14-.47-.22-.7-.09.3-.17.6.31.08h0Zm-122.58,58.3c-1.34-.19-2.26-1.09-3.18-1.94-1.04-.96-2-2-3.02-2.97-.12-.11-.44-.02-.73-.02v1.13c1.94,2.15,3.87,4.26,5.76,6.4.16.18.1.54.22,1.24-2.21-2.46-4.54-4.14-6.09-6.59-.23-.37-.71-.58-1.12-.9-.3.37-.51.62-.77.93-.05,1.47.19,2.55.73,3.26,1.47,1.96,3.02,3.87,4.37,5.91.59.89,1.24,1.67,1.98,2.41,1.34,1.36,2.81,2.61,4,4.09.55.68,1.07,1.2,1.9,1.46-.03.03-.07.06-.1.1.12.14.23.27.35.41.05-.05.11-.1.16-.16-.14-.12-.27-.23-.45-.3-.05-.47.05-1.06-.19-1.39-.67-.9-.14-1.71.02-2.66-1.78-.46-2.44-2-3.11-3.49-.47-1.04-.47-2.23-1.16-3.23-.24-.35-.12-1.2.16-1.59.5-.71.16-1.42.67-2.03.22-.96.08-1.95.13-2.88-.39-.16-.68-.28-.96-.4-.81-.34-1.35-.86-1.81-1.69-.43-.77-1.44-1.22-2.2-1.8-.11-.09-.23-.16-.32-.21-.45.28-.88.55-1.34.84,2.38,1.84,4.19,4.02,6.12,6.07h-.02Zm39.5,137.71c-1.67,0-3.35.14-5-.04-1.67-.18-3.18.49-4.8.56-2.68.12-5.41-.51-8.04.48-3.04-.25-6.03.31-9.04.49-1.08.07-2.24-.2-3.09.82,1.25,1.03,2.51,2.05,3.77,3.09.12-.25.28-.59.39-.82,2.43-.2,4.77-.39,7.12-.59.08,0,.2.03.25,0,.92-.76,2.02-.39,3.05-.5,1.1-.12,2.19-.37,3.29-.48,2.01-.2,4.07-.15,6.02-.59,1.03-.23,2.09-.18,3.04-.48,1.13-.35,2.58-.45,2.99-1.98.03.03.07.06.1.1.14-.12.27-.23.41-.35l-.16-.16c-.12.14-.23.27-.29.45h0Zm-39.47-117.25c.2.57.4,1.14.61,1.75-.8.61-1.48,1.13-2.07,1.58.23.51.45,1.01.68,1.52.56-.47.76-.59.91-.77,1.56-1.86,3.47-2.99,5.96-3.1.3-.01.59-.46.88-.71-.82-.82-1.66-1.53-2.33-2.37-.58-.72-.96-1.59-1.43-2.39-1.29.13-1.16-1.45-2.21-1.81-.76-.26-.87-1.46-1.89-1.92-.82-.36-1.27-1.54-1.89-2.36-1.63.73-3.03,1.51-3.87,2.98-.34.6-.61,1.24-.88,1.87-.8,1.85-.6,3.68-.03,5.57.47,1.59,1.49,2.52,2.99,3.19.79-.04,1.66-.09,2.75-.14-1.01-.7-.64-1.48-.68-2.16.25-.26.49-.49.71-.72h1.79Zm107.47,38.91c-.43.97-1.52,1.04-2.27,1.41-2.27,1.1-3.37,3.03-3.65,5.21-.35,2.75-.08,5.57-.08,8.54,1.34-.32,2.41-.57,3.26-.77.32-1.38.58-2.61.9-3.82.25-.97.44-1.99.9-2.86.67-1.26,4.42-3.56,5.94-4.26,2.69-1.23,5.6-.88,8.39-1.4,2.29-.43,4.67,0,7.04-.47,2.08-.42,4.31-.13,6.47-.08,2.2.06,4.31-.86,6.53-.51,2.21.35,4.35-.41,6.52-.58.81-.06,1.8-.14,2.51-.49.95-.46,1.87-.34,2.64-.43,2.2-1.32,4.27-2.55,6.31-3.78v-1.62c-.67,1.17-1.99.91-2.93,1.37-2.71,1.32-5.56,2.2-8.64,2.04-.5-.03-1.16-.21-1.47.04-.82.66-1.73.54-2.56.42-1.04-.14-1.84.51-2.79.55-1.77.08-3.51.08-5.3.4-2.86.51-5.83.53-8.76.57-5.66.08-11.31.02-16.97.02.82-.78,1.84-1.01,2.94-1h7.24c1.92,0,3.84.11,5.74-.03,1.93-.14,3.83.26,5.83-.33,1.76-.53,3.79-.13,5.7-.13.17,0,.38.07.49,0,1.02-.7,2.19-.55,3.3-.46,1.16.09,2.2-.38,3.29-.5,2.09-.24,4.19-.35,6.28-.53.22-.02.43-.18.66-.22,1.62-.27,3.02-1.25,4.6-1.54,1.8-.34,2.42-1.53,3.17-3.34-1.34.58-2.34,1.03-3.35,1.46-1.29.56-2.52,1.09-4.01,1.26-1.34.15-2.84,0-4.01.49-1.17.48-2.24.23-3.33.4-1.18.18-2.36.47-3.54.48-6.83.05-13.66.03-20.48.02-.48,0-1.04.05-1.42-.18-1.1-.64-2.42-.56-3.32-.2-.92.37-1.74.36-2.59.34-.62,0-1.17-.31-1.85,0-.62.28-1.49-.28-2.05.48-1.36-.23-2.34.82-3.56,1.05-2.5.47-4.94,2.28-6.23,4.74-.71,1.36-1.34,2.77-1.96,4.04v9.11h3.36c.18-.67.79-1.69.51-2.1-.82-1.2-.59-2.52-.33-3.56.4-1.53.31-3.03.38-3.97,1.19-3.54,3.45-4.95,6.52-5.26h.03Zm31-104.79c-.52.16-1.03.32-1.8.56-.57-.79-1.2-1.66-1.71-2.37.55-.62.97-1.1,1.47-1.66h2.14c.72.65,1.34,1.2,2.02,1.82-.49,2.25-1.85,3.59-4.21,4.29-1.03-.8-2.1-1.63-3.31-2.57-1.16-.27-2.51-.94-4.2-.36-.45.63-1,1.41-1.55,2.19-.71,1.03-1.44,2.06-2.11,3.12-.15.24-.1.6-.17,1.18,1.52-1.66,3.18-2.76,3.61-4.75.51.06.85.04,1.14.15s.53.35.76.52c-.71,1.09-1.26,2.04-1.91,2.92-.62.84-1.35,1.61-2.17,2.57.3.5.73,1.2,1.24,2.03.19-.49.29-.78.42-1.11h.87c-.18.86-.34,1.63-.5,2.4.12.03.24.06.37.09.29-.68.59-1.36.89-2.07.22.06.44.12.71.2-.36,1.11-.7,2.17-1.21,3.76.91-.61,1.34-.89,1.82-1.22v-3.21c.07,0,.14,0,.21-.02.3.83.61,1.66.9,2.44.29-.24.54-.46.84-.71-.14-.58-.26-1.13-.47-1.99.71.51,1.2.86,1.4,1.01.43-.17.83-.33,1.12-.44-.5-1.06-.52-1.19-.43-2.25.55.48,1.09.96,1.86,1.63-.27-1.09-.44-1.81-.64-2.62.91.12,1.04,1.39,2.01.79-.31-.43-.65-.84-.91-1.3-.06-.11.16-.37.32-.71.65.48,1.2.89,1.45,1.08.55-.26.91-.43,1.02-.48-.05-.82-1.39-.99-.44-2.07.62.46,1.18.87,1.75,1.29.57-.73.53-1.28-.04-1.81-.02-.02.12-.21.23-.39.47.21.95.42,1.81.8-.3-.9-.48-1.44-.7-2.1.34-.05.63-.09.88-.13.18.43.31.75.55,1.32.52-.48.83-.77,1.5-1.4-.52-.32-.89-.56-1.27-.79.04-.05.08-.11.11-.16.53.2,1.06.39,1.6.59-.16-.66-.83-1.18.24-1.6-.03.03-.07.06-.1.1.12.14.23.27.35.41l.16-.16c-.14-.12-.27-.23-.45-.3-.13-.17-.25-.47-.4-.48-.75-.05-1.5,0-2.24-.04-.12,0-.24-.18-.36-.27,0-.16.02-.32.03-.58.47-.1.96-.2,1.67-.34-.74-.48-1.24-.81-1.84-1.19.22-.32.39-.58.52-.77-.18-.28-.37-.59-.53-.85-.35.26-.51.38-.39.29-.45-.19-.74-.32-1.13-.49.9-.38,1.7-.5,1.66-1.73-.42-.33-.99-.78-1.55-1.23.4-.4.7-.7.91-.9-.13-.49-.46-1.02-.31-1.33.66-1.45.35-3.32,1.98-4.29-.63-.63-1.33-1.07-1.65-1.71-.37-.76-1.11-.99-1.61-1.54-.35.33-.7.66-1.04.98-1.97.03-3.95-.25-5.8.52-1.16.49-2.41.61-3.58,1.01-1.08.37-2.24.81-3.09,1.54-1.55,1.32-3.24,2.55-4.25,4.4v1.44c-1.24.93-2.56,1.93-3.95,2.97-.17,1.27-.46,2.68-.52,4.11-.06,1.49-1.13,2.9-.44,4.21.94-.12,1.78-.22,2.43-.3,1.14.81,2.1,1.49,3.23,2.3.63-.96,1.21-1.79,1.74-2.66,1.21-1.98,2.76-3.37,5.28-3.06.85.11,1.68.36,2.53.55,1.1,1.01,1.98,2.37,3.93,2.47.37-.44.82-.98,1.46-1.49.53-.46,1.16-.93.61-2.04-.57-.32-1.24-.7-1.89-1.07-.96,1.08-1.19,2.06-.68,2.57.34-.32.69-.65,1.14-1.07.28.55.52,1.03.62,1.58l.04-.02Zm-108.5,172.63c0,.69-.54.49-.9.49-2,.02-4.04-.23-5.98.1-1.1.19-2.2.47-3.3.38-1.16-.1-2.2.34-3.3.51-1.36.22-2.76-.28-4.11.33-1.24.56-2.69-.12-4,.62-.54.3-1.48-.1-2.53-.22-.42,1.03-.94,2.28-1.56,3.78.67,0,1.08.06,1.45-.02.45-.1.87-.47,1.29-.46,2.29.1,4.54-.16,6.79-.51.7-.11,1.36-.1,2.07-.45,1.05-.51,2.28-.61,3.51-.6.93,0,2,.49,2.8-.45,1.56.06,3.15-.19,5.22.26-2.79.28-5.03.5-7.27.72-.33.03-.69-.05-.98.06-1.73.68-3.51.98-5.36.94-.33,0-.79-.14-.98.02-.94.81-2.22.05-3.02.55-1.06.65-2.08.24-3.08.43-.68.13-1.36.32-2.02.48-.18-.16-.35-.31-.53-.47-.38.8-.9,1.54-.8,1.82-.31.82-.47,1.22-.62,1.62-.41.81,0,1.94-.97,3.33.9-.35,1.43-.47,1.86-.74,1.06-.67,2.09-.81,3.61-.56.73.12,1.64.29,2.22-.03,1.87-1.02,3.93-.18,5.9-.84,1.68-.57,3.66-.08,5.52-.54,1.41-.35,2.98,0,4.48-.09,1.52-.08,3.03-.32,4.54-.48,1.35-.15,2.68.13,4.07-.41,1.08-.42,2.47,0,3.71-.11,1.18-.1,2.34-.4,3.19-.55,1.06-1.05,1.97-1.96,2.93-2.93-1.71.07-3.49-.25-5.19.5-4.2-.25-8.34.86-12.54.51-.58-.05-1.33-.23-1.72.04-.84.59-1.72.53-2.57.42-1.03-.14-1.85.48-2.8.53-1.61.08-3.18.03-4.81.42-1.69.4-3.5.16-5.29.5-1.76.33-3.51.74-5.4,1.02-.03-.32-.06-.63-.06-.94.51-.17,1.02-.43,1.54-.48,2.34-.21,4.73-.16,7.02-.59,1.36-.26,2.9.02,4.01-.52,2.02-.99,4.27.45,6.04-.97.34.26.58.44.93.71.28-.24.5-.59.75-.61.91-.07,1.84.04,2.74-.05.94-.09,1.86-.39,2.79-.47,2.34-.2,4.74.4,7.03-.51,2.7.27,5.33-.34,8.1-.62.31-.52.65-1.11.94-1.62-.23-.29-.44-.55-.69-.87-1.8.82-3.68.59-5.54.61h-3.75c-.41,0-.87-.08-1.22.07-2.22.95-4.46.18-6.69.2,2.38-.45,4.81-.38,7.2-.65,2.07-.23,4.15-.71,6.27-.63,1.69.06,3.39.13,5.18-.8.23-.69.92-1.36.87-2.44-.05-.89.95-1.71.24-2.75h-2.2c-.83,0-1.72.18-2.48-.05-.69-.21-1.23,1.03-1.85.06-.53.8-1.34.43-2.04.48-.75.05-1.5,0-2.25,0-.83,0-1.67.07-2.49-.02-.61-.06-1.34.36-1.96-.36,3.64-.21,7.13-.41,10.63-.62.3-.02.59-.08.89-.12-.96-.34-1.97-.24-2.86-.53-1.68-.55-3.36-.93-5.14-.86-1.5.06-3,0-4.49,0-.42,0-1-.18-1.22.03-.95.91-2.06.29-3.07.47-1.01.18-2.02.39-3.04.49-2.01.2-4.02.34-6.03.51-.16,0-.37,0-.46.08-.9.89-2.15,0-3.01.55-1.11.72-2.25.16-3.35.36-.09.02-.21-.15-.31-.23.28-.29.51-.52.73-.75,1.27,0,2.64.32,3.73-.09,1.23-.46,2.5-.03,3.54-.48,1.22-.53,2.38-.32,3.57-.43.17,0,.35.04.5,0,2.38-.79,4.83-1.07,7.33-1,.19,0,.39-.13.74-.25-1.18-.46-2.18-.84-3-1.16-.77.17-1.37.37-1.98.41-.91.06-1.94-.24-2.72.09-.87.37-1.71.51-2.57.41-1.01-.12-1.87.54-2.79.49-2.61-.16-5.07.39-7.61,1.22-1.19,2.14-3.13,3.96-3.45,6.79,1.55,0,3.14.34,4.48-.1,1.32-.43,2.56-.25,3.82-.4s2.52-.45,3.79-.47c3.1-.04,6.16-.84,9.29-.55.4.04.83-.35,1.16-.51.38.22.65.38.92.54h.02Zm65.51-93.31h-1.76c-.24.24-.47.47-.98.98,2.48.66,3.25,3.09,4.97,4.47.6-.38,1.07-.66,1.52-.97,1.09-.77,2.49-1.11,3.3-2.29,1.48-.1,2.49-1.23,3.73-1.83,1.73-.84,3.47-1.71,5.12-2.77,1.85-1.18,3.59-2.52,5.45-3.7,1.98-1.26,3.9-2.63,6.04-4.08.35-1.85,1.35-3.8,1.12-6.01-.03-.27.27-.56.32-.85.32-1.87,1.56-3.35,2.23-5.06-3.09-2.03-6.28-3.79-8.88-6.36-1.06.63-2.69.32-2.86,1.91-.55-.29-1.09-.61-1.66-.85-.17-.07-.44.09-.73.16v1.77h-.82c-.07-.49-.14-.95-.21-1.39h-1.44v2.35c-.54-1.08-.87-1.74-1.17-2.33-.45.23-.86.44-1.36.7v2.15c-1.39-.4-.67-1.67-1.08-2.49-.26.23-.43.39-.51.46-.45-.15-.84-.27-1.17-.38-.24,2.43-.47,4.65-.69,6.92h6.32c1.28-1.28,2.54-2.5,3.75-3.76,1.16-1.21,2.27-2.47,3.23-3.51.61.42,1.2.82,1.87,1.27-.25.33-.44.57-.54.72.14.44.27.83.46,1.43-.59-.33-.92-.52-.82-.46-.6.6-1.02,1.02-1.42,1.42.04.16.11.5.27,1.18-.68-.31-1.01-.47-1.25-.58-.47.37-.97.76-1.34,1.06.22.85.39,1.49.64,2.45-.8-.58-1.29-.93-1.53-1.11-.54.3-.9.5-1.16.65.16.87,1.1,1.46.26,2.26-.33-.33-.63-.62-.71-.71-.47.37-.94.73-1.34,1.04.32.46.63.9,1.06,1.51-.5.09-.78.14-1.04.19-.18-.43-.31-.76-.51-1.23-.87.5-1.34.96-1.17,1.9.29.34.62.73.95,1.12-.07.09-.15.18-.22.27-.63-.39-1.25-.77-2.08-1.28-.26.61-.59,1.08-.63,1.58-.05.52.18,1.07.36,1.96-.77-.58-1.24-.94-1.47-1.11-.52.4-.95.73-1.29,1,.29.59.55,1.1.8,1.6-1.18.69-.68-.88-1.6-.84-.2.18-.54.48-.93.82.21.71.4,1.35.7,2.36-.72-.58-1.17-.95-1.69-1.37-.42.46-.73.79-.87.95.19.73.3,1.2.42,1.67-.15.1-.31.2-.46.29-.23-.43-.46-.86-.61-1.13-.53.42-.98.77-1.24.99.13.57.21.96.34,1.53-.47-.34-.72-.53-1.12-.82-.41.35-.76.65-1.02.88.46.95.77,1.59,1.34,2.76-1.07-.72-1.65-1.1-2.19-1.46-1.08.35-1.04,1.18-.99,2.02v-.02Zm52.72.35c-.78-.67-1.25-1.07-1.66-1.43-.63.34-1.1.6-1.47.8-.37,1.09.18,1.9.62,2.75.94,1.81,1.91,3.59,1.82,5.75-.03.6.46,1.23.71,1.86.93-.46,1.69-.83,2.61-1.27.3.67.56,1.23.77,1.68-1.42,2.01-3.45,2.36-5.4,2.42-2.12.06-4.15.9-6.29.59-.31-.04-.67.33-1,.5-.3-.2-.57-.37-.77-.5-.64.16-1.49.64-1.8.4-.93-.71-1.9-.32-2.84-.43-.58-.06-1.44.23-1.7-.06-.9-1.01-2.36.17-3.13-.95-1.17,0-2.34.06-3.5-.02-1.1-.08-2.19-.37-3.29-.47-4.36-.41-8.67.66-13.04.53-1.07-.03-2.27.15-3.21.64-1.8.92-3.73,1.46-5.55,2.29-2.09.96-3.71,2.44-5.36,3.98-1.38,1.29-1.78,3.23-3.23,4.42-.04.03,0,.16,0,.24-.45,1.84-1.19,3.61-1.01,5.57.21,2.17-.28,4.36.46,6.54.5,1.48.5,3.12.74,4.87.49-.29.87-.52,1.34-.8-.18-1.36-.41-2.68-.51-4.02-.09-1.16-.08-2.33,0-3.49.08-1.18.39-2.35.46-3.54.06-1.04.23-2.02.47-3.05.72-3.02,2.8-4.9,5.06-6.75,1.52-1.23,3.32-1.68,5.07-2.27,2.84-.96,5.71-1.89,8.79-1.7,2.35.14,4.69-.09,7.06.42,1.91.41,3.99.22,5.98.05,2.07-.18,4.02.47,6.04.58,3.46.19,6.84-.8,10.29-.55.08,0,.18.03.25,0,2.29-.91,4.78-.86,7.15-1.37,2.31-.5,4.42-1.02,6.2-2.6.1-.09.43.09.69.16-.09,1.01-.81,1.41-1.5,1.82-1.43.84-3.02,1.22-4.63,1.48-1.41.23-2.83.45-4.24.67-1.29.2-2.53.98-3.88.81-1.51-.19-2.84.62-4.3.53-3.43-.22-6.86.35-10.31-.42-1.91-.42-3.99-.21-5.98-.04-2.07.18-4.01-.58-6.04-.54-2.73.06-5.51-.3-8.08,1-2.75.04-5.17,1.14-7.44,2.53-1.16.71-2.31,1.4-3.2,2.61-2.63,3.56-2.49,5.98-2.91,9.28-.24,1.88-.09,3.82-.02,5.73.03.92.29,1.84.45,2.83.81-.05,1.42-.08,2.03-.12,0-2.09.13-4.01-.03-5.91-.23-2.75.68-5.12,2.03-7.4.77-1.31,1.53-2.66,2.8-3.55,3.23-2.25,6.98-3.29,10.79-3.43,6.9-.26,13.83-.08,20.74-.06.62,0,1.21.05,1.86.31.8.32,1.87-.02,2.82-.1.39-.03.77-.19,1.15-.22,2.43-.15,4.89.31,7.3-.47.75-.24,1.66.03,2.49-.06.77-.08,1.53-.31,2.29-.48.68-.16,1.35-.39,2.04-.49,1.41-.2,2.86-.49,3.85-1.5.58-.59,1.23-.32,1.87-.71-.24-3.77-2.11-7.07-3.62-10.38-1.35-2.95-3.61-5.49-6.02-8.37-.28.66-.44,1.05-.63,1.51.04.09.2.52.5,1.33v.04Zm3.65-42.96c-.35-.5-.58-.83-.9-1.28v-2.29c-.5-.25-.98-.5-1.45-.73-1.24.67-2.51,1.27-3.67,2.03-1.07.7-2.02,1.58-3.01,2.38-.13.1-.28.22-.34.36-.71,1.88-2.84,2.64-3.55,4.52-1.04.36-1.32,1.42-1.94,2.15-.72.84-1.38,1.74-2.01,2.66-1.53,2.27-3.03,4.56-4.62,6.96,1.22,1.14,1.95,2.5,1.52,4.23-.53.53-1.06,1.06-1.68,1.68h-2.15c-.52.74-1.24,1.39-1.48,2.19-.59,1.96-.9,4-1.09,6.04-.11,1.2.8,2.28.53,3.52,0,.04.11.12.14.15.63.07,1.24.15,2.33.27-.86.63-1.35.95-1.78,1.32-.16.14-.2.41-.3.62.26.28.49.51.64.67.57-.12,1.07-.26,1.58-.31.12-.01.27.31.46.54-.58.41-1.09.79-1.89,1.36.96.34,1.61.57,2.35.84-.4.97-1.26,2.06.46,2.76.24-.05.56-.08.85-.19,2.27-.82,3.9-2.86,6.36-3.34,3.13-2.19,6.63-3.68,9.94-5.53,2.11-1.18,4.31-2.36,5.98-4.48-.31-.33-.58-.62-.93-.98h-2.24c-.17-.49-.33-.94-.57-1.62,1.21.27,2.03,1.09,3.01.45v-1.53c-.51-1.19-2.52-.33-2.41-2.05.15-.08.31-.24.42-.2.29.09.56.27.84.41.97-.51.74-1.41.66-2.13-.58-.38-1.03-.68-1.68-1.1.68-.12,1.14-.2,1.74-.31-.08-1.4.28-2.83-.61-4.12.46-.19.74-.3,1.06-.43v-2.64c-.34-.12-.63-.23-.94-.35.02-.26.05-.48.09-.92.49.19.87.34,1.21.47.23-.54.62-1.1.66-1.68.04-.66-.25-1.33-.37-1.88.54-.4,1.03-.75,1.53-1.12-.25-.77-.45-1.4-.78-2.43.53.42.7.55,1.04.83.4-.92.78-1.81,1.16-2.68-.36-.44-.69-.82-1.36-1.62.91.34,1.3.48,1.68.63.47-1.16.55-2.43.23-3.8.41.16.79.32,1.16.46.29-.61.52-1.1.76-1.61-.34-.6-.7-1.19-1-1.82-.07-.15.11-.42.27-.94.38.58.65.97,1,1.5.51-.88.9-1.55,1.24-2.13-.24-.52-.41-.92-.64-1.42.65-.1,1.11-.17,1.45-.22.23-.48.39-.82.59-1.23-.25-.47-.27-.99-.07-1.58.12.12.24.24.51.51.03-1.31,2.11-1.94.74-3.4.7-.29,1.34-.55,2.06-.85-.26-1.03-.49-1.86-.66-2.7-.04-.2.1-.44.15-.62.38.2.71.38,1.1.59.36-1.54,1.45-2.9.07-4.32.5-.24.84-.4,1.14-.55v-1.04c-.35-.17-.68-.34-1.26-.62.51-.35.84-.58,1.23-.85v-1.13c-.5-.08-.96-.15-1.65-.25.71-.52,1.24-.91,1.98-1.45-.47-.32-.81-.55-1.15-.79-.15.15-.27.27-.38.39-.24-.24-.47-.47-.89-.88v-2.63c-.42.58-.71,1.05-1.08,1.45-.1.11-.43.02-.84.02.14-.71.26-1.32.36-1.85h-1.73c-.07.7-.13,1.31-.2,1.92-.34-.02-.51-.04-.77-.05-.07-.44-.14-.89-.23-1.47-.48.03-.93.06-1.38.09,0,.83,0,1.49,0,2.16,0,.07-.21.12-.51.29v-2.23c-.81.28-1.38.48-1.91.66-.06.99-.11,1.77-.16,2.55-.54-.45-.73-.95-.91-1.45-.07-.18-.15-.35-.16-.39-.49.38-.95.74-1.42,1.1.16.63.3,1.17.53,2.07-.79-.56-1.28-.91-1.91-1.36-.3.75-.58,1.42-.9,2.21-.39-.28-.64-.46-.95-.68-.42.51-.88,1.04-1.31,1.55.28.35.44.55.68.85-.63.07-1.03.12-1.51.18-.03.4-.05.8-.09,1.3-1.6.27-2.13,1.71-2.74,2.62.11.78.2,1.35.31,2.16-.62-.52-1-.83-1.56-1.31.25,1.05.42,1.77.59,2.49-.76-.16-1.32-.29-1.99-.43v1.69c.18.1.6.33,1.07.59-1.18.71-1.31-.58-1.98-.62-.22.49-.45.98-.71,1.55.33.36.67.75,1.31,1.47-1.11-.3-1.83-.49-2.51-.67-.27.54-.47.95-.64,1.29.32.48.65.98,1.1,1.64-.9-.16-1.52-.27-2.55-.46.57.91.91,1.44,1.45,2.31-.85-.38-1.33-.59-1.83-.82-.33.42-.62.78-.87,1.1.47.64.85,1.13,1.35,1.81-.52.09-.81.14-1.07.19-.18-.43-.31-.76-.56-1.36-.56.6-.91.98-1.39,1.49.54.24.87.39,1.28.58-.05.4-.1.82-.15,1.21-.61-.39-1.11-.71-1.62-1.03-.72,1.23.22,1.74,1.01,2.69-.97-.17-1.53-.27-2.11-.37-.31.26-.75.63-1.09.92.37.58.7,1.07,1.02,1.57-.09.11-.18.21-.27.32-.38-.15-.77-.29-.73-.28-.54.19-.95.34-1.15.41.25.78.4,1.25.63,1.95-.85-.3-1.39-.49-1.88-.66-.63,1.2.33,1.7,1.18,2.72-1.29-.32-2.01-.5-2.69-.67-.65,1.12.32,1.62,1.02,2.46-1.11.14-1.85-1.07-2.79-.16.33.5.68,1.03,1.19,1.8-.88-.3-1.42-.49-2.26-.78.32.89.52,1.42.86,2.35-.79-.31-1.17-.46-1.63-.65-.37.65-.76,1.32-1.22,2.13,1.86,1.43,3.67,2.82,5.46,4.19.94-1.99,2.41-3.65,3.63-5.45,1.15-1.69,2.35-3.42,3.72-5,1.06-1.23,2.45-2.25,3.19-3.64.77-1.45,2.21-2.12,3.1-3.39.66-.95,1.76-1.65,2.76-2.3.89-.59,1.9-1.04,2.91-1.41.65-.24,1.29-.2,2.05.17,1.17.57,1.81,1.62,2.77,2.32v2.67c-.29.27-.53.49-1.06.97h.03ZM51.33,224.12c-.83-.24-1.59-.07-2.43-.33-2.2-.68-4.46-.27-6.48.81-1.22.65-2.01,1.78-1.87,3.38,2.61.41,5.06-.82,7.57-.42.74-.71,1.69-.58,2.54-.47,1.02.13,1.85-.48,2.8-.52,1.45-.07,2.86-.06,4.31-.44,1.44-.37,3.07.16,4.52-.57,3.19.1,6.33-.79,9.55-.53,1,.08,2.1.35,3.07-.43.25-.2.85-.15,1.22,0,.81.32,1.55.07,2.35,0,1.27-.1,2.54.21,3.8.37,2.54.31,5.16.11,7.74.07.27,0,.54-.28.83-.44.84.4,1.77.39,2.8-.04.26.17.53.34.82.52.4-.2.81-.4,1.21-.6.25.23.43.39.61.56,1.4-.69,4.22-.68,5.59-.09.82-.16,1.43-.4,2.03-.37,2.35.11,4.7.32,7.04.47,4.18.27,8.4-.55,12.54.5,3.54-.36,7.02.57,10.54.5.33,0,.68-.05,1,0,.32.07.62.25,1.05.43-.06-.92-.11-1.69-.17-2.55-.63.25-.97.38-1.73.68.65-1.03,1.05-1.66,1.73-2.75-1,.27-1.49.39-1.98.55-.61.2-1.21.42-1.81.64-.03-.08-.06-.17-.09-.25.59-.58,1.18-1.15,1.89-1.83h1.36c-.34-.77-.59-1.35-.81-1.87-.88.56-1.56,1-2.62,1.67.39-1.62,1.59-2.08,1.86-2.51-.17-.56-.3-.98-.37-1.21-1.24.39-2.22.71-3.2,1.02l-.09-.26c.84-.65,1.68-1.3,2.56-1.98-.62-.55-1.09-.97-1.48-1.32-.91.58-1.66,1.06-2.59,1.66,0-1.65,1.43-1.78,2.16-2.55-.71-.85-1.16-1.8-3.03-1.4-.29.29-.96.96-1.56,1.56v-.94c.55-.63,1.07-1.23,1.63-1.87-.51-.42-.87-.72-1.38-1.14-1.11.78-2.13,1.5-3.4,2.4.24-1.59,1.53-1.98,2.08-3.03-.67-.39-1.33-.79-2.1-1.24-.39.39-.76.7-1.06,1.07-.26.34-.43.75-.67,1.19-.32-.19-.5-.31-.82-.5.43-.55.81-1.04,1.1-1.41v-1.53c-.47-.22-.87-.41-1.31-.62-.71.8-1.44,1.62-2.21,2.48-.16-.15-.31-.29-.45-.42.58-.97,1.12-1.89,1.72-2.89-.93-.34-1.66-.61-2.33-.86-.75.97-1.41,1.8-2.1,2.69-1.07-1.54,1.55-2.06.58-3.48h-1.2c-.43.6-.9,1.25-1.36,1.91-.11-.05-.21-.1-.32-.14.19-.88.39-1.76.59-2.66-1.39-.33-2.37-1.58-4.06-1.03-.38,1.81-.78,3.72-1.22,5.84-1.03,1.78-1.24,4.29-3.19,5.9.5-.04.86-.32,1.26-.38,2.69-.4,5.4-.57,8.09-.98,1.25-.19,2.52.07,3.8.39,2.17.55,3.89,1.15,5.66,2.67.29.25.67.37,1.04.57.41.96.83,1.94,1.21,2.82-.56.86-1.13,1.22-2.09.85-.11-.5-.22-1.07-.42-2-.15-.14-.61-.57-1.04-.96-.42.25-.66.4-.96.58-.08-.53-.15-.98-.21-1.41h-1.25c-.12.35-.23.64-.44,1.26-.42-.96-.71-1.64-.96-2.21h-1.7c-.03.5-.06.9-.09,1.42-.39-.06-.68-.11-1.03-.17v-1.3h-1.83c-.28.48-.55.96-.88,1.52-.36-.55-.69-1.06-1.03-1.57-1.08-.08-1.71.31-1.72,1.5,0,.19-.45.37-.82.65-.11-.72-.18-1.17-.25-1.59h-1.83c-.06.69-.11,1.31-.17,1.98-.37-.07-.6-.11-.83-.15-.05-.46-.09-.85-.14-1.3h-1.99c-.24.65-.47,1.26-.74,1.97-.41-.62-.74-1.13-1.17-1.79-.39.36-.67.62-.95.88-.07.62-.13,1.23-.22,2.03-.4-.7-.68-1.17-.99-1.71-.66.04-1.27.07-1.97.11v1.89c-.32-.02-.55-.04-.8-.05-.08-.5-.15-.96-.22-1.4-.99-.04-1.95-.28-2.4.91.19.38.39.79.62,1.25-.28.14-.47.25-.81.42-.35-.72-.67-1.39-1-2.06-.44.25-.88.5-1.37.78.15.57.29,1.1.48,1.84-1.19-.41-1.19-2.41-2.93-1.49v2.27c-.61-.95-.93-1.45-1.19-1.87h-1.2c-.08.53-.14.96-.23,1.55-.4-.67-.68-1.14-.87-1.47-.88.17-1.63.31-2.42.46.51.75.62,1.53.11,2.54-.52-.96-.96-1.78-1.4-2.59-.41.22-.85.47-1.29.71.04.76,1.12,1.36.16,2.25-.46-.91-.91-1.78-1.33-2.61-.88.29-1.54.5-2.22.72-.08.43-.16.89-.29,1.56-.46-.7-.8-1.21-1.15-1.74-.38.03-.77.06-1.24.09.24.71.42,1.25.64,1.89-1.35.13-1.39-.87-1.74-1.37h-1.29c.18.31.3.53.22.4-.2.49-.31.78-.48,1.2-.37-.94-.53-1.7-1.61-1.7-.1.5-.2,1.01-.41,2.04-.18-.97-.26-1.43-.36-1.94-2.13.2-2.6-2.2-4.27-2.61-.11-.57-.19-1.02-.29-1.54-.34.76-.63,1.43-1,2.26-.45-.93-.78-1.6-1.08-2.21-1.39.17-1.08,1.34-1.5,2.15-.42-.61-.76-1.12-1.11-1.62-.81-.06-1.46.13-1.68,1.21.6.42.86,1.04.25,1.86-.36-.55-.69-1.06-1.04-1.59-.38.02-.77.05-1.14.07-.03.56-.04.96-.07,1.54-.55-.21-.94-.35-1.33-.5-.22.24-.44.47-.64.68.16.58.31,1.11.58,2.05-.74-.43-1.06-.61-1.44-.83-.28.81-.56,1.61-.83,2.4-1.01.41-1.48-.37-2-.88h-.03ZM222.53,54.06c-.65,1.2-1.15,1.95-1.48,2.77-.37.92-1.17,1.71-1.02,2.82-1.06.21-1.09,1.44-1.89,1.92-.06.03-.09.13-.1.2-.5,2.85-2.42,5.14-3.16,7.93-.27,1-.5,2.22-1.06,3.01-.67.96-.99,1.97-1.25,2.99-.55,2.1-1.64,4.09-1.54,6.35-1.45,2.2-.91,4.67-1,7.06-.03.83-.06,1.67,0,2.49.07.79-.21,1.56.28,2.38.37.62.23,1.54.32,2.32.66.42,1.26.79,1.84,1.16v1.22c-.38.16-.7.29-.85.35.85,5.31,3.36,9.63,6.22,13.76.41.03.8.06,1.18.09v1.01c.77,1.29,2.25,1.84,2.64,3.29,1.03-.42.59,1.59,1.87.95,0-1.06.32-2.33-.08-3.31-.5-1.22-.51-2.4-.37-3.56.16-1.36-.57-2.5-.55-3.79.02-1.41.06-2.83,0-4.23-.1-1.85.41-3.74-.47-5.53-.13-.27-.12-.7,0-.98.73-1.62.69-3.2.03-4.84-.16-.4.25-1.02.42-1.64-.68-.61-.46-1.54-.46-2.41,0-4.65-.07-9.3,0-13.95.08-4.67.33-9.33.47-13.99.05-1.8,0-3.61,0-5.83h0ZM26.51,104c1.49,1.88,3.48,2.98,4.9,4.8,1.23,1.58,1.73,3.55,3.12,4.98,1.07,3.3,2.3,6.57,2.03,10.15-.05.67.25,1.37.4,2.1-.63.49-.49,1.28-.4,1.97.22,1.73-.19,3.42-.61,5.01-.49,1.83-1.49,3.54-2.43,5.21-1,1.76-2.09,3.51-3.35,5.09-1.1,1.37-2.1,2.81-3.21,4.15-1.07,1.3-2.26,2.49-3.31,3.84-1.51,1.94-3.09,3.8-4.42,5.91-2.96,4.68-3.97,6.5-5.13,10.35-.93,3.1-1.88,6.24-1.58,9.59.16,1.81.02,3.66.04,5.48,0,.48-.04,1.03.17,1.42.85,1.58.63,3.54,1.82,4.99-.16,1.36,1.01,2.08,1.5,3.12,1.08,2.34,3.14,3.97,4.44,6.15,1.92.79,2.84,2.82,4.69,3.74.91.45,1.6,1.34,2.47,1.88.91.57,2.12.77,2.85,1.48.79.78,1.73,1.09,2.64,1.54,2.71,1.34,5.44,2.53,8.42,3.23,1.27.3,2.6.42,3.87.87,1.25.45,2.43-.37,3.62-.67,0-1.09-.06-2.09.02-3.08.07-.89.31-1.76.48-2.69h-.77c-.15.33-.32.67-.54,1.14-1.15-.96-2.42-.62-3.61-.59-.09.75-.17,1.33-.27,2.18-.43-.95-.72-1.58-.98-2.16h-2.26c-.06.69-.12,1.31-.22,2.38-.7-1.99-1.47-3.37-3.43-3.89v2.94c-.11,0-.23.02-.34.03-.27-1.13-.54-2.26-.82-3.45-.45-.18-1-.41-1.78-.73v2.96c-.54-.54-.8-.81-1.02-1.04v-2.58c-.32-.13-.61-.24-.89-.37-.27-.12-.53-.27-.92-.47-.11.82-.21,1.47-.31,2.19-1.4-.95-.61-2.24-.9-3.33-.31-.16-.67-.31-.99-.51-.39-.25-.75-.54-1.33-.97-.09,1.28-.17,2.29-.24,3.37-.41-.12-.63-.18-1.01-.29.22-1.21.43-2.37.61-3.42-.78-.82-1.5-1.6-2.25-2.39-.31,1.18-.61,2.32-.91,3.46-.22-1.63-.65-3.23.29-4.81-.74-.39-1.37-.73-1.94-1.04-.28,1.21-.53,2.27-.78,3.34h-1c.4-1.58.78-3.07,1.18-4.64-.29-.26-.57-.55-.89-.79-.1-.07-.31,0-.47.03-.83.77-.35,2.28-1.79,3.06.15-1.87,1.18-3.38.88-5.51-.87,1.36-1.5,2.35-2.15,3.36-.61-1.65.4-2.79,1.56-3.95-.4-.77-.75-1.46-1.1-2.14-.33-.65-.67-1.29-1.08-2.09-.5.69-.88,1.21-1.45,2v-1.87c.34-.28.91-.75,1.35-1.11-.22-.99-.4-1.82-.61-2.74-.43-.28-.92-.61-1.57-1.04.67-.44,1.17-.76,1.61-1.06v-2.51h-1.82v-.76c.74-.4,1.76.27,2.28-.78.21-.83.46-1.72.66-2.63.05-.21-.07-.45-.1-.65-.69-.07-1.3-.14-1.9-.2.03-.35.05-.51.08-.84h2.16c.35-.35.53-.53.67-.67.12-.94.24-1.85.36-2.77-.6-.18-1.27-.42-1.27-1.4.59.14,1.15.27,1.81.42.29-.77.56-1.48.81-2.12-.43-.52-.75-.91-1.23-1.48h1.96c.61-.9,1.18-1.74,1.72-2.54-.27-.43-.48-.75-.81-1.28.66-.1,1.11-.17,1.21-.18.67-.52,1.12-.86,1.51-1.16-.6-.69-1.12-1.29-1.72-1.98.42-.19.62-.29.8-.37.54.41,1.04.78,1.48,1.11.69-.89,1.29-1.65,1.98-2.54-.4-.28-.73-.51-1.4-.99h2.18c.29-.67.5-1.17.68-1.57-.2-.47-.37-.87-.72-1.69.82.32,1.2.47,1.6.62.99-1.05,2.26-2.02,1.14-4.03.59.23.97.38,1.39.55.55-.81,1.12-1.65,1.71-2.51-.58-.61-1.09-1.14-1.61-1.68.08-.1.16-.2.25-.31.66.2,1.32.4,2.12.64.4-.71.83-1.44,1.27-2.22-.46-.22-.8-.38-1.05-.5v-1.77c.49.79.73,1.19,1.11,1.8.58-1.02,1-1.75,1.36-2.39-.45-.62-.82-1.12-1.53-2.1.95.28,1.35.4,1.84.55.82-.84,1.41-1.89,1.11-3.06-.62-.42-1.06-.72-1.6-1.09.88-.51,2.06.24,2.58-1.18v-1.37c-1.09-.24-1.7-.78-1.81-1.62.73.17,1.45.34,2.25.53v-2.08c-.77-.36-1.47-.68-2.16-1.03-.08-.04-.09-.22-.14-.33.26-.23.49-.45.76-.69.35.17.67.33,1.03.5v-2.05c-.64-.2-1.23-.38-1.84-.57v-.71c.5-.08.96-.14,1.56-.24-.29-.67-.53-1.22-.77-1.78-.45-.09-.9-.17-1.33-.25v-.61c.34-.16.68-.32,1.1-.53-.29-.59-.56-1.14-.78-1.59-.42.14-.81.28-1.34.46.23-.96.4-1.69.57-2.39-.78-.5-1.38-.88-1.9-1.21.15-.64.27-1.2.44-1.92-.78-.28-1.43-.52-2.17-.79.22-.49.44-.97.74-1.61-.8-.34-1.49-.64-2.23-.95l.64-1.28c-.48-.52-.92-.99-1.38-1.48-.58.18-1.07.33-1.79.55.25-.67.44-1.2.62-1.69-.33-.31-.56-.52-.8-.75-.77.57-1.51,1.12-2.24,1.67h0Zm64.47,40.64c-.64-.27-1.26-.53-2.01-.85-.21.62-.39,1.13-.56,1.64.78.39,1.44.72,2.11,1.06-.02.09-.05.18-.07.27-.77-.16-1.55-.33-2.35-.5v2.5h1.88v1.41h-1.49c-.76-.67-1.37-1.21-2.07-1.84v-3.59h-.63c-.6,1.17-1.2,2.34-1.77,3.44-.73.04-1.29.07-1.79.1-.32.71-.61,1.34-.81,1.78-.42.19-.68.31-.96.43,1.1,1.87,2.11,3.61,3.02,5.17-.72.8-1.36,1.52-1.93,2.16.34.59.59,1.02.82,1.42,1.02-.31,1.71-.8,2.17-1.8.72.72,1.29,1.28,1.87,1.86,1.65-.88,3.18-1.72,4.34-3.06,1.85-2.13,4.09-3.84,5.59-6.4,1.37-2.33,3.64-4.14,5.52-6.17.56-.6,1.48-1.13,1.61-1.81.2-1.04,1.19-.9,1.6-1.55,1-1.61,2.2-3.11,3.21-4.68,1.04-1.61,1.99-3.3,3.1-4.85.41-.04.79-.07,1.59-.14-1.43-.42-2.45-.71-3.05-.89-.45-.95-.71-1.5-.94-1.99-.91.47-1.66.85-2.51,1.29v2.14c-.74-.09-.88-1.35-1.83-.78.23.59.87,1.15.22,1.74-.54-.35-1.04-.67-1.92-1.23.19,1.08.3,1.7.4,2.31-1.14.16-1.1-.92-1.58-1.44-.24.24-.48.47-.76.75.19.85.38,1.73.6,2.73-1.25-.39-.93-2.13-2.45-2v1.33c.18.26.66.54.97,1.12h-1.28c-.32-.49-.65-1-.94-1.46-.53.3-.98.56-1.33.76-.1.98,1.49,1.13.72,2.33-.66-.42-1.3-.81-2.34-1.47.3,1.03.47,1.62.62,2.16-1.26.74-.75-.84-1.68-.79-.2.17-.54.48-.93.82.21.71.4,1.35.65,2.2-.72-.45-1.25-.78-1.8-1.12-.78,1.2.41,1.76.8,2.68-.96-.29-1.62-.49-2.28-.69-.33.67-.59,1.23-.78,1.62.11,1.09,1.74.55,1.46,1.88h-.03ZM18.28,57.43c.85-.84-.42-1.57-.19-2.47,1.28-.23,1.28,2.69,2.94,1.15-.16-.54-.31-1.08-.47-1.61.14-.09.28-.17.43-.26.27.43.53.85.85,1.36.81-.49,1.51-.91,2.04-1.23-.13-.6-.21-1-.35-1.65.79.36,1.26.57,1.81.82.15-.63.26-1.13.4-1.73.49.23.81.39,1.03.49.79-.54,1.51-1.03,2.2-1.49.05-.45.1-.85.15-1.31.59-.03,1.15-.07,1.93-.11.21-.57.45-1.22.7-1.91.28,0,.61,0,.55,0,1.01-1.01,1.81-1.81,2.74-2.73-.09-.23-.25-.66-.42-1.1.38-.22.86-.49,1.37-.79.14-1.92-.19-3.6-1.59-4.75-.76.23-1.33.41-1.9.58v4.36c-.55,1.05-.97,1.97-1.49,2.83-.93,1.53-1.76,3.03-3.76,3.66-2.04.64-3.83,2.07-5.87,2.68-2.07.63-4.02,1.68-6.3,1.76-1.18.04-2.44.56-3.49,1.17-1.88,1.08-3.62,2.36-5.11,4-2.24,2.48-3.56,5.42-3.88,8.61-.29,2.88-.47,5.88.41,8.77.45,1.48.73,3.03,1.38,4.42,1.44,3.07,3.07,6.05,4.63,9.06.11.21.28.41.47.55,1.64,1.29,2.5,3.26,4.35,4.45,2.12,1.36,3.78,3.39,6.22,4.33.29.11.52.36.77.55,1.59,1.17,3.18,2.34,5.02,3.7-.01-1.02.59-1.29,1.22-1.58.18-.08.28-.31.31-.35-.41-.51-.77-.96-1.15-1.44-.74.38-1.4.71-2.23,1.13.03-.61.06-1.06.08-1.44.4-.08.63-.13.72-.15-.36-.47-.74-.96-1.17-1.51-.65.19-1.3.38-2.18.65.24-.91.44-1.62.63-2.33-.14.08-.28.16-.42.25-.14-.41-.28-.82-.34-1-.77.23-1.25.37-2.07.62.38-.78.57-1.18.79-1.63-.27-.51-.55-1.02-.78-1.44-1.01-.11-1.16,1.45-2.36.72.21-.35.39-.66.59-.97.2-.32.42-.63.61-.92-.52-.52-.93-.93-1.34-1.34-.51.83-1.06,1.6-2.22,1.41-.18-1.29.95-1.22,1.48-1.74-.02-.38-.05-.77-.07-1.16h-1.18c-.38.27-.66.75-1.44,1.15.31-1.23.53-2.05.72-2.8-.65-.67-1.22-1.26-1.71-1.77-.52.64-1.03,1.29-1.76,2.19v-2.07c.21-.21.7-.7,1.18-1.18-.14-.26-.35-.65-.67-1.27-.3.38-.51.64-.96,1.22-.21.08-.83.33-1.66.66.11-1.59,1.33-1.89,2.31-2.57-.41-.43-.67-.73-.96-.99-.29-.25-.61-.46-.81-.61-1.18.38-.86,2.14-2.4,2.02v-1.02c.71-.86,1.37-1.66,1.98-2.41-.34-.62-.61-1.09-.92-1.65h-1.64c.2-.82.37-1.54.61-2.55-.75.25-1.16.39-1.89.64.51-1,.85-1.66,1.05-2.05-.17-.95-.29-1.63-.41-2.31-.3-.1-.59-.2-.98-.34.25-.54.47-1.02.68-1.49-.46-.26-.82-.46-1.61-.9,2.22-.34,1.94-1.99,2.62-3.01-.4-.43-.73-.78-1.23-1.3.55-.03.94-.05,1.46-.08.4-.46.86-1,1.38-1.61-.5-.25-.83-.41-1.12-.55v-1.33c.57.43,1.05.78,1.36,1.02,1.63-.39.72-1.77,1.34-2.63.39.22.7.41,1.11.64.07-.49.14-.95.24-1.6.49.22.89.39,1.37.61.46-.24.99-.51,1.47-.76.03-.64.06-1.19.09-1.74.53.68.66,1.58,1.98,1.46-.2-.66-.38-1.24-.74-2.41,1,.69,1.5,1.04,2.11,1.45h1.36Zm146.53,92.78c.24-.24.52-.39.58-.6.35-1.4,1.26-2.42,2.33-3.27,1.03-.82,2.03-1.66,3.22-2.34,2.06-1.18,4.37-1.11,6.53-1.74.9-.26,1.85-.43,2.79-.5,3.26-.23,6.54.35,9.8-.46,1.33-.33,2.82-.05,4.23-.05,1.5,0,3,.06,4.5-.02,1.35-.08,2.7-.31,4.04-.48,1.34-.18,2.73-.21,4.01-.59,2.43-.71,4.81-1.63,7.15-2.44.08-1.2,1.12-1.52,1.56-2.27-.01-1.15-.26-2.03-.73-2.65-1.23.98-2.96,1.15-3.99,2.44-1.14-.2-1.84.92-2.83,1-3.04.23-5.98,1.35-9.08,1.03-.33-.03-.78-.14-.98.02-1.03.85-2.21.33-3.31.48-1.18.16-2.36.41-3.54.48-4.34.26-8.72-.5-13.04.51-2.62-.26-5.18.39-7.52.56-3.04,1.23-5.63,2.77-7.48,5.31-.17.82-.39,1.66-.49,2.51-.1.83.13,1.71-.38,2.48.74.98,1.77.54,2.64.59h0Zm-44.3-27.08c.86.34,1.34.53,1.9.75.1-.64.17-1.1.24-1.56h.88c.5-.58.89-1.05,1.26-1.47-.06-.17-.2-.46-.22-.75-.02-.25.09-.51.17-.86l1.11,1.1c3.43-4.19,7.46-7.94,9.05-13.41-.12-.12-.35-.36-.58-.59-1.57-.09-3.01.21-4.33,1.24v2.17l-.31.09c-.3-.65-.6-1.3-.92-2-.14.02-.37.05-.64.08-.04.84-.09,1.62-.13,2.47-.4-.08-.63-.12-.83-.16-.09-.52-.16-.96-.24-1.46-.73.52-1.35.96-1.94,1.38.28.59.47,1,.7,1.48-.35.1-.57.17-.78.23-.35-.54-.68-1.05-1.09-1.68-.46.72-.83,1.32-1.21,1.92.76.62.46,1.41.36,2.47-.46-.92-.8-1.58-.89-1.78-.49.22-1.11.51-1.45.66-.11,1.15,1.52,1.28.75,2.37-.54-.51-1.05-.99-1.56-1.48l-.9.9c-.42-.2-.82-.4-1.17-.56-.23-.71-.44-1.36-.66-2.03.17-.43,1.07-.78-.14-1.51-.49.82-1.35,1.29-1.92,2.26-.63,1.08-1.47,2.02-1.62,3.33-1.83,1.71-1.09,4.18-1.77,6.24-.2.61.36,1.46.57,2.21,1,.21,1.77,1.17,2.32,2.88-.15.18-.29.34-.53.63h2.37c1.09-.73.7-1.52.28-2.42.75.22,1.4.41,1.94.57.41-.31.72-.53.82-.61-.12-.61-.2-1-.28-1.43.5.25.84.41,1.41.69v-2.35h-.02Zm94.04,18.42c-.17-1.31,1.15-2.44.33-3.69-.59.36-1.16.76-1.78,1.08-3.4,1.72-7.14,2.18-10.83,2.79-.73.12-1.5,0-2.24.02-.64.03-1.31.03-1.91.21-.57.17-1.16.13-1.72.21-1.38.22-2.82,0-4.23.09-1.43.08-2.86.38-4.29.46-1.49.08-3-.05-4.49.04-1.43.09-2.84-.16-4.32.39-1.28.47-2.82.22-4.27.51-1.91.38-3.5,1.06-5.17,2.09-1.49.93-1.79,2.59-3.12,3.29.06.52.1.83.16,1.38,2.05-.94,4.09-.66,6.09-.69,1.91-1.7,4.33-2.41,6.57-3.46.62-.29,1.49,0,2.15-.24,3.32-1.17,6.72-1.81,10.24-1.8,4.58.02,9.16.05,13.74-.02,1.6-.02,3.19-.3,4.79-.49.13-.02.24-.28.37-.28,1.49-.1,2.48-1.25,3.95-1.89h-.02Zm-8.27-33.7c.7.82,1.67,1.9,2.57,3.04.62.8,1.07,1.74,1.71,2.53,1.83,2.27,2.25,5.26,3.93,7.62.38.53.53,1.33.53,2,0,1,.36,1.92.8,2.66.54.91-.33,2.03.64,2.74.36,1.85.77,3.68,1.08,5.54.43,2.62-.74,5.15-.5,7.77,0,.14-.09.29-.17.42-.88,1.56-.65,3.52-1.8,5-.15.2-.02.62-.02.95h2.9c.27-1.73,1.1-3.03,2.1-4.25.03-1.13-.16-2.28.5-3.3-.27-2.42.55-4.89-.46-7.29-.16-.39.26-1.02.46-1.71-1.12-.94-.21-2.35-.53-3.47-.59-.46-1.11-.86-1.62-1.26.31-.46.49-.72.74-1.08-.19-.23-.51-.45-.56-.72-.3-1.7-1.14-3.19-1.8-4.75s-1.43-3.06-2.1-4.62c-1.44-3.33-3.41-6.29-6.19-8.66-.19-.16-.34-.37-.54-.52-.12-.09-.28-.12-.56-.24-.34.48-.72,1.01-1.12,1.58v.02Zm-32.12,41.67c1.86.42,3.07-.09,4.32-.24,2.16-.26,4.35-.04,6.55-.46,2.17-.41,4.49-.17,6.73-.07,2.21.1,4.31-.66,6.54-.57,4.58.17,9.16.05,13.74.05h1.67c-.54-.61-.89-1.01-1.35-1.53.93-1,2.04-1.93,1.57-3.44-.37.19-.64.41-.93.47-1.01.19-2.1.33-3,.62-1.23.39-2.55-.04-3.54.46-1.31.67-2.57.27-3.83.41-.82.09-1.67.08-2.5,0-.77-.08-1.53-.44-2.29-.46-2.33-.06-4.66-.02-7-.02-.33,0-.82-.14-.97.02-.94,1.03-2.3.18-3.41.89-.91.58-2.32.37-3.48.6-.99.19-1.99.41-2.93.77-1.86.73-3.69,1.56-5.88,2.5h-.01Zm92.19-115.58c2.44,1.59,4.75,1.64,7.01,2.14,1.11-1.59,2.52-2.94,2.1-5.07-.59-.34-1.05-.63-1.53-.88-.2-.1-.45-.11-.68-.15-2.64-.44-5.1-1.48-7.62-2.34.14.75.46,1.52.36,2.23-.1.72-.63,1.38-.94,2.08-.19.42-.37.84-.49,1.29-.05.2.05.45.09.7h1.7,0Zm-71.41,79c1.26,1.3,1.73,2.85,2.51,4.18.78,1.34.79,3.11,1.09,4.5.95-.19,1.7-.34,2.44-.49-.6-3.1-2.26-5.78-3.69-9.04,2.11,2.01,3.47,4.97,4.4,9.06.63-.2,1.25-.4,1.75-.56-.53-3.72-1.91-7.05-3.47-10.21-1.69.85-3.26,1.66-5.03,2.55h0Zm-6.29.74c2.56-1.42,4.89-3.04,7.45-4.05,2.16-.85,4.15-2.02,6.24-2.97,2.39-1.09,4.61-2.63,6.63-4.41.55.16,1.03.31,1.62.48-.29-.87-.54-1.64-.86-2.61-.54.46-.91.91-1.38,1.15-3.44,1.75-6.81,3.61-10.15,5.54-2.53,1.46-5.26,2.57-7.75,4.08-.85.51-2.13.8-2.47,2.07.26.28.48.52.68.73h0ZM53.04,202.39c.77.75,1.28,1.54,1.53,2.64.43,1.9,1.6,3.49,2.73,5.2.94-2.04,1.82-3.98,2.7-5.9-2.43-2.05-2.64-5.1-3.82-7.89-.61.51-1.14.96-1.58,1.34.63,1.52,1.62,2.74,1.94,4.31.33,1.58,1.54,2.8,2.07,4.41-.39.07-.62.1-.84.14-1.15-2.52-2.29-5.02-3.41-7.48-.51.46-.94.85-1.32,1.19v2.05h0Zm144.45-80.67c.25-2.28-1.14-3.95-1.72-5.85-.3-.98-1.24-1.76-1.8-2.52-1.11.67-2.03,1.22-3.04,1.84.73,1.64,2.83,1.86,3.63,3.58-.07.26-.17.67-.28,1.1-1.47-.95-2.75-1.77-4.38-2.82.31,1.83.55,3.27.77,4.62.86.22,1.8.8,2.32.53,1.44-.72,2.89-.22,4.5-.49h0ZM63.87,85.38c-1.68,1-1.67,2.8-2.21,4.28.36.7.74,1.45.9,1.76,1.17,1.11,2.11,1.17,3.04.43.69-.55,1.55-.67,2.05-1.72.52-1.1.12-2.06.43-3.04-.84-.59-1.61-1.13-2.43-1.71h-1.78Zm112.04-3.9c2.73,2.99,6.3,4.6,9.53,6.97.26-.59.51-1.15.69-1.53-2.05-3.01-4.77-4.96-7.29-6.95h-2.36c-.2.54-.39,1.04-.56,1.51h-.01Zm-93.09,112.07c-3.29.4-6.56-.35-9.8.54-1.16.32-2.47.05-3.89.05-.49.71-1.04,1.51-1.66,2.41,1.62,0,3.12.32,4.37-.09,1.32-.43,2.63.02,3.82-.38,1.35-.45,2.88-.02,3.99-.56,1.32-.64,2.73.08,4.08-.7-.29-.42-.51-.73-.9-1.28h0ZM24.6,31.98c-.32.7-.64,1.4-.96,2.1l-.39-.05c-.11-.65-.23-1.29-.34-1.94-1.96.52-3.91,1.03-5.86,1.54,1.71-.36,2.69,1.38,4.27,1.41,1.5.02,2.98-.34,4.55.36,1.31.58,2.96.4,4.45.55-.12-.13-.24-.26-.36-.39.43-.11.87-.23.9-.24-.25-.55-.46-.99-.61-1.31-.98-.12-1.11,1.43-2.27.77.2-.55.4-1.07.64-1.73h-2.39c-.04.1-.21.55-.39,1.01l-.37-.25c.15-.38.29-.76.44-1.14-.36-.19-.77-.4-1.32-.69h.01Zm40.31,164.11c1.65-2.82,3.81-4.69,5.61-6.88.06-.07-.07-.29-.13-.49h-3.66c-.22.22-.46.46-.74.73.19.85.38,1.72.6,2.71-1.57-.47-.74-1.79-1.27-2.53-.68-.76-1.47-.46-2.3-.39.61,2.19,1.18,4.27,1.9,6.84h-.01Zm5.61-2.93c2.23,0,4.23-.12,6.21.03,1.99.16,3.84-.78,5.79-.51,1.22.17,1.67-.38,1.89-1.52h-1.22c-4.01.1-8.04-.38-12.04.68-.15.31-.35.72-.63,1.31h0Zm85.07-99.98c.59-.4,1.06-.54,1.19-.83.53-1.19,1.2-2.33,1.27-3.69.03-.61.04-1.21.24-1.87.51-1.65.55-3.4-.71-5.07-.37.32-.82.53-.91.84-.29.96-.5,1.96-.62,2.96-.11.89.19,1.9-.14,2.67-.68,1.6-.24,3.13-.32,4.99h0Zm-69.6,95.58h-11.34c-.17.18-.47.46-.73.78-.26.33-.76.51-.83,1.14,4.19-.07,8.28.29,12.34-.73.14-.3.33-.7.56-1.19Zm61.5-76.46c-1.11,1.08-1.08,1.07-.61,2.13.69,1.55,2.19,2.48,2.98,3.95.1.19.35.32.36.33h2.45c-.29-1.03-.54-1.92-.79-2.78-.77-.77-1.8-1.4-2.22-2.31-.51-1.1-1.3-1.15-2.17-1.3v-.02Zm-101.54-20.42v-1.78c-1.02-.39-1.91-.73-2.89-1.11-1.45,2.42-1.28,4.88-.25,7.55,1.36-.8,2.17-1.99,3.46-3.1h-2.91c-.32-.31-.55-.55-.81-.81.21-.23.43-.45.72-.76h2.68Zm57.05,122.17c.95-1.35,2.23-2.72,2.97-4.34.79-1.73,1.08-3.68,1.56-5.55.21-.83.38-1.67.47-2.52.02-.16-.45-.37-.79-.64-.17,1.4-.74,2.44-.75,3.69-.01,1.09-.48,2.27-1.04,3.25-1.1,1.93-1.85,4.18-4.13,5.21-.18.08-.2.5-.35.9h2.06Zm-47.98-2.7c.79.8,1.16,1.17,1.44,1.45.1-.38.25-.95.42-1.6-.99-1.5-2.01-3.1-2.59-4.99-.35-1.13-1.21-2.11-2-3.43-.23,1.14-.39,1.88-.59,2.88,1.07,1.83,2.3,3.95,3.31,5.68h.01Zm-24.73,17.22c3.11-.08,5.98.52,8.72-.7-.39-.61-.77-1.2-1.01-1.58-.99-.23-1.74-.41-2.61-.61-1.66.6-3.43,1.32-5.1,2.89ZM270.53,19.36c2.62.44,5.08,1.1,7.44,2.13.11.05.29-.08.5-.14v-1.55c-1.58-1.32-3.51-1.67-5.38-2.38-.86.49-1.71.98-2.55,1.47-.04.02,0,.16,0,.47h-.01ZM58.59,193.83c.69,2,1.34,3.8,1.93,5.62.22.68.5,1.15,1.28,1.19.21-.82,1.06-1.41.62-2.41-.74-1.68-1.39-3.4-2.03-4.97-.63.2-1.22.38-1.79.56h0Zm-1.96,1.96c.36,1.45,1.14,2.68,1.48,4.11.33,1.4,1.8,2.26,2.2,3.78.21-.7.4-1.32.54-1.8-1.12-2.45-1.68-5.03-3.09-7.23-.4.4-.8.8-1.14,1.13h0Zm169.83-61.15c.12-.87.17-1.87-.06-2.91-1.75.57-3.34,1.08-4.76,1.54v2.31c1.59-.31,3.11-.61,4.82-.95h0ZM52.61,61.88c-.44-1.46-.81-2.7-1.25-4.17-1.4,1.22-2.65,2.31-3.9,3.4.3.3.54.53.78.78h4.37Zm10.71,136.56c.29-1.04.86-1.93.64-2.49-.76-1.89-.83-3.95-1.74-5.95-.47.82-.88,1.56-1.25,2.2.79,2.09,1.51,4.02,2.35,6.25h0Zm158.23-68.41c-.45.72-.38,1.43.22,2.13,1.33-.75,2.8-.92,4.25-.98v-1.68c-.23-.21-.47-.44-.61-.57-1.22.35-2.39.68-3.87,1.1h0Zm-45.14-107.67c.44-3.4,1.14-6.62,2.12-9.86-1.02,0-1.36.47-1.51,1.16-.34,1.59-.76,3.17-.97,4.78-.17,1.33.12,2.72-.51,4-.06.12.13.36.21.58.25-.25.42-.42.65-.65h0Zm49.03,105.75v-1.77c-1.91-.36-3.4.49-5.15,1.26.41.49.7.84,1.02,1.22,1.37-.24,2.69-.47,4.13-.72h0Zm.65,10.84c-1.67-.54-3.08-.02-4.57.49.03.58.05,1.19.09,1.98,1.41-.28,2.62-.52,3.79-.75.26-.64.47-1.17.7-1.72h0Zm-5.63-12.75c1.67-.4,3.1-.74,4.34-1.04-.6-.61-1.15-1.16-1.66-1.68-1.01.3-2.09.62-3.31.98.24.67.42,1.17.63,1.75h0ZM39.68,223.29c-1.07-.72-2.15-1.15-3.33-1.19-.96-.03-1.71.5-2.55,1.58,2.15-.46,3.56.54,5.05,1.33.23-.48.47-.96.84-1.72h0ZM265.03,45.86c1.12-1.92,1.81-3.42,1.5-5.18-.03-.16-.06-.38.02-.48.93-1.18.3-2.46.33-3.7-1.32,1.95-.95,4.33-1.81,6.41-.29.69-.05,1.61-.05,2.95h.01Zm-205.65,8.6c-1.57.02-3.47.59-3.95,1.25,1.53.49,2.86,1.59,4.6,1.08-.02-1.28-.03-1.28-.65-2.33Zm-15.45,45.71c1.16-1.17,2.26-1.97,2.6-3.38-.25-.48-.49-.96-.71-1.38-.93.9-1.88,1.81-2.88,2.77.28.56.55,1.11.98,1.98h.01Zm35.61,85.9h3.29c-.17-1.02-.33-1.97-.47-2.83h-2.83c.69.97.7,1.87.01,2.83Zm-24.1,31.79c-.51-.87-1-1.82-1.61-2.68-.63-.89-1.39-1.7-2.09-2.54.85,2.11.45,4.83,2.96,6.05.28-.32.5-.57.73-.83h.01ZM262.99,45.7c-1.79,2.16-1.72,5.3-1.16,6.97.36-.49.78-1.05,1.16-1.56v-5.41Zm-41.19,90.72c-.1.62-.18,1.19-.29,1.88,1.47-.26,2.7-.48,4.18-.75.12-.46.27-1.03.5-1.91-1.53.27-2.75.49-4.39.79h0ZM46.7,68.98c-.64-1.75-1.15-3.16-1.7-4.66-.96.91-1.58,1.87-1.87,2.9,1.08.53,2.15,1.07,3.56,1.76h0Zm176.76,75.73c-1.07.28-1.98.51-2.88.74-.83.61-.59,1.41-.39,2.25h2.13c.83-.79,1.36-1.63,1.13-2.98h0ZM53.01,67.53c1.66,1.28,3.14,2.41,4.07,3.13.73-.22,1.12-.34,1.54-.46-1.89-1.4-3.58-2.65-5.5-4.07-.05.68-.09,1.06-.11,1.41h0Zm-4.07,37.31v-5c-.43-.2-.82-.38-1.26-.58-.17,1.37-.32,2.54-.5,3.97.3.27.82.75,1.76,1.62h0Zm174.88,39.36c.68-.77,1.75-1.28,1.04-2.4-1.11.21-2.12.39-3.22.6-.34.44-.48,1.04-.42,1.81h2.6Zm54.74-120c-.37-.28-.74-.56-1.3-.99-.27,1.01-.42,1.8-1.07,2.47-.52.52-.5,1.57-.77,2.54.3.2.63.42.96.63,1.58-1.04.74-3.37,2.18-4.66h0ZM38.53,220.69c.95.74,1.76,1.36,2.59,2.01.69-.29,1.3-.56,1.77-.76-.78-.79-1.54-1.54-2.38-2.38-.58.33-1.25.71-1.99,1.13h.01Zm10-134.99c-.93-.56-1.89-1.14-2.88-1.73-.41.45-.83.91-1.32,1.45,1.13.68,2.09,1.26,3.08,1.85.36-.4.74-.83,1.11-1.26.04-.05,0-.16,0-.31h.01Zm221.96-58.08c.17-.04.33-.09.5-.13-.13-1.95,1.93-3.38,1.22-5.94-1.32,1.86-1.94,3.58-2.58,5.31.28.25.57.5.86.75h0ZM52.19,57.02c.29,1.02.72,1.95.8,2.92.08.92.26,1.71,1.06,2.66.21-.76.63-1.47.44-1.72-.67-.88-.3-1.86-.5-2.74-.39-.59-.76-1.16-1.15-1.75l-.64.64h0Zm10.08,17.66c-.73-1.06-1.34-1.94-1.97-2.86-.6,1.2-1.15,2.32-1.87,3.77,1.44-.34,2.54-.6,3.85-.91h0Zm-13.19-6.67c.43-.48.66-.86.99-1.1.69-.49,1.48-.87,1.45-1.93-1.27-.21-2.42.18-3.6-.57.45,1.39.79,2.48,1.15,3.61h0Zm173.19,53.23c-1.48.29-2.62.52-3.94.78.35.5.62.88.95,1.34,1.27-.27,2.53-.55,4.09-.88-.52-.59-.83-.93-1.1-1.24h0ZM41.9,70.21c.9,1.66,1.6,2.93,2.29,4.19.46-.92.9-1.78,1.41-2.78-1.12-.42-2.22-.84-3.7-1.4h0ZM276.14,13.16c-.25.95-.47,1.77-.72,2.7.5.26.94.48,1.56.8v-2.43c.16-.94,1.62-1.52.81-2.72-.54.54-1.07,1.07-1.65,1.65ZM57.68,71.99c-1.11-.65-2.17-1.17-3.13-1.84-.93-.65-1.75-1.46-3.04-1.46,1.75,1.41,3.5,2.83,5.24,4.23.29-.29.47-.47.93-.93Zm204.43-48.11c.29.55.49.91.71,1.33,1.63-.85,1.2-2.66,2.2-3.61.06-.06-.05-.29-.1-.51h-1.09c-.59.97-1.19,1.95-1.71,2.8h-.01ZM41.48,68.72c1.63,1.07,3.19,1.88,5.33,2.14-.33-.56-.43-.93-.65-1.05-1.26-.69-2.56-1.32-3.83-1.97-.28.29-.5.52-.84.88h0Zm17.93-10c.08-.09.16-.18.24-.28-.46-.34-.87-.82-1.39-.98-.66-.21-1.4.13-2.06-.49-.35-.33-1.09-.23-1.87-.37.26.69.48,1.25.7,1.82.92,0,1.66-.04,2.39,0,.67.04,1.33.19,1.99.28h0Zm-8.63,42.62c-.23.23-.47.47-.69.69v2.66c.34.28.64.52,1.09.89.31-.43.54-.75.76-1.07-.83-.64-.19-1.65-.47-2.48-.22-.22-.46-.46-.69-.69Zm7.27-24.88c.26.54.38,1.02.68,1.34.31.33.78.49,1.19.72.36.21.49.8,1.06.77v-2.83h-2.93Zm199.06-14.14c1.51-2.06,1.6-4.4,1.29-7.32-1.03,2.66-.82,5.02-1.29,7.32Zm-192.57,123.06c-.33.35-.66.7-1,1.04.25.25.48.48.67.67.43-.21.83-.41,1.25-.62.69-1.73.79-2.93.15-3.4-.34.24-.71.51-1.07.76v1.54h0ZM274.46,27.93c.2-1.64,1.56-3,1.58-5.42-1.4,1.99-2.06,3.72-3,5.42h1.42ZM77.94,185.55c.14-.81.27-1.53.4-2.3h-1.69v2.95c.86-.05,1.58-.1,2.31-.15v-.3c-.22-.05-.45-.09-1.03-.21h.01Zm131.86-78.78c.45-.29,1.14-.74,1.85-1.2-.35-.68-.61-1.19-.88-1.72-.39.39-.71.76-1.09,1.07-.38.31-.82.56-1.54,1.04.59.28.96.47,1.66.81h0Zm68.52-77.25c.72-1.6,1.67-3.09,1.73-5.05-1.94,1-1.6,3-2.44,4.37.23.22.45.43.71.68Zm-17.17,21.67c-.15-.09-.3-.18-.44-.27-.4.65-.8,1.3-1.19,1.92.07,1.39-.09,2.74.12,4.25,1.62-1.91.2-4.18,1.51-5.9Zm-41.03,67.03c-.26-.47-.59-1.05-.9-1.6-.9.36-1.55.61-2.1.83v1.42c1.16-.25,2.21-.48,3-.65Zm-176.52-30.04c1.03.64,2.13.96,3.47.52-.95-1.07-1.87-1.97-3.47-1.79v1.27Zm2-24.53c1.28,1.65,1.18,3.9,2.31,5.66-.37-2.18-.46-4.41-1.62-6.4-.23.25-.45.49-.69.74Zm236.9-37.59c.52,1.62-1.77,2.67-.73,4.43h.57c.24-1.47,1.18-2.79,1.2-4.43h-1.04Zm-16.29-5.19c-.64,1.6-1.19,3-1.79,4.49.39.09.61.13.89.2.59-1.43,1.16-2.84,1.76-4.3-.22-.1-.43-.19-.86-.39h0ZM52.48,102.45c.16,1.07-.16,2.03.38,3.14,1-.94,1.25-2.03,1.86-3.14h-2.24ZM272.2,27.73c.91-1.88,1.66-3.43,2.47-5.09-.43-.08-.65-.12-.96-.18-.36,1.71-2.09,2.95-1.5,5.28h-.01ZM47.26,63c1.86,1.31,3.55.8,5.23.93v-.93h-5.23Zm38.57,123.16c.75.12,1.44-.07,1.68-.89.14-.49.03-1.06.03-1.54h-2.04c.11.8.21,1.51.33,2.43ZM281.92,25.66c-.08-.09-.16-.19-.24-.28-.37.27-.93.47-1.07.84-.45,1.14-.74,2.34-1.08,3.52-.01.04.1.12.19.22h.56c.56-1.47,1.09-2.88,1.63-4.29h0Zm-25.32-2.41c.8-.32,1.36-.54,1.95-.77-.04-.78-.07-1.38-.1-1.98h-1.22c-.22.52-.49,1.06-.68,1.63-.07.2.02.46.06,1.13h-.01Zm13.83-1.89c-1.53,1.88-1.99,3.43-1.56,5.17.45-1.75,1.89-3.1,1.56-5.17ZM76.32,186.11c-.38-1.18-.67-2.1-.95-2.99-.37.07-.52.1-.75.14v2.85h1.7ZM260.68,23.9c1.2-.74,1.65-1.84,1.61-3.48-1.8.63-1.39,2.2-1.61,3.48ZM42.53,61.24c.11.66-.2,1.44.23,2.25.82-1.09,1.51-2,2.24-2.97-.89-.12-1.7-.32-2.47.72Zm39.62,50.23c.7-.32,1.25-.57,1.78-.8.17-.41.34-.8.53-1.26h-2.31v2.06Zm23.65,88.74c-.29,1.59-1.25,3.1-1.28,5.21,1.57-1.7,1.59-3.39,1.28-5.21Zm-39.34-13.63h1.71c-.28-1.23-.52-2.33-.86-3.81-.33,1.5-.58,2.6-.85,3.81ZM284.39,27.49c-1.02.98-.95,2.17-.77,3.48.87-.89,1.31-2.16,1.23-3.42-.15-.02-.31-.05-.46-.07h0ZM46.39,102.61c.21-1.43.15-2.58.07-4.1-.61,1.2-1.04,2.06-1.52,3.02.43.32.84.62,1.45,1.08Zm15.1-32.29h2.43v-2.6c-.79.84-1.42,1.51-2.43,2.6Zm-30.89-33.69c.29.55.49.95.77,1.49.72-.27,1.44-.53,1.98-.74-.44-.38-.89-.77-1.3-1.12-.39.1-.9.23-1.45.37Zm236.96.34c.1.44.2.84.25,1.07-.12.67-.21,1.24-.38,2.19,1.14-.95,1.65-1.76,1.58-2.86,0-.14-.16-.26-.24-.39h-1.22.01Zm-12.41-15.53c-.08-.16-.16-.33-.24-.49-1.1.19-2.23-.15-3.62.27,1.2.47,2.11.83,3.08,1.21.21-.27.49-.63.77-.99h0Zm-38.91,95.23c.16-.08.45-.21.72-.38.37-.22.72-.47,1.11-.74-.88-.63-1.71-.65-2.49-.05.19.33.37.65.66,1.17Zm1.83,4.01c1.25.25,2.4.24,3.45-.81h-3.45v.81ZM61.24,70.87c-.09.23-.17.44-.28.73.54.48,1.06.95,1.66,1.48.35-.6.61-1.04.86-1.48-.73-.24-1.46-.48-2.24-.73Zm23.08,43.67c-.69.34-1.25.62-1.79.89.38.62.63,1.03.88,1.45,1.03-.4,1.3-1.02.9-2.34h.01ZM286.53,31.8c.11.1.22.2.33.3.38-.25.76-.5,1.16-.76,0-.52.02-1-.01-1.47,0-.13-.16-.25-.25-.37h-.54c-.23.76-.46,1.54-.7,2.31h.01Zm-31.59,33.44v-2.76c-.6,1.4-1.02,2.34-1.39,3.3-.06.16.11.41.19.66.47-.47.88-.88,1.21-1.2h-.01Zm33.27-33.24c.65.46,1.08.77,1.87,1.32-.09-1.1-.13-1.73-.21-2.73-.69.59-1.08.91-1.66,1.4h0Zm-209.44,27.43c.35.86.59,1.46.86,2.13.38-.38.61-.61.91-.9-.04-.38-.09-.81-.13-1.23h-1.64Zm-2.67,91.83c.45-1.1.7-1.73,1.12-2.76-1.02.43-1.62.68-2.17.91.28.49.53.93,1.05,1.85h0Zm-2.61-58.24c.44.66.84,1.25,1.23,1.84.22-.91.47-1.73.02-2.7-.44.31-.75.52-1.25.87h0Zm-24.46-8.09c0-1.43-1.24-1.74-1.73-2.59-.28.28-.52.51-.81.81.79.56,1.57,1.11,2.53,1.78h.01ZM259.9,20.47c-.62,1.12-.8,2.09-.53,2.92.41-.86.82-1.73,1.26-2.66-.31-.11-.53-.18-.73-.26ZM79.62,106.34c1.1,0,1.32-.84,2.19-1.43h-2.3c.04.54.08.98.11,1.43Zm.34,42.23c.45-.38.99-.94.22-2-.44.38-.85.75-1.48,1.3.54.3.89.5,1.25.7h.01Zm-3.34-46.47c.85.13,1.51-.25,2-1.16-.51-.04-.95-.08-1.34-.11-.25.48-.46.89-.66,1.27Zm7.42,81.66c0,.39.05.78-.01,1.16-.06.4-.23.78-.36,1.19h1.19c.62-1-.3-1.61-.82-2.35Zm127.63-75.24c.35-.25.6-.84.2-1.62-.48.26-.95.51-1.95,1.04.76.26,1.15.39,1.74.59h0Zm1.67,2.25c.11-1.32-.4-1.87-1.55-1.66.48.51.87.92,1.55,1.66Zm.97,3.79c1.19-.42,1.78-.68,1.72-1.71-1.08-.14-1.34.46-1.72,1.71Zm-106.45,11.05c1.94.11,2.07,0,1.93-1.32-.59.4-1.17.8-1.93,1.32Zm-41.53-58.71c.52-.34,1.53-.39,1.03-1.57-.83.2-1.39.48-1.03,1.57Zm16.92,77.84c-.52.34-1.53.39-1.03,1.57.83-.2,1.39-.48,1.03-1.57ZM286.66,28.33c-.51.39-.79.55-.98.77-.4.47.18,1.33-.63,1.65.06.06.11.11.21.21.19,0,.41-.02.6-.03.24-.76.46-1.48.8-2.6h0ZM73.6,99.27c.47-.19.9-.29,1.24-.53.17-.12.14-.51.24-.93-.67.05-1.11.08-1.48.11,0,0,0,1.35,0,1.35Zm140.17,11.48l-.36.43c.28.38.56.75.82,1.09.35-.29.58-.49.93-.78-.52-.28-.96-.51-1.39-.74Zm-149.25-43.3c.28.57.47.97.67,1.36.01.03.11.01.31.03.17-.39.37-.82.62-1.39h-1.6Zm46.42,60.11c.11.26.21.52.35.86.77-.36,1.34-.67,1.2-1.61-.58.28-1.02.5-1.55.75Zm145.5-68.05h-.42c0,.48-.02.95,0,1.43s.09.96.14,1.43c.09,0,.18-.03.27-.04v-2.82h.01Zm-169.27,82c-1,.3-1.59.86-.76,1.92.28-.71.52-1.32.76-1.92Zm-17.74-44.51c.69-.5,1.38-.74.95-1.59-.5.27-.97.52-1.52.82.24.32.36.49.57.78h0Zm2.68-7.68v1.79c.48-.66.76-1.04,1.16-1.59-.5-.09-.78-.14-1.16-.2Zm4,129.34c.01.14.02.29.04.43.6-.04,1.21-.08,1.81-.12,0-.1-.01-.21-.02-.31h-1.83ZM41.22,73.01c-.05.9.09,1.31.44,1.23-.06-.17-.19-.53-.44-1.23Zm14.96-13.32c-1.31-.55-1.24-.02-1.02.63.32-.2.63-.39,1.02-.63ZM255.66,22.5h.25v-1.5h-.25v1.5ZM77.99,104.76c-.44.08-.66.12-.97.18.4.26.71.47.97.64v-.82Zm-9.42-39.22c.26-.08.64-.2,1.02-.32-.05-.07-.1-.14-.16-.22h-.86s0,.54,0,.54Zm46.46,66.11v-.25h-1v.25h1Zm-35.59,86.85c0-.14-.01-.29-.02-.43l-.84.18.03.25s.83,0,.83,0Zm-8.53-33.84h-.25v1h.25v-1ZM221.7,38.47h.17v-.5h-.17v.5Zm31,29.94h.17v-.5h-.17v.5Zm-209.33,6.49h-.17v.5h.17v-.5Z"/>
        <path class="cls-1" d="m74.14,83.14c-.09-.83-.14-1.22-.2-1.76-1.13.13-1.96.73-2.82,1.45.34-1.5-.14-3.08,1.04-4.36.44-.48.68-1.21.86-1.87.51-1.82,1.78-3,3.18-4.12,1.35-1.08,2.75-1.96,4.38-2.67,1.65-.73,3.42-.95,5.05-1.66.77-.34,2.03-.54,2.58-.14.78.57,1.62.1,2.28.57-1.11,3.29-1.28,3.08-.4,4.19-.51.09-.97.16-1.61.27.13.39.25.72.43,1.25-.15.07-.5.22-.85.38.08.08-.04-.04-.32-.32-.12.37-.24.75-.39,1.22-.05-.1.11.23.4.8h-2.16c.22.55.37.93.69,1.73-.79-.3-1.17-.45-1.56-.59-.2.19-.44.42-.77.73.18.31.36.64.55.96-.22.22-.46.45-.64.64-.51-.35-1-.7-1.78-1.25v2.53c-.87-.72-1.37-1.69-2.48-1.05-.03.51-.06,1.07-.11,1.95-.5-.45-.87-.79-1.2-1.1h-1.13c-.07.46-.14.91-.24,1.53-.47-.42-.86-.76-1.35-1.2-.45.6-.84,1.14-1.41,1.91l-.02-.02Zm-.51-3.13c2.5-.91,4.48-1.49,6.33-2.35,1.96-.92,3.98-1.88,5.19-3.88-.63-.4-1.14-.74-1.7-1.1v-1.87c-.56.14-1.03.18-1.43.37-.83.42-1.57,1.02-2.42,1.37-2.59,1.04-3.98,3.14-5.06,5.53-.22.49-.45.96-.9,1.92h-.01Zm13.5-9.81c-.97-.62-1.57-.29-1.97.39.38.47.74.9,1.12,1.37.31-.65.58-1.2.84-1.77h.01Z"/>
        <path class="cls-1" d="m76.66,145.74h-1.31c-1.63-2.02-1.95-4.55-2.75-6.86-.63-1.82-1.41-3.6-2.17-5.33-1-2.25-2.09-4.44-2.95-6.76-.29-.78-1.09-1.36-1.63-2-1.73,1.24-2.04,2.91-1.78,4.72.38.46.73.89,1.17,1.42-.37.17-.55.31-.76.35-1.05.21-1.33-.8-1.86-1.17-.13-.79-.25-1.47-.43-2.56.51-1.12.22-3.13,2.3-4.21h1.84c.75,1.05,2.12,1.71,2.72,3.17.73,1.78,1.64,3.48,2.48,5.21-.4,1.04.83,1.29,1.02,2.08.33,1.43,1.15,2.67,1.54,4.11.53,1.99,1.45,3.88,2.15,5.83.21.58.26,1.21.42,2.02v-.02Z"/>
        <path class="cls-1" d="m204.53,29.08v-2.35c.58-.54,1.18-1.1,1.8-1.69.74.18,1.57.38,2.64.64.21.21.61.63,1.04,1.08v2.52c-.55.46-1.18.99-1.99,1.68h-1.64c-.12.13-.23.25-.35.38-.45-.67-.89-1.35-1.5-2.26h0Zm4-2.35c-.89-.68-1.46-.11-2.05.59.06.7.12,1.44.21,2.55.83-.72,1.36-1.17,1.84-1.59v-1.55Z"/>
        <path class="cls-1" d="m283.45,39.67c.67.38,1.07.61,1.51.86v1.9c-.7.36-1.52.77-2.64,1.35-.13-.51-.23-.95-.34-1.38-.14.12-.28.25-.41.37v-2.12c.46-.38,1.02-.85,1.47-1.22,0-1.21.07-2.2-.02-3.18-.08-.89-.33-1.77-.52-2.72h.96v6.14h-.01Zm-.88,3.01c.67-.33,1.1-.48,1.47-.74.24-.16.37-.47.68-.9h-2.15v1.63h0Z"/>
        <path class="cls-1" d="m81.74,97.88c-.3-.68-.55-1.23-.83-1.86.42-.75.83-1.49,1.21-2.16h1.25c.34.52.72,1.1,1.09,1.68-.35,1.33-1.29,2.01-2.72,2.34Zm1.03-3.03c-.31.45-1.2.71-.41,1.62.39-.28.78-.56,1.18-.85-.32-.32-.54-.54-.77-.77Z"/>
        <path class="cls-1" d="m83.44,91.81h-.83v-1.44c1.4-.04.78.83.83,1.44Z"/>
        <path class="cls-1" d="m76.79,88.54c.5-.09.78-.14,1.16-.21v1.79c-.48-.65-.76-1.03-1.16-1.58Z"/>
        <path class="cls-1" d="m80.4,87.32c-.49-.6-.72-.88-1.06-1.3.48-.1.7-.14,1.06-.21v1.51Z"/>
        <path class="cls-1" d="m80.66,89.14v-1.49c.34.44.53.69.84,1.09-.22.11-.56.27-.84.39h0Z"/>
        <path class="cls-1" d="m81.98,91.49c-.61.49-.88.72-1.3,1.06-.1-.48-.14-.7-.21-1.06h1.51Z"/>
        <path class="cls-1" d="m78.57,91.93v-.82c.27.18.57.38.97.64-.31.06-.54.1-.97.18Z"/>
        <path class="cls-1" d="m283.21,44.6c.31.61.47.95.58,1.16-.44.11-.63-.28-.58-1.16Z"/>
        <path class="cls-1" d="m82.44,85.96v.83c-.08.01-.16.02-.25.03-.06-.28-.12-.56-.18-.83.14,0,.29-.02.43-.03Z"/>
        <path class="cls-1" d="m83.66,88.36v-1h.25v1h-.25Z"/>
        <path class="cls-1" d="m203.94,110.34c2.8,1.88,2.52,5.11,3.63,7.67-.15.15-.21.25-.27.26-.16.03-.32.02-.61.04-.69-2.71-1.29-5.48-2.74-7.97h0Z"/>
        <path class="cls-1" d="m151.78,110.07c.23.35.46.71.76,1.17-.33.02-.6.04-.95.06-.03-.4-.05-.69-.07-.99.09-.08.18-.17.27-.25h0Z"/>
        <path class="cls-1" d="m86.02,203.12c1.21,0,2.43.07,3.64-.02,1.43-.11,2.84.24,4.31-.4,1.18-.52,2.66.15,4.03-.5.8-.38,1.93-.07,3.11.25-.31.08-.62.15-.93.23.09.1.18.2.27.29-2.4.22-4.8.52-7.2.63-2.41.11-4.82.02-7.23.02,0-.17,0-.33,0-.5Z"/>
        <path class="cls-1" d="m78.92,201.12c-.52.33-.64.47-.78.49-1.18.13-2.34-.1-3.55.44-1.03.45-2.3.13-3.52.48-1.88.53-3.93.45-5.96.63-.02-.4-.03-.63-.06-1.04,1.18,0,2.32.06,3.45-.02,1.18-.09,2.35-.37,3.53-.47,1.11-.09,2.18-.09,3.3-.45.98-.32,2.15-.07,3.6-.07h-.01Z"/>
        <path class="cls-1" d="m78.49,201.12c3.01-.24,5.89-1.49,9.19-.83-.72.28-1.21.54-1.74.64-.63.13-1.28.15-1.92.18-.58.03-1.16,0-1.75,0h-3.78Z"/>
        <path class="cls-1" d="m176.47,27.08c1.52-.96,2.02-2.02,2.4-3.16.41-1.23,1.15-2.23,2.1-3.12,1.7-1.59,3.18-3.44,5.41-4.39.57-.24,1.05-.72,1.63-.86,1.07-.26,2.18-.41,3.28-.51.91-.08,1.83.04,2.74-.04.52-.04,1.03-.3,1.58-.46.62.4,1.27.82,1.95,1.26,0,.91-.71,1.11-1.44,1.36-.04.37-.08.76-.13,1.16-1.62,1.55-2.96,3.26-4.04,5.27-.66,1.22-2.19,2.01-3.41,2.89-2.82,2.04-6.09,2.17-9.38,1.96-.76-.05-1.48-.73-2.68-1.36h-.01Zm11.18-9.46c-.87.72-1.76,1.71-2.86,2.32-2.1,1.15-3.32,2.99-4.4,4.97-.24.43-.28.97-.48,1.73,1.65-.25,3.05-.23,4.27-.69,1.88-.7,3.88-1.3,5.22-3.03,1.04-1.34,2.25-2.54,3.31-3.86.41-.51.61-1.19.94-1.86-2.12-.54-3.98.1-5.99.43h-.01Z"/>
        <path class="cls-1" d="m194.58,22.37c.61-.49.88-.72,1.3-1.06.1.48.14.7.21,1.06h-1.51Z"/>
        <path class="cls-1" d="m193.54,23.05h.89c.05.25.09.48.14.73-.66.39-1.08.38-1.03-.73Z"/>
        <path class="cls-1" d="m194.33,24.92c.28.22.55.45,1.07.87-.62.12-.9.17-1.25.23-.06-.33-.11-.55-.15-.77.11-.11.22-.22.33-.33h0Z"/>
        <path class="cls-1" d="m195.08,26.36c.61-.49.88-.72,1.3-1.06.1.48.14.7.21,1.06h-1.51Z"/>
        <path class="cls-1" d="m195.72,23.04h.72v.86c-.08.06-.16.12-.24.18-.16-.34-.32-.68-.48-1.04Z"/>
        <path class="cls-1" d="m35.46,41.38h-2.47c.84-.89,1.68-.08,2.47,0Z"/>
        <path class="cls-1" d="m165.53,135.26c-.2.17-.37.44-.59.48-.46.07-.94.02-1.41.02.2-.17.37-.44.59-.48.46-.07.94-.02,1.41-.02Z"/>
        <path class="cls-1" d="m124.38,117.94c-1.07-1.38-.98-1.36-.4-2.38.52-.91,1.4-1.36,2.1-2.03.67-.64,1.44-1.18,2.15-1.76l.85.85c-.2.76-.42,1.58-.66,2.53-1.06,1.06-2.09,2.43-4.04,2.79Zm.32-1.21c1.45-.74,3.12-1.29,3.32-3.64-1.23,1.41-3.11,1.69-3.32,3.64Z"/>
        <path class="cls-1" d="m52.3,90.84c.39.15.96.38,1.53.6.2.38.41.79.69,1.33v2.3c-.64.55-1.02,1.54-2.3,1.24-.45-.52-.98-1.13-1.66-1.91v-2.39c.38-.25.91-.62,1.73-1.17h.01Zm-.69,1.65v2.27c.37.26.69.48.98.69.58-.53,1.05-.96,1.47-1.34-.32-1.41-.95-2.25-1.73-2.25-.17.15-.41.36-.72.63Z"/>
        <path class="cls-1" d="m54.98,95.46c.19-1.62,1.01-2.54,2.35-3.03.53.53,1.12,1.1,1.7,1.67v1.5c-.58.57-1.16,1.14-1.7,1.67-.92-.37-1.75-.88-2.35-1.81Zm1.59,1.18c.66-.43,1.05-.67,1.47-.94-.03-.64-.06-1.25-.1-2.1-.61.39-.99.64-1.37.88v2.17h0Z"/>
        <path class="cls-1" d="m47.42,74.95c.52-.03.9-.05,1.39-.07,1.6,2.65,4.17,4.46,6.13,6.71v1.3c-2.19-2.96-5.05-5.12-7.52-7.94Z"/>
        <path class="cls-1" d="m182.11,22.5h1.18c.38.4.77.82,1.15,1.21-.18.37-.38.78-.66,1.36-.52-.14-1.08-.3-1.67-.46v-2.11h0Z"/>
      </g>
    </g>
  </g>
</svg>
