<?xml version="1.0" encoding="UTF-8"?>
<svg id="Layer_2" data-name="Layer 2" xmlns="http://www.w3.org/2000/svg" viewBox="0 0 297.61 183.17">
  <defs>
    <style>
      @import url(../css/art.css)
    </style>
  </defs>
  <g id="Layer_1-2" data-name="Layer 1">
    <g id="Layer_1-2" data-name="Layer 1-2">
      <g>
        <path class="cls-1" d="m35.9,48.53c.59-.18.87-.54,1.04-1.17.13-.49.68-.86,1.13-1.38-.69-.66-1.15-1.31-1.32-2.25-.12-.7-.93-1.25-1.33-1.93-.91-1.56-1.87-3.07-2.93-4.54-.99-1.38-1.68-2.99-2.88-4.28-.37-.4-.38-1.13-.57-1.79l.72-.72c2.54.73,4.82,2.27,7.16,3.54,2.32,1.26,5.03,1.66,7.11,3.51,1.04-.56,1.46-1.53,1.88-2.62-.82-3.11-2.48-5.9-4.16-8.67-.48-.8-.43-1.89-1.37-2.42-.07-1.6-1.48-2.53-1.89-4.05.37-.83,1.29-.82,2.03-.6.87.26,1.68.79,2.44,1.31,1.95,1.34,3.86,2.74,5.77,4.13,1.4,1.02,2.78,2.06,4.3,3.19,1.5-.95,2.95-1.87,4.26-2.7-.23-1.45-.25-2.76-.68-3.9-.46-1.24-.04-2.43-.33-3.77-.26-.47-.81-1.05-.89-1.69-.29-2.47-.44-4.96-.66-7.78,1.03.32,1.75.54,2.27.71,1.06,1.56,2,3,3.01,4.39,1.08,1.48,2.28,2.86,3.32,4.36,1,1.44,1.62,3.15,3.28,4.06.64-.31,1.39-.68,2.07-1.01.22-1.53.51-3.02.62-4.52.11-1.49-.2-3.03.09-4.47.26-1.27.38-2.51.46-3.79.08-1.26.38-2.5.61-3.89h1.78c1.56,2.29,2.6,4.87,3.89,7.33,1.28,2.46,2.73,4.83,3.82,7.37.55-.16,1.12-.32,1.71-.49.41-1.68.44-3.53,1.34-4.79.54-2.18,1.01-4.07,1.46-5.97.29-1.21.57-2.43.83-3.64.18-.84.28-1.7.53-2.53.1-.35.48-.62.84-1.07.59.49,1.13.95,1.52,1.28,1.41,5.82,2.91,11.41,5.25,16.75.83.39,1.64,0,1.79-.69.55-2.47,2-4.51,3.09-6.7,1.33-2.71,2.97-5.26,4.4-7.74,1.01-.54,1.55-.07,2.01.48.39,2.66-.68,5.18-.5,7.81.18,2.56.04,5.14.04,7.88-.46.02-.92.05-1.35.07-.55-4.19-1.22-8.25-.39-12.48-.19.19-.49.35-.55.57-.57,2.03-2.16,3.57-2.7,5.61-1.16.78-.98,2.27-1.73,3.27-.51.68-.17,1.35-.19,2.01h.58c.99-1.64,1.94-3.23,2.93-4.81.09-.15.42-.15.78-.27v5.44c-.07.07-.14.15-.2.22-.13-.37-.26-.74-.39-1.1-.12.09-.25.19-.37.28v-3.04c-.7,1.39-1.24,2.45-1.82,3.59.13.14.34.37.34.37,2.51.65,4.77,1.24,7.03,1.82.95,1.12,2.47.86,3.62,1.49,1.08.59,2.18,1.14,3.3,1.65,1.66.76,2.99,2.02,4.5,2.98.41.26.97.27,1.66.03-.21-.22-.39-.52-.65-.66-.64-.33-1.05-.74-.93-1.51,1.14-1.06,2.31-2.09,3.42-3.18,1.61-1.57,3.16-3.19,4.78-4.75,1.82-1.74,3.69-3.43,5.64-5.23.4.31.71.54,1.07.81v2.57c-.66,1.38-1.29,2.7-1.96,4.08.98.65,1.2-.47,1.63-.69.94-.32,1.83.19,2.69-.54.53-.45,1.6.3,2.31-.4.1-.1.29-.17.43-.15,2.3.34,4.53-.72,6.78-.45,2.19.27,4.45.24,6.58.95.51.17,1.09.31,1.46.66.99.94,2.08,1.69,3.27,2.36.56.32,1.12,1.03,1.23,1.65.41,2.31,1.92,4.34,1.63,6.83-.11.9-.02,1.82-.02,2.27-1.79,3.82-4.57,6.18-7.82,8.4-.57,1.99-2.61,2.92-4.21,4.24-2.13,1.76-4.33,3.45-6.9,5.5,3.59,0,6.65,0,9.7,0,.78,0,1.43-.62,2.29-.52.77.09,1.52.03,2.32-.4.64-.34,1.61-.07,2.55-.07.24.49.47.98.71,1.48-1.08,1.51-2.61,2.22-4.05,2.98-1.97,1.04-4.1,1.76-6.07,2.8-2.3,1.21-4.66,2.3-7.05,3.47,1.36.46,2.62.9,4.03.78.58-.05,1.18.33,1.79.45.61.13,1.32-.26,1.85.38.08.1.29.11.44.13,2.01.17,4.02.31,6.03.52.69.07,1.47.62,2.02.42,1.02-.37,1.91.09,2.85.08,5.49-.03,10.98.08,16.47-.07,2.27-.06,4.54-.64,6.8-1.02.37-.06.72-.43,1.07-.41,2.12.12,4.15-.86,6.28-.52,3.22-1,6.52-.29,9.78-.48.43-.03.89.21,1.29.32.4-.11,1.01-.46,1.26-.3,1.07.7,2.21.4,3.32.45,2.39.11,4.71.63,7,1.2.63.16,1.24.3,1.86.28,2.18-.08,4.18.9,6.33,1.02,1.24,1.19,2.96,1.29,4.42,1.98,2.29,1.09,4.56,2.26,6.94,3.12,2.24.8,4.13,2.13,6.09,3.38.33.21.67.44.94.73,1.35,1.41,2.76,2.78,4,4.29,1.26,1.52,2.49,3.09,3.49,4.79,2,3.38,3.77,6.89,4.84,10.71.06.22.14.44.18.67.14.85-.19,1.69.44,2.58.43.62.1,1.63.48,2.53.39.91,0,2.13.1,3.2.28,2.87-.52,5.67-.54,8.52,0,.51-.26,1.05-.49,1.53-1.09,2.29-1.6,4.85-3.26,6.89-.48.58-.7,1.37-1.08,2.04-1.7,3.02-4.22,5.37-6.73,7.66-1.5,1.37-3.28,2.45-5.01,3.54-1.76,1.12-3.56,2.23-5.45,3.11-1.62.76-3.11,1.89-4.73,2.41-1.68.54-3.28,1.36-5.03,1.76-3.02.69-5.9,1.87-8.99,2.4-2.27.39-4.6.46-6.82,1.01-2.36.58-4.87.42-7.14,1.43-.14.06-.33.03-.5,0-2.79-.38-5.49.64-8.28.54-1.09-.04-2.19.37-3.29.45-1.14.08-2.3.02-3.5.32.29.07.57.16.86.19.33.03.68-.06.99.02.37.09.73.5,1.04.45,1.66-.29,3.17.55,4.79.54,1.19,0,2.44.3,3.47.67,1.07.38,2.2-.12,3.04.45.96.64,1.92.17,3.06.48.15.22.43.64.71,1.06.87-.68,1.5-1.31,2.26-1.73,1-.56,2.07-1.05,3.16-1.4,1.05-.34,2.12-.64,3.28-.56.67.05,1.37-.48,2.03-.43,3.92.29,7.91.43,11.44,2.48,1.41.82,2.95,1.64,4.45,1.84,1.61.21,2.87,1.47,4.54,1.18,1.3.98,2.96.83,4.4,1.43,1.84.77,3.81,1.25,5.64,2.06,1.19.52,2.21.54,3.35-.02.94-.45,1.94-.83,3.27-.26.59.73,1.8,1.39,2.21,2.63,1.67-.44,2.96-1.6,4.81-2.36.95.2,2.21-.12,3.54.2,2.77.68,4.26,2.71,5.67,4.82.53.79.66,1.92.73,2.92.11,1.65.05,3.32.01,4.98,0,.27-.28.53-.33.61.19,1.81,1.65,2.73,2.36,4.31,2.64-.15,3.3,2.13,4.47,3.91v2.24c-.24.46-.41.79-.59,1.13.26.14.39.25.53.27,1.26.21,2.51-.22,3.83.41,1.08.52,2.57-.25,3.74.59,2.22-.36,4.33.54,6.53.51,3.83-.05,7.65,0,11.48,0,.08,0,.15.03.5.1.17.62.37,1.36.65,2.36-1.63-.15-3.05.51-4.44-.41-.29-.19-.8-.06-1.21-.06-3.06,0-6.13.16-9.08-.98-.43-.17-.99-.02-1.49-.02-2.08,0-4.16.05-6.24-.02-.85-.03-1.69-.38-2.54-.46-.91-.08-1.83-.02-2.74-.02-.88.67-1.76,1.35-2.61,1.99-1.23,0-2.39.03-3.55-.02-.46-.02-.9-.23-1.35-.33-.7-.15-1.34-.36-2.04.2-1.15.93-2.76.42-4.02,1.12-.16.09-.47-.03-.69-.1-.51-.16-1.02-.36-1.55-.55-.54-.74-1.11-1.52-1.67-2.28-1.49-.18-2.94-.22-4.31-.58-1.28-.34-2.68-.16-3.85-.94-.11-.08-.33-.02-.49,0-3.11.24-6.15-.75-9.28-.54-1.24.08-2.52-.35-3.78-.44-1.24-.08-2.5,0-3.74-.04-.27,0-.53-.31-.89-.54-.22.14-.48.3-.93.58-.63-.02-1.5-1.28-2.27-.08-.31-.16-.59-.44-.86-.42-5.11.35-10.17-.64-15.27-.55-1.76.03-3.56.34-5.3-.42-.49-.22-1.24.13-1.86.23-.39.06-.88.34-1.14.19-.91-.52-1.93.41-2.55-.04-.97-.7-1.9-.31-2.84-.4-.99-.1-1.99-.02-2.99-.02h-2.99c-1,0-2.02-.14-2.98.05-.61.12-.96-.81-1.66-.16-.37.34-1.1.26-1.49-.34-.53.55-1.05.67-1.56-.03-.66.74-1.39.46-2.21.3-.69-.13-1.44.18-2.17.16-.61-.02-1.21-.22-2.02-.39-.2.08-.62.34-1.07.39-.74.08-1.5.02-2.24.02-1.75,0-3.5-.09-5.24.03-1.68.11-3.43-.55-5.03.45-1.51-.98-3.2-.35-4.79-.45-1.74-.12-3.49-.03-5.24-.03h-20.71c-1.75,0-3.5-.05-5.24,0-3.95.13-7.91.3-11.86.51-.69.04-1.36.31-2.04.48-.53-.92-1.04.12-1.59.03-.73-.12-1.49-.03-2.24-.03h-4.24c-.75,0-1.5-.05-2.25,0-1.1.09-2.3-.42-3.29.49-.77-.73-1.89.43-2.64-.54-.33.19-.67.39-1.04.61-.27-.2-.52-.38-.57-.42-1.2.13-2.3.54-3.21.28-1.19-.34-2.22.24-3.35.11-1.31-.16-2.66-.04-3.99-.04-1.25,0-2.5.02-3.74,0-.44,0-.86.86-1.32.04-.37.63-.99.45-1.55.47-.58,0-1.16,0-1.75,0h-1.75c-.58,0-1.16,0-1.75,0-1.7-.05-3.29.71-5.04.54-1.65-.17-3.34.09-4.98-.09-.73-.08-1.06,1.06-1.98.33-.41-.32-1.41.16-2.15.21-.75.05-1.5,0-2.25,0h-4.74c-.92,0-1.88-.17-2.73.05-.71.19-1.44.22-2.15.39-.86.21-1.82.05-2.73.05s-1.89-.2-2.74.04c-3.24.91-6.53.34-9.79.43-2.19.06-4.31.89-6.53.53-1.01.74-2.38.1-3.24.59-1.17.67-2.29.07-3.33.43-2.24.77-4.62,0-6.76.57-2.72.72-5.36.03-8.09.52v-2.1c1.65,0,3.37.03,5.09,0,1.69-.04,3.35.1,5.05-.42,1.5-.46,3.16.13,4.79-.48,1.09-.41,2.46-.08,3.32-.08,1.74-1.12,3.2-2.05,4.64-2.99,1.04-.68,2.04-1.34,3.31-1.67.93-.24,1.69-1.14,2.42-1.67.75-.27,1.6-.31,2.03-.76,1.78-1.88,4.46-2.5,6.15-4.52.59-.7,1.66-1.15,2.61-.82,1.91.65,3.91.54,5.83.99,1.59.37,3.16.62,4.99.41.65-.87,1.41-1.88,2.18-2.92-1.1-1.26-2.14-2.47-3.17-3.66.65-.88,1.21-1.65,1.72-2.34h4.61c1.53-1.63,2.9-3.5,3.79-5.6-.46-1.21-.86-2.29-1.22-3.23.8-.75,1.39-1.31,2.27-2.14.12,0,.71-.1,1.25.03.49.11.88-.99,1.44.1.98-2.95,2.89-5.35,3.72-8.36-.8-2.3-2.44-4.4-2.57-7.23h1.54c.17.43.46.85.48,1.29.06,1.5,1.02,2.53,1.73,3.71.31-.31.62-.5.78-.77.78-1.39,1.65-2.74,2.85-3.79.72-.63,1.62-1.24,2.59-.89,1.08.4,2.19.81,3.05,1.68.8.81,1.57,1.62,1.51,2.87-.42.56-.83,1.12-1.41,1.9-.37.14-1.02.37-1.72.63-.38-.42-.69-.76-.97-1.07.44-1.26,2.6-.99,1.95-3.07-.66-.44-1.56-1.05-2.64-1.79-.16.79-.26,1.3-.4,1.98-.47-.27-.79-.45-1.11-.63-.21.4-.42.81-.59,1.15.13.39.27.78.48,1.42-.62-.36-.94-.55-1.01-.59-.53.31-.88.52-1.13.67.02,1,1.42,1.21.83,2.46-.34-.51-.61-.91-1.03-1.53-.4.85-.66,1.4-.87,1.83.51.69.88,1.19,1.56,2.11-1.11-.19-1.73-.3-2.34-.41.12.11.24.22.36.34-.35.05-.69.11-.99.15.5.37.82.61,1.25.93-.9.39-1.59.69-2.37,1.03.67.43,1.16.75,1.65,1.07-.04.11-.08.21-.11.32-.62-.1-1.24-.21-1.8-.3-.17.39-.34.78-.51,1.18.68.47,1.3.89,1.91,1.31-.46.2-.78.06-1.11-.07-.53-.21-1.04-.34-1.56.45,2.65,2.53,6,4.08,8.71,6.6.62-.66,1.1-1.17,1.47-1.57-.1-.93-1.4-1.03-.86-2.11.48.38.94.74,1.47,1.16.38-.38.66-.66.95-.95-.16-.63-.3-1.17-.49-1.87.58.24.95.39,1.49.61-.25-.75-.44-1.29-.62-1.83.11-.06.21-.12.32-.18.27.39.55.78.64.91.49-.25.86-.44,1.14-.59-.26-.68-.44-1.14-.71-1.83.61.31.94.48,1.23.63.37-.29.66-.52.63-.49-.08-.92-.13-1.47-.18-2.01.14-.07.28-.14.41-.21.23.41.47.82.71,1.24.38-.41.59-.63.76-.81-.38-.47-.72-.9-1.2-1.49.48-.16.75-.25.96-.32.27.45.48.8.79,1.3.49-.52.81-.85.99-1.04-.2-.7-.34-1.17-.56-1.94.54.43.77.62,1.15.93.52-.62.96-1.16,1.41-1.7.61-.47,1.22-.95,1.99-1.55.23.64.44,1.21.59,1.61-1.62,1.83-3.03,3.51-4.52,5.11-1.55,1.66-3.35,3.12-4.53,5.09-1.11,1.85-2.82,3.2-3.87,5,.31.6.62,1.21.9,1.75-.48.66-.89,1.23-1.45,2.01-1.32.31-2.9.67-4.23.98-2.11,3.29-3.69,6.68-6.36,9.53-.37-.18-.87-.3-1.17-.61-.39-.39-.77-.58-1-.5-2.43-1.16-4.91-1.38-6.98-2.55-.39.39-.69.69-.95.95-.4-.15-.78-.3-1.65-.63.88,1.06,1.41,1.7,2.3,2.76-.86-.16-1.21-.16-1.5-.3-.46-.22-.63-1.08-1.48-.53.16.55.35,1.11.47,1.69.04.18-.12.4-.16.53-.55-.36-1.04-.69-1.61-1.06-.18.71-.31,1.2-.52,2.03-.62-.83-1.01-1.37-1.43-1.93-.35.7-.69,1.36-1.25,2.47v-2.26c-.72-.28-1.27-.5-2.06-.81v2.62c-.13.02-.26.04-.39.06-.38-1.02-.76-2.04-1.21-3.27-.35.7-.56,1.11-.77,1.54.1.12.25.29.53.6-.42.03-.71.04-1.03.06-.05-.91-.1-1.7-.14-2.38h-2.02c.15.84.28,1.57.42,2.34-.18,0-.4.02-.65.04-.33-.86-.65-1.7-.98-2.58-1.33.38-.19,1.6-.92,2.08-.34-.32-.69-.64-.98-.91-.45.4-.87.78-1.29,1.15.18.21.33.38.81.95-.83-.29-1.21-.43-1.71-.6-.23.36-.52.81-.89,1.39-.41.02-.97.04-1.61.07-.27.46-.55.93-.85,1.41-.15-.13-.32-.28-.48-.42-.59.37-1.19.74-1.82,1.12.22.24.38.42.83.91-.89-.26-1.43-.42-2.19-.63-.28.67-.58,1.37-.91,2.15-.42-.21-.83-.41-1.23-.61-1.47.82-2.47,1.56-2.75,2.08.57-.2,1.09-.58,1.58-.54,3.78.3,7.5-.69,11.27-.51,1.55.07,3.01-.15,4.4-.76-.85-.53-1.73-1.03-2.55-1.62-.25-.18-.32-.61-.69-1.36,2.89.78,5.08,2.33,7.79,2.27.23.34.45.67.57.84.54-.16.91-.26,1.27-.38.76-.26,1.4.39,2.17.23.87-.17,1.77-.2,2.65-.22,1.58-.03,3.16.02,4.74-.02,1.39-.04,2.63-.71,2.98-1.98.52-1.87,2.1-3.38,1.6-5.49h1.25c.37.84.41,1.87.14,2.76-.48,1.57-1.19,3.07-1.91,4.84,2.29-.44,4.48.35,6.64-.57.7-.3,1.65.02,2.47-.06.86-.09,1.83.41,2.56-.44.71,1.12,1.38-.05,2.06-.07,3.51-.11,7.01-.33,10.52-.46,1.83-.07,3.66-.07,5.49,0,8.42.29,16.82-.86,25.24-.52.54.02,1.06.07,1.62-.35.33-.25,1.1.1,1.6.17.3-.14.58-.26.82-.38.26.23.44.4.61.56.62-.84,1.52-.47,2.29-.47,16.97-.02,33.93-.02,50.9-.02.58,0,1.17.06,1.74-.02.44-.07.86-.31,1.02-.37.85.16,1.45.35,2.06.38,1.08.05,2.22.23,3.23-.05,1.02-.28,1.9.09,2.85.07,11.25-.28,22.47.86,33.72.49.66-.02,1.34-.06,1.99,0,.85.09,1.69.27,2.53.41.23-.16.48-.34.4-.28,1.14.15,1.92.39,2.68.33,3.37-.25,6.68.43,10.02.52.78.67,1.7-.38,2.29.05.62.46,1.2.48,1.83.43,2.29-.19,4.48.89,6.78.52.15-.02.38-.03.47.05.92.89,2.05.26,3.07.44.99.17,1.98.33,3.17.53-.3-2.11.83-3.37,2.22-4.44,1.34.82,2.58,1.71,4.32,1.94-.95-1.7-1.63-3.27-2.62-4.62-1.17-1.6-1.98-3.5-3.6-4.75-1.55-1.19-3.14-2.32-4.99-2.12-.6,1.15-1.06,2.03-1.51,2.9-.58.24-1.14.51-1.71.71-.59.2-1.2.34-1.88.53-1.04-1.25-2.02-2.42-3.04-3.64h-2.91c-1,0-2-.07-2.99.02-1.02.1-2.04-.34-3.09.41-.6.43-1.59-.31-2.55,0-1.66.54-3.31-.45-5.01-.45-4.74.02-9.48,0-14.22,0-.5,0-1.15-.2-1.47.04-1.06.8-2.3.11-3.29.52-1.11.45-2.19.43-3.31.44-.83,0-1.67.07-2.49-.02-.85-.09-1.69-.35-2.46-.52-.63-.59-1.24-1.15-1.82-1.7v-2.79c0-.08,0-.16.02-.21.42-.44.83-.85,1.13-1.16h1.29v1.74c-.34.14-.65.22-.9.39s-.44.43-.65.64c1.15,1.31,2.74,1.7,5.52,1.47.07-.61.13-1.23.22-1.99.37.84.67,1.51.96,2.17.13-.03.26-.06.39-.1v-1.87h.89c.08.5.15.96.21,1.38h1.28c.09-.52.17-.98.25-1.47.32.05.55.09.75.13.1.52.18.97.24,1.31h1.77c.08-.54.15-.98.21-1.42.34.03.5.04.76.07.07.44.14.89.21,1.4h1.2c.15-.35.29-.68.49-1.12.71.5,1.28.9,1.92,1.35.41-.62.74-1.12,1.07-1.62l.9.9h1.63c.16-.37.29-.7.58-1.41.41.73.61,1.09.77,1.38h1.7c.12-.36.22-.64.32-.92-.08,1.46,1.32.96,1.99,1.61.39-.53.76-1.04,1.18-1.61.11.6.19,1.06.26,1.42h1.27c.09-.53.16-.98.23-1.42.3,0,.46.02.73.03.07.44.15.89.23,1.36h1.87c.02-.51.04-.9.08-1.72.56.82.88,1.3,1.2,1.77h1.13c.1-.52.18-.98.36-1.96.21,1.03.31,1.54.39,1.93h1.77c.09-.55.16-.99.23-1.42.34.04.5.06.76.08.07.44.13.89.21,1.39h.79c.07-.48.14-.94.21-1.43.31.02.53.03.78.05.08.5.15.96.22,1.36h2.32c.06-.69.12-1.31.18-1.93.11,0,.21-.02.32-.03.29.68.59,1.36.94,2.17.57-.35,1.03-.58,1.17-1.39.32-1.91.73-3.81,1.44-5.63.12-.31-.06-.74-.14-1.56-.56.69-.85,1.05-1.3,1.59-.28-.77-.51-1.42-.75-2.07h-1.15c-.11.65-.22,1.24-.32,1.83-.1,0-.2-.02-.3-.04v-2.2c-.44-.27-.83-.5-1.36-.83-.11,1.04-.2,1.87-.31,2.79-.41-.14-.63-.22-.97-.33.22-.71.42-1.37.62-2.03-.11.1-.22.2-.34.31-.14-.41-.29-.83-.37-1.08-1.4.21-1.14,1.34-1.75,2.02v-2.25c-.59-.27-.99-.45-1.42-.65-.28.78-.57,1.56-1.04,2.84-.07-1.52-.12-2.48-.17-3.41h-1.13c-.3.68-.59,1.35-.88,2.02-.13-.03-.26-.05-.39-.08v-2.28c-.57-.24-.97-.41-1.56-.65v2.77c-.42-.52-.63-.77-.89-1.09-.05-.66-.12-1.43-.18-2.21-.57.02-.96.04-1.29.06-.09.76-.16,1.34-.23,1.92h-.34v-2.57c-.69-.17-1.26-.31-1.93-.48-.06.84-.11,1.46-.15,2.08-.1,0-.21,0-.31,0-.06-.78-.12-1.55-.17-2.31-.54-.61-1.1-1.03-1.87-.49-.07.61-.14,1.19-.21,1.76h-.35v-2.57c-.69-.17-1.26-.31-2.06-.5v2.66c-.41-.07-.64-.1-.88-.14-.05-1.01-.1-1.96-.15-2.8h-1.35c-.06,1.02-.12,1.95-.19,3.03l-.96-.96v-2.15c-.43-.2-.82-.38-1.47-.69v3.42c-.42-.49-.63-.73-.89-1.03-.05-.67-.11-1.43-.17-2.11-.73.23-1.31.42-1.97.63v2.69c-.06,0-.13.02-.19.03-.31-.98-.62-1.97-.98-3.13-.61.24-1.18.46-1.67.66-.08,1.13-.2,2.05.32,2.96h-.68c-.28-.82-.56-1.62-.89-2.59-.79.26-1.51.51-2.24.75-.06,1-.11,1.95-.16,2.89h-.29c-.08-.83-.16-1.65-.24-2.47-.48.55-.85,1.03-1.28,1.46-.33.32-.91.49-1.06.86-.49,1.21-1.55,1.84-2.45,2.63-.07.06-.29-.06-.51-.11v-1.65c.59-.84,1.65-1.33,2.04-2.51-1.06-.18-2.03-.34-3.09-.51-.22.34-.52.78-.93,1.41-.07-.66-.12-1.06-.19-1.69-.54.17-1.17.18-1.49.51-.36.37-.45,1.01-.66,1.53-.09,0-.17-.02-.26-.04v-2.31c-1.09-.23-1.78-.04-2,.97.15.28.28.52.4.78,0,.02-.12.09-.18.14-.16,0-.32-.02-.66-.04v-1.84c-.52-.28-.91-.48-1.56-.82v2.69c-.4-.03-.63-.04-.94-.07v-2.23c-.68-.26-1.28-.5-1.95-.75-.08,1.01-.14,1.77-.21,2.68-.39-.39-.63-.62-.95-.95v-1.69c-.71.04-1.32.08-1.96.12.02.92,1.07,1.53.27,2.42-.2-.26-.4-.51-.74-.95v-1.97h-1.91c-.08.69-.15,1.27-.22,1.86-.11,0-.23-.02-.34-.03v-2.04c-.69-.18-1.26-.32-2.06-.52v2.61c-.14.02-.27.04-.41.05-.27-.84-.54-1.68-.88-2.76-.12,1.08-.21,1.91-.31,2.74-.35-.05-.5-.07-.69-.09-.58-.84.56-2.33-1.01-2.8-1.22.67-.22,2.02-.88,2.87l-.51-.51c.11-.92.2-1.66.3-2.45h-1.46c-.27.48-.47,1.02-.83,1.41-.34.37-.85.6-1.35.93.16.49.31.92.55,1.64-.39.28-.96.7-1.55,1.13.87.71.57,1.46.55,2.18-.67.26-1.31.5-1.83.7-1.19-.39-1.13-1.23-1.11-1.77.49-.82.77-1.44,1.14-2.27-1.31.38-1.12,1.23-1.14,2.27-.49.38-.99,1.05-1.49,1.71-.75.04-.42.62-.5,1-.67.75-1.35,1.48-1.98,2.26-.12.15-.02.48,0,.73-.08-.08-.17-.17-.26-.25-.23.35-.46.71-.76,1.17.33.02.6.04.95.06.03-.4.05-.69.06-.99.29-.22.59-.45.9-.66.36-.23.73-.43,1.08-.64v-1.7c.75-.04.42-.62.5-1,.82.22,1.64.45,2.43.67v1.76c-.61.35-1.18.68-1.72.99-.23-.17-.38-.28-.96-.7.38.96.57,1.44.75,1.9-.28.47-.54.93-.82,1.4h-1.67c0,.33.05.65,0,.94-.07.32-.26.62-.42.98h5.27c.13-.5.25-.95.36-1.4.06.03.12.06.21.11.04.37.09.76.14,1.16.45.2.9.4,1.3.57l.54-.54c-.16-.42-.3-.8-.49-1.29h.97c.08.5.15.96.22,1.44.42,0,.76-.06,1.07.02.24.06.44.28.64.41l.62-.62c-.18-.32-.36-.63-.63-1.1.44-.11.71-.17.95-.23.27.75.51,1.39.71,1.95h2.09c-.14-.66-.25-1.22-.39-1.86.13-.12.36-.34.66-.62.3.87.57,1.67.86,2.5h1.32v-2.44c1.49.44.67,1.77,1.07,2.4h1.82c.07-.7.13-1.31.19-1.92.34.02.5.03.77.05.07.44.14.89.24,1.47.47-.03.92-.06,1.45-.09v-1.38h.82c.07.49.14.95.21,1.39h1.79c.08-.51.15-.96.29-1.85.27.91.33,1.46.58,1.89.4.67,1.03.71,1.63.36-.15-.4-.3-.79-.47-1.23,1.5-.44.9,1.3,1.81,1.34.15-.14.3-.35.5-.44.2-.1.45-.08.66-.11.09-.52.16-.96.23-1.4,0,1.31,1.02,2.73-.36,3.99-.33,0-.73.03-1.13,0-1.84-.16-3.68-.34-5.53-.49-.66-.05-1.34-.07-1.99,0-.53.07-1.09.54-1.53.42-.59-.15-1-.25-1.62,0-.57.23-1.31.05-1.97.05-1.5,0-3.1.35-4.45-.1-1.4-.46-2.71-.32-4.06-.39-1.49-.07-2.99-.02-4.49-.02h-6.98c-.14,0-.28-.12-.42-.18v-1.85h2c-.09-.62-.16-1.05-.26-1.7-1.23.77-2.24,1.39-3.27,2.03l.93.93c.02.8.29,1.67-.73,2.23h-2.54c-.26-.28-.49-.52-.73-.77.2-.49.4-.97.72-1.75-1.51.28-2.68-.09-4.02.48-1.13.48-2.62.1-3.95.1s-2.72.25-3.97-.07c-1.25-.31-2.45.56-3.54-.04-1.27-.7-2.57-.19-3.83-.39-1.24-.2-2.48-.44-3.97-.7-.13-.44-.3-1-.53-1.8h2.69c-.35-.8-1.32-1.06-1.02-1.98.55.46,1.06.98,1.65,1.38.99.67,2,1.41,3.25,1-2.22-2.46-4.4-4.85-6.54-7.28-.23-.26-.24-.71-.36-1.08,1.36.57,1.78,1.99,2.71,2.95,1.5,1.54,3.05,3.04,4.55,4.58.38.38.66.86,1.01,1.34h9.79c-.23-.64-.4-1.15-.6-1.64-.69-1.7-1.23-3.49-2.15-5.06-1.3-2.22-2.89-4.27-4.33-6.41-.11-.17-.02-.49-.02-.73.26.18.57.3.77.53,2.63,3.11,4.4,6.74,6.19,10.34.4.81.36,1.83.54,2.75.02.11.18.2.27.29.59-.38,1.17-.76,1.77-1.15-.19-.19-.36-.29-.41-.43-.94-2.67-1.87-5.33-3.1-7.9-1.14-2.4-2.49-4.7-4.15-6.69-1.87-2.23-4.22-4.06-6.42-6-.46-.4-1.18-.52-2.31-.99.82,1.42,1.35,2.34,1.87,3.25h-.59c-.58-.72-1.09-1.37-1.45-1.81-.66.63-1.23,1.18-1.58,1.52-.41,1.34,1.4,1.51,1.13,2.78-.77-.64-1.55-1.28-2.35-1.95-.37.91-.12,1.7.36,2.45-.91.4-1.2-.83-1.92-.95-.4,1.96.42,3.24,1.64,4.44,1.14,1.13,2.21,2.36,3.16,3.66,1.4,1.9,2.8,3.82,4.22,5.71.67.88,1.21,1.88,1.21,3.06-.37-.32-.57-.73-.84-1.08-.29-.39-.67-.71-.96-1.1-.27-.37-.48-.79-.71-1.19s-.47-.8-.7-1.2-.43-.83-.71-1.19c-.3-.39-.69-.71-1.04-1.06-.41-.41-.86-.79-1.22-1.24-.29-.36-.45-.81-.72-1.19-.28-.39-.62-.74-.91-1.12-.29-.37-.54-.78-.85-1.14-.32-.38-.67-.75-1.06-1.05-.33-.24-.45-.84-1.03-.75v3.68c.49.53,1.16.87.94,1.69-.3-.13-.6-.26-.96-.42v3.7c1.34.57,2.2,1.58,2.96,2.7-1.05.22-1.33-.81-1.99-1.22-.26-.16-.64-.15-.99-.22-.12,1.21,1.7,1.52.87,2.76-2.17.4-4.37.93-6.57.62-.25.25-.5.4-.59.61-.37.82-.83,1.22-1.84,1.53-1.62.51-3.32.7-4.93,1.31-2.13.81-4.53.62-6.8,1.01-2.02.35-4.15.16-6.22.05-2.05-.12-3.95-1.24-6.08-.98-.06,0-.12-.11-.19-.14-1.06-.45-2.12-.91-3.19-1.34-1.15-.46-2.12-1.23-3.27-1.74-1.76-.78-3.28-2.14-4.89-3.26-.87-.61-2.71-2.73-3.13-3.64-.11-.23-.02-.55-.02-.98,1.3.42,1.78,1.48,2.63,2.07.32-.43.67-.9,1.03-1.37.08.05.17.1.25.16-.2.66-.4,1.32-.61,1.99.44.35.8.64,1.17.93.45-.61.81-1.11,1.18-1.61.08.06.17.12.25.18-.19.65-.39,1.3-.59,1.99.41.35.76.64,1.34,1.13.44-.94.78-1.66,1.2-2.54,1.36,1.11-.55,2.16.35,3.27.36.21.95.55,1.72,1v-2.03c.4.03.63.04,1.11.07-.2.59-.37,1.07-.51,1.56-.06.21-.07.44-.09.64.61.28,1.16.53,1.8.82.08-.35.13-.57.18-.8.06-.28.11-.56.17-.83.32.04.48.06.84.1-.09.58-.18,1.15-.28,1.8.33.16.88.43,1.44.7.33-.77.62-1.45.92-2.13.12.03.25.05.37.08v1.85c.52.27.91.48,1.67.87-.27-1.01-.2-1.65.42-2.05.09-.06.23-.06.44-.11v1.68c.64.29,1.19.54,1.86.84.11-.97.2-1.81.3-2.64.34.05.5.07.84.11v2.43c.79-.05,1.39-.09,1.77-.11-.1-.72-.17-1.29-.26-1.96.46.07.68.1.92.14.07.68.14,1.3.19,1.81h1.97c-.24-.66-.44-1.19-.67-1.83.45-.02.67-.04.88-.05.38.64,0,1.67,1.23,1.87.24-.61.49-1.25.73-1.89.77,1.44,1.59,1.9,2.32,1.16v-1.52c.58.57.9.89,1.31,1.29h1c.09-.51.17-.97.25-1.46.32.05.55.09.74.12.12.36.22.64.28.82h1.63c-.12-.63-.22-1.2-.33-1.76.1-.04.21-.09.31-.13.37.51.73,1.02,1.07,1.49.74-.24,1.39-.46,1.96-.64-.1-.51-.29-1.02-.3-1.52-.03-2.99-.02-5.98-.01-8.97,0-.56.11-1.04.39-1.59.33-.65.36-1.64-.37-2.03-1.09.16-2,.29-2.92.43-.08.45-.16.91-.33,1.91-.38-.98-.58-1.47-.77-1.96-.08-.2-.16-.41-.18-.47h-1.74c-.08.69-.15,1.27-.22,1.84-.4-1.84-.64-2.33-1.67-3.21-.25.88-.52,1.82-.79,2.76-.41-1.31-.6-2.57.22-3.73-.46-.33-.83-.61-1.33-.98-.36,1.2-.67,2.21-.98,3.26-.3-.07-.52-.13-.79-.2.34-1.24.67-2.42,1-3.6-.24-.23-.47-.47-.76-.75-.62.71-1.24,1.42-1.99,2.28-.25-1.64,1.8-2.92,0-4.26-.65.83-1.3,1.67-1.96,2.5-.12-.07-.25-.14-.37-.21.54-1.15,1.08-2.3,1.54-3.29-.54-.47-1.01-.86-1.48-1.27-.19.33-.46.8-.78,1.36-.25-.11-.5-.22-.98-.44.52-.58.88-.99,1.2-1.34v-1.8c-.4,0-.83-.13-1.02.03-.47.39-.84.91-1.24,1.37l-.64-.64c.54-.55,1.08-1.11,1.46-1.5.1-1.17-.36-1.61-1.26-1.82-.34.52-.67,1.03-1.11,1.69v-1.95c.22-.23.56-.59.79-.83v-1.41c-.66.24-1.2.43-1.71.61-.57-1.16.45-.89.84-1.31-.04-.69-.09-1.46-.16-2.53-.58.43-.87.68-1.19.89-.3.19-.62.33-.94.5-.09-.1-.17-.19-.26-.29l1.58-1.58c-.08-.48-.14-.85-.22-1.29-.54.22-.91.36-1.6.64.54-1.09.91-1.85,1.37-2.78-.3-.19-.64-.41-.98-.62-.07.05-.25.2-.44.32-.01,0-.11-.11-.28-.27.38-.6.78-1.23,1.43-2.27-.88.23-1.32.34-1.82.47-.18-1.41,1.37-1.17,1.72-1.97.37-.91.74-1.82,1.11-2.72-4.57-1.73-5.01-10.13-2-13.29.2-1.71.39-3.26.57-4.82h-1.93v-1.01h1.89v-2.4c-.46.18-.85.32-1.28.48-.45-1.52,1.31-.89,1.35-1.66-.25-.51-.45-.92-.65-1.32-.55.29-1.11.58-1.78.93.37-1.19.37-1.18,1.6-1.81-.22-.86-.46-1.75-.69-2.64-.82.51-1.55.97-2.59,1.62.24-1.38,1.2-1.76,1.63-2.44v-1.58c-.37-.25-.76-.5-1.16-.77-.8,1.69-1.05,2.01-1.86,2.37.23-1.27,1.72-2.26.88-3.61-.5-.2-.88-.36-1.11-.45-.3.98-.59,1.88-.87,2.79-.1-.02-.19-.04-.29-.06v-2.59l-.81-.81c-.23.22-.46.44-.7.67-.05.93-.11,1.86-.16,2.8h-.35v-3.04c-.68-.2-1.25-.37-2.04-.61,0,.9.08,1.55-.02,2.18-.1.62.41,1.37-.25,1.86-.27-1.15-.54-2.28-.8-3.38-.55.29-.96.5-1.5.78.13.68.26,1.41.41,2.17h-.61c-.26-.7-.5-1.35-.73-1.96-.59.29-1,.49-1.56.77.17.84.35,1.73.65,3.2-.81-1.14-1.29-1.8-1.64-2.3-.36.2-.71.4-1.02.57.25.99.45,1.79.65,2.6-.61-.25-.82-.7-1.1-1.1-.12-.16-.4-.2-.65-.31-.26.5-.5.95-.67,1.29.47.73.9,1.42,1.34,2.1l-.26.26c-.53-.33-1.06-.67-1.56-.98-.88.65-.69,1.46-.57,2.33.46.26.93.54,1.4.81v.73c-.37-.19-.64-.42-.94-.46-.47-.07-.96-.02-1.5-.02v1.7c.51.36.97.69,1.88,1.34h-2.36v1.88c.5.3.96.58,1.43.86,0,.16-.02.32-.04.66h-1.84v1.95c.56.1.99.18,1.88.35-.91.65-1.45,1.03-1.92,1.37v1.25c.53.1.98.19,1.77.33-.77.64-1.34,1.12-1.7,1.42-.52,1.54.63,1.63,1.43,2.13-.55.35-1.06.68-1.46.94v1.68c.55.09.99.16,1.59.27-.46,1.11-2.45,1.12-1.56,2.72.43.07.89.15,1.73.29-.63.51-.99.8-1.37,1.11,0,.45-.07.97.03,1.44.05.26.39.46.45.53-.24.82-.41,1.4-.58,1.96.49.21.82.36,1.47.65-.61.39-.96.61-1.32.84v1.64c.51.09.97.16,1.69.28-.73.47-1.24.8-1.76,1.14.02.38.04.77.05,1.11.76.09,1.34.16,2.27.27-.81.48-1.27.76-1.75,1.05v1.67c.49.29.96.56,1.42.84-.24.23-.47.47-.71.71-.22-.15-.42-.29-.79-.55v2.37c-.37.32-.67.57-1.14.98-.28-.48-.49-.84-.82-1.4.02-.36.13-1.01.4-1.72.42-1.11-.36-2.36-.35-3.5.03-3.52-.74-6.98-.61-10.51.18-4.98.04-9.97.05-14.95,0-1.77-.15-3.56.49-5.28.19-.5.42-1.01.49-1.54.45-3.34,1.29-5.3,3.5-8.03.08-.1.01-.32.01-.5-.45-.22-.91-.44-1.28-.62-1.1.53-.53,1.52-.67,1.89-.9.76-1.54,1.3-2.07,1.75.22.7.37,1.17.65,2.05-.7-.66-1.05-.98-1.33-1.24-.44.4-.87.78-1.06.95.11.77.18,1.34.24,1.75-.72-.12-1.29-.21-2.23-.36.34.9.57,1.46.75,2.02.04.12-.08.29-.12.44-.62-.12-1.2-.84-1.87-.1.16.54.33,1.08.61,2.01-.68-.63-1.02-.96-1.37-1.28-.22.44-.44.85-.62,1.2.13.38.27.77.55,1.57-.76-.36-1.09-.52-1.46-.7-.59.4-.93.96-.58,1.78.29.1.58.21.96.34-.1.31-.19.57-.35,1.04-.62-.49-1.07-.84-1.67-1.31-.26.63-.47,1.13-.61,1.45.2.89,1.43,1.03.9,2.07-.49-.37-.96-.73-1.56-1.18-.47.77-.85,1.4-1.22,2.02.96.96,1.34,1.54,1.14,1.74-.44-.2-.91-.41-1.5-.67-.3.8-.57,1.52-.81,2.16.43.52.75.91,1.14,1.37-.61.07-1,.12-1.43.17v2.48c.65.24,1.25.46,1.85.69-.02.09-.03.17-.05.26h-2.34v2.36c.51.08.97.16,1.46.24-.05.33-.08.55-.11.76-.52.1-.97.19-1.41.27v1.61c.34.16.67.32,1.24.59-.44.34-.76.59-1.28.99.2,1.52.43,3.24.67,4.99.25.09.54.2.63.23-.11.81-.22,1.55-.32,2.31.83.08,1.45.15,2.27.23-.74.54-1.27.94-2.02,1.49.49.32.82.54,1.12.74.48-.24,1.04-.52,1.68-.84.09,1.23-1.81,1.69-.69,3.04.79-.38,1.61-.77,2.51-1.19.1.38.15.61.19.77-.58.44-1.11.84-1.81,1.36,1.59,1.13,2.98,2.11,4.43,3.14-1.26.88-2.14-.26-3.14-.16-.93-.85-1.87-1.68-2.79-2.54-.67-.63-1.3-1.29-1.94-1.93-1.48,2.47-1.48,5.5-2.82,7.96h-1.17c-.59-.88-.84-1.83-.77-2.91s.08-2.16,0-3.24c-.08-1.02-.3-2.03-.48-3.03-.18-1.01.34-2.04-.43-3.08-.4-.54-.07-1.61-.07-2.44v-3.99c-1.57,1.57-2.95,2.86-4.22,4.24s-2.67,2.61-3.85,4.1c-1.09,1.38-2.81,2.27-4.43,3.51-.45-.21-1-.47-1.61-.76.58-1.52,1.19-2.85,1.6-4.25.44-1.48.78-2.98,1.52-4.36.7-1.29.86-2.78,1.57-4.09.69-1.27,1.2-2.64,1.8-4-.15-.15-.39-.39-.51-.51-4.58,3.65-9.14,7.29-13.85,11.05-.54-.31-1.06-.6-1.68-.95.3-.8.39-1.6.83-2.06.89-.95,1.44-2.09,1.81-3.25.37-1.14,1.76-1.72,1.55-3.1,1.79-2.4,2.45-5.3,3.64-8.17-5.88.6-11.28,2.56-16.85,3.71-.21-.17-.53-.42-.77-.61,0-.92,8.97-9.42,12.48-11.92,0-.25.08-.6-.02-.89-.1-.29-.37-.52-.49-.66-5.51-1.2-11.04-1.55-16.41-2.77v-1.26c3.97-2.87,8.53-4.47,13.03-6.7-.29-.35-.49-.53-.6-.76-.1-.2-.1-.45-.17-.84-.44.21-.77.38-.98.48-2.49-1.07-4.9-2.3-7.45-3.12-2.5-.81-4.62-2.55-7.52-2.81.2-.68.37-1.25.58-1.97,2.02.33,3.77-.21,5.54-.65,1.8-.45,3.38-1.46,5.24-1.85,1.68-.35,3.23-1.33,5.05-2.13-2.1-2.45-4.64-3.92-6.95-5.64-2.4-1.8-4.88-3.49-7.38-5.27.27-.29.48-.52.77-.83,1.57,0,3.22-.05,4.87.02.77.03,1.52.44,2.29.45,1.19,0,2.35.13,3.57-.38.72-.3,1.9-.47,2.79.35.27.25.96.04,1.63.04.03-.58.07-1.2.11-1.9h-1.08c-1.15-1.29-2.04-2.61-3.23-3.53-1.16-.9-2.13-2.02-3.32-2.82-1.23-.82-1.61-2.56-3.25-2.82-.24-.58-.48-1.15-.61-1.48-.66-.5-1.13-.86-1.77-1.34.4-.42.67-.7.93-.98,1.56-.29,2.95.21,4.4.7,2,.68,4.03,1.42,6.23,1.23,1.86-.16,3.7.06,5.68.8v1.19c-2.57-.17-5.14-.33-7.7-.5-.23-.02-.53-.02-.67-.16-.71-.69-1.76.04-2.29-.39-.78-.63-1.55-.32-2.33-.42l.07-.07c-.12-.14-.23-.27-.35-.41-.05.05-.1.1-.16.16.14.12.27.23.43.32-.2.79.5,1.1.88,1.6.35.46,1.12.29,1.29,1.16.1.5,1.1.79,1.63,1.24,1.86,1.61,3.69,3.25,5.56,4.9.41-.46,1.02-.84,1.11-1.32.36-1.85,1.43-3.37,2.19-5.03.16-.34.24-.72.35-1.09l.16-.12Zm77.33,26.98l.1-.1c-.12-.14-.23-.27-.35-.41l-.16.16c.14.12.27.23.5.24l-.1.1c.12.14.23.27.35.41l.16-.16c-.14-.12-.27-.23-.5-.24ZM37.45,40.99l-.1.1.35.41.16-.16c-.14-.12-.27-.23-.45-.3-.08-.38.25-.95-.66-.87.09-.06.19-.12.28-.18-.34-.79-.67-1.58-1.03-2.44.39,0,.68-.08.88,0,1.24.61,2.47,1.26,3.69,1.91.13.07.21.23.57.62-1.23-.23-2.16-.41-3.19-.6.43,1.25,1.66,2.16.62,3.29.15.34.24.56.34.76.07.15.16.29.28.51.56-.77.9-1.67,1.52-1.98.75-.37.26-1.42,1.29-1.62.56-.11.95-1.08,1.49-1.74-1.91-.92-3.63-2.15-5.53-2.56-2.05-.44-3.34-2.44-5.76-2.51.85,1.28,1.52,2.33,2.23,3.35.75,1.08,1.55,2.12,2.49,3.05.08.38-.25.95.54.95h-.01Zm84.83-17.9c-.09-.08-.18-.17-.27-.25-.23.35-.46.71-.76,1.17.33.02.6.04.95.06.03-.4.05-.69.06-.99.17-.17.33-.33.5-.5.8.18,1.32-.45,1.94-.72,1.82-.81,3.59-1.72,5.42-2.61-.24-.27-.59-.66-.89-1,.19-.97.36-1.81.47-2.7.03.03.06.06.1.1.14-.12.27-.23.41-.35-.05-.05-.1-.1-.16-.16-.12.14-.23.27-.3.45-2.33,2.33-4.66,4.65-6.99,6.98-.17.17-.33.33-.48.5v.02Zm-1.56,80.83l.1-.1-.35-.41-.16.16c.14.12.27.23.4.12.12,1.19.54,2,1.43,2.54-.12-.98-.42-1.87-1.42-2.31Zm2.5-1.99l.1-.1c-.12-.14-.23-.27-.35-.41l-.16.16c.14.12.27.23-.04.3,1,.89,1.08,2.1,2.57,2.64l-1.32-2.64c-.26,0-.51,0-.8.05Zm10.03-66.87c-.75-.13-1.3.24-1.47.88-.2.75.12,1.39.97,1.61v.86c1.14.38.99-.31,1-.86.92-.45.83-1.54,1.44-2.23,1.8-2.04,3.45-4.22,4.5-6.79l.1.1c.14-.12.27-.23.41-.35-.05-.05-.1-.1-.16-.16-.12.14-.23.27-.3.45-.36.11-.75.18-1.09.35-1.45.75-2.62,1.9-4.03,2.74-1.35.81-2.98,1.65-4.04,3.86,1.74-.88,2.41-2.7,4.17-2.32-.27,1.51-1.05,2.83-1,4.34h-1c.17-.83.33-1.66.45-2.54.03.03.06.06.1.1.14-.12.27-.23.41-.35-.05-.05-.1-.1-.16-.16-.12.14-.23.27-.3.45v.02Zm-49.04,43.23c.3.97.54,1.76.77,2.49.63-.19,1.23-.38,1.94-.6-.92-.64-1.74-1.22-2.59-1.79-.22-.93-.45-1.91-.69-2.94-.49.77-.94,1.49-1.42,2.24.82.27,1.47.49,1.98.6h0Zm39.06,13.11c-.78.69-1.58,1.36-2.31,2.1-.18.18-.13.59-.18.89-.17,0-.37-.07-.49,0-2.19,1.43-4.23,3.04-5.99,5.22-.34.35-.79.81-1.13,1.15.05.1.18.38.36.77.35-.87.6-1.5.76-2.16h1.86c.36-1.49,1.3-2.05,2.56-2.11.24-1.23,1.15-1.7,2.07-2.14v-.74c.76-.43,1.53-.87,2.5-1.42,0-.34,0-.95-.05-1.62l.1.1.41-.35-.16-.16c-.12.14-.23.27-.3.45v.02Zm-20.48,3.99c.41.5.81,1.01,1.5,1.86v-1.36c1.86,1.28,3.42,2.89,4.65,4.37.74-.48,1.33-.86,1.93-1.25-.23-.45-.41-.79-.59-1.12.75-.04.42-.62.5-1,.51.35,1.02.7,1.5,1.03.72-.32,1.11-.77,1-1.53.26.15.52.3.79.46l1.2-1.2c-.9-.93-1.99-1.76-2-3.24.33.31.8.55.97.93.39.84.9,1.41,2.02,1.64v-1.08c.25.14.5.28.93.52.18-.48.37-1,.57-1.51h1v-1.5c.82.02,1.66.09,2.05-1.08-1.19-1.87-2.44-3.82-3.67-5.78-.41-.65-.93-1.27-.88-2.12,1.92,1.86,2.99,4.3,4.49,6.45.24.34.48.68.72,1.02.23-.55.28-1.09.05-1.43-1.27-1.86-2.16-3.94-3.37-5.81-1.17-1.81-1.93-3.98-4.28-5.2.14,0,.29-.01.43-.02-.06-.32-.13-.65-.19-.97-.11.01-.22.03-.32.04.03.32.05.64.47.94-.06.93.45,1.65,1.03,2.22.57.56.44,1.15.46,1.76-1.66-1.52-2.14-3.78-3.56-5.84-.43.91-.73,1.57-1.08,2.31.46.69.93,1.31,1.32,1.98,1.05,1.79,2.4,3.44,2.82,5.55-.59-.18-.76-.64-1.04-1.16-1.1-2.01-2.37-3.93-3.61-5.93-.39.41-.61.64-.83.87,1.29,1.16,2.18,2.52,2.48,4.22-1-.13-1.15-1.12-1.39-1.73-.37-.91-1.01-1.33-1.74-1.96-.35.39-.61.67-.83.92.89,1.59,1.72,3.14,2.62,4.65.32.53,1.07.81.85,1.62-1.54-.73-1.99-2.34-2.8-3.62-.45-.7-.85-1.33-1.55-1.89-.36,1.23.28,1.93.78,2.73.56.9,1.55,1.58,1.58,2.78-1.73-.83-2.05-2.88-3.6-4.1-.26.25-.54.51-.83.79.61.87,1.45,1.63,1.44,2.81-1.16-.31-1.45-1.93-3.05-2.02.1.59.06,1.09.27,1.45.38.68,1.02,1.22,1.35,1.92.59,1.25,1.95,2.09,1.94,3.64-.33-.31-.73-.58-.99-.94-1.2-1.72-2.07-3.68-3.71-4.94-.5.27-.88.46-1.13.59,1.62,2.02,3.23,4.02,4.81,6.05.12.16.02.49.02.74-1.84-1.09-2.69-3.04-3.99-4.61-.61-.74-1.23-1.44-2.18-2.11-.28.43-.5.76-.71,1.09.95.95,2.02,1.97,3.02,3.05.23.25.25.71.36,1.07-1.05.22-1.51-.66-1.94-1.26-.7-.96-1.56-1.64-2.59-2.18l.1-.1c-.12-.14-.23-.27-.35-.41l-.16.16c.14.12.27.23.45.3.11.52.1,1.12.35,1.56,1.15,2.04,2.84,3.6,4.75,4.91.57.39,1.01.76.89,1.51-.5-.17-1-.33-1.74-.49-1.01-1-2.13-2.13-3.16-3.16v.98c.9.93,1.81,2.08,3.4,2.17h0Zm23.96-60.85l.5.5c-.87,1.18-1.73,2.36-2.66,3.62.3.52.57.97.81,1.36.54,0,.95,0,1.36.09-.05.73-.09,1.56,1.1,1.97,1.23-.87,2.56-1.8,3.84-2.7-.23-.46-.43-.86-.63-1.27-1.96-.56-2.65,1.78-4.31,1.92.98-1.1,1.95-2.19,2.94-3.3-.47-.47-.96-1.03-1.53-1.5-.21-.17-.6-.13-.91-.19-.17-.17-.33-.33-3.34,2.99,1.27-.91,1.83-2.28,2.59-3.5.07-.11.13-.35.07-.41-.28-.26-.59-.48-1.03-.81-.64,1.49-1.22,2.81-1.77,4.14-.05.11.07.29,2.98-2.92h0ZM42.73,105.06c.28.43.6.92,1.02,1.57.84-.42,1.54-.76,2.46-1.22-.49-.58-.79-.93-.93-1.1-1.03.3-1.69.5-2.39.79v-.97c.51-.32,1.01-.64,1.54-.97-.39-.38-.72-.65-.96-.98-.19-.26-.27-.6-.44-.99-.88.7-2.08.67-2.18,1.89.61.61,1.2,1.19,1.87,1.96v.02Zm78.22-5.14c-1.42-.25-1.68,1.07-2.59,1.49h-1.39c-.37.92-.83,1.73-1.84,2.02-.23-.2-.41-.36-.58-.52-.39.6-.79,1.2-1.46,2.23,2.99-1.58,5.66-2.77,7.68-5.25.17-.17.33-.33.4-.35.49-.2.94-.26,1.18-.52,1.44-1.55,2.88-3.1,4.23-4.73.38-.46.46-1.18.83-2.17-1.24,1.12-2.13,1.92-3.15,2.85v1.28c-.57.38-1.25.68-1.72,1.19-.52.56-.85,1.3-1.26,1.96-.17.17-.33.33-.31.53h-.02ZM38.41,54.74c-1-.37-1.92-.71-2.9-1.08l-.54.54v1.53c.49.33.85.62,1.26.83.45.23.95.39,1.44.58.29-.93.52-1.66.9-2.49.26-.69.49-1.33.73-1.97-1.13-.25-1.87-1.93-3.32-.96v1.15c.95.43,1.98.62,2.44,1.88h0Zm20.53,70.1c.82-2.47-.55-4.61-.68-6.89-.47-.2-.86-.36-1.4-.59.26,1.06.49,2,.71,2.91.26.05.48.1.58.12.27,1.55.53,3,1.47,4.41h-.35v1.45h-.72c-.24-.71-.57-1.35-.66-2.02-.11-.79-.03-1.6-.03-2.4-.83,3.36-.34,6.66.2,10.11.83-1.92,1.59-3.68,2.37-5.5-.27-.54-.54-1.09-1.5-1.6h0Zm-8.76-10.99c.72,2.38-1.88,3.49-1.15,5.47,1.21-.74,2.33-1.43,3.44-2.1.29.25.47.41.47.41.4-.45.79-.9,1.2-1.36-1.03-.63-2.21-1.36-5.69,4.07-.17-.46-.45-.95-.52-1.46-.06-.48,1.83-4.13,2.22-4.55.08-.09.18-.15-.02.01-.13-.36-.27-.73-.43-1.17-.41.52-.68.75-.79,1.03-.78,2.09-1.52,4.2-2.74,6.09-.12.19-.25.42-.25.64-.03,1.46-.7,2.68-1.32,3.95-.19.38-.15.87-.19,1.15,2.57-2.57,5.15-5.15,7.75-7.74-1.29.26-1.89,1.82-1.96-4.45h-.02Zm-1.29-82.28c.8-.44,1.57-.9,1.5-1.99.5-.16,1.01-.33,1.85-.6-.87-.61-1.44-.99-2-1.39-1.91-1.37-3.89-2.67-5.71-4.16-.96-.78-2.05-1.12-3.14-1.65.32.87.64,1.76,1.27,2.24.87.66.67,1.72,1.32,2.48,1.03,1.22,1.84,2.65,2.44,4.17.35.88.9,1.68,1.52,2.8.43-.85.69-1.37.95-1.9Zm106.86,127.39c2.06-.67,3.44-1.58,4.3-2.9,1.32-2.03,3.06-3.77,4.09-6,.85-1.83,1.81-3.61,1.49-5.75h-3.33c-.35,5.47-2.03,10.34-6.04,14.45-.03-.03-.07-.06-.1-.1-.14.12-.27.23-.41.35l.16.16c.12-.14.23-.27-.17-.22h0Zm-120.85-57.66h2.98c-.92-1.36-1.79-2.64-2.7-3.99-.55.58-1.03,1.16-1.59,1.63-.6.51-.91,1.42-1.88,1.44-.12.8-.88.94-1.38,1.36-.62.54-1.18,1.16-1.77,1.75-.53.53-1.06,1.04-1.58,1.58-.51.53-1.12,1-1.66,1.8,2.83-.61,5.34-1.15,8.1-1.75,1.49-.99,3.55-1.08,5.47-1.43v-1.09c-.43-.22-.84-.43-1.05-.54-1.88.41-3.63.79-5.42,1.17v-1.12c1.11-1.03,2.05-2.42,4.3-2.15-.66.48-1.05.76-1.3,1.8,0-.14,0-.29-.02-.43-.33.06-.65.13-.98.19,0,.11.03.21.04.32.32-.03.64-.05.43-.55h0Zm117.26,57.76c.26-1.48.08-3-.48-4.4-.73-1.85-1.48-3.73-2.5-5.42-1.25-2.08-2.73-4.04-4.25-5.94-.67-.84-1.02-1.88-1.96-2.55-1.94-1.39-3.79-2.91-5.75-4.44-.8-.06-1.46.38-2.11.96,1.67,1.37,3.25,2.55,4.7,3.88,1.49,1.37,2.87,2.86,4.11,4.48.73.95,1.37,2,1.72,3.03.39,1.14,1.42,1.82,1.65,3.07s1.03,2.39,1.41,3.63c.38,1.26,1.42,2.22,1.55,3.6.03.26.42.48.63.71.41-.19.81-.38-7.15-18.37h.64c.88,1.18,1.75,2.29,2.55,3.45,1.02,1.47,2.1,2.92,2.96,4.48,1.03,1.87,2.23,3.68,2.51,5.91.13,1.04.62,2.05.97,3.15.54-.5.99-.92,1.61-1.49-1.22-.66-.3-2.03-1.22-2.77-.84-3.2-2.15-6.23-3.69-9.14-1.01-1.9-1.93-3.9-3.96-5.04-.24-.14-.25-.7-.37-1.06.37.12.87.12,1.08.37,1.99,2.41,4.33,4.61,4.94,7.89,1.85,2.98,2.73,6.33,3.7,9.83.79-1.03,1.51-1.96,2.32-3-.2-2.33-1.44-4.42-2.32-6.63-1-.54-.89-1.68-1.15-2.5-.65-2.04-1.66-3.88-2.94-5.48-1.37-1.72-2.91-3.49-5.46-3.55l-1.41-1.41c-.88.03-1.76.32-2.63.87.99.09.95,1.05,1.38,1.62-.37-.12-.81-.14-1.08-.37-.6-.49-1.12-1.08-1.56-1.52-.88.41-1.57.74-2.39,1.13.48.44.9.91,1.4,1.25,1.31.9,2.68,1.73,3.75,2.92.24.26.25.72,8.8,18.85h0Zm-47.36-59.66c-.98-1.91-3.21-2.16-4.53-3.67-.96,1.71-.99,1.71-.96,3.24.06,2.44-.74,4.6-2,6.81v3.55c.02,2.03.53,2.95,2.01,3.88,2.88.75,4.57-.79,5.94-2.68.95-1.32.72-2.82-.06-3.9-.56-.33-.88-.51-1.09-.63-1,.37-1.92.72-2.79,1.04v1.18c.71.33,1.92-.03,1.99,1.48-.21.16-.52.41-.99.77-.6-.22-1.32-.49-1.81-.67-.48-.97-.85-1.72-1.21-2.47.51-1.45,1.49-2.39,2.77-2.9h3.02c2.47,2.62,2.92,4.06,2.08,6.72-.2.45-.29.79-.49,1.06-.25.34-.6.62-.85.87,1.24,2.33,2.26,3.55,3.07,3.66-.39-.84-.56-1.66-1.23-2.24-.77-.66-.27-1.35-.11-1.8-.14-.57-.24-.94-.27-1.32,2.02-.83,3.28-2.48,4.71-4.17-2.48-1.4-4.17-3.17-4.24-6.07-.79-.86-1.65-1.68-2.97-1.73h0Zm155.24,74.1c.29,1.39,1.69,2.37,1.44,4.19-.57.2-1.21.43-1.85.64-1.58.54-3.16,1.04-4.81.82l-.7.7c.22.43.43.84.61,1.2.53.24,1.02.47,1.2.55,1.49-.57,2.81-.87,3.89-1.55.82-.51,1.78-.62,2.3-.31,1.28.74,2.53.23,3.65.44.65-.65,1.18-1.18,1.61-1.61.26-.94.49-1.76.75-2.7-1.98-1.68-3.93-3.33-6.11-5.18.03.11.03-.15-.1-.33-1.08-1.55-1.55-3.27-1.39-5.15.15-1.75.37-3.5.58-5.36-.9-1.02-1.8-2.05-2.53-2.88-1.16-.28-2.07-.67-2.98-.68-.92,0-1.84.36-2.96.6-.23.22-.63.59-1.04.97-.71-.25-1.27-.46-1.64-.58-1.7.65-.45,2.15-1.23,3.11-.4.49-.15,1.51-.18,2.11.9.29,1.56.51,2.21.72.29-.68.57-1.36.86-2.04.33.85.73,1.65-.1,2.29.46.22.91.44,1.02.5,1.32-.04.69-1.7,2.05-1.52-.39,1.09-1.23,2.23.14,3.21.59-1.1,1.32-2.05,2.92-2.65-.51.81-.81,1.3-1.14,1.77-.35.51-.73,1-1.09,1.48.2.21.3.33.51.55.72-.57,1.45-1.15,2.24-1.78.18.33.29.53.47.85-.72.6-1.43,1.18-2.26,1.86.3.32.59.63.81.87.57-.41,1.01-.73,1.61-1.16.11.49.17.76.21.93-.58.36-1.05.65-1.5.93.3.52.56.96.84,1.44.38-.19.69-.35,1.31-.66-.29.74-.47,1.22-.7,1.79.3.28.64.59.82.76.71-.2,1.18-.33,1.65-.45.04.1.07.19.11.29-.51.33-1.02.66-1.53,1l.03.02Zm-16.97-82.09v1.55c1.31,1.31,2.36-.75,3.57.25-.12.26-.25.65-.31.64-.7-.14-1.25.23-1.78.56-.24.15-.37.48-.77,1.02h3.3c-.05.41-.08.63-.08.63-.91.18-1.69.33-2.47.48.04.56.07.94.1,1.41h2.38v.81c-.79.34-1.93-.31-2.37.92.15.16.37.39.59.63.78.06,1.56.12,2.41.18-.1.4-.16.63-.23.92h-2.23v2.02h2.33v.94h-2.39v2.02h1.96c-.04.4-.07.63-.09.9-.67.05-1.29.1-1.83.15v1.34c.86.06,1.65.11,2.49.17-.09.4-.14.63-.21.92h-2.18c-.31.37-.55.67-.83,1,.63.46,1.13.83,1.75,1.28-2.01.53-2.19.63-2.09,1.46.33.16.67.32,1.04.5-.08.26-.14.48-.2.68-.46.03-.85.06-1.18.08-.22.5-.39.9-.57,1.32.6.31,1.69-.18,1.75,1.07-.78.05-1.57.1-2.64.17.53.73.88,1.22,1.35,1.87-.98.1-2.14-.31-2.56.98.19.39.4.8.61,1.23-.94.35-1.79.67-2.77,1.03.25.45.43.77.54.96-.88.45-2.03.7-2.58,1.41-.56.73-1.18,1.06-1.92,1.4-.33.15-.57.48-.84.71.19.25.32.41.56.71h-2.58c-.4.49-.86,1.06-1.02,1.26-1.29.42-2.15.7-2.92.95-.05.58-.09.97-.13,1.52-.67-.31-1.15-.53-1.63-.75.09.14.18.27.26.41-.37.12-.74.24-1.02.33.25.39.35.53.7,1.07-1.33-.5-2.25-1.18-3.26-.43.16.41.3.77.64,1.64-.95-.68-1.44-1.02-1.85-1.32-.45.24-.85.45-1.3.68.16.39.31.76.65,1.59-.99-.67-1.56-1.05-2.25-1.52-.4.55-.77,1.06-1.09,1.49-.5-.35-.95-.67-1.55-1.09-.14.72-.24,1.22-.35,1.75-.51-.44-.93-.8-1.47-1.27-.45.66-.79,1.17-1.14,1.69-.31-.29-.65-.61-.98-.92-.88.45-1.75.89-2.55,1.29-.29-.14-.57-.28-.82-.41-.42.4-.78.73-1.12,1.06-.85-.88-1.8-.35-2.66-.43-.09.41-.13.64-.22,1.05-.71-.62-1.22-1.55-2.26-.95-.08.45-.17.9-.25,1.36-.8-.46-1.12-1.49-2.35-1.53v2.21c-.51-.74-.84-1.23-1.09-1.6h-1.98c.2.51.34.9.5,1.33-1.21.3-1.25-.71-1.64-1.43-.56.04-1.15.09-1.72.13.4.61.72,1.11,1.34,2.07-.98-.48-1.5-.62-1.85-.94-.38-.34-.6-.85-.9-1.29-.43.07-.8.13-1.41.22.51.72.85,1.21,1.45,2.07-1.57-.54-2.05-1.59-2.66-2.01-1.11.15-2.03.27-2.95.39.3.72,1.09,1.05,1.49,1.95-1.52-.23-1.92-1.52-2.9-2.09-.36.03-.75.05-1.06.08-.43,1.12,1.45,1.31.67,2.53-.71-.84-1.37-1.62-2.09-2.46h-2.42c.49.73.84,1.24,1.44,2.12-1.43-.54-2.05-1.18-2.33-2.13h-2.35c.44.85,1.52,1.13,1.5,2.23-1.54-.15-1.92-1.47-2.65-2.29h-1.52c.55.55.96.9,1.29,1.31.21.26.29.62.43.93-.1.07-.2.14-.3.21-1.04-.82-2.08-1.65-3.22-2.56-.26.07-.67.17-1.07.28.84.73,1.57,1.27,1.87,2.22-1.62-.75-3.02-1.8-4.71-2.37.28.52.69.87,1.02,1.29.21.26.29.62.58,1.3-1.26-.85-2.02-1.7-4.41-2.26.34.38.44.57.51.56.24-.03.47-.14.7-.22-.3-.09-.6-.17,0,.23.22.63.91,1.19.23,2.03-2.33-3.15-5.64-3.28-9.23-2.93,1.2,1.75,1.38,4.13,3.75,4.97h4.08l.77.77c-.16,1.59-.33,3.31-.49,4.94.42-.36.86-.75,1.31-1.13-1.21-.82.51-1.5.11-2.37-.39-.82-.88-1.72-.37-2.7,1.55-.4,3.02.39,4.49.35,3.51-.09,7.02.42,10.54-.38,2.18-.5,4.5-.4,6.76-.56.33-.02.75.13.98-.02,1.29-.82,2.7-.41,4.05-.46,1.45-.06,2.79-.74,4.29-.56.65.08,1.35-.36,2.04-.44.74-.08,1.61.23,2.22-.06,1.88-.89,3.99-.67,5.91-1.39,1.23-.46,2.67-.42,4.01-.55s2.49-.82,3.81-1.08c2.18-.42,4.33-1.14,6.4-1.98,2.06-.83,4.08-1.84,5.99-2.98,3.35-2,6.73-3.95,9.9-6.26,2.67-1.95,4.63-4.37,6.31-7.1.61-.99,1.05-2.09,1.75-3.01,2.41-3.16,3.42-6.88,3.66-10.67.25-3.92.61-7.96-.91-11.79.05-2.61-1.19-4.8-2.29-7.02-.58-1.18-1.33-2.27-1.92-3.45-1-2.01-2.31-3.78-3.89-5.37-.47-.47-1.16-.87-1.33-1.44-.33-1.08-1.16-1.41-1.98-1.9-.82-.48-1.21-1.48-2.24-1.83-.86-.29-1.55-1.06-2.4-1.44-3.3-1.47-6.66-2.79-9.93-4.33-2.05-.96-4.15-2-6.34-2.08-2.51-.09-4.78-1.45-7.32-1.09-.88-.96-2.09-.16-3.02-.54-1.1-.46-2.19-.38-3.3-.47-2.18-.17-4.42.53-6.53-.48-.86.55-1.84-.3-2.55.07s-1.36.39-2.07.44c-2.18.16-4.35-.25-6.55.41-1,.3-2.17.37-3.26.58-1.09.2-2.19.32-3.28.51-.69.12-1.36.46-2.04.47-4.24.04-8.48.06-12.72,0-4.26-.05-8.54.36-12.76-.5-1.42-.29-2.85-.42-4.27-.58-.63-.07-1.34-.32-2.05-.41-.77-.1-1.53-.48-2.29-.45-1.81.07-3.39-.5-4.98-1.26-1.18-.56-2.44-.94-3.66-1.41-.07.09-.13.19-.2.28-.46-.58-.93-1.15-1.19-1.48-1.06-.3-1.81-.51-2.83-.8-.64-.62-1.41-1.57-2.66-1.87-.28-.07-.67-.32-.74-.56-.29-1.02-1.26-1.47-1.77-2.27-1.21-1.88-2.72-3.64-2.92-6.01-1.04-1.18.04-2.89-1-4.07.05-1.81-.24-3.7.22-5.4,1.33-4.95,4.69-8.61,8.41-11.96.1-.09.32-.05.44-.13,2.05-1.26,4.34-1.97,6.56-2.84,1.32-.52,2.9.18,4.22-.65,4.26-.21,8.23.52,11.27,3.36,1.23-.2,2.23-.36,3.47-.56-.28-.81-.55-1.58-.85-2.47-1.13.57-2.13,1.08-3.2,1.62-.03-.31-.05-.54-.07-.75.71-.34,1.38-.67,2.25-1.09-.59-.64-1.05-1.14-1.42-1.54-1.01.5-1.87.92-2.76,1.36-.38-1.43,1.35-.8,1.4-1.7-.74-.38-1.5-.77-2.57-1.33-.51.57-1.14,1.27-1.77,1.97-.56-.93.73-1.06.77-1.81h-2.07c-.52.65-1.03,1.29-1.55,1.93-.11-.07-.22-.13-.33-.2.18-.47.36-.94.55-1.4-.33-.82-.95-1.04-1.86-.86-.35.53-.74,1.12-1.15,1.7-.06.09-.22.11-.38.18-.08-.49-.15-.95-.21-1.36h-2.41c-.25.65-.49,1.28-.72,1.88-.32-.48-.64-.97-.87-1.32-.76.23-1.33.41-1.98.6.18.79,1.09,1.42.2,2.42-.29-.75-.54-1.38-.82-2.09-1.19-.25-2.34-.04-3.37.76.22.48.36.78.75,1.62-.97-.69-1.47-1.05-1.96-1.4-.56.36-1.14.74-1.62,1.05.15.74,1.39.9.59,2.09-.54-.64-1.01-1.2-1.45-1.73-1.17.24-1.18.22-2.14,1.34.93.4,1.84.83,1.97,2.25-1.1-.78-1.97-1.4-2.85-2.03-.59.42-1.2.86-1.74,1.25.29,1.13,1.63,1.39,1.54,2.67-1.05-.39-1.37-1.86-2.94-1.39-.59.84-1.31,1.87-2.04,2.9-.73.38-1.38.82-1.58,1.85.85.48,1.69.95,2.63,1.47-1.39.53-2.35-.21-3.5-.83-.38.74-.76,1.49-1.14,2.22,1.11.33,2.08.62,3.04.91-.03.16-.07.31-.1.47-1.06-.16-2.12-.32-3.29-.5-.31.52-.66,1.11-.99,1.67.24.26.46.51.75.83h2.67c-.02.32-.04.55-.07.95-1.12-.08-2.19-.16-3.55-.25-.6.42-.46,1.27-.2,2.2.87,0,1.7,0,2.52,0,.09,0,.17.19.22.26-.23.26-.45.51-.65.74h-2.02c-.25.25-.48.48-.66.66v2.78c.98-.49,1.89-.94,2.79-1.4-.08.13-.15.26-.23.4.31.07.62.15,1.14.27-1.53.64-2.65,1.11-3.75,1.57v1.47c.26.26.49.49.73.73,1.47-.94,2.63-1.34,3.46-1.19-1.14.73-2.13,1.36-3.21,2.05.08.66-.35,1.65.79,2.02.89-.56,1.31-1.7,2.53-1.94.09.31.15.53.16.55-.9.8-1.69,1.51-2.48,2.21.46.68.83,1.24,1.22,1.82.63-.63,1.13-1.19,1.7-1.67.24-.21.62-.25.94-.37.07.12.15.23.22.35-.84.83-1.67,1.67-2.53,2.53.67.6,1.33,1.19,2.09,1.87.78-1.02,1.44-1.87,2.26-2.94v1.76c-.35.28-.92.74-1.38,1.11-.18,1.41.75,1.83,1.64,2.62.35-.64.53-1.17.87-1.54.36-.38.72-1.27,1.63-.32-.6.7-1.17,1.35-1.9,2.19.75.5,1.4.92,2.11,1.39.65-1.11,1.21-2.07,1.78-3.03.14.07.27.14.41.21-.48,1.06-.97,2.12-1.24,2.71.38.69.66,1.21.85,1.55,2.28.43,1.38-2.01,2.73-2.47.37,1.3-.71,2.29-.73,3.52.82.5,1.59,1.23,2.63.95.33-1.07.61-1.99.89-2.92.31.28.56.49.71.63-.32.86-.62,1.65-.97,2.58.42.38.88.8,1.37,1.24.24-.62.58-1.17.65-1.77.08-.71-.03-1.42,1.15-1.6-.2,1.29-.4,2.51-.59,3.75.89.04,1.52,1.18,2.37.47.39-.97-.5-2.24,1.07-2.74v3.16c1.01.43,1.87,1.12,2.81.65.3-1.38.57-2.64.84-3.89.13,0,.25.02.38.03v4.26c.92.19,1.66.35,2.56.53v-4.11c.42.49.63.73.97,1.12v3.01h3.07c-.25-.96-.46-1.79-.67-2.61.11.08.23.17.34.25.13-.37.27-.73.4-1.1.1.07.2.14.3.22v2.95c.35.42.55.67.75.91.21-.18.38-.33.54-.47.19.16.36.29.45.36.49-.26.89-.47,1.34-.7-.26-.88-1.06-1.71-.31-2.69h.52c.26.95.53,1.92.77,2.79.51.24.91.43,1.31.62.21-.23.43-.45.63-.67-.84-.88-.38-1.82-.4-2.94.42.43.65.67.97,1v2.09c.99.2,1.85.27,2.24-.35-.12-.85-.19-1.41-.29-2.08.46.06.68.1.92.13.07.68.13,1.3.18,1.82h1.31c.07-.69.13-1.29.19-1.89l.34.02v1.85h2.61v-1.33h.81c.07.49.14.95.2,1.3.66-.18,1.23-.34,1.81-.5.1-.29.19-.57.36-1.06.39.51.7.9.96,1.24.67-.03,1.23-.06,1.86-.09v-1.8c.33.7.47,1.01.64,1.38.89-.1,1.84.14,2.8-.19-.23-.28-.36-.45-.49-.62.27-.26.5-.47.69-.65.36.52.7,1.03,1.07,1.55.44-.22.75-.38,1.04-.53.17.17.28.28.4.4.32-.5.64-1,1.04-1.62.17.46.27.75.37,1.01h2.94v-1.8c.1-.03.2-.06.31-.09.29.66.59,1.33.86,1.94h1.15c.08-.7.15-1.31.22-1.9h.74c.08.45.15.91.23,1.37h2.46c-.19-.88-.03-1.5.97-1.87v1.91h2.39c.06-.69.12-1.31.18-1.98.37.07.6.11.82.15.06.84.12,1.62.18,2.3.73-.24,1.3-.43,1.84-.61.05-.76.1-1.5.15-2.23.14,0,.27.02.41.03v2.35h2.28c.26-.48.52-.87.69-1.29.13-.32.15-.69.22-1.04.1.02.2.05.3.07v2.72h2.03v-2.27c.09.06.19.13.28.19.12-.29.24-.58.36-.87.11.06.23.13.34.19-.17.93-.35,1.87-.52,2.79h1.93c.05-.86.1-1.64.14-2.49.4.08.63.13.93.19-.22.73-.41,1.38-.58,1.94.63,1.06,1.49,1.05,2.39.85.31-1,.62-2,.93-2.99,1.22,1.17-.05,2-.12,2.96.75.9,1.5.85,2.26-.05.37-.68-.44-1.96,1.17-2.17-.22.87-.43,1.69-.64,2.54.6.3,1.14.57,1.59.8,1.44-.42.72-1.72,1.34-3.02.09,1.3.14,2.07.21,3.06.51.18,1.08.38,1.63.58.41-.84.74-1.52,1.05-2.16.29.07.44.1.64.15-.32.72-.65,1.44-1.07,2.38.65,0,1.05-.05,1.44.01.4.06.79.22,1.15.33.09-.48.16-.89.28-1.54.41.91.7,1.54,1,2.19.34,0,.68-.06.99.02.23.06.42.29.79.56.31-.83.54-1.44.77-2.05l.23.02v2.26c.75.22,1.32.39,2.12.62.21-.82.42-1.63.63-2.47.24.05.47.09.66.13-.17,1.12-.33,2.18-.51,3.34h1.49c.27-.78.55-1.58.86-2.47.26.07.53.15.71.2-.2.96-.37,1.79-.53,2.57.56.27.98.47,1.43.7.43-.61.9-1.26,1.7-2.38-.28,1.45-.46,2.34-.63,3.19.73.33,1.27.57,1.81.81.38-.78.71-1.45,1.06-2.16.32.15.52.24.8.37-.39.95-1.28,1.94.47,2.81.4-.4.89-.89,1.35-1.35v1.35c-.18.11-.59.34-1.09.63.81.35,1.36.59,1.76.77.61-.75,1.11-1.37,1.66-2.06.85,1.41-.74,1.8-.8,2.55.59.5,1.06.89,1.44,1.21.15-.69.69-1.25,1.57-1.61v1.15c-.29.31-.63.66-.65.69.15.43.3.85.45,1.28,1.02-.46,1.49-1.87,2.94-.81-.79.61-1.54,1.19-2.31,1.79.63.58,1.09,1.02,1.87,1.74.43-.62.72-1.13,1.11-1.55.22-.23.61-.29,1-.47.06,1.57-1.62,1.5-1.98,2.68.26.61.55,1.29.8,1.88,1.49.03,1.09-2.33,2.85-1.87-.26,1.31-1.52,1.73-2.01,2.67.4.6.77,1.15,1.08,1.61,1.19-.47,2.22-.87,3.39-1.34-.27,1.95-2.27,1.22-3.11,2.34.49.64.45,1.75,1.56,2.08l-.06.04Zm-169.12-25.89c.6.82.96,1.31,1.33,1.82-.76.24-1.44.47-1.44,1.52.69.08,1.36.16,2.51.3-.7.53-1.03.77-1.49,1.11-.65,1.06,1,1.42,1.03,2.41-.36.17-.7.34-.96.46v2.68c.39.18.7.31,1.16.52-.53.61-.9,1.03-1.37,1.57.25,1.29.52,2.65.83,4.2.31-.86.54-1.51.79-2.21,1.26.14,2.36-.21,3.37.4.65-.81,1.31-1.62,1.95-2.43.06-.08.03-.23.06-.44h-1.78c-.53-.75-1.03-1.46-1.52-2.15-.52-1.66.6-2.87,1.11-4.26h2.3c.73,1.14,1.47,2.29,2.27,3.53.18-.45.3-.74.42-1.03h2.53c1.1.71.79,1.58.71,2.37-.65-.35-1.18-.67-1.75-.91-.17-.07-.44.09-.66.14v1.53l1.81,1.81c1.09.2,2.25.41,3.3.6,1.02-.75,1.87-1.38,2.7-2,.85.64.72,1.44.56,2.37-.76.41-1.57.84-2.39,1.28.83.41,1.62,1,2.5,1.18.88.17,2.02.4,2.49-.9-.3-.63-.61-1.28-.96-2.01,1.58-.14,1.26,1.61,2.26,1.92.41-.64.32-1.21-.3-1.69s-.7-1.05-.21-1.89c.54.95,1.03,1.79,1.52,2.65.38-.02.77-.04,1.56-.08-.61-.76-1.16-1.19-1.33-1.73-.25-.84-.67-1.12-1.51-1.23-1.03-.14-1.22-.91-.91-1.83,2.4-.53,3.23-1.12,6.88-4.92.23-2.45,1.78-4.81.59-7.16.23-.4.42-.74.52-.92.56.45,1.01.81,1.38,1.1v5.38c0,.07.04.15.06.2.76.37,1.51.74,2.24,1.09.22-.19.46-.41.86-.77-.81-.35-1.5-.64-2.22-.95.09-.25.17-.46.16-.44.67.1,1.24.19,1.9.29-.05-.45-.07-.68-.09-.9-.51-.09-.97-.17-1.41-.25v-.7c1.21-.66,2.17.94,3.22.32,1.83,1.83,2.76,3.72,2.78,5.67.97,1.69,1.7,3.46,2.87,4.87,1.86,2.27,3.14,4.85,4.6,7.34.8,1.37,1.56,2.77,2.45,4.35.7-.69,1.25-1.23,1.8-1.78.63.66,1.14,1.4,2.17.84,4.41-5.96,5.79-12.93,6.67-20.09-.52-.3-.85-.51-1.2-.69-2.18-1.17-4.47-2.16-6.5-3.55-1.36-.93-3.08-1.4-4.07-2.86-1.54-.28-2.4-1.52-3.48-2.46-1.97-1.71-3.16-3.97-4.64-6.04-1.14-1.6-1.31-3.47-2.19-5.1.26-2.67-.23-5.32.42-8.04.92-3.83,2.5-7.18,5.06-10.12-.41-.41-.82-.82-1.24-1.24-.86.97-1.97,1.71-2.64,2.9-.09-.45-.19-.92,0-1.21.52-.8,1.16-1.52,1.73-2.28.05-.07-.02-.23-.03-.33h-1.42c-.75.96-1.38,1.75-1.97,2.5.26.34.41.54.65.86-1.86.28-3.08-.85-4.27-1.52-4.92-2.78-4.87-2.87-9.87-3.92-.83-.17-1.6-.57-2.43-.76-1.9-.44-3.81-.93-5.74-1.2-3.19-.45-6.34.51-9.52.47-.08,0-.18-.03-.25,0-1.91,1.04-4.09,1.03-6.13,1.42-3.09.58-5.94,1.76-8.8,2.9-5.18,2.07-9.55,5.45-13.67,9.14-1.74,1.56-3.02,3.54-4.41,5.4-1.12,1.51-2.34,3-3.14,4.68-1.06,2.22-2.62,4.18-3.28,6.62-.31,1.15-1.23,2.09-1.5,3.37-.23,1.11-.74,2.17-1,3.32-.27,1.19-.76,2.34-1.06,3.56-.32,1.3,0,2.63-.43,3.79-.49,1.36-.48,2.7-.42,4.05.12,3.01-.42,6.04.45,9.03.2.69-.04,1.49.05,2.23.08.69.31,1.36.48,2.04.81,3.14,1.61,6.28,3.17,9.16,1.07,1.97,2.11,3.98,3.39,5.82.81,1.16,1.67,2.29,2.46,3.47.75,1.13,1.73,2.11,2.61,3.16,1.02-.1.76,1.05,1.37,1.39.62.35,1.26.72,1.72,1.24.89.98,2.12,1.33,3.2,1.94.59.33,1.3.48,1.96.68.48.15.98.25,1.42.35.24-2.22.27-4.26.71-6.2.42-1.86,1.14-3.69,1.98-5.4.86-1.73,2.03-3.3,3.07-4.94-.71-.45-1.4-1.39-2.05-2.82.18-.7.27-1.32.5-1.89.33-.82,1.22-.63,1.7-.79.39-1,.73-1.85,1.08-2.74.64-.13,1.16-.23,1.39-.28.96-1.15,1.73-2.07,2.45-2.93h1.6c.75-.98,1.47-1.93,2.21-2.9,0-1.47-.05-2.97.01-4.46.06-1.49-.32-3.02.29-4.34-1.06-2.74-2.08-5.39-3.14-8.12.06-.07.24-.32.42-.55-2.12-2.22-1.97-2.29-2.76-3.91-.92-1.88.35-3.13.86-4.52,1.21-.31,1.66-1.41,2.87-2.21,1.36-.15,3.1-.34,4.74-.52.99-2.18,3.33-2.56,4.98-3.84h2.71c2.68,1.13,4.65,2.85,6.14,4.9,1.47-.72,2.78-1.36,3.96-1.94.83,1.14,1.61,2.13,2.29,3.18.67,1.03,1.25,2.13,1.95,3.34h1.82c1.8,1.3,2.39,2.97,2.33,4.93-.02.5,0,1,0,1.5.01,3.94-2.62,7.28-6.29,8.97-1.44.66-3.19,1.14-4.64-.21-1.41-3.62-1.56-7.25.41-11.44,1.01-1.35,2.9-2.7,5.74-3.79-.87-.37-1.26-.53-1.73-.73-.05.02-.43.16-1.15.43.33-.91.53-1.44.78-2.13-.62.22-1.01.36-1.66.59.75-1.12.79-1.95-.11-2.51-.56.33-1.1.65-1.65.96-.6.35-1.2.69-1.9,1.1-1.06-1.24-2.05-2.4-3.07-3.58-.28.26-.63.58-1.09,1.01-.09-.77-.17-1.44-.25-2.11-.34.03-.5.05-.76.07-.07.43-.14.89-.21,1.39h-.89v-1.89h-1.03v2.28c-.6-.8-.95-1.27-1.37-1.83-.1.62-.16,1.04-.22,1.42-.62-.39-1.11-.71-1.99-1.26.2,1.08.31,1.7.43,2.37-.61-.2-1.15-.38-1.97-.65.31.86.5,1.4.77,2.15-.51-.25-.74-.36-1.27-.62.28.72.46,1.19.65,1.66-.9.99-.34,2.15-.53,3.26.56.32,1.04.59,1.51.86-.19.24-.38.47-.55.69.49,1.08,1.86,1.68,1.34,3.31-3.72-2.56-4.59-6.12-4.22-10.45-1.56.53-2.84.96-3.99,1.35-.07.63-.11,1.01-.16,1.47h-1.75c.7.48,1.1.75,1.56,1.06-.87.37-1.55.65-2.74,1.15,1.04.16,1.5.23,2,.3v.71c-.32.13-.61.24-.73.28.57.59,1.17,1.22,1.87,1.96h2.99c.17.57.34,1.14.59,1.94h-3.21c.35.62.6,1.06.86,1.52.35,0,.68,0,1.19,1.35,0-.14-.01-.29-.02-.43-.33.06-.65.13-.98.19l.04.32c.32-.03.64-.05.54-1.43v.07Zm28.3,63.34s.06-.06.1-.1c-.12-.14-.23-.27-.35-.41-.05.05-.1.1-.16.16.14.12.27.23.32.12.32,1,.41,1.93.87,2.6,2.82,4.06,5.62,8.16,9.67,11.16.85.63,1.9,1.17,2.92,1.32,1.52.22,3.09.06,4.72.06v-2.32c.26-.26.44-.44.71-.7h6.09c.09-.54.17-1,.24-1.43.27,0,.43-.02.59-.03.21.36.42.73.78,1.33,1.18-1.42,2.3-2.52,3.35-3.74,1.01-1.17,2.63-2,4.14-2.5,2.06-.68,4.09-1.6,6.35-1.57.49,0,1.12.14,1.44-.1,1-.76,2.09-.39,3.09-.33.74.04,1.45.49,2.29.48.84,0,1.73.19,2.53.48,1.44.53,2.84,1.19,4.67,1.97.5,0,1.5-.06,2.49.02,1.02.09,2.02.44,3.04.46,3.66.06,7.32.11,10.98,0,3.68-.11,7.34.31,11.04-.39,2.33-.44,4.81-.02,7.22-.1,2.35-.08,4.69-.32,7.03-.48,2.51-.17,5.02-.33,7.53-.5.08,0,.18.02.25,0,2.12-.87,4.46-.73,6.64-1.42.78-.24,1.69-.31,2.51-.58.8-.27,1.61-.54,2.38-.88.81-.36,1.67.02,2.57-.45,1.69-.88,3.57-1.4,5.41-1.99.89-.28,1.74-.56,2.57-1.05,1.18-.7,2.54-1.12,3.73-1.82,1.22-.72,2.34-1.61,3.48-2.45.84-.62,1.28-1.73,2.44-1.93.29-1.2,1.54-1.67,2.09-2.63.95-1.67,2.05-3.36,2.47-5.19.48-2.06,1.19-4.12,1.1-6.3-.05-1.24-.11-2.5,0-3.74.27-2.63-.55-5.17-.53-7.77,0-.22-.11-.45-.2-.66-.92-2.19-1.63-4.52-2.84-6.54-1.37-2.3-2.77-4.65-4.75-6.52-1.36-1.28-2.72-2.58-4.22-3.68-1.43-1.05-2.99-1.97-4.61-2.72-1.74-.8-3.62-1.32-5.3-2.26-1.69-.95-3.79-.9-5.32-2.24-.14-.12-.49,0-.73-.02-1.89-.13-3.7-.71-5.45-1.3-2.63-.89-5.35-1.14-8.04-1.66-1.65-.32-3.43.41-5.03-.53-.86.75-1.69-.21-2.59-.04-.96.18-1.99.09-2.99.03-.85-.06-1.7-.24-2.66-.39-.07.06-.25.23-.43.4-.17-.16-.35-.33-.6-.56-.39.18-.82.56-1.23.54-2.78-.14-5.52.3-8.28.51-3.42.25-6.88.15-10.26.61-1.69.23-3.36.37-5.05.41-.17,0-.4-.07-.49.01-1,.9-2.2.32-3.3.49-1.09.17-2.19.46-3.29.48-3.33.06-6.65.04-9.98,0-.62,0-1.21.06-1.87-.31-.8-.44-1.85-.42-3.28-.69.76.54,1.07.95,1.41.98,1.02.09,1.7.7,2.52,1.2,1.43.89,2.94,1.77,4.54,2.27,2.08.65,4.08,1.41,5.95,2.53.94.57,1.76,1.12,1.42,2.51-1.03,0-2.12-.28-2.97.06-2.15.85-4.45.99-6.66,1.32-1.72.26-3.41.88-5.13.62-.31.48-.52.81-.75,1.16,3.24,3.44,6.39,6.8,9.66,10.28.24.94-.72,1.37-1.17,1.88-4.14-.97-8.3-1.43-12.61-3.02.31.68.4.96.55,1.21.52.87,1.35,1.67,1.51,2.6.25,1.39,1.12,2.39,1.73,3.53.7,1.31,1.74,2.44,2.56,3.69.27.41.32.96.56,1.73-4.5-1.03-8.12-3.32-11.74-5.1-.37-.37-.73-.73-1.09-1.09.4-.47.97-.71,1.74-.13,2.35,1.77,5.22,2.41,7.96,3.75-.07-.46-.03-.72-.14-.89-1.83-2.87-3.66-5.75-4.95-8.92-.11-.28-.43-.53-.71-.67-.16-.09-.44.06-.92.14.45.64.79,1.14,1.21,1.74v1.41c1.26.6.96,1.97,1.53,2.9-.35.33-.58.54-.72.67-.78-.36-1.5-.65-2.17-1.02-.75-.42-1.44-.94-2.21-1.45-.49.4-.97.8-1.57,1.29-.34-.4-.58-.7-.91-1.09.84-.98,1.67-1.95,2.49-2.92-.74-.17-1.35-1.12-2.47-.47.12.31.25.64.42,1.07-.37.91-.79,1.96-1.24,3.06.36.36.83.83,1.31,1.31-.25.95,1,1.67.41,2.69-.46.8-.51,1.82-1.33,2.46-.16.12-.02.62-.02,1,.26.06.49.12.76.19.36.69.75,1.45,1.22,2.36v1.84c-.73.72-1.5,1.47-2.27,2.22h-2.86c-.51-.51-1.2-1.2-2.01-2-.76-.06-1.55.87-2.57.52-1.1.82-2.21.3-3.39.21-1.58-.12-1.74-1.45-2.54-2.13h-1.71c.34,1.37.66,2.67,1.04,4.24.81-.61,1.36-1.02,1.95-1.47.39.37.69.64.83.77-.38,2.47-2.28,3.75-3.56,5.42.75.54,1.39.97,2,1.44.56.43,1.23.81,1.58,1.38.43.71,1.37.77,1.67,1.5.38.93,1.33,1.23,1.93,1.9.69.76,1.45,1.47,2.51,2.52-.19-1.36-.16-2.2-.5-3.19-.84-2.4-2.06-4.73-2.08-7.37-.76-.65-.51-1.43-.32-2.51,1.2,1.69,1.64,3.42,2.32,5.03.69,1.63,1.22,3.32,1.84,4.97.6,1.58,1.42,3.32,1.08,5.35-.58-.16-1.09-.18-1.45-.42-1.25-.83-2.52-1.66-3.64-2.65-1.43-1.26-2.69-2.71-4.09-4.02-1-.94-2.05-1.82-3.15-2.63-.38-.28-.96-.27-1.45-.39-.05.11-.09.22-.14.33.66.52,1.31,1.04,1.73,1.38,1.6,1.98,1.13,3.99.78,5.98-.4,2.3-2.51,3.26-3.51,4.56-2.97,1.3-5.48.76-8.01-.19v-.05Zm32.52-87.24c1.7-.11,2.66-1.38,4.09-1.61,1.3-.21,2.56-.7,3.76-1.05-.78-1.13-1.44-2.1-2.01-2.94.37-1.07.65-1.87.89-2.57,2.14-1.2,4.25-1.93,6.61-1.89,2.78.04,3.25-.32,4.39-3.03.09-.21.17-.43.25-.62-.21-.23-.53-.41-.53-.58.06-1.28-.76-1.69-1.72-2.3-1.7-1.07-3.58-1.07-5.41-1.42-2.29-.45-4.49.68-6.78.49-.15-.01-.31.06-.45.1-.96.29-1.95.51-2.86.91-.92.4-1.75.99-2.63,1.47-2.43,1.33-4.44,3.07-5.72,5.56.79.55,1.47,1.03,2,1.4,4.8-3.26,9.47-6.44,14.12-9.6.89,1.04,1.21,1.79.85,2.46-.89,1.63-1.77,3.28-2.83,4.81-1.18,1.7-2.6,3.24-3.84,4.9-.79,1.06-1.44,2.23-2.18,3.37v2.14Zm-27.05,82.77c-1.57-.94-3.36-1.42-3.8-3.2.57-1.32,1.12-2.58,1.72-3.95h1.11c.17-1.62-.75-2.49-1.75-3.38-1.19,1.37-2.73,1.43-3.86,1.54-1.26,2.25-1.63,4.42-1.13,6.63.46,1.38.92,2.76,1.36,4.09,1.24.73,2.44,1.44,3.71,2.18,2.45.27,4.53-.94,5.97-2.66,1.23-1.47,1.57-3.59,1.25-5.08-.61-.88-.95-1.35-1.32-1.88-1.25.25-2.41.48-3.56.71-.61.68-1.19,1.33-1.78,1.98.91.81,1.76.89,2.54.26.11-.67.21-1.25.3-1.82,1.68.21.99,1.72,1.54,2.2-.05,1.51-1.2,1.81-2.29,2.38h-.01Zm-13.78-61.86c-1.38,3.21-2.71,6.29-.44,9.48,1.29-.44,2.38-.82,3.78-1.3,1.09-1.1,2.63-2.3,3.25-4.23.38-1.19,1.24-2.48.66-3.61-.49-.95-.17-1.89-.56-2.88-.78,0-1.63-.14-2.4.04-.8.19-1.55.64-2.28,1.06-.68.4-.94,1.37-2.02,1.43h0Zm-34.41,89.21c1.25,1.1,2.05,2.37,3.46,2.89,2.22.82,4.03,2.29,5.99,3.53,1.77,1.12,3.5,1.58,5.43.27-.12-.43-.11-.94-.35-1.16-1.01-.89-2.09-1.71-3.17-2.51-1.78-1.31-3.59-2.59-5.5-3.96-1.14-.2-2.46-.43-3.64-.63-.78.56-1.4.99-2.22,1.57Zm78.79-94.06c.97-.31,2.09-.4,2.85-.97.87-.66,1.89-.72,2.77-1.2.88-.49,1.74-1.02,2.63-1.49.88-.47,1.82-.84,2.69-1.32.81-.45,1.98-.4,2.31-1.6-.74,0-1.49-.13-2.18.02-1.8.4-1.79.42-3.89-.05-.63-.14-1.54-.32-1.93,0-1.01.83-2.08.21-2.93.45-.73-.4-1.34-.73-1.92-1.04-.53.28-1,.54-1.28.68.59,1.72.14,3.44.31,5.06-.29.29-.53.53-.82.82-.39-.61-.77-1.21-1.26-1.97v-1.88c-1.03.17-1.99.33-2.94.48.03.29.04.45.07.79h2.39v1.03h-2.63c1.55,1.9,3.8,1.88,5.42,3.18.16-.48.26-.76.35-1.02v.03Zm10.74,34.86c-2.06-2.05-3.67-3.82-5.45-5.4-1.81-1.6-2.85-3.94-4.92-5.28-1.16,1.19-2.83,5.66-2.84,7.45,2,.91,4.17,1.15,6.29,1.65,2.16.51,4.31.98,6.93,1.58h0Zm-25.58-52.59c-.85,1.96.57,3.6.28,5.36-.04.25.25.55.32.84.14.61.16,1.25.36,1.83.92,2.67,2.91,4.54,4.91,6.38.41.38,1.08.48,1.94.84-.46-4.58-2.83-8.13-4.58-11.91-1.34-.8-1.72-2.61-3.24-3.34h.01Zm121.28,126.27c1.01-.9,1.47-1.96,1.89-3.24.47-1.45.14-2.96.82-4.38.52-1.07.42-2.44.57-3.54-.83-1.19-1.88-.71-2.55-.77-.76.68-1.38,1.23-1.95,1.74.05,2.82-2.01,5.26-1.2,8.09-.12.22-.24.42-.32.58.52.57,1,1.09,1.39,1.52h1.35,0ZM154.26,30.28c-.42.42-.88.67-.98,1.01-.34,1.3-1.33,1.53-2.41,1.97s-2.09.14-3.11.31c-1.76.3-3.62.35-5.03,1.68.03.84-.25,1.73.75,2.25h2.14c.08-.51.15-.97.25-1.58.36.84.65,1.51.89,2.07.79-.26,1.37-.45,1.95-.65q-.68-1.24.2-1.8c.38.7.76,1.41,1.23,2.29.71-.65,1.31-1.05,1.05-1.99-.3-.35-.63-.73-1.2-1.39,1.43.17,1.78,1.15,2.42,1.54.45-.4.88-.78,1.24-1.1-.31-.62-.59-1.18-.88-1.74.09-.07.19-.14.28-.2.49.35.98.71,1.4,1.02.26-.21.51-.42.64-.52-.15-.5-.26-.89-.49-1.67.72.38,1.05.56,1.4.75.24-.49.51-1.04.8-1.63-.75-.38-1.42-.71-2.5-1.25h2.78v-1.97h-2.83v2.62-.02ZM86.94,4.17c-.27,1.46-.43,2.95-.82,4.38-.74,2.68-1.3,5.4-2.27,8.02-.16.44.07,1.03.12,1.56.35-.05.51-.07.85-.12-.27-1.97.72-3.64,1.31-5.68,1.81,1.32,2.22,2.87,2.17,4.92-1.41-1.03-.78-2.7-1.8-3.69-.36,1.34-.7,2.64-1.05,3.95,2.12.39,4.21.94,6.55.4-2.49-4.4-3.63-9.1-5.07-13.74h.01Zm52.95,70.15c-.27,1.73-.51,3.35-.78,5.12,1.06,0,2.1.32,2.65-.07,1.13-.79,2.36-.15,3.49-.64,1.05-.46,2.43-.28,3.37-.86,1.02-.63,2.2-.08,3.4-.82-.4-.29-.59-.48-.82-.6-1.59-.78-3.41-.97-4.9-2-.51-.35-1.02-.88-1.58-.96-1.68-.26-2.71-1.52-4.03-2.33-.09-.06-.23-.05-.4-.09v1.87c1.49.61,3.01,1.24,4.93,2.03-1.89.93-3.38,1.67-4.97,2.45v-1.21c.82-.31,1.66-.62,2.69-1-1.13-.33-2.03-.59-3.03-.88h-.02ZM71.64,20.15c2.29-.83,4.47-1.12,6.96-1.08-1.18-2.23-2.25-4.18-3.25-6.17-.99-1.97-2.01-3.92-3.38-6.14-.25,1.16.02,1.96-.55,2.71-.36.47-.07,1.44-.07,2.19v2.49c0,.91.05,1.83-.02,2.74-.07.84-.27,1.68-.41,2.54.21.21.44.44.72.72Zm74.68,114c.62.62.77.89.98.96,1.8.53,3.01,1.87,4.13,3.21,1.05,1.25,1.98,2.64,2.74,4.08.81,1.55,1.3,3.28,2.05,4.87.6,1.26,1.09,2.54,1.49,3.87.13.41.45.76.75,1.26.42-1.09.78-2.01,1.15-2.96-.07-.07-.28-.18-.29-.3-.14-3.03-1.93-5.39-3.41-7.79-1.41-2.28-3.28-4.27-4.99-6.44-1.28-.21-2.66-.43-4.6-.75h0Zm-50.02-49.29c2.53.38,4.42-.88,6.23-2.01,2.06-1.28,3.92-2.83,5.48-4.8,1.34-1.69,2.3-3.52,3.24-5.4.27-.54.32-1.19.45-1.72-.23-.68-.44-1.34-.65-1.97h-.51c-.36,1.19-.58,2.44-1.11,3.53-1.48,3.05-3.51,5.67-6.45,7.49-1.06.66-2.03,1.47-3.12,2.08-1.13.63-2.36,1.1-3.57,1.65v1.14h.01Zm-31.65,82.2c-3.47-2.53-6.84-4.78-10.88-5.84-.82.37-1.62.74-2.51,1.14l3.32,3.32c3.18.37,5.96,1.93,9.06,3.12.3-.52.6-1.04,1-1.74h.01ZM29.87,72.84c-2.12.54-3.87,1.28-5.65,2.06-1.81.81-3.83,1.15-6.14,1.81,3.94,2.04,7.8,3.37,11.96,4.89-.3-3.02-1.23-5.76-.17-8.77h0Zm.75,12.89c-1.58.92-3.01,2.19-4.66,2.61-1.89.48-3.12,2.1-5.08,2.26.07.32.11.55.16.77,4.01.26,7.83,1.48,11.94,1.58-1.43-2.29-1.63-4.71-2.35-7.22h0Zm-.13-18.48c-.39-2.68,1.1-4.81.86-7.26-1.32.94-2.69.59-3.91.46-1.26-.14-2.4.82-3.63.2-1.09.96-2.3-1.01-3.38.15,0,.16-.05.43.03.47,2.64,1.53,5.17,3.22,7.6,5.08.57.43,1.39.53,2.43.9Zm106.85-18.34c3.76-2.91,7.51-5.81,11.34-8.78-2.35-.26-4.42.13-6.47.92-2.14.82-4.32,1.54-6.52,2.31.07.24.14.46.24.79,1.34-.74,2.94-.53,4.15-1.55.2-.17.79.13,1.34.23-1.64,1.52-3.07,2.85-4.51,4.19.14.11.29.22.43.33v1.57h0Zm-72.75-27.23c-2.99-3.25-4.95-6.85-7.54-9.97-.72,1.21.25,2.28.34,3.43.09,1.16.39,2.3.61,3.47.39-.23.7-.41,1.05-.62.89.91,1.72,1.71,2.48,2.57.2.23.22.62.32.94-.14.09-.28.18-.42.28-.59-.74-1.18-1.49-1.76-2.23-.2,1.61-.51,3.1-.05,4.85,1.55-1.31,3.43-1.46,4.97-2.72Zm196.94,146.3c.11.1.29.2.34.33.6,1.61,1.66,2.7,3.1,3.7,1.45,1.01,3.12,1.93,3.96,3.66.02.03.29-.06.54-.12.22-1.21-.46-2.05-1.19-2.87h-1.54c-.8-.93-1.61-1.85-2.41-2.78-1.71-2.24-1.98-4.89-1.81-7.64.05-.83.02-1.66,0-2.49-.02-2.18-2.15-4.65-4.34-5.03-.55-.1-1.12-.21-1.67-.21-.72,0-1.44.12-2.15.22-.12.02-.21.21-.35.35.07.2.14.42.25.75.56-.16,1.07-.31,1.56-.45,1.14.3,2.33.62,3.66.98.46.51,1.06,1.07,1.54,1.73.54.75.59,2.08.53,3.61-.08,2.07-.02,4.15-.02,6.25h0ZM41.15,106.95c-.35.8-.71,1.65-1.08,2.48-.22.49-.49.96-.66,1.46-.38,1.08-.42,2.5-1.15,3.2-.99.95-1.11,2.28-2.01,3.19-.21.22-.23.62-.42,1.18,1.88-1.31,3.6-2.25,5.05-3.6,1.49-1.39,3.44-2.28,4.44-3.75-1.46-1.46-2.78-2.78-4.16-4.15h0Zm119.54,38.69c-.36-.52-.85-.94-.96-1.44-.56-2.38-1.91-4.36-3.23-6.33-.82-1.23-2.25-1.73-3.83-2.15,2.85,3.94,5.83,7.5,7.24,12.2.3-.87.52-1.52.78-2.29h0Zm-121.57-50.85c-.52.26-.92.46-1.3.65-.29-.19-.52-.34-.74-.49-.28.3-.49.54-.74.81.28.57.55,1.11.8,1.6,1,.45,1.74-1.11,2.8-.19-.65.28-1.28.54-1.88.83-.1.05-.11.28-.22.61.46.32.99.69,1.54,1.07.27-.15.8-.44,1.33-.72.02-.01.11.11.17.17.16,1.12-.93,1.06-1.41,1.5.26.45.52.89.71,1.23.69-.71,1.31-1.35,1.92-1.98-.83-1.41-1.85-3.14-2.99-5.09h.01Zm22.27,66.05c-.1.76-.15,1.11-.19,1.46-.11-.06-.23-.12-.34-.18v-6.81c-.53.65-.77.95-.97,1.19v6c.48.23.91.44,1.31.63.2-.19.32-.3.45-.42.16.34.31.66.72,1.53,0-2.77,0-4.97,0-7.17,0-.11-.19-.23-.32-.37-.2.06-.42.12-.71.2.27,1.53-.38,3.11.07,3.94h-.01Zm74.26-108.38v-3.62c-1.38.45-2.61.85-3.85,1.26.34.84.65,1.61.96,2.36h2.89Zm-2.3-10.3c-.42-.72-.83-1.44-1.29-2.23-1.09,1.47-3.03,1.66-3.87,3.09.52,1.27,1.47,1.04,2.04,1,1.17-.69,2.09-1.25,3.13-1.86h-.01Zm4.91,28.5c-.23-1.92-.29-2-1.41-2.2-.5-.09-.99-.23-1.51-.35v4.1c.89.28,1.62.53,2.36.74.12.03.29-.08.49-.15v-1.08c-.86-.34-1.69-.66-2.58-1.01.18-.37.28-.57.38-.76.7.22,1.35.42,2.28.71h-.01Zm-73.82,86.66v7.74c.25.22.47.43.91.83v-2.89c0-.49-.2-1.14.03-1.45,1.22-1.61-.06-2.91-.22-4.35-.34.06-.49.08-.73.13h.01Zm67.11-108.15c1.26-.46,2.51-.92,3.84-1.4-.4-.75-.67-1.27-1.01-1.91-1.28.47-2.48.91-3.78,1.38.34.68.61,1.23.95,1.93Zm-100.06,22.69v2.48c1.14.4,2.2.77,3.36,1.18v-2.44c-1.1-.4-2.17-.79-3.36-1.22Zm10.3-29.08c-.31.56-.5.95-.73,1.32-.27.45-.57.88-.93,1.41.41.41.67.71.97.96.29.24.61.44,1.09.79.51-1.03.95-1.91,1.4-2.8-.66-.62-1.17-1.09-1.8-1.68Zm14-15.21c.69.97,1.24,1.74,1.8,2.52.8-.59,1.56-1.14,2.3-1.69-.46-.7-.84-1.29-1.33-2.04-.9.39-1.74.76-2.78,1.2h.01Zm3.29-1.75c.77,1.03,1.26,1.69,1.74,2.33.74-.49,1.37-.92,1.95-1.31v-1.62c-.31-.27-.55-.48-.82-.72-.93.43-1.81.83-2.87,1.32Zm-23.68,40.08c0-.3-.05-.61,0-.91.07-.32.25-.61.46-1.09-1.18-.48-2.26-.92-3.41-1.39v2.27c.79.83,1.63,1.36,2.94,1.12Zm36.98-44.8c-1.19.47-2.14.85-3.32,1.31.38.71.66,1.24,1.01,1.88,1.03-.31,1.91-.57,2.95-.87-.23-.85-.44-1.59-.63-2.32h-.01Zm61.05,21.8c-1.42.9-2.62,1.66-4.16,2.63.68.31,1.05.48,1.59.73.84-.38,2.12-.96,3.46-1.56-.29-.59-.56-1.14-.89-1.81h0Zm-8.14,65.47h1.2c.83-.58,1.36-.95,1.75-1.22,0-1,.2-1.85-.73-2.15-.72.57-1.4,1.11-2.21,1.75v1.62h0ZM76.65,20.61c-1.24-.04-2.44-.13-3.33.96.27.51.55,1.04.83,1.59,1.11-.27,2.14-.52,3.04-.74-.18-.6-.33-1.11-.54-1.81Zm-45.19,57.26h3.32c.39-.91-.04-1.44-.46-1.77-1.09-.23-1.96-.41-2.86-.6,0,0,0,2.37,0,2.37Zm1.59,10.48h3.21c.46-.91-.04-1.43-.62-1.92-.98,0-1.96,0-2.94.02-.1,0-.19.22-.31.36.2.47.41.96.67,1.54h0Zm1.79-18.48c-.97-.32-1.84-.63-2.72-.88-.2-.06-.45.07-.64.11v1.68c1.15.37,2.23.72,3.36,1.08v-1.99Zm63.27-46.88c.73.3,1.3.54,1.86.77.54-1.07,1.18-1.93.7-3.04-.55-.23-1.09-.45-1.77-.73-.28,1.07-.51,1.96-.78,3.01h-.01Zm-63.52,33.56l-.63.63v1.78c.76.31,1.51.62,2.27.94.62-.49.95-1.06.48-1.88-.69-.48-1.39-.97-2.11-1.47h0Zm14.5-22.35c.4.55.73,1.01,1.05,1.46.68-.34,1.21-.61,1.86-.93-.25-1.05-.5-2.09-.79-3.28-.8,1.03-1.5,1.95-2.12,2.75Zm34.19-14.53h-2.84v2.54c1.03-.29,1.91-.54,2.84-.8v-1.74Zm-49.9,69.73c.44.77.82,1.42,1.1,1.9h3.07c-.34-.75-.61-1.34-.86-1.9h-3.31Zm2.16,4.91h2.87c-.03-.7-.06-1.31-.08-1.92-1.16,0-2.14,0-3.12.01-.1,0-.2.21-.33.36.2.47.41.96.67,1.54h0ZM95.3,19.74h-2.41v2.38c.87-.04,1.64-.08,2.41-.12,0,0,0-2.26,0-2.26Zm61.36,5.36c-1.38-.02-2.57-.15-3.56.99.27.33.57.68.76.91h2.8v-1.9Zm-115.78,25.52c-1.19-.87-1.98-1.45-2.82-2.07-.43.52-.88,1.06-1.3,1.57.8.55,1.44.98,2.27,1.54.42-.24.94-.53,1.85-1.04Zm60-27.17c.45.6,1.04.92,2.05.37.24-.53.57-1.22.85-1.93.07-.19-.04-.45-.07-.73h-1.7c-.38.77-.74,1.52-1.12,2.29h-.01ZM32.91,61.84c.44.08.9.14,1.35.26.49.13.97.32,1.4.46.28-.61.47-1.01.75-1.61-.97-.32-1.91-.66-2.86-.94-.19-.05-.44.11-.64.16v1.67Zm31.06-35.39c.77-.23,1.34-.41,2.06-.63-.27-.96-.53-1.84-.8-2.78-.73.49-1.35.91-2.04,1.37.3.79.55,1.43.78,2.04Zm70.82,48.22c.97.39,1.88.76,2.96,1.21.19-.49.42-1.06.63-1.59-1.21-.76-2.31-1.1-3.59-.7v1.09h0Zm-23.68-46.18c.72-.96,1.4-1.86,2.21-2.94-.66-.23-1.22-.42-1.54-.52-.73.85-1.31,1.48-1.84,2.15-.13.16-.14.42-.2.63.46.23.86.44,1.37.69h0ZM31.96,67.81c.94.36,1.85.71,2.77,1.06.24-.52.5-1.06.78-1.65-1.23-.39-2.37-.76-3.56-1.14v1.73h.01Zm101.39,11.89c.9.52,1.82,1.06,2.76,1.61.15-.15.38-.38.54-.54v-1.21c-.86-.66-1.63-1.35-2.74-1.05-.22.45-.4.85-.57,1.19h.01Zm.06,12.6c-.6.84-1.13,1.6-1.71,2.41.6.24,1.16.46,1.72.69.59.24.8,1.27,1.98.81-1.57-.88-.93-2.58-1.99-3.91h0Zm-66.58,66.06c-.16-.03-.32-.07-.48-.1,0,1.06.25,2.2-.09,3.14-.22.62-.49,1.2-.38,1.81.09.51.46.98.72,1.5,1.68-2.21-.07-4.28.22-6.35h0Zm42.6-42.07c.47-.23.87-.43,1.31-.64v-1.6c-.81-.76-1.65-1.07-2.52-.94.42,1.09.83,2.16,1.22,3.18h-.01ZM55.38,28.5c-.59.3-1.18.6-1.72.87.38.95.64,1.58.94,2.33.66-.32,1.25-.61,2.03-.99-.52-.93-.97-1.72-1.24-2.21h0Zm49.27-3.21c1.13-.72,1.48-1.57,1.62-2.53.03-.21-.1-.44-.14-.58h-1.67c-.25.76-.46,1.42-.7,2.16.24.26.51.55.89.95Zm26.08,61.36c1.06.65,1.95,1.19,2.85,1.74.26-.64.49-1.18.68-1.66-1.18-.47-2.23-.89-3.46-1.38-.03.5-.05.88-.07,1.31h0ZM68.15,22.09c-.7.47-1.28.85-1.82,1.21.19,1.06.64,1.64,1.35,1.74.6-.32.97-.51,1.23-.65-.29-.87-.5-1.53-.75-2.29h-.01Zm40.72,1.27c-.53-.26-.98-.48-1.33-.65-.56.94-1.1,1.83-1.65,2.73.26.24.54.5.81.76,1.25-.7,1.73-1.73,2.16-2.84h.01Zm25.4,53.72c1.01.52,1.81.94,2.72,1.41.28-.41.56-.83.89-1.32-1.09-.46-2-.86-2.93-1.21-.18-.07-.44.07-.68.12v1.01h0Zm-102.14,4.32c-.51,1.03-.16,1.66.88,2.07.82-.26,1.62-.52,2.31-.74v-1.28c-1.3.39-2.36.37-3.19-.05Zm103.27,3.55c-1.06-1.03-2.32-1.46-3.69-1.32.23,1.5,1.74,1.36,2.57,2.05.09.07.22.08.34.12.23-.25.45-.49.78-.85Zm-99.6-1.13c-1.29.26-2.55.51-3.93.79.32.32.5.5.74.74h2.48c.25.23.42.39.72.66v-2.19h-.01Zm50.45-62.28v-1.83h-2.33v1.83h2.33Zm11.48.96c.03-.68.06-1.46.1-2.26-.44-.28-.82-.52-1.3-.82-.3,1.1-.55,2.03-.84,3.08h2.04Zm10.11,3.9c.3.23.66.5.99.75,1.11-.79,1.73-1.72,2.02-2.99h-1.45c-.55.79-1.04,1.49-1.57,2.24h.01Zm-5.45,46.99v2.42c.42.35.96.8,1.54,1.29.41-.49.7-.84,1.05-1.26-.8-.75-1.48-1.4-2.59-2.45Zm-22.55-.41c0,.72-.04,1.22.02,1.7.03.26.22.69.38.71.53.06,1.07-.03,1.51-.05v-2.36s-1.91,0-1.91,0Zm-44.33,6.64c-1.45-.27-2.71-.5-4.12-.76.04.67.07,1.11.09,1.52,1.22.14,2.32-.2,3.39.43.2-.38.4-.76.63-1.19h0Zm100.64,2.52c-1.11-.44-2.16-.85-3.32-1.31v1.4c.84.41,1.73.85,2.62,1.29.26-.51.47-.92.7-1.37h0ZM39.88,46.2c-.49.66-.8,1.07-1.11,1.48.64.63,1.15,1.15,1.69,1.65.07.07.22.05.47.1.2-.5.39-.99.51-1.27-.53-.67-.93-1.17-1.56-1.96Zm93.08,43.14c-1.13-.7-2.09-1.29-3.1-1.91-.32.48-.53.8-.73,1.11,1.07.64,2.02,1.2,2.98,1.78.25-.28.5-.57.85-.97h0Zm-20.7,15.5c-.42-.84-.75-1.51-.95-1.92.21-.67.34-1.05.54-1.68-.88.63-1.49,1.06-2.07,1.48-.19,1.14.71,1.55,1.28,2.12,0,0,1.2,0,1.2,0Zm-54.19,11.29c.34-1.1.56-1.83.78-2.54-.26-.26-.49-.49-.67-.67-.43.22-.84.42-1.26.63v1.65c.34.28.64.52,1.15.94h0Zm-13.32-8.82c.3.36.59.72.84,1.03.89.13,1.56-.11,1.77-.95.17-.67-.11-1.21-.72-1.4-.62.44-1.19.83-1.89,1.32ZM89.27,19.69h-1.97c.03.7.06,1.31.09,1.83h1.88s0-1.83,0-1.83Zm-36.71,13.29h1.21c.59-1.45-1.04-1.8-1.05-3.01-.4.42-.63.66-.84.88.22.69.44,1.35.69,2.12h0Zm-5.92,4.1c-.76.67-1.14,1.25-.47,1.99.2.22.47.39.83.69.4-.53.71-.94,1.01-1.34-.53-.52-.94-.92-1.37-1.34Zm64.95,73.12c.43,1.2.7,1.95.96,2.69.49-.05.86-.09,1.2-.13.13-1.49-.6-2.11-2.17-2.57h.01Zm-31.55-88.17c-.42-.85-.69-1.39-.91-1.83h-1.31c.04.7.07,1.31.1,1.83h2.12Zm44.27,71.43c1.17-.07,1.44-.94,2.45-1.7-.64-.22-1.05-.36-1.6-.55.02,0-.39.18-.85.4v1.86h0ZM91.82,21.55c-.03-1.25-.53-1.87-1.5-1.86,0,.3.05.62-.01.91-.07.32-.25.61-.41.95h1.92Zm-43.69,13.5c-.22.46-.45.91-.62,1.26.26.5.46.9.67,1.29.47-.06.85-.1,1.2-.15v-1.15c-.42-.42-.83-.83-1.25-1.25Zm-2.31,4.53c-1.07-.13-1.81.07-1.96,1.27.63.26,1.23.5,1.96.8v-2.07Zm77.64,66.34c.28-.28.52-.51.68-.68-.75-1.1-1.48-2.18-2.36-3.47-.1,1.83.99,2.89,1.68,4.15Zm16.05-61.96c-1.34.44-2.47.36-3.19,1.25.25.49.46.9.65,1.29.75-.75,1.5-1.49,2.54-2.54h0Zm-76.23,112.36c-.14,0-.28-.02-.41-.02,0,1.05-.04,2.11,0,3.16.05,1.06-.19,2.16.4,3.17v-6.31Zm39.78-78.3c-.64-1.44-1.41-2.17-2.49-2.71-.13.31-.22.52-.35.84.84.55,1.2,1.67,2.85,1.87h-.01Zm151.48,98.9l.55.55c.89-.17,1.66-.33,2.69-.53-.85-.51-1.44-.87-2.03-1.23-.4.4-.81.8-1.21,1.21h0ZM43.17,41.45c-.63,1.1-.17,1.68.86,2.24.34-.42.66-.8,1.06-1.29-.74-.37-1.32-.66-1.92-.95Zm88.62,50.49c-.27-2.07-2.35-1.37-3.15-2.37-.04-.05-.22.02-.34.04-.02.16-.03.32-.05.52,1.11.56,2.22,1.13,3.55,1.8h-.01Zm-6.29,6.85c-.05.96.17,1.44,1.16,2.6.05.06.29-.06.53-.11.3-1.4-.58-1.96-1.69-2.49Zm-21.42-26.97c.77.95,1.82,1.03,2.52,1.58.34-.33.51-.5,1.02-.99-1.51.52-1.79-1.66-3.54-.59Zm8.33,42.3c-.47-.95-.91-1.84-1.36-2.77-.23.04-.46.08-.88.15.49,1.04.94,1.97,1.4,2.94.31-.12.52-.2.85-.32h-.01Zm14.01-10.69c-.6-1.39-.87-2.64-2.17-3.73.07.71-.02,1.22.18,1.58.42.77.72,1.7,1.99,2.15Zm-67.12,54.91c-.67,1.11-1.64,2.27,0,3.46v-3.46Zm7.86-67.47c.91-.72.89-1.55.33-2.84-.53.87-.88,1.45-1.26,2.08.34.28.58.48.93.77h0Zm38.13-20.95c.47,1.23,1.81,1.14,2.29,2.21.35-.62.57-1,.81-1.43-1.06-.27-1.95-.49-3.1-.79h0Zm18.58,25.24c-.54-.4-.85-.63-1.19-.89-.71.67-1.36,1.19-.55,2.31.56-.46,1.1-.9,1.74-1.42Zm-5.42,2.93c-.93.77-1.61,1.28-.82,2.5.59-.5,1.13-.95,1.43-1.2-.19-.42-.37-.8-.61-1.3Zm42.59,60.74c-.38.45-.76.9-1.14,1.36.2.17.49.42.9.79.42-.55.73-.97,1.03-1.37-.35-.34-.58-.57-.79-.77h0Zm-7.44,5.18c1.26.1,2.57-.26,2.52-.65-.22-.2-.44-.41-.41-.38-.65-.04-1-.06-1.47-.09-.16.28-.38.66-.64,1.11h0Zm-48.66-89.16c.72-.27,1.08-.41,1.57-.6-1.11-.49-1.87-.82-2.64-1.16-.08.11-.16.22-.24.33.51.56,1.02,1.12,1.31,1.43Zm-57.01,35.32c.45-.56.77-.96,1.06-1.33-.32-.42-.55-.72-.67-.87-.57.45-1.01.8-1.44,1.13.31.31.54.55,1.05,1.07Zm3.04,2.02c.41.2.82.4,1.24.6.19-.4.41-.84.63-1.31-.4-.28-.71-.51-1.07-.76-.31.57-.55,1.02-.8,1.46h0Zm61.7-8c.53-.57.9-.98.88-.96-.21-.64-.33-1.01-.45-1.36-.77.62-1.07,1.19-.44,2.31h.01Zm8.9-7.35c-.83.13-1.51.04-1.67.29-.48.74.05,1.32.65,1.79.27-.54.53-1.07,1.02-2.08Zm-70.38,13.44c-.49-.35-.8-.58-1.12-.8-.36.35-.77.76-1.19,1.17.46.23.91.45,1.36.66.26-.28.47-.51.95-1.04h0Zm47.58-33.86c.54.85.88,1.53,1.36,2.09.23.27.71.32,1.08.46-.99-.64-.71-2.38-2.44-2.55Zm-45.94,36.82c.44.24.88.48,1.59.87-.07-.97-.12-1.6-.22-2.83-.67.96-.99,1.41-1.38,1.97h.01Zm63.33-7.31c.51.94,1.22,1.35,2.14,1.23-.62-.43-.89-1.33-2.14-1.23Zm-.62-3.52c.22-.45.44-.89.68-1.4-.37-.23-.75-.47-1.12-.7-.78.99-.18,1.54.43,2.1h.01Zm53.23,44.6c.96-.44,1.53-.74,1.39-1.74-.58.04-1.02.07-1.39.1v1.64Zm-101.17,11.92c.49,1.2-.04,2.01.51,2.84,1.05-1.32,1.04-1.33-.51-2.84Zm99.86-8.14c-.71.53-1.03,1.11-.58,1.92.4-.44.8-.87,1.2-1.3l-.62-.62Zm-1.25,3.32c-1.09.35-1.72.65-1.34,1.71.66-.35,1.11-.92,1.34-1.71Zm-96.76-66.07c.56-.54,1.01-.93,1.4-1.38.09-.11-.05-.42-.09-.66-.51.27-.95.5-1.31.68,0,0,0,1.36,0,1.36Zm48.46,17c.48.69,1.03,1.31,1.78,1.71-.15-1.03-.67-1.69-1.78-1.71Zm-44.24-21.8c-.3.69-.51,1.18-.72,1.66.11.07.22.14.34.21.41-.38.81-.77,1.29-1.22-.33-.25-.5-.37-.9-.66h0Zm-8.17,9.45c-.02-.18-.05-.36-.07-.54-.3-.08-.6-.15-1.07-.27.04.68.07,1.12.09,1.45.38-.24.72-.44,1.05-.65h0Zm102.3,55.58v1.79c.47-.64.75-1.02,1.15-1.56-.49-.1-.77-.15-1.15-.23Zm-4.12,8.69c-.52.66-.8,1.02-1.25,1.59.56.12.87.19,1.25.28v-1.86h0Zm-85.22-75.17c-.52.23-1.5.12-.9,1.16.16-.14.35-.25.47-.4.17-.23.29-.5.43-.76Zm48.37,16.15c.24.54.46,1.02.82,1.83v-1.83h-.82Zm-71.05,16.46v-1.87c-.37.84-.58,1.32-.82,1.87h.82Zm27.23-34.14c-1.33-.57-1.17.03-1.06.66.37-.23.68-.42,1.06-.66Zm-2.52,2.73h.25v-1h-.25v1Zm44.68,6.48h-.25v1h.25v-1Zm127.75,66.32h-.17v.5h.17v-.5Zm-132.95-50.36h.17v-.5h-.17v.5Z"/>
        <path class="cls-1" d="m117.64,24.61c-.23.13-.56.32-.87.5-.18-.09-.38-.12-.45-.23-1.22-1.77-.2-3.5.16-5.21.48-2.3,1.41-4.51,1.32-6.93-.03-.81.33-1.63.61-2.89-3.36,3.71-6.53,6.94-9.5,10.68h-1.45c-.18-.18-.41-.41-.72-.72,2.83-2.96,5.68-5.89,8.47-8.89,1.15-1.23,2.16-2.6,3.34-4.04.69.59,1.23,1.04,1.81,1.54-.38,2.85-.28,5.72-1.51,8.4-.38.83-.17,1.82-.49,2.78-.53,1.56-.5,3.31-.71,5.01h-.01Z"/>
        <path class="cls-1" d="m114.03,17.61c1,1.7-.94,3.18-.18,4.69-.4.37-.63.58-.85.79-.88-1.2.74-2.25.06-3.58-.65.81-1.25,1.54-2.04,2.52-.05-1.87,1.12-3.4,3.02-4.41h0Z"/>
        <path class="cls-1" d="m133.79,114.35c-.2-1.06.34-2.01-.53-2.73-.47-2.51-1.32-4.92-2-7.37-.1-.37,0-.8,0-1.27,1.24,1.04,1.76,2.13,2.99,6.23.69,2.3,2.03,4.47,1.33,7.13-.37,0-.82.12-1.17-.02-2.87-1.1-6.07-1.23-8.72-2.97-1.17-.77-2.5-1.18-3.85-1.51-.29-.07-.56-.27-.79-.47-.16-.14-.23-.39-.42-.73,1.47-.68,2.61.09,3.75.61,1.05.48,2.02,1.15,3.09,1.54,1.66.61,3.38,1.06,5.08,1.55.3.09.65.01,1.24.01h0Z"/>
        <path class="cls-1" d="m120.41,120.16c-2.22-1.81-4.41-2.89-5.8-4.92.29-.21.42-.3.71-.5.89.84,1.81,1.71,3.19,3.02-.58-1.5-.59-2.56-1.44-3.39-.49-.48-.48-1.09.37-1.9.56,2.8,2.55,4.7,2.97,7.7h0Z"/>
        <path class="cls-1" d="m95.06,102.15c-.14-.41-.28-.82-.42-1.23-.12.09-.24.18-.36.27v-3.93c-.49.23-.94.3-1.09.54-.74,1.19-1.46,2.36-1.41,3.91.09,2.51-.79,4.98-.47,7.52.05.38.07.76.22,1.14.44-2.32,1.41-4.32,3.4-6.46-.23.85-.22,1.28-.43,1.48-1.06,1.06-1.19,2.51-1.68,3.8-.08.22.09.57-.03.73-.97,1.27-.35,2.36.3,3.47.16.26.24.56.41.96.41-.03.86-.06,1.67-.12-.65-.68-1.06-1.11-1.74-1.81.78-.04,1.16-.07,1.56-.09.27.47.53.93.81,1.41-.2.47-.42.96-.66,1.53h-1.69c-.39-.48-.92-1.14-1.53-1.9-.07,1.22-.23,2.36.22,3.64.49,1.4.59,2.97.61,4.47.01,1.15.3,2.2.54,3.28s-.47,2.27.46,3.32c.25.28.04.96.04,1.46v8.48c-.59.58-1.18,1.15-1.61,1.57-.86.27-1.52.48-2.32.73-.88-.45-1.84-.94-2.83-1.45-.18-.62-.36-1.2-.57-1.92.11-.23.29-.63.51-1.11h1.29v2.37h2.83c.88-.83,1.25-1.81,1.21-3.01-.06-1.58.05-3.16-.04-4.73-.05-1.02-.34-2.02-.47-3.03-.13-1.02.3-2.13-.51-3.03.36-1.81-.57-3.48-.53-5.28.02-1.09-.29-2.19-.47-3.28s.41-2.27-.47-3.31c-.2-.24-.03-.8-.03-1.22v-7.97c0-1.45.47-2.82.63-4.25.17-1.59,1.4-2.8,2.78-3.71,1.14-.05,1.98.45,2.32,1.5.42,1.33,1.4,2.63.4,4.12-.17.25-.21.57-.31.86-.19.09-.37.18-.56.26l.02.02Z"/>
        <path class="cls-1" d="m86.03,141.22h-1.77c.12-.4.2-.7.36-1.24.58.51.95.84,1.41,1.24Z"/>
        <path class="cls-1" d="m110.47,61.87c-.69-.36-1.21-.64-1.88-.98-.4.5-.8,1-1.31,1.64,0,.17-.05.6.02,1,.05.3.27.58.45.95h-.7c-.25-.46-.51-.93-.76-1.38.21-.66.43-1.32.68-2.1.51-.3,1.11-.65,1.79-1.05.63.36,1.3.75,1.9,1.1.34,1.41-.1,2.45-1.03,3.34-.5-.49-.72-1.11-.66-1.88.19.16.36.31.58.49.28-.34.56-.69.91-1.12h0Z"/>
        <path class="cls-1" d="m87.81,65.94h-.89c-.05-.25-.09-.48-.14-.73.66-.39,1.07-.38,1.03.73Z"/>
        <path class="cls-1" d="m83.68,67.18c-.15.25-.35.55-.66,1.05-.07-.81.15-1.16.66-1.05Z"/>
        <path class="cls-1" d="m86.11,64.34c-.25-.15-.55-.35-1.05-.66.81-.07,1.16.15,1.05.66Z"/>
        <path class="cls-1" d="m86.44,67.48v-1h.25v1h-.25Z"/>
        <path class="cls-1" d="m84.95,65.98v-1h.25v1h-.25Z"/>
        <path class="cls-1" d="m82.91,65.4v-.83l.24-.04c.06.27.13.54.19.81-.14.02-.29.04-.43.05h0Z"/>
        <path class="cls-1" d="m84.41,68.39v-.83c.08-.01.16-.03.24-.04.06.27.13.54.19.81-.14.02-.29.04-.43.05h0Z"/>
        <path class="cls-1" d="m83.99,63.98v-.5h.17v.5h-.17Z"/>
        <path class="cls-1" d="m242.94,91.41c.76-1.25,1.67-1.03,2.59-.92,0,.31.02.46.03.62-.11.1-.22.28-.33.28-.72.03-1.44.01-2.28.01h0Z"/>
        <path class="cls-1" d="m118.7,29.56c1.32.03,2.17-.16,2.55,1.15-.82-.37-1.45-.65-2.55-1.15Z"/>
        <path class="cls-1" d="m136.96,147.54c.66.27,1.17.32,1.34.58.94,1.42,2.12,2.69,2.83,4.27,1.06,2.36,2.16,4.69,3.29,7.12-.44.13-.66.19-.93.27-1.33-4.43-3.55-8.35-6.53-12.24Z"/>
        <path class="cls-1" d="m135.73,149.32c2.88,2.13,3.81,5.4,5.46,8.21.43.73.37,1.74.38,2.67-.93-1.86-1.85-3.69-2.75-5.52-.92-1.89-2.38-3.43-3.09-5.35h0Z"/>
        <path class="cls-1" d="m135.74,141.28c1.99,1.12,2.93,3.24,4.48,4.78.12.12.02.47.02.71-.87-.54-1.54-1.2-2.04-2.14-.44-.81-1.25-1.44-1.96-2.08-.41-.37-.55-.75-.48-1.26h-.02Z"/>
        <path class="cls-1" d="m135.74,149.25c-1.28-1.19-2.57-2.37-3.82-3.6-.18-.17-.12-.58-.17-.89,1.28,1.19,2.57,2.37,3.82,3.6.18.17.12.58.17.89Z"/>
        <path class="cls-1" d="m137.23,147.76l-3-2.99c.93-.23,1.3.54,1.77,1.05.52.56,1.44.91,1.22,1.94h0Z"/>
        <path class="cls-1" d="m134.24,144.77l-1.5-1.5c1.12.1,1.39.38,1.5,1.5Z"/>
        <path class="cls-1" d="m131.74,144.77l-.5-.5.5.5Z"/>
        <path class="cls-1" d="m131.24,144.27l-.5-.5.5.5Z"/>
        <path class="cls-1" d="m135.24,140.78l.5.5-.5-.5Z"/>
        <path class="cls-1" d="m260.57,175.3c.78-.66,1.12-.95,1.6-1.36.21.42.33.65.54,1.08-.66.08-1.16.15-2.14.27h0Z"/>
        <path class="cls-1" d="m102.79,101.88h-.75c-.2-.4-.41-.8-.65-1.29.07-.08.25-.23.34-.41.1-.2.12-.44.2-.8h2.86v2.25c-.57.55-1.16,1.12-1.8,1.73-.85-.1-1.91.42-2.57-.6v-2.38c.16,1.13.83,1.84,1.71,2.49.23-.35.45-.67.72-1,.87.16,1.23-.39,1.52-1.19-.35-.32-.69-.62-1.23-1.11-.26.51-.44.87-.64,1.26.07.17.23.59.3,1.04h0Z"/>
        <path class="cls-1" d="m145.72,138.78c-1.36,0-1.85-1.1-2.5-1.99,1.36,0,1.85,1.1,2.5,1.99Z"/>
        <path class="cls-1" d="m97.37,64.44c-.1-.96-.28-1.79.63-2.38.73-.09,1.54-.29,2.21.62v1.64c-.32.32-.73.73-1.13,1.12-.53-.31-1.06-.61-1.72-1h.01Z"/>
        <path class="cls-1" d="m138.69,55.65c.84-.47,1.67-.95,2.7-1.53h-2.19c-.45-.34-.74-.57-1.14-.87,1.76-.61,3.47.3,4.99-.65.16.16.4.4.65.65-1.32,1.47-2.79,2.65-5.02,2.4h.01Z"/>
        <path class="cls-1" d="m140.39,87.49c-.67-.95-1.34-1.91-2.09-2.97v-1.03c.19.08.35.09.41.18.77,1.08,1.55,2.15,2.25,3.27.22.36.21.86.33,1.4h-3.88l-.69-.69c.26-.28.52-.55.73-.78.97.35,1.81.64,2.64.94.1-.11.2-.21.3-.32Z"/>
        <path class="cls-1" d="m33.86,49.61v.85h-3.27c.72,1.18.82,1.28,1.83,1.87,0,.16,0,.32-.05.48-.02.07-.11.12-.28.29-1.31-.79-2.66-1.57-3.64-2.85.19-.19.36-.36.63-.63h4.78,0Z"/>
        <path class="cls-1" d="m73.74,15.59c-.98.52-.93,1.19-.91,1.85.02.55,0,1.1,0,1.97-.32-.44-.49-.56-.49-.68-.02-1.48-.01-2.97-.01-4.38.31-.29.54-.5.83-.78.74,1.48,2.27,2.5,2.13,4.82-.65-1.16-1.09-1.96-1.56-2.81h.01Z"/>
        <path class="cls-1" d="m106.78,86.42c.82.71,1.79,2.16,2,2.99-1.19-.65-1.89-1.62-2-2.99Z"/>
        <path class="cls-1" d="m110.28,96.9v1h-.5l-.5-.5c-.17-.5-.33-1-.5-1.5.33.17.67.33,1,.5l.5.5Z"/>
        <path class="cls-1" d="m111.78,94.4c.8.44,1.57.9,1.5,1.99-.8-.44-1.57-.9-1.5-1.99Z"/>
        <path class="cls-1" d="m108.28,95.4c-.8-.44-1.57-.9-1.5-1.99.8.44,1.57.9,1.5,1.99Z"/>
        <path class="cls-1" d="m107.09,91.53c.75.17,1.42.38,1,1.54-.41-.63-.7-1.08-1-1.54Z"/>
        <path class="cls-1" d="m109.78,91.41c.79.2,1.08.72,1,1.5-.79-.2-1.08-.72-1-1.5Z"/>
        <path class="cls-1" d="m110.78,96.9h-.5l-.5-.5v-1c.79.2,1.08.72,1,1.5Z"/>
        <path class="cls-1" d="m111.28,93.41c.75.04.42.62.5,1-.75-.04-.42-.62-.5-1Z"/>
        <path class="cls-1" d="m108.78,89.42c.75.04.42.62.5,1-.75-.04-.42-.62-.5-1Z"/>
        <path class="cls-1" d="m109.28,90.41c.75.04.42.62.5,1-.75-.04-.42-.62-.5-1Z"/>
        <path class="cls-1" d="m106.78,93.41l-.5-.5.5.5Z"/>
        <path class="cls-1" d="m110.78,92.91l.5.5-.5-.5Z"/>
        <path class="cls-1" d="m108.95,94.4v-.5h.17v.5h-.17Z"/>
        <path class="cls-1" d="m109.73,95.45c-.14-.12-.27-.23-.41-.35l.16-.16c.12.14.23.27.35.41l-.1.1Z"/>
        <path class="cls-1" d="m108.78,95.9l-.5-.5.5.5Z"/>
        <path class="cls-1" d="m24.56,77c1.54,1.01,2.73,1.79,4.19,2.75-.59.11-.83.23-1.04.18-.52-.12-1.08-.23-1.51-.5-1.16-.73-2.26-1.54-3.81-2.62.75-.21,1.17-.33,1.6-.44-.12-.09-.23-.19-.35-.28,1.33-.15,2.65-.29,4.18-.46.04.03.27.26.51.48-.88,1.11-2.2.78-3.76.9h-.01Z"/>
        <path class="cls-1" d="m28.26,91.47c-.71-.5-1.33-.94-2.05-1.45,1.07-1.66,2.88-1.19,4.18-2.08.1,1.95-2.09,1.04-2.44,2.29.92.27,1.89.55,2.85.83,0,.06.02.12.03.18-.89.08-1.78.16-2.58.24h0Z"/>
        <path class="cls-1" d="m27.46,63.23c.54.92,2.03.71,1.93,2.18-1.39-.57-2.53-1.34-3.52-2.21.44-1.88,2.17-.7,2.94-1.75.42,1.45-1.3.87-1.34,1.77h-.01Z"/>
        <path class="cls-1" d="m118.76,91.41c-1.46-1.32-2.48-3.02-3-4.99,1.46,1.32,2.48,3.02,3,4.99Z"/>
        <path class="cls-1" d="m115.77,81.44c.75.04.42.62.5,1-.75-.04-.42-.62-.5-1Z"/>
        <path class="cls-1" d="m115.77,86.42c-.75-.04-.42-.62-.5-1,.75.04.42.62.5,1Z"/>
        <path class="cls-1" d="m41.64,107.75c.91,1.83-1.03,2.94-.7,4.54,1.05-.73,2.05-1.41,3.44-2.38-.14.81-.1,1.35-.26,1.42-1.35.57-2.46,1.45-3.4,2.45h-1.34c.11-2.25,1.44-3.95,2.26-6.03Z"/>
        <path class="cls-1" d="m50.38,29.58c-1.18,0-1.96-.77-2.93-1.58-.11,1.04.37,1.72.94,2.3.38.39.56.76.49,1.27h-.73c-.83-1.56-1.65-3.1-2.6-4.9.73-.05,1.11-.08,1.62-.12.66,1.39,2.59,1.47,3.21,3.02h0Z"/>
        <path class="cls-1" d="m111.78,89.91c1.13.45,1.32,1.47,1.5,2.49-1.13-.45-1.32-1.47-1.5-2.49Z"/>
        <path class="cls-1" d="m109.78,86.92c.79.2,1.08.72,1,1.5-.79-.2-1.08-.72-1-1.5Z"/>
        <path class="cls-1" d="m111.28,88.92c.75.04.42.62.5,1-.75-.04-.42-.62-.5-1Z"/>
        <path class="cls-1" d="m110.78,88.42l.5.5-.5-.5Z"/>
        <path class="cls-1" d="m112.28,83.43c1.36.77,1.54,2.21,2,3.49-1.36-.77-1.54-2.21-2-3.49Z"/>
        <path class="cls-1" d="m116.27,90.41c1.13.45,1.32,1.47,1.5,2.49-1.13-.45-1.32-1.47-1.5-2.49Z"/>
        <path class="cls-1" d="m115.27,88.42c.65.51,1.04,1.14,1,1.99-1.1-.28-1.04-1.14-1-1.99Z"/>
        <path class="cls-1" d="m113.27,89.42c-.79-.2-1.08-.72-1-1.5.79.2,1.08.72,1,1.5Z"/>
        <path class="cls-1" d="m115.27,92.41c-.79-.2-1.08-.72-1-1.5.79.2,1.08.72,1,1.5Z"/>
        <path class="cls-1" d="m114.27,86.92c.79.2,1.08.72,1,1.5-.79-.2-1.08-.72-1-1.5Z"/>
        <path class="cls-1" d="m115.77,93.41c-.75-.04-.42-.62-.5-1,.75.04.42.62.5,1Z"/>
        <path class="cls-1" d="m112.28,87.92c-.75-.04-.42-.62-.5-1,.75.04.42.62.5,1Z"/>
        <path class="cls-1" d="m114.27,90.91c-.75-.04-.42-.62-.5-1,.75.04.42.62.5,1Z"/>
        <path class="cls-1" d="m113.77,89.91l-.5-.5.5.5Z"/>
        <path class="cls-1" d="m116.27,93.9l-.5-.5.5.5Z"/>
        <path class="cls-1" d="m105.29,94.4c1.36,0,1.84,1.1,2.49,1.98.22.3.34.68.51,1.02-.36-.11-.86-.12-1.06-.36-.7-.83-1.29-1.75-1.93-2.63h-.01Z"/>
        <path class="cls-1" d="m102.79,91.41c.78.69,1.58,1.36,2.31,2.1.18.18.13.59.18.89-.78-.69-1.58-1.36-2.31-2.1-.18-.18-.13-.59-.18-.89Z"/>
        <path class="cls-1" d="m108.28,97.39h1l.5.5v1.36c-.68-.85-1.09-1.35-1.5-1.86Z"/>
      </g>
    </g>
  </g>
</svg>
