<?xml version="1.0" encoding="UTF-8"?>
<svg id="Layer_2" data-name="Layer 2" xmlns="http://www.w3.org/2000/svg" viewBox="0 0 412.53 328.37">
  <defs>
    <style>
      @import url(../css/art.css)
    </style>
  </defs>
  <g id="Layer_1-2" data-name="Layer 1">
    <g id="Layer_1-2" data-name="Layer 1-2">
      <g>
        <path class="cls-1" d="m.01,300.01c.89-.76,1.96-.76,3.06-.76,5.36.02,10.73.06,16.09-.02,1.53-.02,3.21.62,4.57-.7.13-.12.53-.11.72,0,2.39,1.33,5.02.42,7.62.87v2.02c-.47.03-1.05.09-1.63.09-5.11,0-10.23-.06-15.34.04-2.02.04-4.03.57-6.05.69-2.11.13-4.25-.08-6.36.07-1.07.08-1.83-.4-2.69-.79v-1.5h.01Z"/>
        <path class="cls-1" d="m.01,308.24c.87.25,1.74.5,2.61.75,1.38,1.85,1.58,3.76.04,5.92-.71.22-1.68.52-2.65.81v-2.99l.75-.57-.75-.93v-2.99h0Z"/>
        <path class="cls-1" d="m373.58,305.99v2.62c-1.46,1.41-2.73,3.11-5.04,3.44-1.05-.61-2.14-1.24-3.27-1.9-1.81,1.91-3.4,3.62-5.78,3.34-1.08-1.06-2.03-2-3.28-3.23.49-.84,1.12-1.92,1.8-3.08-1.7-1.27-2.92.88-4.73.15.17,1.1.29,1.86.5,3.18-1,2.47-3.2,4.37-6.61,5.21-.8-.48-1.8-1.08-2.86-1.71v-5.24c-.84.42-1.42.7-2.07,1.03v3.19c-1.97,2.17-4.25,3.29-6.82,3.56-1-.69-1.85-1.29-2.63-1.82-1.39.9-2.46,1.6-3.68,2.39-1.45-.7-2.97-1.43-4.66-2.24-.13.46-.25.88-.46,1.59-1.92-.21-3.97.6-6.06-.9-1.49,1.88-3.52,2.74-6.31,2.29-.83-1.08-1.83-2.39-2.87-3.75-1.34.62-2.59,1.2-4.07,1.88-.74-.7-1.43-1.36-2.13-2.02-.2-2.19-.42-4.37,1.63-6.33-1.15-.06-2.06-.12-3.32-.19.2,1.09.36,1.95.65,3.48-.66,2.09-2.5,3.93-5.26,4.81-2.17-.21-3.49-1.4-4.25-4.01v-2.96c.57-.79,1.11-1.53,2.01-2.77h-6.8c-1.56,0-3.03-.17-4.58-.68-4.03-1.32-6.19-1.03-11.35-.16-1.81.3-3.87.61-5.75-.46-.57-.33-1.43-.18-2.16-.19-3.24-.02-6.5-.2-9.73.04-5.31.4-10.58-.37-15.77-.98-4.18-.49-8.36.06-12.42-.64-6.27-1.07-12.61.08-18.77-.82-5.68-.83-11.29-.31-16.93-.58-3.78-.18-7.48,1.27-11.29.73-2.54,1.32-5.28.55-7.92.75-.83.06-1.58-.03-2.42.55-.54.37-1.72-.19-2.9-.37-.56.14-1.45.48-2.36.55-4.01.3-8.03.51-12.04.79-.43.03-.83.43-1.27.53-1.85.41-3.62,1.29-5.6.95-2.1-.36-4.08.47-5.95,1.03-2.36.71-4.54.7-6.55-.38-.96-.52-1.78-.65-2.73-.65-4.86-.01-9.72,0-14.54,0-6.47,6.5-8.05,4.85-12.35,1.93v-3.87c1.68-.32,2.55-2.5,4.57-1.8,1.29-1.19,2.52-.67,3.89-.04,1.52.7,3.21.78,4.91.82,6.39.16,12.78.35,19.15.75,4.18.27,8.16-1.24,12.26-.76.07-.54.11-.78.14-.99-1.27-.82-2.49-1.69-3.79-2.43-1.36-.78-2.28-2.05-3.54-2.97-1.2-.87-1.87-2.45-3.06-4.12-.17-.35-.4-1.35-1.01-1.97-.89-.89-.3-1.9-.61-2.77-.31-.86-.92-1.62-1.48-2.57.57-2.78-.99-5.5-.82-8.49s-.5-6.02-.63-9.04c-.12-2.99-.64-6.16.14-8.93.87-3.1-.2-6.21.7-9.05.88-2.79.13-5.75,1.11-8.9-.43-1.27-2.1-.38-3.16-.75-2.31-2.08-1.76-4.67-1.77-7.06.38-.38.65-.65,1.05-1.04h9.26v-3.27c1.46-1.43,2.8-2.74,4.43-4.34,1.09.23,2.46.51,3.91.82,1.65-.78,3.42-1.62,5.41-2.56,1.45,1.75,2.79,3.37,4.1,4.96,1.21-.73,2.19-1.33,2.93-1.77,1.22,1.21,2.16,2.15,3.2,3.18-.2.66-.48,1.64-.92,3.1,1.59-1.07,2.71-1.82,3.83-2.56,1.07-.72,2.15-1.43,3.48-2.32,1.37,1.64,2.71,3.25,4.29,5.14,1.64-2.27,2.97-4.77,6.41-4.05,1.61,1.96,3.73,3.42,6.64,2.84.79,1.34.28,2.21-.7,2.97-2.9.43-6.14-.93-8.91,2.22-.46-.98-.79-1.66-1.11-2.34-1.63.51-2.82,0-4.22.69-1.1.55-2.79-.04-4.21-.17-.58-.05-1.23-.45-1.72-.29-3.44,1.13-6.82-.35-10.25-.09-3.47.25-6.99-.03-10.48.09-2.27.07-4.55-.36-6.85.61-1.15.49-2.88.53-4.17-.61-.27-.24-.94-.04-1.56-.04v3.5c.17.05.5.22.82.23,4.37.02,8.74-.08,13.1.07,1.14.04,2.07-.69,3.26-.39,1.16.29,2.4.24,3.61.33,5.54.41,10.98-1.31,16.53-.75,1.21.12,2.46.03,3.61.33,1.19.31,2.11-.75,3.26-.35.33.12.86-.14,1.1.04,1.58,1.17,3.1.73,4.37-.08,1.66.31,1.95,1.28,1.85,2.52-.74.5-1.5,1.02-2.13,1.45v3.7c1.57-2.06,3.1-3.8,4.31-5.74,1.25-2,3.15-3.41,4.47-5.27,1.33-1.87,3.15-3.1,4.74-4.62,1.67-1.59,3.19-3.3,5.2-4.56,2.03-1.27,3.76-3.03,5.62-4.57,2.85,0,4.18-3.76,7.33-3.06,2.34-2.24,5.27-1.3,7.33-1.47,1.9.62,3.2,1.29,4.54,1.39,1.22.1,1.55,1.2,2.39,1.5.76.26,1.61.04,2.31.82.6.68,1.55,1.06,2.29,1.63,1.24.94,2.45,1.92,3.66,2.9,1.4,1.14,2.79,2.3,4.19,3.43,1.21.98,2.39,2.02,3.67,2.9,4.1,2.82,7.22,6.69,10.79,10.07.78.73,1.52,1.51,2.41,2.4-.3-2.87-.56-3.23-3.34-4.75-.1-.57-.21-1.25-.35-2.1-4.18-1.49-4.79-5.68-6.54-9.04-.48-.91-.72-1.94-1.1-2.91-.67-1.72-2.18-3.13-1.91-5.19-1.7-1.35-1.16-3.73-2.51-5.35-.91-1.09-1.17-2.73-1.98-4.77,0-1.06-.09-2.72-1.17-4.4-.82-1.28-.88-3.04-1.56-4.57-.69-1.55-.54-3.49-1.97-4.77-9.07,1.24-18.19.17-27.35.69-.17,3.94-3.66,5.52-5.77,8.23-1.01-.15-2.04-.31-3.3-.49-.81,1.36-2.9,2.05-3.94,3.83-.18.32-.82.38-1.24.55-5.13,2.04-9.53,5.34-14.22,8.15-2.45,1.47-5.24,2.39-7.87,3.57-2,.91-4.13,1.47-6.2,2.2-2.65.94-5.45,1.01-8.24.68-1.59-2.17-1.41-2.9.81-3.65.87-.29,2.05-.44,2.51-1.07,1.53-2.11,4.36-1.89,5.87-4-.73-.4-1.66-.19-2.64.12-4.57,1.45-4.56,1.39-9.67.5-1.21-.21-2.49-.03-3.74-.03-.87,0-1.77.13-2.61-.04-.65-.13-1.23-.62-1.94-1.01v-1.66c1.96-.78,3.76-1.69,6-1.95,2-.23,3.94-1.28,6.13-1.4,1.44-.08,2.83-.88,4.19-1.94-.86-.11-1.73-.21-1.86-.23-1.98-.95-3.27-1.85-4.7-2.2-3.96-.97-7.53-2.93-11.35-4.24-1.16-.4-2.12-1.4-3.18-2.14,1.38-1.84,2.19-2.21,3.66-1.79.55.16,1.18.73,1.59.59,4.46-1.53,9.05-.3,13.55-.71.23-.02.45-.12.38-.1l-2.52-2.52v-6.72c1.46-1.78,2.92-3.56,4.55-5.55-1.06-1.43-2.25-3.03-3.54-4.77-1.18.69-2.28,1.33-3.2,1.87.32,1.52.58,2.76.83,3.95-1.08.5-1.91.89-2.96,1.37v1.96c-1.31,2.34-3.47,2.43-5.47,3.24-1.89-1.52-3.76-3.01-5.78-4.64-4.15.15-7.6-2.07-11.13-4.43-.56.61-1.23,1.33-1.8,1.95-.39.09-.62.21-.85.19-2.56-.22-4.54,1.03-6.46,2.49-2.64,2.01-5.32,3.97-8.27,6.16-.27.72-.66,1.8-1.28,3.47-1.03,1.02-2.54,2.5-4.04,3.98,2.26,2.35,1.26,5.3,1.5,7.78-.62,1.34-1.15,2.49-1.78,3.82.64.68,1.2,1.29,1.77,1.89,0,1.62.03,3.24,0,4.86-.04,1.79.11,3.54-.66,5.34-.63,1.47.13,3.23-.71,4.95-.64,1.31-.13,3.18-.13,5.08-.92,1.36-1.85,3.01-3.06,4.42-1.4,1.62-2.85,3.36-5.32,3.36-1.09,1.49-3.36,1.16-4.58,3.01,1.33,2.84,2.24,6.12,4.18,8.6,3.05,3.9,4.1,8.03,3.35,13.17-5.03,7.44-10.29,15.23-15.67,23.2.79.87,1.59,1.75,2.57,2.82-.53,1.54-1.1,3.18-1.67,4.82,2.38,3.05,6.28,2.78,9.47,4.44.28.55.65,1.27,1.02,2-.41.94-1.36,1.83-.48,2.93.61.75,1.55,1.3,1.09,2.85-.89.64-2.02,1.46-3.36,2.42-2.19.62-4.62-.04-6.82-.78-2.07-.69-4.07-.72-6.09-.58-2.26.16-4.05-1.36-6.34-.71.01-.25.02-.51.03-.76-1.3.92-2.6,1.84-4.16,2.94-3.14-.08-5.83-2-8.85-3.72-.1-.63-.22-1.31-.34-2.05-.39-.39-.84-.83-1.33-1.33v-3.69c1.83-1.95,2.1-4.99,4.4-6.73v-3.67c.7-.76,1.36-1.46,2.04-2.19,1.06.55,1.98,1.04,2.99,1.56.23-.27.55-.64.99-1.16-.41-.27-.9-.6-1.56-1.04.37-3.18-.35-6.27.78-9.4,1.02-2.83,3.26-4.81,4.49-7.55-.82.18-1.26.86-1.86,1.3-.56.42-1.74.79-1.71,1.06.19,1.42-1.58.91-1.55,1.56.07,1.2-.8.98-1.36,1.28-.09.05-.2.19-.2.28.02,2.96-2.32,4.39-4.06,6.17-1.81,1.85-3.8,3.51-5.62,5.35-1.76,1.78-3.4,3.68-4.99,5.41-.35.85-.47,1.81-1,2.3-1.86,1.69-2.62,3.71-2.3,5.83-.62,1.21-1.1,2.13-1.59,3.09,1.43,2.16,4.58.76,5.99,3.32v3.06c-1.68.78-2.89,2.47-5.25,2.56-1.17.05-2.23,1.78-3.88,1.35-2.6,1.75-4.99.44-7.4-.52-.32-.13-.66-.22-.94-.31-.6-.88-1.21-1.76-1.91-2.79v-4.25c-1.98-1.84-1.39-4.25-1.5-6.63-.94-.83-1.96-1.73-2.52-2.23-.3-.84-.4-1.05-.45-1.28-.9-4.07-1.04-4.19,1.55-7.32,1.47-1.78,3.41-3.22,5.32-4.55,1-.69,2.39-.81,3.86-1.27-2.54-2.46.58-4.95-.21-7.1,2.39-3.64,3.49-7.77,7.23-10.32,1.3-.31,2.89-.68,4.67-1.1,1.04-1.44,1.64-3.2,1.53-5.16-.1-1.74.11-3.36,1.49-4.64v-3.85c.93-.62,1.91-1.27,2.92-1.95-.44-.85-.84-1.64-1.38-2.69v-8.48c1.98-3.36,4.44-6.08,7.81-7.21.51-1.82.92-3.27,1.27-4.52,1.89-1.46,3.58-2.33,5.63-1.01.28-.28.54-.54.86-.86l-.5-1c.27-.27.54-.54.83-.83.56.21,1.13.44,1.84.71.11-.56.17-.9.28-1.44h-3.71c-1.76-1.25-3.2-2.27-4.61-3.26-1.97,1.6-3.84,3.1-5.68,4.59-2.5-.53-3.82-2.52-5.48-4.06-.55-3.01,1.51-4.66,3.31-6.43.51,0,1.09-.16,1.48.04.5.26.86.8,1.21,1.15-.14.44-.14.76-.29.87-.86.63-1.75,1.21-2.87,1.98.21.82.42,1.67.65,2.57h2.8c.72-.54,1.47-1.1,2.58-1.94.52-1.88-.44-3.9-1.52-6.14,1.39-1.58.92-3.33-.1-5.07-1.05-.53-2.18-.3-2.5.69-.81,2.5-3.35,2.85-4.74,4.59-1.72-.72-3.21-1.33-4.7-1.95-.1.15-.21.3-.31.45-.91-1.01-1.65-2.5-2.78-2.91-1.49-.55-1.26-2.28-2.66-2.64v-2.69c1.68-4.52,5.97-4.62,9.06-6.48-.79-1.15-1.71-1.78-2.76-1.89-1.12,1.79-2.67,2.82-4.71,3.12-1.15,2.08-3.67.76-4.95,2.21-.96-.4-1.83-.55-2.42-1.04-1.15-.95-2.14-2.08-3.2-3.14-.42-4.73-.33-9.29,4.18-12.42h4.04c1.34,1.28,2.51,2.39,3.67,3.5-.6,1.49-1.2,2.99-1.86,4.63h-2.45c-.06-.31-.27-.72-.15-.98.43-.95.97-1.84,1.5-2.81-1.37-2.5-3.21-1.1-5.01-.44-.68,1.95-2.58,3.7-1.24,6.92.34.46,1.18,1.6,1.92,2.62h3.31c2.34-1.49,4.72-3.01,6.74-4.3.91-5.02-.58-9.26-1.59-13.71-2.14,1.22-4.47.72-6.76.82-1.56-1.59-3.14-3.18-4.82-4.89v-2.97c1.23-1.56,2.57-3.26,3.83-4.86h3.94c.89.87,1.77,1.74,2.59,2.55-1.02,1.41-.78,3.71-3.17,4.22-.28-.24-.64-.54-.94-.81.17-1.24.34-2.41.53-3.82-2.08.25-2.63,1.87-3.82,2.61v2.4c1.02.93,2.11,1.94,3.49,3.2h2.83c.71-.53,1.46-1.1,2.55-1.92-.1.24.06.03.07-.18,0-1.32.09-2.56.7-3.83.56-1.15-.54-2.68.6-3.87.2-.21.2-.68.19-1.03-.04-4.79,1.77-8.88,4.46-12.76,2.19-3.16,4-6.57,6.04-9.83.99-1.57,3.12-3.03,5.15-3.87,1.28-.53,2.46-1.29,3.7-1.9,3.65-1.79,3.57-1.98,6.6-1.14,1.23-1.3,2.4-2.54,3.94-4.17-.13-.35-.53-1.43-.91-2.45-1.72-.31-2.56.34-2.89,2.16.87-.35,1.44-.58,2.23-.9.07.72.12,1.19.21,2.02-.77.43-1.72.97-2.89,1.62-.86-.46-2.49-.99-3.17-2.52-.1-3.59,2.89-4.08,5.06-5.48.57.25,1.18.58,1.84.79,3.4,1.06,4.69,4.51,2.62,7.29-.74.99-1.74,1.78-2.85,2.89,1.72.67,3.33,1.29,5.06,1.96.13-.55.22-.89.31-1.26-.56-.26-1.07-.5-1.55-.73v-1.65c.32-.08.73-.34.97-.23,3.28,1.49,6.85,1.01,10.22,1.63,4.68.85,9.3.22,13.96.68.31.31.67.67,1.21,1.21-1.17,2.17-2.38,4.41-3.76,6.96.06.05.46.57.84.56,2.82-.04,4.76,1.46,6.54,3.68-.07.64.14,1.81-.33,2.24-1.31,1.22-1.49,3.37-3.49,3.99-1.21.37-2.31,1.04-3.51,1.45-.99.34-1.74.75-1.7,2.1h2.66c1.85-1.36,3.86-2.83,5.87-4.31,1.13,1.19,2.23,2.35,3.52,3.71.38,1.56-1.35,2.16-2.17,3.23-1.05,2.05,2.08,4.13-.41,6.37,2.25.05,4.25.69,6.29-.77-.27-.36-.44-.59-.65-.87,1.7-2.89,4.97-3.7,8.08-5.63h2.7c-.03-.14-.06-.28-.09-.41,1.42-.48,2.85-.96,4.17-1.4,1.3,1.41,2.39,2.59,3.78,4.09-.22,1.02-.55,2.51-.93,4.25.69.05,1.53.36,1.81.09,1.63-1.54,3.18-.48,4.65.08,2.31.89,3.25.99,5.17.06,1.57.31,2.96.58,4.81.95.55.56,1.91,1.16,1.63,3.04-.72.59-1.58,1.28-2.7,2.2,1.5.86,2.6,1.48,4.06,2.31-.07-3.48,2.69-4.63,4.6-6.66v-3.21c.45-.09.85-.3,1.12-.19.64.25,1.62.53,1.77,1.01.77,2.55,3.31,2.84,5.08,4.16.43.94.85,1.87,1.3,2.85.17.05.38.15.61.18,2.13.29,4.33.34,6.35.97.8.25,1.56.55,2.39.52,1.63-.06,3.11.22,4.28,1.51,1.97,0,3.97-.08,5.96.03,1.03.06,2.46,1,2.97.59,1.43-1.1,2.87-.38,4.27-.6.27-.04.6.32,1.08.6.92-.61,1.96-1.29,3.23-2.13,3.35.51,6.46-.8,9.74-2.96.44-.02,1.28-.06,2.32-.1,0-.56.17-1.12-.03-1.48-.92-1.62-1.95-3.19-2.97-4.81v-6.31c0-2.12-.13-4.25.04-6.36.15-1.97,1.66-3.64,1.46-5.74-.2-2.09,1.35-3.75,1.47-5.74.12-2.04-.24-4.15,1.52-5.77.06-2.73-.37-5.55,1.3-8.04-.21-3.15,2.08-5.84,1.68-9.15.79-.8,1.63-1.66,2.69-2.73-.64-.39-.99-.6-1.35-.81-2.64,4.44-12.72,13.63-18.52,16.61-2-.29-2.69-2.13-3.7-3.43-1.04-1.34-1.58-3.07-2.38-4.7-1.33.81-2.57,1.56-3.77,2.28-2.91-.77-4.65-2.6-5.82-5.11,1.61-2.62,3.71-4.56,6.89-5.63,2.14-.73,4-2.51,5.77-4.07,1.85-1.62,4.17-2.81,5.08-5.45v-4.73c-2.54.73-2.74,3.45-4.58,4.59-1.74,1.07-2.86,2.88-4.67,4.04-1.79,1.15-3.63,2.12-5.51,3.03-1.81.87-3.7,1.63-5.64,1.13-1.34-2.04-2.62-3.97-4.06-6.16-1.16.84-2.26,1.71-3.43,2.47-1.85,1.19-3.02,1.09-4.89-.32,0-.83.05-1.7,0-2.56-.23-3.27-.1-6.62-.83-9.77-1.23-5.39-.23-10.79-.76-16.22-.38-.38-.82-.82-1.04-1.04-.42-1.51-.99-2.73-1.04-3.97-.04-1.07.5-2.17.83-3.39-1.3,1.3-2.4,2.4-3.61,3.6.37.58.99,1.55,1.86,2.91v2.74c-.59.63-1.18,1.27-1.74,1.87h-2.34c-.78-1-1.72-2.18-2.82-3.6,1.04-1.47,2.06-2.92,3.16-4.48-2.15-1.53-4.47-3.18-6.57-4.67-.55-3.25-.1-6.26,1.37-9.02,2.48-1.26,4.54-2.31,7.28-3.7.45.06,1.72.22,2.91.38.75-1.38,1.64-3,2.63-4.83h3.25c.08,0-.14,0-.36.02.1.49.19.97.29,1.46.16-.02.32-.04.48-.07-.04-.48-.08-.95-.41-1.42-.53-.76-.77-1.53-.94-2.08,1.18-1.18,2.31-2.31,3.88-3.88h1.89v-2.51c.75-.75,1.37-1.37,1.99-1.99h2.36c.83-1.47,1.68-2.98,2.5-4.45h3.2c1.6-2.06,3.52-3.32,6.12-3.01.68.59,1.31,1.13,2.28,1.96.47-2.13,1.69-3.37,3.08-4.85h2.32c.56.57,1.27,1.28,2.25,2.27.47-1,.87-1.87,1.55-3.34.29-.29,1.09-1.08,2.02-2.02,1.09.75,2.22,1.53,3.32,2.29v3.32c-.68.56-1.53,1.27-2.43,2.01.51.47.79.71,1.19,1.08,1.24-.32,2.68-1.25,3.94.23.35-.35.71-.71,1.08-1.08-.23-.26-.47-.52-.72-.79v-3.93c1.06-.76,2.22-1.59,3.14-2.25.95.3,1.72.55,2.64.84.15.3.39.79.76,1.55.66-.58,1.47-.95,1.63-1.51.36-1.25.96-1.89,2.42-1.78,2.1.87,2.36,3.26,3.59,4.9-.79.79-1.59,1.59-2.48,2.47h-3.18c-.42-.42-.86-.86-1.41-1.41-.69.77-1.37,1.54-2.02,2.26.3.38.42.7.59.72,1.89.28,3.88.24,5.65.84,2.3.78,4.84.81,6.96,2.17.58.38,1.19.73,1.83,1,.63.27,1.31.44,2.09.69.57-4.4,2.59-7.79,5.11-9.95,1.78-.9,2.81-1.43,4.08-2.07,1.43-.26,3.17-.69,4.93-.85,1.73-.16,3.49-.03,4.98-.03.7.36,1.2.62,1.7.88.2-.39.4-.59.41-.8.03-1.37.12-2.75,0-4.11-.34-3.58,1.04-6.77,2.4-9.86,1.41-3.2,4.22-5.5,6.89-7.55,3.1-2.38,6.77-4.03,10.25-5.89,1.12-.6,2.64-.48,3.21-1.84h3.97c.08.32.1.69.26.98.72,1.32,1.99,2.58,2.11,3.95.15,1.78,1.68,2.86,1.65,4.61-.03,1.56.52,2.98,1.44,4.26-.7,2.89,1.73,5.09,1.64,7.97-.1,3.05-.46,5.98-1.66,8.71-1.26,2.88-3.3,5.26-6.05,6.94-.5.3-.94.72-1.44,1.1,1.48,1.35,3.65,2.03,3.82,4.74-.42.88-.97,2.03-1.64,3.41.86.45,1.73.9,3.01,1.58.25.65.65,1.71,1.14,3-1.23,1.01-2.37,1.95-3.68,3.03,1.04,1.23,1.88,2.23,2.7,3.2-.18,2.07-2.3,3.7-1.45,5.76.7,1.7,1.96,3.17,3.11,4.94-.42.45-.82.88-1.17,1.25-3.06.37-6.04.72-9.07,1.09-.68-.92-1.27-1.72-2.2-2.99-.28,1.07-.44,1.67-.53,2.01,1.18,1.65,2.21,3.08,3.42,4.77-1,.65-1.82,1.18-2.65,1.72.09.15.19.31.28.46h-2.88c.64.97,1.08,1.64,1.75,2.65v2.36c-1.04,3.59-3.65,5.49-5.75,7.81-2.07,2.28-4.93,3.11-7.62,4.54,0,.42-.2,1.04.03,1.37,1.94,2.73,3.96,5.4,5.74,7.8,1.96.46,3.44.8,5.04,1.18.48-.69.91-1.3,1.29-1.85,1.16.41,2.03.72,2.83,1,1.81-1.44,3.72-2.58,5.12-4.18,1.27-1.45,1.98-3.39,3.03-5.28-.47-.73-.89-1.7-1.58-2.38-.65-.64-1.59-.98-2.89-1.75-.36.07-1.3.17-2.17.47-.86.29-1.66.79-2.69,1.29-.25.47-.63,1.18-1.11,2.08.23.29.58.61.79,1.01.16.29.13.67.19,1.03,1.02.11,1.95.21,3.38.36-.97,1.16-1.64,1.98-2.29,2.75h-2.56c-.76-1.05-1.6-2.21-2.41-3.34v-3.83c1.78-1.54,3.35-3.36,6.1-3.38.92,0,1.83-.92,2.75-1.42,2.67.92,4.89,2.48,6.77,4.9v4.64c-1.57,1.77-3.46,3.81-5.25,5.93-1.82,2.16-4.36,3.34-6.62,5-.13,3.98.81,7.76,2.34,11.35.99,2.33,2.81,4.14,5.19,5.28.84.41,1.63.94,2.92,1.69h2.78c.09-.09.24-.38.44-.42,3.15-.65,5.2-2.84,7.28-5.03,1.17-1.23,2.37-2.41,2.27-4.3v-5.49c-.85-.77-1.77-1.6-2.88-2.61-2-.39-3.19,1.81-5.29,2.44-.32,1.2-.68,2.55-1.11,4.16,1.18.45,2.15.81,3.21,1.22v2.39c-.77.36-1.5.7-2.18,1.01-4.19-1.3-3.89-4.62-3.66-7.91,1.59-1.59,3.18-3.17,4.32-4.32,1.82-.73,3.1-1.24,4.67-1.87,5.62,1.52,6.96,5.98,6.64,11.48-.47.5-.98,1.03-1.5,1.57v1.53c-3.34,2.77-5.64,6.8-9.99,8.54h-3.88l-.9.9c-1,3.72.87,7.05,1.49,10.85.98.73,1.78,2.09,3.38,2.71,2.34.9,4.33,1.71,6.95.24,2.45-1.37,5.36-1.96,7.14-4.36.97-1.3,1.86-2.71,2.5-4.19.56-1.28-.2-3.16-1.88-5.57-1.68.21-3.53.45-5.13.65-.48,1-.77,1.6-1.06,2.23.93.93,1.9,1.9,2.89,2.88-.36.34-.71.69-1.06,1.02h-2.65c-.73-1.35-1.45-2.68-2.06-3.83.24-.85.46-1.62.71-2.48,1.42-.94,3-1.97,4.91-3.23h4.36c1.03,1.03,2.09,2.09,3.21,3.21v7.4c-2.16,3.62-5.23,6.17-9.11,8.1-3.28,1.63-6.57,1.26-9.64,1.41-1.23-.83-2.28-1.53-3.52-2.37v2.85l1.35,1.35v2.24c.57.57,1.01,1.01,1.52,1.52,0,1.59-.3,3.41,1.02,4.7,1.08,1.06-.07,2.56,1.14,3.71.79.75.77,2.37,1.22,3.98.37.22,1.08.64,1.96,1.16-.71,3.18.47,6.23,1.41,9.31,1.35,4.44,2.42,8.99,3.89,13.36.93,2.75,1.13,5.71,2.47,8.32.16.31.38.66.35.97-.3,2.72,1.16,4.58,3.2,6.21-.59,1.12-1.13,2.14-1.81,3.44.48.52,1.04,1.13,1.65,1.79-.15,2.46-.02,4.91,1.23,7.27.47.88.24,2.14.61,3.13.47,1.43.94,2.85,1.64,4.97-.04-.03.54.43.99.78,0,.99,0,1.74,0,1.62.83,1.9,1.38,3.04,1.85,4.22,1.3,3.33,3.22,6.37,4.22,9.86.47,1.62,1.66,3.07,2.69,4.48,1.19,1.61,1.65,3.57,2.84,5.2,1.92,2.62,3.67,5.41,6.16,7.51,3,2.53,6.23,4.8,9.36,7.18,2.04.04,3.24,1.78,4.97,2.46,1.61.64,3.13,1.52,4.78,1.99,1.57.44,3.28.42,4.6,1.66,1.34.31,2.74-.07,4.15.75,1.52.89,3.43,1.03,5.26.83,3.44-.37,6.73.82,10.17.88,4.07.07,7.96-1.44,11.92-1.22,1.2-.39,2.41-1.07,3.61-1.08,1.59-.02,2.11-2.3,3.87-1.57.78-1.64,2.87-1.12,3.88-2.36.9-1.11,1.77-2.25,2.86-3.65.7.13,1.57.29,3.07.57.18-.09,1-.5,1.84-.91l-1.43-1.43v-3.99c.42-.29,1.13-.78,2.33-1.61h2.56c1.04.73,2.11,1.49,3.18,2.24v3.35c-1.63.96-3.22,1.9-4.46,2.64l1.93,1.93c-.15.16-.31.33-.46.49v5.53c-1.12.76-2.2,1.5-3.52,2.4h-4.53c-.49-.63-1.16-1.49-1.87-2.41-1.73,2.11-3.27,3.98-4.95,6.03v1.12c-.85,1.5-2.83,2.07-3.08,4.05,1.27-.24,2.36-.44,3.31-.62,1.58,1.48,2.26,3.06,1.95,4.94l-1.89,1.89h-3.7c-.63-.63-1.25-1.24-1.87-1.86v-1.87c.25-.25.5-.5.71-.78,0,.01.06.06.11.11.2-.17.41-.35.61-.52l-.24-.24c-.17.2-.35.41-.48.65-.21.28-.46.53-.71.78l-5.99,5.99c-.77.72-2.34.5-2.42,2.04-4.16,2.17-7.14,5.91-11.51,8.47,1.53,1.36,2.86,2.53,4.2,3.71l-.09-.05Zm-226.91-122.64l.15-.15c-.17-.2-.35-.41-.52-.61l-.24.24c.2.17.41.35,2.49,1.31-.51-.57-.66-.85-.76-.84-.36.05-.7.21-1.05.32.45.13.9.26-.07-.27h0Zm-69.39,41.1c.22,0,.43-.03.65-.04-.1-.49-.19-.97-.29-1.46-.16.02-.32.04-.48.07.04.48.08.95.7,1.41l1.5,1.5c.29,1.18,1.08,1.62,1.65,1.5.94.47,1.49.75,2.05,1.03-.13.17-.26.35-.38.52.88-.08,1.76-.17,2.8-.27-.56-.58-.9-.94-1.23-1.28h-2.63v-1.5h-2.25v-1.5c-.62,0-1.06,0-2.08.02h-.01ZM282.32,47.75s-.1.1-.15.15c.17.2.35.41.52.61.08-.08.16-.16.24-.24-.2-.17-.41-.35-.68-.42.12-.13.25-.26.37-.4-.53-.34-1.06-.69-1.76-1.14-.03.5-.06.9-.1,1.43.6.04,1.04.08,1.55,0h.01Zm-186.85,114.21c.12.13.25.26.37.4.44-.03.88-.06,1.48-.11-.04-.52-.06-.93-.1-1.43-.7.45-1.23.8-1.31,1.58l-.15-.15c-.2.17-.41.35-.61.52l.24.24c.17-.2.35-.41.07-1.05h0Zm62.08,108.99c-.51-.57-.66-.85-.76-.84-.36.05-.7.21-1.05.32.45.13.9.26,0-.35v-1.5c-.62,0-1.06,0-1.87.37.13-.13.26-.25.4-.38-.03-.44-.06-.88-.11-1.48-.53.04-.93.06-1.43.1.45.7.8,1.23,1.51,1.39.5.5,1,1,3.31,2.36h0Zm217.61,18.52l-.15.15c.17.2.35.41.52.61l.24-.24c-.2-.17-.41-.35-.68-.44v-1.5h-1.31c-.45-1.08-.88-2.09-1.29-3.06-1.71.43-3.76,1.66-5.3,3.1-.09.08-.21.16-.25.27-.03.06.07.17.11.26.06-.01.13-.03.19-.04.16.67.31,1.34.3,1.31l2.25,2.25c.03-.6.07-1.43.11-2.22.62-.64,1.22-1.26,1.81-1.86h1.88c.5.5,1,1,1.57,1.42h0Zm-295.1-49.24l.15-.15c-.17-.2-.35-.41-.52-.61-.08.08-.16.16-.24.24.2.17.41.35.37.53.68.6,1.24,1.09,2.11,1.86.24-.81.37-1.25.55-1.86-.98,0-1.66,0-2.42,0h0Zm6.06-1.57h1.5c0-.87,0-1.56.09-2.36.47-.57.47-1.28,0-2.11,0,.84,0,1.53-.09,2.22-1.18.29-1.62,1.08-1.68,1.96-.68.44-1.36.88-2.31,1.5,1.73.63,2.06-.38,2.49-1.21Zm-5.37-32.13c-.6.29-1.32.65-2.25,1.1.72.45,1.35.83,2.25,1.39,0-1.12,0-1.83.13-2.54l.75-.75c1.74-.47.01-2.19,1.05-2.92.88-.16,2.05-.84,2.45-1.7h3.89c-.14-.18-.28-.36-.43-.54l1.39-.35c-.1-.13-.2-.26-.3-.39h-3.28c-.33.33-.68.68-1.03,1.4h-3.74v4.49c-.25.25-.5.5-.88.8h0Zm-10.42-6.7s.1-.1.15-.15c-.17-.2-.35-.41-.52-.61l-.24.24c.2.17.41.35.66.54.03.36.07.81.1,1.24h2.17c-.05-.49-.08-.82-.11-1.24-.75,0-1.45,0-2.2-.02h-.01Zm21.03-33c-1.28-.06-2.58-.16-2.75,1.62h-4.64c.14.18.28.36.42.54-.47.12-.93.23-1.4.35.1.13.2.26.3.39h4.03c.33-.33.68-.68,1.03-1.4h2.99v-1.5l1.5-1.5h1.35c.13,1.18.23,2.1.34,3.12h3.35c-1.05.48-1.51.69-1.96.9v2.15c1.32,1.05,2.42,1.93,3.51,2.8.37,0,.79.11,1.1-.02,1.28-.54,1.38-2.35,2.88-2.73.27-.07.49-.51.64-.82.1-.2.06-.49,0-.73-.06-.33-.19-.64-.28-.93h-2.7v-1.69c.55.44.8.64,1.05.84.64-.36,1.3-.73,2.22-1.24-.39-.84-.77-1.66-1.16-2.51h-1.92c-.18-.55-.33-.98-.42-1.27h-2.33c-.59.88-1.04,1.54-1.68,2.48-1.07-.58-2.05-1.11-3.11-1.68-.23.35-.56.83-.88,1.32h-1.5v1.5h.02Zm-7.51,104.87c.03.36.07.81.1,1.24h2.17c-.05-.49-.08-.82-.11-1.24-.75,0-1.45,0-1.48-.19-1.76-.72-2.72-1.99-4.42-1.1.05.37.1.7.15,1.1,1.25,0,2.43,0,3.59.19Zm25.98-98.88c1.33,0,2.41.02,3.49-.02.17,0,.33-.28.5-.43-.01-.24-.02-.47-.04-.86-1.4-.36-2.72-.49-3.71,1.3-1.28-.06-2.58-.16-2.89,1.39-2.89.56-3.71,2.8-4.64,4.75.79,1.29,1.68,1.71,2.89,1.12-1.75-2.58.78-3.93,1.65-5.76,1.28.06,2.58.16,2.75-1.5h0Zm-43.78,23.22c.23,0,.46-.02.69-.02-.1-.74-.19-1.47-.29-2.21-.17.02-.33.03-.5.05.03.73.07,1.45.82,2.54v4.1c.8-.83,1.49-1.54,2.01-2.09-.71-.71-1.39-1.39-2.73-2.38h0Zm43.27-28.21c1.28-.38,2.5-.75,3.81-1.14-.1-1.02-.18-1.9-.26-2.77h-.39c-.1.69-.21,1.38-.31,2.08-1,.1-1.93.2-2.84.29,0,.45,0,.7.01,1.92,0-.23-.02-.46-.02-.69-.74.1-1.47.19-2.21.29.02.17.03.33.05.5.73-.03,1.46-.07,2.17-.48h-.01Zm-33.66,90.65c-.17,2.25.5,3.69,2.08,5.12.38-2.22-.63-3.48-2.06-3.91-.32-4.21-1.09-5.25-3.27-4.8.95,1.39,1.86,2.72,3.24,3.58h0Zm-10.84-4.81c1.16,1.04,2.14,1.92,3.35,3-.06-1.17-.11-2.09-.15-3-1.13,0-2,0-2.85-.15-1.42-1.31-2.9-2.69-4.44-4.12v2.49c1.67.14,2.35,2.69,4.1,1.78h-.01Zm37.13-111.43v2.04c.36.06.59.1.97.16.41-.86.83-1.74,1.37-2.87-1.01.29-1.73.49-2.87.87.58-1.27,1.05-2.32,1.66-3.65.89.74,1.55,1.28,2.33,1.92.4-.78.7-1.35,1.12-2.17h-5.98c.28,1.27.55,2.46,1.39,3.69h0Zm-18.1,142.32c2.49-1.76,3.29-4.68,5.2-6.7.29-.3.04-1.11.04-2.16-2.61,2.53-3.19,5.71-5.22,7.93-.12.13-.02.48-.02.72-1.47.4-2.06,1.17-1.75,2.31,1.18-.34,1.93-.96,1.75-2.11h0Zm74.11,3.66h-2.86c-.45.51-.85.97-1.33,1.51h-3.26c-.31.64-.59,1.21-1.05,2.15,3.57-.16,5.76-2.48,8.69-3.49.68-.44,1.36-.88,2.31-1.5-1.73-.63-2.06.38-2.49,1.32h0Zm-29.39-124.32c1.18,0,2.19-.12,3.14.04.88.15,1.72.6,2.48.88,2.25-2.29,2.61-3.25,1.58-3.92-.24.02-.47.04-.86.08-.1.65-.2,1.32-.36,2.37-1.05-.34-1.98-.73-2.94-.92-1.13-.23-2.17.03-2.73,1.4-1.12.09-2.1.18-3.72.31,1.52.62,2.41.98,3.43,1.4.11-.61.16-.94-.02-1.64h0Zm-77.7,103.04c-3.48.92-3.03,4.86-5.06,6.54v3.35c.13,0,.26.02.39.02.1-.88.19-1.75.2-1.81.99-1.91,1.64-3.13,2.25-4.37.62-1.26,2.57-1.66,2.24-4.07,0,.19-.03.37-.04.56.75,0,1.51-.11,2.23.03.7.13,1.36.51,2.37.92-.1-.84-.15-1.25-.18-1.5-1.59,0-2.99,0-4.4.33ZM194.83,41.75c2.96.49,4.06-1.67,6.01-2.47-.97-.81-1.79-1.48-2.62-2.17-.61.94-1.03,1.64-1.51,2.29-.48.66-1.01,1.27-1.31,2.44-.25.25-.5.5-.75.86-1.14-.34-2.24-.67-3.35-1-.75,2.5-2.72,3.3-4.81,4.12.64,1.47-2.44,1.72-1.18,3.65,3.14-2.28,6.18-4.48,9.35-6.88.25-.25.5-.5.17-.84h0Zm75-31.42c-1.83.52-3.41,1.72-4.78,3.49v2.22c.37.37.72.72,1.06,1.06,1.2-2.2,2.41-4.39,3.6-6.4.68-.44,1.36-.88,2.31-1.5-1.73-.63-2.06.38-2.19,1.12h0ZM123.01,173.54c-.39-1.28-.75-2.5-1.14-3.8-1.3.08-2.45.16-3.61.23.06.54.08.78.13,1.28h2.7c.18.94.31,1.63.43,2.28h1.26v4.06c-2.16,1.39-4.07,2.62-5.99,3.85,0,.34,0,.71.87,1-3.93.31-5.12,1.13-7.66,5.08,2.63-1.75,4.74-3.15,6.79-5.01.37,0,.85.15,1.09-.02,2.17-1.6,4.31-3.26,6.24-4.74-.22-1.36-.37-2.5-.62-3.63-.05-.24-.47-.39-.5-.59h.01Zm-46.63,40.81l-.03-.51h-2.26c.05-.7.01-1.3.16-1.85.13-.5.47-.94.86-1.65h-4.98c.97.97,2.05,1.59,2.35,2.47.34,1,.22,2.12,1.54,2.69.73-.36,1.55-.76,2.27-1.62.05.05.1.1.15.15.2-.17.41-.35.61-.52-.08-.08-.16-.16-.24-.24-.17.2-.35.41-.43,1.07h0Zm21.08,40.27v4.15c.29-.24.58-.48.87-.71,0,.57,0,1.14-.01,2.12,1.04-2.4.06-3.69-1.03-5-.73-1.96-.93-4.18-2.35-5.72-1.53-1.65-1.69-4.08-3.48-5.59-.51.07-1.06.14-1.59.21,1.39,2,2.84,3.74,3.89,5.7,1.03,1.92,1.81,3.95,3.7,4.86v-.02Zm-34.58-10.33c.09-3.66-.62-7.19,1.87-9.85.65-.46,1.27-.9,2.3-1.62h-3.11c-.63,1.24-1.19,2.36-1.69,3.33,0,2.58,0,5.03,0,7.49,0,.09.16.18.62.2v2.14c1.58,1.25,3.26,2.59,4.74,3.76h7.57c-.67-.68-1.07-1.08-1.38-1.39h-6.27c-1.45-1.4-2.94-2.85-4.67-4.06h0Zm217.17-178.49h.86c1.02-1.31,1.97-2.51,2.89-3.7-.4-.8-.77-1.52-1.1-2.19h-1.2c-1.3,1.1-2.21,1.86-3.13,2.63.61,1.19,1.14,2.21,1.71,3.32-.05-.05-.1-.1-.15-.15l-.61.52c.08.08.16.16.24.24.17-.2.35-.41.49-.68h0Zm-198.44,192.18c.04-1.22.13-2.61-1.72-2.87-1.63.94-1.4,2.3-1.07,3.88,1.03-.37,1.88-.69,2.8-1.03-.04,1.5-.14,2.89,1.92,3.2.74-.93,1.53-1.92,2.51-3.16h2.31c-.05-1.05-.09-1.96-.12-2.76h-2.73c-.15.79-.27,1.47-.35,1.89-1.35.32-2.47.58-3.56.85h.01Zm-32.18,25.39c.06-1.23-.58-1.96-1.78-2.06.59.68,1.22,1.42,2.01,2.12,1.12,1.12,2.31,2.31,3.6,3.59,3.75-3.94,7.82-8.21,11.88-12.49.05-.06-.01-.23-.04-.57-.69.28-1.37.56-1.7.7-1.35,2.29-3.23,3.68-4.81,5.34-1.69,1.77-3.46,3.47-5.13,5.15-1.44-.65-2.69-1.21-4.02-1.78h0Zm29.94-136.74c1.1-.62,2.27-1.05,3.19-2.02,1.63-1.72,4.06-2.34,5.79-4.02,2.69-.82,5.4-1.65,8.67-2.64-3.46-.82-6.03.29-8.67.71v1.99c-1.19-.27-2.38-.54-3.67-.83-.04.72-.02,1.08-.08,1.43-.05.3-.19.59-.32.96-.83-.95-1.64-1.16-2.63-.48-1.34.92-2.78,1.7-4.05,2.71-.54.43-.75,1.29-1.04,1.82.62.9,1.2,1.73,2,2.88.32-.99.56-1.74.81-2.49v-.02Zm206.77-113.74h.97c.54-1.39,1.08-2.77,1.79-4.58v-8.96h-3.06c.39-1.09.67-1.89,1.02-2.86h-1.58c.67,2.29-1.83,2.89-2.51,4.91,1.11.51,2.12.97,3.22,1.47.28.85.61,1.83,1.02,3.07-1.13,1.02-2.22,2.01-3.36,3.04.83,1.3,1.64,2.57,2.42,3.97-.05-.05-.1-.1-.15-.15-.2.17-.41.35-.61.52.08.08.16.16.24.24.17-.2.35-.41.59-.68h0Zm79.2,266.77c-.36-.36-.82-.66-1.05-1.08-.46-.85-.78-1.77-1.19-2.65-.77-1.67-1.56-3.34-2.27-4.86h-3.06c-.23.36-.63,1-.9,1.43-1.1.06-1.93.1-2.74.14v4.01c2.04,1.94.91,5.42,3.83,7.38,2.29-.61,4.87-1.29,7.39-1.96v-2.43.02ZM89.41,220.03c-.46-.91-.82-1.63-1.12-2.24h-2.76v3.11c1.35-.3,2.48-.56,3.26-4.6,1.65,1.74.88,3.39.04,5.05-.57.06-1.16.13-1.86.21v2.66c.24.06.66.03.89.23.85.7,1.63,1.48,2.45,2.24.58-.03,1.16-.05,1.71-.08.06-.85.1-1.44.14-1.99,2.47-.52,2.64-.9,3-2.08.27-.87-1.51-1.15-.29-2.16.44-.36.17-1.59.25-2.71-1.03-.37-2-.71-2.36-.84-.97-1.06-1.56-1.69-2.34-2.53-.58.7-.96,1.16-1.03,5.73h.02Zm99.26-133.29l-.37.36c.6.23,1.2.46,1.8.69-.13.15-.25.29-.38.44h10.45c.5,0,1.06.15,1.49-.02,4.11-1.61,7.56-4.26,10.92-7.05.24-1.8,2.06-2.34,2.67-3.79,1.09-2.02,2.17-4.04,3.26-6.07-3.54-2.68-7.3-4.02-11.36-4.02h-2.99c-3.01-.02-5.84.56-8.44,2.22-1.46.93-3.07,1.62-4.6,2.44-3.2,1.71-5.24,4.34-6.21,7.83-.36,1.28-.88,2.52-1.32,3.76,1.09,1.09,2.15,2.15,3.21,3.21h1.87Zm60.52,87.27c.27-.54.63-1.26,1.13-2.27,3.64,1.36,6.68-.95,10.07-1.39.42-.89,2.01-1.11,1.47-2.81-4.37,1.37-8.7,2.73-13.35,4.19-.13.15-.5.58-1.13,1.31.74.4,1.28.69,1.98,1.55-.08,2.98-1.98,5.21-4.26,7.23-.89-.05-1.71-.1-3.07-.17.85-1.05,1.29-1.75,1.89-2.29.63-.57,1.41-.99,1.57-1.1v-4.45c-8.21-5.21-8.81-3.84-16.65-3.99-1.67,1.14-3.2,2.47-4.69.95-2.15.29-3.63,1.54-5.47,1.25-1.3-.2-2.51.31-3.37.87-1.37.91-2.67,1.41-4.3,1.47-.53.02-1.04.81-1.54,1.23.93,1.4,1.71,2.57,2.43,3.66-.3,4.5,2.16,8.48,1.36,13.13,1.95,0,3.71-.44,5.09.09,2.93,1.12,5.94.74,8.73.37,2.9-.39,5.74-1.41,8.75-1.34.46,0,.96-.08,1.39-.25.97-.37,1.87-1.01,2.86-1.19,1.21-.21,2.49-.02,3.73-.06.58-.02,1.16-.19,1.73-.32,2.07-.44,4.09-1.62,6.23-1.11,2.41.57,3.89-1.84,6.12-1.55.25.03.5,0,.75,0,.53.5,1.06,1.01,1.4,1.34h3.42c.3-1.17,1.11-2.65.73-3.1-1.1-1.28-.31-2.64-.58-3.46-.67-1.29-1.15-2.22-1.55-2.98.6-.6,1.12-1.12,1.39-1.39v-4.66c-.94.05-1.94-.19-2.58.18-2.19,1.25-4.51,1.47-6.93,1.35-.75-.04-1.33.21-2,.62-.51.31-1.51-.15-2.73-.9h-.02Zm-31.27-93.19c-.15,1.66.07,2.81,1.56,2.94.92-1.14,1.72-2.15,2.37-2.95h3.09c.52.82.95,1.51,1.48,2.35.4-.51.7-.89,1.19-1.53-.17-2.01.6-4.53-1.62-6.61v-3.1c-2-.54-2.24-2.43-2.79-3.73-1.85-4.34-.55-8.52,1.69-12.73-1.47-.61-2.74-1.17-4.03-1.65-1.41-.51-2.51-1.71-4.24-1.55-1.65.15-3.15-1.14-4.93-.73-.71.17-1.66.31-2.21-.02-2.2-1.35-4.56-.54-6.83-.66-2.38-.12-4.84-.47-6.91,1.4-.41.37-1.45.05-2.19.05-1.49,1.24-2.99,2.44-4.45,3.71-2.21,1.92-3.9,4.38-6.54,5.86-.88.49-1.56,1.54-2.09,2.46-2.01,3.52-4.01,7.05-5.84,10.67-.7,1.38-1.75,2.85-.3,4.62.49.6.52,2.25.04,2.84-1.02,1.28-.6,2.58-.64,3.87-.18,4.9,1.25,9.72.75,14.65-.14,1.35-.02,2.73-.02,4.06l1.04,1.04c1.35-.98,2.57-2.45,4.06-2.8,2.49-.58,3.38-2.46,5.17-4.38-1.18-.12-1.84-.19-2.53-.26-.39,1.55-1.05,2.61-3.12,2.2-.31-.6-.73-1.4-1.05-2.01,1.2-1.2,2.15-2.14,3.09-3.08h2.98c1.25,1.18,2.14,2.02,3.09,2.92.06,2.69-2.39,3.9-4.01,6.06,1.19,1.53,2.41,3.09,3.58,4.58,8.14-2.27,12.94-7.84,16.93-14.47-.86-1.21-1.73-2.44-2.97-4.17v4.84h-3.17v-3.5h-1.41v3.59h-3.04v-3.84c-.44.37-.7.48-.78.67-.25.64-.34,1.37-.68,1.96-.34.57-.92,1-1.45,1.55-.79-.57-1.35-.98-1.64-1.19.39-1.8.65-2.99.91-4.19-.85.42-1.48,1.01-1.47,1.6,0,1.08-.59,1.63-1.34,1.98-.46.22-1.14-.03-1.65-.06-.4-1.9,1.52-3.33.16-5.4-.52,1.23-.95,2.24-1.28,3-.67.38-1.15.65-1.59.9-1.1-.65-1.44-1.57-.9-2.74.47-.16.89-.31,1.27-.44v-.99c-.67-.12-1.36-.23-2.3-.39.28-1.26.66-2.48.79-3.71.14-1.34.03-2.71.03-3.38.76-1.78,1.26-2.95,1.76-4.11,1.9-3.35,4.79-5.87,7.96-8.02,3.07-2.09,6.74-2.97,10.96-4.53,1.38,0,3.62.03,5.86,0,2.18-.04,4.16.4,6.15,1.43,1.82.94,3.96,1.27,6.31,1.97.37.42,1,1.13,1.58,1.79-.37.58-.59.94-.79,1.25l3.88,1.94c-1.22.45-1.82.68-2.42.9.13.12.25.24.38.37-.88.1-1.76.2-2.71.31.95,1.09,1.73,1.99,2.46,2.83-1.38,1.91-2.73-1.02-4.15.54.8.97,1.6,1.93,2.54,3.06-1.08.06-1.92.11-2.32,3.27-1.51-.27-2.96-.54-4.47-.81-.14,1.83,1.66,2.14,2.17,3.31-.35.35-.7.7-.97.97-1.93.54-2.56-.76-3.03-2.12-.46.41-.82.74-1.37,1.23.64.48,1.23.93,1.74,1.32-.07.77-.13,1.35-.17,1.78h-2.74c-.13-.8-.24-1.48-.35-2.13-.46.02-.7.03-.95.05-.93,1.12.09,1.96.39,2.92.13.43.02.93.02,1.46h-1.97c-.48-1.07-.66-2.44-2.44-2.09v4.23c.32.07.66.15,1.06.25,1.34,1.84,1.87,4.19,2.46,6.33,1.04,3.73-1.39,6.86-3.92,9.05-3.78,3.28-7.93,6.22-12.58,8.3-.21.1-.36.34-.48.46v1.75c.85.37,1.59.68,2.33,1,1.32-1.04,2.5-2.26,4.42-2.3,2.13.94,2.86,3.21,3.46,5.05.46,1.41,1.18,2.24,2.05,3.14,2.47-1.94,4.95-3.82,7.34-5.82,1.33-1.12,2.31-2.74,3.77-3.6,1.52-.89,2.05-2.47,3.3-3.52,2.19-1.86,4.38-3.84,5.47-6.74-.06-1.14-.12-2.28-.2-3.7-1.35,1.56-2.77.77-4.23,1.06-.9-1.4-1.78-2.78-2.77-4.32,1.28-1.73,2.41-3.25,3.43-4.64h3.56v2.58c-1.32.48-2.4.88-3.5,1.28v1.92h3.22c2.93-3.21,3.02-7.06,2.53-11.18-.74.11-1.34.14-1.9.29-.67.18-1.3.47-2.07.76-.93-1.29-1.77-2.44-2.59-3.58,0-1.4,0-2.77-.7-7.05h-.03Zm-4.4,138.32c-1.7.93-3.06,1.59-4.35,2.39-2.34,1.45-4.49,3.13-6.59,4.93-2.35,2.02-4.96,3.75-7.27,5.87-3.34,3.06-5.56,7.04-8.71,10.24-.25,2.11-2.33,2.9-3.3,4.6-1.96,3.43-4.49,6.51-6.32,10.1-1.67,3.29-3.68,6.43-5.18,9.83-.37.84-.67,1.72-1.07,2.55-.99,2.08-1.96,4.18-3.04,6.22-1.79,3.37-2.37,7.23-4.38,10.54-.56.93-2.11,1.53-1.59,3.06-1.31,2.45-2.62,4.9-3.92,7.35-.24.45-.43.94-.76,1.69,3.14,0,5.89-.24,8.58.07,2.55.3,5.16.51,7.63,1.4.55.2,1.37.26,1.84-.01,2.2-1.25,4.55-.66,6.82-.68,10.6-.07,21.19-.1,31.79,0,3.76.04,7.54-.52,11.31.62,1.71.52,3.72-.02,5.58.12,1.65.12,3.25-.18,4.99.57,1.57.68,3.68.06,5.55.17,1.41.08,2.77-.19,4.25.59,1.03.55,2.72-.16,4.33-.32.54.12,1.32.47,2.08.42,4.01-.24,8.1.75,11.88-.64,4.96,2.83,9.9.99,14.69.51,4.07-5.94,6.21-12.59,9.08-19.28.07-.68.06-1.79.32-2.84.28-1.11,1-2.12,1.2-3.23.21-1.21.04-2.48.05-3.73,0-.96.46-1.86.62-2.7.43-2.34,1.19-4.66.92-7.15-.23-2.09-.54-4.39.07-6.31.81-2.56.42-5.01.65-7.41-1.72-1.63-3.47-1.19-5.25-.71-1.57.43-3.04,1.46-4.76,1.13-1.88-.37-3.61.4-5.26.9-.91.28-1.77.6-2.72.61-1.37.02-2.74,0-3.86,0-.83.43-1.44.75-2.14,1.11,2.72,2.72,5.39,5.48,8.16,8.13,1.76,1.68,3.03,3.67,4.21,5.74.09.16.15.34.36.8-.92.3-1.77.58-2.5.82-1.27-2.05-2.35-3.85-3.5-5.6-.21-.31-.99-.3-1.12-.6-.75-1.73-2.51-2.39-3.74-3.59-4.5-4.38-8.76-9-13.58-13.1-5.39-4.58-10.16-9.87-15.76-14.3-3.11-2.46-6.28-4.9-9.34-7.45-1.11-.92-2.36-2.47-4.43-1.99-.52.12-1.31-.91-1.92-1.36-1.59-.22-3.2.34-4.65-.75-.4-.3-1.44-.31-1.8,0-1.43,1.24-3.08.43-4.13.66h-.02Zm71.86-77.96c-.51-1.52-.62-2.68-1.24-3.44-.74-.91-1.29-1.7-1.16-2.92.15-1.31-2-1.59-1.48-3.12-1.94-4.31-3.45-8.81-5.33-13.13-1.48-3.39-3.69-6.48-5.77-9.57-1.05-1.56-1.27-3.6-3.11-4.74-1.76-1.1-2.58-3.11-3.76-4.77-.39-.56-.79-1.11-1.41-1.97-2.1,2.64-4.78,2.93-7.64,2.69-1.11-.09-2.23-.01-3.08-.01-1.27-.91-2.47-1.54-3.37-2.46-.9-.93-1.99-1.65-2.58-3.02-.55-1.28-1.8-2.52-3.06-3.15-1.26-.63-1.35-2.15-2.6-2.59-1.39.25-2.81.41-4.17.78-.76.21-1.52.66-2.11,1.19-1.47,1.34-3.27,2.58-4.14,4.27-.93,1.81-1.84,3.71-2.62,5.64-.69,1.68-.53,3.3-.69,4.96-.15,1.65-.62,3.28-.7,4.93-.12,2.61-.03,5.22-.03,7.1.67,1.72,1.44,2.81,1.41,3.87-.04,1.43.33,2.78,1.1,3.66,1,1.15-.02,2.57,1.15,3.73.96.96,1.14,2.71,1.68,4.16,1.12-.16,2.44,0,2.69-.44.87-1.54,2.66-.94,3.77-1.99.94-.89,2.52-1.07,3.75-1.68,1.25-.61,2.8-.7,3.66-2.02,2.99-.58,5.64-2.05,8.38-3.26.53-2.92-.79-6.12,1.32-8.8.04-3.37,2.15-5.47,4.54-7.4.37,0,.84-.15,1.11.02,1.87,1.22,3.82,2.37,5.53,3.8,2.93,2.47,3.26,4.38,1.7,7.89-.07.15-.41.18-.86.35-.23-.44-.52-.99-.81-1.54-.13.12-.27.25-.4.37v-3.76c-1.67-2-4.19-2.41-6.15-3.64-.8,1.18-1.4,2.06-2.05,3.03-.5,2.7.67,5.68-.74,8.53-.4.8-.42,2.18.01,2.92.97,1.64.54,3.31.67,4.97.04.49-.11,1.08.12,1.44,1.24,2.03,1.53,4.23,1.39,6.54-.02.34.07.71.17,1.05.42,1.32.94,2.61,1.29,3.95.33,1.25.6,2.52.74,3.8.16,1.42,1.02,2.64.85,4.18-.09.8.63,1.68.95,2.47h2.34c2.4-.92,4.22-1.4,5.82-2.28,1.75-.96,3.81-.82,5.52-2.11,1.41-1.06,3.4-1.35,5.09-1.96.62-.46,1.29-.96,2.67-1.98-2.03.17-3.39-.08-4.35.43-4.11,2.15-8.77,2.96-12.8,5.25-1.07.61-2.03.47-3.07.18.27-2.21.92-3.28,2.93-3.43,2.68-.2,4.76-1.85,7.25-2.44,2.13-.5,3.92-1.88,6.21-2.23,1.87-.29,3.6-1.5,5.44-2.32l.03.02Zm-32.8,73.95c1.2-.39,2.4-1.1,3.6-1.11,1.69,0,2.91-.85,4.41-1.66h3.43c.52-.53.96-.97,1.39-1.41h3.75c1.04-1.14,2.36-1.67,3.87-1.48,1.81.23,3.18-.71,4.59-1.5,2.28-.12,4.7.5,6.41-1.39,1.45-.14,2.93.06,4.08-.46,2.04-.92,4.07-1.28,6.26-1.17.61.03,1.3.12,1.82-.11,2.43-1.08,4.95-1.57,7.55-1.35,1.09-3.32-1.75-5.83-1.29-8.86.04-.29-.21-.67-.41-.94-1.26-1.66-.81-3.89-1.83-5.6-.86-1.44-.69-3-.93-4.49-1.33-3.22-2.33-6.54-3.09-10.21-.66.3-1.26.57-2.13.97-1.26-.9-2.68-1.91-4.18-2.97v4.5c-1.04,1.1-1.9,1.99-2.73,2.87-1.73-1.04-3.42-2.06-5.08-3.06-1.8,1.12-1.2,3.84-3.24,4.51h-2.37c-.48-.73-.93-1.42-1.58-2.43-.92,2.03-1.68,3.71-2.45,5.4h-2.63c-1.55-2.95-1.89-3.15-4.1-2.31.48.93.96,1.86,1.46,2.81v4.38c-1.22,1.29-2.25,2.37-3.24,3.42h-3.06c-.24,0-.5,0-.73-.04-3.82-.9-3.8-.82-7.64,0-1.98.43-4.03.71-6.04.73-1.96.02-3.72.55-5.48,1.26-.64.26-1.35.34-2.01.5-.43,1.83.18,3.31,1.4,4.75-.67,2.77,1.37,5.03,1.89,7.69.52,2.68,1.83,5.22,2.58,7.24.84,1.17,1.41,1.96,2.02,2.81,1.77-1.6,3.69-.79,5.73-1.32v.02Zm63.35,80.2c2.24-3.3,2.05-7.42,5.25-9.78,3.06,2.25,3.46,6.34,6.47,8.41.91-3.55,2.22-6.85,4.62-10.02.79.46,1.72.69,2.13,1.29.97,1.43,1.61,3.08,2.54,4.54.77,1.21,1.16,2.8,2.93,3.47v-3.41c1.01-1.64,1.85-3.32,2.23-5.1.33-1.57,1.11-2.03,2.52-1.92,2.26,1.25,2.54,4.66,5.68,5.34v-4.5c.54-.38,1.14-.81,1.51-1.07.09-1.16.15-1.98.18-2.35,1.09-1.61,2.28-1.05,3.6-1.14,1.65,2.11,3.38,4.33,5.03,6.45.85-3.2,1.74-6.55,2.72-10.21-2.24-.39-4.26-.53-6.13-1.13-1.92-.61-3.77-1.36-5.75-1.38-1.88-1.19-4.1-1.62-6.01-2.72-1.4-.81-2.94-1.36-4.32-2.2-2.8-1.71-5.8-3.22-8.21-5.38-2.89-2.6-5.92-5.12-8.07-8.52-2.12-3.36-4.63-6.44-6.41-10.05-.69-1.39-.79-3.35-2.48-4.22.84-1.97-1.14-3.01-1.57-4.59-.59-2.17-1.66-4.21-2.56-6.37-.53.24-.84.37-1.28.57,1.12,2.74,2.2,5.41,3.27,8.04-.6.64-1.11,1.17-1.62,1.7,0,1.38-.4,2.92.11,4.07.58,1.31.55,2.54.65,3.85.1,1.27.29,2.54.49,4.25-.03.06-.45.58-.48,1.12-.29,5.62-.55,11.25-.76,16.88-.08,2.22-.01,4.44-.01,6.49-.62.6-1.06,1.04-1.5,1.47v5.25c-.95,1.54-1.42,3.06-1.41,4.55,3.43,1.54,4.61,4.88,6.64,8.36v-.04Zm-142-82.22c-.93.05-1.77-.16-2.08.15-2.41,2.38-5.84,2.98-8.8,5.01,1.4.1,2.34.42,3.42-.37,1.68-1.23,4.16-.76,5.71-2.45,4.18-1.2,7.9-3.31,11.45-5.79,2.21-1.55,4.32-3.45,6.78-4.39,2.7-1.03,4.77-2.64,6.69-4.62,2.91-2.98,4.2-6.17,2.94-10.6-1.14-3.98-2.41-7.75-4.84-11.28-.71,0-1.53.22-2.15-.04-2.58-1.06-5.21-1.62-8-1.48-.55.03-1.12-.28-1.69-.42-1.59-.38-3.15-.88-4.77-1.2-1.78-.35-3.51-.63-5.06-.59-.8.7-1.45,1.27-2.1,1.83.49.49,1.09.85,1.34,1.38.69,1.46,2,2.32,3.33,2.68,2.36.63,4.34,2.31,6.9,2.39.47.02.91.97,1.28,1.41-4.58,4.57-8.97,8.97-13.64,13.63h-20.82c2.17.41,3.74,2.51,6.12,2.1,1.43,1.67,3.76,1.07,5.47,2.19,1.04.69,2.38.99,3.77.84,1.47-.16,2.97-.04,4.4-.04l1.12,1.12v1.5c-.35.35-.71.7-.89.88-1.36.26-2.57.35-3.68.73-2.95,1.02-5.88,2.09-8.92,3.06,2.44.19,5.06.73,7.3.05,2.83-.86,5.51-.31,8.5-.71.32,1.06.58,1.91.91,3.01v.02Zm57.3-52.7c-.92,1.29-1.85,2.6-2.65,3.73.63.95,1.15,1.74,1.76,2.67,1.54,0,3.29.15,5-.04,1.71-.19,3.26,1.85,5.02.3-.64-1.63-1.09-3.3-2.22-4.71-.47-.59-.72-1.5-.75-2.28-.07-1.82-.73-3.39-1.51-4.99-.75-1.55-1.66-3.15-1.86-4.8-.23-1.96-1.2-3.61-2.03-5.14-1.24-2.28-1.49-4.83-2.66-7.14-1.22-2.42-2.46-5.04-3.07-7.65-.86-3.68-2.74-6.92-3.67-10.61.04,2.25-.54,4.25-1.54,6.16-.21.4-.11.95-.17,1.42-.25,2.01-.05,4.24-.88,5.97-.69,1.44-.11,2.92-.83,4.14-1.21,2.06-1.4,4.27-1.28,6.28-.74,1.55-2.12,2.64-.96,4.81,1.12-1.14,2.11-2.15,3.27-3.32.75,1.75,1.53,3.54,2.29,5.32-.32.37-.56.64-.75.85.31.63.61,1.24.9,1.85,1.75-1.21,3.68-.38,5.44-.66.91,2.11-.48,3.48-1.11,5.11,1.23.42,2.42.83,3.37,1.15.37.67.65,1.17.87,1.58h.02Zm-152.59,3.83c2.72,1.16,2.69.95,6.83.38,4.07-.56,6.68-2.97,8.86-6.04,1.14-1.6,1.96-3.42,3-5.26-.03-3.86,2.55-8.11-1-11.89-.79.48-1.56,1.35-2.32,1.34-3.05-.04-5.2,1.93-7.71,3.1-5.48,2.54-7.43,7.45-7.65,12.49-.09,1.97-.01,3.96-.01,5.89h0Zm178.55,51.94c-1.51,1.47-3.44,1.11-5.07,1.65-1.63.53-3.11,1.57-5.26,1.27,1.36,1.49.54,4.29,3.71,3.77.28-.4.71-1,.92-1.29,1.51-.16,2.9.11,3.62-.46,1.84-1.45,3.86-1.13,5.81-1.2,1.14-1.12,2.42-1.64,3.96-1.5,1.62.14,3.11-.19,3.94-1.12,6.89-1.24,13.42-2.41,20.04-3.59.36-.36.8-.8,1.27-1.27,1.47,0,2.96.02,4.45,0,.59,0,1.38.07,1.74-.26,1.97-1.79,4.37-1.01,6.55-1.27.92-.6,1.8-1.18,2.58-1.69v-2.42c-.12.12-.25.23-.37.35-.25-.59-.49-1.18-.69-1.65-3.49,1.04-6.54,2.14-9.72,1.7-1.65,1.61-3.58,1.61-5.52,1.51-1.85-.09-3.63-.02-5.07,1.57-3.43-.95-6.31,2.03-8.92,1.55-1.94.61-3.14,1.27-4.36,1.3-1.37.03-2.61.3-3.79.85-1.55.71-3.49.23-4.77,1.08-1.67,1.11-3.35,1.12-5.04,1.14h0Zm2.88-124.98h4.08c1.43-.75,2.46-1.28,3.85-2.01,1.79-1.75,3.93-3.84,5.71-5.58.39-1.31.85-2.21.86-3.1,0-.84-.48-1.69-.76-2.59-.76-.33-1.6-.7-2.36-1.03-1.85.66-3.4,1.43-4.28,3.17.7,1.14,2.38,1.8,1.43,3.48h-3.23c-.41-1.11-.73-1.98-1.03-2.82.31-.85.63-1.73,1.15-3.17,1.12-.9,2.65-2.28,4.34-3.43,1.58-1.08,2.57-2.77,4.67-3.66-.59-.95-1.07-1.61-1.42-2.32-.39-.79-.67-1.63-1.37-3.4-.73,2.65-2.78,2.21-3.87,3.04-.89-.24-1.66-.45-2.45-.67-1.27,2.14-3.92,2.77-4.44,4.4.59,3.38.47,6.1.29,8.74-.2,2.9-.79,5.78-2.33,8.3.39.89.72,1.62,1.16,2.64h0Zm34.86,194.96c2.08-1.69,1.47-4.24,2.15-6.31.64-1.94,1.37-4.13.93-6.38-.11-.56.02-1.22.21-1.77.35-.97,1.03-1.86,1.2-2.85.21-1.21.05-2.48.05-3.73,0-.49-.12-1.05.06-1.47,1.01-2.32.94-4.85,1.4-7.26.31-1.63-.45-3.43.78-4.92v-19.07c-1.65-3.1-1.52-6.64-2.07-9.94-.42-2.56-1.24-5.11-.98-7.68h-3.83c.32,1.77.69,3.36.86,4.98.15,1.42-.07,2.84.74,4.19.89,1.48.84,3.21.79,4.9-.04,1.37-.52,3.08.11,4.04,1.04,1.59.11,3.22.7,4.6.65,1.52.68,3.02.68,4.58v14.96c0,.74.27,1.76-.11,2.17-1.23,1.34-.05,3.03-.71,4.21-.87,1.54-.57,3.05-.67,4.59-.09,1.42.07,2.8-.67,4.22-.63,1.19-.76,2.74-.79,4.14-.06,3.36-1.13,6.47-2.11,9.61-.59,1.88-.62,4.01-2.38,5.37.43,2.36-1.63,3.82-2.1,5.86-.04.15.11.35.13.42h2.77c-.66-2.3,1.45-3.61,1.58-5.8.11-1.84,1.81-3.56,1.26-5.66h.02ZM230.68,54.47c-5.93,2.44-5.48,7.52-5.3,12.22.7,1.35,1.03,2.75,1.91,3.56,2.03,1.86,2.83,4.08,2.54,6.95,1.4-.93,2.47-1.63,3.73-2.47h2.63c.42-.4.78-.74,1.31-1.24-.3-.82-.61-1.68-.83-2.29.25-1,.87-2.11.57-2.5-1.21-1.56-.31-3.34-.83-5-1.13-.78-2.3-1.58-3.45-2.38-1.25-.08-2.53-.24-3.26,1.59.91,1.27,1.93,2.7,2.94,4.11-.31.54-.69,1.21-.99,1.74-1.31-1.33-2.51-2.54-4.05-4.11v-4.22c.44-.85.76-1.47,1.09-2.12,1.1,0,2.23-.1,3.34.03.97.11,1.92.48,3.08.78-.27-2.84-1.83-4.01-4.44-4.65h.01Zm-87,206.15c-2.64-.42-4.98-.79-7.34-1.16v-2.15h7.31c.05-.5.19-.81.09-.96-.34-.48-.77-.9-.89-1.03-2.09.25-3.83.46-6.18.74-.28-.43-.64-.98-1.07-1.65-.25,2.79.15,5.45-.74,8.06-.46,1.34-.18,2.97-.05,4.45.12,1.4.59,2.77.7,4.18.29,3.88-.43,7.79.68,11.67.38,1.33.41,2.71,1.44,3.75.77-.25,1.53-.56,2.32-.72.77-.16,1.57-.17,2.36-.24-.07-.52-.1-.76-.17-1.25h-3.77c-.27-1.03-.49-1.88-.76-2.94h4.38c.43-.66.82-1.24,1.45-2.19h-5.51v-3.25c1.42.36,2.66.67,4.05,1.03.4-.7.77-1.36,1.3-2.3h-4.42l.43-.56c-.84-.51-1.69-1.02-2.97-1.8.87-.8,1.37-1.27,1.49-1.37,2.36-.32,4.37,2.26,5.78-.53-1.65-.36-3.27-.65-4.85-1.07-1.59-.43-1.66-.64-1.39-2.92,2.14-.24,4.33.22,6.88-.38-.77-.93-1.26-1.52-1.75-2.12-1.72,1.42-3.48.75-4.59.33-.65-.18-1.29-.36-1.94-.54,0-.24-.03-.47-.04-.71.6-.22,1.21-.45,1.81-.67-.13-.22-.26-.44-.39-.66h6.47c-.05-.51-.07-.75-.1-1.02l-.02-.02ZM266.55,29.17c.96,2.35,3.09,3.3,4.14,5.17h1.59c-.51-1.6,1.62-1.15,1.84-2.51.17-1.04,1.54-1.84,1.87-2.91.38-1.24.35-2.66.23-3.98-.1-1.12-.57-2.21-.7-2.68-2.86-2.71-4.83-.6-6.65.52-2.42,1.48-2.62,4.13-2.32,6.39Zm16.62,270.78c.9-.56,1.79-1.13,2.69-1.69-.67-1.79,1.94-2.4,1.55-3.8-.53-1.89,1.53-2.34,1.65-3.88.11-1.32.94-2.58,1.41-3.88.43-1.19.79-2.4,1.18-3.6.34-1.24.33-2.6.6-3.9.24-1.11.98-2.12,1.18-3.24.21-1.21,0-2.49.06-3.73.04-.81.28-1.63.45-2.4.46-2.07,1.17-4.11,1.1-6.33-.08-2.64-.64-5.38.68-7.92-.24-5.01.62-10.08-.76-15.03-.04-.13-.31-.2-.49-.31-.41.46-.79.89-.83.93.23,2.45.51,4.34.56,6.24.09,3.12.02,6.24.02,9.35,0,.75.3,1.73-.06,2.2-.94,1.23-.55,2.56-.71,3.85-.16,1.28-.64,2.53-.7,3.81-.15,3.1.41,6.3-1.51,9.12-.17.26-.1.75,0,1.1.44,1.64-.35,3.2-.9,4.5-.6,1.44-.38,2.82-.84,4.13-2.54,4.55-3.89,9.65-6.34,14.47h.01ZM159.49,63.93c-.12,1.68-.08,3.34,1.02,4.77.58.07,1.17.13,2.08.24.74.82,1.64,1.81,2.62,2.9,1.62-2.01,3.2-3.97,4.76-5.9-.34-.76-.34-2.9-.03-5.01-.35-.35-.7-.7-1.03-1.03h-3.18c-.53.53-.97.97-1.41,1.41h-2.25c-.86.87-1.73,1.75-2.59,2.63h0Zm78.21,22.8c1.23-1.23,2.29-2.29,3.34-3.34.2-2.12-.05-4.09-1.83-5.61h-5.72c-.83.69-1.57,1.31-2.07,1.73v4.76c1.22.84,2.38,1.65,3.55,2.46h2.73Zm52.71,154.91c-2.62.16-5.4-.72-7.85,1.5-2.08-.16-4.19.06-6.2,1s-4.48.35-6.33,1.85c-2.37-.49-3.65,1.91-6.31,1.88.9,1.02,1.4,1.6,2,2.28.83-.73,1.46-1.29,1.48-1.3,1.76-.89,2.91-.24,4.18-1.02,1.31-.8,3.18-.78,4.82-.92,1.43-.12,2.86,0,4.18-.77,1.4-.83,2.98-.71,4.54-.79,1.4-.07,2.81-.36,4.17-.74,1.24-.34,1.63-1.35,1.34-2.95l-.02-.02Zm-2.32-21.25c1.76,3.87,3.18,7,4.66,10.26.05.42-1.27.71-.19,1.59.44.36.15,1.63.17,2.48.02.72,0,1.45,0,2.22.66.39,1.24.73,2.05,1.2,0-2.74.31-5.21-.09-7.55-.39-2.3-1.44-4.49-1.21-6.92.1-1.1-.04-2.17-.76-3.03-.88-1.03-.71-2.23-.74-3.42,0-.34-.13-.67-.19-.94h-2.8c-.33,1.54-.65,3.02-.89,4.11h-.01Zm-230.42-23.18c-.62.82-1.05,1.38-1.55,2.03-.68-1.01-1.19-1.77-1.5-2.22-2.46-1.23-3.42,1.11-5.12,1.48v2.42c1.39,1.39,2.7,2.7,4.03,4.03h3.66c1.29-.83,2.12-1.36,2.64-1.69v-2.99c-.78-1.1-1.37-1.95-2.15-3.06h0Zm199.4,38.33c1.48-.27,2.54-.73,3.51-.59,2.26.34,4.25-.73,6.38-1,.68-.09,1.54-.66,2.34-.52,1.89.34,3.49-.66,5.23-.94.56-.09,1.14-.64,1.61-.54,2.14.46,4.07-.52,6.02-.92,1.4-.29,2.76-.63,3.74-1.08.63-.64,1.26-1.28,1.71-1.73-2.61-.17-5.59-.3-8.41,1.1-.41.2-.93.39-1.35.31-1.89-.36-3.46.74-5.2,1.03-.44.07-.85.43-1.29.48-3.63.39-7.13,1.41-10.62,2.36-1.42.39-2.77.6-4.2.67-.15,0-.28.29-.42.44.32.32.67.67.93.93h.02Zm126.92,52.03c3.37-2.78,5.46-6.22,7.93-9.81-1.27-.13-2.2-.23-3.09-.32l-1.34-1.34c-1.04-.22-2.05.06-3.13-.67-.63-.43-2.14.45-3.1.7-.71,2.28-1.72,4.02-3.7,4.7.22,1.88,2.01,2.16,2.99,3.27,1.05,1.18,2.22,2.25,3.44,3.47h0Zm-119.31-120.24c.79.1,1.32.34,1.68.19,3.06-1.32,6.2-2.42,9.32-3.6,1.6-.61,3.15-.94,4.73-1.2,2.27-.79,4.54-1.58,6.81-2.36-.03-.1-.07-.2-.1-.29h2.34c.64-.76,1.32-1.57,2.05-2.45-.58-.49-.96-.81-1.4-1.18-1.69.92-3.4,2.38-5.31,2.75-2.22.42-4.22,1.2-6.29,1.97-2.05.76-4.24,1.16-6.28,1.93-2.14.81-4.1,2.08-6.38,2.6-.41.09-.65.89-1.16,1.64h0Zm-22.65-5.2c2.2-.24,3.54-2.47,5.9-2.07,1.81-1.77,4.51-1.83,6.44-3.26,1.43-1.06,2.98-1.26,4.67-1.26,0-.75.15-1.3-.04-1.7-.24-.51-.75-.9-1.07-1.27-2.08.77-4.09,1.33-5.93,2.24-1.76.87-3.62,1.45-5.37,2.3-1.85.89-3.71,1.75-5.54,2.6v1.49l.93.93h0Zm11.17-35.4c-1.78.83-2.88,1.53-4.08,1.87-5.59,1.55-10.36,5-15.84,6.82-.62.21-1.6.85-.96,2.14.77,0,1.74.28,2.41-.05,2.27-1.12,4.59-2.15,6.86-3.23,3.01-1.43,5.94-3.04,9.11-4.16,1.3-.46,2.18-1.29,2.5-3.39Zm-48.06,67.37c0-2.22.26-5.23-.13-8.16-.16-1.21-1.1-2.45-1.51-3.82-.38-1.27-1.63-2.28-2.35-3.22h-2.3c2.34,4.44,4.25,8.74,4.51,13.78-1.01,1.84-.41,4.04-.31,6.75.74-1.91,1.28-3.3,2.07-5.34h.02Zm50.85-52.43c-2.24.71-4.3,1.43-6.4,2-2.27.62-3.8,2.87-6.27,2.89-2.44.02-3.57,2.75-5.85,2.47v2.07c3.51-.92,6.68-2.24,9.78-3.76,3.2-1.57,6.85-2.28,9.55-4.86-.29-.29-.55-.55-.81-.81h0Zm-185.45,148.06c2.94,3,6.61,3.96,10.55,3.48.5.37.87.65,1.24.93,1.13-.69,2.13-1.29,2.88-1.75v-2.94c-2.17.77-4.21,1.46-6.28.14-.2.18-.47.43-.89.82-2.23-1.67-4.86-.55-7.51-.68h.01Zm222.3,13.88h10.4c-.15-2.33.47-4.65-1.18-6.6h-1.52c-1.19,1.48-3.01,2.47-3.64,4.43-.83.04-1.67.08-2.45.12-.44.56-.8,1.02-1.61,2.05h0Zm-123.27-108.16c4.44-1.99,5.94-7.08,10.12-8.89-.23-2.13-2.05-1.53-3.06-2.2-1.08-.72-2.33-1.19-3.72-1.88.1,2.47,1.66,4.56.36,6.83-1.08,1.89-1.62,4.19-4.22,4.74.2.55.32.87.52,1.39h0Zm194.34,90.02c.92.69,1.65.34,2.53-.35,1.46-1.14,2.97-2.23,4.85-2.7.64-.16,1.17-.8,1.75-1.22-3.19-.07-4.35-3.84-7.55-3.66-.53,2.66-1.05,5.28-1.58,7.94h0ZM278.1,31.39c-1.64,1.64-3.15,3.12-4.6,4.63-.21.21-.19.64-.27.95.69.36,1.31.67,1.82.93,2.18-.66,4.45-1.1,6.02-2.18.81-1.16,1.4-2.01,2.26-3.24-.58-.24-1.16-.48-1.75-.72.12-.13.23-.25.35-.38h-3.83Zm22.08,248.3c2.95-1.62,5.64-3.1,8.92-4.9-3.77-.64-4.98-3.56-7.62-6.03.88,4.23-1.27,7.31-1.29,10.92h-.01Zm-96.42-102.07c1.18,1.76,2.6,3.29,3.32,5.1.88,2.22,1.16,4.67,1.7,6.99-.21.26-.4.51-.68.85.68.41,1.26.75,1.9,1.13.78-1.89.1-3.39-.31-5-.38-1.5.24-3.35-.39-4.67-.72-1.52-1.3-2.96-1.17-4.54-1.64-.42-3.05-1.96-4.38.15h0Zm-152.58,113.57c-1.7-1.5-1.92-4.17-4.52-4.78-.46-2.12-2.59-1.49-3.86-2.28-1.73-1.07-1.83-.91-3.09,1.16,2.91,1.96,5.86,3.86,8.7,5.91.93.67,1.64.81,2.78,0h0Zm231.81-119.15c.54.64,1.25,1.49,1.91,2.27.63-.03,1.11-.05,1.83-.09,0-.78-.06-1.51.02-2.21.08-.73.29-1.44.45-2.18-.38-.32-.74-.62-1.21-1-.74.64-1.37,1.18-2,1.71-3.39-.21-6.17,1.54-9.24,2.52,1.2,1.54,2.25,2.89,3.47,4.45.52-2.1.93-3.8,1.34-5.48h3.43Zm-212.28-23.09c.43-.53,1-.94,1.12-1.46.42-1.91,1.87-3.01,3.09-4.32,1.26-1.35,2.34-2.87,3.92-3.89.48-.31,1.12-.43,1.5-.83.32-.33.37-.92.79-2.13-2.78,1.94-5.92.54-7.76,3.3,0,1.12-.28,2.21-1.11,3.44-1.06,1.57-2.7,3.41-1.54,5.88h0ZM279.31,11.2c2.1.75,1.09,2.46,1.72,3.81.77-.31,1.48-.6,2.17-.89.37.25.71.48,1.21.81v-2.08c-1.89-1.28-3.83-2.59-5.56-3.76h-6.19c.82,1.51,1.58,2.93,2.5,4.63.83-1.01,1.53-1.86,2.08-2.53h2.07Zm51.56,295.41c.6.05,1.17.13,1.75.12.69,0,1.37-.09,2.22-.16-1.63-2.68-.51-5.46-1.09-7.98h-7.81c-2.6,2.25.59,4.59-.26,6.82-.05.13.23.38.38.62.32-.06.66-.13,1.18-.24-.35-1.57-.67-3.04-.97-4.4.79-.85,1.44-1.56,1.92-2.08h1.89c1.28,1.1,2.2,1.9,3.38,2.9-.84,1.41-1.66,2.79-2.6,4.38v.02Zm-175.21-10.8c.69-1.45,1.45-3.04,2.48-5.22-3.07,1.67-5.25,3.87-8.47,3.5.27,1.92-.25,3.62.45,5.47,1.89-1.28,3.52-2.38,5.54-3.75h0Zm152.79-34.36c-1.6-.94-3.18-1.86-5.18-3.04.18,3.73-.16,6.95-1.96,10.64,3.02-2.24,4.5-4.89,7.15-6.16v-1.44h-.01Zm-208.69-66.12c-.66,1.81-2.57,1.19-3.9,1.6v1.13h2.77c.61-.6,1.46-1.43,2.55-2.51,1.34,1.7,2.49,3.17,3.72,4.72-.2,2.33-.63,4.63-2.78,6.21h-1.45l.47.49c-.55.17-1.11.35-2.26.71,3.52.68,5.23-.65,6.66-2.37v-5.82c-.82-1.51-1.54-2.84-2.26-4.17h-3.52Zm43.91,55.35c-2.12-.28-3.83,1.52-5.92.36-.25-.36-.57-.84-.9-1.31.48-.5.81-.86,1.39-1.47h5.77l-.99-.99c-1.65.16-2.99.29-3.71.36-1.26-.79-1.94-1.22-2.63-1.65-1.23,2.57-1.36,5.01-1.07,7.54,2.64-1.39,5.4-.13,8.04-.86v-1.98h.02Zm-15.26-72.65c1.4-1.31,2.3-2.77,1.81-4.3-.93-2.95-2.57-5.51-5.75-7.23-.09.86-.15,1.43-.24,2.18,2.85,1.99,3.24,5.01,3.03,8.21.37.37.73.72,1.13,1.13h.02Zm19.74,63.03c-.23-.05-.46-.09-.69-.14-.23.75-.66,1.5-.67,2.26-.06,5.58-.03,11.15,0,16.73,0,.12.29.24.39.32.39-.34.76-.67.98-.86v-18.3h0Zm-47.06-90.51v3.38c-.45.36-1.03.82-1.33,1.06v2.8c.13.04.26.07.39.11.93-2.05,1.87-4.09,2.8-6.14,2.2.91,2.24,1,4.77.04,1.61-.61,3.38-1.22,3.96-3.29-.43-.35-.82-.66-1.45-1.18-.85.04-2,.1-3.16.16v.39c.76.16,1.53.32,2.69.56-.93,1.09-1.61,1.9-2.11,2.5h-4.15c-.2-.57-.34-.99-.57-1.65-.67.46-1.14.78-1.84,1.26h0Zm180.63,67.09c-1,.28-2.51.69-4.17,1.15,1.71,2.07,3.23,3.91,4.94,5.97.84-1.76,1.56-3.26,2.38-4.99-.96-.65-1.76-1.19-3.15-2.14h0Zm48.08,78.09c2.68-.63,5.04.69,6.94-1.04-1.16-1.97-2.26-3.83-3.42-5.81h-1.57v2.75c-.72,1.52-1.2,2.53-1.95,4.11h0ZM173.26,63.66c2.54-5.09,6.74-8.86,10.18-13.43h-1.87c-.67,1.73-2.4,2.78-3.62,4.23-.71.1-1.38.2-2.04.3.2,2.02-.43,3.48-1.58,4.82-.9,1.05-1.62,2.26-2.5,3.52.66.26.98.39,1.43.57h0Zm178.78,226.57c2.73.47,4.38-1.64,6.98-1.85-1.7-2.15-3.08-3.89-5.06-6.38.6,3.58-1.48,5.52-1.92,8.23Zm-95.13-227.47c-1.58-2.14-2.92-3.94-4.36-5.88h-1.6c-1.3,1.18-2.21,2.01-3.19,2.9.07.43.16.96.27,1.66,1.18-1.18,2.15-2.15,2.69-2.69,1.24,1.16,2.47,2.33,3.82,3.59,0,1.3-2.34,1.66-2,4.02,1.66-1.37,2.94-2.43,4.36-3.6h.01Zm47.14,224.53c-1.3-1.13-2.42-2.15-3.59-3.1-.4-.33-.92-.5-1.92-1.02.65,2.82-.47,4.76-1.59,6.95.75.07,1.26.27,1.64.13,1.6-.59,3.17-1.25,4.71-1.98.36-.17.55-.7.75-.97h0Zm-82.37-127.77c-1.14-1.36-1.83-2.22-2.55-3.04-.88-1-2.04-1.41-3.71-1.76.27.79.41,1.19.55,1.58.46,1.3,1.83.4,2.45,1.08,1.66,2.28,3.16,4.59,2.18,7.89-.49.73-1.18,1.76-1.89,2.81.51.41.96.78,1.51,1.23,1.7-1.68,2.68-3.75,1.99-5.57-.64-1.7-.27-3.33-.52-4.21h0Zm-53.86,87.86c1.08.62,1.84,1.84,3.15,2.62,1.08.64,1.43,2.55,3.62,3-.28-1.08-.38-1.85-.68-2.53-1.1-2.53-3.37-4.04-5.3-5.84-.1-.09-.44.07-.79.13v2.62Zm-22.58,35.02c0,1.74-.03,3.47,0,5.2.03,1.58-.41,3.5.32,4.66,1.22,1.92-1,3.15-.33,4.74.09.21.17.42.28.67h.99c.53-6.44.39-16.08-.22-16.31-.26.26-.52.52-1.04,1.04h0Zm15.67-35.44c-3.72,3.22-8.13,4.51-10.96,8.74,1.22.07,1.89.11,1.77.1,3.31-2.67,5.98-4.98,9.19-6.3v-2.55h0Zm-1.53-6.74c-2.41-.08-4.05-.46-5.31.78-.56-.43-.92-.71-1.66-1.28-.29.68-.54,1.25-.95,2.18v3.81c2.65-1.84,4.98-3.45,7.92-5.49h0Zm145.43-5.21v7.85c1.59-2.42,4.45-3.2,4.38-6.24-1.51-.56-2.88-1.06-4.38-1.61Zm-237.47,35.96c1.96-1.74,3.97-3.53,6.21-5.51-.59-1.32-1.18-2.81-1.93-4.22-.7-1.31-1.58-2.53-2.38-3.79-.16.07-.31.13-.47.2.32,1.2.64,2.41,1.08,4.07.44.91,2.54,1.43,1.92,3.86-1.33,1.04-2.95,2.27-4.53,3.54-.6.49-1.09,1.07.11,1.85h-.01Zm2.16-77.78c1.77,2.09,3.78,3.47,7.01,2.49-.67-.46-1.16-.89-1.73-1.17-.71-.34-1.49-.55-2.09-.77-.23-1.97.21-3.67-.39-5.46-1.78.65-.82,2.9-2.42,3.41-.23.07-.23.86-.38,1.5Zm252.26,96.91c-2.03,1.71-2.02,3.99-2.94,5.99h6.72c-1.46-1.64-2.55-2.87-3.58-4.04-.07-.65-.13-1.22-.2-1.94h0Zm-14.07-11.27c-1.12.41-1.88.66-2.61.96-.85.35-1.68.73-2.58,1.13v1.42c1.02,1.42,2.4,2.36,4.21,2.72.34-2.14.64-4.05.98-6.23h0Zm-55.78-54.06c1.16,1.83,2.59,2.85,3.74,4.13,1.84-1.73,1.98-3.88,2.69-6.21-2.35.76-4.25,1.37-6.43,2.08Zm91.87,65.34c-.91,1.31-1.37,1.97-2.01,2.89,2.66.63,4.56-.18,6.36-1.58-1.36-1.54-2.24-3.37-4.35-4.4v3.09h0Zm-179.75-37.17c-2.97,4.17-.63,8.3-2.19,12-.79,1.87-.14,4.36-.14,6.92.69-.65,1.03-.97,1.5-1.4,0-2.74-.1-5.6.03-8.44.12-2.74.47-5.47.8-9.08Zm142.56,42.18c.58.22,1.18.45,1.77.68,1.28.33,2.96.67,4.96.16-1.33-1.86-2.47-3.45-3.7-5.16-1.01,1.44-1.88,2.68-3.03,4.32h0Zm-17.77-63.24c-1.53.37-2.88.7-4.36,1.05.06.64.13,1.31.2,2.09h2.05c.66,1.23,1.28,2.38,1.94,3.61,2.43-2.38.26-4.53.17-6.76h0Zm-127.71,12.19c-.09-.28-.18-.57-.27-.85-2.02.27-3.62,1.4-5.27,2.63-3.32,2.45-3.38,2.39-4.13,4.02.53,0,1.14.19,1.47-.03,2.76-1.88,5.48-3.83,8.21-5.76h0Zm149.01,6.8c-1.68-1.19-3.29-2.33-5.3-3.76-.15,2.51-.23,4.5.07,6.85,1.9-1.13,3.48-2.06,5.23-3.1h0Zm-35.17-32.01c-1.94.56-3.27.95-4.56,1.32-.62,1.54.96,2.12,1.26,3.13.39,1.33,1.41,1.66,2.09,2.79.42-2.5.77-4.57,1.21-7.25h0Zm3.06,22.32c.98-2.58,1.8-4.74,2.72-7.18-2.09.49-3.99.52-5.36,2.21.83,1.57,1.64,3.09,2.64,4.97h0Zm-7.07-61.29c.61-1.95,1.11-3.57,1.4-4.51-.44-.94-.7-1.5-1.13-2.42-1.08,1.82-3.62.59-3.94,2.79,1.18,1.32,2.27,2.55,3.67,4.13h0Zm102.53,104.14c3.19.6,3.21,4.51,6.09,5.24.14.04.14.63.2.92h1.96v-1.62c-2.38-2-4.68-3.93-6.95-5.84l-1.29,1.29h0Zm-224.34,3.27c1.23,0,1.76.15,2.15-.03,1.58-.73,3.1-1.4,4.88-1.7.86-.14,2.75-.54,2.51-2.74-1.46.24-2.98.27-4.31.78-1.37.52-2.6,1.41-3.99,1.98-.35.14-.53.7-1.24,1.71h0Zm115.42-57.2c-1.27-1.72-2.44-3.31-3.49-4.73-1.94.68-.99,2.18-1.34,3.23-.44.84-2.11,1.15-1.21,2.43,2-.31,3.84-.59,6.04-.93h0Zm-3.16,16.68c1.22-.56,2.86-.78,3.33-1.64.81-1.48,2.84-.62,3.29-1.75-1.14-1.12-2.04-2.02-2.97-2.94-1.06,1.45-.93,4.2-3.64,4.36v1.96h0Zm47.04-23.34c-.54-2.17-1.08-4.34-1.7-6.82-1.11,1.58-1.97,2.82-2.8,4,.06,3.26,2.99,1.83,4.5,2.82Zm34.78,74.13c1.49.24,2.73.43,4.02.64v-2.58c-2.47-.3-4.7-.23-6.4,1.58v3.62c.79-1.08,1.49-2.04,2.38-3.26Zm-114.6-205.64c1.18-.96,2.33-1.9,3.21-2.63-1.18-1.17-2.38-2.38-3.51-3.51-1.7,1.88-.21,4.01.3,6.14h0Zm13.82,50.93v-5.86c-2.08.12-2.16.17-4.49,2.39,1.47,1.13,2.91,2.25,4.49,3.47Zm-91.7,118.18c1.61-1.3,3.19-2.65,4.84-3.88,1.63-1.21,4.06-1.44,4.75-3.94-.42-.16-.74-.28-1.19-.44-2.41,3.17-7.05,3.93-8.4,8.27h0Zm-85.47,36.8v4.15c1.77,2.07,3.83,3.89,7.07,3.16.24-.4.95-.58.82-1.42h-3.71c-1.44-1.04-2.57-1.85-3.56-2.57.33-1.23.59-2.19.89-3.32h-1.52,0Zm5.3-124.96v-5.11c.07-.04.64-.38,1.37-.82-.81-.4-1.39-.69-2.2-1.09v8.15c.82.53,1.35,1.45,2.48,1.92.99.42,2.14-.45,2.89.88.51-.54.9-.95,1.64-1.73h-4.29c-.7-.81-1.09-1.27-1.88-2.2h-.01Zm5.12,125.51h9.08c.97.88,1.77,1.64,2.62,2.34.12.1.45-.05.82-.1v-1.89c-.8-.24-1.45-.49-2.13-.62-1.71-.31-3.2-1.81-5.25-.48-.71.46-2.37.61-3.39-.6-.24-.29-1.12-.04-1.75-.04v1.38h0Zm172.69-136.43c-1.25.78-2.07,1.63-3.01,1.79-1.29.22-1.94.7-2.06,1.6,1.18,1.03,2.15,1.88,3.13,2.7.1.09.34,0,.63,0v-2.36c.86-.98,1.3-2.23,1.31-3.74h0Zm105.81,142.37c-.67-2.05-1.24-3.91-1.88-5.74-.64-1.82-.44-4.02-2.55-5.41-.05.67-.26,1.3-.1,1.8,1.07,3.21,2.22,6.4,3.33,9.56.42-.07.65-.11,1.2-.21Zm-249.98-73.56c-.5-1.78.31-3.69-.8-5.45v3.78c-.64.76-1.24,1.26-1.55,1.89-.34.7-.43,1.53-.67,2.48h-2.84c-.4.92-.64,1.47-.96,2.21,1.32-.37,2.41-.68,3.75-1.05.92-1.16,1.96-2.47,3.07-3.87h0Zm302.94,39.08v-2.56c-.73-.31-1.32-.55-2.11-.88.6,2.23-1.5,2.86-2.3,4.28.08.57.15,1.13.22,1.64h1.67c.91-.89,1.79-1.75,2.52-2.48h0Zm-137.97-28.8c2.59-.98,2.09-3.29,2.83-5.76-1.16.56-1.72.96-2.33,1.09-.78.17-1.61.13-2.94.22.94,1.71,1.66,3.01,2.44,4.44h0Zm93.47,47.97c1.01,1.76,2.47,2.31,1.95,3.73,1.43,2.22,1.88,4.97,3.77,6.93.12.12.33.15.51.22.33-.36.63-.69.83-.9-1.49-3-3.68-5.44-4.69-8.57-.14-.44-1.03-.64-2.37-1.41Zm-204.06-20.78c.05-1.19,0-2.03.15-2.83.16-.86.5-1.69.8-2.66-.59-.06-.95-.15-1.29-.12-.33.04-.68.17-.98.33-.21.11-.35.35-.54.51-.27.23-.55.47-.86.63-.29.16-.62.23-.89.32v1.53c1.12.71,2.19,1.39,3.6,2.29h0Zm-113.16,25.86c.34.9.68,1.75.98,2.62.27.77-.54,1.8.5,2.39.3-1.63.59-3.22.87-4.72-1.3-.83-2.6-1.61-3.84-2.47-2.31-1.6-2.3-1.62-3.87-1.22,1.25.98,2.65,2.06,4.36,3.4h1.01,0Zm125.49-51.72l4.16,4.16v-1.14c-1.82-1.82-3.47-3.46-5.24-5.23-.23,0-.71.04-1.24.07v2.15h2.32Zm225.12,29.56c-.17-.22-.35-.43-.52-.65-1,.53-2.01,1.06-3.65,1.93h-2.9c.6.93,1.02,1.56,1.34,2.06h3.37c.75-1.07,1.55-2.21,2.35-3.35h0Zm-238.44,4.21c.23-.33.33-.41.36-.52s.06-.32,0-.36c-2.61-1.91-5.06-4.03-7.5-6.07-.37.29-.55.43-.73.57,1.1,1.92,4.86,4.99,7.86,6.38h0Zm138.4,31.44c-.35,1.14-.7,2.24-1.01,3.36-.06.22.02.48.05,1.03.73.31,1.57.68,2.44,1.05.53-1.07.94-1.89,1.14-2.3-.37-1.29-.62-2.17-.9-3.13h-1.73.01Zm-153.88-13.98v-4.63c-1.55-.28-2.94-.53-4.33-.78,1.29,1.9,1.64,4.27,4.33,5.41Zm161.38-68.87c-.65,2.56-.05,4.25,1.4,5.51.58-.51,1.06-.89,1.48-1.32.53-.54,1.02-1.12,1.59-1.75-1.63-.88-2.92-1.59-4.47-2.43h0Zm-81.89-139.87v2.33c.51.39,1.07.8,1.64,1.24,1.48-1.33,2.23-2.82,3.02-4.6h-3.63c-.25.25-.51.51-1.03,1.03Zm41.22,136.86c-.37,2.07,1.46,2.89,2.17,4.47,1.63-1.82,1.79-3.59,1.34-5.57-1.27.4-2.37.75-3.51,1.11h0Zm-188.62-64.55c2.32-1.38.97-3.49,1.75-5.67.15-.09.8-.45,1.51-.85-.56-1.31-.98-2.29-1.46-3.42-.4.82-.71,1.44-.97,1.98.23.48.47.98.75,1.55-.64.23-1.07.38-1.58.57v5.85h0Zm212.9-9.16c-1.29.43-2.26.75-3.24,1.07.44,1.66,2.7,1.58,3.18,3.32.11.38,1.12.51,1.79.78.61-2.11-.41-3.64-1.73-5.17h0Zm-129.34,110.14c-2.03,2.49-4.96,3.52-7.31,5.49.07.6.14,1.25.22,1.97,1.01-.88,1.78-2.08,2.68-2.19,1.31-.17.64-1.82,2.17-1.96,1.29-.12,2.44-1.74,3.63-2.71.11-.09.11-.33.18-.59h-1.57,0Zm5.34,22.93v-7.92c-.15.11-.3.22-.44.33-.15-.44-.31-.88-.46-1.33-.48,1.82-.43,3.39-.49,4.96-.06,1.59.4,3.24-.58,4.73.32.06.6.21.76.12.41-.23.76-.56,1.21-.9h0ZM283.72,24.92c-2.29-1.45-2.51-1.44-4.32.03v3.66c1.9-.9,3.39-1.82,4.32-3.68h0Zm85.92,251.25c2.52,1.7,4.83,2.69,7.52,1.94.29-.69.53-1.27.82-1.94h-8.34Zm-56.46,34.38c-1.1,1.81-1.33,3.74-.59,4.41h2.22l-.46-.46,1.86-1.86c-.8-.55-1.87-1.29-3.04-2.1h.01Zm-6.9-42.45c-.35,2.14,1.1,2.5,1.73,3.4,1.49-.85,1.08-2.04,1.21-3.09.12-.93.42-1.83.73-3.07-1.95.59-2.63,2.01-3.66,2.77h-.01Zm-36.01-106.88c-.95-1.21-1.8-2.29-2.66-3.38-1.52.93-.81,3.29-2.57,4.07.08.09.15.17.34.39.23.2.58.51.92.82,1.31-.63,2.54-1.22,3.96-1.91h.01Zm-116.35,118.19c-.07.12-.45.75-.73,1.22h-2.72c-.24.67-.48,1.34-.84,2.35,3.32-1.31,6.18-2.44,9.1-3.59-.04-.27-.08-.6-.14-1.03-1.41.32-2.73.62-4.66,1.05h-.01Zm165.01,25.46c0-2.85-.7-4.89-2.09-6.14-.88,1.55.66,2.26,1.47,3.36-1.12,1.03-2.09,1.93-3.06,2.82.37.38.71.73,1.05,1.08.27-.24.53-.48.77-.7.28.24.53.45.78.67l1.08-1.08h0Zm-17.1-90.97v4.79c1.91-1.92,3.61-3.5,3.49-6.15-1.3.5-2.36.92-3.49,1.36Zm-33.64-177.99c-.21-.75-.19-1.2-.41-1.39-1.98-1.75-3.36-3.95-4.76-6.14-.06-.09-.45.03-.84.07v1.63c1.42,1.77,2.81,3.57,4.3,5.3.28.32.93.31,1.71.53h0ZM67.72,294.08c-1,.81-1.52,1.66-.69,3.04.44-.62.85-1.2,1.13-1.59h2.66c.42.48.9,1.03,1.18,1.35h3.06c-1.69-1.03-3.13-1.89-4.63-2.8h-2.71Zm191.36-229.74c-1.2.96-1.71,1.44-2.29,1.81-.68.43-1.46.71-2.14,1.15-.7.45-1.41.93-1.96,1.54-.27.3-.17.93-.27,1.65,6.01-3.54,6.04-3.57,6.66-6.15h0Zm13.22,89.38c-1.39.57-2.51,1.04-4.01,1.65,1.35,1.4,2.19,2.71,4.01,3.47v-5.12ZM38.16,293.69c-.83-.51-1.52-.93-2.13-1.31v-2.86c.55,0,1.02.04,1.48-.01.45-.05.89-.18,1.97-.42-1.82-.33-2.92-.53-4.09-.75-.39.94-1.45,2.14-.86,3.37.54,1.13.52,2.95,2.47,3.08.36-.34.71-.68,1.17-1.11h0Zm128.61-43.66c.44,1.26.47,1.99.86,2.32,1.53,1.32,3.16,2.52,4.33,3.42.3,1.2.45,1.8.6,2.41.23.01.45.02.68.03.19-.67.38-1.34.58-2.03-2.33-1.82-3.88-4.26-7.04-6.16h-.01Zm-23.56-8.55c-1.46,1.27-3.55,1.77-4.63,3.77,2.01.36,3.71.17,4.74-.7.55-.93.82-1.4,1.1-1.86l-1.21-1.21Zm166.56,12.41c-1.53,1.18-3.37,1.13-3.61,3.02,1.19.75,2.26,1.43,3.61,2.28v-5.3Zm-142.45,1.15c-.38,1.15-.75,2.24-1.13,3.38.32.34.65.69.94,1h4.07c-1.48-1.67-2.66-3-3.88-4.38h0Zm117.66-127.77c-.92-.87-1.81-1.3-2.68-1.29,1.15,3.15,2.42,5.28,3.81,6.41-.38-1.71-.7-3.16-1.13-5.12Zm-194.74,148.08c1.64-2.14,3.26-4.27,4.96-6.49-.75-.46-1.33-.81-2.29-1.4v3.16c-.91.54-1.61.95-2.12,1.26-.34,1.21-1.62,2.16-.54,3.48h0Zm189.56-120.54c.26-1.1.29-2.35,1.42-3.12.25-.17.21-.77.43-1.71-1.91.91-3.3,1.58-4.79,2.29.47.95.88,1.76,1.27,2.54h1.67Zm58.07,151.81c.77-5.32.42-6.97-1.59-8.63-.94,3.13,1.91,5.57,1.59,8.63Zm-119.84-142.6c-.35-1.48-.72-3.07-1.12-4.76-.76.1-1.42.19-2.12.28.66,2.11,1.23,3.94,1.83,5.88l1.41-1.41h0Zm-79.65,5.63c2.29.1,3.71.17,5.4.24v4.32c.19.03.38.05.57.08.38-1.37.76-2.75,1.13-4.12-.28.14-.57.28-.85.41-.45-.89-.91-1.78-1.28-2.52-1.69.54-2.9.93-4.97,1.59h0Zm123.3,72.6c.28-1.34.31-2.08.61-2.68.35-.7.95-1.27,1.45-1.92-1.67-1.24-2.62.32-3.88.46v2.51c.49.44.92.83,1.82,1.63h0Zm50.68,62.75c-.91-1.71-1.42-3.35-.19-5.01.18-.24.09-.74,0-1.1-.04-.16-.37-.26-.78-.52-.47.4-.99.85-1.43,1.23-.03,2.07-.22,4.02,1.18,5.69.31-.07.65-.15,1.22-.29Zm-28.83-151.85c-1.33,1.58-1.61,2.3-1.83,4.04,1.83-.27,3.45-.62,4.56-2.58-.92-.5-1.7-.91-2.72-1.46h-.01Zm-16.46,75.63h3.79c.89-2.18-1.57-2.69-1.58-4.78-.88,1.9-1.49,3.22-2.21,4.78h0Zm-181.65,24.71h2.76v-3.96c-1.11.42-1.96.74-2.76,1.05v2.91Zm171.64-94.09c1.25,1.04,2.07,1.72,3.31,2.75.08-1.73.13-2.9.18-3.98-.57-.51-1-.9-1.68-1.5-.66.98-1.15,1.71-1.82,2.72h.01ZM285.02,5.73c-.28-.95-.54-1.82-.83-2.81-1.42.2-3.13-.68-4.11,1.22,1.69.37,2.67,2.73,4.94,1.59h0ZM94.43,239.09c-.1-1.21-.19-2.35-.32-3.99-1.22,1.03-2.02,1.7-2.86,2.42.12.91.24,1.79.37,2.78,1.01-.43,1.73-.75,2.81-1.21h0Zm212.06,5.62c1.29.79,1.68,2.29,3.24,2.15v-5.17c-1.29,1.21-2.13,1.99-3.24,3.03h0Zm-228.12,10.07c1.01-1.22,1.6-1.92,2.02-2.44-.39-.51-.91-1.19-1.38-1.8-.78.08-1.35.14-1.9.2v1.74c.55,1.02.85,1.56,1.25,2.3h.01Zm226.13,57c.06.26.12.53.18.79.58.06,1.15.12,1.89.19l1.93-1.93c-.06-.99-.1-1.81-.14-2.51-2.2.42-2.42,2.49-3.86,3.45h0Zm-26.54-289.89c2.3-1.01,3.29-2.72,4.48-4.98-2.27.64-3.68,1.54-4.74,3.03.08.61.16,1.16.26,1.95h0ZM77.97,179.31c.1.12.21.24.31.36.74-.48,1.48-.95,2.61-1.68h2.67c.41-.44.72-.78,1.35-1.46-1.08,0-1.78.07-2.47-.02-.67-.08-1.32-.32-1.91-.47-.78.99-1.66,2.13-2.55,3.26h0Zm217.01-8.8c-.04-1.74.35-3.38-1.49-3.67-.72.84-1.32,1.54-1.71,1.99.44.52.96,1.12,1.44,1.68h1.76,0Zm-182.53-10.94c.41-.41,1.07-.97,1.59-1.63.3-.37.37-.92.75-1.94-1.91,1.62-3.31,2.8-4.71,4,.35.99.72,2.02,1.11,3.12.3-.59.61-1.08.8-1.61.19-.54.27-1.12.46-1.94h0Zm124.23-12.51c1.56-.91,2.64-1.53,3.05-1.77-.45-.93-.89-1.84-1.71-3.53-.54,1.36-.77,1.95-1,2.54-.11-.12-.22-.24-.33-.36v3.12h0Zm34.22-129.32v-4.21c-.86,1.99-2.72,3.51-2.73,6.48,1.28-1.06,2.09-1.74,2.73-2.27Zm-127.15,159.09s-.04-.47-.09-.96h-1.24c-.11.75-.22,1.44-.36,2.37h-4.98c0,.09.02.18.03.26,1.48.35,2.95.7,4.65,1.11.51-.7,1.08-1.5,1.99-2.78h0Zm-39.71,130c2.86-.2,4.79.16,6.78-.89-1.61-.49-3.22-.98-4.9-1.49-.43.55-.86,1.08-1.88,2.38Zm149.77-167.32c-.23-1.59-1.23-2.43-3-2.5,0,1.07-.02,2.14.02,3.21,0,.14.34.27.6.47.76-.38,1.57-.77,2.38-1.17h0Zm-103.94,134.35v4.25c1.65.54,2.54-.07,2.99-1.65-.84-.73-1.62-1.41-2.99-2.6Zm185.82,38.18c.29.56.58,1.12.92,1.77,1.3-.83,2.3-1.48,3.33-2.13-1.18-1.51-2.42-1.4-3.5-1.03-.39.73-.66,1.23-.74,1.39h-.01Zm-253.81-64.6c-.41,1.64-.61,2.91.84,3.85.22-.19.43-.47.71-.6.38-.18.82-.24,1.45-.4-.32-.84-.4-1.66-.85-2.05-.53-.46-1.38-.54-2.15-.8Zm173.93-81.58h3.97v-1.76c-.84-.37-1.74-.76-2.62-1.14-.48,1.03-.86,1.84-1.35,2.9Zm-1.39-1.58v-4.49c-1.18.62-2.11,1.11-3.05,1.61,1.19,1.12,2.13,2.01,3.05,2.88Zm27.26,74.97h5.12c-1.43-1.1-2.69-2.06-4.1-3.14-.38,1.17-.68,2.1-1.02,3.14Zm-207.21,36.07c-.83,3.95.36,7.22-.95,10.47.51-.07.93-.13,1.16-.16.23-2.21.44-4.19.64-6.16-.21-1.05-.44-2.17-.84-4.15h-.01Zm275,27.23c-1.68,1.17-2.99,2.09-4.71,3.29h4.91c-.06-1.06-.12-1.96-.2-3.29Zm-103.22-167.13c.86.71,1.56,1.29,2.35,1.95.4-.97.87-2.11,1.37-3.3-1.46-.32-2.88-.62-3.72,1.36h0Zm77.81,177.71v-1.87c-.59-.03-1.05-.05-1.68-.08-.63.83-1.96,1.2-1.97,2.68,1.57,1.1,2.52-.58,3.65-.73Zm-271.22-6.7c-2.37-1.27-4.06.82-5.98.35-.29-.07-.78.68-1.59,1.45,2.96-.02,5.12-.67,7.58-1.79h-.01Zm276.08,4.13c-.27,1.15-1.63,2.06-.76,3.48,2.57-.09,2.62-.14,2.55-2.63-.61-.29-1.19-.57-1.79-.85h0Zm-49.74-84.24c.36-1.47-.21-2.33-1.87-2.8-.35,1.05-.73,2.07-1.01,3.11-.06.22.26.54.44.89.93-.45,1.73-.85,2.45-1.2h-.01Zm-190.78,77.98c-.11-.72-.22-1.43-.32-2.09-1.17.3-2.14.87-2.91.67-.96-.25-1.74-1.32-2.86-.2.08.31.16.64.2.82,1.97.27,3.79.52,5.88.8h.01Zm188.04-148.29c-.65.53-1.19.96-1.8,1.46.15.89.3,1.76.54,3.16,1.15-1.09,1.87-1.77,2.47-2.34-.45-.86-.77-1.45-1.2-2.28h-.01Zm-143.08,20.96c.85.39,1.68.76,2.72,1.24.08-.65.13-1.08.17-1.45-.65-.27-1.13-.46-1.65-.68.45-.9.75-1.51.7-1.4-.37-.96-.58-1.5-.91-2.36-.42,1.88-.69,3.12-1.03,4.65h0Zm-49.78,74.82c-1.86.89-2.31,1.81-1.78,3.11h3.22c-.55-1.19-.96-2.08-1.44-3.11Zm290.64,42.94c.04-.9.09-1.81.13-2.78-.65-.41-1.23-.76-2.06-1.28v4.06h1.93ZM264.91,23.88v-4.56c-.69-.22-1.36-.43-2.02-.64,1.3,1.6-.21,4.1,2.02,5.2Zm.82,146.17c.34.86-.38,1.91.56,2.92.96-.54,1.79-1.01,2.61-1.47-.62-1.58-1.55-2.01-3.17-1.45h0Zm81.8,142.6c.23.09.46.17.69.26.79-.81,1.59-1.62,2.4-2.44-.57-.66-.95-1.1-1.25-1.45-.75.68-1.39,1.26-1.83,1.66v1.97h-.01ZM81.86,233.47c-.34.44-.76.97-1.12,1.42.8,1.39,1.68,1.95,3.06,1.24v-1.66c-.67-.34-1.27-.65-1.94-1ZM248.28,53.71c-1.1,1.15-1.66,2.28-1.67,3.41,1.33-.93,2.47-1.74,4.18-2.93-1.23-.23-1.77-.34-2.51-.48ZM69.42,188.21c.79-.73,1.24-1.33,1.84-1.65.66-.34,1.45-.42,2.18-.61-.11-.51-.17-.74-.22-.96-1.14-.03-2.59.66-4.34,2.06.1.21.19.42.53,1.17h.01Zm13.65,8.07c-.89-.41-1.72-.79-2.52-1.15-.43.73-.78,1.32-1.12,1.93-.3.54-.58,1.08-1.11,2.07,1.87-1.12,3.22-1.93,4.75-2.84h0Zm283.27,108.45c-2.49-.11-3.23.26-3.23,1.65.51.37,1.13.82,1.79,1.3.5-1.02.89-1.82,1.44-2.95h0Zm-85.57-254.34c-1.36-.9-2.36-.24-2.94.87-.22.43-.69,1.81,1.01,1.79.61-.82,1.97-1.19,1.93-2.65h0Zm-116.68,196.32c.13,0,.26,0,.39-.02.31-2.16.62-4.31.94-6.52h-1.33v6.53h0Zm113.77-200.68c.78-.54,1.56-1.07,2.24-1.54-.11-.84-.19-1.4-.27-1.96-2.14.08-1.9,1.86-2.7,2.77.4.4.66.66.73.73ZM77.79,236.58c-1.69.65-3.05,1.17-4.84,1.85,2.15.32,3.88.22,6,.11-.54-.91-.87-1.48-1.16-1.97h0Zm175.58-69.17c-1.21-.84-1.63-2.2-3.2-2.06v3.26c1.15-.43,2.06-.77,3.2-1.2Zm-144.81,25.51c0-1.11.01-2.19-.02-3.26,0-.1-.31-.18-.57-.32-.1.73-.2,1.41-.27,1.92-.87.28-1.56.49-2.61.83,1.19,1.4,2.28.79,3.47.84h0ZM274.1,18.83c1.55-.34,2.18-1.37,2.96-2.22-.08-.61-.16-1.15-.28-2.09-1.1,1.37-1.94,2.4-2.76,3.44-.05.07.02.23.08.87h0Zm24.55,273.64c-.25.35-.81,1.01-1.23,1.76-.19.33-.09.82-.15,1.45,1.95-.44,2.54-1.9,4.08-3.06-1.11-.06-1.58-.08-2.71-.14h.01Zm-228.36-87.8c-.74-1.24-.85-3.05-3.34-3.65,1.08,1.85,1.03,3.68,3.34,3.65Zm21.9-29.64c1.37,0,2.69,0,4.01-.02.09,0,.17-.32.22-.41-1.16-1.83-2.79-.79-4.32-1.09.04.65.06.99.09,1.53h0Zm-33.04,85.15c.25.01.5.02.75.03,0-.82-.13-1.67.04-2.46.16-.75.64-1.43.69-1.53-.49-.99-.74-1.5-.99-2-.16.09-.33.17-.49.26,0,0,0,5.7,0,5.7Zm-20.4,38.34c-.69,3.68-.68,3.72,1.51,5.75.94-1.67-.78-2.32-1.2-3.03-.14-1.18-.23-1.95-.32-2.73h.01Zm189.44-136.89c-1.01-.8-1.62-1.28-2.3-1.81-.6.71-1.04,1.24-1.62,1.94.6.52,1.03.9,1.36,1.18.73-.37,1.35-.69,2.56-1.31Zm20.24-6.94v-2.17c-.72-.69-1.37-1.3-2-1.9v2.53c.53.41.98.75,2,1.54Zm-176.02,4.74c.24.63.37.98.56,1.48.58-.68.96-1.12,1.57-1.84-1.24-.75-2.23-1.34-3.31-1.99v2.05c.45.12.79.2,1.17.31h.01Zm106.51,89.06c-.38-1.11-.71-2.09-1.09-3.2-.4,1.14-.77,2.19-1.14,3.23.39.68.78,1.35,1.16,2.02.33-.63.65-1.25,1.07-2.05h0Zm-73.32-37.51c-.57.12-1.06.22-1.54.33-.66.15-1.36.23-1.97.51-.41.19-.68.67-1.27,1.29h3.68c.34-.67.65-1.27,1.1-2.14h0Zm135.76-57.9c1.24,1.01,1.95,1.59,2.55,2.08v-2.37c-.42-.42-.68-.68-.66-.66-.56.28-1.11.56-1.89.95Zm-36.91-115.22c1.32.86,1.84-1.04,3.27-.62-.63-1.27-1.04-2.09-1.45-2.93-.6,1.18-1.18,2.32-1.81,3.55h-.01Zm164.62,267.93c-.25.11-.51.21-.76.32.07.96.15,1.92.26,3.37,1.01-.82,1.6-1.29,2.45-1.97-.81-.72-1.38-1.22-1.95-1.72Zm-292.37-34.24c-.16,1.25-1.87,2.2-.75,3.76.45-.7.8-1.43,1.33-2.01.44-.48,1.85-.15,1.19-1.51-.09-.08-.17-.22-.27-.23-.48-.02-.97-.01-1.51-.01h0Zm18.86-79.66c2.28.21,4.18-.46,5.34-1.76-2.15-.67-3.33,1.26-5.34,1.76Zm155.61,36.38c-.05.53.51,1.75,1.66,3.64.56-.04,1.14-.08,1.99-.15-1.41-1.35-2.56-2.45-3.65-3.5h0Zm-120.16-59.76c.85,1.04,1.62,2,2.55,3.14.51-2.92.25-3.22-2.55-3.14Zm115.68-26.42c.21-1.35-.3-2.35-1.51-2.98-.21,1.35.3,2.35,1.51,2.98Zm98.47,164.52c-1.88-1.27-3.06-2.08-4.51-3.06-.06,1.97,1.3,2.36,1.94,3.19.62-.03,1.1-.06,2.57-.14h0Zm-68.37-251.65c-.56-.63-1.12-1.25-1.68-1.88-.09.09-.17.17-.18.18v3.53h.94c.28-.56.58-1.15.92-1.83h0Zm29.68,243.67c-.09,2.18-.53,4.37-.04,6.66.57-.51.93-.84,1.09-.98-1.07-1.88-.19-3.92-1.05-5.68Zm-230.67-67.07c-.88.31-1.47.52-2.48.88,1.29.93,1.94,1.4,2.92,2.11.25-1.61.24-2.58-.44-3h0Zm-16.04,34.44c.07-1.3.12-2.2.16-3.05-.76-.51-1.2-1.9-2.47-.47.38.47.76.89,1.06,1.35.37.56.68,1.17,1.25,2.16h0Zm10.44-112.64v-3.95c-1.67,2.13-1.67,2.14,0,3.95Zm180.83-1.03c.44-.25.96-.56,1.45-.84-.52-1.04-.91-1.84-1.33-2.67-.35.08-.68.15-1.12.25.38,1.26.74,2.41,1,3.27h0Zm2.85-4.9c.43,1.17.76,2.09,1.09,2.97.4-.08.62-.13.96-.2v-2.77h-2.05Zm-184.18,80.63h2.22c-.06-.8-.12-1.47-.16-2h-2.06v2Zm223.58-63.48v-2.11h-2.09c.07.81.13,1.47.19,2.11h1.9Zm49.74,136.99c.93.63,1.41.96,1.91,1.29.79-.69,1.58-1.55.44-3.04-.62.46-1.23.91-2.35,1.75Zm-88.63-170.01c-.91.31-2.11-.53-2.09.72.73.88,1.33,1.6,2.09,2.53v-3.25Zm29.36-77.53h-2.12v2.09c.81-.07,1.47-.13,2.12-.19v-1.9Zm-39.45-3.07c-.09,2.23.62,3.3,1.9,2.67v-1.75c-.55-.27-1.22-.59-1.9-.93h0ZM80.94,183.04c1.74.75,3-.19,4.27-1.08-1.46.12-3.22-1-4.27,1.08Zm227.39,51.08v-3.67c-.84.45-1.54.82-2.6,1.39.86.75,1.42,1.25,2.6,2.28Zm-22.44-169.41c-1.45.66-2.29,1.12-2.08,2.61.87-.06,1.53-.11,2.08-.15v-2.46Zm-67.99-30.48h2.24c-.05-.78-.09-1.44-.14-2.22-1.42.24-2.22.72-2.1,2.22Zm-120,227.49c-.76,1.11-1.36,1.97-1.96,2.84.3.3.65.65.99.99,1.4-.87,1.3-2.16.96-3.84h.01Zm178.58-95.09c-.26.06-.52.13-.78.19v2.36c.84-.15,1.47-.26,2.54-.45-.79-.94-1.27-1.52-1.76-2.1Zm-137.05,75.04c-1.49-.91-2.51-.87-3,.37.34.41.63.77.92,1.12.74-.53,1.41-1.01,2.09-1.49h0Zm44.61-197.01c-1.34.4-2.26.76-2.04,2.31h2.21c-.06-.8-.11-1.46-.17-2.31h0Zm178.28,263.72h-2.24c.05.78.09,1.44.14,2.22,1.42-.24,2.22-.72,2.1-2.22h0ZM81.38,169.92c-1.37-1.02-2.8-1.48-4.27-1.38.06.43.13.85.21,1.4.42-.39.67-.64.94-.88,1.03.29,2.08.57,3.12.86h0Zm-.15,45.88c-2.12.74-2.96,1.64-3.52,3,.45.19.76.32,1.06.45.69-.97,1.34-1.88,2.46-3.45ZM283.35,8.89c1.11,1.11,1.79,1.89,2.58,2.54.36.29.93.32,1.41.47-1.07-1.15-1.54-2.96-4-3.01h.01Zm-10.98,233.13c.43.17.74.3,1.21.48.47-.63.92-1.24,1.06-1.43-.39-.79-.64-1.3-.96-1.95-.55,1.21-.91,2.02-1.31,2.89h0Zm1.21-177.55c.78-.92,1.45-1.71,2.37-2.8-.78-.18-1.32-.48-1.54-.33-.91.63-1.56,1.46-.83,3.13Zm-188.9,200.36c-1.29,0-2.36-.01-3.43.02-.09,0-.17.32-.26.49,1.2.23,2.13,1.67,3.54.7.03-.23.06-.46.16-1.21h-.01Zm-.31-68.98c1.13.06,2.04.1,2.95.15-.17-.21-.34-.42-.51-.63.54-.15,1.09-.31,1.63-.46-.11-.12-.23-.25-.34-.37h-2.42c-.38.38-.72.72-1.31,1.31h0Zm190.27-86.75v-2.19c-.78.05-1.44.09-2.25.14.42.63,1.86,1.94,2.25,2.05Zm-181.18,84.39v-.38h-3.65c.09.55.16.97.23,1.42,1.25-.38,2.33-.71,3.41-1.04h0Zm177.57-24.77c.51.78.59,2.29,2.35,1.54-.29-1.24-.72-2.08-2.35-1.54Zm-171.85,13.17c.46,1.5.83,1.83,1.82,1.8-.5-.49-1.38-1.37-1.82-1.8Zm135.78-38.34v-2.88h-1.19c-.46,1.26-.25,2.22,1.19,2.88Zm84.65,165.54h-2.88c.65,1.44,1.62,1.65,2.88,1.19v-1.19Zm87.55-50.66c.17,1.27.26,1.98.41,3.1.89-.68,1.43-1.1,2.14-1.64-.77-.44-1.41-.81-2.55-1.47h0Zm-228.46-14.56l.93-3.66c-.2-.06-.39-.12-.59-.17-.49,1.24-.98,2.49-1.51,3.84h1.17Zm-87.28-44.28h2.84c.02-.42.04-.75.07-1.3-1.23-.14-2.31-.26-2.91,1.3ZM187.65,42.22c1.72-.64,2.59-1.05,2.5-2.57-1.62-.16-2.05.69-2.5,2.57Zm75.25,114.92v2.12h1.1c.32-.72.61-1.36.94-2.12h-2.04Zm-172.98,71.74c-1.15.08-2.06.13-3.21.21,1.04,1.24,1.89,1.77,3.05,1.05.03-.24.06-.47.16-1.26h0Zm62.03-59.7h-2.89v1.19c1.28.45,2.23.23,2.89-1.19Zm137.76,131.87c-1.29,1.38-3.24-.25-4.69,1.07h4.61c.03-.4.05-.74.07-1.07h.01Zm-207.91-106.55h.37v-4.49h-.37v4.49Zm-39.92,111.21c-.55.53-.77.86-1.08,1.01-.35.18-.78.22-1.26.34.21.56.32.87.46,1.25,1.22-.21,2.01-.69,1.88-2.6ZM277.76,59.43c1.98-.95,2.4-1.34,1.85-1.9-.57.06-1.22.13-1.85.19v1.7h0Zm-203.01,105.66v-3.55c-.55.09-.97.16-1.61.27.51,1.04.92,1.88,1.61,3.28Zm3.82,38.4c-1.01-.69-1.49-1.01-2.02-1.37v2.75c.53-.36,1.01-.69,2.02-1.37h0Zm90.7-22.66c.56-.3,1.05-.56,1.9-1.01-1.17-.52-1.81-.81-3.27-1.45.8,1.44,1.16,2.09,1.37,2.47h0Zm106.44-115.8v2.34c.54-.11.87-.18,1.34-.27-.07-.76-.12-1.42-.18-2.07h-1.16Zm-171.63,123.66h-2.34c.11.54.18.87.27,1.34.76-.07,1.42-.12,2.07-.18v-1.16Zm135.01-34.53c-.14,2.51,0,2.68,1.88,2.57-.6-.83-1.23-1.69-1.88-2.57Zm138.93,136.74c-.66.13-.99.19-1.47.28.06.76.11,1.43.17,2.17.58-.11.91-.18,1.29-.25v-2.2h0Zm-211.67-22.27c.06.92-.86,2.23,1.24,2.16v-2.16h-1.24Zm-97.22-34.92c.82-.59,1.46-.99,1.98-1.5.14-.14-.07-.63-.14-1.14-.38.32-.59.58-.86.71-.39.19-.83.28-1.29.42.09.43.15.76.31,1.51Zm205.7-160.58h2.12v-1.25h-2.12v1.25Zm11.92-22.96c-1.47-.31-2.04.45-2.37,1.91.5.1.92.18,1.27.25.38-.73.69-1.34,1.11-2.15h0Zm-136.15,128.54c-1.17.08-2.1.14-3.58.25,1.4.66,2.21,1.04,3.21,1.51.12-.59.21-1.01.37-1.76Zm-105.54,126.39c.21,0,.41-.01.62-.02,0-.71.03-1.41,0-2.12-.04-.72-.14-1.43-.21-2.15-.13.02-.27.04-.4.06v4.23h0Zm243.66-139.02c.58-1.44.23-2.33-.97-2.96-.59,1.24-.22,2.12.97,2.96Zm-13.83-115.64c.72-.98,1.14-1.55,1.56-2.13-.24.13-.48.25-.71.38-.17-.57-.34-1.15-.51-1.72-.11.08-.22.16-.34.24v3.23Zm8.25-7.81v2.11h1.24v-2.11h-1.24Zm-134.77,131.76c0,.21,0,.41.02.62.71,0,1.42.03,2.12,0,.72-.04,1.44-.14,2.15-.21-.02-.13-.04-.27-.06-.4h-4.23Zm-72.21,9.02c.26.63.42,1.01.62,1.49,1-.49,1.8-.89,3.02-1.49h-3.64Zm9.18-7.18c1.42.58,2.32.22,3.03-1.12-1.28-.33-2.21-.12-3.03,1.12Zm198.55-12.94v3.51c.53-.08.95-.14,1.61-.24-.52-1.05-.93-1.89-1.61-3.27h0Zm-7.68-156.58c.9-.13,1.56-.22,2.7-.39-1.05-.64-1.61-.99-2.42-1.48-.11.71-.17,1.13-.28,1.87Zm3.29,158.62c.75,1.02,1.18,1.6,1.88,2.56v-2.56h-1.88Zm-83.86-127.49c-1.35-.34-1.81-.46-2.51-.64.06,1.02.11,1.68.15,2.33.62-.44,1.09-.78,2.36-1.69Zm125.74,264.37h.37v-3.74h-.37v3.74ZM104.88,159.25c-.9.13-1.56.22-2.7.39,1.05.64,1.61.99,2.42,1.48.11-.71.17-1.13.28-1.87Zm-26.74,141.9c-.14.74-.22,1.16-.33,1.73h2.69c-.96-.71-1.54-1.13-2.35-1.73h-.01Zm30.28-139.81c0-.13.02-.26.03-.39h-2.91c.08.53.14.95.17,1.15,1-.28,1.85-.53,2.71-.77h0Zm-29.74,105.54c.85-.65,1.23-.95,1.76-1.36-.67-.63-1.08-1.02-1.76-1.66v3.02ZM201.46,37.03c.76-.93,1.19-1.44,1.88-2.28-.83-.21-1.29-.32-1.88-.46v2.75h0Zm-27.82,17.77c-.78.99-1.2,1.53-1.88,2.38.84.19,1.3.29,1.88.42v-2.8Zm-27.01,216.88c-.52,1.18-.87,2.37,0,4.36v-4.36Zm-8.11-102.83v-.37h-2.99v.37h2.99Zm39.1-119.74c-.09.66-.18,1-.16,1.32.02.36.16.71.27,1.21.53-.53.87-.87,1.21-1.21-.34-.34-.68-.68-1.33-1.32h0Zm108.68,176.16c.16-.17.33-.33.49-.5-.06-.33-.13-.67-.22-1.16-.52.1-.94.18-1.87.35.77.63,1.19.97,1.6,1.31Zm-197.2,43.48h-1.59c.11.54.18.87.28,1.36.52-.11.93-.19,1.31-.27v-1.09ZM209.06,34.82c.54-1.12.87-1.79,1.25-2.57h-1.46c.07.81.12,1.47.21,2.57Zm-122.07,145.58c0,.22.01.43.02.65.92-.06,1.83-.12,2.75-.19,0-.15-.02-.31-.03-.46h-2.74Zm-14.21,24.7v.65c.92-.06,1.85-.13,2.77-.19,0-.15-.02-.3-.02-.46h-2.75Zm73.35,64.84c.61-1.34.92-2.02,1.26-2.79h-1.26v2.79Zm-39.94-84.55c0-.22,0-.43-.01-.65-.92.06-1.83.12-2.75.19,0,.15.02.31.03.46h2.73Zm118.41-28.38c.07-1.67-.55-1.68-1.55-1.1.07.39.14.72.21,1.1h1.34Zm3.04,10.42c-1.16-.62-1.65-.88-1.8-.96-.32.14-.83.37-1.34.6.09.12.18.24.27.37h2.87Zm58.3-109.88c-1.67-.07-1.68.55-1.1,1.54.39-.07.72-.14,1.1-.21v-1.33Zm-194.45,209.37h.65c-.06-.92-.13-1.84-.19-2.77-.15,0-.3.02-.46.02v2.75Zm55.15,10.01c-.22,0-.43,0-.65.01.06.92.12,1.83.19,2.75.15,0,.31-.02.46-.03v-2.73h0Zm22.58-10.8v-.37h-2.25v.37h2.25Zm152.85,38.97c.22-.01.45-.02.67-.04-.09-.66-.19-1.32-.28-1.99-.13.01-.26.02-.39.04v1.99Zm-153.72-41.9c0-.22-.03-.45-.04-.67-.66.09-1.32.18-1.98.28,0,.13.02.26.04.39h1.99-.01Zm-70.93-52.44c.57-.31,1.06-.57,2.21-1.19h-2.21v1.19Zm7.55,7.52c.22,0,.44,0,.66,0-.09-.67-.18-1.34-.27-2-.13,0-.26.02-.39.03v1.99h0Zm60.7-139.25c-.57-.56-.96-.93-1.9-1.85.27,1.26.35,1.67.45,2.12.49-.09.82-.16,1.45-.28h0Zm-125.34,216.58c-.22.02-.44.04-.66.07l.28,1.96c.13-.01.25-.03.38-.04v-1.98h0Zm46.67-54.15c.22,0,.44,0,.66,0-.09-.67-.18-1.34-.27-2-.13,0-.26.02-.39.03v1.99h0Zm-42.18,37.68c-.21.01-.43.03-.64.04.09.42.18.83.27,1.25.12-.02.25-.03.37-.05v-1.24h0Zm36.94-63.86c.22-.03.43-.05.65-.08-.1-.41-.19-.82-.29-1.22-.12.02-.24.04-.36.06v1.24ZM273.89,43.46c-.22.03-.43.05-.65.08.1.41.19.81.29,1.22l.36-.06v-1.24Zm-167.69,126.22c-.03-.22-.05-.43-.08-.65-.41.1-.81.19-1.22.29.02.12.04.24.06.36h1.24Zm-7.18,6.86h.37v-1.5h-.37v1.5ZM225.97,32.23c-.22.03-.43.05-.65.08.1.41.19.81.29,1.22.12-.02.24-.04.36-.06v-1.24Zm78.86,260.92c.22-.03.43-.05.65-.08-.1-.41-.19-.81-.29-1.22-.12.02-.24.04-.36.06v1.24Zm-226.83-106.01c.01.21.03.43.04.64.42-.09.83-.18,1.25-.27-.02-.12-.03-.25-.05-.37h-1.24Zm16.33,114.17v-.37h-1.5v.37h1.5Zm-18.09.81c-.03-.22-.05-.43-.08-.65-.41.1-.81.19-1.22.29.02.12.04.24.06.36h1.24Zm17.95-71.09c0-.21-.02-.43-.03-.64-.42.09-.84.18-1.26.28.02.12.03.25.05.37h1.24Zm-12.46-20.2c.22-.03.43-.05.65-.08-.1-.41-.19-.82-.29-1.22-.12.02-.24.04-.36.06v1.24Zm136.99-59.62l.08.65,1.22-.29c-.02-.12-.04-.24-.06-.36h-1.24Zm174.94,134.68c-.22.03-.43.05-.65.08.1.41.19.81.29,1.22.12-.02.24-.04.36-.06v-1.24Zm-59.89,23.2c-.22.03-.43.05-.65.08.1.41.19.81.29,1.22.12-.02.24-.04.36-.06v-1.24Zm-8.11.07v.37h1.5v-.37h-1.5ZM98.27,160.07h.37v-1.5h-.37v1.5Zm213.18,148.66v-.25h-.75v.25h.75Zm-8.24-14.47v.25h.75v-.25h-.75Zm-205.13-114.24v-.25h-.75v.25h.75ZM251.3,62.05h-.25v.75h.25v-.75Zm-34.44,17.96h-.25v.75h.25v-.75Zm-136,109v-.25h-.75v.25h.75Zm-34.94,92.29h.25v-.75h-.25v.75Zm31.44-88.3h.25v-.75h-.25v.75Zm97.57,47.14h-.25v.75h.25v-.75Z"/>
        <path class="cls-1" d="m383.32,291.77c.79.11,1.4-.1,1.93-.76.27-.34.75-.53,1.17-.72.21-.09.49-.02.59-.02.9.95,1.73,1.83,2.95,3.13v4.28c-1.52,1.2-3.21,2.52-4.93,3.87-1.23-.55-2.44-1.1-4.33-1.95.74,1.68,1.18,2.68,1.67,3.8-.58,1.14-1.25,2.44-1.89,3.7-1.08.35-2.05.67-3.39,1.11-.97-.62-2.23-1.42-3.49-2.22,0-.37.16-.93-.03-1.09-1.45-1.21-.66-2.46.06-3.47.97-1.37,2.23-2.54,2.89-3.27,2.06-.96,2.52.39,3.38,1,.22.16.66.02,1.03.02-.26-.84-.49-1.57-.69-2.2,1.1-1.82,2.84-3.07,3.08-5.21h0Zm.88,3.26v2.65h1.99c.52-.9,1.02-1.77,1.52-2.64-1.1-1.27-2.21-1.57-3.51,0h0Zm-5.5,10.13v-3.61h-1.99v3.61h1.99Z"/>
        <path class="cls-1" d="m14.88,317.4c.94.69,2.07,1.52,3.16,2.32-.94,2.97-1.64,4.6-11.17,7.96-1.03-.34-2-.66-3.05-1v-2.39c2.82-3.11,6.58-5.17,11.06-6.88h0Zm-7.4,6.92c2.56-.54,5.21-.66,6.67-3.08-2.03-1.5-2.66,1.61-4.47,1.32-.62-.1-1.46,1.13-2.2,1.76h0Z"/>
        <path class="cls-1" d="m158.72,89.23v-2.87c.87-.84,1.75-1.7,2.66-2.58,2.05-.19,4.02.04,5.78,2.12-.35,2.52-.65,5.36-1.21,8.14-.19.93-1.06,1.72-1.74,2.76-2.92-1.91-3.79-4.98-5.49-7.56h0Zm2.74-1.91c.59,1.6,1.05,2.82,1.8,4.85.69-1.97,1.1-3.11,1.46-4.12-.47-.83-.85-1.49-1.37-2.41-.69.61-1.2,1.07-1.89,1.68h0Z"/>
        <path class="cls-1" d="m22.18,308.33c.71.71,1.24,1.24,1.67,1.67v2.89c-1.02-.39-1.84-.71-2.73-1.05-1.24.39-1.82,1.85-3.45,1.76-1.09-.06-2.25.99-3.34,1.52-1.3-.89-2.46-1.68-3.72-2.54-.7-2.74,1.78-3.17,3.25-4.27,1.45-.45,3.13.64,4.54-.76.25-.25,1.28.3,1.95.45.57.13,1.16.21,1.82.33h.01Zm-7.09,2.28l.07.66,1.96-.28c-.01-.13-.03-.25-.04-.38h-1.99Z"/>
        <path class="cls-1" d="m120.23,267.33c-.68-1.03-1.26-1.9-1.9-2.87-.45-3.62,1.52-6.22,4.27-8.77.71.26,1.56.58,2.16.8,1.03,4.74-.29,8.19-4.53,10.85h0Zm2.49-6.81c-.57.31-1.06.57-2.21,1.19h2.21v-1.19Z"/>
        <path class="cls-1" d="m119.15,328.37h-2.05c-.56-.56-1.09-1.09-1.71-1.71v-3.92c1.29-1.29,2.61-2.61,4.09-4.08.54.14,1.36.12,1.83.51,1.81,1.51,1.48,3.66,1.48,5.93-1.04.94-2.21,1.99-3.64,3.27Zm1.59-5.76c-.84-.07-1.51-.12-2.12-.17-.35.79-.64,1.46-.97,2.21h1.98c.06-.37.03-.74.18-1.02.16-.31.48-.53.93-1.01h0Z"/>
        <path class="cls-1" d="m54.58,312.06c.58,3.57-1.93,5.19-3.8,7.16-1.22.36-2.43.72-4,1.19-.44-.79-.93-1.65-1.85-3.28,0-1.84,4.89-5.08,9.65-5.07Zm-5.53,4.03c.12.13.25.26.37.4.44-.03.88-.06,1.48-.11-.04-.53-.06-.93-.1-1.43-.7.45-1.23.8-1.31,1.58-.05-.05-.1-.1-.15-.15l-.61.52.24.24c.17-.2.35-.41.07-1.05h.01Z"/>
        <path class="cls-1" d="m135.36,194.55c-1.43-1.04-2.93-2.34-2.75-4.2.22-2.24,1.24-4.32,3.53-5.56,2.01.33,3.51,1.73,3.87,3.74.4,2.2-1.05,4.1-4.65,6.01h0Zm.37-3.11c1.28-.63,1.58-1.55,1.06-2.86-1.28.63-1.58,1.55-1.06,2.86Z"/>
        <path class="cls-1" d="m116.97,276.61c.88-3.21,3.29-5.08,5.35-7.19h2.69c.17,3.64-.82,6.59-3.89,8.71-2.11,1.45-2.28,1.44-3.6-.95-.11-.21-.34-.35-.55-.57h0Zm3.57-1.79v.25h.75v-.25h-.75Z"/>
        <path class="cls-1" d="m107.81,317.01c4.36-4.75,5.41-5.17,8.17-3.25v3.04c-.78,2.12-2.57,3.54-5.57,4.19-.79-1.32-2.87-1.82-2.6-3.99h0Zm3.74-.28v.25h.75v-.25h-.75Z"/>
        <path class="cls-1" d="m128.65,195.41c.11-1.01.17-1.6.24-2.3h2.72c.51,1.31,1.48,2.78,1.55,4.29.06,1.37-.88,2.79-1.39,4.22-.79.39-1.61.79-2.55,1.26-.56-.71-1.09-1.38-1.86-2.34v-4.36c.31-.19.94-.56,1.29-.77h0Z"/>
        <path class="cls-1" d="m113.8,286.85v-1.62c1.52-1.29,3.14-2.68,4.74-4.04,2.21,1.94,3.37,3.35,3.49,4.22-1.77,1.74-3.4,3.67-6.3,4.24-.5-.73-1.05-1.53-1.93-2.81h0Zm3.74-1.55v.25h.75v-.25h-.75Z"/>
        <path class="cls-1" d="m30.39,321.26c-.5-.89-.99-1.76-1.47-2.62-.15.15-.31.3-.46.45v-3.86c1.59-.76,2.7-2.54,4.82-2.57.88.94,1.72,1.84,2.63,2.8-.3,3.08-3.15,3.94-5.51,5.8h-.01Zm2.42-4.17c0-.21-.02-.43-.03-.64-.42.09-.84.18-1.26.28.02.12.03.25.05.37h1.24Z"/>
        <path class="cls-1" d="m120.96,295.33c-1.24.59-2.35,1.27-3.54,1.64-.79.24-1.71.05-2.93.05-.3-1.09-.6-2.2-.99-3.6,2.46-1.13,4.76-2.19,7.29-3.36.6.81,1.17,1.59,1.92,2.6.04-.11-.03.24-.22.52-.52.78-1.08,1.53-1.53,2.15Z"/>
        <path class="cls-1" d="m134.17,212.67c-.73-.3-1.33-.42-1.77-.76-.45-.34-1.51-3.66-1.36-4.22.34-1.21.66-2.46,1.26-3.54.26-.48,1.18-.6,1.78-.87,2.68,2.03,2.19,4.74,2.14,7.33l-2.05,2.05h0Z"/>
        <path class="cls-1" d="m122.28,233c.28-1.79.48-3.06.68-4.35.55-.66,1.17-1.4,1.98-2.37.86.82,1.55,1.47,2.24,2.12.34,3.12.34,6.09-2.72,7.99-2.29-.24-1.17-2.7-2.18-3.4h0Z"/>
        <path class="cls-1" d="m130.27,244.16c-1.14,1.48-2.23,2.9-3.43,4.45-.86-.32-1.62-.6-2.43-.9v-5.01c.77-.79,1.63-1.68,2.45-2.53,1.78-.46,2.42.99,3.41,1.85v2.15h0Z"/>
        <path class="cls-1" d="m395.96,279.58c.69-1.88,1.69-3.59,3.63-4.22,1.04,1.04,1.98,1.98,3.32,3.33.29,1.41-1.76,1.9-2.55,3.27h-2.56c-.38-.49-.98-1.26-1.84-2.37h0Zm3.32.21h.25v-.75h-.25v.75Z"/>
        <path class="cls-1" d="m215.57,62.98c-1.17-.24-2.21-.2-2.97-.64-2.25-1.32-5.06-.94-7.18-2.54-2.26.29-4.48-.2-6.84.61-2.83.98-5.78,1.62-8.44,3.12-4.31,2.43-7.52,5.74-8.99,10.59-.26.87-.85,1.64-1.28,2.44-.38,2.83-.76,5.67-1.15,8.6h-1.89v-8.68c.28-.25.74-.66,1.25-1.12v-1.74c1.17-2.23,1.77-4.46,3.2-5.82,1.44-1.37,2.37-3.2,4.05-4.31,1.77-1.17,3.52-2.38,5.48-3.7h1.99c.42-.44.86-.88,1.27-1.31.26-.07.48-.16.71-.19,2.01-.26,4.27-.02,5.99-.87,2.39-1.19,4.45-.53,6.52.19,1.41.49,2.75.74,3.79.68,1.14.61,1.92,1.25,2.79,1.45,1.56.35,1.88,1.31,1.72,3.22l-.02.02Z"/>
        <path class="cls-1" d="m219.34,62.83c-1.35-1.92-2.27-3.23-3.34-4.76.98-.67,1.77-1.21,2.8-1.92.29.13.99.46,1.81.84.3.61.65,1.32,1.08,2.18-.62.96-1.29,2-2.36,3.66h0Z"/>
        <path class="cls-1" d="m187.21,84.91v-3.49c1.06-.29,2.17-.59,3.33-.9.68,1.07,1.25,1.96,1.88,2.96-.88,1.12-1.82,2.29-2.94,3.71-.88-.88-1.51-1.51-2.28-2.28h0Z"/>
        <path class="cls-1" d="m96.22,145.59c-.69,1.46-1.28,2.7-1.89,4-.66,0-1.17.11-1.6-.03s-.78-.52-1.26-.86v-2.6c.49-.49,1.1-1.1,1.83-1.83.76.34,1.57.71,2.91,1.32h0Z"/>
        <path class="cls-1" d="m166.91,65.42c-1.39,1.66-2.49,1.36-3.63.05v-2.55h2.04c.46.73,1.03,1.63,1.59,2.51h0Z"/>
        <path class="cls-1" d="m100.98,168.97v2.25c-1.48.27-1.85-.67-2.36-1.93.93-.13,1.69-.24,2.36-.33h0Z"/>
        <path class="cls-1" d="m98.33,166.81v-.75h.25v.75h-.25Z"/>
        <path class="cls-1" d="m92.17,222.63c-.51.24-1.02.48-1.53.72-.03-.03-.37-.37-.93-.93.87-.11,1.55-.19,2.22-.28.08.16.16.33.24.49h0Z"/>
        <path class="cls-1" d="m384.47,285.02h-1.37c-1.02-.95-1.93-1.79-2.79-2.58-.03-2.22,1.23-3.62,2.67-4.88h2.23c.44.59,1.03,1.37,1.82,2.43v2.31c-.93.99-1.78,1.89-2.57,2.73h0Zm-1.15-4.42c-.07,1.67.55,1.68,1.55,1.1-.07-.39-.14-.72-.21-1.1h-1.34Z"/>
        <path class="cls-1" d="m363.1,296.29v4.11c-.6.56-1.22,1.15-1.93,1.82h-2.37c-.72-.98-1.56-2.11-2.6-3.51.25-1.38.54-2.97.8-4.38.83-.35,1.36-.57,2.15-.9,1.17.85,2.55,1.85,3.94,2.86h.01Zm-3.02,3.17l.65-.33v-2.15c-.8.06-1.46.11-2.74.2.95,1.04,1.52,1.66,2.09,2.28h0Z"/>
        <path class="cls-1" d="m75.37,139.12v.75h-.25v-.75h.25Z"/>
        <path class="cls-1" d="m79.35,144.53c.48-.04.95-.08,1.43-.12.02.16.04.32.07.48-.49.1-.98.19-1.46.29-.01-.22-.02-.43-.03-.65h-.01Z"/>
        <path class="cls-1" d="m79.37,146.6l-.75-.93.75-.57v1.5Z"/>
        <path class="cls-1" d="m82.11,142.86v.75h-.25v-.75h.25Z"/>
      </g>
    </g>
  </g>
</svg>
