<?xml version="1.0" encoding="UTF-8"?>
<svg id="Layer_2" data-name="Layer 2" xmlns="http://www.w3.org/2000/svg" viewBox="0 0 293.35 368.48">

  <defs>
    <style>
     @import url(../css/art.css)
    </style>
  </defs>
  <g id="Layer_1-2" data-name="Layer 1">
    <g id="Layer_1-2" data-name="Layer 1-2">
      <g>
        <path class="cls-1" d="m79.34,368.47c-.18-.55-.18-1.32-.56-1.61-1.06-.83-1.03-1.88-.85-3.22.99-1.08,1.75-2.7,3.45-3.4,2.13.25,2.71,2.27,3.93,3.49.25,2.1-1.47,3.19-2.24,4.75h-3.74,0Zm2.93-5.36c-.66.13-.99.19-1.47.28.06.76.11,1.42.17,2.17.58-.11.91-.18,1.29-.25v-2.2h.01Z"/>
        <path class="cls-1" d="m215.5,100.52v-3.37c-.44-.44-.88-.88-1.32-1.32v-3.35c1.2.98,2.01,1.65,2.77,2.27.18,1.28-.38,2.67,1.29,3.48.57-1.75.25-3.36-.64-4.85-.69-.43-1.39-.85-2.06-1.26v-4.76c.42-.36.95-.8,1.74-1.47.54,2.1,1,3.86,1.45,5.59.34.02.58.04,1.05.07.47-1.64.08-3.33.24-4.86-1.01-1.01-1.89-1.89-2.85-2.85-.14-.84-.12-1.85-.5-2.68-.45-1,.65-1.58.37-2.52-.29-.95.04-1.87.68-2.69.18-.23.19-.86,0-1.08-1.44-1.77-.4-3.74-.91-6.29.94.69,1.38.91,1.67,1.25.46.54.83,1.17,1.46,2.08v2.78c.75.38,1.36.7,2.06,1.05.06-.24.28-.6.22-.9-.26-1.26-.6-2.51-.95-3.91-1.44-.15-1.34-2.13-2.68-2.84v-4.81c.31-.08.64-.16.98-.24.91,2.29,1.8,4.54,2.69,6.79.2-.02.39-.05.59-.07.06-1.11.12-2.22.14-2.5-1.49-3.74-4.29-6.07-3.71-9.93.64-.12,1.32-.24,2.88-.53-1.29-.34-2.01-.53-2.01-.53-.17-3.97.31-6.97,1.42-9-.24-.31-.52-.68-.87-1.13,1.35-2.03.55-4.42.85-6.67,2.2-2.36,1.19-5.3,1.49-8.3.43-.26,1.06-.66,1.43-.88v-5.8c.41-.14.84-.28,1.4-.47v-7.57c.48-.49.84-.84,1.23-1.23,1.82,0,3.7-.12,5.55.04,1.64.14,3.25.6,5.36,1.02.13.35.81,1.23.62,1.83-1.01,3.18-2.24,6.3-3.59,9.96.35,2.7-1.39,5.61-1.72,8.83-.32,3.16-1.67,6.22-2.78,9.28-1.06,2.93-1.49,6.09-2.2,9.17,2.6,1.13,5.12-.35,7.71-.57,1.01-.08,2.03-1.19,2.85-2.03.98-1,1.71-2.25,2.64-3.31,1.03-1.18,2.18-2.21,2.95-3.64.73-1.35,1.92-2.44,2.85-3.7.91-1.23,1.58-2.66,2.62-3.76,1.83-1.93,3.83-3.68,5.49-5.77.21-.27.92-.14,1.65-.22,1.22,4.06,4.71,6.81,6.37,10.8-2.34,1.94-5.29,1.72-7.61,1.06-2.49-.71-4.81-.17-6.7-.54-2.8,3.57-5.39,6.86-8.04,10.23,1.88.9,3.68-.39,5.55-.68.56-.08,1.1-.62,1.61-.57,3.82.4,7.59-.27,11.27-.91,3.55-.62,7.04-.48,10.56-.63.47-.02,1-.05,1.38-.27,2.18-1.31,4.57-1.24,6.98-1.22,4.85.03,9.7,0,14.83,0-.05,2.22.4,4.4-.76,6.39-.91,1.58-.69,3.26-.74,4.95-.76,1.44-1.75,2.79-1.51,4.61.19,1.5-.32,2.83-1.56,3.95.77,3.53-1.21,6.64-1.76,10.01-.11.7-.43,1.4-.37,2.08.15,1.53-.46,2.75-1.41,4.22-.59-.78-1.1-1.46-1.67-2.21.57-3.24-.81-5.96-2.59-8.56-1.67-2.43-3.59-4.73-4.94-7.32-.83-1.6-1.82-3.15-2.26-5.06-.78-3.34-2.27-6.52-3.45-9.72-3.2.29-6.08,1.33-9.16,1.23-1.77-.06-3.64-.62-5.41.44-1.45.87-3.44-.49-4.83.99-.06.06-.24.02-.37,0-3.8-.3-7.53.35-11.63,1.06-.29.84-1.78.93-2.5,2.07-.64,1.02-1.9,1.7-2.38,2.77-.52,1.16-1.52,1.85-2.24,2.71-2.22,2.68-4.85,5.01-7.31,7.47v5.25c-.44.44-.88.88-1.5,1.5.03.51.08,1.19.17,2.54,1.3-1.66,3.05-1.04,4.03-2.25.87-1.08,2.38-.73,3.44-1.75,1.08-1.04,2.89-1.74,4.4-1.78s1.82-1.73,3.12-1.6c1.21.12,2-.85,2.91-1.09,2.95-.78,5.44-2.63,8.34-3.36,1.6-.4,2.63-2.4,4.6-1.56.87-1.69,2.85-1.59,4.23-2.5,1.97-1.3,4.41-1.96,6.72-2.67.62-.19,1.5.45,2.49.79-.37.71-.73,1.1-.75,1.5-.1,2.62-1.49,4.97-1.7,7.51-.13,1.55-.92,2.64-1.54,4.51.22,1.57-.02,3.81-1.1,5.63-.92,1.56.07,3.12-.67,4.61-.61,1.23-1.19,2.63-1.2,3.96-.04,3.26-.23,6.43-1.5,9.51-.4.96-.06,2.22-.06,3.55.47.37,1.05.82,1.49,1.17v1.73c-.36.36-.71.71-1.09,1.09h-1.73c-.07-.75-.16-1.56-.25-2.53-.91-1.55-2.55-2.82-2.98-4.95-.17-.83-1.45-1.4-1.75-2.25-.98-2.79-3.34-4.57-4.86-6.96-1.47-2.31-3.34-4.36-4.95-6.57-.32-.44-.29-1.13-.36-1.43-1.68-2.42-3.23-4.65-4.78-6.88-5.13,3-10.75,4.46-15.46,8.24.26.89.58,1.99,1.05,3.6-.54.23-1.24.53-1.43.61-.3,2-.51,3.39-.78,5.11.17.97.42,2.37.69,3.86-.67.51-1.26.96-1.56,1.18-.54,3.01.59,5.78-.92,8.35.49.89,1,1.8,1.58,2.86-.72,1.08-1.5,2.24-2.29,3.41,1.28,1.21.89,2.68.4,4.03-.65,1.79-.53,3.52-.07,5.3.15.57.58,1.38.35,1.66-1.25,1.56-.56,3.32-.67,4.97-.1,1.43-.08,2.81-.71,4.21-.51,1.14.47,2.65-.76,3.83-.31.3-.02,1.2-.05,1.82-.08,1.71.28,3.63-.39,5.07-.68,1.48.42,3.23-1.06,4.47-.31.26-.06,1.19-.04,1.82.08,3.5-.45,6.89-1.46,10.24-.24.8-.04,1.74-.04,2.81-.47.37-1.05.83-1.64,1.29.18.49.33.8.41,1.14.16.67.64,1.7.37,1.97-1.58,1.55-1.36,3.73-2.01,5.56-.59,1.66-.13,3.7-.13,5.74-.4.29-.9.66-1.38,1.01v3.42c-.15-.03-.3-.07-.46-.1-.63,1.97-1.39,3.92-1.87,5.93-.43,1.82-.65,3.65-1.46,5.39-.73,1.56-1.02,3.32-1.58,4.96-.59,1.75-1.59,3.42-1.83,5.21-.36,2.7-2.53,4.93-1.85,7.75l-1.29,1.29c-.36,2.37-.7,4.61-1.06,6.93-.58.64-1.23,1.35-1.94,2.13-.9-.32-1.67-.59-2.6-.91-.32.18-.83.46-1.46.82-.35-.27-.72-.56-.97-.75-1.36.22-2.63.59-3.91.61-5.24.07-10.48.23-15.71-.03-5.43-.27-10.81.38-16.13.98-3.79.43-7.6.03-11.29.66-3.41.58-6.78.54-10.18.7-1.13.05-2.23.63-3.23.93-.76-1.13-1.35-2.01-2.19-3.27v-5.87h-2c-.05.37-.07.72-.15,1.06-.44,1.92,1.89,3.83,0,5.74v5.99c0,2.12.09,4.25-.02,6.36-.38,7.88-1.04,15.74-.76,23.64.02.65-.39,1.31-.65,2.11.25.69.56,1.56,1.01,2.8.21.02.89-.11,1.32.16,2.18,1.32,4.41,2.75,5.76,4.91,1.4,2.24,3.02,4.39,3.87,6.99.33,1.03.63,1.99.72,3.08.12,1.53.5,3.03.7,4.56.19,1.41-.13,2.78.65,4.24.57,1.07.11,2.69.11,4.37-.55.35-1.28.81-2.02,1.28.1.11.21.21.31.32-.23.05-.45.15-.68.15-4.61,0-9.23.02-13.84,0-1.43,0-2.78-.16-4.21-.66-3.7-1.3-7.15-1.24-11.7-.1-.59.15-1.24.02-2.07.02-.62-3.73.06-7.41.53-11.1.44-3.5.97-6.98,2.9-10.87,4.52-4.52,7.8-6.97,9.84-7.36,0-1.26-.1-2.61.02-3.94.16-1.68-.53-3.42.46-5.04.9-1.47-.36-3.31.92-4.89.55-.68.13-2.17.08-3.29-.21-4.73.69-9.32,1.61-13.95,1.11.95,1.3,2.19.59,3.71.24.33.52.7.94,1.26-.52.69-1.09,1.44-1.65,2.19.44,1.17,1.46,2.21.1,3.57-.44.44-.08,1.67-.08,2.55v18.35c-.87.87-1.75,1.75-2.62,2.63h-2.46c-1.73,1.64-3.65,3.29-5.35,5.15-.75.81-1.32,2-1.48,3.09-.48,3.15-2.61,6.05-1.28,9.58h2.46c1.77-1.98-2.32-2.74-.75-5.21.51-.29,1.61-.92,2.78-1.59.61.32,1.13.58,1.6.82h7.67c-.27-1.86-.52-3.61-.71-4.95,1.64-1.46,2.97-2.65,4.57-4.07.47.47,1.06.98,1.54,1.58.52.64.95,1.37,1.5,2.17v3.39c-1.71,2.96-3.53,5.7-3.75,9.32,1.68.36,3.4.12,5.09.16,1.73.04,3.45,0,5.28,0,.38-3.41.56-6.84-.74-9.79-1.57-3.56-3.45-7.15-7.25-9.64-.06,0-.54-.03-1.1-.06-.41-.59-.75-1.36-1.32-1.86-.59-.53-1.41-.81-2.17-1.23,0-4.47-.06-8.82.03-13.17.03-1.27.48-2.54.71-3.81.2-1.16-.39-2.4.66-3.5.38-.4.09-1.43.09-2.18,0-2.74-.1-5.49.04-8.23.08-1.53-.45-2.78-1.23-4.41-.21,1.01-.37,1.73-.52,2.43-.35.03-.6.04-.98.07-.98-2.5.19-4.9.43-7.33.25-2.48.44-4.97.72-8.08-1.57,2.1-2.81,3.75-4.04,5.41-1.22,1.49.71,2.04,1.36,3.63-.55.14-1.21.3-2.66.65-3.85-.95-9.15,0-14.4-.23-.34-.02-.72.63-1.13,1.01,1.44,1.56,1.16,3.99,2.89,5.48.36.31.05,1.42.05,2.07.52.52.96.96,1.45,1.45v2.33c.52.4,1.1.86,1.68,1.32l-.47.25c.98,2.96,1.97,5.92,2.95,8.88.6,1.28.35,2.66,1,4.11.52,1.17,1.22,2.55.94,4.13-.26,1.45-.06,2.98-.06,4.42-.93,1.55-1.84,3.06-3.05,5.07v2.71c-1.71-.59-1.08,1.99-2.75,1.73-.86-.13-1.87.78-3.35,1.48h-5.74v4.12c.46.46.9.9,1.32,1.32v3.94c-.36.36-.63.63-.96.96h-3.89c-2.7-3.79-2.56-4.71,1.36-8.74-.37-.54-.77-1.12-1.22-1.77-3.27.87-5.96-1.51-9.12-1.49-.77-.77-1.56-1.56-2.55-2.55.25-1.44-.45-3.07.67-4.72.35-.51-.37-1.74-.69-2.99.37-.75.89-1.78,1.53-3.07v-3.43c.44-.44.88-.88,1.41-1.4v-3.92c.48-.3,1.12-.69,1.78-1.1-1.18-3.06,1.83-5.06,1.3-7.81.44-.44.88-.88,1.43-1.43.04-.73.08-1.57.12-2.36.49-.49.93-.93,1.41-1.41v-2.35c.5-.4,1.09-.86,1.23-.97.38-2.02.66-3.52,1-5.32-4.33,0-8.65-.06-12.97.03-2.15.05-4.39-.56-6.43.71-.87.54-1.63-.99-2.82-.09-.63.47-2.08-.07-3.14-.26-1.03-.19-2.03-.49-3.04-.79-.21-.06-.36-.34-.73-.71,0-1.02.2-2.28-.06-3.45-.24-1.1-1.4-2.08.13-3.32-.8-.52-1.55-1.01-2.46-1.6,1.02-1.26.87-2.51.3-4.14-.46-1.31-.8-2.66-1.49-3.96.21-.37.47-.85.85-1.53-.64-.19-1.06-.32-1.81-.54.89-3.96-1.43-7.54-1.6-11.52-1.79-1.93-1.09-4.69-2.05-6.95-.12-.27.39-.81.62-1.25-.36-.36-.8-.8-1.5-1.5,0-1.07.14-2.43-.06-3.74-.11-.75-.79-1.41-1.31-2.26v-5.95c-.51-.4-1.09-.86-1.54-1.21,0-2.61,0-4.98-.2-7.34,2.52,0,4.84,0,7.16-.02.17,0,.35-.27.57-.46-.08-.3-.16-.63-.25-.98h-6.19c-.4.39-.75.74-1.29,1.45-.57-.59-1.33-1.18-2.14-1.81.34-.94.65-1.8.99-2.75-.59-.68-1.14-1.31-1.79-2.06.29-.48.59-.97,1.04-1.73-.82-.88-1.7-1.83-2.87-3.08.82-.34,1.3-.54,1.78-.74.88-1.65-.62-2.38-1.47-3.34.22-.67.39-1.23.6-1.77.4-1.04.6-2.04-.16-3.05-1.17-1.55-1.35-3.18,0-4.89-.61-.78-1.12-1.42-1.86-2.37.17-.82.41-1.95.72-3.45-.31-.55-.82-1.46-1.3-2.32.27-1.24.54-2.48.83-3.83-.58-.13-.92-.21-1.35-.31-1-1.03,0-1.89.46-2.88-1.33-1.68-.55-3.71-.87-5.77-.24-.2-.61-.53-.98-.85-1.34.43-2.87.67-4.12,1.4-1.38.81-2.78.6-4.18.71-1.47,1.62-3.43,1.53-5.21,1.47-.57.58-1.02,1.02-1.49,1.49-3-.37-5.35,1.37-8.01,2.44.4.44.65.71.92,1.01-1.23,2-.64,4.24-.8,6.43-.74,1.41-1.66,2.76-1.53,4.58.07,1-.17,2.25-.76,3-.81,1.03-.58,2.06-.71,3.13-.68.36-1.39.74-2.42,1.29-1.64-1.65-3.21-3.6-5.16-5.05-1.96-1.46-3.08-3.67-5.31-4.99-1.74-1.03-2.74-3.33-5.02-3.88v-1.75c3.33-1.02,6.26-3.49,10.11-3.24.44-.44.88-.88,1.32-1.32,1.92-.1,3.71-.64,5.37-1.61h3.78c.37-.43.77-.9,1.22-1.43h3.28c-.03-.13-.06-.26-.09-.38,2.28-.8,4.55-1.61,7.62-2.69.79.02,2.39-.03,3.95-.96.96-.57,2.29-.53,3.5-.77.99-.68,2.07-1.42,3.21-2.21v-2.17c-.76-1.12-1.42-2.43-2.39-3.43-1.25-1.29-2.78-2.3-4.15-3.48-1.26-1.08-2.91-1.46-4.01-3.03-.9-1.28-2.92-1.78-4.34-2.57-4.73,3.66-9.46,7.32-14.44,11.18-.52-.49-1.21-1.15-1.89-1.8-.3-1.84.04-3.53.58-5.3.58-1.92,1.03-3.93.87-6.04-.08-.99.26-2.13.73-3.03,1.03-1.95.57-4.03.75-6.09,2.73-1.27,2.61,1.73,3.99,2.63.5.06,1.09.13,1.61.19.32.5.55,1.28.93,1.36,1.3.26,1.83,2.19,3.48,1.56.43,1.34,1.66,1.68,2.73,2.27,1.13.63,2.14,1.46,3.2,2.22,1.06.76,2.09,1.56,3.17,2.3.47.32,1.03.52,1.53.81,1.97,1.12,4.03,2.11,5.48,3.95.2.25.59.34.91.52,1.69-1.33-.22-2.38-.19-3.55.03-1.14-.29-2.29-.5-3.77.09-.15.39-.64.81-1.34-.59-.23-.99-.39-1.59-.63v-4.63c-.63-.5-1.22-.96-1.91-1.51.36-.99.67-1.86.99-2.73-.53-1.02-1.06-2.04-1.63-3.15.33-.76.65-1.49.98-2.24-1.41-.48-1.86-1.64-2.37-2.8.28-.5.56-1.01,1.02-1.82-.61-.36-1.26-.73-1.58-.92-.34-3.63-.55-6.82-2.35-9.73.25-.84.55-1.83.86-2.83-1.94-.47-2.93-1.52-2.97-3.14.43-.15.86-.31,1.59-.57-.62-.87-1.16-1.61-1.78-2.48.19-2.38.03-4.87-1.34-7.13.05-4.08-2.56-7.63-2.38-11.74-1.37-2.77-.83-6.01-2.18-8.83-.39-.81.01-1.97-.08-2.96-.11-1.16-.36-2.3-.64-4.01.26-.53.76-1.57,1.1-2.25,3.27-1.21,6.17-2.28,9.17-3.39.09.09.35.35.87.87,0,1.08,0,2.42,0,3.76-.03,2.52.69,4.9,1.3,7.32.32,1.28.21,2.66.28,3.84.4.48.72.85,1.15,1.36.94-.53,2.06-.85,2.71-1.58,2.36-2.66,5.95-3.75,8.15-6.58.07-.1.16-.2.27-.25,1.36-.63,3.33-.89,3.95-1.95.9-1.54,3.05-.78,3.49-2.52,1.78.75,2.28-1.63,3.86-1.56,1.47.07,2.05-2.19,3.8-1.62,2.4-2.36,5.73-3.05,8.52-4.73,1.07-.64,2.56-.66,3.49-1.42,1.03-.85,2.1-.94,3.25-1.29,1.74-.52,3.26-1.77,5.16-2.88h1.88c.43-.44.87-.88,1.38-1.41h1.82c2.89-1.72,5.49-3.36,8.77-3.09.44-.44.88-.88,1.5-1.5,1.73.12,3.64.02,5.21-1.43,2.73-.4,5.84.83,8.26-1.56h6.36c4.23.02,7.81,1.61,10.85,4.5,1.17,1.11,2.35,2.2,3.03,3.67.52.9,1.04,1.8,1.75,3.02.07,1.16.12,2.75.28,4.33.03.29.5.53.72.76h4.85c-1.14-1.38-1.97-2.37-2.98-3.59.65-1.47,1.35-3.04,2.1-4.72,1.1-.38,2.17-.76,3.41-1.19.47.23,1.09.54,1.84.91.63,2.15.74,4.42.33,6.82-1.28.73-2.54,1.45-4.33,2.47,3.4.37,6.14.64,8.86,1,.91.12,1.82.41,2.68.74,2.58.99,5.27.68,8.21.75.3.43.73,1.04,1.04,1.47,2.34.06,4.31-.13,6.2,1.2.94.66,2.6.31,3.98.42,1.03,1.03,2.31,1.54,3.85,1.41.47-.04,1.07-.08,1.42.16,1.32.89,2.8,1.07,4.28,1.47,1.4.38,2.62,1.42,4.28,1.39,1.07-.02,1.62,1.16,2.69,1.59,2.57,1.03,5.39,1.4,7.79,2.87.51.31.96.71,1.41,1.04.16,3.13-2.92,4.85-3.18,7.83h-3.09c-2.32-1.95-4.56-3.83-6.96-5.84h-1.22c-.62.8-1.28,1.62-1.89,2.46-.55.76-1.6,1.65-1.48,2.31.29,1.59-1.99.74-1.78,2.33.1.73-1.28,1.38-2.78.97-2.21-2.51-4.63-5.26-7.09-8.05h-1.71c-.39,2.07-1.31,3.69-3.14,4.7-.03,2.28-3.01,2.15-3.37,4.53-4.54-2.14-6.99-6.33-10.9-9.44-.47.22-1.57.36-1.84.91-1.9,3.93-5.02,6.63-8.67,8.9-1.34-.69-4.29-3.23-5.25-4.41-1.21-1.49-2.72-2.7-3.9-4.23-.27-.35-1.12-.25-1.77-.36-.5,2.85-2.36,4.95-4.01,6.98-1.32,1.61-2.21,4.02-4.8,4.35-.45-1.67-2.26-1.89-3.19-3.06-1-1.26-2.26-2.32-3.41-3.47-1.13-1.13-2.25-2.26-3.61-3.61-2.44,4.35-6.39,7.19-8.58,11.56h-1.75c-3.66-2.61-7.12-5.09-10.68-7.63-2.88,2.37-3.9,5.64-5.64,9.04-.12.06-.73.38-1.51.79-.83-1.08-2.34-1.78-2.69-3.45-1.69-.22-1.57-2.19-2.84-2.9-1.35-.76-2.52-1.82-3.68-2.7,3.5-4.43,7.9-7.62,12.55-10.44,1.35-.82,2.88-1.46,4.32-2.19,1.24-.62,2.6-1.21,3.57-2.15,1.08-1.06,2.76-.55,3.79-1.98.49-.69,2.29-.46,2.92-1.72.87-.04,1.72-.08,2.44-.11.54-.54.98-.98,1.43-1.43h2.26c.42-.44.86-.89,1.38-1.43.76-.04,1.59-.09,2.41-.13.46-.46.9-.9,1.43-1.43,2.03-.08,4.33.43,6.01-1.53,2.51.15,4.95,0,7.32-1.22.85-.43,2.15.02,3.54.08.07-.07.41-.43.81-.86-.63-1.09-1.26-2.17-1.89-3.25.14-.12.29-.24.43-.36-1.37-1.15-2.74-2.3-4-3.36h-7.68c-1.37,0-2.77-.17-4.11.05-1.11.18-2.12.93-3.22,1.2-1.04.26-2.16.24-3.3.35-.39.39-.83.83-.96.96-2.6.81-4.81,1.51-7.61,2.38.03-.03-.39.42-.89.97h-3.08c-.57.57-1.01,1.01-1.51,1.51h-2.61c-.19.26-.47,1.13-.91,1.21-2.91.54-5.17,2.55-7.96,3.42-2.17.68-4.07,2.17-6.13,3.24-1.33.69-2.89,1.03-4.04,1.92-1.24.97-3.11.7-3.96,2.24-1.85-.73-2.36,2.09-4.27,1.59-.5-.13-1.36.85-1.96,1.41-1.29,1.22-3.05,1.61-4.42,2.87-1.37,1.27-3.48,1.76-5.05,3.06-1.42,1.19-3.08,2.12-4.72,3.01-2.01,1.1-3.48,2.84-5.43,4.19.31,1.06.72,2.05.88,3.07.15.98-.14,2.03.08,2.98.22,1,.81,1.91,1.46,3.34.2,1.79-.66,4.38,1.48,6.29.02,1.8-.12,3.6.72,5.32.57,1.16.91,2.41.83,3.8-.05.88.31,1.85.72,2.67.91,1.83.31,4.01,1.46,5.76.26.39.45.82.76,1.39v3.52l1.5,1.5c-.12,2.22.41,4.43,1.28,6.71.67,1.73.13,3.92.13,6.07.55.4,1.14.84,1.58,1.16v5.53c1.16,1.04,1.55,2.36,1.5,3.88-.05,1.48,0,2.97,0,4.5.81.13.99-.58,1.46-.87v-2.81c.56-.78,1.13-1.42,1.5-2.15.31-.6.39-1.31.69-2.4-.18-.97-1.07-1.86-2.3-2.62-.78-.49-1.51-1.16-1.44-2.4.03-.56-.74-1.17-1.33-2.03v-2.72c.5-.72,1.1-1.59,1.84-2.65h3.43c.77.71,1.4,1.28,2.12,1.94v2.07c-1.05.87-1.71,2.6-3.79,1.54.29-.77.58-1.57.88-2.38-.48-.14-.8-.34-.91-.26-.76.57-1.47,1.19-2.16,1.77,1.17,1.51,2.27,2.92,3.25,4.18,1.49.11,2.2-.29,2.79-1.52,1.21-2.5,2.75-4.84,4.18-7.28h-2.92c-2.84-2.57-4.8-5.34-4.19-9.78,1.03-1.53,2.36-3.48,3.6-5.31h3.51c.31.45.74,1.07.92,1.32h2.56c-.4-.85-.69-1.46-.87-1.85.3-1.29.56-2.43.89-3.87.81-.8,1.87-1.85,3.05-3.02h3.67c.56.62,1.05,1.16,1.88,2.08v2.75c-.77.8-1.63,1.69-2.51,2.6-2.04-.02-3.22-.93-3.4-3.1,1.28-.06,2.49-.06,4.1-.06-.57-.92-.97-1.57-1.46-2.36-.95.8-2.41.6-2.64,2.43-.43.4-.92.73-1.4,1.05v3.05c1.39.99,2.8,1.99,4.11,2.92,2.84-2.14,5.38-4.05,8.05-6.06-1.08-.92-2.27-1.58-2.92-2.59-.61-.95-.35-2.41-1.83-3.04.17-4.07,2.16-6.88,5.6-8.63,1.06.54,2.09,1.07,2.97,1.53.68.93,1.29,1.79,2.05,2.84-1.04,1.44-2.15,2.97-3.38,4.67-1.3-.28-2.55-.56-4.04-.88-.06.6-.13,1.27-.18,1.76,1.27,1,2.38,1.87,3.68,2.9,1.8-1.23,3.9-2.22,5.41-3.78,2.05-2.14,5.19-2.41,7.09-4.64,2.26-.24,3.94-1.93,6.09-2.46,1.46-.36,3.12-.55,4.26-1.39,1.44-1.06,2.86-.37,4.25-.64.8-.15,1.67.27,2.42-.56.3-.33,1.28-.39,1.74-.15,1.96,1.01,4.03.61,6.07.72.57.03,1.17.18,1.69.42,1.29.62,2.68.83,4,1.22,1.13.33,2,1.71,3.54,1.33,3.3,2.2,7.24,3.24,10.21,6.11,2.76,2.67,5.91,4.93,8.91,7.35.16.13.46.08.7.11.81,2.06,2.44,3.88,1.72,6.22.39.39.66.66,1.04,1.05h4.72c.98-1.19,2.96-1.69,3.22-3.4-1.05-1.06-1.99-2.01-3.11-3.14-.83.15-1.55.79-2.16,1.94.81.17,1.59.32,2.89.59-1.09,1.16-1.87,1.99-2.84,3.02-.74-1.01-1.32-1.8-2.21-3v-2.88c.61-.51,1.16-.96,2.21-1.83h4.47c.31.35.9.99,1.47,1.64,2.55,2.9,1.98,6.08-1.49,7.92-1.21.64-2.51,1.11-4,1.75.98,1.54,1.8,2.81,2.69,4.19-1.44,3.09-3.57,5.21-7.3,5.36-.67-1.01-1.33-1.99-2.02-3.03-2.31,1.45-2.54,4.16-3.93,6.12-1.38,1.96-2.46,4.22-3.26,6.49-.82,2.33-2.39,4.24-3.22,6.69h-3.2c-.08-1.36-1.64-1.29-2.45-2.21-.79.39-1.61.8-2.18,1.08-.29.61-.47.99-.79,1.67-1.44-1.66-2.66-3.06-3.88-4.47-.05-.83-.09-1.68-.16-2.8-.58.2-1.17.22-1.35.5-1.06,1.61-.81,3.46-.67,5.17.08,1.92,2.27,1.86,2.88,3.2-.28,2.28-2.47,2.65-3.48,4.16-1.2-.39-2.19-.71-3.48-1.13-1.08,1.2-2.17,2.41-3.63,4.03-.65.22-2.01-.25-2.03-1.33-.03-1.84-1.51-2.56-2.36-3.44-3.73-3.85-5.61-8.25-5.2-13.8.66-.42,1.43-.92,2.34-1.51-.57-1.11-1.14-2.24-1.74-3.42.76-2.41,2.19-4.36,4.71-6.36h-2.76c-1.68,2.7-2.78,6.11-6.29,7.67.72,1.99,1.76,3.98,2.12,6.08.37,2.18.08,4.47.08,6.48,1.37,1.62,2.62,3.1,3.69,4.36-.35.91-.59,1.56-.87,2.29,1.25,1.54,2.48,3.01,3.64,4.52,1.28,1.66,1.07,3.62.99,5.31-.67.6-1.22,1.08-2.3,2.04h-2.48c.68,2.1,1.25,3.84,1.81,5.59-.25.27-.5.54-.82.88.52,2.39,2.55,3.94,3.95,5.68,1.7,2.11.84,4.99,2.99,6.5-.45.73-.74,1.22-1.07,1.76,1.04.92,1.96,1.75,3.21,2.86,2.88.09,5.24-2.4,8.18-3.02v-2.55c-2.91-3.46-7-5.88-8.68-10.3-.58-1.51-.85-3.14-1.34-5.01,1.22-.42,2.24-.66,3.15-1.13.97-.5,1.02-1.55.77-2.95,2.2.84,4.12,1.76,5.97.16,1.08.82,2.57.8,3.24,2.47.41,1.02,1.94,1.59,2.87,2.28v3.18l-1.41,1.41v4.2h1.42v1.5c.62,0,1.06,0,1.5-.09v1.04c.91.71,1.78,1.3,2.55,2.01.81.75,1.51,1.61,2.12,2.27h2.46l1.18-1.18c-2.77-1.41-5.5-2.8-8.3-4.14v-1.41h-1.5v-2.41c1.2-1.28,2.31-2.45,3.66-3.89.89.5,1.79,1.01,3.07,1.73h2.13c.03-.41.21-.92.06-1.06-1.72-1.57-1.73-1.55-2.21-3.66,1.3-1.04,2.65-2.12,4.31-3.46-.97-.56-1.52-.87-2.22-1.28,1.71-3.19,4.72-2.29,7.3-2.47l1.44-1.44c2.24-.25,4.83.6,6.77-1.54,1.46,0,2.97.16,4.43-.04,2.08-.29,4.02.59,5.25,1.69,3.04,2.71,6.77,4.75,8.8,8.55.75,1.4.82,3.32,3.1,4.19,1-.52,2.26-1.19,3.53-1.85l-.15-.43h-2.35c-.7-1.04-1.29-1.93-1.84-2.75.47-.95.97-1.98,1.63-3.32,1.05-.29,2.39-.66,3.6-1,.82.82,1.43,1.43,1.98,1.99.44,1.66-.74,3.59,1.08,4.83,1.03-.52,2.04-1.03,3.24-1.63,1.78,1.94,4.59,1.27,6.59,3.08,1.96,1.79,2.77,2.52,4.22,4.88.68,1.11,1.09,2.37,1.79,3.36,1.17,1.66,1.08,3.37,1.14,5.16.04,1.3-.08,2.54.64,3.86.52.96.48,2.6.02,3.65-.92,2.14-.54,4.3-.67,6.45-.05.83-.35,1.57-.61,2.36-1.11,3.44-1.86,6.99-2.85,10.95.03-.03-.33.33-.54.54-.79,2.36-1.41,4.6-2.28,6.73-1.04,2.56-2.14,5.12-3.5,7.52-1.77,3.13-3.15,6.45-5.1,9.5-1.43,2.23-3.27,3.9-5.22,5.5-.49.4-.76.63-.95,1.21-.09.28-.79.37-1.18.53-.29,1.37-.57,2.72-.91,4.32,3.75,0,7.46,0,11.37-.34-1.27,3.62,1.51,6.14,1.42,9.34,1.04-.05,1.95-.09,3.5-.17-2-3.11-3.34-5.99-4.93-9.18-.21-.52-.21-1.39-.21-2.3.43-.4.88-.82,1.42-1.33v-2.32l1.5-1.51v-3.05c.82-.58,1.72-1.22,2.29-1.62v-3.7c.49-.4,1.06-.87,1.7-1.39-.35-1.58-.68-3.05-1.04-4.68.79-.14,1.47-.25,2.27-.39v-3.27c.82-.63,1.57-1.22,2.65-1.87.11-.02-.11.02-.32.07v3.35c1.97,1.43,1.57,4.62,4.32,5.88.07-.72.31-1.26.14-1.62-1.23-2.61-2.54-5.17-4.14-7.68-.55-.33-.79-.74-1.07-1.22.37-1.06.77-2.2,1.44-4.1,1.62,3.64,2.83,6.61,5.12,9.16.07-1.15.15-2.31.19-3.01-1.51-2.61-2.79-4.83-4.41-7.64v-4.9c.42-.28.91-.61,1.46-1.33-.51,3.13,1.53,5.24,1.85,7.82.11.89,1.3,1.65,2.29,2.8,1.07-4.7-2.06-7.2-4.14-10.62-.06-1.03-.06-2.46-.06-4.1h1.5c0,.25-.08.54,0,.74.6,1.25,2.05,2.17,1.48,3.87.99.85,1.22,2.41,2.91,3.14.23-3.41-2.17-5.31-3.27-7.75h-1.13c-.03-1.3.32-2.69-1.07-3.86,2.3-1.7,1.74-4.11,1.83-6.48h2.11c.05.65.12,1.46.21,2.62.28.15.83.45,1.05.57.71,1.59-.32,3.46,1.73,4.06v-3.01c-.72-1.67-1.38-3.13-1.97-4.62-.53-1.34-2.17-1.87-2.43-3.65.17-.24.44-.61.84-1.17-.36-1.11-1.41-2.36-.54-3.82.34-.09.67-.17,1.33-.34-.2-1.2-.41-2.43-.68-3.99.27-.59.93-1.19,2.13-1.26.06.97.06,1.66.06,2.32.55.18.98.32,1.38.45,0,.83-.25,1.71.06,2.27.57,1.05,1.47,1.92,2.64,3.35.13-1.28.49-2.09.22-2.54-1.19-1.98-1.99-4.26-4.35-5.86.45-1.68-1.28-2.97-1.66-4.81.85-.13,1.54-.23,2.33-.35-.3-1.9-.59-3.72-.87-5.49.73-.27,1.17-.42,1.6-.58-.55-1.79-.27-3.75.84-5.9-.06-1.56-2.04-3.26-.17-4.62.62.62,1.26,1.26,1.89,1.89.63,1.33.98,3.03,2.97,3.75,2.04-2.23-2.07-2.98-.88-4.88-1.06-.99-2.06-1.91-2.77-2.57-1.33-3.37,1.71-6.42-.24-9.56.23-.25.54-.59.85-.92.61.27,1.21.52,1.82.79.35,1.58,1.22,2.45,2.62,2.6-.63-1.35-1.19-2.58-1.82-3.93-1.29-.74-2.23-2.39-2.84-4.96.44-.96,1.1-1.56,2.57-1.49.11-.04-.11.04-.32.11v1.95c.48.46.96,1.05,1.56,1.44.36.23.92.14,1.99.25-1.23-1.63-2.07-2.74-3.56-3.64l.08-.02Zm-94.28,75.02c.01.22.02.43.03.65.49-.1.97-.19,1.46-.29-.02-.16-.04-.32-.06-.48-.48.04-.96.08-1.34.77l-.15-.15c-.2.17-.41.35-.61.52l.24.24c.17-.2.35-.41.42-1.26h.01Zm-47.86,44.74h-1.5c0,.62,0,1.06.03,1.47-.48.04-.93.07-1.54.12.06.55.1.96.15,1.41.5-.04.82-.07,1.27-.11.04-.49.07-.94.08-1.39h1.5c0-.62,0-1.06.87-3.35-.59.54-.87.69-.85.8.05.36.21.7.32,1.05.13-.45.26-.9-.35,0h.02Zm20.95,0h-1.5c0,.62,0,1.06.03,1.47-.48.04-.93.07-1.54.12.06.55.1.96.15,1.41.5-.04.82-.07,1.27-.11.04-.49.07-.94.08-1.39h1.5c0-.62,0-1.06-.03-1.47.48-.04.93-.07,1.54-.12-.06-.55-.1-.96-.15-1.41-.5.04-.82.07-1.27.11-.04.49-.07.94-.08,1.39Zm119.12-84.56c.22,0,.43-.02.65-.03-.1-.49-.19-.98-.29-1.46-.16.02-.32.04-.48.06.04.48.08.96.53.72.19,1.47.29,2.22.41,3.21.64-.32,1-.5,1.62-.81-.61-.72-1.04-1.23-2.44-1.69Zm-105.65,47.03h2.25c-.06-.53-.1-.94-.15-1.45-.83.09-1.48.15-2.1.22,0,.49,0,.73.03,1.3-.48.04-.93.07-1.54.12.06.55.1.96.15,1.41.5-.04.82-.07,1.27-.11.04-.49.07-.94.08-1.49h.01Zm-41.48,22.45c-1.43.13-2.44.21-3.43.3.02.49.03.73.04.96,1.34,1.03,2.15.1,2.88-1.22l.15.15c.2-.17.41-.35.61-.52-.08-.08-.16-.16-.24-.24-.17.2-.35.41-.02.57h0Zm96.84-75.03v2.16c.21-.2.42-.4.63-.6.14.61.28,1.21.48,2.08.83-1.78.17-2.6-1.1-3.8-.06-1.34-1.08-2.2-2.53-2.55.82.82,1.7,1.71,2.52,2.71Zm-71.5,138.88c-.51-.57-.66-.85-.76-.84-.36.05-.7.21-1.05.32.45.13.9.26-.13.27v-3.66c-.8.08-1.45.14-2.2.21.71,1.11,1.28,2,4.14,3.69h0Zm-10.69-48.76h-1.46c.35,1.95-2.48,2.24-2.37,4.46,2.21-.89,3.28-2.41,3.7-4.43.48-.04.93-.07,1.54-.12-.06-.55-.1-.96-.15-1.41-.5.04-.82.07-1.27.11-.04.49-.07.94.02,1.39h0Zm70.57-70.48c-1.07-.58-1.93-1.05-2.68-1.46-.82.49-1.45.88-2.4,1.46,1.81,0,3.27,0,4.6.13v2.83c-.55.19-.98.34-1.45.5.1.42.17.76.26,1.11,2.28-.88,2.83-1.91,2.43-4.43-.25,0-.49,0-.76-.13h0Zm-55.81,73.17c2.11,1.78,1.07-2,2.69-1.2.58-.96,1.15-1.91,1.73-2.87-2.06.97-3.81,2.11-4.24,4.43-.05-.05-.1-.1-.15-.15-.2.17-.41.35-.61.52l.24.24c.17-.2.35-.41.34-.98h0Zm49.48-186.81c1.73-.3,1.22-2.04,1.66-2.78.63-.26,1.06-.3,1.23-.54.16-.22.03-.64.03-1.03h-3.44c-.41.41-.67.67-.95.95.49.52.98,1.03,1.47,1.55v1.84h-1.5v1.33c-.8.32-1.55.62-2.3.91-1.48-.72-3.03-1.36-3.76-3.1.73-1.15,1.46-2.28,2.23-3.48h-8.03v1.81c2.65,2.65,5.2,5.2,7.7,7.71,1.39-.87,2.77-1.73,4.17-2.6v-1.09l1.5-1.5v.02Zm-22.45,103.29l1.5,1.5c.24.31.48.61.86,1.1.83-.91,1.46-1.59,2.09-2.27-1.49-1.06-.1-2.82-.93-3.95-.56.23-1.06.47-1.58.63-1.33.4-2.71.69-3.4,2.09-.08.17.07.44.16.91h1.32-.02Zm11.96,9.91c-.06,1.23.58,1.96,1.77,2.06-.59-.68-1.22-1.42-1.7-2.24-.16-2.28-2.43-2.92-3.19-4.22-1.29-.41-2.27-.72-3.24-1.03-.37.37-.72.72-1.2,1.2.8.5,1.56.97,2.23,1.38.11.9.22,1.74.32,2.58.17,0,.35-.02.52-.02v-2.89c1.87.78,2.34,3.13,4.48,3.19h0Zm-43.45-110.9l.15-.15-.52-.61c-.08.08-.16.16-.24.24.2.17.41.35.64.17l-.25.68c3.38,1.86,5.61,5.32,9.38,6.51,2.32-3.27,4.63-6.17,7.27-8.67v-2.19c-2.34.75-4.48,1.43-6.5,2.08.26,1.3.51,2.55.67,3.32-.85,1.05-1.4,1.72-1.81,2.24h-2.14c-.84-.72-1.5-1.28-2.24-1.91v-2.72c-1.59.24-2.98.46-4.39,1.02h-.02Zm54.68,91.38c-.47.94-.75,1.49-1.04,2.07,1.18,1.12-.06,2.63-.52,3.96.39.52.67.9.93,1.24-1.79,2.06-4.2,3.06-7.25,3-.84-.43-1.16-2.09-2.79-1.02.29.47.44.95.77,1.22.63.51,1.34,1.23,2.05,1.26,1.33.06,2.68-.31,4.67-.58-.92.93-1.42,1.45-2.02,2.06,1.47.3,3.28-.45,3.67,1.44-.26.87-.47,1.57-.84,2.77,2.26-1.96,4.01-3.63,6.5-2.06.87-.61,1.7-1.19,2.45-1.72-.3-.36-.61-.73-.76-.91-.93.48-1.74.95-2.6,1.29-.25.1-.65-.15-1.22-.31.94-.63,1.69-1.12,2.53-1.68-2.35-1-1.47-4.73-4.52-4.98,0-2.24,0-4.36.25-6.23.67-1.01,1.32-1.98,1.97-2.96-1.42-.73-2.22-.05-2.85.72.27.7.52,1.33.62,1.41h0Zm-33.67,23.06c-1.28-1.95-3.68.36-4.96-1.47-.47.56-.84,1-1.26,1.5.66.75,1.17,1.32,1.67,1.89-.56.56-.99.99-1.43,1.43-.29,2.58,1.27,4.42,2.47,6.34,1.91.18,3.12-.67,3.93-2.23h2.2l1-1c-.31-.63-.61-1.24-1.01-2.06-.77.19-1.6.4-2.52.63v-1.77c.78-.38,1.59-.77,2.46-1.19.3.65.54,1.17.77,1.66.41,0,.78,0,1.22-.08-.05.05-.1.1-.15.15.17.2.35.41.52.61l.24-.24c-.2-.17-.41-.35-.68-.44.23-2.03-1.85-2.43-2.53-3.74h-1.96.02Zm24.4,10.31c1.91.51,3.19-.25,4.16-1.17,1.1-1.04,2.29-1.77,3.64-2.44,1.96-.98,3.18-2.71,3.88-5.17h-3.46c1.06-1.29,2.48-2.04,1.58-3.6-1.61-.17-3.21-.33-5.21-.54-.23.65-.57,1.62-.77,2.17-1.02.77-1.77,1.34-2.57,1.94h-3.61c-.58-.46-.96-1.23-2.63-1.55,1.21,1.45,1.88,2.27,2.57,3.09,1.11-1.37,2.56-.56,3.8-.81l1.77,1.77v3.53c-1.2,1.05-2.04,1.8-3.16,2.78h.01Zm3.74-76.73c.44.68.88,1.36,1.5,2.31.63-1.73-.38-2.06-1.05-1.89-1.02-3.91-4.22-6.48-12.03-6.73-.3-.52-.64-1.1-1.23-2.1,1.76,0,3.11.11,4.43-.02,2.68-.27,4.73,1.04,6.91,2.29,1.52.87,2.47,2.23,3.26,3.5,1.31,2.13,3.54,3.93,2.96,6.88h1.29c.71-2.52,2.24-4.67,2.48-7.27-.02-1.63-1.51-2.46-2.38-3.36-.81-.84-2.32-1.52-3.57-1.96-5.84-2-6.26-2.58-12.11-2.29-2.38.12-4.59.86-6.44,2.44-.14.12-.13.44-.25.93.46.19.95.39,1.45.6.1.92.21,1.85.32,2.87.79-.17,1.37-.29,1.95-.41.81-.16,1.87-.72,2.37-.4,1.83,1.17,3.81.37,5.46.73.99.81,1.83,1.5,2.67,2.2.7.58,1.38,1.18,2.02,1.68h0Zm-76.04,72.56c.03.32.07.79.11,1.18,1.41.48,2.31.02,2.88-1.07.12-.23-.13-.65-.24-1.1-.97.35-1.83.66-2.73,1.31v-3.08c.62-.62,1.23-1.23,1.97-1.97,1.37,1.12,2.75,2.26,4.39,3.61-.78,1.4-1.5,2.7-2.06,3.71-1.28.41-2.28.72-3.43,1.09-.9-.46-1.89-.96-2.87-1.47-.35.38-.65.71-.86.94.45.85.83,1.57,1.43,2.72v7.19c.56.53,1.01.96,1.45,1.38v7.78c.44.33,1.03.78,1.54,1.17v5.33l1.44,1.45v3.27c0,1.08-.05,2.14.74,3.07.73.86.81,1.94.78,3.05-.02.71-.02,1.51.29,2.11.97,1.86,1.31,3.81,1.19,5.88-.03.48-.07,1.02.12,1.44,1.07,2.42,1.57,4.95,1.3,8,2.17-.76,3.94.19,5.95-.1,1.63-.24,3.44.67,5.28.63,4.24-.09,8.48.02,12.71-.06,1.4-.02,2.79-.36,4.3-.57.22.17.59.45.67.51,1.27-.27,2.17-.61,3.08-.63,2.99-.07,5.98-.02,8.97-.03.74,0,1.54.13,2.2-.11,2.72-.99,5.51-1.44,8.4-1.39,3.36.05,6.74-.18,10.09.06,3.45.25,6.65-1.38,10.16-.72v-2.16c-.34-.07-.68-.14-1.07-.23-1.38-1.86-1.66-3.92-.06-5.75,1.08-1.25,2.46-2.36,3.93-3.09,1.21-.61,3.04-1.19,4.08-.7,2.44,1.16,4.81.21,6.72.61,3.34-2.67,6.35-5.08,9.29-7.44h2.17c.73.61,1.36,1.14,2.19,1.83,1.09-1.32,2.03-2.46,2.74-3.32h7.18c0,1.65,2.61,2.14,1.38,4.77.04-.02-.57.34-1.23.73.97.88,1.67,1.52,2.44,2.22,3.96-5.51,6.63-11.43,9.69-17.8v-2.01c.37-.24,1-.64,1.12-.72.83-2.76,1.5-4.98,2.25-7.48.24-.22.69-.65,1.12-1.06v-3.77c1.27-1.15,1.43-2.63,1.53-4.25.13-2.13.21-4.38.95-6.33.75-1.98.23-3.87.5-5.78-1.48-1.08-.14-2.89-1.01-4.06-1.02-1.38-.16-2.89-.62-4.48-4.68-7.96-7.5-8.93-15.18-8.35-1.71,1.36-3.12,2.94-5.58,3.05-.99.04-2.36.65-3.09,2.04,1.84-.31,3.44-.58,5.14-.87l1.25-1.25h2.3c1.61,1.82,3.95,3.2,4.1,5.82l-6.08,6.08c-.48.08-1.36.22-2.47.4,1.28,1.48,2.3,2.66,3.27,3.78v2.76c-1.2,1.76-2.26,3.31-3.37,4.94-1.62.81-3.38,1.68-5.47,2.73-.68-.93-1.34-1.83-1.93-2.63h-1.78c-1.12-.8-1.83-1.31-2.34-1.67v-5.51c2.52-2.22,5.36-3.95,8.36-5.71-1.68-.42-3.08-1.01-4.02-2.71.22-1.09.48-2.41.89-4.44-1.71,1.17-2.93,1.86-3.98,2.75-1.03.87-2.06,1.84-2.75,2.97-.71,1.16-2.1,1.37-2.82,2.49-.41.64-1.34.92-1.98,1.43-.58.46-1.09,1-1.62,1.51-.45.43-.96.83-1.3,1.34-.35.5-1.28.67-1.06,1.77,1.33-.69,2.52-1.3,3.64-1.87.81,1.19,1.4,2.07,2.11,3.1v2.76c-.97.97-1.88,2.01-2.92,2.89-1.85,1.56-4.11,1.63-5.84.3.05-1.44-1.49-1.27-2.15-2.18-3.16,3.47-6.44,6.81-9.37,10.42-1.21,1.48-2.13,3.11-4.05,3.78-1.33.46-2.89-.5-4.2.61-1.42,1.21-3.15,1.11-4.82.98-3.42-.26-6.36,2.08-9.8,1.69-.26-.03-.56.41-.87.57-1.33.69-2.63,1.49-4.03,2.01-1.33.5-1.88,2.08-3.55,2.19-.78.05-2.07.93-2.14,1.55-.17,1.42-1.45,1.05-2.07,1.7-1.21,1.28-2.78,2.23-3.86,3.05-.47,5.73-1.17,10.94-1.06,16.24-.42.38-.86.76-1.18,1.05-1.82-.59-2.06-1.99-1.62-3.06,1.33-3.23.38-6.46.14-9.82-.92,1.7-1.85,3.41-2.69,4.97-.91.63-1.71,1.18-2.66,1.84v-2.12c.75-1.52,1.26-2.56,1.77-3.6-.17-.14-.33-.27-.5-.41,1.04-.83,2.08-1.66,3.24-2.59-2.26-.86-3.77,1.11-5.47,1.11-2.16,0-3.11,2.23-4.8,1.85-.38.68-.58,1.04-.78,1.4-1.69-.54-2.07-1.51-1.62-2.92.78-.47,1.73-.15,2.63-.94,1.24-1.09,3.02-1.98,4.64-2.13,1.77-.17,3.06-1.47,4.61-1.52,1.93-.06,3.25-1.28,4.92-1.75.13-.04.16-.41.3-.77-.49-.57-1.04-1.2-1.49-1.72-.06-.96-.12-1.78-.21-3.12-6.65,5.26-13.24,9.71-21.02,13.13h-3.86c-.71-.86-1.57-1.9-2.47-2.99-.59.32-1.09.6-1.58.87-1.97-.33-2.52-2.25-3.83-3.35v-5.42c.91-.7,1.93-1.49,3.08-2.37,0-1.85-.39-3.93.09-5.79.69-2.67.78-5.38,1.26-8.06.26-1.45.11-2.99.03-4.48-.1-1.76.22-3.34,1.51-4.62,0-1.62-.08-3.25.03-4.86.05-.78.29-1.68.75-2.28.84-1.09.7-2.27.7-3.46.02-2.24,0-4.49,0-6.73,0-.73-.17-1.58.13-2.18,1.3-2.6.35-5.33.54-7.99.05-.65-.74-1.37-1.29-2.31-.83.39-1.66.79-2.21,1.05-.19,1.26-.33,2.14-.54,3.53-1.15-1.06-1.89-1.74-2.48-2.29.62-1.29,1.12-2.33,1.5-3.14,1.04-.71,1.9-1.3,2.58-1.77h2.24l2.51,2.51c0,3.34-.24,6.73.07,10.07.31,3.29-1.38,6.41-.66,9.77,5.22,0,10.32.03,15.42-.03.77,0,1.54-.4,2.25-.6.07-3.23,1.28-5.99.91-8.95-.18-1.41-.12-2.83.67-4.2.79-1.35.95-2.93.81-4.53-.05-.58-.08-1.38.25-1.74,1.61-1.73,1.12-3.85,1.21-5.37.63-1.37,1.53-2.36,1.43-3.25-.36-3.23.7-6.27.91-9.42.19-2.98-1.04-5.74-.9-7.59-.85-1.53-1.34-2.4-1.77-3.16-2.39,1.23-4.44,2.29-6.48,3.34-1.25-.98-2.35-1.85-3.45-2.72v-4.01c.57-.22.91-.35,1.9-.74-1.1-.13-1.51-.31-1.78-.18-1.05.49-2.02,1.14-3.08,1.59-1.06.45-2.35.49-3.26,1.12-3.62,2.5-7.64,4.53-9.77,8.81-.55,1.09-.21,2.26-.76,3.04-.72,1.01-1.4,1.78-1.48,3.18-.06,1.04-1.09,2-1.61,3.04-.56,1.12-1.04,2.28-1.65,3.65,1.08.17,1.76.28,2.45.39-.12.14-.25.28-.37.42.91.81,1.82,1.63,2.84,2.54-1.83,2.36-3.22,5.25-7.05,6.66h-2.77c-.34,1.69-.66,3.3-1.01,5.06-.69,1.27-1.75,2.63-.67,4.1.82.9,1.64,1.81,2.39,2.63.57-.68,1.21-1.43,1.71-2.02-1.44.17-2.46-.9-3.18-2.34.09-2.36,2.07-2.73,3.66-3.75,1.31,1.11,2.67,2.27,3.41,2.9,1.25,2.76-.69,3.77-1.41,5.17-.54,1.05-1.89,2.01-3.06,2.31-1.13.29-2.49-.31-3.93-.56-.48,2.37.38,4.93-.65,7.38.38-.05.81.03,1.03-.15.67-.56,1.24-1.23,1.87-1.83,1.16-1.09,2.31-2.2,3.53-3.23,1.1-.93,2.74-1.21,3.25-2.81,1.44.04,2.4-.88,3.43-1.67.12-.09.44.09.72.16v2.65c-3.01.46-4.5,2.94-6.7,4.23-2.43,1.42-3.5,4.06-5.87,5.22.1,2.2-.51,4.46,2.23,5.84h.02Zm16.67,21.45v-6.38c3.07-3.72,7.15-5.67,11.81-6.49,0-.64-.2-1.27.03-1.61,1.31-1.88,1.56-3.96,1.43-6.15-.1-1.62.23-3.09,1.4-4.24v-4.11c-2.82-.42-5.7.55-8.34-.82-.26-.14-.87-.06-1.02.14-.79,1-1.84.54-2.77.57-1.84.06-3.69.02-5.66.02v4.94c-.79,1.11-1.55,2.34-1.48,3.52.13,2.23-.35,4.38-.94,6.39-.49,1.68-.62,3.29-.63,4.96-.02,3.74,0,7.48,0,11.41-.94.71-1.96,1.5-2.94,2.24v4.42c.48.45.9.84,1.54,1.43.77-1.03,1.37-1.83,1.97-2.63,1.22-.09,2.19.19,2.43,1.59-.22.39-.43.77-.64,1.15.26.26.53.53.9.9h3.87c2.75-1.48,5.77-2.62,8.19-4.54,2.52-1.99,5.35-3.58,7.57-5.79.91-.05,1.73-.1,2.78-.15-.37-1.69-.36-3.26-1.06-4.39-.86-1.4-.45-2.82-.69-3.9-.73-.85-1.3-1.5-1.79-2.07-7.6-.37-10.11-.14-14.63,6.1.66.96,1.32,1.91,1.96,2.83h2.89c.42-.4.78-.74,1.19-1.12-1.04-.74-2.04-1.45-3.03-2.16.95-1.49,2.21-1.22,3.19-1.12.79.69,1.44,1.26,1.99,1.74v2.35c-1.82,1.8-3.43,3.95-6.05,3.31-1.31-.89-2.29-1.55-3.46-2.34h-.01Zm5.8,71.6v4.71c-.45.36-1.03.82-1.46,1.16v3.13c.39.4.74.75,1.08,1.1h6.72c1.05,1.34,2.52.53,3.79.75,1.39.24,2.77.64,4.17.71,2.35.12,4.71.03,7.02.03.4-.4.75-.75,1.12-1.12,0-1.84.12-3.72-.03-5.57-.15-1.89.52-3.79-.64-5.71-.92-1.53-1.12-3.5-1.66-5.27-.3-1-.65-1.98-1.09-3.35-.13-.13-.57-.57-1.14-1.14v-2.43c-2.15-3.96-3.36-7.57-4.4-10.44-.98-1.14-1.52-1.77-2.26-2.64-.74.37-1.55.78-2.27,1.14v2.82c-.43.31-1.03.74-1.6,1.15,1,2.44-2.21,3.63-1.37,5.89-1.34,1.41-1.47,3.37-2.21,5.05-.79,1.78-1.31,3.67-1.95,5.52-.12-.03-.25-.06-.37-.09v3.12c-.57.57-1.01,1.01-1.45,1.45v.03Zm170.48-158.59c1.83-1.78,1.61-3.87,1.59-5.91-.02-1.93-.17-3.89,1.59-5.49v-4.65c.53-.45,1-.86,1.42-1.23v-3.77c1.84-1.91,1.59-4.11,1.36-6.25-2.19-.8-2.94,2.12-4.88,1.38-1.44,1-3.12,1.49-4.66,2.26-1.44.72-3.26.74-4.31,2.23-2.09-.94-3.07,1.52-4.97,1.62-1.45.07-2.85,1.25-4.42,2,5.15,8.65,11.62,16.32,17.27,25.34v-7.54h.01Zm-126.81,8.59c1.04-.34,2.03-.67,2.28-.75,1.36,1.28,2.34,2.19,3.51,3.29-.49.87-1.1,1.93-1.76,3.11,1.77.11,2.96-.15,3.08-.78.47-2.47,2.1-4.37,3.06-6.59.05-.12-.23-.38-.29-.49-1.54.29-3.04.57-4.25.8-8.88-4.81-9.02-5.22-10.83-17.78-1.87,2.4-3.58,4.6-5.57,7.15v3.68c-1.8,3-2.74,5.93-5.38,7.5.47.75.78,1.24.97,1.54-.78.93-1.4,1.67-1.95,2.35h-2.76c-1.08.73-1.86,1.26-2.59,1.76,1.24,1.56,2.75,3.11,3.84,4.92,1.15,1.91,2.51,3.45,4.64,4.8.16-2.36,1.92-2.69,3.4-3.33,1.04.52,1.53.58,3.24.27-.62-1.12-1.17-2.13-1.82-3.3v-5.54c1.18-1.52,2.27-2.92,3.16-4.06h2.7v4.29c1.13,1.25,1.94,2.15,2.84,3.15.5-1.46.26-2.68-.54-3.83.3-.62.6-1.24,1.03-2.15h-.01Zm41.58,99.06l-3.5-3.5c-1.11.29-2.51.36-3.55,1-1.73,1.07-2.61,3.25-4.74,3.93-.11.03-.02.52-.16.65-.7.65-1.7,1-1.93,2.05h-3.69c-1.32-1.35-3.03-1.89-4.65-1.4-2.48.75-4.84,1.92-6.34,4.61.56.57,1.17,1.13,1.73,1.76,1.61,1.83,3.52,2.8,6.05,2.57,1.85-.17,3.74.06,5.6-.06,1.9-.13,3.8-.77,5.66-.66,3.7.22,6.74-1.04,9.51-3.34v-7.62h0Zm115.25-130.93v-4.5c2.16-1.9,1.28-4.5,1.54-6.78,1.99-2.04,1.33-4.51,1.48-7.07-.79,0-1.39-.03-1.99,0-4.38.24-8.77.5-13.15.74-.7.04-1.4.07-2.14.11.41,1.61.42,3.19,1.17,4.26,1.4,1.99.67,4.73,2.57,6.44-.14,2.99,1.97,4.7,3.64,6.74.99,1.22,2.06,2.45,2.52,4.19.28,1.06,1.02,2.53,2.67,3.19.55-2.59-.56-5.4,1.69-7.33h0Zm-167.24,102.17c1.73,0,3.58,0,5.43,0,2.04-.02,4.18.33,6.03-.78,1.36-.81,2.76-.7,4.2-.71,1.5,0,2.99,0,4.67,0,2.59-3.26,5.72-6.23,7.92-9.94-.34-.26-.64-.55-.69-.52-2.55,1.96-5.07,3.95-7.7,6.01-1.25-.4-2.64.26-4.14-.61-1.01-.59-2.76-.46-4.22.25-1.52.75-1.63.55-2.91-1.55.45-.37.93-1.1,1.36-1.07,2.95.17,4.6-1.68,6.26-3.67-.12-.61-.23-1.14-.34-1.7-2.63,1.03-5.25,1.05-7.58,2.28-2.35,1.24-5.22,1.52-6.82,3.82-.69-.05-1.16-.08-1.63-.11-.14-.8-.26-1.49-.38-2.23-.49.08-.83.14-1.26.21.6,3.45,1.19,6.8,1.81,10.32h0Zm-20.64-10.72c.36-2.84.71-5.59,1.13-8.83,1.57-1.29,3.52-2.89,5.46-4.48h6.13v-2.65c-.38-.38-1.2-.83-1.19-1.25.06-1.52-1.03-2.36-1.7-3.44-2.06-3.34-5-4.83-8.97-4.46,0,.86.17,1.54-.03,2.08-1.29,3.56-1.61,7.24-1.48,10.98.05,1.44.11,2.86-.72,4.19-1.01,1.62-.81,3.49-.75,5.29.06,1.74-.1,3.37-1.4,4.57v3.23c1.55,1.23,1.6,1.24,2.16.53-.29-.86-.59-1.74-.85-2.5.83-1.22,1.56-2.29,2.22-3.27h0Zm-81.33-26.42c-.87-3.12,1.07-6.03,1.36-9.16h-4.26c-.49.52-.91.97-1.32,1.41h-3.02c-1.68,1.93-4.75.94-6.35,2.72,3.57,3.58,6.99,6.99,10.61,10.62h1.38c-.06-2.03-.16-3.99,1.59-5.59h.01Zm114.43-51.04h-3.75v7.05c.42.42.9.71,1.11,1.14,1.95,3.89,4.99,5.74,9.39,5.16.36-.05.73,0,.99,0,1.02-.68,1.73-1.83,1.09-2.54-1.13-1.27-.34-2.61-.58-3.35-2.13-3.53-4.41-6.26-8.24-7.46h0Zm2.6,205.61c-1.14.36-1.9.7-2.69.81-.86.12-2.07.39-2.55-.04-1.48-1.31-3.21-.13-4.58-.75-1.53-.68-3.03-.67-4.58-.68-3.99-.01-7.98,0-11.97,0h-2.95c.66,1.05,1.03,1.63,1.56,2.47,4.61-1.01,9.15.5,13.79.55.56,0,1.12.29,1.67.46,2.48.75,4.83,1.64,7.54.35,1.54-.73,3.49-.58,5.26-.85.2-.03.38-.25.74-.51-.39-.58-.78-1.15-1.23-1.81h0ZM15,100.9c0,.99-.03,1.99,0,2.98.03.89.14,1.78.25,3.19,3.81-3.15,7.74-5.26,10.43-8.91-2.34-1.56-4.53-2.88-6.55-4.43-.9-.69-1.6-1.01-2.6-.4-.24,2.58.67,5.39-1.54,7.56h.01Zm48.4-13.84c1.82-.92,3.16-1.39,4.24-2.21,1.27-.96,2.3-2.23,3.4-3.33-.96-1.15-1.91-2.3-2.86-3.43-1.13,1.25-2.26,2.51-3.4,3.78-.54-.57-.94-.98-1.27-1.33.41-.86.69-1.46,1.09-2.3h-2.74c-.65.55-1.39,1.18-1.91,1.62v5.06c.75.92,1.29,1.59,1.74,2.15h1.71Zm49.75-52.93c-.29.31-.68.73-1.1,1.17.93.9,1.65,1.65,2.41,2.34.99.89,2.03,1.71,3.01,2.61.91.84,1.76,1.75,2.88,2.87.62-.31,1.51-.5,2.01-1.05,1.18-1.33,2.18-2.83,3.33-4.37-.48-1.84,1.83-2.25,2.34-3.84-.09-.43-.19-.97-.26-1.29-2.13.32-3.96.6-6.18.93,1.06,1.3,1.93,2.38,2.85,3.5-1.42,1.12-2.67,2.11-3.86,3.04-1.56-1.05-3.31-1.46-3.8-3.11.57-1.27,1.06-2.38,1.67-3.72-1.96.34-3.56.61-5.29.91h0Zm44,104.14c-.03-4.48-.92-6.34-4.18-8.62-1.45-1.01-1.47-1.01-3.07.31-.32,1.37-.58,2.51-.89,3.82,1.17,2.71,2.36,5.67,5.33,7.28,1.02-1.02,1.9-1.89,2.81-2.8h0Zm-53.81,44.41c.21.13.43.26.64.39,1.03-1.18,2.07-2.36,2.96-3.38-.68-2.04-1.3-3.89-1.92-5.73-.1.02-.21.04-.31.06v-5.11c-2.17-1.43-2.44-1.42-4.4.14v3.73c1.59,1.47,1.56,3.41,1.48,5.22l1.56,1.56v3.13h-.01Zm69.99-28.26h-1.85c-.82,1.23-1.72,2.59-2.91,4.38h4.97c0,1.47.65,2.2,2.1,2.46.37-.7.58-1.85,1.14-2.05,3.17-1.18,2.79-3.67,2.8-5.9-2.14-1.45-3.99-1.47-5.82-.16-.15.43-.29.87-.43,1.27h0Zm-17.75-120.39c.43-.64.95-1.42,1.74-2.59-.87.26-1.22.33-1.52.48-.31.15-.57.39-.82.57-1.22-.99-2.45-1.08-3.97-.47,3.18,3,6.26,5.91,9.24,8.72,3.32-2.54,5.19-5.79,7.41-9.12-2.25.15-4.17-.14-6.53.28.87,1.11,1.41,1.79,1.84,2.35-.93,1.72-1.5,3.64-3.75,3.41-1.19-1.19-2.33-2.33-3.63-3.64h0Zm-37.79,141.6c-1.88-3.82-.57-7.66-1.25-11.66-.77-.22-1.62-.46-2.24-.64-2.09,1.7-2.23,3.67-1.97,5.72,1.01,1.14,1.29,2.43,1.52,3.89.22,1.38,1.24,2.62,2.02,4.13.56-.42,1.12-.84,1.92-1.44Zm-11.04-8.12c.33,2.82,1.53,5.46,1.05,8,.82,1.18,1.41,2.03,2.18,3.13.77-.38,1.59-.79,2.12-1.05.53-2.05-.52-3.27-1.1-4.69-.55-1.36-.51-2.96-.78-4.75.11-.17.41-.65.87-1.37-.98-.53-1.77-.96-2.77-1.51-.63.9-1.12,1.61-1.57,2.25h0Zm16.12-86.89c-2.16-3.1-3.96-.84-5.56-1.02-1.23,1.17-2.38,2.26-3.44,3.26.88.95,1.71,1.85,2.36,2.55h4.28c.8-1.89,2.87-3.11,2.37-4.8h-.01Zm52.37,62.4v3.24c1.33.51,2.6,1,3.49,1.35,1.11-.35,1.88-.59,2.9-.91,1.15-1.03,2.55-2.27,4.1-3.66-.77-.54-1.56-1.1-2.82-1.98h-2.32c-.4.44-.73.8-1.09,1.19.33.65.63,1.26,1.02,2.02-.7.47-1.33.89-2.37,1.59v-3.62c-1.18.31-2.02.53-2.91.76v.02Zm-51.46,140.16c-2.11,0-4.16.6-5.42-.15-1.67-.99-3.68.23-5.02-1.31l-1.06,1.06v1.11c.74.93,1.34,1.69,1.73,2.18,1.52.3,2.63-.06,3.86.66.99.58,2.59.12,4.08.12.55-1.12,1.09-2.22,1.82-3.68h0Zm-2.09-253.87c-.99-3.43-.07-6.86-1.06-9.75-.13-.48-.27-.96-.34-1.22-.82.68-1.47,1.23-2.08,1.74.27,2.86-.54,5.68.79,8.22-.28.34-.49.59-.68.83.56.83,1.05,1.64,1.63,2.36.17.21.63.18.96.26.31-.94.59-1.81.8-2.42l-.02-.02Zm-12.42,65.94v1.93c.17-.17.34-.34.51-.5.45.9.91,1.8,1.2,2.38h2.4c1.08-1.12,2.19-2.28,3.2-3.32.29-1.43.57-2.74.85-4.11-2.8,1.24-5.4,2.4-8.16,3.62Zm-7.48,31.46v3.98c-.6.82-1.14,1.56-1.79,2.46,1.99.43,3.65.79,5.76,1.25-1.5-1.65-.91-2.87-.14-3.93-1.61-2.08-.37-4.4-.98-6.48-.33-.31-.67-.63-1.02-.97-.58,1.17-1.15,2.3-1.84,3.69h0Zm124.29-61.04c2.78-2.78,5.65-5.65,8.47-8.48-2.47-.46-4.59,1.47-7.08,1.67.23,2.6-2.33,4.56-1.4,6.81h0Zm-89.87-47.38c0,1.64.19,3.25-.05,4.8-.25,1.57,2.01,3.02.1,4.52.6.91,1.17,1.77,1.75,2.66.46-.46.81-.82,1.26-1.26-.51-3.53.88-7.38-1.15-10.81-.71.03-1.19.06-1.91.09Zm119.34,17.81c-1.28,1.78-3.44,2.77-4.29,5.15,2.57.41,4.91.78,7.07,1.13.57-.57.93-.93,1.28-1.28-.83-.53-.5-2.16-1.98-2.07-.35-1.08-.12-2.49-2.08-2.93h0Zm-149.15-13.31v7.83c.97.58.55,2.98,2.74,2.47v-10.31h-2.74Zm10.14,8.85c1.02-3.7-.77-7.22-.55-11.05-.59-.28-1.26-.6-2.21-1.06,0,2.29.15,4.16-.04,5.99-.17,1.64.47,3.05.8,4.56.23,1.02.74,1.76,2.01,1.56h-.01Zm24.16-11.54c0,1.37-.26,2.79.08,4.06.33,1.23,1.25,2.3-.02,3.43.57.89,1.13,1.78,1.73,2.72.43-.45.77-.81,1.15-1.2v-7.9c-.75-.96-1.26-1.61-1.77-2.27-.38.38-.64.64-1.16,1.16h0Zm-10.6,10.04v-11.72c-2.84,0-3.14.39-2.38,2.92.1.33.29.69.24,1-.47,2.69,1.21,5.09.71,7.8h1.43Zm-28.42,2.61c-1.79-1.7-1.32-4.04-1.39-6.27,0-.28-.27-.56-.56-1.09-.94.84-1.72,1.54-2.36,2.1-.28,2.53.04,4.75,1.37,6.67.31.45,1.25.47,1.87.68.4-.79.71-1.4,1.07-2.1h0Zm56.94-8.86c-.56-.9-1.12-1.79-1.72-2.74-.97.11-1.87.21-3.2.35,2.1,2.56.91,6.01,3.74,8.5.34-.78.59-1.36.84-1.94.17.1.34.21.51.31-.17-1.34-.34-2.67-.52-4.13.04-.04.21-.21.35-.35Zm-36.15-4.89c1.8,1.67.84,3.64,1.61,5.32.74,1.62.16,3.84.16,5.79l.67-.42c.11.47.23.93.35,1.43.63-.69.95-1.04,1.05-1.15-.22-1.42-.51-2.56-.55-3.71-.08-2.48-.02-4.97-.04-7.45,0-.19-.25-.38-.5-.74-.71.24-1.47.5-2.75.93Zm12.18.07c-.59-.27-1.26-.58-2.45-1.12.43,4.49.8,8.39,1.18,12.37.55-.11.89-.18,1.27-.25v-10.99h0Zm13.4,9.57v-8.93c-1.05.06-1.97.11-2.95.16.31,1.64.67,3.01.8,4.4.13,1.44.03,2.9.03,4.37,0,0,2.12,0,2.12,0Zm78.12,1.68v4.94c.41.41.85.85,1.32,1.32-.27,1.9.41,3.49,1.81,4.81,1.42-.84,1.28-2.14,1.2-2.61-1.03-2.01-1.39-3.56-2.37-4.4-1.38-1.2.46-3.54-1.97-4.06h0ZM54.02,123.23c-.37-.78-.77-1.61-1.26-2.63-1.78.36-3.63.66-5.43,1.15-.45.12-.74.84-1.09,1.27,2.04,2.02,4.4,1.29,6.51,1.47.44-.44.79-.79,1.26-1.26h0Zm-.12,8.29c-1.64.21-3.37.44-5.08.66-.27.27-.53.53-.64.64.56.74,1.11,1.49,1.55,2.08h3.9c-.16-.17-.31-.34-.47-.52.86-.48,1.72-.95,3.15-1.74-1.18-.56-1.75-.82-2.4-1.13h-.01ZM149.5,20.14c.37,1.67.76,2.87.88,4.1.14,1.35.03,2.73.03,4.05.4.4.75.75,1.14,1.14.32-.37.65-.74,1.01-1.15v-6.86c-.92-.38-1.74-.72-3.07-1.27h.01Zm-53.83,14.41v-6.43c-.94.25-1.79.48-2.64.71-.32.7-.65,1.42-.86,1.89.36,1.44.66,2.66.95,3.83h2.56,0Zm-53.95,57.76c1.54.91,2.29.99,6.3.7.21-.02.4-.21.86-.46-.31-.81-.63-1.66-.95-2.5-2.57-.1-4.61.32-6.21,2.26Zm135.86-54.55h-1.64c-.29,1.4.61,1.75,1.47,2.17,2.01-1.32,3.26-3.14,3.87-5.04.64-.31,1.02-.49,1.69-.81-.66-.75-1.12-1.27-1.54-1.74-.96.05-1.78.08-2.69.13.39,1.27.7,2.26.97,3.15-.77.77-1.39,1.39-2.13,2.13h0Zm-17.4,183.18c-.21-2.28.27-4.5-.43-7.13-1.11.98-1.9,1.67-2.47,2.16v4.97h2.9Zm63.26-178.08c-1.08,3.21,1.62,4.9,1.26,7.29-.09.6.77,1.36,1.23,2.03.11.16.33.23.46.32.38-.35.74-.68,1.19-1.1-.81-2.81-1.91-5.48-4.15-8.53h0Zm-27.27,155.76v4.26c.34.28.9.75,1.37,1.14v2.47c.51.39,1.06.8,1.68,1.27.59-.68,1.04-1.19,1.84-2.1-2.19-.44-1.5-2.55-2.5-3.32-1.33-1.01-.43-3.17-2.4-3.72h.01ZM45.83,84.81c-1.68.53-3.18,1.01-4.67,1.48.44.91.74,1.52,1.07,2.19,2.28.25,4.4.05,5.99-2.39-.97-.52-1.74-.93-2.39-1.28Zm46.59,13.83c.45.6.96,1.27,1.65,2.19.48-2.44,3.56-1.05,4.01-3.52-.91-1.68-2.85-1.28-4.04-2.03-.62,1.28-1.11,2.3-1.62,3.35h0Zm-54.85-30.98v2.87h4.83c-.13-.14-.25-.27-.38-.41.6-.22,1.19-.44,1.79-.66v-.73c-.6-.23-1.19-.45-1.78-.68.12-.13.25-.26.37-.39h-4.83Zm8.99,43.5c-.37.5-.72.96-1.08,1.45.47.51.8.87,1.2,1.3h3.2c.72-.97,2.73-.7,2.46-2.75h-5.78Zm15.27,71.64c.59-.76.86-1.71.81-2.86h-4.68c-.59.76-.86,1.71-.81,2.86h4.68Zm110.75,14.69c.55.74,1.01,1.36,1.5,2,2.13-.64,4.02-1.27,5.52-2.78l-1.03-1.03h-3.16c-.85.54-1.73,1.1-2.83,1.8h0Zm-117.5-61.14c-1.26.31-2.38.64-3.52.86-1.89.36-2.02.52-1.87,3.01,1.84-.33,3.67-.67,4.62-.84,1.09-.54,1.52-.75,1.72-.85-.33-.78-.56-1.3-.94-2.19h-.01Zm148.12,62.21c.21-1.09.36-1.44.31-1.75-.07-.44-.25-.88-.45-1.28-.82-1.63-1.66-3.25-2.52-4.85-.33-.61-.72-1.19-1.42-2.35v4.4c.39.26,1,.66,1.49.98v2.39c.74.7,1.41,1.35,2.59,2.47h0Zm-47.67,23.42v-6.95c-.8.06-1.47.11-2.05.16-.3,2.07.41,3.98-.81,6.02.99.27,1.83.5,2.86.78h0ZM49.29,98.11v-1.9h-5.74v2.96c1.98-.36,3.79-.7,5.74-1.06ZM227.9,20.51c.48,1.04,1.08,1.7,1.01,2.27-.28,2.13,1.83,3.24,2.03,5.16.03.29,1.03.48,2.21.99-.61-1.29-1.02-1.87-1.16-2.52-.15-.68-.03-1.41-.03-2.03-.67-.23-1.1-.38-1.63-.56v-3.31h-2.43ZM48.88,115.57c-.37,1.15-3.03.54-2.33,2.74h5.76v-2.74h-3.43Zm55.78-82.37v-8.84c-1.35-.59-2.16.02-2.96,1.11.55.43,1.12.88,1.73,1.36v6.22c.38.05.61.07,1.24.15h-.01Zm34.53,182.65c0,.87.22,1.8-.06,2.52-.28.71-1.07,1.22-1.57,1.74.52.98.9,1.69,1.27,2.4.5,0,.99,0,.6,0,1.15-.58,1.71-.86,1.77-.89-.29-2.22-.51-3.96-.75-5.77h-1.26ZM224.56,40.69c1.19,2.17,2.22,4.05,2.92,5.34.54-.17,1.17-.36,1.66-.51-1.44-2.78-3.23-4.96-3.37-7.9-.47.06-.81.1-1.22.16v2.91h0Zm-192.86,4.31h5.59c.46-1.37-.02-2.24-1.25-2.96-1.25,1.84-4.04-.26-5.28,2.01.28.28.55.55.94.94h0Zm128.39-22.19c.39,2.05.75,3.97,1.08,5.74h1.77v-5.74h-2.85Zm-14.74,192.43c0,2.24,0,4.3,0,6.35,0,.06.18.13.47.32.49-.36,1.04-.76,1.49-1.09v-5.51c-.41-.38-.74-.68-1.07-.99l-.91.91h.01ZM46.6,102.11c-.6.74-1.25,1.55-1.97,2.45,1.56.72,2.74.56,3.71,0,.55.22.98.4,1.35.55.45-.46.81-.81,1.13-1.13v-1.88h-4.22,0ZM231.09,34.8c.29-.09.58-.17.87-.26,0-.46.16-1-.03-1.36-.9-1.73-1.9-3.41-2.94-5.24-.03-.65-.07-1.47-.12-2.37-.62.11-.96.17-1.34.24v2.53c.48.48.92.92,1.47,1.47-.58,2.19,1.17,3.37,2.09,4.97v.02ZM53.53,169.19h6.25v-2.94c-1.81.44-3.48.76-5.09,1.29-.42.14-.64.89-1.16,1.66h0Zm116.95,50.83v-5.59c-1.32-.41-2.21-.08-2.77,1.05,1.72,1.45-.61,4.27,1.85,5.46.26-.26.53-.53.92-.93h0Zm-60.23,3.85c1.72-.31,2.16-1.93,3.2-2.94,1.05-1.01,2.24-1.95,2.22-3.64h-1.29c-.8.97-1.5,1.91-2.3,2.75-.92.96-1.94,1.83-2.92,2.74.42.42.68.68,1.09,1.09ZM166.24,24.24v4.16c.72.34,1.31.61,1.79.84.41-.33.79-.64.96-.78v-4.22h-2.75Zm28.47,184.59c.68.74,1.61,1.23,1.39,2.48-.06.33.45.78.74,1.14.1.12.33.14.5.21.35-.38.68-.73.98-1.06-.39-1.15-.76-2.23-1.1-3.22-.42-.09-.76-.17-1.05-.23-.36-1.28.45-2.89-1.46-3.55v4.24h0ZM46.02,109.47c1.33-1.57,3.26-.13,4.91-1.03-.04-.59-.08-1.26-.11-1.85h-5.79v1.88c.3.3.64.64.99.99h0ZM235.55,18.17c-1.68.14-3.41-.24-5.75.48,1.02.69,1.52,1.03,2.18,1.48v2.23c.79.59,1.2,1.49,2.58,1.8-.71-1.42-1.21-2.43-1.83-3.68.96-.41,1.99-.84,2.99-1.26-.05-.3-.09-.53-.17-1.05ZM42.54,63.21h-6.37c-.68,1.33.02,2.13.51,2.54,1.68-.23,3.03-.41,4.4-.6.35-.46.69-.92,1.46-1.93h0Zm116.83,76.84h2.21v-4.75c-.85-1.46-1.63-2.8-2.66-4.57-.07,1.59.37,2.96,1.34,4.09-.52,1.58.57,3.48-.89,5.22h0ZM34.33,31.48v-2.01h-4.93c-.36.56-.72,1.14-1.27,2.01h6.2Zm71.32,187.03c-.19-.19-.37-.37-.56-.56-1.1.9-2.36,1.67-3.26,2.74-.8.96-2.69,1.43-2.06,3.44,3.32-.74,4.18-3.59,5.88-5.62h0Zm26.14,4.46c.56-.28,1.12-.57,1.47-.75-.4-2.09-.73-3.82-1.1-5.72-.64.06-1.3.12-2,.18.36,1.99.68,3.74,1.04,5.69l.59.59h0ZM77.98,40.3v2.72c1.44,1.47,2.58,2.62,3.76,3.83.67-.67,1.26-1.13,1.66-1.71.26-.38.25-.95.46-1.89-1.08.54-1.69.85-2.59,1.3-.96-1.24-1.95-2.51-3.3-4.25h0Zm128.61,120.92c-.02.43-.2.96-.03,1.32.87,1.86,1.82,3.7,2.79,5.51.14.27.55.5.86.54.27.03.57-.23,1.1-.47-.68-.87-1.25-1.6-1.86-2.39v-2.1c-.51-.18-.94-.34-1.3-.47-.11-.75-.21-1.41-.31-2.05-.51.04-.75.06-1.24.1h0Zm8.65-27.94c.49-2.99.59-5.31-1.48-7.15-.2-.18-.65-.08-1.12-.12v2.98c.33.24.92.68,1.31.98.24,1.12-.39,2.21,1.28,3.31h0ZM28.55,36.15c2.38,0,4.68,0,6.99-.02.14,0,.28-.34.57-.71-.47-.54-.97-1.12-1.46-1.7-1.97,1.66-4.19.44-6.09,1.16v1.27h-.01Zm29,113.77c-1.75,0-3.46.1-5.15-.03-1.84-.14-1.6.9-1.28,2.36,2.13-.35,4.28-.71,6.5-1.07-.02-.38-.04-.72-.07-1.26Zm78.65,73.25c0-2.32,0-4.62-.02-6.92,0-.16-.31-.31-.53-.51-.29.1-.62.2-.89.3-.25,1.71.43,3.48-.85,4.99.98.42.09,2.57,2.29,2.14h0Zm65.97-21.32c-1.22-2.34-2.45-4.71-3.72-7.13-.81.99-.59,2.25.66,3.79v2.1c1.55-.65.99,2.77,3.06,1.23h0Zm-146.04-24.62c1.84,2.31,3.54.87,5.27-.06-.03-.59-.05-1.07-.08-1.63-2.17-.6-3.73.37-5.2,1.7h.01Zm-.99-3.49h5.47c.3-.65.57-1.23.84-1.79-1.88-.99-3.5.58-5.22-.19-.31.57-.63,1.15-1.09,1.98Zm97.24-82.22c1.15-1.17,2.03-2.07,2.69-2.73-.32-.45-.8-1.11-1.13-1.58-1.05.92-1.96,1.71-2.82,2.46.05.71.09,1.28.12,1.85.73,0,1.21,0,1.14,0h0Zm-47.53,175.62c-.44-.44-.79-.79-1.11-1.11h-3.29v4c1.66-1.09,3.02-1.98,4.4-2.89ZM53.84,126.61c-2.22.44-4.1.82-6.37,1.27.78.88,1.28,1.45,1.5,1.7,1.92-.35,3.38-.61,4.87-.88,0,0,0-2.09,0-2.09Zm128.89,93.6c-.66-2.24.88-4.69-1.25-6.65-2.85,2.27.59,4.43-.52,6.65h1.77Zm35.92-142.8c-.41,2.06-.25,3.98,1.39,5.55.12.11.33.13.7.26.32-.77.63-1.51.77-1.84-.81-1.64-1.42-2.86-2.02-4.07-.23.03-.47.05-.85.09h.01ZM35.95,38.65c-1.83-1-3.41,1.92-4.99-.35-.45.75-.79,1.33-1.35,2.26,2.39.09,4.37.18,6.34-.05v-1.86Zm16.36,116.17c.03.3.06.6.08.9h5.81c.23-.23.57-.58.64-.64-.28-.54-.56-1.08-.77-1.49-2.12.45-3.94.84-5.76,1.23h0Zm134.66,63.32c-.76-1.58-1.3-2.72-1.85-3.85-.23,0-.47.03-.94.06-.39,2.21.31,4.12,1.7,5.82.14.17.65.02,1.08.02v-2.05h.01ZM56.07,142.56h-5.84v2.15c.98-.1,1.91-.14,2.81-.31,1.01-.19,2.01-.49,3.04-.75v-1.09h-.01Zm3.46,48.76c1.67-.44,3.3-.86,4.9-1.28-.09-.5-.13-.72-.22-1.22-1.92.12-3.89-.23-6.21.33.55.77.87,1.24,1.53,2.16h0Zm.29-32.28h-7.33v1.23h7.33s0-1.23,0-1.23Zm152.44-3.43c.84-3.22-1.48-4.91-1.46-7.21-.51.05-.75.08-1.14.12-.66,2.74,1.16,4.59,2.6,7.1h0Zm2.97-12.01c-1.29-2.94-2.22-5.08-3.14-7.2-.39.08-.62.13-1,.21-.54,2.25,1.88,3.67,1.58,5.65.54.18.88.27,1.19.41.23.11.43.29,1.37.93Zm-21.41,66.79c-.27.13-.54.26-.81.38.13.66.03,1.64.43,1.91,1.38.95,1.04,2.34,1.17,3.82.67.26,1.34.52,2.44.94-.88-2.89-2.08-4.96-3.23-7.06h0ZM31.53,49.49h5.1c.31-.59.62-1.16,1.24-2.33-2.48.45-4.37.8-6.34,1.16,0,0,0,1.17,0,1.17Zm7.26,1.75h-4.81c-.34.71-.61,1.3-.91,1.94,2.2.75,3.98-.51,5.93-.87-.1-.5-.14-.72-.21-1.07Zm111,163.86v6.6h1.24v-6.6h-1.24ZM40.62,58.92c-2.17-.92-3.28.88-4.81,1.23-.3.07-.44.77-.74,1.33,3.15.04,3.95-.33,5.55-2.56Zm117.66,86.7c-1.41-.69-2.43-1.21-3.47-1.67-.13-.06-.39.19-.79.41.35.59.7,1.17,1.05,1.75h4c.9-.6,1.76-1.16,3.17-2.09-1.21-.06-1.79-.08-2.29-.1-.55.57-1.06,1.09-1.66,1.71h-.01Zm4.73,75.32v-6.6h-1.24v6.6h1.24Zm61.42-168c-.53-.33-1.32-.57-1.38-.91-.17-1.12-.66-1.1-1.49-.66.62,1.91,1.24,3.82,1.88,5.78.32-.08.65-.16,1-.24v-3.96h0Zm-52.95,166.23c1.33.55,2,.83,2.99,1.23-.16-.81-.18-1.16-.32-1.46-.14-.31-.41-.56-.36-.49.26-1.58.46-2.8.7-4.26-1.08.11-1.74.18-2.92.3,1.6,1.61,1.72,3.02-.1,4.68h.01ZM39.77,81.18c.9,1.1,1.33,1.62,1.77,2.16,1.36-1.66,3.33-.14,4.84-1.05-.02-.34-.03-.68-.05-1.11h-6.56Zm26.56,118.97c-1.7.34-3.35.67-5.06,1.02.17.51.28.83.37,1.07h4.72c.38-.4.69-.74,1-1.07-.39-.39-.74-.74-1.02-1.02h-.01ZM143.42,9.87c-.21.42-.49.96-.76,1.5-.17-.12-.33-.24-.5-.37.05.9.1,1.81.14,2.65,1.44.23,2.51-.05,2.83-1.28.3-1.14-.2-2.08-1.71-2.5Zm-65.3,29.14h2.55c.19-.55.33-.98.51-1.51h2.68c-.08-1.05-.14-1.94-.22-3.01-1.86,1.52-3.49,2.85-5.52,4.51h0Zm27.22,124.91c-.9-1.51-1.71-2.85-2.54-4.24-.81,1.3.49,3.05-.69,3.87.25.49.53,1.04.76,1.5,1.04-.47,1.76-.8,2.47-1.12h0Zm72.62,56.28v-5.85h-1.24v5.85h1.24Zm-66.95-2.4c-3.14,1.03-4.23,3.59-6.64,5.31h2.35c1.41-1.75,2.66-3.3,4.29-5.31Zm-25.13.82c-.76.41-.47,2.01-1.77,1.73.24,1.5-2.27,1.85-1.68,3.57,2.75-.5,3.18-2.94,4.65-4.62-.51-.29-.79-.45-1.2-.69h0Zm37.71,57.26v2.73c.63.32,1.2.61,2.24,1.14-.26-1.93.2-3.42-.55-5.2-.77.61-1.31,1.04-1.69,1.34h0Zm50.88-72.55c3.2.48,4.28-.11,5.05-2.51-1.99-.14-3.36.72-5.05,2.51ZM33.64,25.64c-1.98.14-3.92-.23-6.08.31,1.97,2.03,4.08.84,6.08,1.31,0,0,0-1.62,0-1.62Zm29.42,158.38c-2.17.83-3.77,1.45-5.44,2.09.28.32.5.58.74.82.17.16.38.28.57.41,3.12-1.27,3.34-1.43,4.12-3.32h0Zm-19.69-111.51c-1.99-.26-3.77-.07-4.59,2.26,2.47.99,3.21-1.35,4.59-2.26Zm50.81,197.1v-3.28c-.87-1.3-1.78-1.52-3.17-.6.68.52,1.24.94,1.93,1.47v2.41h1.25-.01Zm122.57-151.95c.49-1.01.3-1.75-.46-2.59-.57-.64-.76-1.61-1.15-2.51h-1.01v2.76c.55.18.98.32,1.49.48v1.86h1.13,0ZM39.59,76.97c.03.38.07.76.1,1.14,1.74-.14,3.47.1,5.56-.21-.53-.86-.88-1.43-1.12-1.82-1.65.33-3.1.61-4.55.9h0Zm51.46,141.91c-1.43,1.55-3.44,2.64-4.39,4.75,2.11.16,3.31-1.11,4.39-4.75Zm3.48-211.18c-.47,1.28-.25,2.21.7,2.73.54.29,1.29.21,2.12.32-.07-1.25-.13-2.15-.18-3.04h-2.64Zm69.96,206.64c.29,1.1.55,2.05.83,3.13-.37.75-1.22,1.6-.35,2.77.3-.02.63-.05,1.03-.08v-5.82h-1.51Zm-10.27-54.77c.83,1.01,1.35,1.64,1.8,2.19h1.66c-.6-1.25-1.17-2.44-1.67-3.48h-1.79v1.29h0ZM34.53,56.98h5.09v-1.24h-5.09v1.24Zm25.44,137.72h5.09v-1.24h-5.09s0,1.24,0,1.24Zm4.54,13.66v2.13c1.55-.35,2.97-.66,4.44-.99-.09-.44-.17-.77-.25-1.13h-4.2,0Zm8.83,15.39c1.52.71,1.85-.57,2.49-1.13.7-.63,1.71-3.12,1.73-4.2-1.53,1.93-2.85,3.6-4.22,5.33Zm-3.72-6.91c-1.54-1.07-2.49.59-3.73.78v.95h3.73v-1.73Zm4.04-199.63c-1.68.83-2.15,1.74-1.6,3.06,2.14-.06,2.8-.45,2.8-1.54-.41-.53-.78-.99-1.2-1.52Zm111.12,11.56h-3.62v1.38c.72,0,1.43-.11,2.1.03.71.14,1.37.51,2.74,1.06-.62-1.25-.9-1.82-1.23-2.47h0Zm-11.35-2.98h-2.34c.47,1.38.87,2.53,1.24,3.61h1.1v-3.61h0Zm-89.89,39.18c.12-1.97-.62-3.09-2.23-3.38-.62.61-1.75,1.04-.96,2.16.59-.29,1.09-.54,1.33-.66.68.69,1.16,1.16,1.87,1.87h-.01Zm94.05-38.05c-.27.09-.53.17-.8.26v3.4c1.15-.53,2-.93,2.36-1.1-.57-.93-1.07-1.74-1.57-2.56h.01Zm-109.23,98.57c-.35-.26-.86-.63-1.21-.89-.83.42-1.43.72-1.89.95v1.76c1.45.43,2.39.03,3.1-1.82Zm54.07,32.13c.23-1.87.82-3.08,1.76-3.62-1.53-.19-2.72.11-3.56.92.56.83,1.12,1.66,1.81,2.7h-.01Zm-34.73-121.94c-.42-.85-.86-1.72-1.26-2.55-.41.07-.64.11-1.06.19.02,1.28-.59,2.71,1.15,3.46.36-.34.71-.67,1.17-1.11h0Zm-26.5,161.98h4.74c-.09-.52-.15-.85-.21-1.24h-3.29c-.36.36-.71.71-1.24,1.24Zm34.66,71.17h1.94c-.28-1.28-.53-2.47-.79-3.7-.45.1-.78.17-1.14.24v3.45h-.01Zm-30.67-54.63h3.61v-1.25h-3.61v1.25ZM98.7,5.43c.15,1.91.22,2.86.34,4.38,1.06-.93,1.62-1.43,2.44-2.15-.85-.68-1.44-1.16-2.78-2.24h0Zm14.09,81.46c-1.15.63-1.64.9-1.79.98.64.88,1.12,1.55,1.61,2.23.55-.58.94-1.01,1.63-1.74-.65-.66-1.13-1.14-1.45-1.47Zm14.62,66.81c-.65,2.25.84,3.01,2.44,3.95.17-.53.39-1.12.35-1.14-1.25-.58-1.46-2.19-2.79-2.81Zm-33.79,125.09c1.01,1.16,1.5,1.74,2.38,2.76.31-1.28,1.78-1.29,1.1-2.76h-3.49.01ZM172.28,34.56c.57-.78.95-1.28,1.34-1.81-1.89-1.36-2.62-1.47-3.1-.3.41.48.89,1.06,1.77,2.1h0Zm-119.66-4.75c-.27-.21-.53-.41-.8-.62-.62.56-1.23,1.13-2.01,1.84.72.51,1.19.85,1.83,1.31.28-.73.63-1.63.99-2.53h-.01ZM104.65,7.64v-2.86h-1.24v2.86h1.24Zm-17.89,259.32c-.72-.31-1.38-.59-2.13-.91v1.85c.72.31,1.38.59,2.13.91v-1.85Zm-31.5-119.92h-3.54v1.09c1.46.94,2.39-.42,3.54-1.09Zm14.97-124.43v-2.86h-1.24v2.86h1.24Zm19.31,11.35c.43-.65.81-1.23,1.17-1.78-.5-.5-.85-.85-1.29-1.29-.44.52-.87,1.03-1.44,1.71.61.53,1.04.9,1.57,1.35h0Zm25.76,56.27c1.45-.37,2.32-.79,2.14-2.29h-2.14v2.29Zm2.01,131.1c-1-.2-1.34-.27-1.64-.33-.62.99-1.21,1.92-1.95,3.1,1.82-.19,2.39-1.36,3.59-2.77Zm13.8-207.84c.79-.65,1.49-1.13,2.05-1.75.14-.15-.21-.73-.46-1.54-1.05,1-1.77,1.68-2.5,2.37.45.45.71.71.91.91h0Zm29.61,143.76c-1.34.4-2.23.8-2.03,2.29h2.24c-.07-.81-.13-1.47-.21-2.29ZM92.75,9.09c-.66.13-1,.19-1.45.28.05,1.01.09,1.92.14,2.92.6-.12.94-.18,1.31-.26v-2.95h0Zm49.06,122.87c.52,1.29.88,2.19,1.24,3.08l.43-.12v-2.97h-1.68,0Zm-9.31,20.41c-.1-1.87-.83-2.38-2.23-2.45-.17,1.65.68,2.08,2.23,2.45ZM45.06,35.82c.63-.52,1.31-1.09,1.93-1.61-.28-.33-.6-.71-.86-1.02-1.11.7-1.59,1.58-1.06,2.63h0ZM109.4,6.48c.9-.52,1.54-.89,2.46-1.42-.93-.5-1.58-.85-2.46-1.31v2.73Zm85.9,29.8h-2.92v1.1c1.12.07,2.09-.29,2.92-1.1Zm-130.8-14.41c.87,1.17,1.3,1.74,1.85,2.47.5-.83.83-1.39,1.37-2.29-1.02-.06-1.68-.1-3.22-.19h0Zm-9.29,8.31v-2.34c-.54.11-.87.18-1.34.27.07.77.12,1.43.18,2.07h1.16Zm120.3,6.09c.3-.03.6-.07.89-.1v-2.34c-.54.11-.87.18-1.41.28.19.79.35,1.47.51,2.15h.01Zm-136.37,1.41v2.34c.54-.11.87-.18,1.34-.27-.07-.77-.12-1.43-.18-2.07h-1.16Zm47.62,1.63c-.92.06-2.23-.86-2.16,1.24h2.16v-1.24ZM116.82,4.58h2.11v-1.24h-2.11v1.24Zm27.37,89.54c.46-1,.76-1.66,1.21-2.63-1.12.06-1.78.1-2.45.14.4.8.69,1.39,1.24,2.49h0Zm-10.48,10.85c-.27-.56-.51-1.07-.95-1.97-.53,1.22-.81,1.86-1.44,3.32,1.44-.81,2.08-1.17,2.39-1.34h0ZM78.48,15.25c.13.66.19.99.28,1.47.76-.06,1.43-.11,2.17-.17-.11-.58-.18-.91-.25-1.29h-2.2Zm48.87-9.74v2.11h1.24v-2.11h-1.24Zm-13.54.43c.78-.99,1.2-1.53,1.87-2.38-.84-.19-1.3-.29-1.87-.42v2.8Zm-70.51,29.06c-.71.97-1.13,1.55-1.73,2.37.75.14,1.16.21,1.73.32v-2.69Zm77.81,0c-.71.97-1.13,1.55-1.73,2.37.75.14,1.16.21,1.73.32v-2.69Zm-57.54-12.1c-1.02.75-1.6,1.18-2.56,1.88h2.56v-1.88Zm159.47,41.2c.75-.31,1.13-.46,1.42-.58.07-1.22-.57-1.52-1.42-1.67v2.26h0ZM89.84,11.83c-.47-.45-.82-.78-1.16-1.11-.38.38-.73.73-1.13,1.13.37.32.73.64,1.17,1.02.28-.26.62-.57,1.12-1.04Zm68.8,22.62h1.59c-.11-.54-.18-.87-.28-1.36-.52.11-.93.19-1.31.27v1.09ZM124.3,5.45c1.67.07,1.68-.55,1.1-1.55-.39.07-.72.14-1.1.21v1.33h0Zm65.57,29.21v-1.59c-.54.11-.87.18-1.36.28.11.52.19.93.27,1.31h1.09Zm-123.67,101.76c-.81,1.39.34,1.62.84,2.31.81-1.39-.34-1.62-.84-2.31Zm74.55-100.27c1.67.07,1.68-.55,1.1-1.55-.39.07-.72.14-1.1.21v1.33h0Zm-31.04,88.23c-.16.17-.33.33-.49.5.06.33.13.67.22,1.16.52-.1.94-.18,1.87-.35-.77-.63-1.19-.97-1.6-1.31Zm-40.96-.33c.17.16.33.33.5.49.33-.06.67-.13,1.16-.22-.1-.52-.18-.94-.35-1.87-.63.77-.97,1.19-1.3,1.6h-.01Zm9.08-105.9c.07-1.67-.55-1.68-1.54-1.1.07.39.14.72.21,1.1h1.33Zm27.39,96.51c-.16.17-.33.33-.49.5.06.33.13.67.22,1.16.52-.1.94-.18,1.87-.35-.77-.63-1.19-.97-1.6-1.31ZM123.41,3.41h-2.27c.11.54.18.87.32,1.59.63-.51,1.04-.85,1.94-1.59h0Zm-36,10.16c-1.31-.61-1.98-.93-2.77-1.3v1.3h2.77Zm43.23-5.9c-.5.69-1.66.92-.84,2.31.5-.69,1.66-.92.84-2.31ZM57.64,27.85c.07-1.67-.55-1.68-1.54-1.1.07.39.14.72.21,1.1h1.33Zm24.5,14.96v-2.27c-.54.11-.87.18-1.59.32.51.63.85,1.04,1.59,1.95Zm39.1,116.27v.37h2.24v-.37h-2.24Zm31.61-73.74c-.57-.56-.96-.93-1.9-1.85.27,1.26.35,1.67.45,2.12.49-.09.82-.16,1.45-.28h0Zm-28.5,72.19c.02.22.04.44.07.66.65-.09,1.31-.19,1.96-.28-.01-.13-.03-.25-.04-.38h-1.99Zm33.74-27.13c-.13-.39-.3-.96-.48-1.52-.11.08-.22.16-.32.24v1.29h.81,0ZM83.65,15.13c-.31-.57-.57-1.06-1.19-2.21v2.21h1.19Zm49.96.25h-1.22c.09.52.15.85.33,1.91.46-1,.7-1.51.89-1.91Zm-34.2,24.38c-.01-.21-.03-.43-.04-.64l-1.25.27c.02.12.03.25.05.37h1.24Zm57.13,84.83c0,.21.03.43.04.64l1.25-.27c-.02-.12-.03-.25-.05-.37h-1.24,0Zm23.19,5.24c0,.21.03.43.04.64.42-.09.83-.18,1.25-.27-.02-.12-.03-.25-.05-.37h-1.24,0ZM59.14,25.86v.37h1.5v-.37h-1.5Zm52.87,4.3h-.25v.75h.25v-.75Zm-21.7,4.49h-.25v.75h.25v-.75Zm21.45-11.98h.25v-.75h-.25v.75Zm-4.49,98.8h.25v-.75h-.25v.75Zm48.88,6.74h-.25v.75h.25v-.75Zm-30.17,24.7h.25v-.75h-.25v.75Zm12.22-.75h-.25v.75h.25v-.75Zm-17.96,8.23h-.25v.75h.25v-.75Zm-7.23,18.96v.25h.75v-.25h-.75Z"/>
        <path class="cls-1" d="m203.64,228.9c.92-1.52,2.25-2.92.64-4.76,1.02-2.86,2.46-5.61,2.28-8.8-.04-.65.41-1.32.54-2,.58-3.26,1.33-6.51,1.58-9.79.11-1.48.73-2.75.87-4.17.13-1.3-.53-2.67.44-3.93.9-1.17.18-2.68.85-4.14.76-1.64.17-3.9.17-5.82,1.38-1.35,1.68-2.98,1.48-4.71-.19-1.68.61-2.97,1.5-4.46v-4.34c.43-.4.89-.81,1.44-1.31v-4.59l1.47-1.47c.46-2.76-.8-5.88,1.67-8.41-.76-3.6,1.27-6.89,1.51-10.48,1.8-.87,3.5-1.72,5.64-.38.89.56,2.42.09,3.62.09l1.39,1.39c.72-.52,1.45-1.04,2.23-1.61.88,1.5.57,2.68-.16,3.69.49,1.9,1.26,3.68,1.35,5.5.2,4.23.47,8.53-.08,12.7-.38,2.9-.52,5.78-.62,8.66l-1.48,1.48c0,1.33-.05,2.81,0,4.29.1,2.3-.17,4.51-1.15,6.64-.33.72-.32,1.64-.34,2.47-.04,1.56.13,3.14-.76,4.55-.96,1.53-.68,3.25-.76,4.93-.21,4.14-.06,8.36-.88,12.38-.55,2.7-.62,5.31-.53,7.95.07,2.23-.89,4.2-1.01,6.36-.04.68-.48,1.33-.53,2.01-.09,1.24.14,2.52-.08,3.73-.17.99-1.02,1.87-1.17,2.86-.28,1.81-.27,3.66-.39,5.57-1.98,2.03-1.26,4.68-1.39,7.46-.43.3-1.04.73-1.48,1.04,0,1.81-.13,3.31.04,4.79.16,1.4-.24,2.67-.85,3.77-.37.66-.73,1.2-.68,1.97.15,2.42-.45,4.69-1.33,6.93-.25.65-.2,1.46-.14,2.18.09,1.02-.43,1.81-.71,2.7-.77,2.43-1.85,4.75-2.34,7.28-.19,1-.8,1.92-1.44,3.39.11,1.69-.11,3.92-1.19,5.99-.26.5-.34,1.16-.3,1.73.14,2.32-.63,4.43-1.28,6.59-.24.79-.26,1.69-.22,2.52.14,2.79-.35,5.43-1.33,8.06-.41,1.09-.21,2.44-.16,3.67.06,1.74-.12,3.37-1.51,4.66,0,1.59-.03,3.21,0,4.83.03,1.1-.03,2.18-.77,3.05-.77.91-.76,1.98-.74,3.06.02,1.11,0,2.23-.33,3.25-.39,1.2-.69,2.44-1.17,3.61-1.38,3.32-2.19,6.85-4.83,9.63-1.92,2.02-3.25,4.6-4.84,6.94,3.16.68,7.73.57,10.7-.18.58-.15,1.21-.15,1.82-.13,7.89.25,15.72-1.1,23.63-.82,7.97.28,15.96.06,23.93.06,1.06.63,1.55,1.5,1.11,2.74-.21.08-.44.26-.64.24-2.52-.23-5.03-.58-7.55-.71-2.49-.12-5.02-.28-7.47.02-10.85,1.32-21.74.41-32.61.73-1.4.04-2.78.54-4.18.7-1.41.16-2.88-.25-4.21.72-.41.3-1.21.05-1.84.05-4.99,0-9.97.03-14.96-.02-1.04-.01-2.02.09-3.14-.58-1.26-.75-2.56.64-3.77,1.29-.26-.26-.53-.53-1.06-1.06v-3.64c-.93.83-1.52,1.35-2.58,2.29-.19-.8-.34-1.47-.5-2.13-.21.19-.42.38-.63.57v-2.23c2.32-1.41,4.61-2.93,5.4-5.71h1.89c.34.64.72,1.35,1.18,2.24-.59.63-1.08,1.15-1.57,1.67-.29,1.33-.58,2.68-.99,4.59.61-.53.9-.78,1.19-1.03,3.29,1.41,6.67.53,10.15.71-1.68-1.68-3.15-3.16-4.58-4.59,0-2.26-.06-4.38.02-6.48.05-1.17-.39-2.37.64-3.5.54-.59-.04-2.5-.64-3.73.44-.44.88-.88,1.48-1.48,0-.57-.05-1.3,0-2.02.22-2.52.11-5.15.88-7.5.47-1.46.65-2.82.57-4.22-.13-2.24.8-4.14,1.58-6.25-.24-.31-.52-.68-.87-1.16,1.49-2.01.51-4.42.9-6.62.47-.47.91-.91,1.39-1.39v-8.3c.43-.35.91-.74,1.52-1.24-.16-2.72.44-5.33,1.44-7.89.38-.97.11-2.22.05-3.34-.09-1.74.13-3.36,1.19-4.4.7-4.04,1.35-7.79,2.03-11.74,1.08-.98,1.39-2.46,1.28-4.09-.12-1.74.11-3.36,1.49-4.69.12-2.31-.51-4.85,1.51-6.79v-5.01c1.03-1.67,2.36-3.07.67-5.01.69-1.53,1.65-3.05,2.04-4.7.41-1.76.29-3.65.39-5.43h-.04Zm-12.99,108.13c-.22.01-.43.02-.65.03.1.49.19.98.29,1.46.16-.02.32-.04.48-.06-.04-.48-.08-.96-.53-.72-.19-1.47-.29-2.22-.41-3.21-.64.32-1,.5-1.62.81.61.72,1.04,1.23,2.44,1.69Zm3.98,7.43l-.15.15c.17.2.35.41.52.61l.24-.24c-.2-.17-.41-.35-.78-.44v-2.25c-.53.06-.94.1-1.45.15.09.83.15,1.48.22,2.1.49,0,.73,0,1.4-.08h0Zm7.41-61.3c.06-1.28.16-2.57-2.02-2.9.37-2.3-.94-4.31-3.8-6.18,1.51,2.45,2.66,4.31,4.32,6.08-.06,1.28-.16,2.57,1.5,2.99-.06,1.28-.16,2.57,1.8,2.74-1.26,2.18,1.19,2.84,1.29,4.41,0,.08.89.11,1.94.23-1.35-1.76-1.43-3.62-3.54-4.39.06-1.28.16-2.57-1.5-2.99h0Zm-5.99,29.2c.06-1.28.16-2.57-1.5-2.99-.14-2.04-1.53-4.49-2.81-4.49-.07.63-.14,1.29-.22,1.97.54.2.97.36,1.4.52.13.68.25,1.36.37,2.01h1.26c-.06,1.28-.16,2.57,1.5,2.99-.06,1.28-.16,2.57,1.5,2.99v2.25h1.21c.41,1.08.79,2.06,1.17,3.03.2-.05.4-.09.6-.14-.05-.97-.09-1.94-.14-2.89h-1.35v-2.25h-1.5c.06-1.28.16-2.57-1.5-2.99h.01Zm1.86-17.23c-.51-.87-.93-1.58-1.35-2.29-.17.05-.33.1-.5.15.06.72.12,1.43.18,2.13h1.31v2.99c.6,0,1.05,0,1.63-.61v3.45c.55.19.98.33,1.41.48-.32,1.23.35,1.89,1.01,2.68.51.61.61,1.56,1.01,2.7.52-.59.93-.85.9-1.06-.32-3.09-2.55-5.18-4.46-7.63.06-1.28.16-2.57-1.14-2.99h0Zm-3.53,7.54c.19,1.47.29,2.22.41,3.21.64-.32,1-.5,1.62-.81-.61-.72-1.04-1.23-1.86-1.71,0-.62,0-1.23,0-1.09-1.03-1-1.67-1.63-2.19-2.13.28.9.64,2.07.99,3.22.33,0,.58,0,1.02-.69h0Zm7.66-34.49v2.99h1.5v2.44c.93,1.26,1.83,2.37,2.59,3.57.29.46.14,1.2.43,1.67.46.77.93,1.85,2.36.9-.96-1.85-1.91-3.67-2.89-5.56-.19-.04-.53-.11-.87-.18-.11-1.01-.2-1.94-.3-2.85h-1.32v-2.99c-.6,0-1.05,0-1.75.75.75-2.99-1.21-3.86-2.25-5.34-.35.6-.66,1.29-.45,1.66.66,1.12,1.52,2.11,2.95,2.93h0Zm-3.18,43.42c1.31-2.15-2.02-2.9-1.38-4.92,0-.04-.37-.28-.58-.3s-.44.11-.76.2c-.58,2.08,1.85,3.13,1.8,5.02.25,0,.49,0,1.23-.34v2.92c.6.52,1.18.79,1.34,1.21.42,1.1.89.95,1.69.11-.99-1.23-1-3.14-3.34-3.9Zm-7.6,15.22c1.26-2.18-1.19-2.84-1.29-4.41,0-.08-.89-.11-1.94-.23,1.35,1.76,1.43,3.62,3.67,4v3.21c.55.18.98.32.78.26,1.55,2.76,2.84,5.04,4.16,7.39.09,0,.33-.01.74-.03v-2.48c-1.02-1.56-1.77-3.07-2.87-4.25-1.05-1.14-.99-2.99-3.26-3.46h0Zm24.35-72.85h.95c.6-.89,1.18-1.77,1.94-2.91,0-1.02.06-2.37-.02-3.72-.07-1.27.31-2.6-.33-4.08-2.14,3.46-3.17,6.89-2.36,10.9-1.12.25-2.12.57-1.5,2.31.61-.94,1.05-1.62,1.31-2.49h.01Zm7.38-106.05c-1.6,2.16-1.76,4.16-1.34,6.28.27.27.66.49.78.81,1.1,2.77,2.71,5.31,3.59,8.19.4,1.33.66,3.04,3.01,3.26-.23-1.3.09-2.28-.72-3.51-1.43-2.19-2.4-4.69-3.48-7.09-.53-1.17-.46-2.64-1.83-3.21,0-1.49,0-2.85.34-5.05.6,1.15,1.13,2.4,1.59,3.76.37.11.7.21,1.18.35-.4,1.46.06,2.51,1.04,3.64.8.93.94,2.43,1.42,3.8.61-.32.91-.47,1.18-.61-.94-3.53-2.81-6.58-4.01-9.95-.37-.15-.8-.33-1.22-.5-.39-.16-.79-.33-1.53-.16h0Zm-1.68,66.92c0,2.3.57,4.73-.14,6.68-.89,2.46-1.18,4.84-1.17,7.36,0,2.62.06,5.23-.03,7.85-.03.78-.45,1.54-.63,2.13.25.93.55,1.7.63,2.49.1.94.02,1.9.02,3.4.71-.86,1.02-1.24,1.49-1.8.13-2.13-.1-4.52.66-6.9.41-1.29,1.08-2.58.93-4.15-.15-1.48.15-3.13.73-4.51.79-1.89.63-3.78.68-5.7,0-.5-.2-1.15.04-1.47,1.06-1.43.55-3.04.73-4.57.17-1.52.63-3.03.7-4.55.12-2.61.02-5.23.04-7.85,0-.73-.1-1.53.16-2.18,1-2.47,1.51-5,1.34-7.67-.07-1.09-.03-2.15.74-3.06.74-.88.8-1.95.76-3.05-.04-1.37-.11-2.75.02-4.11.12-1.28.22-2.66.78-3.77.71-1.4.78-2.78.66-4.2-.19-2.33.59-4.46,1.22-6.61.31-1.07.5-2.01,0-2.99-.41.04-.83,0-.86.11-.63,1.98-1.46,3.95-1.74,5.99-.2,1.42-.21,2.9-.87,4.14-.79,1.49-.68,3.02-.7,4.57-.02,1.23,0,2.46,0,3.55l-1.5,1.5c0,2.19.04,4.43-.02,6.66-.02.69-.11,1.5-.49,2.02-1.07,1.5-1.05,3.15-.98,4.83.07,1.82.12,3.66-.79,5.28-.83,1.48-.7,3.01-.71,4.56-.02,1.48,0,2.96,0,4.34l-1.68,1.68h-.02Zm-17.76,112.09c1.37-1.34,1.53-2.95,1.52-4.69,0-1.53-.14-3.02.63-4.58.69-1.42.82-3.23.78-4.86-.04-1.73.16-3.44.88-4.88.89-1.78.53-3.46.7-5.25h-1.43v3.88c-2.57,2.87-1.17,6.22-1.77,9.71-.29.18-.93.56-1.32.8,0,1.02-.1,1.66.02,2.25.35,1.76-.43,3.38-1.08,4.78-.84,1.81.15,3.64-.67,5.32-.45.93-1.04,1.85-1.21,2.84-.21,1.2-.05,2.46-.05,4.01-.45.31-1.06.74-1.54,1.07.14,1-.39,2.18,1.04,1.93.6-1.21,1.17-2.35,1.99-4,0-.11-.32-1.13.05-1.55,1.81-2.05,1.38-4.5,1.45-6.8v.02Zm7.41-38.11c.37-1.7-.54-3.51.57-5.04,1.07-1.47,1.04-3.12.98-4.76,1.62-1.49,1.57-3.42,1.51-4.84.63-1.39,1.47-2.36,1.41-3.26-.16-2.06,1.03-3.57,1.73-5.32-.65-.52-1.18-.95-1.56-1.26-1.12,1.13-2.05,2.07-3.05,3.08-.2,2.3.62,4.97-1.65,7.22.18,1.85.37,3.85.62,6.38-.4.33-1.26,1.03-1.86,1.53-.42,2.31.47,4.42-.75,6.31.34.33.68.65,1.03.98.38-.38.73-.73,1.03-1.03h0Zm7.52-64.01c0-2.21.33-4.24-1.16-6.18-1.18-1.53-1.85-3.41-2.6-5.22-.83-2.01-2.09-3.84-3.23-5.72-.1-.16-.64-.06-.95-.07-.26.94-.5,1.81-.76,2.75,1.22,1.48,1.72,3.59,2.59,5.43.66,1.4,1.95,2.58,2.05,4.38.04.72,1.02,1.37,1.22,2.46.18,1.02,1.13,2.1,2.85,2.18h-.01Zm-16.32,29.67c1.3.58.71,2.46,2.12,3.26,1.29.74,1.22,2.56,2.24,3.67.68.74,1.08,1.76,1.51,2.7.28.62.28,1.39.61,1.97.29.53.86.91,1.38,1.43.33-1.87.59-3.36.89-5.07-3.14-3.05-4.27-7.74-7.32-11.18-.18-.21.11-.82-.06-1.07-.24-.36-.71-.55-1.36-1.02v5.31h0Zm20.84-65.52c-2.31-3.96-4.41-7.57-6.6-11.32-.05,0-.39.06-.79.11v5.29c2.93,3.7,4.34,7.92,6.44,11.84.32-.11.64-.22.95-.33v-5.59h0Zm-16.91,44.13c2.2,4.47,4.57,9.3,6.97,14.18.31-.1.64-.21.85-.28.66-3.89-.28-7.2-2.86-10.04-1.35-1.48-1.3-3.8-3-5.08.18-1.14-.11-2.03-1.29-2.54-.2,1.14-.38,2.16-.66,3.76h-.01Zm-5.46,27.29c1,1.64,2.04,3.18,2.89,4.82.58,1.11,2.06,1.83,1.6,3.42,1.28.84,1.19,2.18,1.58,3.45.29.97,1.09,2.42,2.71,3.01v-4.19c-.56-.88-.98-1.92-1.71-2.63-.85-.83-.98-1.81-1.34-2.82-.39-1.06-1.4-1.88-2.01-2.89-.53-.88-.88-1.86-1.33-2.79-.45-.92-.95-1.83-1.47-2.83-.18.03-.52.09-.91.15v3.3Zm8.67-38.79c-.56.23-1.02.27-1.18.5-1.32,2.03-.78,4.08.47,5.79,2.15,2.92,3.4,6.33,5.41,9.31.39.58.73,1.2,1.43,2.37v-4.88c-1.92-.66-1.01-3.18-2.67-4.05.2-1.88-1.45-2.88-2.17-4.3-.75-1.48-.98-3.05-1.3-4.74h0Zm-11.08,46.34c-.2.1-.39.2-.59.3.09.73.1,1.49.3,2.19.61,2.13,2.34,3.66,2.97,5.86.39,1.39,2.37,2.45,2.47,3.76.14,1.72,2.34,2.39,1.66,4.21.78.72,1.55,1.44,2.89,2.68,0-1.44.27-2.42-.05-2.69-1.03-.86-1.04-2.12-1.61-3.08-.71-1.2-1.59-2.25-2.08-3.63-.46-1.29-1.85-2.33-2.03-3.6-.22-1.51-2.34-2.08-1.61-3.84-.78-.72-1.55-1.44-2.33-2.15h0Zm-8.02,47.54v4.91c2.72,1.07,2.51,4.08,4.23,5.78,1.66,1.63,1.79,4.49,4.43,6.03.09-1.28.15-2.19.18-2.67-1.65-2.64-3.42-4.66-4.52-7.18-1.04-2.39-2.93-4.37-3.22-7.06-.52.09-.75.13-1.11.19h.01Zm34.69-136.43c1.08-.64,1.61-2.07.99-2.49-1.62-1.08-1.4-2.98-2.46-4.33-1.68-2.13-2.64-4.83-3.94-7.36-.23.05-.57.13-.88.21v4.61c.92,1.26,1.77,2.27,2.44,3.39.6,1,.58,2.4,1.96,2.86-.28,1.63,1,2.26,1.9,3.11h0Zm2.16-6.67c.74-3.08-2.05-4.79-2.56-7.36-.55-2.77-2.79-4.81-3.23-7.66-.46.08-.8.14-1.18.2v4.77c2.19,2.06,3.19,4.76,4.31,7.29.6,1.37,1.47,2.03,2.67,2.76h-.01Zm-18.14,43.02c-.07,1.55-.3,2.53.51,3.74,1.41,2.1,2.22,4.57,3.74,6.63.28.38.73.72.83,1.14.21.91-.19,1.86.7,2.73.67.66.92,1.74,1.36,2.63.29-.06.52-.12.86-.19v-3.39c-.9-1.42-2.19-2.89-2.81-4.6-.96-2.61-2.65-4.85-3.46-7.52-.13-.42-.9-.63-1.72-1.18h0Zm-2.37,27.51c0,.51-.25,1.31.04,1.64,2.13,2.42,3.14,5.41,4.48,8.24.14.29.74.35,1.54.7-.15-1.33-.04-2.33-.39-3.15-.95-2.23-2.43-4.19-3.39-6.44-.9-2.12-2.6-3.9-2.34-6.9-1.06.77-1.69,1.23-2.34,1.7.4,1.41.76,2.63,1.11,3.87.33.09.67.18,1.29.34h0Zm-.83,54.19c-.09-4.24-3.66-6.35-3.71-9.87-2.48-2.38-3.37-5.69-5-8.57-.26.06-.48.1-.94.2,0,.65-.21,1.45.04,2.07.57,1.37,1.3,2.7,2.1,3.95.39.61.83,1.05.93,1.87.07.57,1.19.96,1.37,1.57.79,2.67,2.64,4.84,3.42,7.51.12.42.89.66,1.78,1.27h.01Zm-12.64-1.53c.84,1.73,1.35,2.76,1.93,3.95.09.02.43.11.77.19.83,2.17,2.08,4.14,3.04,6.22,1.06,2.29,1.91,4.48,4.26,5.9.25-.47.4-.76.56-1.07-4.18-5.17-6.63-11.2-9.55-17.11-.19.03-.53.08-.8.12-.1.21-.19.31-.19.41,0,.62,0,1.24,0,1.4h-.02Zm28.11-93.54c.28-2.93.33-4.29-.51-5.34-1.84-2.33-2.61-5.15-3.9-7.73-.62-1.23-1.12-2.52-1.7-3.86-.23.03-.57.08-.97.14v3.29c2.61,4.22,4.63,8.71,7.09,13.51h-.01Zm-21.08,124.64c.12-1.3-1.43-3.73-1.97-5.27-.61-1.75-2.21-3.05-2.16-5.05-2.1-.48-1.22-3.14-2.99-3.66v-2.48c-.98-.29-1.88-.57-2.68-.81,1.22,4.72,4.81,8.04,6.04,12.56.42.13.85.25,1.26.38-.45,2.05,1.18,2.56,2.5,4.33h0Zm12.11-134.34c1.42,1.35,1.48,3.25,2.3,4.67.86,1.5,1.76,3.12,2.32,4.62.59,1.58,2.83,2.71,1.54,4.81.96.78,1.77,1.43,3.3,2.67-.32-1.65-.21-2.67-.65-3.07-1.3-1.17-.87-3.3-2.51-4.2.03-2-1.59-3.29-2.21-5.03-.64-1.79-1.78-3.39-2.74-5.14-.48.23-.77.38-1.34.66h-.01Zm-6.85,108.57c-1.89-3.14-4.07-5.75-5.45-8.88-.38-.86-.67-1.72-1.01-2.58-.33-.84-1.25-1.25-1.44-2.41-.27-1.67-1.46-2.21-2.93-1.94.65,1.34,1.31,2.69,1.94,3.99.34.08.67.16,1.01.24.05.94.09,1.77.14,2.57.54.19.97.34,1.32.47.12.69.02,1.45.36,1.83,1.34,1.53,2.38,3.14,2.98,5.15.21.7,1.04,2.06,3.08,1.56h0Zm18.97-118.07c-2.31-3.73-4.36-7.06-6.45-10.45-.1,0-.34.04-.72.08v3.45c1.22.76,1.27,2.57,2.84,2.89,1.05,2.03,2.09,4.07,3.19,6.08.11.2.63.17,1.14.29v-2.34Zm-12.66,76.72c.07-.91.19-1.22.09-1.38-1.86-2.81-2.96-6.04-4.93-8.79.23-1.93-2.23-2.84-1.89-4.84,0-.05-.75-.23-1.26-.39-.06,1.33-.1,2.25.37,3.37.6,1.4,1.99,2.17,2.41,3.41.9,2.65,2.71,4.84,3.51,7.52.12.4.89.6,1.71,1.11h-.01Zm.98-61.67v4.26c.55.19.98.33,1.38.47v2.4c1.93.77,1.1,3.36,2.86,4.39.36.21.24,1.26.31,1.73.63.19.96.29,1.26.39.04.68.08,1.27.12,1.91.47.03.81.04,1.15.06.54-1.04.31-1.79-.45-2.64-.58-.65-.78-1.64-1.15-2.5-.28-.06-.62-.13-1.02-.21-.08-.97-.15-1.9-.22-2.73-.57-.12-.91-.19-1.36-.28v-1.87c-1.06-1.98-1.79-3.34-2.88-5.37h0Zm-16.72,140.95c-2.95-3.38-4.29-7.87-7.18-12.04v2.59c1.49,3.57,3.59,6.1,4.75,9.06.38.12.71.22,1.15.36v2.63h1.27v-2.59h0Zm-8.72,6.88c.81.53,1.25,1.99,3.28,1.65-.71-.97-1.26-1.54-1.59-2.23-.33-.68-.45-1.47-.65-2.19-.45.09-.68.13-1.04.2v2.57h0Zm28.01-87.3h-.89c-.35,1.13-.71,2.29-1.14,3.68,1.34.15,2.41.24,2.84-.91-.32-1.08-.57-1.93-.82-2.77h.01Zm14.11-110.1c-.62.11-1.25.21-2.25.38.97,1.05,1.65,1.79,2.31,2.49.31-.22.75-.52,1.02-.71-.44-.89-.74-1.49-1.07-2.16h0Zm-10.95,110.78v-2.86h-1.24v2.86h1.24Zm-8.98,35.93v-2.86h-1.24v2.86h1.24Zm-.98,2.23c-.42.59-.9,1.06-1.1,1.63-.13.38.13.91.24,1.48,1.15-.91,1.6-1.76.85-3.11h0Zm-15.55,44.24v-1.59c-.54.11-.87.18-1.36.28.11.52.19.93.27,1.31h1.09Zm1.7-50.83c-.07,1.67.55,1.68,1.54,1.1-.07-.39-.14-.72-.21-1.1h-1.33,0Zm-6.56,43.35h.37v-1.5h-.37v1.5Zm4.8,11.98h-.25v.75h.25v-.75Z"/>
        <path class="cls-1" d="m55.43,311.99v-3.81c-.44-.34-.93-.71-1.42-1.09v-4c-.57-.57-1.01-1.01-1.62-1.62.59-4.34-1.63-8.36-2.23-12.69,0-.1-.16-.18-.24-.27-1.27-1.34-.02-3.06-.74-4.56-.64-1.34-1.3-2.73-1.28-4.34.03-1.94-.06-1.94-1.45-4.31v-4.43c-.52-.54-1.02-1.08-1.54-1.62v-6.69c-1.13-1.09-1.45-2.39-1.52-3.91-.09-1.91.41-3.8-.53-5.76-.8-1.66.32-3.81-.86-5.64-.4-.62-.07-1.71-.06-2.58,0-1.68.11-3.35-.98-4.84-.38-.52-.52-1.35-.49-2.02.12-2.79-.25-5.48-1.39-8.05-.14-.31-.13-.71-.13-1.07,0-2.52.16-5.03-1.42-7.29-.35-.51-.08-1.45-.08-2.2,0-1.37.16-2.77-.05-4.11-.18-1.11-1.15-2.14-1.17-3.22-.09-3.49-1.01-6.79-1.74-10.15-.22-1.03-.15-2.03-.7-3.09-.88-1.69-1.01-3.68-.83-5.64.11-1.21.09-2.43-.75-3.42-.78-.91-.82-1.98-.73-3.06.14-1.71-.03-3.42-.8-4.91-.78-1.5-.84-3.04-.67-4.57.39-3.7-.81-7.26-.82-10.92,0-.38-.51-.76-.59-.87.56-2.69,1.06-5.1,1.56-7.52,2.18-1.44,4.65-2.15,7.37-1.81.25.03.57.1.74,0,1.17-.8,2.31-1.01,3.68-.4,1.5.67,1.97,2.17,2.97,3.23.55.59.89,1.39,1.49,2.37v1.96c.43.37.9.77,1.43,1.22v3.21c2.36,1.42,1.08,4.5,3.06,5.96v3.08c.43.38.9.79,1.51,1.32-.53,3.7,2.53,6.9,1.46,10.59.61.61,1.06,1.06,1.53,1.53,0,1.46-.24,3,.07,4.43.29,1.31.71,2.66,1.35,3.92.4.79.07,1.94.07,2.87,1.38,1.35,1.62,2.97,1.5,4.71-.12,1.62.2,3.11,1.52,4.29-.15,2.14.04,4.26,1,6.27.25.52.51,1.13.45,1.67-.26,2.22.14,4.4.86,6.4.64,1.79.63,3.53.67,5.33.02,1.07.11,2.04.67,3.1.83,1.57.94,3.43.85,5.26-.1,1.99-.61,4.25.14,5.91.76,1.7-.23,3.72,1.33,5.07-.47,3.55.97,6.83,1.43,10.24.35,2.62,1.35,5.2.82,7.91,1.36,2.01.44,4.29.86,6.54,1.18,1.16,1.44,2.74,1.4,4.5-.06,2.99-.39,6.05,1.35,8.79.23.36.14.96.11,1.44-.12,2.07.19,4.02,1.21,5.87.27.49.25,1.16.29,1.75.11,1.58-.27,3.4.39,4.7.75,1.47-.39,3.2,1.06,4.48.37.33.04,1.43.06,2.18.03,1.43-.04,2.81.69,4.21.84,1.6,1,3.44.81,5.28-.18,1.74.14,3.35,1.48,4.61-.25.27-.5.54-.75.81,1.35,2.55.21,5.37.85,7.92.6,2.41,1.49,4.71,1.42,7.26-.07,2.72-.02,5.44-.02,8.09-.62.22-1.05.37-1.71.6.43.69.79,1.27,1.15,1.86,1.39-.94,2.67-1.2,3.92.03,1.42-1.04,2.78.36,4.25.07,1.44-.28,2.98-.06,4.48-.06,1.62,0,3.24.01,4.86,0,1.49-.01,3.23.43,4.39-.2,1.62-.88,3.12-.38,4.65-.52,1.48-.13,2.99-.03,4.49-.03h9.32c.74.4,1.41,1,2.17,1.15,2.67.51,4.98,1.88,7.36,3.01,1.45.69,2.96.16,4.49.94,1.82.93,4.18.78,5.86,1.03.83-.65,1.31-1.01,1.8-1.4-.55-1.05-1.04-1.98-1.66-3.16.28-2.7-.44-5.8.58-9.31-1.89-3.7.34-7.95.29-12.34h1.85c.31.61.68,1.33,1.07,2.1-1.37,1.7-.66,3.72-.75,5.63-.12,2.52-.05,4.98,1.25,7.34.92,1.67-.2,3.18-1.27,4.84.15,2.36-.51,5.06,1.01,7.7-.54.57-1.01,1.07-1.17,1.24-2.44-.2-4.49-.22-6.48-.57-1.89-.33-3.7-1.13-5.59-.57-.54-.57-.97-1.02-1.46-1.54h-2.47c-.28-.48-.66-1.12-.91-1.54h-2.78c-.4-.51-.85-1.1-1.11-1.45-2.72-.42-5.13.32-7.55-.73-.97-.42-2.56-.56-3.88.38-.68.48-1.89.25-2.87.25-9.97.01-19.95,0-30.32,0-.24.39-.62,1.03-.79,1.31-2.95.6-4.97-.2-6.55-2.06-2.19,0-4.31.07-6.43-.02-3.67-.16-7.21,1.23-10.92.83-1.09-.12-2.41.43-3.36.83-1.34.56-2.57.56-3.87.59-2.21.06-2.21.03-4.6,1.5-3,.09-6.06-.4-8.84,1.3-.55.34-1.42.2-2.15.2-3.49.02-6.98,0-10.75,0-.5-.58-1.13-1.31-1.84-2.14.03-.43.07-1.01.14-2.03,2.56,1.94,5.22,2.43,7.8,1.84,2.78-.64,5.53-.6,8.31-.69.42-.01.8-.5,1.24-.59,1.86-.36,3.63-1.17,5.63-.92,1.28.16,2.57.13,3.84-.64.95-.58,2.24-.75,3.39-.77,2.53-.05,5.01,0,7.32-1.34.57-.33,1.43-.18,2.16-.19,3.6-.02,7.2,0,10.74,0,.91-1.55-.12-2.35-1.13-3.31v-3.01c-.57-.57-1.01-1.01-1.5-1.5v-3.08c-.44-.31-.94-.67-1.41-1.01v-2.7c-.14.03-.28.07-.42.1-.8-2.28-1.6-4.56-2.66-7.6v-2.3c-.5-.39-1.08-.85-1.54-1.21v-3.22c-1.16-1.04-1.7-2.38-1.45-3.87.24-1.41-.73-1.99-1.5-2.82l-.03-.02Zm-.03-96.21v-1.5c-.62,0-1.06,0-1.56.21.08-.16.17-.33.25-.49-.83-.55-1.95-.93-2.43-1.71-.63-1.02-2.26-.68-2.51-2.25-.08-.47-1.66-.69-3.08-1.22,1.16,3.06,3.87,3.35,5.49,4.9.52.5,1.51.52,2.34.55v1.5h1.95c.72.71,1.66,1.65,2.55,2.54-.35-1.46-1.21-2.47-3.01-2.53h0Zm-16.02-53.8c.69.6,1.24,1.09,2.11,1.86.24-.81.37-1.25.55-1.86-.98,0-1.66,0-2.35-.09v-1.03c-1.25-.62-2.47-1.23-3.95-1.96-.85,0-2.15-.34-2.78,1.45h3.41c.61.66,1.03,1.11,1.42,1.53.66,0,1.28,0,1.58.09h0Zm20.58,67.2s-.1.1-.15.15c.17.2.35.41.52.61.08-.08.16-.16.24-.24-.2-.17-.41-.35-.6-.44.02-1.61-1.13-2.29-2.28-3-1.19-.75-2.39-1.5-3.5-2.36-1.03-.8-2.15-1.62-3.02-2.47-1.01-.99-1.73-1.81-3.18-1.85-.04.51-.17.87-.05.98,3.33,3.25,7.38,5.61,10.86,8.68.21.19.73.02,1.17-.05h-.01Zm-6.37,18.66c.51.57.66.85.76.84.36-.05.7-.21,1.05-.32-.45-.13-.9-.26.13.03v3.77c1.37,1.12,2.57,2.1,3.78,3.08,1.19.96,2.63,1.74,3.47,2.94.47.67.49,1.23,1.5.79v-3.45c-1.39-1.09-2.8-2.47-4.45-3.42-1.59-.91-2.32-2.74-6.24-4.26h0Zm-14.65-39.18v5.24c1.67,1.06.31,2.93,1.19,4.4.72,1.2.22,3.11.32,4.71.05.83.06,1.72.37,2.46.89,2.14,1.26,4.33,1.13,6.65-.05.97-.26,2.22.22,2.87,1.26,1.66,1.29,3.52,1.22,6.23.85-1.08,1.2-1.52,1.68-2.13-.29-2.13-.84-4.39-.83-6.64,0-3.01.52-6.02.65-9.04.07-1.62.26-3.1,1.53-4.24-1.94-1.66-1.42-3.96-1.5-6-.52-.52-.96-.96-1.59-1.59.17-.94.37-2.04.57-3.15-.69-.43-.28-2.04-1.76-1.8-.04,0-.14-.41-.22-.64.45-.89.91-1.78,1.37-2.68-.71-.7-1.41-1.41-2.3-2.29.29-.79.6-1.65.83-2.29-.91-2.56-1.76-4.94-2.9-8.12,0-.47.05-1.84-.02-3.2-.03-.56-.17-1.2-.49-1.65-.97-1.37-1.07-2.88-1-4.46.04-.96-.3-1.8-.63-2.72-.59-1.64-1.21-3.41-.87-5.26.04-.22-.08-.46-.12-.69-.44-.44-.88-.88-1.34-1.34v-2.21c-.52-.54-1.02-1.08-1.67-1.76v-2.43c-.5.06-.84.09-1.34.15,0,1.29-.42,2.74.09,3.69,1.02,1.91.12,3.94.75,5.69.69,1.92.6,3.79.66,5.71.03,1.19.42,2.33.61,3.45.32,1.86,1.38,3.65.91,5.66-.07.3.08.71.26,1,1.32,2.17,1.37,4.58,1.19,6.98-.14,1.9.51,3.48,1.52,4.92,0,2.75.5,4.94,1.5,6.56v-.04Zm24.66,99.59c-1.35-4.94-2.48-9.91-2.22-14.45-1.3-2.85-2.35-5.16-3.47-7.61-.09-.02-.42-.11-.76-.2-1.15-4.01-4.02-7.3-4.82-11.45-.26.27-.53.54-.79.81-.36-.88-.72-1.76-1.08-2.66-.49.56-.8.92-1,1.14.53,1.73,1.32,3.27,1.38,4.83.07,1.84.67,3.46,1.14,5.16.16.56.47,1.15.4,1.68-.19,1.5.55,2.79.76,4.18.35,2.33,2.24,4.11,2.27,6.54,1.38.92,1.72,2.28,1.4,4.11.56.36,1.19.76,1.67,1.06v3.9c.52.52.96.96,1.53,1.53v2.53c.49.36.98.74,1.41,1.06v3.07c.47.47.91.91,1.41,1.41-.18,2.28.93,4.08,2.65,6.41.21-1.21.57-1.93.35-2.23-1.64-2.21-1.42-4.73-1.51-7.25-.03-.85-.71-1.68-1.09-2.52-.08-.17-.14-.34-.2-.5.21-.21.38-.38.56-.56h.01Zm-17.04-78.18v18.69c.81,1.49,1.29,2.37,1.78,3.26,1.49-1.04,2.65-1.84,3.79-2.67.16-.12.19-.41.36-.8-.49-.56-1.03-1.19-1.61-1.86v-2.82c-1.04-1.2-1.62-2.44-1.47-3.99.16-1.62-.2-3.1-1.59-4.35v-5.46h-1.27.01Zm13.18,54.5c.46-3.29-1.4-5.34-1.46-7.85-.06-2.51-1.1-4.99-1.8-7.85-.14-.09-.63-.63-1.14-.66-1.13-.06-2.08-.17-2.94-1.12-.76-.84-2.39-.34-3.05-1.61-.05-.11-.33-.1-.47-.13-.95.84-1.5,1.69-.53,2.83h1.41c3.58,2.9,4.87,7.23,7.14,10.91-.12,2.15,1.77,3.16,2.84,5.47h0Zm-3.73-19.46c-.35-4.19-2.44-7.69-2.16-11.62-.5-.44-.94-.83-1.24-1.09-1.13,1.11-2.08,2.05-3.16,3.11,1.84,2.16.19,4.7-.07,7.15,1.31.91,2.48,1.71,3.55,2.45h3.08Zm-5.86-33.89c.03,2.32.36,4.17,1.63,5.1,1.52,1.1,3.07,2.16,4.47,3.42,1.64,1.47,3.26,2.98,4.93,4.5.52-.03,1.1-.06,1.73-.1-.29-1.26-.41-2.33-.8-3.27-.36-.85-.85-1.86-1.58-2.3-3.52-2.1-6.84-4.47-10.38-7.36h0Zm9.88,85.69v2.99c.47.34.97.71,1.4,1.02v3.07c.47.47.91.91,1.07,1.07.81,2.66,1.51,4.98,2.31,7.62.2.18.66.6,1.08.99v2.78c.68,1.3,1.26,2.4,1.84,3.5.26-2.04-.37-3.9-.28-5.73.14-3.03-.7-5.44-3.1-7.24.32-1.2-.43-1.83-.99-2.65-.48-.71-.3-1.84-.61-2.71-.31-.86-1.15-1.57-1.29-2.43-.16-1-.25-1.83-1.43-2.28Zm-20.62-137.64c.63,2.05.96,3.14,1.37,4.46,3.62,2.18,7.39,4.45,11.45,6.89.09-.91.16-1.57.17-1.73-1.1-1.25-1.91-2.17-2.71-3.08-1.61.75-1.58-.96-2.35-1.44-.79-.49-1.8-1.59-2.32-1.39-1.83.71-1.2-1.49-2.32-1.68-.92-.16-1.72-1.01-3.29-2.02h0Zm8.94,44.44c.57,2.04.94,3.37,1.31,4.68,1.74,1.24,3.34,2.69,5.21,3.62,2.05,1.02,3.44,2.8,5.35,3.92.25.15.66.02,1.08.02v-2.11c-2.31-1.21-4-3.44-6.43-4.79-2.25-1.25-3.61-3.68-6.52-5.34Zm-3.87-18.98c4.55,3.32,8.82,6.45,13.11,9.55.11.08.42-.12.64-.2-.52-1.86-2.1-4.32-3.63-5.43-1.42-1.03-2.8-2.28-4.41-2.81-1.7-.57-2.7-2.05-4.28-2.65-.37.4-.7.75-1.43,1.54h0Zm18.28,43.24c-1.67-1.14-4.01-2.15-5.45-3.9-1.4-1.7-3.21-2.69-4.82-4.72v3.98c.76.47,1.63.87,2.33,1.47,2.3,1.97,4.53,4.02,6.82,6.01.21.18.65.09,1.12.15v-2.99h0Zm-3-25.28c-.94-.92-2.01-2.14-3.26-3.13-1.27-1-3.24-1.47-3.95-2.72-.88-1.55-2.98-.77-3.53-2.47-.05-.14-1.22.08-2.49.19,1.14,1.2,1.73,2.35,2.61,2.65,1.89.64,2.91,2.29,4.5,3.28,1.81,1.12,3.32,2.74,4.99,4.11.22.18.65.12,1.13.2v-2.11h0Zm-10.22-45.13c-.25-1.81-1.48-2.64-2.48-3.34-3.41-2.4-6.98-4.58-10.5-6.83-.12-.07-.34.03-.56.05v1.69c1.21,1,2.48,2.26,3.95,3.22,1.53,1,3.19,1.83,4.88,2.5,1.62.64,2.2,2.89,4.7,2.71h0Zm-11-4.2c-.22.96-.4,1.3-.31,1.4,1.19,1.34,2.26,2.71,3.91,3.68,2.83,1.66,5.43,3.73,8.13,5.62.13.09.34.07.6.13.03-.54.05-1.02.08-1.6-3.23-4.07-8.36-5.56-12.41-9.23h0Zm9.17-1.35c-1.73-1.73-3.45-3.45-5.71-5.71-.93-.25-2.28-1.87-3.91-2.42-1.65-.55-2.88-2.72-5.29-1.69,1.12.98,1.97,2.14,3.11,2.62,1.09.45,1.52,1.75,3.07,1.72,1.06-.02,2.16,1.25,3.21,1.98.97.67,1.91,1.4,2.86,2.1,0,0,2.81,1.47,2.66,1.4h0Zm6.19,24.79c.09-2.31-1.37-2.69-2.04-3.65-.79-1.13-2.1-1.45-3.23-2.06-.95-.52-1.74-1.18-2.55-1.94-.75-.71-2.34-.81-3.06-1.89-1,.1-1.78.18-3.02.3,4.77,3.18,9.11,6.06,13.89,9.24h.01Zm22.31,134.77c-2.23-2.02-4.27-3.87-6.19-5.61h-1.66c.26.96.48,1.82.72,2.69,2.11,2.05,4.02,4.38,7.13,5.6v-2.68h0Zm-20.87-129.55c.13-.23.26-.45.38-.68-1.69-.92-2.42-2.72-4.32-3.63-1.11-.53-2.65-.96-3.28-1.75-1.49-1.88-3.67-2.62-5.36-4.1-.09-.08-.42.11-.73.2v1.55c1.24.79,2.4,1.54,3.57,2.26,1.08.67,2.2,1.26,3.26,1.97,1.17.78,2.28,1.65,3.42,2.48l3.05,1.69h0Zm-12.12-3.63c.51.63.99,1.29,1.53,1.89,1.44,1.59,4.03,1.51,5.16,3.55,2.03-.12,2.99,1.75,4.58,2.44.69.3,1.45.44,2.41.71-1.17-1.18-2.07-2.09-3.12-3.14-.19-.03-1.05-.02-1.08-.16-.26-1.42-1.61-1.45-2.46-2.12-.83-.65-2.45-.35-2.47-1.99-1.65.2-2.22-3.06-4.56-1.18h.01Zm21.34,94.56c.06,4.79,3.01,8.39,7.41,9.61-.58-4.57-5.16-5.69-7.41-9.61Zm3.03,23.74c2.47,1.75,4.63,3.28,7.14,5.05.06-1.08.1-1.75.15-2.51-1.62-.79-2.26-2.54-4.01-3.17-1.54-.56-2.05-2.89-4.31-2.9.4,1.37.72,2.45,1.04,3.53h-.01Zm-1.01-51.61c-.89-1.05-1.22-1.54-1.65-1.92-2.43-2.21-4.88-4.4-7.33-6.59-.12-.11-.34-.12-.61-.22v2.62c2.35,2.04,4.72,4.09,7.04,6.11h2.55Zm6.82,47.7c-2.2-2.2-4.19-4.22-6.23-6.2-.2-.2-.64-.16-1.14-.27v3.02c2.26,1.76,4.57,3.56,7.18,5.59.08-.89.13-1.47.19-2.15h0Zm-11.82-26.19c1.3,2.33,1.82,3.91,3.73,4.96,1.35.74,3.06,1.62,3.77,3.37.06.14.86-.03,1.49-.07-1.86-3.94-4.96-5.96-8.98-8.26h0Zm4.85-8.44c.27-.06.53-.12.8-.18.06-.57.12-1.15.2-1.88-2.3-2.14-4.65-4.33-7.34-6.82-.1,1.09-.17,1.76-.21,2.2,1.98,2.69,5.41,3.47,6.55,6.69h0Zm4.07,63.93c1.59,1.18,3.08,2.28,4.88,3.61.12-.93.19-1.49.3-2.28-1.87-1.3-2.77-3.71-5.18-5.12v3.8h0Zm-9.06-60.36c-.08.27-.16.53-.24.8,2.47,2.17,4.93,4.34,7.52,6.62v-1.83c-1.81-1.81-3.71-3.71-5.66-5.66-.48.02-1.06.05-1.63.07h.01Zm-2.91-18.61v2.31c2.47,1.94,4.96,3.9,7.42,5.83.29-.19.49-.31.82-.53-1.69-3.5-5.52-4.49-8.24-7.61Zm-13.27-11.76c-.71,2.18-.4,3.86.53,5.23.55.81.63,1.52.64,2.36,0,1.07,0,2.15,0,3.58.7-.66,1.04-.99,1.44-1.36v-5.33c-.84-1.45-1.63-2.8-2.6-4.48h0Zm16.34,24.26c-.49.1-1.13.22-2.45.49,3.07,2.49,5.6,4.57,8.18,6.59.37.29.95.29,2.02.59-2.87-2.84-5.25-5.2-7.75-7.67h0Zm5.55,44.84c2.14,3.04,5.35,4.68,8.33,6.63-1.44-3.57-4.89-5.01-7.38-7.42-.38.31-.55.46-.96.79h0Zm2.17,12.84c1.18,1.48,1.86,3.05,3.03,3.64,1.43.72,2.2,1.65,2.81,2.98.06.14.63.05.9.07.15-.18.28-.27.29-.36.02-.49.01-.98.01-1.45-2.96-2.96-4.58-4.13-7.03-4.88h-.01Zm-.69-29.18c.7,2.29,2.56,3.06,3.57,4.54.38-.39.72-.74,1.16-1.19-2-.35-1.85-3.36-4.73-3.35Zm-25.04-143.95c-1.04-.97-1.94-1.8-3-2.77-.41.07-1.05.17-1.7.28,1.46,1.13,2.23,3.34,4.69,2.5h.01Zm27.65,185.98c-.11.22-.22.43-.33.65.62.57,1.24,1.14,2.25,2.06v-2.71h-1.92Zm-25.92-181.38c-.97-.71-1.55-1.13-2.37-1.73-.14.75-.21,1.16-.32,1.73h2.69Zm19.13,137.83c1.67.07,1.68-.55,1.1-1.55-.39.07-.72.14-1.1.21v1.33h0Z"/>
        <path class="cls-1" d="m167.75,230.76c2.25-.07,4.53.4,6.24-1.52,1.64.07,3.29.07,4.78-.98.53-.37,1.34-.47,2.02-.48,2.98-.05,5.97-.02,8.42-.02,1.98.68,1.93,2.82,3.53,3.15.47,1.6.93,3.15,1.39,4.7.04,1.66.91,3.4-.18,5.24-.87,1.47.53,3.59-.82,5.27-.37.46-.07,1.45-.07,2.19v9.83c-1.11.79-2.27,1.62-3.58,2.55h-16.78c-1.06-.58-1.98-1.07-3.16-1.71-.25.6-.45,1.08-.68,1.64h-1.11v-29.86h0Zm8.85,20.95h1.5v-1.5h1.5v-1.5c.37,0,.96.15,1.09-.02,1.37-1.9,3.49-3.17,4.77-4.96,1.67-2.33,3.67-4.07,5.94-5.6v-3.36c-4.15,4.65-7.98,8.92-11.79,13.22-.12.14-.02.48-.02.73h-1.5v1.5h-1.5c0,.62,0,1.06.03,1.5-.13-.12-.26-.25-.4-.37-.34.53-.69,1.06-1.14,1.76.5.03.9.06,1.43.1.04-.6.08-1.04.08-1.48v-.02Zm-1.43-2.4c2.95-2.5,5.08-5.33,7.51-7.84,2.5-2.59,4.24-5.88,7.4-8.29-.04-.38-.1-1.05-.18-1.8-2.06.39-2.48,2.02-3.35,3.24-.9,1.25-1.73,2.66-2.94,3.54-1.24.9-2.09,2.01-3.01,3.15-.98,1.2-2.22,2.14-2.91,3.63-.63,1.37-2.77,1.77-2.49,3.77h-1.17c-.8,1.26-1.59,2.51-2.37,3.74-1.48.27-2.33,1.17-2.55,2.7.77.65,1.57,1.32,2.28,1.92.67-.49,1.12-.82,1.29-.95-.3-1.02-.49-1.68-.65-2.23,1.15-1.77,2.77-3.09,3.13-4.58h.01Zm-5.88,1.35c.97-.74,1.82-1.09,2.18-1.72,1.09-1.95,2.73-3.38,4.25-4.93.26-.27.59-.49.78-.8,2.87-4.61,6.84-8.33,10.25-12.5.11-.13.13-.34.18-.49l-.88-.88c-1.43,1.24-3.14,2.04-4.18,3.89-1.04,1.86-2.73,3.35-4.12,5-1.32,1.56-2.9,2.98-3.85,4.74-.67,1.23-1.62,2.06-2.46,3.06-.13.15-.34.24-.51.35l-.37-.37c-.44.32-.89.66-1.26.93v3.71h0Zm10.08,7.07c.14.24.29.49.43.73.47,0,1.05.18,1.4-.03,2.18-1.3,4.45-2.71,5.72-4.87.68-1.15,1.45-1.7,2.45-2.25.16-.09.34-.12.62-.22v2.59c-1.49,1.41-2.39,3.42-4.34,4.42-.1.05.15.76.32,1.59.86-.74,1.34-1.31,1.94-1.62s1.33-.38,1.7-.47c.76-1.05,1.37-1.89,2.06-2.85-.44-1.01.54-2.4-.76-3.33,1.02-1.11.92-2.25.2-3.86-4.07,3.54-7.89,6.86-11.71,10.18h-.03Zm-3.6.23c5.32-4.78,10.55-9.49,15.64-14.06v-2.82c-3.07.92-3.64,4-5.64,5.66-2.04,1.7-4.03,3.49-5.93,5.31-1.62,1.55-3.26,3.16-4.85,4.93.23.29.43.54.78.99h0Zm3.42-27.11c-2.22,1.87-4.08,4.07-5.58,6.57-.17.28-.29.64-.54.79-1.95,1.22-2.44,3.54-3.91,5.14-.25.27.07,1.06.2,2.33.64-1.29.98-1.9,1.25-2.54.3-.73,1.97-.09,1.51-1.54,2.67-3.55,5.31-7.13,8.61-10.13.13-.11.15-.33.28-.62h-1.82Zm-10.27,6.08c3.29.04,4.08-2.43,5.43-4.56h-2.17c-.97,1.35-2.11,2.95-3.26,4.56Z"/>
        <path class="cls-1" d="m151.87,353.09c-1.24.2-2.26.37-3.49.57-.12-1.06-.22-1.99-.34-2.96-.19.04-.37.05-.54.11-1.28.46-.55,1.77-1.08,2.63h-1.71c-1.24-1.74-1.11-3.66-.99-5.59.82-.59,1.88-.63,2.28-2,.61-2.08,1.93-3.94,2.66-5.99.74-2.07,2.34-3.73,2.57-6.07.09-.94,1.05-1.8,1.59-2.64h1.9c.64,1.73-.39,3.2-1.05,4.35-1.69,2.95-2.48,6.23-3.75,9.31-.65,1.57-.11,3.62-.11,5.94.91-.91,1.68-1.58,2.33-2.36.68-.81,1.22-1.74,1.87-2.58.65-.83,1.36-1.62,2.27-2.69h1.32c.1.23.26.44.27.66.07,1.41-.76,2.45-1.58,3.45-.63.77-1.4,1.42-2.04,2.07v1.85c2.52-.72,4.04-3.57,7.27-2.73.19-2.58-.1-5.18,1.6-7.26-.33-1.91.67-3.94-.53-5.77-.07-.1-.22-.2-.2-.28.37-2.46-.56-4.78-.75-7.18-.04-.45.09-.91.14-1.36.45,0,.79-.11.93.02.64.59,1.22,1.24,1.91,1.96v3.21c0,1.31,0,2.55.69,3.84,1.04,1.92.64,4.37,2.12,6.24.43.55.2,1.63.29,2.76.38-.29.65-.41.81-.63.98-1.32.2-3.47,2.07-4.38-.35-1.81,1.63-2.87,1.51-4.62-.02-.22.09-.46.16-.8h2.53c.07.13.28.33.28.54-.02,1.31.07,2.56-.67,3.84-.98,1.69-.92,3.7-.79,5.6-.39.39-.74.74-1.12,1.12-.26-.24-.52-.48-.74-.67-.89.86-1.78,1.72-2.67,2.57v1.51l-1.07,1.07c-2.3-1.58-1.01-4.9-3.3-6.93v3.58c-.88,1.72-1.4,2.75-2.06,4.04-.39.18-1.13.52-1.94.9-.26-.19-.54-.4-1.05-.77-1.98,1.4-4.06,2.87-6.39,4.51-.49-.67-1.06-1.47-1.42-1.96v-.03Z"/>
        <path class="cls-1" d="m182.58,84.02c.6-1.24,1.4-2.17,1.43-3.12.1-2.76,1.77-4.08,3.77-5.17,5.94,2.42,6.64,1.81,9.65,7.02v14.19c-1.02-.41-1.84-.74-2.74-1.1-.1-.64-.2-1.32-.3-2.01-.45,1.56-1.19,2.81-2.53,3.66h-1.44c-.42-.73-.83-1.43-1.28-2.22-.61.8-1,1.7-1.68,2.13-.74.47-1.75.51-2.96.82-.39-.58-.93-1.39-1.75-2.61-.13.46-.14.02.07-.18,1.02-.94.77-2.36.41-3.11-1-2.14-.49-4.3-.65-6.45-.05-.74,0-1.49,0-1.86h0Zm11.89,8.2s.1.1.15.15c.2-.17.41-.35.61-.52-.08-.08-.16-.16-.24-.24-.17.2-.35.41-.36.75-.05-.05-.1-.1-.15-.15-.2.17-.41.35-.61.52.08.08.16.16.24.24.17-.2.35-.41.36-.75Zm-.16-10.24c-.65-.66-1.51-1.54-2.29-2.33-.66.34-1.28.66-1.9.98-.05.58-.11,1.17-.16,1.68-.84.37-1.58.69-2.21.97-.67-.3-1.26-.56-2.05-.9v5.44c1.98-1.61,4.3-2.28,6.96-2.02.76,1.74,1.46,3.36,2.16,4.98l.47-.1c-.32-2.82-.64-5.63-.98-8.69h0Zm-6.9-1.87h1.22c-.09-.52-.15-.85-.33-1.91-.46,1-.7,1.51-.89,1.91Z"/>
        <path class="cls-1" d="m151.15,60.49v-1.49c1.14-1.11,2.28-2.24,3.45-3.38,1.87.28,2.95,1.06,5.46,4.05v2.97c.56.56,1,1,1.58,1.58.15,3.29-1.78,5.63-3.89,7.64-2.17.38-4.15.72-6.03,1.05-1.61-1.32-2.52-2.97-3.63-4.51-1.4-1.94.25-3.35.16-5,.96-.96,1.93-1.93,2.91-2.91h-.01Zm-1.63,5.33c.35,2.54,2.45,3.47,4.04,5.07.59-.58,1-.98,1.72-1.69-.96-.87-1.77-1.6-2.64-2.39.03-.37.06-.84.11-1.48,1.06.05,1.98.09,3.02.13v3.63c.61,0,1.15.14,1.55-.04.52-.24.93-.73,1.29-1.03v-3.72c-.61-.74-1.14-1.37-1.61-1.94.45-.7.75-1.19,1.11-1.76-.94-.81-1.74-1.5-2.64-2.27-.86.98-1.56,1.77-2.11,2.4.37.88.63,1.47.95,2.23-.92.09-1.51.15-1.74.17-1.13,1-2.06,1.81-3.05,2.69h0Z"/>
        <path class="cls-1" d="m175.77,110.62c2.51,2.12,4.73,3.98,6.82,5.74v3.83c-.64.84-1.2,1.59-2.04,2.7-2.75.25-4.15,4.51-7.98,3.79-.68-.75-.7-2.09-2.29-2.3-.91-.12-1.69-1.2-2.67-1.96-.65-2.53,2.56-4.51,1.43-7.22.72-.73,1.34-1.34,1.95-1.96,1.96.13,3.67-.27,4.78-2.62h0Zm-2.13,13.1s.36.1.53-.02c1.64-1.16,3.31-2.29,4.85-3.58.58-.49.85-1.37,1.44-2.39-1.29-1.23-2.69-2.56-3.86-3.68-1.66.92-3.1,1.49-4.27,2.42-1.38,1.09-1.24,2.94-1.73,4.2,1.01,1.01,1.86,1.87,3.04,3.05Z"/>
        <path class="cls-1" d="m65.88,353.89v4.47c-2.65,2.04-3.4,2.38-7.29,3.31-.94-.95-1.8-1.81-3.08-3.09v-4.79c3.85-2.3,4.8-2.69,6.25-2.54.85.09,2.76,1.31,4.12,2.63h0Zm-6.74,5.77c1.86-1.41,4.37-1.66,5.46-4.32-1.75-.12-2.37-2.4-4.48-1.73-1.11,1.17-2.26,2.4-3.55,3.77.92.82,1.64,1.45,2.57,2.28h0Z"/>
        <path class="cls-1" d="m193.81,43.63c0,.85.22,1.57-.04,2.02-1.76,3.12.54,6.98-1.87,9.95-.92-.14-2.53-1.53-4.82-4.18v-4.46c.82-1.14,1.65-2.29,2.41-3.34h4.32Zm-2.36,2.35c-1.11.9-1.64,1.34-2.38,1.94.33,1.06.6,2.17,1.04,3.23.15.36.7.55,1.34,1.02v-6.19h0Z"/>
        <path class="cls-1" d="m75.53,360.82c0,1.91-1.1,3.96-3.28,6.14h-2.93c-.58-.87-1.17-1.74-1.91-2.85v-2.62c.55-.74,1.1-1.48,2.05-2.74.69-.2,2.01-.6,3.34-.99.97,1.08,1.78,2,2.73,3.07h0Zm-2.22,1.22c-.49-.46-.9-.86-1.15-1.09-.87.85-1.55,1.53-2.2,2.18.54.43,1.38.65,2.51.66.07-.33.08-.7.23-1,.13-.28.4-.5.61-.75Z"/>
        <path class="cls-1" d="m180.88,62.61c.26-1.76.52-3.51.8-5.36h3.68c.44.46,1.04,1.09,1.74,1.83-.35,1.98.67,4.24-.77,6.24,0,.12-.05.29,0,.37.23.29.49.55.9.99-.45.59-.92,1.2-1.35,1.77-2.83-1-2.68-4.09-5.01-5.83h.01Zm3.82-.11v-2.44c-.78.05-1.44.09-2.48.16.51.8.74,1.33,1.12,1.71.28.27.76.34,1.36.58h0Z"/>
        <path class="cls-1" d="m41.94,357.34c.42-1.84,1.47-3.14,3.3-3.8h4.5c.86.87,2.25,1.49,1.89,3.37-1.79,1.95-4.36,2.67-6.88,3.57-.96-1.08-1.78-2-2.8-3.14h0Zm6.8-2.41c-1.53.79-2.71,1.4-3.95,2.04.22.46.36.76.67,1.41.97-1.31,3.11-.89,3.28-3.45Z"/>
        <path class="cls-1" d="m188.59,65.53c.79-1.07,1.37-1.84,1.94-2.61.99,1.19,1.84,2.2,2.68,3.22.22-.15.45-.31.67-.46-.53,1.61-1.12,3.21-1.55,4.84-.36,1.34-1.23,1.65-2.57,1.55-1.85-2.06-.98-4.66-1.16-6.54h0Zm2.62,1.5h-1.22c.09.52.15.85.33,1.91.46-1,.7-1.51.89-1.91Z"/>
        <path class="cls-1" d="m151.45,16.56c-.4-.78-.71-1.39-1.09-2.15.52-.91,1.1-1.9,1.68-2.9h2.74c.57.99,1.15,1.99,1.68,2.89-.39.76-.7,1.37-1.1,2.15h-3.91,0Z"/>
        <path class="cls-1" d="m137.95,6.08c-.39-.39-.65-.65-.92-.92-.45-1.64.28-3.02,1.17-4.25.35-.48,1.19-.61,1.85-.91.81,1.19,1.51,2.22,2.2,3.23-.63.92-1.21,1.77-1.95,2.84h-2.35Z"/>
        <path class="cls-1" d="m176.6,176.86v2.03c-1.8,3.89-3.96,6.96-6.58,9.94-2.63.77-2.17-2.63-3.99-3.3v-5.85c-4.3,1.78-8.34,3.86-13.04,3.06-.32-.6-.7-1.31-1.07-2.02.5-1.16,1.12-2.28,1.45-3.49.38-1.39,2.18-1.59,2.36-3.07,1.29-.2,1.5-1.88,2.81-2.06-.18-1.91,2.58-.88,2.34-2.66h3.6c1.13,1.89,2.26,3.78,3.48,5.82h3.88l1.44-1.44c.79.99,1.57,1.96,2.43,3.04h.89Zm-17.98,1.87c1.86,1.34,3.33-.74,4.45-.55l2.71-2.71h-3.97c-.3,1.65-3.18,1-3.19,3.25h0Zm9.13.46v3.29c.63.86,1.31,1.78,2.18,2.96.51-.9.92-1.61,1.39-2.43-.76-.44-1.47-.84-2.31-1.32v-2.5h-1.27.01Zm5.73-1.42c-1.62.76-2.39,1.85-2.01,3.53h2.01v-3.53Zm-17.63.6v1.59c.54-.11.87-.18,1.36-.28-.11-.52-.19-.93-.27-1.31h-1.09Zm5.24-4.3c.56-.58.93-.96,1.85-1.9-1.26.27-1.67.35-2.12.45.09.49.16.82.28,1.45h-.01Z"/>
        <path class="cls-1" d="m176.6,176.6v-1.62c-.43-.42-.88-.86-1.4-1.36-.54-2.36.65-4.06,2.49-5.65h5.75c1.03.6,1.87,1.04,2.64,1.56.71.48,1.35,1.06,1.55,1.22.81,3.04-1.8,3.16-2.67,4.54-.74,1.16-2.19,2.1-3.47,2.9-2.05,1.15-3.15-1.22-4.9-1.58h0Zm7.44-5.45c-2.01-.82-3.94-1.51-5.76-.06-.29.68-.54,1.25-.95,2.2,1.37-.33,2.43-.6,3.84-.94-.21,1.09-.38,2.01-.58,3.06,1.83-.24,2.39-1.91,3.53-2.66-.03-.68-.05-1.16-.07-1.6h0Z"/>
        <path class="cls-1" d="m166.54,167.83c.96-.69,1.75-1.26,3.11-2.23,1.48-.1,2.44,1.38,2.34,4.53-.79.96-1.31,1.59-1.94,2.35-2.08-.82-2.62-2.73-3.51-4.65h0Z"/>
        <path class="cls-1" d="m85.79,152.2c1.24.39,2.01.64,3.08.98.62.68,2.07,1.27,1.81,2.41-1.53,1.53-2.73,2.73-4.09,4.09-.6-.21-1.47-.51-2.29-.8-.66-.96-1.32-1.91-2.1-3.05,1.28-1.15,1.67-3.2,3.58-3.63h.01Zm1.23,1.61c-.86.99-1.37,1.57-1.96,2.24.7.62,1.21,1.08,1.9,1.69.52-.93.91-1.6,1.04-1.84-.3-.64-.57-1.21-.98-2.1h0Z"/>
        <path class="cls-1" d="m83.96,161.77c1.93.42,2.31,1.41,2.05,3.01-.61.04-1.27.08-2.05.13v-3.14Z"/>
        <path class="cls-1" d="m136.74,96.03c-2.5-1.37-.73-2.88-.31-4.34,1.49.05,2.43.85,2.84,2.4-.58.58-1.24,1.28-1.96,1.92-.14.12-.48.02-.56.02h0Z"/>
        <path class="cls-1" d="m143.68,153.04c-.71,1.05-1.3,1.93-1.86,2.74h-1.87c.59-1.02,1.1-1.9,1.67-2.9.72.05,1.4.11,2.05.15h0Z"/>
        <path class="cls-1" d="m142.17,160.52c-.7-.14-1.04-.2-1.45-.28-.14-1.56,1.22-1.93,2-3.08-.06.34-.52,3.24-.54,3.36h-.01Z"/>
        <path class="cls-1" d="m143.93,152.16v-.75h.25v.75h-.25Z"/>
        <path class="cls-1" d="m143.93,156.65v-.75h.25v.75h-.25Z"/>
        <path class="cls-1" d="m112.66,153.03c-.61.94-.98,1.52-1.39,2.15-.98-.64-1.87-1.23-3.28-2.15h4.68-.01Z"/>
        <path class="cls-1" d="m108.39,156.72h1.52c-.33.75-.62,1.41-1.1,2.49-.16-.96-.27-1.56-.42-2.49Z"/>
        <path class="cls-1" d="m110.84,159.72l-.52.61-.24-.24.61-.52.15.15h0Z"/>
        <path class="cls-1" d="m110.69,159.58c.17-.2.35-.41.52-.61l.24.24-.61.52s-.1-.1-.15-.15h0Z"/>
        <path class="cls-1" d="m147.42,141.13v1.16c-.64.06-1.31.11-2.07.18-.09-.46-.16-.8-.27-1.34h2.34Z"/>
        <path class="cls-1" d="m151.22,133.73v-2.6c.83.2,1.73.15,2.24.58,1.24,1.01,1.04,1.58-.78,3.24-.12,0-.29.05-.36,0-.34-.34-.66-.71-1.11-1.2v-.02Z"/>
        <path class="cls-1" d="m173.68,157.43v-2.03c1.61-.76,2.4.07,3.3,1.77-1.29.1-2.25.18-3.3.26Z"/>
        <path class="cls-1" d="m124.23,140.94v-1.5h-1.5v-1.16c1.35-.91,2.22-.19,3.18,1.16-.55.48-1.12.99-1.69,1.5h.01Z"/>
        <path class="cls-1" d="m173.52,120.57c.11-1.52.16-2.18.22-3.08,1.08.49,1.88.85,3.14,1.41-1.09.54-1.92.95-3.35,1.67h0Z"/>
      </g>
    </g>
  </g>
</svg>
